<?xml version="1.0" encoding="UTF-8" standalone="no"?>
<svg
   xmlns:dc="http://purl.org/dc/elements/1.1/"
   xmlns:cc="http://creativecommons.org/ns#"
   xmlns:rdf="http://www.w3.org/1999/02/22-rdf-syntax-ns#"
   xmlns:svg="http://www.w3.org/2000/svg"
   xmlns="http://www.w3.org/2000/svg"
   xmlns:sodipodi="http://sodipodi.sourceforge.net/DTD/sodipodi-0.dtd"
   xmlns:inkscape="http://www.inkscape.org/namespaces/inkscape"
   width="21.484808mm"
   height="15.968078mm"
   viewBox="0 0 21.484808 15.968078"
   version="1.1"
   id="svg65396"
   sodipodi:docname="4.svg"
   inkscape:version="1.0.2 (e86c8708, 2021-01-15)">
  <defs
     id="defs65390" />
  <sodipodi:namedview
     id="base"
     pagecolor="#ffffff"
     bordercolor="#666666"
     borderopacity="1.0"
     inkscape:pageopacity="0.0"
     inkscape:pageshadow="2"
     inkscape:zoom="0.6767733"
     inkscape:cx="-104.60301"
     inkscape:cy="-27.32869"
     inkscape:document-units="mm"
     inkscape:current-layer="layer1"
     inkscape:document-rotation="0"
     showgrid="false"
     inkscape:window-width="1440"
     inkscape:window-height="872"
     inkscape:window-x="0"
     inkscape:window-y="28"
     inkscape:window-maximized="0"
     fit-margin-top="0"
     fit-margin-left="0"
     fit-margin-right="0"
     fit-margin-bottom="0" />
  <metadata
     id="metadata65393">
    <rdf:RDF>
      <cc:Work
         rdf:about="">
        <dc:format>image/svg+xml</dc:format>
        <dc:type
           rdf:resource="http://purl.org/dc/dcmitype/StillImage" />
        <dc:title></dc:title>
      </cc:Work>
    </rdf:RDF>
  </metadata>
  <g
     inkscape:label="Layer 1"
     inkscape:groupmode="layer"
     id="layer1"
     transform="translate(-137.81888,-142.17658)">
    <path
       style="fill:#ffffff;stroke-width:0.0583889"
       d="m 145.93384,158.09205 c -0.41352,-0.0888 -0.81268,-0.36622 -1.04291,-0.72503 -0.94821,-1.47764 0.80403,-3.22988 2.28166,-2.28167 1.0053,0.64507 1.00772,2.14299 0.005,2.78241 -0.15385,0.0981 -0.38492,0.19571 -0.51338,0.21704 -0.12852,0.0213 -0.27298,0.0472 -0.32113,0.0573 -0.048,0.0107 -0.23224,-0.0133 -0.40873,-0.0501 z m 0.67016,-0.56919 c 0.30932,-0.0858 0.64389,-0.42816 0.72959,-0.74641 0.29186,-1.08392 -1.02409,-1.85506 -1.81535,-1.06379 -0.57033,0.57036 -0.36041,1.52064 0.39547,1.79015 0.27708,0.0987 0.39432,0.10212 0.69029,0.0187 z m 7.17406,0.58729 c -0.76554,-0.14851 -1.36304,-0.86381 -1.36304,-1.63156 0,-0.62134 0.42937,-1.27024 1.0041,-1.51749 1.08109,-0.46507 2.32409,0.34651 2.32409,1.51749 0,1.00759 -0.98154,1.8225 -1.96515,1.63156 z m 0.55825,-0.57897 c 0.4969,-0.14238 0.82299,-0.55958 0.82299,-1.05259 0,-0.501 -0.3311,-0.9161 -0.84357,-1.0576 -0.39412,-0.10879 -0.89064,0.0901 -1.14266,0.45794 -0.20745,0.30268 -0.20825,0.89544 -0.002,1.1969 0.14851,0.21704 0.36883,0.37459 0.63576,0.45525 0.21624,0.0653 0.30185,0.0653 0.52913,1e-4 z m -10.39999,-3.72389 c -0.0488,-0.0563 -0.66085,-2.32241 -1.36007,-5.03605 -0.6992,-2.71365 -1.30822,-5.05907 -1.35331,-5.21206 -0.10505,-0.35569 -0.37699,-0.66576 -0.65112,-0.74189 -0.11785,-0.0328 -0.75409,-0.0597 -1.41404,-0.0597 -0.85501,-2.4e-4 -1.22004,-0.0213 -1.26995,-0.0704 -0.11679,-0.11679 -0.0805,-0.32906 0.0733,-0.42995 0.12319,-0.0808 0.31866,-0.0909 1.38674,-0.0733 1.15816,0.0187 1.26446,0.0301 1.55237,0.15945 0.50981,0.22851 0.73703,0.56004 0.97394,1.42111 l 0.0925,0.33574 h 8.20391 c 8.90753,0 8.42124,-0.016 8.77637,0.30933 0.17278,0.15891 0.35503,0.54297 0.35673,0.75196 0.002,0.20397 -1.4215,5.00238 -1.56847,5.2881 -0.14852,0.28869 -0.38446,0.50639 -0.70741,0.65259 -0.25917,0.11732 -0.35009,0.11892 -6.70199,0.12025 -5.09823,0.001 -6.44441,0.016 -6.46412,0.0744 -0.0133,0.0403 0.0883,0.50653 0.22664,1.03641 l 0.25144,0.96343 6.18351,0.0299 c 3.40092,0.016 6.18914,0.0363 6.19605,0.0437 0.11519,0.12798 0.13252,0.26946 0.0485,0.39736 l -0.0931,0.14212 h -6.32483 c -5.9509,0 -6.33006,-0.005 -6.41359,-0.10212 z m 12.70283,-3.1722 c 0.12345,-0.0344 0.315,-0.14585 0.42563,-0.24797 0.19038,-0.17545 0.2405,-0.31807 0.92871,-2.63771 0.40017,-1.34871 0.72754,-2.49703 0.72754,-2.55177 0,-0.17518 -0.12532,-0.38216 -0.27191,-0.44896 -0.20371,-0.0928 -16.31058,-0.0923 -16.31058,4.6e-4 0,0.0973 1.45268,5.66454 1.51792,5.81742 l 0.056,0.13145 6.35106,-3.4e-4 c 4.32166,-2.4e-4 6.4228,-0.0213 6.57552,-0.0627 z"
       id="path2307"
       sodipodi:nodetypes="csssssccsssssssssssssssssssscssscssccsssssscscscscsssssssssscsss" />
  </g>
</svg>
