<?xml version="1.0" encoding="UTF-8" standalone="no"?>
<svg
   xmlns:dc="http://purl.org/dc/elements/1.1/"
   xmlns:cc="http://creativecommons.org/ns#"
   xmlns:rdf="http://www.w3.org/1999/02/22-rdf-syntax-ns#"
   xmlns:svg="http://www.w3.org/2000/svg"
   xmlns="http://www.w3.org/2000/svg"
   xmlns:sodipodi="http://sodipodi.sourceforge.net/DTD/sodipodi-0.dtd"
   xmlns:inkscape="http://www.inkscape.org/namespaces/inkscape"
   width="135.28226mm"
   height="115.73769mm"
   viewBox="0 0 135.28226 115.73769"
   version="1.1"
   id="svg2048"
   inkscape:version="1.0.2 (e86c8708, 2021-01-15)"
   sodipodi:docname="Cloud.svg">
  <defs
     id="defs2042" />
  <sodipodi:namedview
     id="base"
     pagecolor="#ffffff"
     bordercolor="#666666"
     borderopacity="1.0"
     inkscape:pageopacity="0.0"
     inkscape:pageshadow="2"
     inkscape:zoom="0.47867637"
     inkscape:cx="188.74431"
     inkscape:cy="283.4701"
     inkscape:document-units="mm"
     inkscape:current-layer="layer1"
     inkscape:document-rotation="0"
     showgrid="false"
     inkscape:snap-global="false"
     inkscape:window-width="1440"
     inkscape:window-height="900"
     inkscape:window-x="0"
     inkscape:window-y="0"
     inkscape:window-maximized="0" />
  <metadata
     id="metadata2045">
    <rdf:RDF>
      <cc:Work
         rdf:about="">
        <dc:format>image/svg+xml</dc:format>
        <dc:type
           rdf:resource="http://purl.org/dc/dcmitype/StillImage" />
        <dc:title></dc:title>
      </cc:Work>
    </rdf:RDF>
  </metadata>
  <g
     inkscape:label="Layer 1"
     inkscape:groupmode="layer"
     id="layer1"
     transform="translate(-53.298555,-56.078956)">
    <path
       id="path2084"
       style="fill:#000000;fill-opacity:1;stroke:#000000;stroke-width:4;stroke-linecap:round;stroke-linejoin:round;stroke-miterlimit:4;stroke-dasharray:none;stroke-opacity:1"
       d="M 124.82719,97.898843 92.704414,130.00207 h 22.175216 v 39.81458 h 19.89512 v -39.81458 h 22.17521 z" />
    <path
       id="path2092"
       style="fill:#000000;stroke-width:3.77953;stroke-miterlimit:4;stroke-dasharray:none"
       d="m 514.88867,212.11328 c -24.68073,1.18444 -45.5235,8.0599 -66.04883,21.78906 -8.72972,5.83921 -21.8773,17.77553 -27.68164,25.13086 -2.9162,3.69548 -2.91656,3.69491 -7.39843,2.55274 -2.53013,-0.64479 -11.88658,-1.12626 -21.48243,-1.10547 -15.04057,0.0327 -18.1149,0.3353 -26.66992,2.61914 -48.32422,12.90061 -81.85866,53.51997 -84.51758,102.37305 l -0.60742,11.13476 -3.8418,1.15235 c -13.7517,4.12012 -30.90437,14.87705 -42.98437,26.95703 -14.40744,14.40744 -24.14484,31.4834 -29.625,51.95117 -2.3184,8.65863 -2.58789,11.49748 -2.58789,27.16797 0,15.67045 0.26957,18.51129 2.58789,27.16992 11.92139,44.52499 48.02347,77.26252 92.33008,83.72461 2.29387,0.33457 41.67709,0.60062 90.06836,0.78125 v -32.14063 c -47.05761,-0.0961 -84.40422,-0.2936 -86.48828,-0.64453 -2.93485,-0.49421 -8.78485,-2.0467 -13,-3.45117 -20.938,-6.97648 -40.32364,-25.38421 -48.22852,-45.79687 -7.31093,-18.8789 -7.72653,-36.39553 -1.31836,-55.64258 6.91193,-20.76015 25.38147,-40.16715 45.74219,-48.06836 9.90368,-3.84325 22.51262,-6.23598 30.26758,-5.74219 5.50049,0.35025 6.34627,0.18613 5.83398,-1.13867 -7.64129,-19.76032 -8.27535,-37.75728 -1.99414,-56.60352 11.0918,-33.28002 44.84186,-56.25228 79.53516,-54.13867 10.0145,0.61011 22.55951,3.9361 31.07422,8.23828 l 4.57617,2.3125 2.7832,-5.67578 c 11.98745,-24.442 35.04998,-42.98284 62.56445,-50.30078 6.96658,-1.85288 11.11585,-2.26172 23,-2.26172 17.18351,0 26.01471,1.93338 40.86719,8.94336 20.71185,9.77547 35.76491,24.83573 45.62305,45.64649 11.25675,23.76326 12.29023,50.74359 2.88476,75.2539 -0.30391,0.79196 2.66955,2.3525 8.36719,4.39063 28.49696,10.19361 51.88516,36.45848 59.45117,66.76757 3.13527,12.56051 3.12823,32.21995 -0.0156,44.81836 -2.5485,10.21267 -9.37781,25.30843 -14.87891,32.89258 -13.33704,18.38729 -33.11423,31.91679 -55.34375,37.85938 l -8.45508,2.25976 -43.87695,0.0508 v 32.19727 c 46.12764,-0.32741 53.23411,-1.34915 65.37695,-4.70117 17.32003,-4.78118 41.01514,-18.8569 54.57813,-32.41992 14.19556,-14.19553 27.89022,-37.69479 32.82617,-56.32813 12.10035,-45.67922 -0.14918,-91.45267 -33.26562,-124.30469 -5.85154,-5.80486 -14.28869,-12.95835 -18.75,-15.89648 l -8.11329,-5.3418 0.49805,-11.25976 c 0.95524,-21.64615 -3.18309,-41.51132 -12.70508,-60.98828 -13.24248,-27.08715 -32.44218,-46.28684 -59.52929,-59.5293 -19.68877,-9.62553 -39.50293,-13.70649 -61.42774,-12.6543 z"
       transform="scale(0.26458333)" />
  </g>
</svg>
