<?xml version="1.0" encoding="UTF-8" standalone="no"?>
<svg
   xmlns:dc="http://purl.org/dc/elements/1.1/"
   xmlns:cc="http://creativecommons.org/ns#"
   xmlns:rdf="http://www.w3.org/1999/02/22-rdf-syntax-ns#"
   xmlns:svg="http://www.w3.org/2000/svg"
   xmlns="http://www.w3.org/2000/svg"
   xmlns:sodipodi="http://sodipodi.sourceforge.net/DTD/sodipodi-0.dtd"
   xmlns:inkscape="http://www.inkscape.org/namespaces/inkscape"
   width="30.857729mm"
   height="30.857729mm"
   viewBox="0 0 30.857729 30.857729"
   version="1.1"
   id="svg65396"
   sodipodi:docname="2.svg"
   inkscape:version="1.0.2 (e86c8708, 2021-01-15)">
  <defs
     id="defs65390" />
  <sodipodi:namedview
     id="base"
     pagecolor="#ffffff"
     bordercolor="#666666"
     borderopacity="1.0"
     inkscape:pageopacity="0.0"
     inkscape:pageshadow="2"
     inkscape:zoom="0.6767733"
     inkscape:cx="89.37915"
     inkscape:cy="187.15732"
     inkscape:document-units="mm"
     inkscape:current-layer="layer1"
     inkscape:document-rotation="0"
     showgrid="false"
     inkscape:window-width="1440"
     inkscape:window-height="872"
     inkscape:window-x="0"
     inkscape:window-y="28"
     inkscape:window-maximized="0"
     fit-margin-top="0"
     fit-margin-left="0"
     fit-margin-right="0"
     fit-margin-bottom="0" />
  <metadata
     id="metadata65393">
    <rdf:RDF>
      <cc:Work
         rdf:about="">
        <dc:format>image/svg+xml</dc:format>
        <dc:type
           rdf:resource="http://purl.org/dc/dcmitype/StillImage" />
        <dc:title></dc:title>
      </cc:Work>
    </rdf:RDF>
  </metadata>
  <g
     inkscape:label="Layer 1"
     inkscape:groupmode="layer"
     id="layer1"
     transform="translate(-86.494437,-85.427159)">
    <g
       id="g3682"
       transform="matrix(0.82390462,0,0,0.82390462,21.16242,-29.77422)">
      <path
         id="rect3229"
         style="fill:none;stroke:#ffffff;stroke-width:5.38239;stroke-linecap:round;stroke-linejoin:round;stroke-miterlimit:4;stroke-dasharray:none;paint-order:stroke fill markers"
         d="m 309.79649,629.47674 16.72468,-62.41736 c 2.15617,-8.04673 10.36998,-12.78906 18.41676,-10.63291 v 0 l 78.53406,21.04312 c 8.04676,2.15611 12.78897,10.37001 10.63287,18.41673 l -12.19756,45.52196"
         transform="scale(0.26458333)" />
      <path
         id="circle3231"
         style="fill:none;stroke:#ffffff;stroke-width:0.949393;stroke-linecap:round;stroke-linejoin:round;stroke-miterlimit:4;stroke-dasharray:none;paint-order:stroke fill markers"
         d="m 93.36983,152.81206 a 2.1130666,2.1130666 0 0 1 -2.587967,1.49416 2.1130666,2.1130666 0 0 1 -1.494163,-2.58796 2.1130666,2.1130666 0 0 1 2.587967,-1.49417 2.1130666,2.1130666 0 0 1 1.494163,2.58797 z" />
      <path
         id="circle3233"
         style="fill:none;stroke:#ffffff;stroke-width:0.474696;stroke-linecap:round;stroke-linejoin:round;stroke-miterlimit:4;stroke-dasharray:none;paint-order:stroke fill markers"
         d="m 97.208483,153.84062 a 1.0565333,1.0565333 0 0 1 -1.293983,0.74708 1.0565333,1.0565333 0 0 1 -0.747085,-1.29398 1.0565333,1.0565333 0 0 1 1.293983,-0.74708 1.0565333,1.0565333 0 0 1 0.747085,1.29398 z" />
      <path
         id="rect3235"
         style="fill:none;stroke:#ffffff;stroke-width:0.949393;stroke-linecap:round;stroke-linejoin:round;stroke-miterlimit:4;stroke-dasharray:none;paint-order:stroke fill markers"
         d="m 92.010901,147.99728 5.290406,1.41757 c 2.32433,0.6228 3.694153,2.9954 3.071343,5.31973 -0.622798,2.32432 -2.995396,3.69415 -5.319726,3.07135 l -5.290407,-1.41757 c -2.32433,-0.6228 -3.694148,-2.9954 -3.071346,-5.31973 0.622802,-2.32432 2.9954,-3.69415 5.31973,-3.07135 z" />
      <path
         style="fill:none;stroke:#ffffff;stroke-width:0.879173;stroke-linecap:round;stroke-linejoin:round;stroke-miterlimit:4;stroke-dasharray:none;stroke-opacity:1"
         d="m 113.61595,165.1379 -1.33216,4.97169"
         id="path3237" />
      <path
         style="fill:none;stroke:#ffffff;stroke-width:0.879173;stroke-linecap:round;stroke-linejoin:round;stroke-miterlimit:4;stroke-dasharray:none;stroke-opacity:1"
         d="m 83.78991,156.83464 -1.332161,4.97167"
         id="path3241" />
      <path
         style="fill:none;stroke:#ffffff;stroke-width:0.949393;stroke-linecap:butt;stroke-linejoin:miter;stroke-miterlimit:4;stroke-dasharray:none;stroke-opacity:1"
         d="m 106.35615,151.10986 7.1723,12.42279"
         id="path3245" />
      <path
         id="path3247"
         style="fill:none;stroke:#ffffff;stroke-width:0.949393;stroke-linecap:round;stroke-linejoin:round;stroke-miterlimit:4;stroke-dasharray:none;paint-order:stroke fill markers"
         d="m 113.45557,163.40638 -5.85496,-1.56883 c -2.12903,-0.57047 -3.38376,-2.74373 -2.81329,-4.87276 l 1.56883,-5.85493" />
      <path
         style="fill:none;stroke:#ffffff;stroke-width:0.474696;stroke-linecap:butt;stroke-linejoin:miter;stroke-miterlimit:4;stroke-dasharray:none;stroke-opacity:1"
         d="m 105.6131,153.61976 5.06259,8.85711"
         id="path3249" />
      <path
         style="fill:none;stroke:#ffffff;stroke-width:0.474696;stroke-linecap:butt;stroke-linejoin:miter;stroke-miterlimit:4;stroke-dasharray:none;stroke-opacity:1"
         d="m 104.91715,156.39008 3.09837,5.53547"
         id="path3251" />
      <circle
         style="opacity:1;fill:none;fill-opacity:1;stroke:#ffffff;stroke-width:1.57817;stroke-linecap:round;stroke-miterlimit:4;stroke-dasharray:none;stroke-dashoffset:0;stroke-opacity:1;paint-order:stroke fill markers"
         id="path3616"
         cx="98.022125"
         cy="158.5502"
         r="17.937433" />
    </g>
  </g>
</svg>
