<?xml version="1.0" encoding="UTF-8" standalone="no"?>
<svg
   xmlns:dc="http://purl.org/dc/elements/1.1/"
   xmlns:cc="http://creativecommons.org/ns#"
   xmlns:rdf="http://www.w3.org/1999/02/22-rdf-syntax-ns#"
   xmlns:svg="http://www.w3.org/2000/svg"
   xmlns="http://www.w3.org/2000/svg"
   xmlns:sodipodi="http://sodipodi.sourceforge.net/DTD/sodipodi-0.dtd"
   xmlns:inkscape="http://www.inkscape.org/namespaces/inkscape"
   width="30.857729mm"
   height="30.857729mm"
   viewBox="0 0 30.857729 30.857729"
   version="1.1"
   id="svg65396"
   sodipodi:docname="1.svg"
   inkscape:version="1.0.2 (e86c8708, 2021-01-15)">
  <defs
     id="defs65390" />
  <sodipodi:namedview
     id="base"
     pagecolor="#ffffff"
     bordercolor="#666666"
     borderopacity="1.0"
     inkscape:pageopacity="0.0"
     inkscape:pageshadow="2"
     inkscape:zoom="0.6767733"
     inkscape:cx="84.258926"
     inkscape:cy="210.11149"
     inkscape:document-units="mm"
     inkscape:current-layer="layer1"
     inkscape:document-rotation="0"
     showgrid="false"
     inkscape:window-width="1440"
     inkscape:window-height="872"
     inkscape:window-x="0"
     inkscape:window-y="28"
     inkscape:window-maximized="0"
     fit-margin-top="0"
     fit-margin-left="0"
     fit-margin-right="0"
     fit-margin-bottom="0" />
  <metadata
     id="metadata65393">
    <rdf:RDF>
      <cc:Work
         rdf:about="">
        <dc:format>image/svg+xml</dc:format>
        <dc:type
           rdf:resource="http://purl.org/dc/dcmitype/StillImage" />
        <dc:title></dc:title>
      </cc:Work>
    </rdf:RDF>
  </metadata>
  <g
     inkscape:label="Layer 1"
     inkscape:groupmode="layer"
     id="layer1"
     transform="translate(-87.849163,-79.353869)">
    <g
       id="g3689"
       transform="matrix(0.82390462,0,0,0.82390462,-29.4226,-35.84751)">
      <g
         id="g3552"
         transform="matrix(0.68143314,0,0,0.68143314,51.300095,50.336244)">
        <path
           style="fill:#ffffff;stroke:#ffffff;stroke-width:0.124984"
           d="m 153.40395,174.00952 c -5.38306,-0.0709 -5.71992,-0.0886 -5.96889,-0.31402 -0.33275,-0.30128 -4.24166,-6.1187 -6.22203,-9.25989 -1.79472,-2.84672 -4.555,-7.45614 -4.94195,-8.2526 -0.25614,-0.52721 -0.26311,-0.59859 -0.0888,-0.90916 l 0.18916,-0.33703 11.05631,-0.031 c 6.08097,-0.0171 11.13061,-0.059 11.22142,-0.0932 0.12756,-0.0481 0.10989,-0.14053 -0.0777,-0.40648 -0.92999,-1.31835 -1.32557,-2.73372 -1.31883,-4.71867 0.006,-1.8711 0.3549,-3.07149 1.30388,-4.49033 1.41409,-2.11423 3.5578,-3.23654 6.17675,-3.23375 1.51994,0.001 2.51287,0.23646 3.92366,0.92802 1.22518,0.60058 1.60154,0.95023 9.99547,9.28633 3.5573,3.53279 5.47077,5.526 5.83007,6.07302 2.6339,4.01007 1.77636,9.46382 -2.00253,12.73573 -0.93954,0.81348 -2.91034,1.78498 -4.31088,2.12504 -3.06909,0.74518 -11.94003,1.06683 -24.7651,0.89797 z m 13.70401,-1.63888 c 3.84818,-0.12111 8.00477,-0.39591 9.56128,-0.63211 1.72662,-0.26201 3.37488,-0.95706 4.65543,-1.96311 2.26024,-1.77575 3.46864,-5.0036 2.9156,-7.78806 -0.54152,-2.72643 -2.27388,-4.79896 -4.60252,-5.50627 -1.07895,-0.32772 -2.53388,-0.27392 -3.61009,0.1335 -1.50708,0.57052 -3.00216,1.89131 -3.83065,3.38409 -1.52438,2.74662 -0.77521,6.00534 1.83132,7.96579 0.93603,0.70402 1.93529,1.03306 3.13731,1.03306 1.15988,0 1.50335,0.18657 1.50335,0.8166 0,0.69929 -0.36344,0.84806 -1.90572,0.78011 -1.47658,-0.0651 -2.28312,-0.32499 -3.47207,-1.11894 -0.49757,-0.33227 -2.82185,-2.63825 -6.78219,-6.72881 l -6.02521,-6.22331 -11.02984,-0.012 c -6.06642,-0.007 -11.02985,0.0249 -11.02985,0.0701 0,0.32845 4.78021,8.01467 7.68305,12.35377 l 2.25758,3.37457 5.37212,0.0645 c 2.95466,0.0355 6.30012,0.0767 7.43435,0.0915 1.13424,0.0148 3.80577,-0.0279 5.93675,-0.095 z m 2.68716,-9.63552 c 0,-2.82882 1.92678,-5.76333 4.74249,-7.22289 1.16568,-0.60425 1.77659,-0.7758 3.1116,-0.87382 l 1.04246,-0.0765 -4.72949,-4.69628 c -2.60122,-2.58296 -5.04103,-4.90306 -5.42179,-5.15579 -1.88118,-1.24861 -4.4194,-1.48353 -6.33912,-0.58671 -2.43246,1.13636 -3.83573,4.15178 -3.23842,6.95889 0.27657,1.29979 0.72182,2.13496 1.74209,3.26773 1.33635,1.4837 8.88737,9.26332 8.99644,9.2688 0.0516,0.002 0.0937,-0.39494 0.0937,-0.88339 z"
           id="path3225" />
        <path
           style="fill:#ffffff;stroke:#ffffff;stroke-width:1.22873;stroke-linecap:butt;stroke-linejoin:miter;stroke-miterlimit:4;stroke-dasharray:2.45747, 1.22873;stroke-dashoffset:0;stroke-opacity:1"
           d="m 154.60144,155.68099 15.2721,17.18111"
           id="path3227" />
        <path
           id="rect3293"
           style="fill:none;stroke:#ffffff;stroke-width:1.18095;stroke-linecap:round;stroke-linejoin:round;stroke-miterlimit:4;stroke-dasharray:none;paint-order:stroke fill markers"
           d="m 142.63458,157.43245 h 1.94 c 0.85233,0 3.10101,-0.14722 3.10101,1.15307 0,0.63881 -0.68618,1.15307 -1.53851,1.15307 h -1.93999 c -0.85234,0 -3.10102,0.0927 -3.10102,-1.15307 0,-0.63879 0.68617,-1.15307 1.53851,-1.15307 z"
           sodipodi:nodetypes="sssssss" />
      </g>
      <circle
         style="opacity:1;fill:none;fill-opacity:1;stroke:#ffffff;stroke-width:1.57817;stroke-linecap:round;stroke-miterlimit:4;stroke-dasharray:none;stroke-dashoffset:0;stroke-opacity:1;paint-order:stroke fill markers"
         id="circle3652"
         cx="161.0631"
         cy="158.5502"
         r="17.937433" />
    </g>
  </g>
</svg>
