<?xml version="1.0" encoding="UTF-8" standalone="no"?>
<svg
   xmlns:dc="http://purl.org/dc/elements/1.1/"
   xmlns:cc="http://creativecommons.org/ns#"
   xmlns:rdf="http://www.w3.org/1999/02/22-rdf-syntax-ns#"
   xmlns:svg="http://www.w3.org/2000/svg"
   xmlns="http://www.w3.org/2000/svg"
   xmlns:sodipodi="http://sodipodi.sourceforge.net/DTD/sodipodi-0.dtd"
   xmlns:inkscape="http://www.inkscape.org/namespaces/inkscape"
   width="182.98088mm"
   height="75.793991mm"
   viewBox="0 0 182.98088 75.793991"
   version="1.1"
   id="svg1839"
   inkscape:version="1.0.2 (e86c8708, 2021-01-15)"
   sodipodi:docname="Rewrap website copy.svg"
   inkscape:export-filename="/Users/cameronhome/Desktop/Website Logo.png"
   inkscape:export-xdpi="555.24927"
   inkscape:export-ydpi="555.24927">
  <defs
     id="defs1833" />
  <sodipodi:namedview
     id="base"
     pagecolor="#ffffff"
     bordercolor="#666666"
     borderopacity="1.0"
     inkscape:pageopacity="0.0"
     inkscape:pageshadow="2"
     inkscape:zoom="0.63762716"
     inkscape:cx="189.52198"
     inkscape:cy="112.57358"
     inkscape:document-units="mm"
     inkscape:current-layer="layer1"
     inkscape:document-rotation="0"
     showgrid="false"
     fit-margin-top="0"
     fit-margin-left="0"
     fit-margin-right="0"
     fit-margin-bottom="0"
     inkscape:window-width="1440"
     inkscape:window-height="900"
     inkscape:window-x="0"
     inkscape:window-y="0"
     inkscape:window-maximized="0"
     inkscape:snap-global="false" />
  <metadata
     id="metadata1836">
    <rdf:RDF>
      <cc:Work
         rdf:about="">
        <dc:format>image/svg+xml</dc:format>
        <dc:type
           rdf:resource="http://purl.org/dc/dcmitype/StillImage" />
        <dc:title />
      </cc:Work>
    </rdf:RDF>
  </metadata>
  <g
     inkscape:label="Layer 1"
     inkscape:groupmode="layer"
     id="layer1"
     transform="translate(-29.568753,-35.470902)">
    <g
       id="g2081"
       transform="translate(-4.2556983)"
       style="stroke:#ffffff">
      <rect
         style="fill:none;stroke:#ffffff;stroke-width:1.5;stroke-linecap:round;stroke-linejoin:round;stroke-miterlimit:4;stroke-dasharray:none;paint-order:stroke fill markers"
         id="rect4268"
         width="31.039801"
         height="58.608829"
         x="73.029785"
         y="21.247581"
         ry="4.1906686"
         transform="rotate(15)" />
      <circle
         style="fill:none;stroke:#ffffff;stroke-width:1;stroke-linecap:round;stroke-linejoin:round;stroke-miterlimit:4;stroke-dasharray:none;paint-order:stroke fill markers"
         id="circle4270"
         cx="78.660568"
         cy="26.361977"
         transform="rotate(15)"
         r="2.2257018" />
      <circle
         style="fill:none;stroke:#ffffff;stroke-width:0.499999;stroke-linecap:round;stroke-linejoin:round;stroke-miterlimit:4;stroke-dasharray:none;paint-order:stroke fill markers"
         id="circle4272"
         cx="83.95932"
         cy="26.361977"
         transform="rotate(15)"
         r="1.1128509" />
      <rect
         style="fill:none;stroke:#ffffff;stroke-width:1;stroke-linecap:round;stroke-linejoin:round;stroke-miterlimit:4;stroke-dasharray:none;paint-order:stroke fill markers"
         id="rect4274"
         width="14.919121"
         height="9.1501427"
         x="73.616028"
         y="21.833824"
         ry="4.5750713"
         transform="rotate(15)" />
      <path
         style="fill:none;stroke:#ffffff;stroke-width:0.926039;stroke-linecap:round;stroke-linejoin:round;stroke-miterlimit:4;stroke-dasharray:none;stroke-opacity:1"
         d="m 92.63248,59.381475 -1.40317,5.2367"
         id="path4276" />
      <path
         style="fill:none;stroke:#ffffff;stroke-width:0.926039;stroke-linecap:round;stroke-linejoin:round;stroke-miterlimit:4;stroke-dasharray:none;stroke-opacity:1"
         d="m 90.63343,66.842055 -1.40317,5.236699"
         id="path4278" />
      <path
         style="fill:none;stroke:#ffffff;stroke-width:0.926039;stroke-linecap:round;stroke-linejoin:round;stroke-miterlimit:4;stroke-dasharray:none;stroke-opacity:1"
         d="m 61.21659,50.635615 -1.40317,5.236699"
         id="path4280" />
      <path
         id="path4282"
         style="fill:none;stroke:#ffffff;stroke-width:0.999998;stroke-linecap:round;stroke-linejoin:round;stroke-miterlimit:4;stroke-dasharray:none;paint-order:stroke fill markers"
         d="m 58.23902,98.260513 c 0.5181,-1.125807 1.78037,-1.744146 3.01962,-1.412089 v 0 l 8.18351,2.192762 c 1.23925,0.332057 2.02324,1.498694 1.90902,2.732714" />
      <path
         style="fill:none;stroke:#ffffff;stroke-width:1;stroke-linecap:butt;stroke-linejoin:miter;stroke-miterlimit:4;stroke-dasharray:none;stroke-opacity:1"
         d="m 84.9857,44.60569 7.55462,13.084979"
         id="path4284" />
      <path
         id="path4286"
         style="fill:none;stroke:#ffffff;stroke-width:1;stroke-linecap:round;stroke-linejoin:round;stroke-miterlimit:4;stroke-dasharray:none;paint-order:stroke fill markers"
         d="M 92.46355,57.557667 86.2965,55.905213 c -2.24252,-0.600882 -3.56413,-2.88998 -2.96325,-5.132502 L 84.9857,44.60569" />
      <path
         style="fill:none;stroke:#ffffff;stroke-width:0.5;stroke-linecap:butt;stroke-linejoin:miter;stroke-miterlimit:4;stroke-dasharray:none;stroke-opacity:1"
         d="m 84.20305,47.249384 5.33244,9.329226"
         id="path4391" />
      <path
         style="fill:none;stroke:#ffffff;stroke-width:0.5;stroke-linecap:butt;stroke-linejoin:miter;stroke-miterlimit:4;stroke-dasharray:none;stroke-opacity:1"
         d="m 83.47,50.167368 3.26352,5.830528"
         id="path4393" />
    </g>
    <path
       id="path4581"
       style="fill:none;fill-opacity:1;stroke:#ffffff;stroke-width:0.999995;stroke-linecap:round;stroke-linejoin:round;stroke-miterlimit:4;stroke-dasharray:none;stroke-opacity:1;paint-order:stroke fill markers"
       d="M 41.532181,101.80819 A 41.474884,41.474884 0 0 1 31.178964,82.713689 41.474884,41.474884 0 0 1 31.896689,61.004372" />
    <path
       id="path1630"
       style="fill:none;fill-opacity:1;stroke:#ffffff;stroke-width:3.77951;stroke-linecap:round;stroke-linejoin:round;stroke-miterlimit:4;stroke-dasharray:none;stroke-opacity:1;paint-order:stroke fill markers"
       d="m 272.07245,34.429637 a 156.75547,156.75547 0 0 1 35.89248,60.49044"
       transform="matrix(0.26458333,0,0,0.26458333,29.568753,35.445088)" />
    <text
       xml:space="preserve"
       style="font-style:normal;font-weight:normal;font-size:10.5833px;line-height:1.25;font-family:sans-serif;fill:#000000;fill-opacity:1;stroke:none;stroke-width:0.264583"
       x="100.74036"
       y="95.045692"
       id="text1033"><tspan
         sodipodi:role="line"
         id="tspan1031"
         x="100.74036"
         y="95.045692"
         style="stroke-width:0.264583" /></text>
    <g
       aria-label=" ReWrap"
       transform="scale(1.0004004,0.99959977)"
       id="text4296-5"
       style="font-style:normal;font-variant:normal;font-weight:normal;font-stretch:normal;font-size:29.97100000000000009px;line-height:1.25;font-family:TimeBurner;-inkscape-font-specification:'TimeBurner, Normal';font-variant-ligatures:normal;font-variant-caps:normal;font-variant-numeric:normal;font-variant-east-asian:normal;fill:#ffffff;fill-opacity:1;stroke:#ffffff;stroke-width:0.161301;stroke-miterlimit:4;stroke-dasharray:none;stroke-opacity:0.976608">
      <path
         d="m 95.1736,63.953792 h 8.53723 q 1.44639,0 2.68111,0.564445 1.27,0.529167 2.18722,1.481667 0.9525,0.917223 1.48167,2.187224 0.56445,1.270001 0.56445,2.716391 0,1.270001 -0.42334,2.434168 -0.42333,1.12889 -1.19944,2.046112 -0.77611,0.881945 -1.83445,1.481668 -1.02305,0.599723 -2.2225,0.81139 h 0.10583 l 5.18584,12.100285 h -2.01083 L 103.07583,77.817968 H 97.008045 V 89.777142 H 95.1736 Z m 1.834445,11.994452 h 6.702785 q 1.05833,0 1.97555,-0.388056 0.91723,-0.388055 1.58751,-1.058334 0.70555,-0.705556 1.09361,-1.622778 0.42333,-0.917223 0.42333,-1.975557 0,-1.058334 -0.42333,-1.975557 -0.38806,-0.917223 -1.09361,-1.587501 -0.67028,-0.705556 -1.58751,-1.093612 -0.91722,-0.423334 -1.97555,-0.423334 h -6.702785 z"
         style="font-style:normal;font-variant:normal;font-weight:normal;font-stretch:normal;font-size:29.97100000000000009px;font-family:TimeBurner;-inkscape-font-specification:'TimeBurner, Normal';font-variant-ligatures:normal;font-variant-caps:normal;font-variant-numeric:normal;font-variant-east-asian:normal;stroke:#ffffff;stroke-width:0.161301;stroke-miterlimit:4;stroke-dasharray:none;stroke-opacity:0.976608;fill:#ffffff"
         id="path859" />
      <path
         d="m 128.22504,80.111025 c -0.11759,-0.917223 -0.38806,-1.76389 -0.81139,-2.540002 -0.42333,-0.776111 -0.96426,-1.458149 -1.62278,-2.046112 -0.635,-0.587963 -1.37583,-1.046575 -2.2225,-1.375835 -0.82315,-0.329259 -1.70509,-0.493889 -2.64583,-0.493889 -0.94075,0 -1.83445,0.16463 -2.68112,0.493889 -0.84667,0.32926 -1.59926,0.787872 -2.25778,1.375835 -0.635,0.587963 -1.16417,1.270001 -1.5875,2.046112 -0.42333,0.776112 -0.6938,1.622779 -0.81139,2.540002 z m -7.3025,10.124729 c -1.27001,0 -2.46945,-0.235185 -3.59834,-0.705556 -1.12889,-0.493889 -2.11666,-1.152408 -2.96333,-1.975557 -0.82315,-0.846667 -1.48167,-1.822687 -1.97556,-2.928058 -0.47037,-1.128889 -0.70556,-2.328334 -0.70556,-3.598335 0,-1.270001 0.23519,-2.469447 0.70556,-3.598336 0.49389,-1.12889 1.15241,-2.104909 1.97556,-2.928058 0.84667,-0.846667 1.83444,-1.505185 2.96333,-1.975556 1.12889,-0.493889 2.32833,-0.740834 3.59834,-0.740834 1.27,0 2.45768,0.246945 3.56305,0.740834 1.12889,0.470371 2.10491,1.128889 2.92806,1.975556 0.84667,0.823149 1.50519,1.799168 1.97556,2.928058 0.49389,1.128889 0.74083,2.328335 0.74083,3.598336 v 0.458611 c 0,0.141111 -0.0118,0.293982 -0.0353,0.458612 h -0.42333 -16.08668 c 0.11759,0.917223 0.38806,1.76389 0.81139,2.540001 0.42333,0.776112 0.9525,1.45815 1.5875,2.046113 0.65852,0.587963 1.41111,1.046575 2.25778,1.375834 0.84667,0.329259 1.74037,0.493889 2.68112,0.493889 0.68203,0 2.0276,-0.207059 2.63908,-0.465763 0.61148,-0.258703 1.15241,-0.62324 1.62277,-1.093611 l 1.30528,1.305278 c -0.61148,0.611482 -1.34055,1.105371 -2.18722,1.481668 -0.82314,0.352778 -2.41565,0.606874 -3.37991,0.606874 z"
         style="font-style:normal;font-variant:normal;font-weight:normal;font-stretch:normal;font-size:35.27779999999999916px;font-family:TimeBurner;-inkscape-font-specification:'TimeBurner, Normal';font-variant-ligatures:normal;font-variant-caps:normal;font-variant-numeric:normal;font-variant-east-asian:normal;stroke:#ffffff;stroke-width:0.161301;stroke-miterlimit:4;stroke-dasharray:none;stroke-opacity:0.976608;fill:#ffffff"
         id="path861"
         sodipodi:nodetypes="csccsscsccccccscscscccsscccscsssccccc" />
      <path
         d="m 133.10495,64.024347 h 1.83445 v 19.191124 q 0,1.058334 0.38806,2.010835 0.42333,0.917223 1.09361,1.622779 0.70555,0.670278 1.62278,1.058334 0.91722,0.388056 1.97555,0.388056 1.05834,0 1.97556,-0.388056 0.91722,-0.388056 1.5875,-1.058334 0.70556,-0.705556 1.09361,-1.622779 0.42334,-0.952501 0.42334,-2.010835 V 64.024347 h 1.83444 v 19.191124 q 0,1.058334 0.38806,2.010835 0.38805,0.917223 1.05833,1.622779 0.70556,0.670278 1.62278,1.058334 0.9525,0.388056 2.01084,0.388056 1.05833,0 1.97555,-0.388056 0.91723,-0.388056 1.5875,-1.058334 0.70556,-0.705556 1.09362,-1.622779 0.42333,-0.952501 0.42333,-2.010835 V 64.024347 h 1.83444 v 19.191124 q 0,1.44639 -0.56444,2.716391 -0.52917,1.234723 -1.48167,2.187224 -0.91722,0.917223 -2.18722,1.481667 -1.27,0.529167 -2.68111,0.529167 -1.94028,0 -3.52778,-0.917222 -1.55223,-0.952501 -2.46945,-2.540002 -0.91722,1.587501 -2.50472,2.540002 -1.55223,0.917222 -3.49251,0.917222 -1.44639,0 -2.71639,-0.529167 -1.23472,-0.564444 -2.18722,-1.481667 -0.91722,-0.952501 -1.48167,-2.187224 -0.52917,-1.270001 -0.52917,-2.716391 z"
         style="font-style:normal;font-variant:normal;font-weight:normal;font-stretch:normal;font-size:35.27779999999999916px;font-family:TimeBurner;-inkscape-font-specification:'TimeBurner, Normal';font-variant-ligatures:normal;font-variant-caps:normal;font-variant-numeric:normal;font-variant-east-asian:normal;stroke:#ffffff;stroke-width:0.161301;stroke-miterlimit:4;stroke-dasharray:none;stroke-opacity:0.976608;fill:#ffffff"
         id="path863" />
      <path
         d="m 164.32526,89.777142 h -1.83445 v -8.81945 q 0,-1.905001 0.70556,-3.598336 0.74083,-1.693334 1.97556,-2.928057 1.27,-1.270001 2.92806,-1.975557 1.69333,-0.740834 3.59833,-0.740834 v 1.869724 q -1.51694,0 -2.8575,0.599722 -1.34056,0.564445 -2.36361,1.552223 -0.98778,0.987779 -1.5875,2.363613 -0.56445,1.340557 -0.56445,2.857502 z"
         style="font-style:normal;font-variant:normal;font-weight:normal;font-stretch:normal;font-size:35.27779999999999916px;font-family:TimeBurner;-inkscape-font-specification:'TimeBurner, Normal';font-variant-ligatures:normal;font-variant-caps:normal;font-variant-numeric:normal;font-variant-east-asian:normal;stroke:#ffffff;stroke-width:0.161301;stroke-miterlimit:4;stroke-dasharray:none;stroke-opacity:0.976608;fill:#ffffff"
         id="path865" />
      <path
         d="m 181.75801,71.67963 q 1.905,0 3.59833,0.740834 1.69334,0.705556 2.92806,1.975557 1.27,1.234723 1.97556,2.928058 0.74083,1.693334 0.74083,3.598335 v 8.819451 h -1.86972 v -3.280836 q -1.23473,1.693335 -3.17501,2.681113 -1.905,0.987778 -4.19805,0.987778 -1.90501,0 -3.59834,-0.705556 -1.65806,-0.740833 -2.92806,-1.975556 -1.23472,-1.270001 -1.97555,-2.928058 -0.70556,-1.693334 -0.70556,-3.598336 0,-1.905001 0.70556,-3.598335 0.74083,-1.693335 1.97555,-2.928058 1.27,-1.270001 2.92806,-1.975557 1.69333,-0.740834 3.59834,-0.740834 z m 0,1.869724 q -1.51695,0 -2.85751,0.599722 -1.34055,0.564445 -2.36361,1.552224 -0.98778,0.987778 -1.5875,2.363612 -0.56444,1.340557 -0.56444,2.857502 0,1.516946 0.56444,2.857502 0.59972,1.340557 1.5875,2.363613 1.02306,0.987778 2.36361,1.587501 1.34056,0.564445 2.85751,0.564445 1.51694,0 2.8575,-0.564445 1.37583,-0.599723 2.36361,-1.587501 0.98778,-1.023056 1.55222,-2.363613 0.59973,-1.340556 0.59973,-2.857502 0,-1.516945 -0.59973,-2.857502 -0.56444,-1.375834 -1.55222,-2.363612 -0.98778,-0.987779 -2.36361,-1.552224 -1.34056,-0.599722 -2.8575,-0.599722 z"
         style="font-style:normal;font-variant:normal;font-weight:normal;font-stretch:normal;font-size:35.27779999999999916px;font-family:TimeBurner;-inkscape-font-specification:'TimeBurner, Normal';font-variant-ligatures:normal;font-variant-caps:normal;font-variant-numeric:normal;font-variant-east-asian:normal;stroke:#ffffff;stroke-width:0.161301;stroke-miterlimit:4;stroke-dasharray:none;stroke-opacity:0.976608;fill:#ffffff"
         id="path867" />
      <path
         d="m 203.25707,71.785464 q 1.905,0 3.56305,0.740834 1.69334,0.705556 2.92806,1.975556 1.27,1.234723 1.97556,2.928058 0.74083,1.693334 0.74083,3.598336 0,1.905001 -0.74083,3.598335 -0.70556,1.658057 -1.97556,2.928058 -1.23472,1.234723 -2.92806,1.975557 -1.65805,0.705556 -3.56305,0.705556 -2.29306,0 -4.23334,-0.987779 -1.905,-0.987778 -3.13972,-2.681112 v 12.100285 h -1.86973 v -17.6389 q 0,-1.905002 0.70556,-3.598336 0.74083,-1.693335 1.97556,-2.928058 1.27,-1.27 2.96333,-1.975556 1.69333,-0.740834 3.59834,-0.740834 z m 0,1.869723 q -1.55223,0 -2.89278,0.599723 -1.34056,0.564445 -2.32834,1.552223 -0.98778,0.987779 -1.5875,2.363613 -0.56444,1.340556 -0.56444,2.857502 0,1.516945 0.56444,2.857502 0.59972,1.340556 1.5875,2.363612 0.98778,0.987779 2.32834,1.587501 1.34055,0.564445 2.89278,0.564445 1.51694,0 2.8575,-0.564445 1.34055,-0.599722 2.32833,-1.587501 1.02306,-1.023056 1.5875,-2.363612 0.59973,-1.340557 0.59973,-2.857502 0,-1.516946 -0.59973,-2.857502 -0.56444,-1.375834 -1.5875,-2.363613 -0.98778,-0.987778 -2.32833,-1.552223 -1.34056,-0.599723 -2.8575,-0.599723 z"
         style="font-style:normal;font-variant:normal;font-weight:normal;font-stretch:normal;font-size:35.27779999999999916px;font-family:TimeBurner;-inkscape-font-specification:'TimeBurner, Normal';font-variant-ligatures:normal;font-variant-caps:normal;font-variant-numeric:normal;font-variant-east-asian:normal;stroke:#ffffff;stroke-width:0.161301;stroke-miterlimit:4;stroke-dasharray:none;stroke-opacity:0.976608;fill:#ffffff"
         id="path869" />
    </g>
    <path
       id="path1626"
       style="fill:none;stroke:#ffffff;stroke-width:4.20756;stroke-linecap:round;stroke-miterlimit:4;stroke-dasharray:none;stroke-opacity:0.976608;paint-order:stroke fill markers"
       d="M 275.17181,221.74005 A 141.12896,141.12896 0 0 1 157.82917,284.45927 141.12896,141.12896 0 0 1 16.700209,143.3303 141.12896,141.12896 0 0 1 157.82917,2.2013443 141.12896,141.12896 0 0 1 290.39533,94.919614"
       transform="matrix(0.26458333,0,0,0.26458333,29.568753,35.445088)" />
  </g>
</svg>
