<?xml version="1.0" encoding="UTF-8" standalone="no"?>
<svg
   xmlns:dc="http://purl.org/dc/elements/1.1/"
   xmlns:cc="http://creativecommons.org/ns#"
   xmlns:rdf="http://www.w3.org/1999/02/22-rdf-syntax-ns#"
   xmlns:svg="http://www.w3.org/2000/svg"
   xmlns="http://www.w3.org/2000/svg"
   xmlns:sodipodi="http://sodipodi.sourceforge.net/DTD/sodipodi-0.dtd"
   xmlns:inkscape="http://www.inkscape.org/namespaces/inkscape"
   width="29.118017mm"
   height="33.949455mm"
   viewBox="0 0 29.118017 33.949455"
   version="1.1"
   id="svg65396"
   sodipodi:docname="3.svg"
   inkscape:version="1.0.2 (e86c8708, 2021-01-15)">
  <defs
     id="defs65390" />
  <sodipodi:namedview
     id="base"
     pagecolor="#ffffff"
     bordercolor="#666666"
     borderopacity="1.0"
     inkscape:pageopacity="0.0"
     inkscape:pageshadow="2"
     inkscape:zoom="0.6767733"
     inkscape:cx="77.913326"
     inkscape:cy="180.38898"
     inkscape:document-units="mm"
     inkscape:current-layer="layer1"
     inkscape:document-rotation="0"
     showgrid="false"
     inkscape:window-width="1440"
     inkscape:window-height="872"
     inkscape:window-x="0"
     inkscape:window-y="28"
     inkscape:window-maximized="0"
     fit-margin-top="0"
     fit-margin-left="0"
     fit-margin-right="0"
     fit-margin-bottom="0" />
  <metadata
     id="metadata65393">
    <rdf:RDF>
      <cc:Work
         rdf:about="">
        <dc:format>image/svg+xml</dc:format>
        <dc:type
           rdf:resource="http://purl.org/dc/dcmitype/StillImage" />
        <dc:title></dc:title>
      </cc:Work>
    </rdf:RDF>
  </metadata>
  <g
     inkscape:label="Layer 1"
     inkscape:groupmode="layer"
     id="layer1"
     transform="translate(-89.528103,-87.217951)">
    <g
       id="g3437"
       style="stroke:#ffffff"
       transform="matrix(0.4591872,0,0,0.4591872,141.35794,46.91279)">
      <path
         style="fill:#000000;stroke:#ffffff;stroke-width:1.40122;stroke-miterlimit:4;stroke-dasharray:none;stroke-opacity:1"
         d="m -103.3285,160.82506 c -0.11966,-0.31183 0.0418,-0.93963 0.3634,-1.41365 0.25349,-0.37355 0.30783,-0.5909 0.30933,-1.23739 0.003,-1.03177 0.0737,-1.12993 0.76444,-1.05206 0.66288,0.0747 1.01372,0.3698 1.42794,1.20102 0.35057,0.70351 0.37343,1.03715 0.0887,1.29479 -0.17681,0.16001 -2.68366,1.39043 -2.83285,1.39043 -0.0279,0 -0.0824,-0.0823 -0.12093,-0.18314 z m 1.51919,-0.87208 c 1.32934,-0.61417 1.3751,-0.67746 1.01016,-1.39712 -0.34081,-0.67207 -0.61318,-0.93606 -1.04531,-1.01314 -0.31081,-0.0554 -0.3144,-0.0479 -0.35951,0.75057 -0.0339,0.59922 -0.11393,0.89891 -0.3112,1.16584 -0.31509,0.42618 -0.53307,0.95588 -0.39335,0.95588 0.0545,0 0.54915,-0.20791 1.09921,-0.46203 z m 3.778543,-2.9331 c -0.55463,-0.0984 -1.184815,-0.20515 -1.400406,-0.23731 -0.249613,-0.0372 -0.551253,-0.22355 -0.830457,-0.51299 -0.51946,-0.5385 -0.88494,-0.74474 -1.14382,-0.64541 -0.29445,0.11288 -0.83014,-0.16661 -1.05789,-0.55215 -0.25219,-0.42694 -0.6354,-0.53876 -1.20361,-0.35124 -0.66388,0.21909 -2.12104,0.1742 -2.63453,-0.0812 -0.71557,-0.35588 -0.92462,-0.75186 -0.91728,-1.73747 0.006,-0.66082 0.1058,-1.1426 0.4513,-2.15599 0.2447,-0.71775 0.58004,-1.53579 0.7452,-1.81788 0.309,-0.52777 1.88739,-2.31883 3.51971,-3.99394 0.50939,-0.52276 1.22474,-1.40425 1.58966,-1.95887 0.3649,-0.55463 0.72223,-1.04672 0.79405,-1.09355 0.0717,-0.0469 0.392991,-0.14158 0.713729,-0.21058 0.34847,-0.075 0.921429,-0.35551 1.423639,-0.69711 0.462262,-0.31444 1.497104,-1.01525 2.299652,-1.55738 0.802549,-0.54216 1.89697,-1.40533 2.432053,-1.91819 0.797448,-0.76434 1.090527,-0.96682 1.625373,-1.12291 0.519403,-0.15159 0.781544,-0.32672 1.285099,-0.85865 1.537025,-1.62358 2.140306,-2.82087 2.396505,-4.75622 0.187609,-1.41723 0.373383,-1.70069 1.201334,-1.83309 0.537144,-0.0859 1.077664,-0.67831 1.652893,-1.81162 0.365661,-0.7204 0.401197,-0.88366 0.406353,-1.86701 0.0069,-1.29872 0.10958,-1.49382 1.002656,-1.90499 0.360968,-0.16617 0.889144,-0.43372 1.173716,-0.59459 0.741469,-0.4191 0.965553,-0.27397 0.965539,0.62538 0,0.63225 0.02858,0.70203 0.424751,1.03459 0.377881,0.31726 0.434631,0.4404 0.51429,1.11604 0.06838,0.57938 0.153559,0.81125 0.359538,0.97805 0.3791,0.30699 0.460118,0.28309 0.968229,-0.28558 0.247777,-0.27732 0.562715,-0.61097 0.699852,-0.74148 0.137179,-0.13046 0.500053,-0.4856 0.806472,-0.78911 0.733594,-0.72665 0.96317,-0.78605 1.451032,-0.37556 1.094085,0.92062 1.360079,1.91894 0.750366,2.81621 -0.410655,0.60434 -0.485928,1.31576 -0.218029,2.06075 0.268417,0.74645 0.177156,1.10767 -0.437362,1.73095 -0.264943,0.26873 -0.657242,0.75553 -0.871782,1.08177 -0.214541,0.32624 -0.582977,0.80672 -0.818761,1.06774 -0.557783,0.61744 -1.137061,1.48512 -1.584107,2.37272 -0.440178,0.87396 -0.765821,1.23234 -1.611134,1.77307 -0.765066,0.48942 -1.026533,0.81797 -1.026533,1.28991 0,0.51049 0.328767,0.96952 0.889508,1.24193 0.467894,0.22733 0.506316,0.28329 0.581001,0.84632 0.09626,0.7258 -0.03125,1.00721 -0.536611,1.18334 -0.526998,0.18372 -0.784501,0.16566 -1.568692,-0.10998 -0.604907,-0.2126 -0.772507,-0.22542 -1.419519,-0.10858 -1.003806,0.18131 -1.781048,0.53561 -2.577963,1.17518 -1.319569,1.05903 -1.719365,1.76041 -1.79723,3.15298 -0.04694,0.83819 -0.126391,1.11061 -0.658783,2.25621 -0.779275,1.67694 -1.334899,3.20357 -1.334899,3.66774 0,0.56349 -0.32378,0.97004 -1.245685,1.56406 -0.644307,0.41515 -1.41289,1.16495 -1.927207,1.88008 -1.298244,1.80519 -2.136859,2.14943 -4.30121,1.76556 z m 2.571867,-0.53011 c 0.37781,-0.18291 0.695159,-0.50219 1.215375,-1.2228 0.788719,-1.09254 1.431205,-1.72299 2.357214,-2.31306 0.676537,-0.4311 0.973735,-0.86414 0.973735,-1.41883 0,-0.40165 0.585164,-1.96358 1.317819,-3.51759 0.431029,-0.91424 0.515186,-1.2217 0.585415,-2.13891 0.09598,-1.25346 0.338002,-1.81503 1.162661,-2.69788 1.576876,-1.68812 3.759849,-2.45982 5.323315,-1.88181 0.50116,0.18528 0.782566,0.2275 1.042394,0.15642 0.32095,-0.0879 0.359399,-0.15028 0.391388,-0.63612 0.03307,-0.50252 0.01124,-0.54887 -0.326806,-0.68884 -0.499155,-0.20675 -1.025552,-0.83915 -1.120708,-1.34638 -0.113355,-0.60419 0.166479,-1.18127 0.780072,-1.60865 1.363218,-0.94954 1.489202,-1.07076 1.803972,-1.73555 0.43987,-0.92902 1.011455,-1.80101 1.656969,-2.52783 0.299314,-0.33701 0.725943,-0.89326 0.948064,-1.23611 0.222121,-0.34284 0.576293,-0.7835 0.787051,-0.97926 0.542299,-0.50368 0.634738,-0.80896 0.405848,-1.34034 -0.326161,-0.75724 -0.270337,-1.53149 0.16533,-2.29297 0.428283,-0.74857 0.471203,-1.10274 0.185452,-1.53064 -0.306587,-0.45911 -0.90471,-1.06447 -1.051726,-1.06447 -0.07328,0 -0.354089,0.22689 -0.623936,0.5042 -0.269832,0.27732 -0.60478,0.61099 -0.744327,0.74149 -0.139562,0.13045 -0.479315,0.49084 -0.755061,0.80079 -0.586508,0.65925 -1.035136,0.74204 -1.562583,0.28835 -0.254896,-0.21924 -0.341028,-0.43024 -0.423785,-1.03808 -0.08911,-0.6542 -0.162751,-0.81695 -0.517162,-1.1424 -0.376731,-0.34596 -0.413275,-0.43775 -0.413275,-1.03807 0,-0.36221 -0.02718,-0.65856 -0.06039,-0.65856 -0.129894,0 -2.139424,1.12051 -2.221493,1.23876 -0.04793,0.0691 -0.088,0.53744 -0.08897,1.04085 -0.0028,1.06191 -0.212537,1.77263 -0.799831,2.70129 -0.574359,0.90824 -0.952997,1.2829 -1.383773,1.36925 -0.678918,0.13606 -0.757976,0.18116 -0.885781,0.50505 -0.06992,0.17727 -0.186053,0.77032 -0.257992,1.31789 -0.210744,1.60384 -0.715224,2.70131 -1.835134,3.99216 -1.146575,1.3216 -1.287034,1.43866 -1.961636,1.63478 -0.5328,0.15487 -0.822978,0.35282 -1.560426,1.06441 -0.515298,0.49722 -1.869548,1.53127 -3.140789,2.39815 -2.092946,1.4272 -3.062379,1.95654 -3.583267,1.95654 -0.144817,0 -0.463063,0.37109 -0.941133,1.09739 -0.39728,0.60356 -1.16864,1.55116 -1.71412,2.10579 -1.65036,1.67802 -3.17512,3.45039 -3.46243,4.02472 -0.4717,0.94294 -1.02212,2.78314 -1.0404,3.47845 -0.0387,1.472 0.89672,1.87258 3.37511,1.44532 0.63834,-0.10997 0.94077,0.005 1.2613,0.48009 0.24625,0.36493 0.34456,0.41835 0.77114,0.41903 0.54662,8.3e-4 0.95423,0.22846 1.432834,0.80001 0.235756,0.28155 0.424023,0.38706 0.697878,0.39112 0.206259,0.003 0.722033,0.0768 1.146154,0.1638 1.202456,0.2468 2.096602,0.22654 2.690508,-0.061 z m 23.975036,-27.66432 c -0.147899,-0.15633 -0.407531,-0.46661 -0.576952,-0.68952 -0.173429,-0.22818 -0.510408,-0.47645 -0.771133,-0.56817 -1.08523,-0.38171 -1.128387,-0.76361 -0.196171,-1.73599 1.324503,-1.38151 2.01337,-3.32924 1.636274,-4.62644 -0.242649,-0.83467 -0.75593,-1.27728 -1.863943,-1.60725 -0.72698,-0.2165 -0.966183,-0.36118 -1.593999,-0.96404 -0.580888,-0.55778 -0.886522,-0.7532 -1.43084,-0.91476 -0.53612,-0.15915 -0.753099,-0.29589 -0.962498,-0.6066 -0.33405,-0.49566 -0.430552,-0.85876 -0.332285,-1.25031 0.09794,-0.39041 1.536633,-1.33868 2.706328,-1.78386 1.402803,-0.53389 1.462593,-0.63869 1.890146,-3.31287 0.073,-0.45676 0.264424,-1.12409 0.425313,-1.48297 0.453252,-1.01104 0.481416,-1.98001 0.0964,-3.31818 -0.49882,-1.73387 -1.211773,-3.53096 -1.720164,-4.33595 -0.256115,-0.40553 -0.607946,-1.07814 -0.781838,-1.49468 -0.173891,-0.41654 -0.596148,-1.13139 -0.938354,-1.58856 -0.342191,-0.45718 -0.986094,-1.46503 -1.430883,-2.23967 -0.444803,-0.77465 -1.08537,-1.73525 -1.423512,-2.13468 -0.814235,-0.96186 -0.923403,-1.18688 -0.833627,-1.71829 0.119807,-0.70882 -0.141397,-1.541736 -0.852866,-2.720016 -0.82578,-1.36763 -0.759082,-1.51882 0.410235,-0.92996 0.975066,0.49103 1.411476,0.89714 1.90633,1.77399 0.199239,0.35302 0.459194,0.680566 0.577709,0.727906 0.118545,0.0473 0.748671,0.27312 1.400392,0.50179 2.120464,0.74397 2.566374,1.1396 3.406937,3.02278 0.472127,1.05773 0.496424,1.17013 0.547078,2.52932 0.04876,1.30937 0.07776,1.45474 0.36363,1.82964 0.2869,0.37614 0.311687,0.50274 0.324718,1.65811 0.01124,0.93883 0.05492,1.26929 0.177956,1.32465 0.976874,0.43976 1.112146,0.54933 1.383549,1.12066 0.154989,0.32626 0.34435,0.72138 0.420814,0.87806 0.223284,0.45752 0.534859,0.59042 0.739157,0.31529 0.254433,-0.34264 0.208487,-1.29605 -0.119946,-2.48991 -0.160048,-0.58172 -0.263667,-1.10185 -0.230277,-1.15589 0.118823,-0.19231 0.760904,-0.0958 1.008205,0.15144 0.278983,0.27899 0.92119,1.6317 1.205035,2.53829 0.102144,0.32624 0.212607,1.11132 0.245466,1.74461 0.04021,0.77585 0.124428,1.25957 0.258273,1.48295 0.236441,0.3948 1.941388,1.54137 3.024291,2.03383 0.64494,0.29329 0.97148,0.36053 1.995294,0.41084 l 1.224175,0.0601 0.607891,-0.53989 c 0.85543,-0.75975 1.50226,-1.01989 2.520194,-1.01359 1.318407,0.009 2.082338,0.46627 1.911654,1.14635 -0.03601,0.14361 -0.247692,0.49899 -0.470346,0.78975 -0.240954,0.31468 -0.464757,0.79275 -0.552935,1.18116 -0.08155,0.35888 -0.275158,1.06013 -0.430398,1.55834 -0.241262,0.77429 -0.358544,0.96836 -0.807426,1.3362 -0.59157,0.48474 -1.252651,1.54523 -1.252651,2.00948 0,0.45366 -0.305157,0.55365 -1.444404,0.47326 -1.190742,-0.0841 -1.576217,0.0554 -2.500362,0.90529 -0.649144,0.59689 -0.659891,0.64157 -0.558064,2.31856 0.01976,0.32626 -0.03111,0.79437 -0.113217,1.04025 -0.16851,0.50481 -2.242594,3.35923 -3.371387,4.63983 -0.409633,0.46472 -1.019205,1.19568 -1.354614,1.62437 -1.055343,1.34882 -1.851263,1.96628 -2.964503,2.29978 -0.193116,0.0578 -0.337877,0.003 -0.533865,-0.20487 z m 1.154731,-0.48615 c 0.845691,-0.3975 2.512328,-2.25963 5.239338,-5.85388 1.495773,-1.97146 1.628917,-2.27731 1.521192,-3.49426 -0.104391,-1.17969 0.0426,-1.61883 0.751501,-2.24376 0.925323,-0.81579 1.271733,-0.93972 2.626655,-0.93972 h 1.191092 v -0.3375 c 0,-0.42271 0.801259,-1.68196 1.307225,-2.05442 0.494522,-0.36405 0.61542,-0.62229 1.014753,-2.16771 0.246769,-0.95499 0.438483,-1.43246 0.726826,-1.81024 0.215423,-0.2822 0.391669,-0.62214 0.391669,-0.7554 0,-0.33819 -0.652744,-0.58609 -1.543191,-0.58609 -0.841086,0 -1.38801,0.23994 -2.36973,1.03963 l -0.651063,0.53036 -1.311191,-0.0501 c -1.158906,-0.0444 -1.402396,-0.0929 -2.096363,-0.41763 -0.925687,-0.43317 -2.659457,-1.55548 -3.01433,-1.95126 -0.367623,-0.40997 -0.421599,-0.62315 -0.520931,-2.05753 -0.07735,-1.11752 -0.154456,-1.46017 -0.536415,-2.38522 -0.750716,-1.8181 -1.20446,-2.15945 -0.818816,-0.61595 0.484093,1.93755 0.07539,3.24859 -0.872426,2.79896 -0.222556,-0.10556 -0.472534,-0.44782 -0.798527,-1.09328 -0.442379,-0.8759 -0.518787,-0.96035 -1.127042,-1.24568 l -0.652506,-0.30609 v -1.25526 c 0,-1.2014 -0.01528,-1.27731 -0.35591,-1.7693 -0.337666,-0.48771 -0.359146,-0.59061 -0.41909,-2.00726 -0.06096,-1.44085 -0.08001,-1.52854 -0.543729,-2.50161 -0.779036,-1.63484 -1.216706,-2.00681 -3.070828,-2.60986 -1.524581,-0.49587 -1.819384,-0.70465 -2.345401,-1.661046 -0.255358,-0.46429 -1.35893,-1.42365 -1.637633,-1.42365 -0.04778,0 0.143583,0.40433 0.4252,0.89849 0.554435,0.97292 0.821381,2.035146 0.63478,2.525936 -0.124845,0.32853 -0.05857,0.44797 0.8182,1.47298 0.322645,0.3772 0.924818,1.28173 1.338164,2.01005 0.413359,0.72835 1.016458,1.67424 1.340237,2.102 0.323766,0.42777 0.822054,1.2583 1.107299,1.84563 0.285247,0.58732 0.77203,1.54835 1.081756,2.1356 0.580553,1.10076 1.512378,3.77156 1.675171,4.80136 0.124706,0.78897 -0.03518,1.84114 -0.398338,2.62131 -0.165036,0.35453 -0.300576,0.83182 -0.30122,1.06062 -5.89e-4,0.22882 -0.05759,0.60252 -0.126671,0.83046 -0.06908,0.22795 -0.172294,0.72509 -0.229422,1.10476 -0.154148,1.02447 -0.497488,1.40168 -1.688861,1.85551 -0.940554,0.35828 -2.29605,1.14206 -2.59217,1.49887 -0.109858,0.13228 -0.09612,0.28604 0.06193,0.70019 0.18255,0.47801 0.259659,0.54758 0.777423,0.70133 0.818031,0.24294 1.044118,0.37991 1.788978,1.08377 0.53776,0.50816 0.820175,0.67249 1.507768,0.87725 1.02048,0.30392 1.509729,0.69054 1.879973,1.48567 0.684453,1.46984 -0.04526,3.87417 -1.652079,5.44311 -0.665201,0.64954 -0.640805,0.77127 0.212929,1.0628 0.335311,0.11452 0.609502,0.34161 0.935818,0.7751 0.253859,0.33724 0.520791,0.61264 0.593192,0.61199 0.07245,-5.9e-4 0.398549,-0.12667 0.724809,-0.27996 z m 1.337645,-28.49521 c -0.588176,-0.31918 -0.736214,-0.97414 -0.362972,-1.60596 0.244919,-0.41464 0.498638,-0.43707 0.839498,-0.0742 0.198468,0.21127 0.617868,1.1219 0.617868,1.34158 0,0.0958 -0.531328,0.52311 -0.645205,0.51882 -0.06921,-0.003 -0.271403,-0.0837 -0.449189,-0.18018 z m 0.565364,-0.61586 c -0.04414,-0.17944 -0.160257,-0.44995 -0.258076,-0.60112 -0.142813,-0.22073 -0.211347,-0.24707 -0.347868,-0.13383 -0.09346,0.0777 -0.170023,0.22946 -0.170023,0.33744 0,0.31325 0.347544,0.72371 0.612767,0.72371 0.205894,0 0.231046,-0.0503 0.1632,-0.32625 z"
         id="path3362" />
      <path
         id="path3364"
         style="fill:none;fill-opacity:1;stroke:#ffffff;stroke-width:2.5;stroke-linecap:square;stroke-miterlimit:4;stroke-dasharray:none;stroke-dashoffset:0;stroke-opacity:1;paint-order:stroke fill markers"
         d="m -55.156379,108.89829 a 30.456044,30.456044 0 0 1 4.445463,15.84362 v 0 a 30.456044,30.456044 0 0 1 -30.456045,30.45605 30.456044,30.456044 0 0 1 -10.556581,-1.88807" />
      <path
         id="path3385"
         style="fill:none;fill-opacity:1;stroke:#ffffff;stroke-width:1;stroke-linecap:square;stroke-miterlimit:4;stroke-dasharray:none;stroke-dashoffset:0;stroke-opacity:1;paint-order:stroke fill markers"
         d="m -55.763675,107.9418 a 30.456044,30.456044 0 0 1 0.607296,0.95649" />
      <path
         id="path3383"
         style="fill:none;fill-opacity:1;stroke:#ffffff;stroke-width:2.5;stroke-linecap:square;stroke-miterlimit:4;stroke-dasharray:none;stroke-dashoffset:0;stroke-opacity:1;paint-order:stroke fill markers"
         d="M -72.464902,95.555532 A 30.456044,30.456044 0 0 1 -55.763675,107.9418" />
      <path
         id="path3381"
         style="fill:none;fill-opacity:1;stroke:#ffffff;stroke-width:1;stroke-linecap:square;stroke-miterlimit:4;stroke-dasharray:none;stroke-dashoffset:0;stroke-opacity:1;paint-order:stroke fill markers"
         d="m -72.95182,95.414755 a 30.456044,30.456044 0 0 1 0.486918,0.140777" />
      <path
         id="path3377"
         style="fill:none;fill-opacity:1;stroke:#ffffff;stroke-width:1;stroke-linecap:square;stroke-miterlimit:4;stroke-dasharray:none;stroke-dashoffset:0;stroke-opacity:1;paint-order:stroke fill markers"
         d="m -78.603389,94.393951 a 30.456044,30.456044 0 0 1 0.524404,0.04887" />
      <path
         id="path3375"
         style="fill:none;fill-opacity:1;stroke:#ffffff;stroke-width:2.5;stroke-linecap:square;stroke-miterlimit:4;stroke-dasharray:none;stroke-dashoffset:0;stroke-opacity:1;paint-order:stroke fill markers"
         d="m -103.23934,145.72716 a 30.456044,30.456044 0 0 1 -8.38366,-20.98525 30.456044,30.456044 0 0 1 30.456039,-30.456042 30.456044,30.456044 0 0 1 2.563572,0.108083" />
      <path
         id="path3373"
         style="fill:none;fill-opacity:1;stroke:#ffffff;stroke-width:1;stroke-linecap:square;stroke-miterlimit:4;stroke-dasharray:none;stroke-dashoffset:0;stroke-opacity:1;paint-order:stroke fill markers"
         d="m -102.95448,146.02277 a 30.456044,30.456044 0 0 1 -0.28486,-0.29561" />
      <path
         id="path3369"
         style="fill:none;fill-opacity:1;stroke:#ffffff;stroke-width:1;stroke-linecap:square;stroke-miterlimit:4;stroke-dasharray:none;stroke-dashoffset:0;stroke-opacity:1;paint-order:stroke fill markers"
         d="m -91.723542,153.30989 a 30.456044,30.456044 0 0 1 -0.415247,-0.1569" />
    </g>
  </g>
</svg>
