<svg width="690" height="26" viewBox="0 0 690 26" fill="none" xmlns="http://www.w3.org/2000/svg">
<g clip-path="url(#clip0)">
<rect width="26" height="690" transform="translate(0 26) rotate(-90)" fill="#AFAFAF"/>
<line x1="30" y1="26" x2="30" y2="18" stroke="black" stroke-width="2"/>
<line x1="60" y1="26" x2="60" y2="18" stroke="black" stroke-width="2"/>
<line x1="90" y1="26" x2="90" y2="18" stroke="black" stroke-width="2"/>
<line x1="120" y1="26" x2="120" y2="18" stroke="black" stroke-width="2"/>
<line x1="150" y1="26" x2="150" y2="18" stroke="black" stroke-width="2"/>
<line x1="180" y1="26" x2="180" y2="18" stroke="black" stroke-width="2"/>
<line x1="210" y1="26" x2="210" y2="18" stroke="black" stroke-width="2"/>
<line x1="240" y1="26" x2="240" y2="18" stroke="black" stroke-width="2"/>
<line x1="270" y1="26" x2="270" y2="18" stroke="black" stroke-width="2"/>
<line x1="300" y1="26" x2="300" y2="18" stroke="black" stroke-width="2"/>
<line x1="330" y1="26" x2="330" y2="18" stroke="black" stroke-width="2"/>
<line x1="360" y1="26" x2="360" y2="18" stroke="black" stroke-width="2"/>
<line x1="390" y1="26" x2="390" y2="18" stroke="black" stroke-width="2"/>
<line x1="420" y1="26" x2="420" y2="18" stroke="black" stroke-width="2"/>
<line x1="450" y1="26" x2="450" y2="18" stroke="black" stroke-width="2"/>
<line x1="30" y1="26" x2="30" y2="18" stroke="black" stroke-width="2"/>
<line x1="60" y1="26" x2="60" y2="18" stroke="black" stroke-width="2"/>
<line x1="90" y1="26" x2="90" y2="18" stroke="black" stroke-width="2"/>
<line x1="120" y1="26" x2="120" y2="18" stroke="black" stroke-width="2"/>
<line x1="150" y1="26" x2="150" y2="18" stroke="black" stroke-width="2"/>
<line x1="180" y1="26" x2="180" y2="18" stroke="black" stroke-width="2"/>
<line x1="210" y1="26" x2="210" y2="18" stroke="black" stroke-width="2"/>
<line x1="240" y1="26" x2="240" y2="18" stroke="black" stroke-width="2"/>
<line x1="270" y1="26" x2="270" y2="18" stroke="black" stroke-width="2"/>
<line x1="300" y1="26" x2="300" y2="18" stroke="black" stroke-width="2"/>
<line x1="330" y1="26" x2="330" y2="18" stroke="black" stroke-width="2"/>
<line x1="360" y1="26" x2="360" y2="18" stroke="black" stroke-width="2"/>
<line x1="390" y1="26" x2="390" y2="18" stroke="black" stroke-width="2"/>
<line x1="420" y1="26" x2="420" y2="18" stroke="black" stroke-width="2"/>
<line x1="450" y1="26" x2="450" y2="18" stroke="black" stroke-width="2"/>
<line x1="480" y1="26" x2="480" y2="18" stroke="black" stroke-width="2"/>
<line x1="510" y1="26" x2="510" y2="18" stroke="black" stroke-width="2"/>
<line x1="540" y1="26" x2="540" y2="18" stroke="black" stroke-width="2"/>
<line x1="570" y1="26" x2="570" y2="18" stroke="black" stroke-width="2"/>
<line x1="600" y1="26" x2="600" y2="18" stroke="black" stroke-width="2"/>
<line x1="630" y1="26" x2="630" y2="18" stroke="black" stroke-width="2"/>
<line x1="660" y1="26" x2="660" y2="18" stroke="black" stroke-width="2"/>
<line x1="480" y1="26" x2="480" y2="18" stroke="black" stroke-width="2"/>
<line x1="510" y1="26" x2="510" y2="18" stroke="black" stroke-width="2"/>
<line x1="540" y1="26" x2="540" y2="18" stroke="black" stroke-width="2"/>
<line x1="570" y1="26" x2="570" y2="18" stroke="black" stroke-width="2"/>
<line x1="600" y1="26" x2="600" y2="18" stroke="black" stroke-width="2"/>
<line x1="630" y1="26" x2="630" y2="18" stroke="black" stroke-width="2"/>
<line x1="660" y1="26" x2="660" y2="18" stroke="black" stroke-width="2"/>
<line x1="690" y1="26" x2="690" y2="18" stroke="black" stroke-width="2"/>
<line x1="285" y1="21" x2="285" y2="26" stroke="black" stroke-width="2"/>
<line x1="315" y1="21" x2="315" y2="26" stroke="black" stroke-width="2"/>
<line x1="255" y1="21" x2="255" y2="26" stroke="black" stroke-width="2"/>
<line x1="225" y1="21" x2="225" y2="26" stroke="black" stroke-width="2"/>
<line x1="195" y1="21" x2="195" y2="26" stroke="black" stroke-width="2"/>
<line x1="165" y1="21" x2="165" y2="26" stroke="black" stroke-width="2"/>
<line x1="135" y1="21" x2="135" y2="26" stroke="black" stroke-width="2"/>
<line x1="105" y1="21" x2="105" y2="26" stroke="black" stroke-width="2"/>
<line x1="75" y1="21" x2="75" y2="26" stroke="black" stroke-width="2"/>
<line x1="45" y1="21" x2="45" y2="26" stroke="black" stroke-width="2"/>
<line x1="15" y1="21" x2="15" y2="26" stroke="black" stroke-width="2"/>
<line x1="585" y1="21" x2="585" y2="26" stroke="black" stroke-width="2"/>
<line x1="615" y1="21" x2="615" y2="26" stroke="black" stroke-width="2"/>
<line x1="645" y1="21" x2="645" y2="26" stroke="black" stroke-width="2"/>
<line x1="675" y1="21" x2="675" y2="26" stroke="black" stroke-width="2"/>
<line x1="555" y1="21" x2="555" y2="26" stroke="black" stroke-width="2"/>
<line x1="525" y1="21" x2="525" y2="26" stroke="black" stroke-width="2"/>
<line x1="495" y1="21" x2="495" y2="26" stroke="black" stroke-width="2"/>
<line x1="465" y1="21" x2="465" y2="26" stroke="black" stroke-width="2"/>
<line x1="435" y1="21" x2="435" y2="26" stroke="black" stroke-width="2"/>
<line x1="405" y1="21" x2="405" y2="26" stroke="black" stroke-width="2"/>
<line x1="375" y1="21" x2="375" y2="26" stroke="black" stroke-width="2"/>
<line x1="345" y1="21" x2="345" y2="26" stroke="black" stroke-width="2"/>
<path d="M30.4023 15H29.3125V7.77539L27.127 8.57812V7.59375L30.2324 6.42773H30.4023V15Z" fill="black"/>
<path d="M62.4297 15H56.8398V14.2207L59.793 10.9395C60.2305 10.4434 60.5312 10.041 60.6953 9.73242C60.8633 9.41992 60.9473 9.09766 60.9473 8.76562C60.9473 8.32031 60.8125 7.95508 60.543 7.66992C60.2734 7.38477 59.9141 7.24219 59.4648 7.24219C58.9258 7.24219 58.5059 7.39648 58.2051 7.70508C57.9082 8.00977 57.7598 8.43555 57.7598 8.98242H56.6758C56.6758 8.19727 56.9277 7.5625 57.4316 7.07812C57.9395 6.59375 58.6172 6.35156 59.4648 6.35156C60.2578 6.35156 60.8848 6.56055 61.3457 6.97852C61.8066 7.39258 62.0371 7.94531 62.0371 8.63672C62.0371 9.47656 61.502 10.4766 60.4316 11.6367L58.1465 14.1152H62.4297V15Z" fill="black"/>
<path d="M88.416 10.207H89.2305C89.7422 10.1992 90.1445 10.0645 90.4375 9.80273C90.7305 9.54102 90.877 9.1875 90.877 8.74219C90.877 7.74219 90.3789 7.24219 89.3828 7.24219C88.9141 7.24219 88.5391 7.37695 88.2578 7.64648C87.9805 7.91211 87.8418 8.26562 87.8418 8.70703H86.7578C86.7578 8.03125 87.0039 7.4707 87.4961 7.02539C87.9922 6.57617 88.6211 6.35156 89.3828 6.35156C90.1875 6.35156 90.8184 6.56445 91.2754 6.99023C91.7324 7.41602 91.9609 8.00781 91.9609 8.76562C91.9609 9.13672 91.8398 9.49609 91.5977 9.84375C91.3594 10.1914 91.0332 10.4512 90.6191 10.623C91.0879 10.7715 91.4492 11.0176 91.7031 11.3613C91.9609 11.7051 92.0898 12.125 92.0898 12.6211C92.0898 13.3867 91.8398 13.9941 91.3398 14.4434C90.8398 14.8926 90.1895 15.1172 89.3887 15.1172C88.5879 15.1172 87.9355 14.9004 87.4316 14.4668C86.9316 14.0332 86.6816 13.4609 86.6816 12.75H87.7715C87.7715 13.1992 87.918 13.5586 88.2109 13.8281C88.5039 14.0977 88.8965 14.2324 89.3887 14.2324C89.9121 14.2324 90.3125 14.0957 90.5898 13.8223C90.8672 13.5488 91.0059 13.1562 91.0059 12.6445C91.0059 12.1484 90.8535 11.7676 90.5488 11.502C90.2441 11.2363 89.8047 11.0996 89.2305 11.0918H88.416V10.207Z" fill="black"/>
<path d="M121.416 12.1348H122.6V13.0195H121.416V15H120.326V13.0195H116.441V12.3809L120.262 6.46875H121.416V12.1348ZM117.672 12.1348H120.326V7.95117L120.197 8.18555L117.672 12.1348Z" fill="black"/>
<path d="M147.338 10.7227L147.771 6.46875H152.143V7.4707H148.691L148.434 9.79688C148.852 9.55078 149.326 9.42773 149.857 9.42773C150.635 9.42773 151.252 9.68555 151.709 10.2012C152.166 10.7129 152.395 11.4062 152.395 12.2812C152.395 13.1602 152.156 13.8535 151.68 14.3613C151.207 14.8652 150.545 15.1172 149.693 15.1172C148.939 15.1172 148.324 14.9082 147.848 14.4902C147.371 14.0723 147.1 13.4941 147.033 12.7559H148.059C148.125 13.2441 148.299 13.6133 148.58 13.8633C148.861 14.1094 149.232 14.2324 149.693 14.2324C150.197 14.2324 150.592 14.0605 150.877 13.7168C151.166 13.373 151.311 12.8984 151.311 12.293C151.311 11.7227 151.154 11.2656 150.842 10.9219C150.533 10.5742 150.121 10.4004 149.605 10.4004C149.133 10.4004 148.762 10.5039 148.492 10.7109L148.205 10.9453L147.338 10.7227Z" fill="black"/>
<path d="M181.094 6.46289V7.38281H180.895C180.051 7.39844 179.379 7.64844 178.879 8.13281C178.379 8.61719 178.09 9.29883 178.012 10.1777C178.461 9.66211 179.074 9.4043 179.852 9.4043C180.594 9.4043 181.186 9.66602 181.627 10.1895C182.072 10.7129 182.295 11.3887 182.295 12.2168C182.295 13.0957 182.055 13.7988 181.574 14.3262C181.098 14.8535 180.457 15.1172 179.652 15.1172C178.836 15.1172 178.174 14.8047 177.666 14.1797C177.158 13.5508 176.904 12.7422 176.904 11.7539V11.3379C176.904 9.76758 177.238 8.56836 177.906 7.74023C178.578 6.9082 179.576 6.48242 180.9 6.46289H181.094ZM179.67 10.3066C179.299 10.3066 178.957 10.418 178.645 10.6406C178.332 10.8633 178.115 11.1426 177.994 11.4785V11.877C177.994 12.5801 178.152 13.1465 178.469 13.5762C178.785 14.0059 179.18 14.2207 179.652 14.2207C180.141 14.2207 180.523 14.041 180.801 13.6816C181.082 13.3223 181.223 12.8516 181.223 12.2695C181.223 11.6836 181.08 11.2109 180.795 10.8516C180.514 10.4883 180.139 10.3066 179.67 10.3066Z" fill="black"/>
<path d="M212.348 7.07812L208.814 15H207.678L211.199 7.35938H206.582V6.46875H212.348V7.07812Z" fill="black"/>
<path d="M242.014 8.69531C242.014 9.12109 241.9 9.5 241.674 9.83203C241.451 10.1641 241.148 10.4238 240.766 10.6113C241.211 10.8027 241.562 11.082 241.82 11.4492C242.082 11.8164 242.213 12.2324 242.213 12.6973C242.213 13.4355 241.963 14.0234 241.463 14.4609C240.967 14.8984 240.312 15.1172 239.5 15.1172C238.68 15.1172 238.021 14.8984 237.525 14.4609C237.033 14.0195 236.787 13.4316 236.787 12.6973C236.787 12.2363 236.912 11.8203 237.162 11.4492C237.416 11.0781 237.766 10.7969 238.211 10.6055C237.832 10.418 237.533 10.1582 237.314 9.82617C237.096 9.49414 236.986 9.11719 236.986 8.69531C236.986 7.97656 237.217 7.40625 237.678 6.98438C238.139 6.5625 238.746 6.35156 239.5 6.35156C240.25 6.35156 240.855 6.5625 241.316 6.98438C241.781 7.40625 242.014 7.97656 242.014 8.69531ZM241.129 12.6738C241.129 12.1973 240.977 11.8086 240.672 11.5078C240.371 11.207 239.977 11.0566 239.488 11.0566C239 11.0566 238.607 11.2051 238.311 11.502C238.018 11.7988 237.871 12.1895 237.871 12.6738C237.871 13.1582 238.014 13.5391 238.299 13.8164C238.588 14.0938 238.988 14.2324 239.5 14.2324C240.008 14.2324 240.406 14.0938 240.695 13.8164C240.984 13.5352 241.129 13.1543 241.129 12.6738ZM239.5 7.24219C239.074 7.24219 238.729 7.375 238.463 7.64062C238.201 7.90234 238.07 8.25977 238.07 8.71289C238.07 9.14648 238.199 9.49805 238.457 9.76758C238.719 10.0332 239.066 10.166 239.5 10.166C239.934 10.166 240.279 10.0332 240.537 9.76758C240.799 9.49805 240.93 9.14648 240.93 8.71289C240.93 8.2793 240.795 7.92578 240.525 7.65234C240.256 7.37891 239.914 7.24219 239.5 7.24219Z" fill="black"/>
<path d="M270.994 11.25C270.768 11.5195 270.496 11.7363 270.18 11.9004C269.867 12.0645 269.523 12.1465 269.148 12.1465C268.656 12.1465 268.227 12.0254 267.859 11.7832C267.496 11.541 267.215 11.2012 267.016 10.7637C266.816 10.3223 266.717 9.83594 266.717 9.30469C266.717 8.73438 266.824 8.2207 267.039 7.76367C267.258 7.30664 267.566 6.95703 267.965 6.71484C268.363 6.47266 268.828 6.35156 269.359 6.35156C270.203 6.35156 270.867 6.66797 271.352 7.30078C271.84 7.92969 272.084 8.78906 272.084 9.87891V10.1953C272.084 11.8555 271.756 13.0684 271.1 13.834C270.443 14.5957 269.453 14.9863 268.129 15.0059H267.918V14.0918H268.146C269.041 14.0762 269.729 13.8438 270.209 13.3945C270.689 12.9414 270.951 12.2266 270.994 11.25ZM269.324 11.25C269.688 11.25 270.021 11.1387 270.326 10.916C270.635 10.6934 270.859 10.418 271 10.0898V9.65625C271 8.94531 270.846 8.36719 270.537 7.92188C270.229 7.47656 269.838 7.25391 269.365 7.25391C268.889 7.25391 268.506 7.4375 268.217 7.80469C267.928 8.16797 267.783 8.64844 267.783 9.24609C267.783 9.82812 267.922 10.3086 268.199 10.6875C268.48 11.0625 268.855 11.25 269.324 11.25Z" fill="black"/>
<path d="M296.533 15H295.443V7.77539L293.258 8.57812V7.59375L296.363 6.42773H296.533V15ZM305.059 11.3613C305.059 12.6309 304.842 13.5742 304.408 14.1914C303.975 14.8086 303.297 15.1172 302.375 15.1172C301.465 15.1172 300.791 14.8164 300.354 14.2148C299.916 13.6094 299.689 12.707 299.674 11.5078V10.0605C299.674 8.80664 299.891 7.875 300.324 7.26562C300.758 6.65625 301.437 6.35156 302.363 6.35156C303.281 6.35156 303.957 6.64648 304.391 7.23633C304.824 7.82227 305.047 8.72852 305.059 9.95508V11.3613ZM303.975 9.87891C303.975 8.96094 303.846 8.29297 303.588 7.875C303.33 7.45312 302.922 7.24219 302.363 7.24219C301.809 7.24219 301.404 7.45117 301.15 7.86914C300.896 8.28711 300.766 8.92969 300.758 9.79688V11.5312C300.758 12.4531 300.891 13.1348 301.156 13.5762C301.426 14.0137 301.832 14.2324 302.375 14.2324C302.91 14.2324 303.307 14.0254 303.564 13.6113C303.826 13.1973 303.963 12.5449 303.975 11.6543V9.87891Z" fill="black"/>
<path d="M326.533 15H325.443V7.77539L323.258 8.57812V7.59375L326.363 6.42773H326.533V15ZM333.271 15H332.182V7.77539L329.996 8.57812V7.59375L333.102 6.42773H333.271V15Z" fill="black"/>
<path d="M356.533 15H355.443V7.77539L353.258 8.57812V7.59375L356.363 6.42773H356.533V15ZM365.299 15H359.709V14.2207L362.662 10.9395C363.1 10.4434 363.4 10.041 363.564 9.73242C363.732 9.41992 363.816 9.09766 363.816 8.76562C363.816 8.32031 363.682 7.95508 363.412 7.66992C363.143 7.38477 362.783 7.24219 362.334 7.24219C361.795 7.24219 361.375 7.39648 361.074 7.70508C360.777 8.00977 360.629 8.43555 360.629 8.98242H359.545C359.545 8.19727 359.797 7.5625 360.301 7.07812C360.809 6.59375 361.486 6.35156 362.334 6.35156C363.127 6.35156 363.754 6.56055 364.215 6.97852C364.676 7.39258 364.906 7.94531 364.906 8.63672C364.906 9.47656 364.371 10.4766 363.301 11.6367L361.016 14.1152H365.299V15Z" fill="black"/>
<path d="M386.533 15H385.443V7.77539L383.258 8.57812V7.59375L386.363 6.42773H386.533V15ZM391.285 10.207H392.1C392.611 10.1992 393.014 10.0645 393.307 9.80273C393.6 9.54102 393.746 9.1875 393.746 8.74219C393.746 7.74219 393.248 7.24219 392.252 7.24219C391.783 7.24219 391.408 7.37695 391.127 7.64648C390.85 7.91211 390.711 8.26562 390.711 8.70703H389.627C389.627 8.03125 389.873 7.4707 390.365 7.02539C390.861 6.57617 391.49 6.35156 392.252 6.35156C393.057 6.35156 393.688 6.56445 394.145 6.99023C394.602 7.41602 394.83 8.00781 394.83 8.76562C394.83 9.13672 394.709 9.49609 394.467 9.84375C394.229 10.1914 393.902 10.4512 393.488 10.623C393.957 10.7715 394.318 11.0176 394.572 11.3613C394.83 11.7051 394.959 12.125 394.959 12.6211C394.959 13.3867 394.709 13.9941 394.209 14.4434C393.709 14.8926 393.059 15.1172 392.258 15.1172C391.457 15.1172 390.805 14.9004 390.301 14.4668C389.801 14.0332 389.551 13.4609 389.551 12.75H390.641C390.641 13.1992 390.787 13.5586 391.08 13.8281C391.373 14.0977 391.766 14.2324 392.258 14.2324C392.781 14.2324 393.182 14.0957 393.459 13.8223C393.736 13.5488 393.875 13.1562 393.875 12.6445C393.875 12.1484 393.723 11.7676 393.418 11.502C393.113 11.2363 392.674 11.0996 392.1 11.0918H391.285V10.207Z" fill="black"/>
<path d="M416.533 15H415.443V7.77539L413.258 8.57812V7.59375L416.363 6.42773H416.533V15ZM424.285 12.1348H425.469V13.0195H424.285V15H423.195V13.0195H419.311V12.3809L423.131 6.46875H424.285V12.1348ZM420.541 12.1348H423.195V7.95117L423.066 8.18555L420.541 12.1348Z" fill="black"/>
<path d="M446.533 15H445.443V7.77539L443.258 8.57812V7.59375L446.363 6.42773H446.533V15ZM450.207 10.7227L450.641 6.46875H455.012V7.4707H451.561L451.303 9.79688C451.721 9.55078 452.195 9.42773 452.727 9.42773C453.504 9.42773 454.121 9.68555 454.578 10.2012C455.035 10.7129 455.264 11.4062 455.264 12.2812C455.264 13.1602 455.025 13.8535 454.549 14.3613C454.076 14.8652 453.414 15.1172 452.562 15.1172C451.809 15.1172 451.193 14.9082 450.717 14.4902C450.24 14.0723 449.969 13.4941 449.902 12.7559H450.928C450.994 13.2441 451.168 13.6133 451.449 13.8633C451.73 14.1094 452.102 14.2324 452.562 14.2324C453.066 14.2324 453.461 14.0605 453.746 13.7168C454.035 13.373 454.18 12.8984 454.18 12.293C454.18 11.7227 454.023 11.2656 453.711 10.9219C453.402 10.5742 452.99 10.4004 452.475 10.4004C452.002 10.4004 451.631 10.5039 451.361 10.7109L451.074 10.9453L450.207 10.7227Z" fill="black"/>
<path d="M476.533 15H475.443V7.77539L473.258 8.57812V7.59375L476.363 6.42773H476.533V15ZM483.963 6.46289V7.38281H483.764C482.92 7.39844 482.248 7.64844 481.748 8.13281C481.248 8.61719 480.959 9.29883 480.881 10.1777C481.33 9.66211 481.943 9.4043 482.721 9.4043C483.463 9.4043 484.055 9.66602 484.496 10.1895C484.941 10.7129 485.164 11.3887 485.164 12.2168C485.164 13.0957 484.924 13.7988 484.443 14.3262C483.967 14.8535 483.326 15.1172 482.521 15.1172C481.705 15.1172 481.043 14.8047 480.535 14.1797C480.027 13.5508 479.773 12.7422 479.773 11.7539V11.3379C479.773 9.76758 480.107 8.56836 480.775 7.74023C481.447 6.9082 482.445 6.48242 483.77 6.46289H483.963ZM482.539 10.3066C482.168 10.3066 481.826 10.418 481.514 10.6406C481.201 10.8633 480.984 11.1426 480.863 11.4785V11.877C480.863 12.5801 481.021 13.1465 481.338 13.5762C481.654 14.0059 482.049 14.2207 482.521 14.2207C483.01 14.2207 483.393 14.041 483.67 13.6816C483.951 13.3223 484.092 12.8516 484.092 12.2695C484.092 11.6836 483.949 11.2109 483.664 10.8516C483.383 10.4883 483.008 10.3066 482.539 10.3066Z" fill="black"/>
<path d="M506.533 15H505.443V7.77539L503.258 8.57812V7.59375L506.363 6.42773H506.533V15ZM515.217 7.07812L511.684 15H510.547L514.068 7.35938H509.451V6.46875H515.217V7.07812Z" fill="black"/>
<path d="M536.533 15H535.443V7.77539L533.258 8.57812V7.59375L536.363 6.42773H536.533V15ZM544.883 8.69531C544.883 9.12109 544.77 9.5 544.543 9.83203C544.32 10.1641 544.018 10.4238 543.635 10.6113C544.08 10.8027 544.432 11.082 544.689 11.4492C544.951 11.8164 545.082 12.2324 545.082 12.6973C545.082 13.4355 544.832 14.0234 544.332 14.4609C543.836 14.8984 543.182 15.1172 542.369 15.1172C541.549 15.1172 540.891 14.8984 540.395 14.4609C539.902 14.0195 539.656 13.4316 539.656 12.6973C539.656 12.2363 539.781 11.8203 540.031 11.4492C540.285 11.0781 540.635 10.7969 541.08 10.6055C540.701 10.418 540.402 10.1582 540.184 9.82617C539.965 9.49414 539.855 9.11719 539.855 8.69531C539.855 7.97656 540.086 7.40625 540.547 6.98438C541.008 6.5625 541.615 6.35156 542.369 6.35156C543.119 6.35156 543.725 6.5625 544.186 6.98438C544.65 7.40625 544.883 7.97656 544.883 8.69531ZM543.998 12.6738C543.998 12.1973 543.846 11.8086 543.541 11.5078C543.24 11.207 542.846 11.0566 542.357 11.0566C541.869 11.0566 541.477 11.2051 541.18 11.502C540.887 11.7988 540.74 12.1895 540.74 12.6738C540.74 13.1582 540.883 13.5391 541.168 13.8164C541.457 14.0938 541.857 14.2324 542.369 14.2324C542.877 14.2324 543.275 14.0938 543.564 13.8164C543.854 13.5352 543.998 13.1543 543.998 12.6738ZM542.369 7.24219C541.943 7.24219 541.598 7.375 541.332 7.64062C541.07 7.90234 540.939 8.25977 540.939 8.71289C540.939 9.14648 541.068 9.49805 541.326 9.76758C541.588 10.0332 541.936 10.166 542.369 10.166C542.803 10.166 543.148 10.0332 543.406 9.76758C543.668 9.49805 543.799 9.14648 543.799 8.71289C543.799 8.2793 543.664 7.92578 543.395 7.65234C543.125 7.37891 542.783 7.24219 542.369 7.24219Z" fill="black"/>
<path d="M566.533 15H565.443V7.77539L563.258 8.57812V7.59375L566.363 6.42773H566.533V15ZM573.863 11.25C573.637 11.5195 573.365 11.7363 573.049 11.9004C572.736 12.0645 572.393 12.1465 572.018 12.1465C571.525 12.1465 571.096 12.0254 570.729 11.7832C570.365 11.541 570.084 11.2012 569.885 10.7637C569.686 10.3223 569.586 9.83594 569.586 9.30469C569.586 8.73438 569.693 8.2207 569.908 7.76367C570.127 7.30664 570.436 6.95703 570.834 6.71484C571.232 6.47266 571.697 6.35156 572.229 6.35156C573.072 6.35156 573.736 6.66797 574.221 7.30078C574.709 7.92969 574.953 8.78906 574.953 9.87891V10.1953C574.953 11.8555 574.625 13.0684 573.969 13.834C573.312 14.5957 572.322 14.9863 570.998 15.0059H570.787V14.0918H571.016C571.91 14.0762 572.598 13.8438 573.078 13.3945C573.559 12.9414 573.82 12.2266 573.863 11.25ZM572.193 11.25C572.557 11.25 572.891 11.1387 573.195 10.916C573.504 10.6934 573.729 10.418 573.869 10.0898V9.65625C573.869 8.94531 573.715 8.36719 573.406 7.92188C573.098 7.47656 572.707 7.25391 572.234 7.25391C571.758 7.25391 571.375 7.4375 571.086 7.80469C570.797 8.16797 570.652 8.64844 570.652 9.24609C570.652 9.82812 570.791 10.3086 571.068 10.6875C571.35 11.0625 571.725 11.25 572.193 11.25Z" fill="black"/>
<path d="M598.561 15H592.971V14.2207L595.924 10.9395C596.361 10.4434 596.662 10.041 596.826 9.73242C596.994 9.41992 597.078 9.09766 597.078 8.76562C597.078 8.32031 596.943 7.95508 596.674 7.66992C596.404 7.38477 596.045 7.24219 595.596 7.24219C595.057 7.24219 594.637 7.39648 594.336 7.70508C594.039 8.00977 593.891 8.43555 593.891 8.98242H592.807C592.807 8.19727 593.059 7.5625 593.562 7.07812C594.07 6.59375 594.748 6.35156 595.596 6.35156C596.389 6.35156 597.016 6.56055 597.477 6.97852C597.938 7.39258 598.168 7.94531 598.168 8.63672C598.168 9.47656 597.633 10.4766 596.562 11.6367L594.277 14.1152H598.561V15ZM605.059 11.3613C605.059 12.6309 604.842 13.5742 604.408 14.1914C603.975 14.8086 603.297 15.1172 602.375 15.1172C601.465 15.1172 600.791 14.8164 600.354 14.2148C599.916 13.6094 599.689 12.707 599.674 11.5078V10.0605C599.674 8.80664 599.891 7.875 600.324 7.26562C600.758 6.65625 601.438 6.35156 602.363 6.35156C603.281 6.35156 603.957 6.64648 604.391 7.23633C604.824 7.82227 605.047 8.72852 605.059 9.95508V11.3613ZM603.975 9.87891C603.975 8.96094 603.846 8.29297 603.588 7.875C603.33 7.45312 602.922 7.24219 602.363 7.24219C601.809 7.24219 601.404 7.45117 601.15 7.86914C600.896 8.28711 600.766 8.92969 600.758 9.79688V11.5312C600.758 12.4531 600.891 13.1348 601.156 13.5762C601.426 14.0137 601.832 14.2324 602.375 14.2324C602.91 14.2324 603.307 14.0254 603.564 13.6113C603.826 13.1973 603.963 12.5449 603.975 11.6543V9.87891Z" fill="black"/>
<path d="M628.561 15H622.971V14.2207L625.924 10.9395C626.361 10.4434 626.662 10.041 626.826 9.73242C626.994 9.41992 627.078 9.09766 627.078 8.76562C627.078 8.32031 626.943 7.95508 626.674 7.66992C626.404 7.38477 626.045 7.24219 625.596 7.24219C625.057 7.24219 624.637 7.39648 624.336 7.70508C624.039 8.00977 623.891 8.43555 623.891 8.98242H622.807C622.807 8.19727 623.059 7.5625 623.562 7.07812C624.07 6.59375 624.748 6.35156 625.596 6.35156C626.389 6.35156 627.016 6.56055 627.477 6.97852C627.938 7.39258 628.168 7.94531 628.168 8.63672C628.168 9.47656 627.633 10.4766 626.562 11.6367L624.277 14.1152H628.561V15ZM633.271 15H632.182V7.77539L629.996 8.57812V7.59375L633.102 6.42773H633.271V15Z" fill="black"/>
<path d="M658.561 15H652.971V14.2207L655.924 10.9395C656.361 10.4434 656.662 10.041 656.826 9.73242C656.994 9.41992 657.078 9.09766 657.078 8.76562C657.078 8.32031 656.943 7.95508 656.674 7.66992C656.404 7.38477 656.045 7.24219 655.596 7.24219C655.057 7.24219 654.637 7.39648 654.336 7.70508C654.039 8.00977 653.891 8.43555 653.891 8.98242H652.807C652.807 8.19727 653.059 7.5625 653.562 7.07812C654.07 6.59375 654.748 6.35156 655.596 6.35156C656.389 6.35156 657.016 6.56055 657.477 6.97852C657.938 7.39258 658.168 7.94531 658.168 8.63672C658.168 9.47656 657.633 10.4766 656.562 11.6367L654.277 14.1152H658.561V15ZM665.299 15H659.709V14.2207L662.662 10.9395C663.1 10.4434 663.4 10.041 663.564 9.73242C663.732 9.41992 663.816 9.09766 663.816 8.76562C663.816 8.32031 663.682 7.95508 663.412 7.66992C663.143 7.38477 662.783 7.24219 662.334 7.24219C661.795 7.24219 661.375 7.39648 661.074 7.70508C660.777 8.00977 660.629 8.43555 660.629 8.98242H659.545C659.545 8.19727 659.797 7.5625 660.301 7.07812C660.809 6.59375 661.486 6.35156 662.334 6.35156C663.127 6.35156 663.754 6.56055 664.215 6.97852C664.676 7.39258 664.906 7.94531 664.906 8.63672C664.906 9.47656 664.371 10.4766 663.301 11.6367L661.016 14.1152H665.299V15Z" fill="black"/>
<line y1="26" x2="-3.49691e-07" y2="18" stroke="black" stroke-width="2"/>
</g>
<defs>
<clipPath id="clip0">
<rect width="26" height="690" fill="white" transform="translate(0 26) rotate(-90)"/>
</clipPath>
</defs>
</svg>
