<svg width="26" height="510" viewBox="0 0 26 510" fill="none" xmlns="http://www.w3.org/2000/svg">
<g clip-path="url(#clip0)">
<rect width="26" height="510" fill="#AFAFAF"/>
<line x1="22" y1="30" x2="30" y2="30" stroke="black" stroke-width="2"/>
<line x1="22" y1="60" x2="30" y2="60" stroke="black" stroke-width="2"/>
<line x1="22" y1="90" x2="30" y2="90" stroke="black" stroke-width="2"/>
<line x1="22" y1="120" x2="30" y2="120" stroke="black" stroke-width="2"/>
<line x1="22" y1="150" x2="30" y2="150" stroke="black" stroke-width="2"/>
<line x1="22" y1="180" x2="30" y2="180" stroke="black" stroke-width="2"/>
<line x1="22" y1="210" x2="30" y2="210" stroke="black" stroke-width="2"/>
<line x1="22" y1="240" x2="30" y2="240" stroke="black" stroke-width="2"/>
<line x1="22" y1="270" x2="30" y2="270" stroke="black" stroke-width="2"/>
<line x1="22" y1="300" x2="30" y2="300" stroke="black" stroke-width="2"/>
<line x1="22" y1="330" x2="30" y2="330" stroke="black" stroke-width="2"/>
<line x1="22" y1="360" x2="30" y2="360" stroke="black" stroke-width="2"/>
<path d="M13.2715 35H12.1816V27.7754L9.99609 28.5781V27.5938L13.1016 26.4277H13.2715V35Z" fill="black"/>
<path d="M15.2988 65H9.70898V64.2207L12.6621 60.9395C13.0996 60.4434 13.4004 60.041 13.5645 59.7324C13.7324 59.4199 13.8164 59.0977 13.8164 58.7656C13.8164 58.3203 13.6816 57.9551 13.4121 57.6699C13.1426 57.3848 12.7832 57.2422 12.334 57.2422C11.7949 57.2422 11.375 57.3965 11.0742 57.7051C10.7773 58.0098 10.6289 58.4355 10.6289 58.9824H9.54492C9.54492 58.1973 9.79688 57.5625 10.3008 57.0781C10.8086 56.5938 11.4863 56.3516 12.334 56.3516C13.127 56.3516 13.7539 56.5605 14.2148 56.9785C14.6758 57.3926 14.9062 57.9453 14.9062 58.6367C14.9062 59.4766 14.3711 60.4766 13.3008 61.6367L11.0156 64.1152H15.2988V65Z" fill="black"/>
<path d="M11.2852 90.207H12.0996C12.6113 90.1992 13.0137 90.0645 13.3066 89.8027C13.5996 89.541 13.7461 89.1875 13.7461 88.7422C13.7461 87.7422 13.248 87.2422 12.252 87.2422C11.7832 87.2422 11.4082 87.377 11.127 87.6465C10.8496 87.9121 10.7109 88.2656 10.7109 88.707H9.62695C9.62695 88.0312 9.87305 87.4707 10.3652 87.0254C10.8613 86.5762 11.4902 86.3516 12.252 86.3516C13.0566 86.3516 13.6875 86.5645 14.1445 86.9902C14.6016 87.416 14.8301 88.0078 14.8301 88.7656C14.8301 89.1367 14.709 89.4961 14.4668 89.8438C14.2285 90.1914 13.9023 90.4512 13.4883 90.623C13.957 90.7715 14.3184 91.0176 14.5723 91.3613C14.8301 91.7051 14.959 92.125 14.959 92.6211C14.959 93.3867 14.709 93.9941 14.209 94.4434C13.709 94.8926 13.0586 95.1172 12.2578 95.1172C11.457 95.1172 10.8047 94.9004 10.3008 94.4668C9.80078 94.0332 9.55078 93.4609 9.55078 92.75H10.6406C10.6406 93.1992 10.7871 93.5586 11.0801 93.8281C11.373 94.0977 11.7656 94.2324 12.2578 94.2324C12.7812 94.2324 13.1816 94.0957 13.459 93.8223C13.7363 93.5488 13.875 93.1562 13.875 92.6445C13.875 92.1484 13.7227 91.7676 13.418 91.502C13.1133 91.2363 12.6738 91.0996 12.0996 91.0918H11.2852V90.207Z" fill="black"/>
<path d="M14.2852 122.135H15.4688V123.02H14.2852V125H13.1953V123.02H9.31055V122.381L13.1309 116.469H14.2852V122.135ZM10.541 122.135H13.1953V117.951L13.0664 118.186L10.541 122.135Z" fill="black"/>
<path d="M10.207 150.723L10.6406 146.469H15.0117V147.471H11.5605L11.3027 149.797C11.7207 149.551 12.1953 149.428 12.7266 149.428C13.5039 149.428 14.1211 149.686 14.5781 150.201C15.0352 150.713 15.2637 151.406 15.2637 152.281C15.2637 153.16 15.0254 153.854 14.5488 154.361C14.0762 154.865 13.4141 155.117 12.5625 155.117C11.8086 155.117 11.1934 154.908 10.7168 154.49C10.2402 154.072 9.96875 153.494 9.90234 152.756H10.9277C10.9941 153.244 11.168 153.613 11.4492 153.863C11.7305 154.109 12.1016 154.232 12.5625 154.232C13.0664 154.232 13.4609 154.061 13.7461 153.717C14.0352 153.373 14.1797 152.898 14.1797 152.293C14.1797 151.723 14.0234 151.266 13.7109 150.922C13.4023 150.574 12.9902 150.4 12.4746 150.4C12.002 150.4 11.6309 150.504 11.3613 150.711L11.0742 150.945L10.207 150.723Z" fill="black"/>
<path d="M13.9629 176.463V177.383H13.7637C12.9199 177.398 12.248 177.648 11.748 178.133C11.248 178.617 10.959 179.299 10.8809 180.178C11.3301 179.662 11.9434 179.404 12.7207 179.404C13.4629 179.404 14.0547 179.666 14.4961 180.189C14.9414 180.713 15.1641 181.389 15.1641 182.217C15.1641 183.096 14.9238 183.799 14.4434 184.326C13.9668 184.854 13.3262 185.117 12.5215 185.117C11.7051 185.117 11.043 184.805 10.5352 184.18C10.0273 183.551 9.77344 182.742 9.77344 181.754V181.338C9.77344 179.768 10.1074 178.568 10.7754 177.74C11.4473 176.908 12.4453 176.482 13.7695 176.463H13.9629ZM12.5391 180.307C12.168 180.307 11.8262 180.418 11.5137 180.641C11.2012 180.863 10.9844 181.143 10.8633 181.479V181.877C10.8633 182.58 11.0215 183.146 11.3379 183.576C11.6543 184.006 12.0488 184.221 12.5215 184.221C13.0098 184.221 13.3926 184.041 13.6699 183.682C13.9512 183.322 14.0918 182.852 14.0918 182.27C14.0918 181.684 13.9492 181.211 13.6641 180.852C13.3828 180.488 13.0078 180.307 12.5391 180.307Z" fill="black"/>
<path d="M15.2168 207.078L11.6836 215H10.5469L14.0684 207.359H9.45117V206.469H15.2168V207.078Z" fill="black"/>
<path d="M14.8828 238.695C14.8828 239.121 14.7695 239.5 14.543 239.832C14.3203 240.164 14.0176 240.424 13.6348 240.611C14.0801 240.803 14.4316 241.082 14.6895 241.449C14.9512 241.816 15.082 242.232 15.082 242.697C15.082 243.436 14.832 244.023 14.332 244.461C13.8359 244.898 13.1816 245.117 12.3691 245.117C11.5488 245.117 10.8906 244.898 10.3945 244.461C9.90234 244.02 9.65625 243.432 9.65625 242.697C9.65625 242.236 9.78125 241.82 10.0312 241.449C10.2852 241.078 10.6348 240.797 11.0801 240.605C10.7012 240.418 10.4023 240.158 10.1836 239.826C9.96484 239.494 9.85547 239.117 9.85547 238.695C9.85547 237.977 10.0859 237.406 10.5469 236.984C11.0078 236.562 11.6152 236.352 12.3691 236.352C13.1191 236.352 13.7246 236.562 14.1855 236.984C14.6504 237.406 14.8828 237.977 14.8828 238.695ZM13.998 242.674C13.998 242.197 13.8457 241.809 13.541 241.508C13.2402 241.207 12.8457 241.057 12.3574 241.057C11.8691 241.057 11.4766 241.205 11.1797 241.502C10.8867 241.799 10.7402 242.189 10.7402 242.674C10.7402 243.158 10.8828 243.539 11.168 243.816C11.457 244.094 11.8574 244.232 12.3691 244.232C12.877 244.232 13.2754 244.094 13.5645 243.816C13.8535 243.535 13.998 243.154 13.998 242.674ZM12.3691 237.242C11.9434 237.242 11.5977 237.375 11.332 237.641C11.0703 237.902 10.9395 238.26 10.9395 238.713C10.9395 239.146 11.0684 239.498 11.3262 239.768C11.5879 240.033 11.9355 240.166 12.3691 240.166C12.8027 240.166 13.1484 240.033 13.4062 239.768C13.668 239.498 13.7988 239.146 13.7988 238.713C13.7988 238.279 13.6641 237.926 13.3945 237.652C13.125 237.379 12.7832 237.242 12.3691 237.242Z" fill="black"/>
<path d="M13.8633 271.25C13.6367 271.52 13.3652 271.736 13.0488 271.9C12.7363 272.064 12.3926 272.146 12.0176 272.146C11.5254 272.146 11.0957 272.025 10.7285 271.783C10.3652 271.541 10.084 271.201 9.88477 270.764C9.68555 270.322 9.58594 269.836 9.58594 269.305C9.58594 268.734 9.69336 268.221 9.9082 267.764C10.127 267.307 10.4355 266.957 10.834 266.715C11.2324 266.473 11.6973 266.352 12.2285 266.352C13.0723 266.352 13.7363 266.668 14.2207 267.301C14.709 267.93 14.9531 268.789 14.9531 269.879V270.195C14.9531 271.855 14.625 273.068 13.9688 273.834C13.3125 274.596 12.3223 274.986 10.998 275.006H10.7871V274.092H11.0156C11.9102 274.076 12.5977 273.844 13.0781 273.395C13.5586 272.941 13.8203 272.227 13.8633 271.25ZM12.1934 271.25C12.5566 271.25 12.8906 271.139 13.1953 270.916C13.5039 270.693 13.7285 270.418 13.8691 270.09V269.656C13.8691 268.945 13.7148 268.367 13.4062 267.922C13.0977 267.477 12.707 267.254 12.2344 267.254C11.7578 267.254 11.375 267.438 11.0859 267.805C10.7969 268.168 10.6523 268.648 10.6523 269.246C10.6523 269.828 10.791 270.309 11.0684 270.688C11.3496 271.062 11.7246 271.25 12.1934 271.25Z" fill="black"/>
<path d="M6.27148 305H5.18164V297.775L2.99609 298.578V297.594L6.10156 296.428H6.27148V305ZM14.7969 301.361C14.7969 302.631 14.5801 303.574 14.1465 304.191C13.7129 304.809 13.0352 305.117 12.1133 305.117C11.2031 305.117 10.5293 304.816 10.0918 304.215C9.6543 303.609 9.42773 302.707 9.41211 301.508V300.061C9.41211 298.807 9.62891 297.875 10.0625 297.266C10.4961 296.656 11.1758 296.352 12.1016 296.352C13.0195 296.352 13.6953 296.646 14.1289 297.236C14.5625 297.822 14.7852 298.729 14.7969 299.955V301.361ZM13.7129 299.879C13.7129 298.961 13.584 298.293 13.3262 297.875C13.0684 297.453 12.6602 297.242 12.1016 297.242C11.5469 297.242 11.1426 297.451 10.8887 297.869C10.6348 298.287 10.5039 298.93 10.4961 299.797V301.531C10.4961 302.453 10.6289 303.135 10.8945 303.576C11.1641 304.014 11.5703 304.232 12.1133 304.232C12.6484 304.232 13.0449 304.025 13.3027 303.611C13.5645 303.197 13.7012 302.545 13.7129 301.654V299.879Z" fill="black"/>
<path d="M6.27148 335H5.18164V327.775L2.99609 328.578V327.594L6.10156 326.428H6.27148V335ZM13.0098 335H11.9199V327.775L9.73438 328.578V327.594L12.8398 326.428H13.0098V335Z" fill="black"/>
<path d="M6.27148 365H5.18164V357.775L2.99609 358.578V357.594L6.10156 356.428H6.27148V365ZM15.0371 365H9.44727V364.221L12.4004 360.939C12.8379 360.443 13.1387 360.041 13.3027 359.732C13.4707 359.42 13.5547 359.098 13.5547 358.766C13.5547 358.32 13.4199 357.955 13.1504 357.67C12.8809 357.385 12.5215 357.242 12.0723 357.242C11.5332 357.242 11.1133 357.396 10.8125 357.705C10.5156 358.01 10.3672 358.436 10.3672 358.982H9.2832C9.2832 358.197 9.53516 357.562 10.0391 357.078C10.5469 356.594 11.2246 356.352 12.0723 356.352C12.8652 356.352 13.4922 356.561 13.9531 356.979C14.4141 357.393 14.6445 357.945 14.6445 358.637C14.6445 359.477 14.1094 360.477 13.0391 361.637L10.7539 364.115H15.0371V365Z" fill="black"/>
<path d="M6.27148 395H5.18164V387.775L2.99609 388.578V387.594L6.10156 386.428H6.27148V395ZM11.0234 390.207H11.8379C12.3496 390.199 12.752 390.064 13.0449 389.803C13.3379 389.541 13.4844 389.188 13.4844 388.742C13.4844 387.742 12.9863 387.242 11.9902 387.242C11.5215 387.242 11.1465 387.377 10.8652 387.646C10.5879 387.912 10.4492 388.266 10.4492 388.707H9.36523C9.36523 388.031 9.61133 387.471 10.1035 387.025C10.5996 386.576 11.2285 386.352 11.9902 386.352C12.7949 386.352 13.4258 386.564 13.8828 386.99C14.3398 387.416 14.5684 388.008 14.5684 388.766C14.5684 389.137 14.4473 389.496 14.2051 389.844C13.9668 390.191 13.6406 390.451 13.2266 390.623C13.6953 390.771 14.0566 391.018 14.3105 391.361C14.5684 391.705 14.6973 392.125 14.6973 392.621C14.6973 393.387 14.4473 393.994 13.9473 394.443C13.4473 394.893 12.7969 395.117 11.9961 395.117C11.1953 395.117 10.543 394.9 10.0391 394.467C9.53906 394.033 9.28906 393.461 9.28906 392.75H10.3789C10.3789 393.199 10.5254 393.559 10.8184 393.828C11.1113 394.098 11.5039 394.232 11.9961 394.232C12.5195 394.232 12.9199 394.096 13.1973 393.822C13.4746 393.549 13.6133 393.156 13.6133 392.645C13.6133 392.148 13.4609 391.768 13.1562 391.502C12.8516 391.236 12.4121 391.1 11.8379 391.092H11.0234V390.207Z" fill="black"/>
<path d="M6.27148 425H5.18164V417.775L2.99609 418.578V417.594L6.10156 416.428H6.27148V425ZM14.0234 422.135H15.207V423.02H14.0234V425H12.9336V423.02H9.04883V422.381L12.8691 416.469H14.0234V422.135ZM10.2793 422.135H12.9336V417.951L12.8047 418.186L10.2793 422.135Z" fill="black"/>
<path d="M6.27148 455H5.18164V447.775L2.99609 448.578V447.594L6.10156 446.428H6.27148V455ZM9.94531 450.723L10.3789 446.469H14.75V447.471H11.2988L11.041 449.797C11.459 449.551 11.9336 449.428 12.4648 449.428C13.2422 449.428 13.8594 449.686 14.3164 450.201C14.7734 450.713 15.002 451.406 15.002 452.281C15.002 453.16 14.7637 453.854 14.2871 454.361C13.8145 454.865 13.1523 455.117 12.3008 455.117C11.5469 455.117 10.9316 454.908 10.4551 454.49C9.97852 454.072 9.70703 453.494 9.64062 452.756H10.666C10.7324 453.244 10.9062 453.613 11.1875 453.863C11.4688 454.109 11.8398 454.232 12.3008 454.232C12.8047 454.232 13.1992 454.061 13.4844 453.717C13.7734 453.373 13.918 452.898 13.918 452.293C13.918 451.723 13.7617 451.266 13.4492 450.922C13.1406 450.574 12.7285 450.4 12.2129 450.4C11.7402 450.4 11.3691 450.504 11.0996 450.711L10.8125 450.945L9.94531 450.723Z" fill="black"/>
<path d="M6.27148 485H5.18164V477.775L2.99609 478.578V477.594L6.10156 476.428H6.27148V485ZM13.7012 476.463V477.383H13.502C12.6582 477.398 11.9863 477.648 11.4863 478.133C10.9863 478.617 10.6973 479.299 10.6191 480.178C11.0684 479.662 11.6816 479.404 12.459 479.404C13.2012 479.404 13.793 479.666 14.2344 480.189C14.6797 480.713 14.9023 481.389 14.9023 482.217C14.9023 483.096 14.6621 483.799 14.1816 484.326C13.7051 484.854 13.0645 485.117 12.2598 485.117C11.4434 485.117 10.7812 484.805 10.2734 484.18C9.76562 483.551 9.51172 482.742 9.51172 481.754V481.338C9.51172 479.768 9.8457 478.568 10.5137 477.74C11.1855 476.908 12.1836 476.482 13.5078 476.463H13.7012ZM12.2773 480.307C11.9062 480.307 11.5645 480.418 11.252 480.641C10.9395 480.863 10.7227 481.143 10.6016 481.479V481.877C10.6016 482.58 10.7598 483.146 11.0762 483.576C11.3926 484.006 11.7871 484.221 12.2598 484.221C12.748 484.221 13.1309 484.041 13.4082 483.682C13.6895 483.322 13.8301 482.852 13.8301 482.27C13.8301 481.684 13.6875 481.211 13.4023 480.852C13.1211 480.488 12.7461 480.307 12.2773 480.307Z" fill="black"/>
<line x1="18" y1="390" x2="26" y2="390" stroke="black" stroke-width="2"/>
<line x1="18" y1="420" x2="26" y2="420" stroke="black" stroke-width="2"/>
<line x1="18" y1="450" x2="26" y2="450" stroke="black" stroke-width="2"/>
<line x1="18" y1="480" x2="26" y2="480" stroke="black" stroke-width="2"/>
<line x1="18" y1="30" x2="26" y2="30" stroke="black" stroke-width="2"/>
<line x1="18" x2="26" stroke="black" stroke-width="2"/>
<line x1="18" y1="60" x2="26" y2="60" stroke="black" stroke-width="2"/>
<line x1="18" y1="90" x2="26" y2="90" stroke="black" stroke-width="2"/>
<line x1="18" y1="120" x2="26" y2="120" stroke="black" stroke-width="2"/>
<line x1="18" y1="150" x2="26" y2="150" stroke="black" stroke-width="2"/>
<line x1="18" y1="180" x2="26" y2="180" stroke="black" stroke-width="2"/>
<line x1="18" y1="210" x2="26" y2="210" stroke="black" stroke-width="2"/>
<line x1="18" y1="240" x2="26" y2="240" stroke="black" stroke-width="2"/>
<line x1="18" y1="270" x2="26" y2="270" stroke="black" stroke-width="2"/>
<line x1="18" y1="300" x2="26" y2="300" stroke="black" stroke-width="2"/>
<line x1="18" y1="330" x2="26" y2="330" stroke="black" stroke-width="2"/>
<line x1="18" y1="360" x2="26" y2="360" stroke="black" stroke-width="2"/>
<line x1="18" y1="390" x2="26" y2="390" stroke="black" stroke-width="2"/>
<line x1="18" y1="420" x2="26" y2="420" stroke="black" stroke-width="2"/>
<line x1="18" y1="450" x2="26" y2="450" stroke="black" stroke-width="2"/>
<line x1="18" y1="480" x2="26" y2="480" stroke="black" stroke-width="2"/>
<line x1="22" y1="45" x2="26" y2="45" stroke="black" stroke-width="2"/>
<line x1="22" y1="75" x2="26" y2="75" stroke="black" stroke-width="2"/>
<line x1="22" y1="105" x2="26" y2="105" stroke="black" stroke-width="2"/>
<line x1="22" y1="135" x2="26" y2="135" stroke="black" stroke-width="2"/>
<line x1="22" y1="165" x2="26" y2="165" stroke="black" stroke-width="2"/>
<line x1="22" y1="195" x2="26" y2="195" stroke="black" stroke-width="2"/>
<line x1="22" y1="225" x2="26" y2="225" stroke="black" stroke-width="2"/>
<line x1="22" y1="255" x2="26" y2="255" stroke="black" stroke-width="2"/>
<line x1="22" y1="285" x2="26" y2="285" stroke="black" stroke-width="2"/>
<line x1="22" y1="315" x2="26" y2="315" stroke="black" stroke-width="2"/>
<line x1="22" y1="345" x2="26" y2="345" stroke="black" stroke-width="2"/>
<line x1="22" y1="375" x2="26" y2="375" stroke="black" stroke-width="2"/>
<line x1="22" y1="405" x2="26" y2="405" stroke="black" stroke-width="2"/>
<line x1="22" y1="435" x2="26" y2="435" stroke="black" stroke-width="2"/>
<line x1="22" y1="465" x2="26" y2="465" stroke="black" stroke-width="2"/>
<line x1="22" y1="495" x2="26" y2="495" stroke="black" stroke-width="2"/>
<line x1="22" y1="45" x2="26" y2="45" stroke="black" stroke-width="2"/>
<line x1="22" y1="15" x2="26" y2="15" stroke="black" stroke-width="2"/>
<line x1="22" y1="75" x2="26" y2="75" stroke="black" stroke-width="2"/>
<line x1="22" y1="105" x2="26" y2="105" stroke="black" stroke-width="2"/>
<line x1="22" y1="135" x2="26" y2="135" stroke="black" stroke-width="2"/>
<line x1="22" y1="165" x2="26" y2="165" stroke="black" stroke-width="2"/>
<line x1="22" y1="195" x2="26" y2="195" stroke="black" stroke-width="2"/>
<line x1="22" y1="225" x2="26" y2="225" stroke="black" stroke-width="2"/>
<line x1="22" y1="255" x2="26" y2="255" stroke="black" stroke-width="2"/>
<line x1="22" y1="285" x2="26" y2="285" stroke="black" stroke-width="2"/>
<line x1="22" y1="315" x2="26" y2="315" stroke="black" stroke-width="2"/>
<line x1="22" y1="345" x2="26" y2="345" stroke="black" stroke-width="2"/>
<line x1="22" y1="375" x2="26" y2="375" stroke="black" stroke-width="2"/>
<line x1="22" y1="405" x2="26" y2="405" stroke="black" stroke-width="2"/>
<line x1="22" y1="435" x2="26" y2="435" stroke="black" stroke-width="2"/>
<line x1="22" y1="465" x2="26" y2="465" stroke="black" stroke-width="2"/>
<line x1="22" y1="495" x2="26" y2="495" stroke="black" stroke-width="2"/>
<line x1="18" y1="510" x2="26" y2="510" stroke="black" stroke-width="2"/>
</g>
<defs>
<clipPath id="clip0">
<rect width="26" height="510" fill="white"/>
</clipPath>
</defs>
</svg>
