<?xml version="1.0" encoding="UTF-8" standalone="no"?>
<svg
   xmlns:dc="http://purl.org/dc/elements/1.1/"
   xmlns:cc="http://creativecommons.org/ns#"
   xmlns:rdf="http://www.w3.org/1999/02/22-rdf-syntax-ns#"
   xmlns:svg="http://www.w3.org/2000/svg"
   xmlns="http://www.w3.org/2000/svg"
   xmlns:sodipodi="http://sodipodi.sourceforge.net/DTD/sodipodi-0.dtd"
   xmlns:inkscape="http://www.inkscape.org/namespaces/inkscape"
   width="15mm"
   height="31.22047mm"
   viewBox="0 0 15.000001 31.220472"
   version="1.1"
   id="svg4830"
   inkscape:version="1.0.2 (e86c8708, 2021-01-15)"
   sodipodi:docname="a10.svg">
  <defs
     id="defs4824" />
  <sodipodi:namedview
     id="base"
     pagecolor="#ffffff"
     bordercolor="#666666"
     borderopacity="1.0"
     inkscape:pageopacity="0.0"
     inkscape:pageshadow="2"
     inkscape:zoom="3.8813991"
     inkscape:cx="21.037183"
     inkscape:cy="66.407668"
     inkscape:document-units="mm"
     inkscape:current-layer="layer1"
     inkscape:document-rotation="0"
     showgrid="false"
     inkscape:window-width="1440"
     inkscape:window-height="872"
     inkscape:window-x="0"
     inkscape:window-y="28"
     inkscape:window-maximized="0" />
  <metadata
     id="metadata4827">
    <rdf:RDF>
      <cc:Work
         rdf:about="">
        <dc:format>image/svg+xml</dc:format>
        <dc:type
           rdf:resource="http://purl.org/dc/dcmitype/StillImage" />
        <dc:title></dc:title>
      </cc:Work>
    </rdf:RDF>
  </metadata>
  <g
     inkscape:label="Layer 1"
     inkscape:groupmode="layer"
     id="layer1"
     transform="translate(-77.052144,-74.694388)">
    <g
       id="g39400"
       transform="matrix(0.05252947,0,0,0.05252947,52.283921,70.37116)"
       style="opacity:0.998;stroke:#80ffe6;stroke-opacity:1">
      <polygon
         fill="none"
         stroke="#00b9d2"
         stroke-width="2"
         stroke-linecap="round"
         stroke-linejoin="round"
         stroke-miterlimit="10"
         points="513.981,193.762 513.758,193.612 513.539,193.457 513.322,193.299 513.107,193.137 512.896,192.971 512.688,192.802 512.482,192.629 512.28,192.453 512.08,192.273 511.884,192.09 511.691,191.904 511.501,191.714 511.314,191.521 511.131,191.324 510.951,191.125 510.775,190.922 510.602,190.717 510.433,190.508 510.267,190.297 510.105,190.083 509.947,189.866 509.793,189.646 509.642,189.424 509.495,189.199 509.353,188.972 509.214,188.742 509.079,188.51 508.948,188.275 508.821,188.038 508.698,187.8 508.58,187.559 508.465,187.316 508.355,187.071 508.249,186.824 508.147,186.576 508.05,186.326 507.957,186.074 507.868,185.82 507.784,185.565 507.704,185.309 507.629,185.051 507.558,184.792 507.491,184.532 507.429,184.271 507.372,184.009 507.319,183.745 507.27,183.481 507.226,183.216 507.187,182.951 507.153,182.684 507.122,182.418 507.097,182.15 507.076,181.883 507.06,181.615 507.048,181.346 507.041,181.078 507.039,180.809 507.039,145.302 507.041,145.032 507.049,144.762 507.06,144.492 507.077,144.222 507.098,143.953 507.123,143.685 507.154,143.416 507.189,143.149 507.229,142.881 507.273,142.615 507.322,142.35 507.375,142.085 507.433,141.821 507.496,141.559 507.563,141.297 507.635,141.037 507.711,140.778 507.792,140.52 507.877,140.264 507.967,140.009 508.061,139.756 508.16,139.505 508.262,139.255 508.369,139.007 508.481,138.761 508.596,138.517 508.716,138.276 508.84,138.036 508.969,137.798 509.101,137.563 509.237,137.33 509.378,137.099 509.522,136.871 509.67,136.645 509.822,136.422 509.978,136.202 510.138,135.984 510.302,135.769 510.469,135.558 510.64,135.349 510.815,135.143 510.993,134.94 511.174,134.74 511.359,134.543 511.548,134.35 511.739,134.16 511.934,133.973 512.133,133.79 512.334,133.61 512.539,133.433 512.746,133.261 512.956,133.092 513.17,132.926 513.386,132.764 513.605,132.607 513.827,132.452 514.051,132.302 514.278,132.156 514.507,132.013 514.739,131.875 514.973,131.741 515.21,131.611 515.449,131.484 515.69,131.362 515.933,131.245 516.178,131.131 516.424,131.022 516.673,130.917 516.924,130.816 517.176,130.72 517.43,130.628 517.685,130.541 517.942,130.458 518.201,130.379 518.46,130.305 518.721,130.236 518.983,130.171 519.246,130.11 519.511,130.055 519.776,130.003 520.042,129.957 520.308,129.915 520.576,129.877 520.844,129.845 521.112,129.817 521.381,129.793 521.651,129.774 521.92,129.76 522.19,129.751 522.46,129.746 522.73,129.746 523,129.751 523.27,129.76 523.539,129.774 523.809,129.793 524.078,129.817 524.346,129.845 524.614,129.877 524.882,129.915 525.148,129.957 525.414,130.003 525.679,130.055 525.944,130.11 526.207,130.171 526.469,130.236 526.73,130.305 526.989,130.379 527.248,130.458 527.505,130.541 527.76,130.628 528.014,130.72 528.266,130.816 528.517,130.917 528.766,131.022 529.012,131.131 529.257,131.245 529.5,131.362 529.741,131.484 529.98,131.611 530.216,131.741 530.451,131.875 530.683,132.013 530.912,132.156 531.139,132.302 531.363,132.452 531.585,132.607 531.804,132.764 532.02,132.926 532.233,133.092 532.444,133.261 532.651,133.433 532.856,133.61 533.057,133.79 533.255,133.973 533.451,134.16 533.642,134.35 533.831,134.543 534.016,134.74 534.197,134.94 534.375,135.143 534.55,135.349 534.721,135.558 534.888,135.769 535.052,135.984 535.212,136.202 535.368,136.422 535.52,136.645 535.668,136.871 535.812,137.099 535.953,137.33 536.089,137.563 536.221,137.798 536.35,138.036 536.474,138.276 536.594,138.517 536.709,138.761 536.821,139.007 536.928,139.255 537.03,139.505 537.129,139.756 537.223,140.009 537.313,140.264 537.398,140.52 537.479,140.778 537.555,141.037 537.627,141.297 537.694,141.559 537.756,141.821 537.815,142.085 537.868,142.35 537.917,142.615 537.961,142.881 538.001,143.149 538.036,143.416 538.067,143.685 538.092,143.953 538.113,144.222 538.13,144.492 538.141,144.762 538.148,145.032 538.151,145.302 538.151,180.809 538.148,181.078 538.142,181.346 538.13,181.615 538.114,181.883 538.093,182.15 538.067,182.418 538.037,182.684 538.003,182.951 537.963,183.216 537.92,183.481 537.871,183.745 537.818,184.009 537.761,184.271 537.699,184.532 537.632,184.792 537.561,185.051 537.486,185.309 537.406,185.565 537.322,185.82 537.233,186.074 537.14,186.326 537.043,186.576 536.941,186.824 536.835,187.071 536.725,187.316 536.61,187.559 536.492,187.8 536.369,188.038 536.242,188.275 536.111,188.51 535.976,188.742 535.837,188.972 535.695,189.199 535.548,189.424 535.397,189.646 535.243,189.866 535.085,190.083 534.923,190.297 534.757,190.508 534.588,190.717 534.415,190.922 534.239,191.125 534.059,191.324 533.876,191.521 533.689,191.714 533.499,191.904 533.306,192.09 533.11,192.273 532.91,192.453 532.708,192.629 532.502,192.802 532.294,192.971 532.083,193.137 531.868,193.299 531.651,193.457 531.432,193.612 531.209,193.762 530.985,193.909 530.757,194.052 530.527,194.191 530.295,194.326 530.061,194.457 529.824,194.583 529.585,194.706 529.344,194.825 529.102,194.939 528.857,195.049 528.61,195.155 528.361,195.257 528.111,195.354 527.859,195.447 527.606,195.536 527.351,195.62 527.095,195.7 526.837,195.776 526.578,195.847 526.318,195.913 526.056,195.975 525.794,196.033 525.531,196.086 525.267,196.134 525.002,196.178 524.736,196.217 524.47,196.252 524.203,196.282 523.936,196.307 523.668,196.328 523.4,196.344 523.132,196.356 522.863,196.363 522.595,196.365 522.326,196.363 522.058,196.356 521.79,196.344 521.522,196.328 521.254,196.307 520.987,196.282 520.72,196.252 520.454,196.217 520.188,196.178 519.923,196.134 519.659,196.086 519.396,196.033 519.133,195.975 518.872,195.913 518.612,195.847 518.353,195.776 518.095,195.7 517.839,195.62 517.584,195.536 517.331,195.447 517.079,195.354 516.829,195.257 516.58,195.155 516.333,195.049 516.089,194.939 515.846,194.825 515.605,194.706 515.366,194.583 515.129,194.457 514.895,194.326 514.663,194.191 514.433,194.052 514.205,193.909 "
         id="polygon38699"
         style="stroke:#80ffe6;stroke-opacity:1" />
      <rect
         x="473.13599"
         y="156.02"
         fill="none"
         stroke="#00b9d2"
         stroke-width="2.75"
         stroke-linecap="round"
         stroke-linejoin="round"
         stroke-miterlimit="10"
         width="3.01"
         height="92.676003"
         id="rect38709"
         style="stroke:#80ffe6;stroke-opacity:1" />
      <rect
         x="473.13599"
         y="289.34698"
         fill="none"
         stroke="#00b9d2"
         stroke-width="2.75"
         stroke-linecap="round"
         stroke-linejoin="round"
         stroke-miterlimit="10"
         width="3.01"
         height="40.523998"
         id="rect38712"
         style="stroke:#80ffe6;stroke-opacity:1" />
      <polygon
         fill="none"
         stroke="#00b9d2"
         stroke-width="2.75"
         stroke-linecap="round"
         stroke-linejoin="round"
         stroke-miterlimit="10"
         points="493.229,668.611 492.682,668.241 492.142,667.861 491.608,667.471 491.081,667.073 490.56,666.665 490.047,666.249 489.542,665.824 489.043,665.39 488.552,664.947 488.069,664.496 487.594,664.037 487.127,663.57 486.667,663.095 486.217,662.611 485.774,662.121 485.34,661.622 484.915,661.116 484.498,660.603 484.091,660.083 483.692,659.556 483.303,659.022 482.923,658.481 482.552,657.934 482.191,657.381 481.84,656.821 481.498,656.256 481.166,655.685 480.843,655.107 480.531,654.525 480.229,653.937 479.937,653.344 479.656,652.747 479.385,652.144 479.124,651.537 478.874,650.925 478.634,650.309 478.405,649.689 478.187,649.066 477.979,648.438 477.783,647.807 477.597,647.173 477.422,646.536 477.259,645.896 477.106,645.253 476.964,644.607 476.834,643.959 476.715,643.309 476.607,642.657 476.511,642.003 476.425,641.348 476.351,640.691 476.289,640.034 476.237,639.375 476.197,638.715 476.169,638.055 476.152,637.394 476.146,636.733 476.146,122.21 476.152,121.55 476.169,120.889 476.197,120.229 476.237,119.569 476.289,118.91 476.351,118.252 476.425,117.596 476.511,116.94 476.607,116.287 476.715,115.635 476.834,114.985 476.964,114.337 477.106,113.691 477.259,113.048 477.422,112.408 477.597,111.771 477.783,111.137 477.979,110.506 478.187,109.878 478.405,109.254 478.634,108.635 478.874,108.019 479.124,107.407 479.385,106.8 479.656,106.197 479.937,105.599 480.229,105.007 480.531,104.419 480.843,103.836 481.166,103.259 481.498,102.688 481.84,102.122 482.191,101.563 482.552,101.01 482.923,100.462 483.303,99.922 483.692,99.388 484.091,98.861 484.498,98.341 484.915,97.827 485.34,97.322 485.774,96.823 486.217,96.332 486.667,95.849 487.127,95.374 487.594,94.907 488.069,94.448 488.552,93.997 489.043,93.554 489.542,93.12 490.047,92.695 490.56,92.279 491.081,91.871 491.608,91.473 492.142,91.083 492.682,90.703 493.229,90.332 493.783,89.971 494.342,89.62 494.908,89.278 495.479,88.946 496.056,88.624 496.639,88.311 497.226,88.009 497.819,87.717 498.417,87.436 499.02,87.165 499.627,86.904 500.239,86.654 500.854,86.414 501.474,86.185 502.098,85.967 502.726,85.759 503.356,85.563 503.991,85.377 504.628,85.202 505.268,85.039 505.911,84.886 506.557,84.745 507.205,84.614 507.855,84.495 508.507,84.387 509.16,84.291 509.816,84.205 510.472,84.131 511.13,84.069 511.789,84.017 512.449,83.977 513.109,83.949 513.769,83.932 514.43,83.926 717.156,83.926 717.816,83.932 718.477,83.949 719.137,83.977 719.797,84.017 720.456,84.069 721.114,84.131 721.77,84.205 722.426,84.291 723.079,84.387 723.731,84.495 724.381,84.614 725.029,84.745 725.675,84.886 726.318,85.039 726.958,85.202 727.595,85.377 728.229,85.563 728.86,85.759 729.488,85.967 730.112,86.185 730.731,86.414 731.347,86.654 731.959,86.904 732.566,87.165 733.169,87.436 733.767,87.717 734.359,88.009 734.947,88.311 735.53,88.624 736.107,88.946 736.678,89.278 737.244,89.62 737.803,89.971 738.356,90.332 738.904,90.703 739.444,91.083 739.978,91.473 740.505,91.871 741.025,92.279 741.539,92.695 742.044,93.12 742.543,93.554 743.034,93.997 743.517,94.448 743.992,94.907 744.459,95.374 744.918,95.849 745.369,96.332 745.812,96.823 746.246,97.322 746.671,97.827 747.087,98.341 747.495,98.861 747.893,99.388 748.283,99.922 748.663,100.462 749.034,101.01 749.395,101.563 749.746,102.122 750.088,102.688 750.42,103.259 750.742,103.836 751.055,104.419 751.357,105.007 751.648,105.599 751.93,106.197 752.201,106.8 752.462,107.407 752.712,108.019 752.952,108.635 753.181,109.254 753.399,109.878 753.607,110.506 753.803,111.137 753.989,111.771 754.164,112.408 754.327,113.048 754.48,113.691 754.621,114.337 754.752,114.985 754.871,115.635 754.979,116.287 755.075,116.94 755.161,117.596 755.235,118.252 755.297,118.91 755.349,119.569 755.388,120.229 755.417,120.889 755.434,121.55 755.44,122.21 755.44,636.733 755.434,637.394 755.417,638.055 755.388,638.715 755.349,639.375 755.297,640.034 755.235,640.691 755.161,641.348 755.075,642.003 754.979,642.657 754.871,643.309 754.752,643.959 754.621,644.607 754.48,645.253 754.327,645.896 754.164,646.536 753.989,647.173 753.803,647.807 753.607,648.438 753.399,649.066 753.181,649.689 752.952,650.309 752.712,650.925 752.462,651.537 752.201,652.144 751.93,652.747 751.648,653.344 751.357,653.937 751.055,654.525 750.742,655.107 750.42,655.685 750.088,656.256 749.746,656.821 749.395,657.381 749.034,657.934 748.663,658.481 748.283,659.022 747.893,659.556 747.495,660.083 747.087,660.603 746.671,661.116 746.246,661.622 745.812,662.121 745.369,662.611 744.918,663.095 744.459,663.57 743.992,664.037 743.517,664.496 743.034,664.947 742.543,665.39 742.044,665.824 741.539,666.249 741.025,666.665 740.505,667.073 739.978,667.471 739.444,667.861 738.904,668.241 738.356,668.611 737.803,668.973 737.244,669.324 736.678,669.666 736.107,669.998 735.53,670.32 734.947,670.632 734.359,670.935 733.767,671.226 733.169,671.508 732.566,671.779 731.959,672.04 731.347,672.29 730.731,672.53 730.112,672.759 729.488,672.977 728.86,673.185 728.229,673.381 727.595,673.567 726.958,673.742 726.318,673.905 725.675,674.058 725.029,674.199 724.381,674.33 723.731,674.449 723.079,674.557 722.426,674.653 721.77,674.739 721.114,674.812 720.456,674.875 719.797,674.926 719.137,674.966 718.477,674.995 717.816,675.012 717.156,675.018 514.43,675.018 513.769,675.012 513.109,674.995 512.449,674.966 511.789,674.926 511.13,674.875 510.472,674.812 509.816,674.739 509.16,674.653 508.507,674.557 507.855,674.449 507.205,674.33 506.557,674.199 505.911,674.058 505.268,673.905 504.628,673.742 503.991,673.567 503.356,673.381 502.726,673.185 502.098,672.977 501.474,672.759 500.854,672.53 500.239,672.29 499.627,672.04 499.02,671.779 498.417,671.508 497.819,671.226 497.226,670.935 496.639,670.632 496.056,670.32 495.479,669.998 494.908,669.666 494.342,669.324 493.783,668.973 "
         id="polygon38721"
         style="stroke:#80ffe6;stroke-opacity:1" />
      <path
         fill="none"
         stroke="#00b9d2"
         stroke-width="2.75"
         stroke-linecap="round"
         stroke-linejoin="round"
         stroke-miterlimit="10"
         d="m 528.771,145.302 c 0.01,2.808 -1.935,5.307 -4.66,5.987 -3.879,0.978 -7.653,-1.933 -7.692,-5.933 -0.03,-4.046 3.769,-7.029 7.692,-6.041 2.725,0.679 4.67,3.179 4.66,5.987 z"
         id="path38724"
         style="stroke:#80ffe6;stroke-opacity:1" />
      <path
         fill="none"
         stroke="#00b9d2"
         stroke-width="2.75"
         stroke-linecap="round"
         stroke-linejoin="round"
         stroke-miterlimit="10"
         d="m 528.771,180.809 c 0.01,-2.808 -1.935,-5.307 -4.66,-5.987 -3.879,-0.978 -7.653,1.933 -7.692,5.933 -0.03,4.046 3.769,7.029 7.692,6.041 2.725,-0.679 4.67,-3.179 4.66,-5.987 z"
         id="path38727"
         style="stroke:#80ffe6;stroke-opacity:1" />
      <polygon
         fill="none"
         stroke="#00b9d2"
         stroke-width="2.75"
         stroke-linecap="round"
         stroke-linejoin="round"
         stroke-miterlimit="10"
         points="515.149,198.331 514.931,198.236 514.713,198.139 514.496,198.039 514.28,197.935 514.065,197.829 513.851,197.72 513.638,197.608 513.426,197.493 513.214,197.376 513.005,197.255 512.796,197.131 512.588,197.005 512.382,196.876 512.177,196.744 511.974,196.609 511.772,196.471 511.572,196.331 511.373,196.188 511.176,196.042 510.981,195.894 510.787,195.743 510.596,195.589 510.406,195.433 510.218,195.274 510.032,195.113 509.848,194.95 509.666,194.783 509.486,194.615 509.309,194.444 509.133,194.271 508.96,194.096 508.789,193.918 508.621,193.738 508.455,193.556 508.291,193.373 508.13,193.187 507.971,192.999 507.815,192.809 507.661,192.617 507.51,192.423 507.362,192.228 507.216,192.031 507.073,191.832 506.933,191.632 506.795,191.43 506.66,191.227 506.528,191.022 506.399,190.816 506.273,190.609 506.149,190.4 506.029,190.19 505.911,189.979 505.796,189.767 505.684,189.553 505.575,189.339 505.469,189.124 505.366,188.908 505.265,188.691 505.168,188.474 505.074,188.255 504.982,188.036 504.894,187.817 504.808,187.597 504.726,187.377 504.646,187.156 504.57,186.935 504.496,186.713 504.425,186.492 504.357,186.27 504.292,186.048 504.23,185.826 504.171,185.604 504.114,185.382 504.061,185.16 504.01,184.938 503.962,184.716 503.917,184.495 503.875,184.273 503.836,184.053 503.799,183.832 503.765,183.612 503.733,183.393 503.705,183.174 503.679,182.955 503.655,182.737 503.634,182.52 503.616,182.303 503.6,182.087 503.587,181.872 503.576,181.658 503.568,181.445 503.562,181.232 503.558,181.02 503.557,180.809 503.557,145.302 503.558,145.091 503.562,144.879 503.568,144.666 503.576,144.453 503.587,144.239 503.6,144.023 503.616,143.808 503.634,143.591 503.655,143.374 503.679,143.156 503.705,142.937 503.733,142.718 503.765,142.499 503.799,142.279 503.836,142.058 503.875,141.837 503.917,141.616 503.962,141.395 504.01,141.173 504.061,140.951 504.114,140.729 504.171,140.507 504.23,140.285 504.292,140.063 504.357,139.841 504.425,139.619 504.496,139.398 504.57,139.176 504.646,138.955 504.726,138.734 504.808,138.514 504.894,138.294 504.982,138.074 505.074,137.856 505.168,137.637 505.265,137.42 505.366,137.203 505.469,136.987 505.575,136.772 505.684,136.558 505.796,136.344 505.911,136.132 506.029,135.921 506.149,135.711 506.273,135.502 506.399,135.295 506.528,135.089 506.66,134.884 506.795,134.681 506.933,134.479 507.073,134.278 507.216,134.08 507.362,133.883 507.51,133.687 507.661,133.494 507.815,133.302 507.971,133.112 508.13,132.924 508.291,132.738 508.455,132.554 508.621,132.373 508.789,132.193 508.96,132.015 509.133,131.84 509.309,131.667 509.486,131.496 509.666,131.327 509.848,131.161 510.032,130.998 510.218,130.837 510.406,130.678 510.596,130.522 510.787,130.368 510.981,130.217 511.176,130.069 511.373,129.923 511.572,129.78 511.772,129.639 511.974,129.502 512.177,129.367 512.382,129.235 512.588,129.106 512.796,128.98 513.005,128.856 513.214,128.735 513.426,128.618 513.638,128.503 513.851,128.391 514.065,128.282 514.28,128.176 514.496,128.072 514.713,127.972 514.931,127.875 515.149,127.78 515.368,127.689 515.587,127.601 515.807,127.515 516.028,127.432 516.248,127.353 516.47,127.276 516.691,127.202 516.913,127.132 517.135,127.064 517.357,126.999 517.579,126.937 517.801,126.877 518.023,126.821 518.245,126.768 518.467,126.717 518.688,126.669 518.91,126.624 519.131,126.582 519.352,126.542 519.572,126.505 519.792,126.471 520.012,126.44 520.231,126.411 520.449,126.385 520.667,126.362 520.884,126.341 521.101,126.323 521.317,126.307 521.532,126.294 521.746,126.283 521.96,126.274 522.172,126.269 522.384,126.265 522.595,126.264 522.806,126.265 523.018,126.269 523.23,126.274 523.444,126.283 523.658,126.294 523.873,126.307 524.089,126.323 524.306,126.341 524.523,126.362 524.741,126.385 524.959,126.411 525.178,126.44 525.398,126.471 525.618,126.505 525.838,126.542 526.059,126.582 526.28,126.624 526.502,126.669 526.723,126.717 526.945,126.768 527.167,126.821 527.389,126.877 527.611,126.937 527.833,126.999 528.055,127.064 528.277,127.132 528.499,127.202 528.72,127.276 528.941,127.353 529.162,127.432 529.383,127.515 529.603,127.601 529.822,127.689 530.041,127.78 530.259,127.875 530.477,127.972 530.694,128.072 530.91,128.176 531.125,128.282 531.339,128.391 531.552,128.503 531.764,128.618 531.975,128.735 532.185,128.856 532.394,128.98 532.602,129.106 532.808,129.235 533.013,129.367 533.216,129.502 533.418,129.639 533.618,129.78 533.817,129.923 534.014,130.069 534.209,130.217 534.403,130.368 534.594,130.522 534.784,130.678 534.972,130.837 535.158,130.998 535.342,131.161 535.524,131.327 535.704,131.496 535.881,131.667 536.057,131.84 536.23,132.015 536.401,132.193 536.569,132.373 536.735,132.554 536.899,132.738 537.06,132.924 537.219,133.112 537.375,133.302 537.529,133.494 537.68,133.687 537.828,133.883 537.974,134.08 538.117,134.278 538.257,134.479 538.395,134.681 538.529,134.884 538.661,135.089 538.791,135.295 538.917,135.502 539.041,135.711 539.161,135.921 539.279,136.132 539.394,136.344 539.506,136.558 539.615,136.772 539.721,136.987 539.824,137.203 539.924,137.42 540.022,137.637 540.116,137.856 540.208,138.074 540.296,138.294 540.382,138.514 540.464,138.734 540.544,138.955 540.62,139.176 540.694,139.398 540.765,139.619 540.833,139.841 540.898,140.063 540.96,140.285 541.019,140.507 541.076,140.729 541.129,140.951 541.18,141.173 541.228,141.395 541.273,141.616 541.315,141.837 541.354,142.058 541.391,142.279 541.425,142.499 541.457,142.718 541.485,142.937 541.511,143.156 541.535,143.374 541.556,143.591 541.574,143.808 541.59,144.023 541.603,144.239 541.614,144.453 541.622,144.666 541.628,144.879 541.632,145.091 541.633,145.302 541.633,180.809 541.632,181.02 541.628,181.232 541.622,181.445 541.614,181.658 541.603,181.872 541.59,182.087 541.574,182.303 541.556,182.52 541.535,182.737 541.511,182.955 541.485,183.174 541.457,183.393 541.425,183.612 541.391,183.832 541.354,184.053 541.315,184.273 541.273,184.495 541.228,184.716 541.18,184.938 541.129,185.16 541.076,185.382 541.019,185.604 540.96,185.826 540.898,186.048 540.833,186.27 540.765,186.492 540.694,186.713 540.62,186.935 540.544,187.156 540.464,187.377 540.382,187.597 540.296,187.817 540.208,188.036 540.116,188.255 540.022,188.474 539.924,188.691 539.824,188.908 539.721,189.124 539.615,189.339 539.506,189.553 539.394,189.767 539.279,189.979 539.161,190.19 539.041,190.4 538.917,190.609 538.791,190.816 538.661,191.022 538.529,191.227 538.395,191.43 538.257,191.632 538.117,191.832 537.974,192.031 537.828,192.228 537.68,192.423 537.529,192.617 537.375,192.809 537.219,192.999 537.06,193.187 536.899,193.373 536.735,193.556 536.569,193.738 536.401,193.918 536.23,194.096 536.057,194.271 535.881,194.444 535.704,194.615 535.524,194.783 535.342,194.95 535.158,195.113 534.972,195.274 534.784,195.433 534.594,195.589 534.403,195.743 534.209,195.894 534.014,196.042 533.817,196.188 533.618,196.331 533.418,196.471 533.216,196.609 533.013,196.744 532.808,196.876 532.602,197.005 532.394,197.131 532.185,197.255 531.975,197.376 531.764,197.493 531.552,197.608 531.339,197.72 531.125,197.829 530.91,197.935 530.694,198.039 530.477,198.139 530.259,198.236 530.041,198.331 529.822,198.422 529.603,198.51 529.383,198.596 529.162,198.678 528.941,198.758 528.72,198.835 528.499,198.908 528.277,198.979 528.055,199.047 527.833,199.112 527.611,199.174 527.389,199.234 527.167,199.29 526.945,199.343 526.723,199.394 526.502,199.442 526.28,199.487 526.059,199.529 525.838,199.569 525.618,199.606 525.398,199.64 525.178,199.671 524.959,199.7 524.741,199.726 524.523,199.749 524.306,199.77 524.089,199.788 523.873,199.804 523.658,199.817 523.444,199.828 523.23,199.836 523.018,199.842 522.806,199.846 522.595,199.847 522.384,199.846 522.172,199.842 521.96,199.836 521.746,199.828 521.532,199.817 521.317,199.804 521.101,199.788 520.884,199.77 520.667,199.749 520.449,199.726 520.231,199.7 520.012,199.671 519.792,199.64 519.572,199.606 519.352,199.569 519.131,199.529 518.91,199.487 518.688,199.442 518.467,199.394 518.245,199.343 518.023,199.29 517.801,199.234 517.579,199.174 517.357,199.112 517.135,199.047 516.913,198.979 516.691,198.908 516.47,198.835 516.248,198.758 516.028,198.678 515.807,198.596 515.587,198.51 515.368,198.422 "
         id="polygon38730"
         style="stroke:#80ffe6;stroke-opacity:1" />
      <polygon
         fill="none"
         stroke="#00b9d2"
         stroke-width="3.25"
         stroke-linecap="round"
         stroke-linejoin="round"
         stroke-miterlimit="10"
         points="731.689,672.152 732.129,671.968 732.568,671.778 733.006,671.583 733.442,671.381 733.876,671.173 734.309,670.96 734.739,670.741 735.168,670.516 735.595,670.284 736.019,670.048 736.442,669.805 736.861,669.557 737.279,669.302 737.693,669.043 738.105,668.777 738.514,668.506 738.92,668.229 739.323,667.947 739.722,667.66 740.119,667.367 740.511,667.068 740.901,666.764 741.286,666.456 741.668,666.141 742.046,665.822 742.42,665.498 742.79,665.169 743.155,664.835 743.517,664.496 743.874,664.153 744.227,663.805 744.575,663.452 744.918,663.095 745.257,662.733 745.591,662.367 745.92,661.998 746.244,661.624 746.564,661.246 746.878,660.864 747.187,660.478 747.49,660.089 747.789,659.696 748.082,659.3 748.369,658.901 748.652,658.498 748.928,658.092 749.199,657.683 749.465,657.271 749.725,656.857 749.979,656.439 750.227,656.02 750.47,655.597 750.707,655.173 750.938,654.746 751.163,654.317 751.382,653.886 751.596,653.454 751.803,653.019 752.005,652.583 752.2,652.146 752.39,651.707 752.574,651.267 752.752,650.826 752.924,650.383 753.09,649.94 753.25,649.496 753.404,649.051 753.552,648.606 753.695,648.16 753.831,647.714 753.962,647.268 754.087,646.821 754.206,646.375 754.319,645.928 754.427,645.482 754.529,645.036 754.625,644.59 754.716,644.145 754.801,643.7 754.88,643.256 754.954,642.812 755.023,642.37 755.086,641.928 755.143,641.488 755.196,641.049 755.243,640.61 755.285,640.173 755.322,639.738 755.353,639.304 755.38,638.871 755.402,638.44 755.419,638.011 755.43,637.583 755.437,637.157 755.44,636.733 755.44,122.21 755.437,121.786 755.43,121.361 755.419,120.933 755.402,120.504 755.38,120.073 755.353,119.64 755.322,119.206 755.285,118.77 755.243,118.333 755.196,117.895 755.143,117.456 755.086,117.015 755.023,116.574 754.954,116.131 754.88,115.688 754.801,115.244 754.716,114.799 754.625,114.354 754.529,113.908 754.427,113.462 754.319,113.016 754.206,112.569 754.087,112.123 753.962,111.676 753.831,111.23 753.695,110.784 753.552,110.338 753.404,109.892 753.25,109.448 753.09,109.004 752.924,108.56 752.752,108.118 752.574,107.677 752.39,107.237 752.2,106.798 752.005,106.36 751.803,105.924 751.596,105.49 751.382,105.057 751.163,104.627 750.938,104.198 750.707,103.771 750.47,103.347 750.227,102.924 749.979,102.504 749.725,102.087 749.465,101.673 749.199,101.261 748.928,100.852 748.652,100.446 748.369,100.043 748.082,99.644 747.789,99.247 747.49,98.855 747.187,98.465 746.878,98.08 746.564,97.698 746.244,97.32 745.92,96.946 745.591,96.576 745.257,96.211 744.918,95.849 744.575,95.492 744.227,95.139 743.874,94.791 743.517,94.448 743.155,94.109 742.79,93.775 742.42,93.446 742.046,93.122 741.668,92.802 741.286,92.488 740.901,92.179 740.511,91.876 740.119,91.577 739.722,91.284 739.323,90.997 738.92,90.714 738.514,90.438 738.105,90.167 737.693,89.901 737.279,89.641 736.861,89.387 736.442,89.139 736.019,88.896 735.595,88.659 735.168,88.428 734.739,88.203 734.309,87.984 733.876,87.77 733.442,87.563 733.006,87.361 732.568,87.166 732.129,86.976 731.689,86.792 731.248,86.614 730.806,86.442 730.362,86.276 729.918,86.116 729.474,85.962 729.028,85.814 728.582,85.671 728.136,85.535 727.69,85.404 727.243,85.279 726.797,85.16 726.35,85.047 725.904,84.939 725.458,84.837 725.012,84.741 724.567,84.65 724.122,84.565 723.678,84.486 723.235,84.412 722.792,84.343 722.351,84.28 721.91,84.223 721.471,84.17 721.033,84.123 720.596,84.081 720.16,84.044 719.726,84.013 719.293,83.986 718.862,83.964 718.433,83.947 718.005,83.936 717.58,83.929 717.156,83.926 514.43,83.926 514.006,83.929 513.581,83.936 513.153,83.947 512.724,83.964 512.292,83.986 511.86,84.013 511.426,84.044 510.99,84.081 510.553,84.123 510.115,84.17 509.676,84.223 509.235,84.28 508.794,84.343 508.351,84.412 507.908,84.486 507.464,84.565 507.019,84.65 506.574,84.741 506.128,84.837 505.682,84.939 505.236,85.047 504.789,85.16 504.343,85.279 503.896,85.404 503.45,85.535 503.003,85.671 502.558,85.814 502.112,85.962 501.668,86.116 501.224,86.276 500.78,86.442 500.338,86.614 499.897,86.792 499.457,86.976 499.018,87.166 498.58,87.361 498.144,87.563 497.71,87.77 497.277,87.984 496.847,88.203 496.418,88.428 495.991,88.659 495.566,88.896 495.144,89.139 494.724,89.387 494.307,89.641 493.893,89.901 493.481,90.167 493.072,90.438 492.666,90.714 492.263,90.997 491.864,91.284 491.467,91.577 491.075,91.876 490.685,92.179 490.3,92.488 489.918,92.802 489.54,93.122 489.166,93.446 488.796,93.775 488.43,94.109 488.069,94.448 487.712,94.791 487.359,95.139 487.011,95.492 486.668,95.849 486.329,96.211 485.995,96.576 485.666,96.946 485.341,97.32 485.022,97.698 484.708,98.08 484.399,98.465 484.096,98.855 483.797,99.247 483.504,99.644 483.216,100.043 482.934,100.446 482.658,100.852 482.387,101.261 482.121,101.673 481.861,102.087 481.607,102.504 481.359,102.924 481.116,103.347 480.879,103.771 480.648,104.198 480.423,104.627 480.204,105.057 479.99,105.49 479.783,105.924 479.581,106.36 479.385,106.798 479.196,107.237 479.012,107.677 478.834,108.118 478.662,108.56 478.496,109.004 478.336,109.448 478.182,109.892 478.034,110.338 477.891,110.784 477.755,111.23 477.624,111.676 477.499,112.123 477.38,112.569 477.267,113.016 477.159,113.462 477.057,113.908 476.961,114.354 476.87,114.799 476.785,115.244 476.706,115.688 476.632,116.131 476.563,116.574 476.5,117.015 476.442,117.456 476.39,117.895 476.343,118.333 476.301,118.77 476.264,119.206 476.232,119.64 476.206,120.073 476.184,120.504 476.167,120.933 476.155,121.361 476.148,121.786 476.146,122.21 476.146,156.02 473.136,156.02 473.136,248.696 476.146,248.696 476.146,289.347 473.136,289.347 473.136,329.871 476.146,329.871 476.146,636.733 476.148,637.157 476.155,637.583 476.167,638.011 476.184,638.44 476.206,638.871 476.232,639.304 476.264,639.738 476.301,640.173 476.343,640.61 476.39,641.049 476.442,641.488 476.5,641.928 476.563,642.37 476.632,642.812 476.706,643.256 476.785,643.7 476.87,644.145 476.961,644.59 477.057,645.036 477.159,645.482 477.267,645.928 477.38,646.375 477.499,646.821 477.624,647.268 477.755,647.714 477.891,648.16 478.034,648.606 478.182,649.051 478.336,649.496 478.496,649.94 478.662,650.383 478.834,650.826 479.012,651.267 479.196,651.707 479.385,652.146 479.581,652.583 479.783,653.019 479.99,653.454 480.204,653.886 480.423,654.317 480.648,654.746 480.879,655.173 481.116,655.597 481.359,656.02 481.607,656.439 481.861,656.857 482.121,657.271 482.387,657.683 482.658,658.092 482.934,658.498 483.216,658.901 483.504,659.3 483.797,659.696 484.096,660.089 484.399,660.478 484.708,660.864 485.022,661.246 485.341,661.624 485.666,661.998 485.995,662.367 486.329,662.733 486.668,663.095 487.011,663.452 487.359,663.805 487.712,664.153 488.069,664.496 488.43,664.835 488.796,665.169 489.166,665.498 489.54,665.822 489.918,666.141 490.3,666.456 490.685,666.764 491.075,667.068 491.467,667.367 491.864,667.66 492.263,667.947 492.666,668.229 493.072,668.506 493.481,668.777 493.893,669.043 494.307,669.302 494.724,669.557 495.144,669.805 495.566,670.048 495.991,670.284 496.418,670.516 496.847,670.741 497.277,670.96 497.71,671.173 498.144,671.381 498.58,671.583 499.018,671.778 499.457,671.968 499.897,672.152 500.338,672.33 500.78,672.502 501.224,672.668 501.668,672.828 502.112,672.982 502.558,673.13 503.003,673.273 503.45,673.409 503.896,673.54 504.343,673.665 504.789,673.784 505.236,673.897 505.682,674.005 506.128,674.107 506.574,674.203 507.019,674.294 507.464,674.379 507.908,674.458 508.351,674.532 508.794,674.6 509.235,674.664 509.676,674.721 510.115,674.774 510.553,674.821 510.99,674.863 511.426,674.9 511.86,674.931 512.292,674.958 512.724,674.98 513.153,674.996 513.581,675.008 514.006,675.015 514.43,675.018 717.156,675.018 717.58,675.015 718.005,675.008 718.433,674.996 718.862,674.98 719.293,674.958 719.726,674.931 720.16,674.9 720.596,674.863 721.033,674.821 721.471,674.774 721.91,674.721 722.351,674.664 722.792,674.6 723.235,674.532 723.678,674.458 724.122,674.379 724.567,674.294 725.012,674.203 725.458,674.107 725.904,674.005 726.35,673.897 726.797,673.784 727.243,673.665 727.69,673.54 728.136,673.409 728.582,673.273 729.028,673.13 729.474,672.982 729.918,672.828 730.362,672.668 730.806,672.502 731.248,672.33 "
         id="polygon38752"
         style="stroke:#80ffe6;stroke-opacity:1" />
    </g>
  </g>
</svg>
