<?xml version="1.0" encoding="UTF-8" standalone="no"?>
<svg
   xmlns:dc="http://purl.org/dc/elements/1.1/"
   xmlns:cc="http://creativecommons.org/ns#"
   xmlns:rdf="http://www.w3.org/1999/02/22-rdf-syntax-ns#"
   xmlns:svg="http://www.w3.org/2000/svg"
   xmlns="http://www.w3.org/2000/svg"
   xmlns:sodipodi="http://sodipodi.sourceforge.net/DTD/sodipodi-0.dtd"
   xmlns:inkscape="http://www.inkscape.org/namespaces/inkscape"
   width="15mm"
   height="31.286852mm"
   viewBox="0 0 15.000001 31.286853"
   version="1.1"
   id="svg4830"
   inkscape:version="1.0.2 (e86c8708, 2021-01-15)"
   sodipodi:docname="a30.svg">
  <defs
     id="defs4824" />
  <sodipodi:namedview
     id="base"
     pagecolor="#ffffff"
     bordercolor="#666666"
     borderopacity="1.0"
     inkscape:pageopacity="0.0"
     inkscape:pageshadow="2"
     inkscape:zoom="3.8813991"
     inkscape:cx="3.2477683"
     inkscape:cy="71.435053"
     inkscape:document-units="mm"
     inkscape:current-layer="layer1"
     inkscape:document-rotation="0"
     showgrid="false"
     inkscape:window-width="1440"
     inkscape:window-height="872"
     inkscape:window-x="0"
     inkscape:window-y="28"
     inkscape:window-maximized="0" />
  <metadata
     id="metadata4827">
    <rdf:RDF>
      <cc:Work
         rdf:about="">
        <dc:format>image/svg+xml</dc:format>
        <dc:type
           rdf:resource="http://purl.org/dc/dcmitype/StillImage" />
        <dc:title></dc:title>
      </cc:Work>
    </rdf:RDF>
  </metadata>
  <g
     inkscape:label="Layer 1"
     inkscape:groupmode="layer"
     id="layer1"
     transform="translate(-81.758926,-73.364225)">
    <g
       id="g38347"
       transform="matrix(0.05084763,0,0,0.05084763,57.342097,68.91404)"
       style="opacity:0.998;stroke:#80ffe6;stroke-opacity:1">
      <polygon
         fill="none"
         stroke="#00b9d2"
         stroke-width="2"
         stroke-linecap="round"
         stroke-linejoin="round"
         stroke-miterlimit="10"
         points="642.114,205.058 642.024,204.909 641.931,204.761 641.836,204.615 641.738,204.471 641.638,204.328 641.535,204.187 641.43,204.048 641.322,203.911 641.212,203.776 641.1,203.642 640.986,203.511 640.869,203.381 640.75,203.254 640.629,203.128 640.505,203.005 640.38,202.884 640.252,202.765 640.123,202.648 639.991,202.533 639.858,202.421 639.723,202.311 639.585,202.204 639.446,202.099 639.305,201.996 639.163,201.896 639.018,201.798 638.872,201.702 638.725,201.61 638.575,201.52 638.425,201.432 638.272,201.347 638.119,201.265 637.964,201.185 637.807,201.108 637.649,201.033 637.49,200.962 637.33,200.893 637.169,200.827 637.006,200.764 636.843,200.703 636.678,200.646 636.512,200.591 636.346,200.539 636.179,200.49 636.01,200.444 635.841,200.401 635.672,200.361 635.502,200.323 635.331,200.289 635.159,200.257 634.987,200.229 634.814,200.204 634.642,200.181 634.468,200.161 634.295,200.145 634.121,200.131 633.947,200.121 633.773,200.113 633.598,200.109 633.424,200.107 625.077,200.107 624.903,200.109 624.728,200.113 624.554,200.121 624.38,200.131 624.206,200.145 624.032,200.161 623.859,200.181 623.686,200.204 623.514,200.229 623.342,200.257 623.17,200.289 622.999,200.323 622.829,200.361 622.659,200.401 622.49,200.444 622.322,200.49 622.155,200.539 621.988,200.591 621.823,200.646 621.658,200.703 621.495,200.764 621.332,200.827 621.171,200.893 621.01,200.962 620.851,201.033 620.694,201.108 620.537,201.185 620.382,201.265 620.228,201.347 620.076,201.432 619.925,201.52 619.776,201.61 619.629,201.702 619.482,201.798 619.338,201.896 619.195,201.996 619.055,202.099 618.916,202.204 618.778,202.311 618.643,202.421 618.509,202.533 618.378,202.648 618.248,202.765 618.121,202.884 617.995,203.005 617.872,203.128 617.751,203.254 617.632,203.381 617.515,203.511 617.401,203.642 617.289,203.776 617.179,203.911 617.071,204.048 616.966,204.187 616.863,204.328 616.763,204.471 616.665,204.615 616.57,204.761 616.477,204.909 616.387,205.058 616.299,205.209 616.214,205.361 616.132,205.515 616.052,205.67 615.975,205.826 615.901,205.984 615.829,206.143 615.76,206.303 615.694,206.465 615.631,206.627 615.571,206.791 615.513,206.955 615.458,207.121 615.406,207.288 615.357,207.455 615.311,207.623 615.268,207.792 615.228,207.962 615.191,208.132 615.156,208.303 615.125,208.474 615.096,208.647 615.071,208.819 615.048,208.992 615.029,209.165 615.012,209.339 614.999,209.513 614.988,209.687 614.981,209.861 614.976,210.035 614.975,210.21 614.975,229.88 614.976,230.054 614.981,230.228 614.988,230.402 614.999,230.577 615.012,230.75 615.029,230.924 615.048,231.097 615.071,231.27 615.096,231.443 615.125,231.615 615.156,231.786 615.191,231.957 615.228,232.128 615.268,232.297 615.311,232.466 615.357,232.634 615.406,232.802 615.458,232.968 615.513,233.134 615.571,233.298 615.631,233.462 615.694,233.624 615.76,233.786 615.829,233.946 615.901,234.105 615.975,234.263 616.052,234.419 616.132,234.574 616.214,234.728 616.299,234.88 616.387,235.031 616.477,235.18 616.57,235.328 616.665,235.474 616.763,235.618 616.863,235.761 616.966,235.902 617.071,236.041 617.179,236.178 617.289,236.314 617.401,236.447 617.515,236.579 617.632,236.708 617.751,236.836 617.872,236.961 617.995,237.084 618.121,237.206 618.248,237.324 618.378,237.441 618.509,237.556 618.643,237.668 618.778,237.778 618.916,237.885 619.055,237.991 619.195,238.093 619.338,238.194 619.482,238.291 619.629,238.387 619.776,238.479 619.925,238.57 620.076,238.657 620.228,238.742 620.382,238.825 620.537,238.904 620.694,238.981 620.851,239.056 621.01,239.127 621.171,239.196 621.332,239.262 621.495,239.325 621.658,239.386 621.823,239.443 621.988,239.498 622.155,239.55 622.322,239.599 622.49,239.645 622.659,239.688 622.829,239.729 622.999,239.766 623.17,239.8 623.342,239.832 623.514,239.86 623.686,239.886 623.859,239.908 624.032,239.928 624.206,239.944 624.38,239.958 624.554,239.968 624.728,239.976 624.903,239.98 625.077,239.982 633.424,239.982 633.598,239.98 633.773,239.976 633.947,239.968 634.121,239.958 634.295,239.944 634.468,239.928 634.642,239.908 634.814,239.886 634.987,239.86 635.159,239.832 635.331,239.8 635.502,239.766 635.672,239.729 635.841,239.688 636.01,239.645 636.179,239.599 636.346,239.55 636.512,239.498 636.678,239.443 636.843,239.386 637.006,239.325 637.169,239.262 637.33,239.196 637.49,239.127 637.649,239.056 637.807,238.981 637.964,238.904 638.119,238.825 638.272,238.742 638.425,238.657 638.575,238.57 638.725,238.479 638.872,238.387 639.018,238.291 639.163,238.194 639.305,238.093 639.446,237.991 639.585,237.885 639.723,237.778 639.858,237.668 639.991,237.556 640.123,237.441 640.252,237.324 640.38,237.206 640.505,237.084 640.629,236.961 640.75,236.836 640.869,236.708 640.986,236.579 641.1,236.447 641.212,236.314 641.322,236.178 641.43,236.041 641.535,235.902 641.638,235.761 641.738,235.618 641.836,235.474 641.931,235.328 642.024,235.18 642.114,235.031 642.202,234.88 642.287,234.728 642.369,234.574 642.449,234.419 642.526,234.263 642.6,234.105 642.672,233.946 642.74,233.786 642.806,233.624 642.87,233.462 642.93,233.298 642.988,233.134 643.042,232.968 643.094,232.802 643.143,232.634 643.189,232.466 643.233,232.297 643.273,232.128 643.31,231.957 643.345,231.786 643.376,231.615 643.404,231.443 643.43,231.27 643.453,231.097 643.472,230.924 643.489,230.75 643.502,230.577 643.513,230.402 643.52,230.228 643.525,230.054 643.526,229.88 643.526,210.21 643.525,210.035 643.52,209.861 643.513,209.687 643.502,209.513 643.489,209.339 643.472,209.165 643.453,208.992 643.43,208.819 643.404,208.647 643.376,208.474 643.345,208.303 643.31,208.132 643.273,207.962 643.233,207.792 643.189,207.623 643.143,207.455 643.094,207.288 643.042,207.121 642.988,206.955 642.93,206.791 642.87,206.627 642.806,206.465 642.74,206.303 642.672,206.143 642.6,205.984 642.526,205.826 642.449,205.67 642.369,205.515 642.287,205.361 642.202,205.209 "
         id="polygon37606"
         style="stroke:#80ffe6;stroke-opacity:1" />
      <polygon
         fill="none"
         stroke="#00b9d2"
         stroke-width="2"
         stroke-linecap="round"
         stroke-linejoin="round"
         stroke-miterlimit="10"
         points="645.256,203.196 645.133,202.993 645.006,202.792 644.877,202.593 644.744,202.396 644.607,202.202 644.467,202.01 644.324,201.821 644.177,201.634 644.028,201.45 643.875,201.268 643.719,201.089 643.56,200.912 643.398,200.739 643.233,200.568 643.065,200.4 642.895,200.235 642.721,200.073 642.545,199.914 642.366,199.758 642.184,199.606 642,199.456 641.813,199.31 641.623,199.166 641.431,199.027 641.237,198.89 641.041,198.757 640.842,198.627 640.641,198.501 640.438,198.378 640.232,198.259 640.025,198.143 639.816,198.031 639.605,197.922 639.392,197.817 639.177,197.716 638.96,197.619 638.742,197.525 638.523,197.435 638.301,197.349 638.079,197.267 637.854,197.188 637.629,197.114 637.402,197.043 637.174,196.976 636.946,196.914 636.716,196.855 636.484,196.8 636.253,196.749 636.02,196.702 635.786,196.66 635.552,196.621 635.317,196.586 635.082,196.556 634.846,196.529 634.609,196.506 634.373,196.488 634.136,196.474 633.899,196.463 633.661,196.457 633.424,196.455 625.077,196.455 624.839,196.457 624.602,196.463 624.365,196.474 624.128,196.488 623.891,196.506 623.655,196.529 623.419,196.556 623.184,196.586 622.949,196.621 622.714,196.66 622.481,196.702 622.248,196.749 622.016,196.8 621.785,196.855 621.555,196.914 621.326,196.976 621.098,197.043 620.872,197.114 620.646,197.188 620.422,197.267 620.2,197.349 619.978,197.435 619.759,197.525 619.54,197.619 619.324,197.716 619.109,197.817 618.896,197.922 618.685,198.031 618.476,198.143 618.268,198.259 618.063,198.378 617.86,198.501 617.659,198.627 617.46,198.757 617.263,198.89 617.069,199.027 616.877,199.166 616.688,199.31 616.501,199.456 616.317,199.606 616.135,199.758 615.956,199.914 615.78,200.073 615.606,200.235 615.435,200.4 615.268,200.568 615.103,200.739 614.941,200.912 614.782,201.089 614.626,201.268 614.473,201.45 614.323,201.634 614.177,201.821 614.034,202.01 613.894,202.202 613.757,202.396 613.624,202.593 613.494,202.792 613.368,202.993 613.245,203.196 613.126,203.401 613.01,203.608 612.898,203.818 612.789,204.029 612.685,204.242 612.583,204.457 612.486,204.673 612.392,204.891 612.302,205.111 612.216,205.332 612.134,205.555 612.056,205.779 611.981,206.004 611.91,206.231 611.844,206.459 611.781,206.688 611.722,206.918 611.667,207.149 611.617,207.381 611.57,207.614 611.527,207.847 611.488,208.081 611.453,208.316 611.423,208.552 611.396,208.788 611.374,209.024 611.355,209.261 611.341,209.498 611.331,209.735 611.325,209.972 611.323,210.21 611.323,229.88 611.325,230.117 611.331,230.354 611.341,230.592 611.355,230.828 611.374,231.065 611.396,231.302 611.423,231.537 611.453,231.773 611.488,232.008 611.527,232.242 611.57,232.476 611.617,232.708 611.667,232.94 611.722,233.171 611.781,233.401 611.844,233.63 611.91,233.858 611.981,234.085 612.056,234.31 612.134,234.534 612.216,234.757 612.302,234.978 612.392,235.198 612.486,235.416 612.583,235.633 612.685,235.847 612.789,236.06 612.898,236.272 613.01,236.481 613.126,236.688 613.245,236.893 613.368,237.097 613.494,237.298 613.624,237.496 613.757,237.693 613.894,237.887 614.034,238.079 614.177,238.268 614.323,238.455 614.473,238.64 614.626,238.821 614.782,239 614.941,239.177 615.103,239.35 615.268,239.521 615.435,239.689 615.606,239.854 615.78,240.016 615.956,240.175 616.135,240.331 616.317,240.484 616.501,240.633 616.688,240.78 616.877,240.923 617.069,241.063 617.263,241.199 617.46,241.332 617.659,241.462 617.86,241.588 618.063,241.711 618.268,241.831 618.476,241.946 618.685,242.058 618.896,242.167 619.109,242.272 619.324,242.373 619.54,242.47 619.759,242.564 619.978,242.654 620.2,242.74 620.422,242.822 620.646,242.901 620.872,242.975 621.098,243.046 621.326,243.113 621.555,243.175 621.785,243.234 622.016,243.289 622.248,243.34 622.481,243.387 622.714,243.43 622.949,243.468 623.184,243.503 623.419,243.534 623.655,243.56 623.891,243.583 624.128,243.601 624.365,243.616 624.602,243.626 624.839,243.632 625.077,243.634 633.424,243.634 633.661,243.632 633.899,243.626 634.136,243.616 634.373,243.601 634.609,243.583 634.846,243.56 635.082,243.534 635.317,243.503 635.552,243.468 635.786,243.43 636.02,243.387 636.253,243.34 636.484,243.289 636.716,243.234 636.946,243.175 637.174,243.113 637.402,243.046 637.629,242.975 637.854,242.901 638.079,242.822 638.301,242.74 638.523,242.654 638.742,242.564 638.96,242.47 639.177,242.373 639.392,242.272 639.605,242.167 639.816,242.058 640.025,241.946 640.232,241.831 640.438,241.711 640.641,241.588 640.842,241.462 641.041,241.332 641.237,241.199 641.431,241.063 641.623,240.923 641.813,240.78 642,240.633 642.184,240.484 642.366,240.331 642.545,240.175 642.721,240.016 642.895,239.854 643.065,239.689 643.233,239.521 643.398,239.35 643.56,239.177 643.719,239 643.875,238.821 644.028,238.64 644.177,238.455 644.324,238.268 644.467,238.079 644.607,237.887 644.744,237.693 644.877,237.496 645.006,237.298 645.133,237.097 645.256,236.893 645.375,236.688 645.491,236.481 645.603,236.272 645.711,236.06 645.816,235.847 645.917,235.633 646.015,235.416 646.108,235.198 646.198,234.978 646.284,234.757 646.367,234.534 646.445,234.31 646.52,234.085 646.59,233.858 646.657,233.63 646.72,233.401 646.779,233.171 646.833,232.94 646.884,232.708 646.931,232.476 646.974,232.242 647.013,232.008 647.047,231.773 647.078,231.537 647.105,231.302 647.127,231.065 647.146,230.828 647.16,230.592 647.17,230.354 647.176,230.117 647.178,229.88 647.178,210.21 647.176,209.972 647.17,209.735 647.16,209.498 647.146,209.261 647.127,209.024 647.105,208.788 647.078,208.552 647.047,208.316 647.013,208.081 646.974,207.847 646.931,207.614 646.884,207.381 646.833,207.149 646.779,206.918 646.72,206.688 646.657,206.459 646.59,206.231 646.52,206.004 646.445,205.779 646.367,205.555 646.284,205.332 646.198,205.111 646.108,204.891 646.015,204.673 645.917,204.457 645.816,204.242 645.711,204.029 645.603,203.818 645.491,203.608 645.375,203.401 "
         id="polygon37609"
         style="stroke:#80ffe6;stroke-opacity:1" />
      <polygon
         fill="none"
         stroke="#00b9d2"
         stroke-width="2"
         stroke-linecap="round"
         stroke-linejoin="round"
         stroke-miterlimit="10"
         points="521.752,193.35 521.589,193.252 521.429,193.151 521.27,193.047 521.113,192.941 520.957,192.831 520.804,192.72 520.653,192.605 520.503,192.488 520.356,192.368 520.211,192.246 520.067,192.122 519.926,191.995 519.788,191.865 519.651,191.733 519.517,191.599 519.385,191.463 519.256,191.324 519.129,191.183 519.004,191.04 518.882,190.894 518.762,190.747 518.645,190.598 518.531,190.446 518.419,190.293 518.31,190.138 518.203,189.98 518.099,189.822 517.999,189.661 517.9,189.498 517.805,189.334 517.712,189.169 517.623,189.001 517.536,188.833 517.452,188.662 517.371,188.491 517.293,188.317 517.219,188.143 517.147,187.967 517.078,187.791 517.012,187.613 516.949,187.433 516.89,187.253 516.833,187.072 516.78,186.89 516.73,186.707 516.683,186.523 516.639,186.338 516.598,186.153 516.561,185.967 516.527,185.78 516.496,185.593 516.468,185.405 516.443,185.217 516.422,185.028 516.404,184.839 516.39,184.65 516.378,184.461 516.37,184.271 516.365,184.081 516.363,183.892 516.363,141.823 516.365,141.633 516.37,141.443 516.378,141.253 516.39,141.064 516.404,140.875 516.422,140.686 516.443,140.497 516.468,140.309 516.496,140.121 516.527,139.934 516.561,139.747 516.598,139.561 516.639,139.376 516.683,139.191 516.73,139.007 516.78,138.824 516.833,138.642 516.89,138.461 516.949,138.281 517.012,138.102 517.078,137.924 517.147,137.747 517.219,137.571 517.293,137.397 517.371,137.224 517.452,137.052 517.536,136.882 517.623,136.713 517.712,136.546 517.805,136.38 517.9,136.216 517.999,136.053 518.099,135.893 518.203,135.734 518.31,135.577 518.419,135.421 518.531,135.268 518.645,135.116 518.762,134.967 518.882,134.82 519.004,134.674 519.129,134.531 519.256,134.39 519.385,134.252 519.517,134.115 519.651,133.981 519.788,133.849 519.926,133.719 520.067,133.592 520.211,133.468 520.356,133.346 520.503,133.226 520.653,133.109 520.804,132.995 520.957,132.883 521.113,132.774 521.27,132.667 521.429,132.563 521.589,132.462 521.752,132.364 521.916,132.269 522.082,132.176 522.249,132.087 522.418,132 522.588,131.916 522.76,131.835 522.933,131.757 523.107,131.682 523.283,131.611 523.46,131.542 523.638,131.476 523.817,131.413 523.997,131.354 524.178,131.297 524.36,131.244 524.544,131.194 524.727,131.147 524.912,131.103 525.097,131.062 525.284,131.025 525.47,130.991 525.657,130.96 525.845,130.932 526.033,130.907 526.222,130.886 526.411,130.868 526.6,130.853 526.79,130.842 526.979,130.834 527.169,130.829 527.359,130.827 535.317,130.827 535.507,130.829 535.697,130.834 535.886,130.842 536.076,130.853 536.265,130.868 536.454,130.886 536.643,130.907 536.831,130.932 537.018,130.96 537.206,130.991 537.392,131.025 537.578,131.062 537.764,131.103 537.949,131.147 538.132,131.194 538.315,131.244 538.498,131.297 538.679,131.354 538.859,131.413 539.038,131.476 539.216,131.542 539.393,131.611 539.569,131.682 539.743,131.757 539.916,131.835 540.088,131.916 540.258,132 540.427,132.087 540.594,132.176 540.76,132.269 540.924,132.364 541.087,132.462 541.247,132.563 541.406,132.667 541.563,132.774 541.719,132.883 541.872,132.995 542.023,133.109 542.173,133.226 542.32,133.346 542.465,133.468 542.609,133.592 542.75,133.719 542.888,133.849 543.025,133.981 543.159,134.115 543.291,134.252 543.42,134.39 543.547,134.531 543.672,134.674 543.794,134.82 543.914,134.967 544.031,135.116 544.145,135.268 544.257,135.421 544.366,135.577 544.473,135.734 544.576,135.893 544.677,136.053 544.776,136.216 544.871,136.38 544.964,136.546 545.053,136.713 545.14,136.882 545.224,137.052 545.305,137.224 545.383,137.397 545.457,137.571 545.529,137.747 545.598,137.924 545.664,138.102 545.727,138.281 545.786,138.461 545.843,138.642 545.896,138.824 545.946,139.007 545.993,139.191 546.037,139.376 546.078,139.561 546.115,139.747 546.149,139.934 546.18,140.121 546.208,140.309 546.232,140.497 546.254,140.686 546.272,140.875 546.286,141.064 546.298,141.253 546.306,141.443 546.311,141.633 546.313,141.823 546.313,183.892 546.311,184.081 546.306,184.271 546.298,184.461 546.286,184.65 546.272,184.839 546.254,185.028 546.232,185.217 546.208,185.405 546.18,185.593 546.149,185.78 546.115,185.967 546.078,186.153 546.037,186.338 545.993,186.523 545.946,186.707 545.896,186.89 545.843,187.072 545.786,187.253 545.727,187.433 545.664,187.613 545.598,187.791 545.529,187.967 545.457,188.143 545.383,188.317 545.305,188.491 545.224,188.662 545.14,188.833 545.053,189.001 544.964,189.169 544.871,189.334 544.776,189.498 544.677,189.661 544.576,189.822 544.473,189.98 544.366,190.138 544.257,190.293 544.145,190.446 544.031,190.598 543.914,190.747 543.794,190.894 543.672,191.04 543.547,191.183 543.42,191.324 543.291,191.463 543.159,191.599 543.025,191.733 542.888,191.865 542.75,191.995 542.609,192.122 542.465,192.246 542.32,192.368 542.173,192.488 542.023,192.605 541.872,192.72 541.719,192.831 541.563,192.941 541.406,193.047 541.247,193.151 541.087,193.252 540.924,193.35 540.76,193.445 540.594,193.538 540.427,193.627 540.258,193.714 540.088,193.798 539.916,193.879 539.743,193.957 539.569,194.032 539.393,194.104 539.216,194.172 539.038,194.238 538.859,194.301 538.679,194.36 538.498,194.417 538.315,194.47 538.132,194.52 537.949,194.567 537.764,194.611 537.578,194.652 537.392,194.689 537.206,194.724 537.018,194.755 536.831,194.782 536.643,194.807 536.454,194.828 536.265,194.846 536.076,194.861 535.886,194.872 535.697,194.88 535.507,194.885 535.317,194.887 527.359,194.887 527.169,194.885 526.979,194.88 526.79,194.872 526.6,194.861 526.411,194.846 526.222,194.828 526.033,194.807 525.845,194.782 525.657,194.755 525.47,194.724 525.284,194.689 525.097,194.652 524.912,194.611 524.727,194.567 524.544,194.52 524.36,194.47 524.178,194.417 523.997,194.36 523.817,194.301 523.638,194.238 523.46,194.172 523.283,194.104 523.107,194.032 522.933,193.957 522.76,193.879 522.588,193.798 522.418,193.714 522.249,193.627 522.082,193.538 521.916,193.445 "
         id="polygon37612"
         style="stroke:#80ffe6;stroke-opacity:1" />
      <polygon
         fill="none"
         stroke="#00b9d2"
         stroke-width="2"
         stroke-linecap="round"
         stroke-linejoin="round"
         stroke-miterlimit="10"
         points="505.568,690.889 505.132,690.626 504.701,690.355 504.275,690.077 503.854,689.792 503.438,689.499 503.027,689.199 502.621,688.893 502.22,688.579 501.825,688.258 501.436,687.931 501.052,687.597 500.674,687.256 500.302,686.909 499.936,686.555 499.576,686.195 499.223,685.829 498.875,685.457 498.535,685.08 498.201,684.696 497.873,684.306 497.553,683.911 497.239,683.511 496.932,683.105 496.632,682.694 496.339,682.277 496.054,681.856 495.776,681.43 495.505,680.999 495.242,680.564 494.986,680.124 494.738,679.68 494.498,679.231 494.265,678.779 494.041,678.322 493.824,677.862 493.615,677.398 493.414,676.93 493.221,676.459 493.037,675.985 492.861,675.508 492.693,675.027 492.533,674.544 492.381,674.059 492.238,673.57 492.104,673.079 491.978,672.586 491.86,672.091 491.751,671.594 491.651,671.096 491.559,670.595 491.476,670.093 491.402,669.59 491.336,669.085 491.279,668.579 491.231,668.073 491.192,667.566 491.161,667.058 491.139,666.549 491.126,666.041 491.121,665.532 491.121,124.814 491.126,124.305 491.139,123.797 491.161,123.288 491.192,122.781 491.231,122.273 491.279,121.767 491.336,121.261 491.402,120.757 491.476,120.253 491.559,119.751 491.651,119.251 491.751,118.752 491.86,118.255 491.978,117.76 492.104,117.267 492.238,116.776 492.381,116.288 492.533,115.802 492.693,115.319 492.861,114.839 493.037,114.361 493.221,113.887 493.414,113.416 493.615,112.949 493.824,112.485 494.041,112.024 494.265,111.568 494.498,111.115 494.738,110.667 494.986,110.222 495.242,109.782 495.505,109.347 495.776,108.916 496.054,108.49 496.339,108.069 496.632,107.653 496.932,107.241 497.239,106.836 497.553,106.435 497.873,106.04 498.201,105.65 498.535,105.267 498.875,104.889 499.223,104.517 499.576,104.151 499.936,103.791 500.302,103.437 500.674,103.09 501.052,102.75 501.436,102.416 501.825,102.088 502.22,101.767 502.621,101.454 503.027,101.147 503.438,100.847 503.854,100.554 504.275,100.269 504.701,99.991 505.132,99.72 505.568,99.457 506.008,99.201 506.452,98.953 506.9,98.713 507.353,98.48 507.809,98.255 508.27,98.039 508.734,97.83 509.201,97.629 509.672,97.436 510.146,97.252 510.624,97.075 511.104,96.907 511.587,96.748 512.073,96.596 512.561,96.453 513.052,96.319 513.545,96.193 514.04,96.075 514.537,95.966 515.036,95.866 515.536,95.774 516.038,95.691 516.542,95.617 517.046,95.551 517.552,95.494 518.058,95.446 518.566,95.406 519.074,95.376 519.582,95.354 520.091,95.341 520.599,95.336 737.901,95.336 738.41,95.341 738.919,95.354 739.427,95.376 739.935,95.406 740.442,95.446 740.949,95.494 741.454,95.551 741.959,95.617 742.462,95.691 742.964,95.774 743.465,95.866 743.964,95.966 744.461,96.075 744.956,96.193 745.449,96.319 745.94,96.453 746.428,96.596 746.914,96.748 747.397,96.907 747.877,97.075 748.354,97.252 748.829,97.436 749.299,97.629 749.767,97.83 750.231,98.039 750.691,98.255 751.148,98.48 751.6,98.713 752.049,98.953 752.493,99.201 752.933,99.457 753.369,99.72 753.799,99.991 754.226,100.269 754.647,100.554 755.063,100.847 755.474,101.147 755.88,101.454 756.281,101.767 756.676,102.088 757.065,102.416 757.449,102.75 757.827,103.09 758.199,103.437 758.565,103.791 758.925,104.151 759.278,104.517 759.625,104.889 759.966,105.267 760.3,105.65 760.628,106.04 760.948,106.435 761.262,106.836 761.569,107.241 761.869,107.653 762.161,108.069 762.447,108.49 762.725,108.916 762.996,109.347 763.259,109.782 763.514,110.222 763.763,110.667 764.003,111.115 764.235,111.568 764.46,112.024 764.677,112.485 764.886,112.949 765.087,113.416 765.279,113.887 765.464,114.361 765.64,114.839 765.808,115.319 765.968,115.802 766.119,116.288 766.262,116.776 766.397,117.267 766.523,117.76 766.64,118.255 766.749,118.752 766.85,119.251 766.941,119.751 767.024,120.253 767.099,120.757 767.164,121.261 767.221,121.767 767.27,122.273 767.309,122.781 767.34,123.288 767.362,123.797 767.375,124.305 767.379,124.814 767.379,665.532 767.375,666.041 767.362,666.549 767.34,667.058 767.309,667.566 767.27,668.073 767.221,668.579 767.164,669.085 767.099,669.59 767.024,670.093 766.941,670.595 766.85,671.096 766.749,671.594 766.64,672.091 766.523,672.586 766.397,673.079 766.262,673.57 766.119,674.059 765.968,674.544 765.808,675.027 765.64,675.508 765.464,675.985 765.279,676.459 765.087,676.93 764.886,677.398 764.677,677.862 764.46,678.322 764.235,678.779 764.003,679.231 763.763,679.68 763.514,680.124 763.259,680.564 762.996,680.999 762.725,681.43 762.447,681.856 762.161,682.277 761.869,682.694 761.569,683.105 761.262,683.511 760.948,683.911 760.628,684.306 760.3,684.696 759.966,685.08 759.625,685.457 759.278,685.829 758.925,686.195 758.565,686.555 758.199,686.909 757.827,687.256 757.449,687.597 757.065,687.931 756.676,688.258 756.281,688.579 755.88,688.893 755.474,689.199 755.063,689.499 754.647,689.792 754.226,690.077 753.799,690.355 753.369,690.626 752.933,690.889 752.493,691.145 752.049,691.393 751.6,691.633 751.148,691.866 750.691,692.091 750.231,692.308 749.767,692.516 749.299,692.717 748.829,692.91 748.354,693.094 747.877,693.271 747.397,693.439 746.914,693.599 746.428,693.75 745.94,693.893 745.449,694.027 744.956,694.153 744.461,694.271 743.964,694.38 743.465,694.48 742.964,694.572 742.462,694.655 741.959,694.729 741.454,694.795 740.949,694.852 740.442,694.9 739.935,694.94 739.427,694.971 738.919,694.992 738.41,695.006 737.901,695.01 520.599,695.01 520.091,695.006 519.582,694.992 519.074,694.971 518.566,694.94 518.058,694.9 517.552,694.852 517.046,694.795 516.542,694.729 516.038,694.655 515.536,694.572 515.036,694.48 514.537,694.38 514.04,694.271 513.545,694.153 513.052,694.027 512.561,693.893 512.073,693.75 511.587,693.599 511.104,693.439 510.624,693.271 510.146,693.094 509.672,692.91 509.201,692.717 508.734,692.516 508.27,692.308 507.809,692.091 507.353,691.866 506.9,691.633 506.452,691.393 506.008,691.145 "
         id="polygon37615"
         style="stroke:#80ffe6;stroke-opacity:1" />
      <path
         fill="none"
         stroke="#00b9d2"
         stroke-width="2.75"
         stroke-linecap="round"
         stroke-linejoin="round"
         stroke-miterlimit="10"
         d="m 539.018,219.965 c 0.011,-3.494 -2.404,-6.598 -5.794,-7.445 -4.827,-1.215 -9.514,2.401 -9.565,7.378 -0.036,5.033 4.684,8.739 9.565,7.512 3.389,-0.847 5.805,-3.95 5.794,-7.445 z"
         id="path37634"
         style="stroke:#80ffe6;stroke-opacity:1" />
      <path
         fill="none"
         stroke="#00b9d2"
         stroke-width="2.75"
         stroke-linecap="round"
         stroke-linejoin="round"
         stroke-miterlimit="10"
         d="m 540.122,145.679 c 0.011,-3.999 -2.748,-7.544 -6.628,-8.515 -5.523,-1.388 -10.88,2.744 -10.94,8.439 -0.039,5.759 5.354,9.994 10.94,8.591 3.88,-0.972 6.639,-4.516 6.628,-8.515 z"
         id="path37637"
         style="stroke:#80ffe6;stroke-opacity:1" />
      <path
         fill="none"
         stroke="#00b9d2"
         stroke-width="2.75"
         stroke-linecap="round"
         stroke-linejoin="round"
         stroke-miterlimit="10"
         d="m 538.639,180.665 c 0.01,-3.322 -2.286,-6.272 -5.509,-7.077 -4.588,-1.155 -9.045,2.283 -9.093,7.014 -0.034,4.785 4.453,8.308 9.093,7.141 3.223,-0.806 5.519,-3.756 5.509,-7.078 z"
         id="path37640"
         style="stroke:#80ffe6;stroke-opacity:1" />
      <polygon
         fill="none"
         stroke="#00b9d2"
         stroke-width="2.75"
         stroke-linecap="round"
         stroke-linejoin="round"
         stroke-miterlimit="10"
         points="519.89,196.492 519.673,196.361 519.459,196.226 519.247,196.088 519.038,195.946 518.831,195.801 518.627,195.652 518.425,195.499 518.226,195.343 518.03,195.184 517.836,195.021 517.646,194.855 517.458,194.686 517.273,194.514 517.091,194.338 516.912,194.159 516.737,193.977 516.564,193.792 516.395,193.605 516.229,193.414 516.066,193.22 515.907,193.024 515.751,192.825 515.598,192.623 515.449,192.419 515.304,192.212 515.162,192.003 515.024,191.791 514.89,191.577 514.759,191.361 514.632,191.142 514.508,190.921 514.389,190.699 514.273,190.474 514.162,190.247 514.054,190.018 513.95,189.788 513.851,189.555 513.755,189.321 513.663,189.086 513.575,188.848 513.492,188.61 513.413,188.37 513.337,188.128 513.266,187.886 513.199,187.642 513.137,187.397 513.078,187.151 513.024,186.904 512.974,186.656 512.929,186.407 512.888,186.158 512.851,185.908 512.818,185.657 512.79,185.406 512.766,185.154 512.746,184.902 512.731,184.65 512.72,184.397 512.713,184.144 512.711,183.892 512.711,141.823 512.713,141.57 512.72,141.317 512.731,141.064 512.746,140.812 512.766,140.56 512.79,140.308 512.818,140.057 512.851,139.806 512.888,139.556 512.929,139.307 512.974,139.058 513.024,138.81 513.078,138.563 513.137,138.317 513.199,138.072 513.266,137.828 513.337,137.586 513.413,137.344 513.492,137.104 513.575,136.866 513.663,136.629 513.755,136.393 513.851,136.159 513.95,135.927 514.054,135.696 514.162,135.467 514.273,135.24 514.389,135.016 514.508,134.793 514.632,134.572 514.759,134.353 514.89,134.137 515.024,133.923 515.162,133.711 515.304,133.502 515.449,133.295 515.598,133.091 515.751,132.889 515.907,132.69 516.066,132.494 516.229,132.3 516.395,132.109 516.564,131.922 516.737,131.737 516.912,131.555 517.091,131.376 517.273,131.201 517.458,131.028 517.646,130.859 517.836,130.693 518.03,130.53 518.226,130.371 518.425,130.215 518.627,130.062 518.831,129.913 519.038,129.768 519.247,129.626 519.459,129.488 519.673,129.353 519.89,129.223 520.108,129.096 520.329,128.972 520.552,128.853 520.777,128.737 521.003,128.626 521.232,128.518 521.463,128.414 521.695,128.314 521.929,128.219 522.165,128.127 522.402,128.039 522.641,127.956 522.881,127.876 523.122,127.801 523.365,127.73 523.608,127.663 523.853,127.601 524.099,127.542 524.346,127.488 524.594,127.438 524.843,127.393 525.092,127.351 525.342,127.315 525.593,127.282 525.844,127.254 526.096,127.23 526.348,127.21 526.601,127.195 526.853,127.184 527.106,127.177 527.359,127.175 535.317,127.175 535.57,127.177 535.823,127.184 536.075,127.195 536.328,127.21 536.58,127.23 536.832,127.254 537.083,127.282 537.333,127.315 537.584,127.351 537.833,127.393 538.082,127.438 538.33,127.488 538.577,127.542 538.823,127.601 539.068,127.663 539.311,127.73 539.554,127.801 539.795,127.876 540.035,127.956 540.274,128.039 540.511,128.127 540.747,128.219 540.981,128.314 541.213,128.414 541.444,128.518 541.673,128.626 541.899,128.737 542.124,128.853 542.347,128.972 542.568,129.096 542.786,129.223 543.003,129.353 543.217,129.488 543.429,129.626 543.638,129.768 543.845,129.913 544.049,130.062 544.251,130.215 544.45,130.371 544.646,130.53 544.84,130.693 545.03,130.859 545.218,131.028 545.403,131.201 545.585,131.376 545.764,131.555 545.939,131.737 546.112,131.922 546.281,132.109 546.447,132.3 546.61,132.494 546.769,132.69 546.925,132.889 547.078,133.091 547.227,133.295 547.372,133.502 547.514,133.711 547.652,133.923 547.786,134.137 547.917,134.353 548.044,134.572 548.168,134.793 548.287,135.016 548.403,135.24 548.514,135.467 548.622,135.696 548.726,135.927 548.825,136.159 548.921,136.393 549.013,136.629 549.101,136.866 549.184,137.104 549.263,137.344 549.339,137.586 549.41,137.828 549.477,138.072 549.539,138.317 549.597,138.563 549.652,138.81 549.701,139.058 549.747,139.307 549.788,139.556 549.825,139.806 549.858,140.057 549.886,140.308 549.91,140.56 549.93,140.812 549.945,141.064 549.956,141.317 549.963,141.57 549.965,141.823 549.965,183.892 549.963,184.144 549.956,184.397 549.945,184.65 549.93,184.902 549.91,185.154 549.886,185.406 549.858,185.657 549.825,185.908 549.788,186.158 549.747,186.407 549.701,186.656 549.652,186.904 549.597,187.151 549.539,187.397 549.477,187.642 549.41,187.886 549.339,188.128 549.263,188.37 549.184,188.61 549.101,188.848 549.013,189.086 548.921,189.321 548.825,189.555 548.726,189.788 548.622,190.018 548.514,190.247 548.403,190.474 548.287,190.699 548.168,190.921 548.044,191.142 547.917,191.361 547.786,191.577 547.652,191.791 547.514,192.003 547.372,192.212 547.227,192.419 547.078,192.623 546.925,192.825 546.769,193.024 546.61,193.22 546.447,193.414 546.281,193.605 546.112,193.792 545.939,193.977 545.764,194.159 545.585,194.338 545.403,194.514 545.218,194.686 545.03,194.855 544.84,195.021 544.646,195.184 544.45,195.343 544.251,195.499 544.049,195.652 543.845,195.801 543.638,195.946 543.429,196.088 543.217,196.226 543.003,196.361 542.786,196.492 542.568,196.619 542.347,196.742 542.124,196.861 541.899,196.977 541.673,197.088 541.444,197.196 541.213,197.3 540.981,197.4 540.747,197.496 540.511,197.587 540.274,197.675 540.035,197.758 539.795,197.838 539.554,197.913 539.311,197.984 539.068,198.051 538.823,198.113 538.577,198.172 538.33,198.226 538.082,198.276 537.833,198.321 537.584,198.363 537.333,198.4 537.083,198.432 536.832,198.461 536.58,198.485 536.328,198.504 536.075,198.519 535.823,198.53 535.57,198.537 535.317,198.539 527.359,198.539 527.106,198.537 526.853,198.53 526.601,198.519 526.348,198.504 526.096,198.485 525.844,198.461 525.593,198.432 525.342,198.4 525.092,198.363 524.843,198.321 524.594,198.276 524.346,198.226 524.099,198.172 523.853,198.113 523.608,198.051 523.365,197.984 523.122,197.913 522.881,197.838 522.641,197.758 522.402,197.675 522.165,197.587 521.929,197.496 521.695,197.4 521.463,197.3 521.232,197.196 521.003,197.088 520.777,196.977 520.552,196.861 520.329,196.742 520.108,196.619 "
         id="polygon37643"
         style="stroke:#80ffe6;stroke-opacity:1" />
      <rect
         x="481.82101"
         y="306.30701"
         fill="none"
         stroke="#00b9d2"
         stroke-width="2.75"
         stroke-linecap="round"
         stroke-linejoin="round"
         stroke-miterlimit="10"
         width="3.1099999"
         height="38.438999"
         id="rect37646"
         style="stroke:#80ffe6;stroke-opacity:1" />
      <rect
         x="481.82101"
         y="182.07401"
         fill="none"
         stroke="#00b9d2"
         stroke-width="2.75"
         stroke-linecap="round"
         stroke-linejoin="round"
         stroke-miterlimit="10"
         width="3.1099999"
         height="84.586998"
         id="rect37649"
         style="stroke:#80ffe6;stroke-opacity:1" />
      <polygon
         fill="none"
         stroke="#00b9d2"
         stroke-width="2.75"
         stroke-linecap="round"
         stroke-linejoin="round"
         stroke-miterlimit="10"
         points="502.411,696.215 501.884,695.896 501.362,695.569 500.847,695.232 500.337,694.887 499.833,694.533 499.336,694.17 498.845,693.799 498.36,693.419 497.882,693.031 497.411,692.635 496.947,692.231 496.489,691.818 496.039,691.398 495.596,690.97 495.161,690.535 494.733,690.092 494.313,689.642 493.901,689.185 493.497,688.72 493.1,688.249 492.712,687.771 492.333,687.286 491.961,686.795 491.599,686.298 491.244,685.794 490.899,685.284 490.563,684.769 490.235,684.248 489.916,683.721 489.607,683.188 489.307,682.651 489.016,682.108 488.735,681.56 488.463,681.008 488.2,680.451 487.948,679.89 487.705,679.324 487.472,678.754 487.248,678.18 487.035,677.603 486.832,677.022 486.638,676.437 486.455,675.849 486.282,675.258 486.119,674.665 485.967,674.068 485.825,673.469 485.693,672.868 485.572,672.264 485.461,671.658 485.36,671.051 485.27,670.442 485.191,669.831 485.122,669.219 485.063,668.607 485.015,667.993 484.978,667.378 484.952,666.763 484.936,666.148 484.93,665.532 484.93,124.814 484.936,124.199 484.952,123.583 484.978,122.968 485.015,122.353 485.063,121.74 485.122,121.127 485.191,120.515 485.27,119.904 485.36,119.295 485.461,118.688 485.572,118.082 485.693,117.479 485.825,116.877 485.967,116.278 486.119,115.682 486.282,115.088 486.455,114.497 486.638,113.909 486.832,113.325 487.035,112.743 487.248,112.166 487.472,111.592 487.705,111.022 487.948,110.457 488.2,109.895 488.463,109.338 488.735,108.786 489.016,108.238 489.307,107.695 489.607,107.158 489.916,106.626 490.235,106.099 490.563,105.577 490.899,105.062 491.244,104.552 491.599,104.048 491.961,103.551 492.333,103.06 492.712,102.575 493.1,102.097 493.497,101.626 493.901,101.161 494.313,100.704 494.733,100.254 495.161,99.811 495.596,99.376 496.039,98.948 496.489,98.528 496.947,98.116 497.411,97.711 497.882,97.315 498.36,96.927 498.845,96.547 499.336,96.176 499.833,95.813 500.337,95.459 500.847,95.114 501.362,94.777 501.884,94.45 502.411,94.131 502.943,93.822 503.481,93.522 504.023,93.231 504.571,92.95 505.123,92.678 505.68,92.415 506.242,92.163 506.807,91.92 507.377,91.686 507.951,91.463 508.529,91.25 509.11,91.046 509.694,90.853 510.282,90.67 510.873,90.497 511.467,90.334 512.063,90.182 512.662,90.04 513.264,89.908 513.867,89.786 514.473,89.675 515.08,89.575 515.69,89.485 516.3,89.405 516.912,89.336 517.525,89.278 518.139,89.23 518.753,89.193 519.368,89.167 519.984,89.151 520.599,89.145 737.901,89.145 738.517,89.151 739.132,89.167 739.748,89.193 740.362,89.23 740.976,89.278 741.589,89.336 742.201,89.405 742.811,89.485 743.42,89.575 744.028,89.675 744.633,89.786 745.237,89.908 745.838,90.04 746.437,90.182 747.034,90.334 747.628,90.497 748.219,90.67 748.806,90.853 749.391,91.046 749.972,91.25 750.55,91.463 751.123,91.686 751.693,91.92 752.259,92.163 752.82,92.415 753.378,92.678 753.93,92.95 754.478,93.231 755.02,93.522 755.558,93.822 756.09,94.131 756.617,94.45 757.138,94.777 757.654,95.114 758.164,95.459 758.667,95.813 759.165,96.176 759.656,96.547 760.141,96.927 760.619,97.315 761.09,97.711 761.554,98.116 762.012,98.528 762.462,98.948 762.904,99.376 763.34,99.811 763.768,100.254 764.188,100.704 764.6,101.161 765.004,101.626 765.4,102.097 765.788,102.575 766.168,103.06 766.539,103.551 766.902,104.048 767.256,104.552 767.602,105.062 767.938,105.577 768.266,106.099 768.584,106.626 768.894,107.158 769.194,107.695 769.485,108.238 769.766,108.786 770.038,109.338 770.3,109.895 770.553,110.457 770.796,111.022 771.029,111.592 771.252,112.166 771.466,112.743 771.669,113.325 771.862,113.909 772.046,114.497 772.219,115.088 772.381,115.682 772.534,116.278 772.676,116.877 772.808,117.479 772.929,118.082 773.04,118.688 773.141,119.295 773.231,119.904 773.31,120.515 773.379,121.127 773.438,121.74 773.485,122.353 773.523,122.968 773.549,123.583 773.565,124.199 773.57,124.814 773.57,665.532 773.565,666.148 773.549,666.763 773.523,667.378 773.485,667.993 773.438,668.607 773.379,669.219 773.31,669.831 773.231,670.442 773.141,671.051 773.04,671.658 772.929,672.264 772.808,672.868 772.676,673.469 772.534,674.068 772.381,674.665 772.219,675.258 772.046,675.849 771.862,676.437 771.669,677.022 771.466,677.603 771.252,678.18 771.029,678.754 770.796,679.324 770.553,679.89 770.3,680.451 770.038,681.008 769.766,681.56 769.485,682.108 769.194,682.651 768.894,683.188 768.584,683.721 768.266,684.248 767.938,684.769 767.602,685.284 767.256,685.794 766.902,686.298 766.539,686.795 766.168,687.286 765.788,687.771 765.4,688.249 765.004,688.72 764.6,689.185 764.188,689.642 763.768,690.092 763.34,690.535 762.904,690.97 762.462,691.398 762.012,691.818 761.554,692.231 761.09,692.635 760.619,693.031 760.141,693.419 759.656,693.799 759.165,694.17 758.667,694.533 758.164,694.887 757.654,695.232 757.138,695.569 756.617,695.896 756.09,696.215 755.558,696.524 755.02,696.824 754.478,697.115 753.93,697.397 753.378,697.669 752.82,697.931 752.259,698.184 751.693,698.427 751.123,698.66 750.55,698.883 749.972,699.096 749.391,699.3 748.806,699.493 748.219,699.676 747.628,699.849 747.034,700.012 746.437,700.164 745.838,700.307 745.237,700.438 744.633,700.56 744.028,700.671 743.42,700.771 742.811,700.861 742.201,700.941 741.589,701.01 740.976,701.068 740.362,701.116 739.748,701.153 739.132,701.18 738.517,701.196 737.901,701.201 520.599,701.201 519.984,701.196 519.368,701.18 518.753,701.153 518.139,701.116 517.525,701.068 516.912,701.01 516.3,700.941 515.69,700.861 515.08,700.771 514.473,700.671 513.867,700.56 513.264,700.438 512.662,700.307 512.063,700.164 511.467,700.012 510.873,699.849 510.282,699.676 509.694,699.493 509.11,699.3 508.529,699.096 507.951,698.883 507.377,698.66 506.807,698.427 506.242,698.184 505.68,697.931 505.123,697.669 504.571,697.397 504.023,697.115 503.481,696.824 502.943,696.524 "
         id="polygon37652"
         style="stroke:#80ffe6;stroke-opacity:1" />
      <polygon
         fill="none"
         stroke="#00b9d2"
         stroke-width="3.25"
         stroke-linecap="round"
         stroke-linejoin="round"
         stroke-miterlimit="10"
         points="750.206,699.011 750.619,698.857 751.031,698.697 751.442,698.531 751.852,698.36 752.261,698.183 752.669,698 753.075,697.813 753.479,697.619 753.883,697.42 754.284,697.216 754.683,697.006 755.081,696.791 755.477,696.57 755.87,696.344 756.261,696.113 756.65,695.876 757.036,695.634 757.42,695.387 757.801,695.134 758.179,694.876 758.554,694.613 758.926,694.345 759.296,694.072 759.662,693.794 760.024,693.511 760.383,693.224 760.739,692.931 761.091,692.634 761.44,692.332 761.784,692.025 762.125,691.714 762.462,691.398 762.795,691.078 763.123,690.754 763.447,690.425 763.768,690.092 764.083,689.756 764.394,689.415 764.701,689.07 765.003,688.722 765.3,688.37 765.593,688.014 765.881,687.655 766.164,687.292 766.442,686.926 766.715,686.557 766.983,686.185 767.246,685.81 767.504,685.431 767.756,685.05 768.003,684.667 768.246,684.28 768.482,683.892 768.714,683.501 768.94,683.107 769.16,682.712 769.376,682.314 769.586,681.914 769.79,681.513 769.989,681.11 770.182,680.705 770.37,680.299 770.552,679.892 770.729,679.483 770.9,679.073 771.066,678.661 771.226,678.249 771.381,677.836 771.53,677.423 771.674,677.008 771.812,676.593 771.944,676.178 772.072,675.762 772.193,675.347 772.31,674.93 772.421,674.514 772.526,674.098 772.627,673.682 772.722,673.267 772.811,672.852 772.896,672.437 772.975,672.022 773.049,671.609 773.118,671.196 773.182,670.783 773.24,670.372 773.294,669.962 773.343,669.552 773.387,669.144 773.426,668.737 773.46,668.331 773.49,667.927 773.515,667.524 773.535,667.122 773.55,666.722 773.562,666.324 773.568,665.927 773.57,665.532 773.57,124.814 773.568,124.419 773.562,124.023 773.55,123.624 773.535,123.224 773.515,122.823 773.49,122.42 773.46,122.015 773.426,121.609 773.387,121.202 773.343,120.794 773.294,120.385 773.24,119.974 773.182,119.563 773.118,119.151 773.049,118.738 772.975,118.324 772.896,117.91 772.811,117.495 772.722,117.079 772.627,116.664 772.526,116.248 772.421,115.832 772.31,115.416 772.193,115 772.072,114.584 771.944,114.168 771.812,113.753 771.674,113.338 771.53,112.923 771.381,112.51 771.226,112.097 771.066,111.685 770.9,111.274 770.729,110.864 770.552,110.455 770.37,110.047 770.182,109.641 769.989,109.236 769.79,108.833 769.586,108.432 769.376,108.032 769.16,107.635 768.94,107.239 768.714,106.846 768.482,106.455 768.246,106.066 768.003,105.68 767.756,105.296 767.504,104.915 767.246,104.537 766.983,104.161 766.715,103.789 766.442,103.42 766.164,103.054 765.881,102.691 765.593,102.332 765.3,101.976 765.003,101.624 764.701,101.276 764.394,100.931 764.083,100.591 763.768,100.254 763.447,99.921 763.123,99.592 762.795,99.268 762.462,98.948 762.125,98.632 761.784,98.321 761.44,98.015 761.091,97.713 760.739,97.415 760.383,97.123 760.024,96.835 759.662,96.552 759.296,96.274 758.926,96.001 758.554,95.733 758.179,95.47 757.801,95.212 757.42,94.959 757.036,94.712 756.65,94.47 756.261,94.233 755.87,94.002 755.477,93.776 755.081,93.555 754.683,93.34 754.284,93.13 753.883,92.926 753.479,92.727 753.075,92.534 752.669,92.346 752.261,92.163 751.852,91.987 751.442,91.815 751.031,91.65 750.619,91.489 750.206,91.335 749.792,91.186 749.378,91.042 748.963,90.904 748.548,90.771 748.132,90.644 747.716,90.522 747.3,90.406 746.884,90.295 746.468,90.189 746.052,90.089 745.636,89.994 745.221,89.904 744.806,89.82 744.392,89.741 743.978,89.667 743.565,89.598 743.153,89.534 742.741,89.475 742.331,89.421 741.922,89.373 741.513,89.329 741.106,89.29 740.701,89.255 740.296,89.226 739.893,89.201 739.491,89.181 739.091,89.165 738.693,89.154 738.296,89.147 737.901,89.145 520.599,89.145 520.204,89.147 519.808,89.154 519.409,89.165 519.009,89.181 518.608,89.201 518.205,89.226 517.8,89.255 517.394,89.29 516.987,89.329 516.579,89.373 516.17,89.421 515.759,89.475 515.348,89.534 514.936,89.598 514.523,89.667 514.109,89.741 513.695,89.82 513.28,89.904 512.865,89.994 512.449,90.089 512.033,90.189 511.617,90.295 511.201,90.406 510.785,90.522 510.369,90.644 509.953,90.771 509.538,90.904 509.123,91.042 508.709,91.186 508.295,91.335 507.882,91.489 507.47,91.65 507.059,91.815 506.649,91.987 506.24,92.163 505.832,92.346 505.426,92.534 505.021,92.727 504.618,92.926 504.217,93.13 503.817,93.34 503.42,93.555 503.024,93.776 502.631,94.002 502.24,94.233 501.851,94.47 501.465,94.712 501.081,94.959 500.7,95.212 500.322,95.47 499.947,95.733 499.574,96.001 499.205,96.274 498.839,96.552 498.477,96.835 498.117,97.123 497.762,97.415 497.41,97.713 497.061,98.015 496.716,98.321 496.376,98.632 496.039,98.948 495.706,99.268 495.378,99.592 495.053,99.921 494.733,100.254 494.418,100.591 494.106,100.931 493.8,101.276 493.498,101.624 493.2,101.976 492.908,102.332 492.62,102.691 492.337,103.054 492.059,103.42 491.786,103.789 491.518,104.161 491.255,104.537 490.997,104.915 490.745,105.296 490.497,105.68 490.255,106.066 490.018,106.455 489.787,106.846 489.561,107.239 489.34,107.635 489.125,108.032 488.915,108.432 488.711,108.833 488.512,109.236 488.319,109.641 488.131,110.047 487.949,110.455 487.772,110.864 487.601,111.274 487.435,111.685 487.275,112.097 487.12,112.51 486.971,112.923 486.827,113.338 486.689,113.753 486.556,114.168 486.429,114.584 486.307,115 486.191,115.416 486.08,115.832 485.974,116.248 485.874,116.664 485.779,117.079 485.69,117.495 485.605,117.91 485.526,118.324 485.452,118.738 485.383,119.151 485.319,119.563 485.26,119.974 485.207,120.385 485.158,120.794 485.114,121.202 485.075,121.609 485.04,122.015 485.011,122.42 484.986,122.823 484.966,123.224 484.95,123.624 484.939,124.023 484.933,124.419 484.93,124.814 484.93,182.074 481.821,182.074 481.821,266.661 484.93,266.661 484.93,306.307 481.821,306.307 481.821,344.747 484.93,344.747 484.93,665.532 484.933,665.927 484.939,666.324 484.95,666.722 484.966,667.122 484.986,667.524 485.011,667.927 485.04,668.331 485.075,668.737 485.114,669.144 485.158,669.552 485.207,669.962 485.26,670.372 485.319,670.783 485.383,671.196 485.452,671.609 485.526,672.022 485.605,672.437 485.69,672.852 485.779,673.267 485.874,673.682 485.974,674.098 486.08,674.514 486.191,674.93 486.307,675.347 486.429,675.762 486.556,676.178 486.689,676.593 486.827,677.008 486.971,677.423 487.12,677.836 487.275,678.249 487.435,678.661 487.601,679.073 487.772,679.483 487.949,679.892 488.131,680.299 488.319,680.705 488.512,681.11 488.711,681.513 488.915,681.914 489.125,682.314 489.34,682.712 489.561,683.107 489.787,683.501 490.018,683.892 490.255,684.28 490.497,684.667 490.745,685.05 490.997,685.431 491.255,685.81 491.518,686.185 491.786,686.557 492.059,686.926 492.337,687.292 492.62,687.655 492.908,688.014 493.2,688.37 493.498,688.722 493.8,689.07 494.106,689.415 494.418,689.756 494.733,690.092 495.053,690.425 495.378,690.754 495.706,691.078 496.039,691.398 496.376,691.714 496.716,692.025 497.061,692.332 497.41,692.634 497.762,692.931 498.117,693.224 498.477,693.511 498.839,693.794 499.205,694.072 499.574,694.345 499.947,694.613 500.322,694.876 500.7,695.134 501.081,695.387 501.465,695.634 501.851,695.876 502.24,696.113 502.631,696.344 503.024,696.57 503.42,696.791 503.817,697.006 504.217,697.216 504.618,697.42 505.021,697.619 505.426,697.813 505.832,698 506.24,698.183 506.649,698.36 507.059,698.531 507.47,698.697 507.882,698.857 508.295,699.011 508.709,699.161 509.123,699.304 509.538,699.442 509.953,699.575 510.369,699.702 510.785,699.824 511.201,699.94 511.617,700.051 512.033,700.157 512.449,700.257 512.865,700.352 513.28,700.442 513.695,700.526 514.109,700.605 514.523,700.68 514.936,700.748 515.348,700.812 515.759,700.871 516.17,700.925 516.579,700.974 516.987,701.018 517.394,701.057 517.8,701.091 518.205,701.12 518.608,701.145 519.009,701.165 519.409,701.181 519.808,701.192 520.204,701.199 520.599,701.201 737.901,701.201 738.296,701.199 738.693,701.192 739.091,701.181 739.491,701.165 739.893,701.145 740.296,701.12 740.701,701.091 741.106,701.057 741.513,701.018 741.922,700.974 742.331,700.925 742.741,700.871 743.153,700.812 743.565,700.748 743.978,700.68 744.392,700.605 744.806,700.526 745.221,700.442 745.636,700.352 746.052,700.257 746.468,700.157 746.884,700.051 747.3,699.94 747.716,699.824 748.132,699.702 748.548,699.575 748.963,699.442 749.378,699.304 749.792,699.161 "
         id="polygon37677"
         style="stroke:#80ffe6;stroke-opacity:1" />
    </g>
  </g>
</svg>
