<?xml version="1.0" encoding="UTF-8" standalone="no"?>
<svg
   xmlns:dc="http://purl.org/dc/elements/1.1/"
   xmlns:cc="http://creativecommons.org/ns#"
   xmlns:rdf="http://www.w3.org/1999/02/22-rdf-syntax-ns#"
   xmlns:svg="http://www.w3.org/2000/svg"
   xmlns="http://www.w3.org/2000/svg"
   xmlns:sodipodi="http://sodipodi.sourceforge.net/DTD/sodipodi-0.dtd"
   xmlns:inkscape="http://www.inkscape.org/namespaces/inkscape"
   width="15mm"
   height="31.432005mm"
   viewBox="0 0 15.000001 31.432006"
   version="1.1"
   id="svg4830"
   inkscape:version="1.0.2 (e86c8708, 2021-01-15)"
   sodipodi:docname="a51.svg">
  <defs
     id="defs4824" />
  <sodipodi:namedview
     id="base"
     pagecolor="#ffffff"
     bordercolor="#666666"
     borderopacity="1.0"
     inkscape:pageopacity="0.0"
     inkscape:pageshadow="2"
     inkscape:zoom="3.8813991"
     inkscape:cx="13.792493"
     inkscape:cy="67.418506"
     inkscape:document-units="mm"
     inkscape:current-layer="layer1"
     inkscape:document-rotation="0"
     showgrid="false"
     inkscape:window-width="1440"
     inkscape:window-height="872"
     inkscape:window-x="0"
     inkscape:window-y="28"
     inkscape:window-maximized="0" />
  <metadata
     id="metadata4827">
    <rdf:RDF>
      <cc:Work
         rdf:about="">
        <dc:format>image/svg+xml</dc:format>
        <dc:type
           rdf:resource="http://purl.org/dc/dcmitype/StillImage" />
        <dc:title></dc:title>
      </cc:Work>
    </rdf:RDF>
  </metadata>
  <g
     inkscape:label="Layer 1"
     inkscape:groupmode="layer"
     id="layer1"
     transform="translate(-78.968967,-74.426937)">
    <g
       id="g36919"
       transform="matrix(0.19287634,0,0,0.19287634,24.374285,4.06842)">
      <g
         id="g36879"
         transform="matrix(0.26458333,0,0,0.26458333,156.43636,343.20674)"
         style="stroke:#80ffe6;stroke-opacity:1">
        <polygon
           fill="none"
           stroke="#00b9d2"
           stroke-width="2"
           stroke-linecap="round"
           stroke-linejoin="round"
           stroke-miterlimit="10"
           points="496.703,679.431 496.354,679.043 496.011,678.649 495.675,678.25 495.346,677.844 495.024,677.433 494.709,677.017 494.401,676.595 494.101,676.168 493.808,675.735 493.523,675.298 493.245,674.856 492.975,674.409 492.712,673.958 492.458,673.502 492.211,673.042 491.972,672.577 491.742,672.109 491.519,671.636 491.305,671.16 491.099,670.68 490.901,670.197 490.712,669.711 490.531,669.221 490.359,668.728 490.195,668.232 490.039,667.734 489.893,667.232 489.754,666.729 489.625,666.223 489.505,665.715 489.393,665.205 489.29,664.693 489.196,664.179 489.11,663.664 489.034,663.148 488.967,662.63 488.908,662.111 488.859,661.591 488.818,661.071 488.787,660.549 488.764,660.028 488.751,659.506 488.746,658.984 488.746,120.062 488.751,119.539 488.764,119.017 488.787,118.496 488.818,117.975 488.859,117.454 488.908,116.934 488.967,116.415 489.034,115.897 489.11,115.381 489.196,114.866 489.29,114.352 489.393,113.84 489.505,113.33 489.625,112.822 489.754,112.316 489.893,111.813 490.039,111.312 490.195,110.813 490.359,110.317 490.531,109.825 490.712,109.335 490.901,108.848 491.099,108.365 491.305,107.885 491.519,107.409 491.742,106.937 491.972,106.468 492.211,106.004 492.458,105.543 492.712,105.087 492.975,104.636 493.245,104.189 493.523,103.747 493.808,103.31 494.101,102.878 494.401,102.45 494.709,102.028 495.024,101.612 495.346,101.201 495.675,100.796 496.011,100.396 496.354,100.002 496.703,99.614 497.06,99.232 497.422,98.857 497.792,98.488 498.167,98.125 498.549,97.769 498.937,97.419 499.331,97.076 499.73,96.74 500.136,96.411 500.547,96.089 500.963,95.774 501.385,95.467 501.812,95.166 502.244,94.873 502.682,94.588 503.124,94.31 503.571,94.04 504.022,93.778 504.478,93.523 504.938,93.276 505.403,93.038 505.871,92.807 506.344,92.585 506.82,92.37 507.299,92.164 507.783,91.967 508.269,91.777 508.759,91.596 509.252,91.424 509.748,91.26 510.246,91.105 510.747,90.958 511.251,90.82 511.757,90.69 512.265,90.57 512.775,90.458 513.287,90.355 513.8,90.261 514.316,90.176 514.832,90.099 515.35,90.032 515.869,89.974 516.389,89.924 516.909,89.884 517.43,89.852 517.952,89.829 518.474,89.816 518.996,89.811 733.991,89.811 734.513,89.816 735.035,89.829 735.557,89.852 736.078,89.884 736.599,89.924 737.118,89.974 737.637,90.032 738.155,90.099 738.672,90.176 739.187,90.261 739.7,90.355 740.212,90.458 740.722,90.57 741.23,90.69 741.736,90.82 742.24,90.958 742.741,91.105 743.239,91.26 743.735,91.424 744.228,91.596 744.718,91.777 745.204,91.967 745.688,92.164 746.168,92.37 746.644,92.585 747.116,92.807 747.585,93.038 748.049,93.276 748.509,93.523 748.965,93.778 749.417,94.04 749.863,94.31 750.306,94.588 750.743,94.873 751.175,95.166 751.602,95.467 752.024,95.774 752.441,96.089 752.852,96.411 753.257,96.74 753.657,97.076 754.051,97.419 754.438,97.769 754.82,98.125 755.196,98.488 755.565,98.857 755.928,99.232 756.284,99.614 756.634,100.002 756.976,100.396 757.312,100.796 757.641,101.201 757.964,101.612 758.278,102.028 758.586,102.45 758.886,102.878 759.179,103.31 759.465,103.747 759.742,104.189 760.013,104.636 760.275,105.087 760.529,105.543 760.776,106.004 761.015,106.468 761.245,106.937 761.468,107.409 761.682,107.885 761.888,108.365 762.086,108.848 762.275,109.335 762.456,109.825 762.629,110.317 762.793,110.813 762.948,111.312 763.095,111.813 763.233,112.316 763.362,112.822 763.483,113.33 763.594,113.84 763.697,114.352 763.792,114.866 763.877,115.381 763.953,115.897 764.021,116.415 764.079,116.934 764.128,117.454 764.169,117.975 764.201,118.496 764.223,119.017 764.237,119.539 764.241,120.062 764.241,658.984 764.237,659.506 764.223,660.028 764.201,660.549 764.169,661.071 764.128,661.591 764.079,662.111 764.021,662.63 763.953,663.148 763.877,663.664 763.792,664.179 763.697,664.693 763.594,665.205 763.483,665.715 763.362,666.223 763.233,666.729 763.095,667.232 762.948,667.734 762.793,668.232 762.629,668.728 762.456,669.221 762.275,669.711 762.086,670.197 761.888,670.68 761.682,671.16 761.468,671.636 761.245,672.109 761.015,672.577 760.776,673.042 760.529,673.502 760.275,673.958 760.013,674.409 759.742,674.856 759.465,675.298 759.179,675.735 758.886,676.168 758.586,676.595 758.278,677.017 757.964,677.433 757.641,677.844 757.312,678.25 756.976,678.649 756.634,679.043 756.284,679.431 755.928,679.813 755.565,680.188 755.196,680.558 754.82,680.92 754.438,681.277 754.051,681.626 753.657,681.969 753.257,682.305 752.852,682.634 752.441,682.956 752.024,683.271 751.602,683.579 751.175,683.879 750.743,684.172 750.306,684.457 749.863,684.735 749.417,685.005 748.965,685.268 748.509,685.522 748.049,685.769 747.585,686.007 747.116,686.238 746.644,686.461 746.168,686.675 745.688,686.881 745.204,687.079 744.718,687.268 744.228,687.449 743.735,687.621 743.239,687.785 742.741,687.941 742.24,688.087 741.736,688.225 741.23,688.355 740.722,688.475 740.212,688.587 739.7,688.69 739.187,688.784 738.672,688.869 738.155,688.946 737.637,689.013 737.118,689.072 736.599,689.121 736.078,689.162 735.557,689.193 735.035,689.216 734.513,689.229 733.991,689.234 518.996,689.234 518.474,689.229 517.952,689.216 517.43,689.193 516.909,689.162 516.389,689.121 515.869,689.072 515.35,689.013 514.832,688.946 514.316,688.869 513.8,688.784 513.287,688.69 512.775,688.587 512.265,688.475 511.757,688.355 511.251,688.225 510.747,688.087 510.246,687.941 509.748,687.785 509.252,687.621 508.759,687.449 508.269,687.268 507.783,687.079 507.299,686.881 506.82,686.675 506.344,686.461 505.871,686.238 505.403,686.007 504.938,685.769 504.478,685.522 504.022,685.268 503.571,685.005 503.124,684.735 502.682,684.457 502.244,684.172 501.812,683.879 501.385,683.579 500.963,683.271 500.547,682.956 500.136,682.634 499.73,682.305 499.331,681.969 498.937,681.626 498.549,681.277 498.167,680.92 497.792,680.558 497.422,680.188 497.06,679.813 "
           id="polygon36877"
           style="stroke:#80ffe6;stroke-opacity:1" />
      </g>
      <g
         id="g36883"
         transform="matrix(0.26458333,0,0,0.26458333,156.43636,343.20674)"
         style="stroke:#80ffe6;stroke-opacity:1">
        <rect
           x="480.185"
           y="303.207"
           fill="none"
           stroke="#00b9d2"
           stroke-width="2.75"
           stroke-linecap="round"
           stroke-linejoin="round"
           stroke-miterlimit="10"
           width="1.933"
           height="36.987"
           id="rect36881"
           style="stroke:#80ffe6;stroke-opacity:1" />
      </g>
      <g
         id="g36887"
         transform="matrix(0.26458333,0,0,0.26458333,156.43636,343.20674)"
         style="stroke:#80ffe6;stroke-opacity:1">
        <rect
           x="480.185"
           y="180.886"
           fill="none"
           stroke="#00b9d2"
           stroke-width="2.75"
           stroke-linecap="round"
           stroke-linejoin="round"
           stroke-miterlimit="10"
           width="1.933"
           height="81.900002"
           id="rect36885"
           style="stroke:#80ffe6;stroke-opacity:1" />
      </g>
      <g
         id="g36891"
         transform="matrix(0.26458333,0,0,0.26458333,156.43636,343.20674)"
         style="stroke:#80ffe6;stroke-opacity:1">
        <polygon
           fill="none"
           stroke="#00b9d2"
           stroke-width="2.75"
           stroke-linecap="round"
           stroke-linejoin="round"
           stroke-miterlimit="10"
           points="491.819,683.911 491.392,683.439 490.974,682.958 490.565,682.471 490.164,681.977 489.771,681.476 489.387,680.968 489.012,680.454 488.646,679.933 488.289,679.406 487.941,678.873 487.602,678.334 487.273,677.789 486.953,677.239 486.643,676.683 486.342,676.122 486.051,675.556 485.77,674.985 485.499,674.409 485.238,673.828 484.986,673.243 484.745,672.654 484.514,672.061 484.294,671.464 484.084,670.863 483.884,670.259 483.694,669.651 483.515,669.04 483.347,668.426 483.19,667.809 483.043,667.19 482.906,666.568 482.781,665.944 482.666,665.318 482.562,664.69 482.469,664.06 482.387,663.429 482.316,662.796 482.255,662.163 482.206,661.528 482.167,660.893 482.14,660.257 482.123,659.62 482.118,658.984 482.118,120.062 482.123,119.425 482.14,118.789 482.167,118.153 482.206,117.517 482.255,116.883 482.316,116.249 482.387,115.616 482.469,114.985 482.562,114.355 482.666,113.727 482.781,113.101 482.906,112.477 483.043,111.855 483.19,111.236 483.347,110.619 483.515,110.005 483.694,109.394 483.884,108.787 484.084,108.182 484.294,107.581 484.514,106.984 484.745,106.391 484.986,105.802 485.238,105.217 485.499,104.637 485.77,104.061 486.051,103.49 486.342,102.923 486.643,102.362 486.953,101.806 487.273,101.256 487.602,100.711 487.941,100.172 488.289,99.639 488.646,99.112 489.012,98.592 489.387,98.077 489.771,97.569 490.164,97.068 490.565,96.574 490.974,96.087 491.392,95.607 491.819,95.134 492.253,94.668 492.695,94.211 493.145,93.761 493.603,93.318 494.069,92.884 494.541,92.458 495.021,92.04 495.509,91.63 496.003,91.229 496.504,90.836 497.012,90.452 497.526,90.077 498.047,89.711 498.574,89.354 499.107,89.006 499.646,88.668 500.191,88.338 500.741,88.018 501.297,87.708 501.858,87.407 502.424,87.116 502.995,86.835 503.571,86.564 504.152,86.303 504.737,86.052 505.326,85.811 505.919,85.58 506.516,85.359 507.117,85.149 507.721,84.949 508.329,84.76 508.94,84.581 509.554,84.413 510.171,84.255 510.79,84.108 511.412,83.972 512.036,83.846 512.662,83.731 513.29,83.627 513.92,83.534 514.551,83.452 515.184,83.381 515.817,83.32 516.452,83.271 517.087,83.233 517.723,83.205 518.36,83.189 518.996,83.183 733.991,83.183 734.628,83.189 735.264,83.205 735.9,83.233 736.535,83.271 737.17,83.32 737.804,83.381 738.436,83.452 739.068,83.534 739.697,83.627 740.325,83.731 740.951,83.846 741.575,83.972 742.197,84.108 742.817,84.255 743.433,84.413 744.047,84.581 744.658,84.76 745.266,84.949 745.87,85.149 746.471,85.359 747.068,85.58 747.661,85.811 748.251,86.052 748.836,86.303 749.416,86.564 749.992,86.835 750.563,87.116 751.129,87.407 751.69,87.708 752.246,88.018 752.797,88.338 753.341,88.668 753.88,89.006 754.413,89.354 754.94,89.711 755.461,90.077 755.975,90.452 756.483,90.836 756.984,91.229 757.479,91.63 757.966,92.04 758.446,92.458 758.919,92.884 759.384,93.318 759.842,93.761 760.292,94.211 760.734,94.668 761.169,95.134 761.595,95.607 762.013,96.087 762.422,96.574 762.824,97.068 763.216,97.569 763.6,98.077 763.975,98.592 764.341,99.112 764.698,99.639 765.046,100.172 765.385,100.711 765.714,101.256 766.034,101.806 766.344,102.362 766.645,102.923 766.936,103.49 767.217,104.061 767.488,104.637 767.75,105.217 768.001,105.802 768.242,106.391 768.473,106.984 768.693,107.581 768.904,108.182 769.104,108.787 769.293,109.394 769.472,110.005 769.64,110.619 769.798,111.236 769.945,111.855 770.081,112.477 770.207,113.101 770.321,113.727 770.425,114.355 770.518,114.985 770.6,115.616 770.672,116.249 770.732,116.883 770.781,117.517 770.82,118.153 770.847,118.789 770.864,119.425 770.869,120.062 770.869,658.984 770.864,659.62 770.847,660.257 770.82,660.893 770.781,661.528 770.732,662.163 770.672,662.796 770.6,663.429 770.518,664.06 770.425,664.69 770.321,665.318 770.207,665.944 770.081,666.568 769.945,667.19 769.798,667.809 769.64,668.426 769.472,669.04 769.293,669.651 769.104,670.259 768.904,670.863 768.693,671.464 768.473,672.061 768.242,672.654 768.001,673.243 767.75,673.828 767.488,674.409 767.217,674.985 766.936,675.556 766.645,676.122 766.344,676.683 766.034,677.239 765.714,677.789 765.385,678.334 765.046,678.873 764.698,679.406 764.341,679.933 763.975,680.454 763.6,680.968 763.216,681.476 762.824,681.977 762.422,682.471 762.013,682.958 761.595,683.439 761.169,683.911 760.734,684.377 760.292,684.835 759.842,685.285 759.384,685.727 758.919,686.161 758.446,686.588 757.966,687.005 757.479,687.415 756.984,687.816 756.483,688.209 755.975,688.593 755.461,688.968 754.94,689.334 754.413,689.691 753.88,690.039 753.341,690.378 752.797,690.707 752.246,691.027 751.69,691.337 751.129,691.638 750.563,691.929 749.992,692.21 749.416,692.481 748.836,692.742 748.251,692.994 747.661,693.235 747.068,693.466 746.471,693.686 745.87,693.896 745.266,694.096 744.658,694.286 744.047,694.464 743.433,694.633 742.817,694.79 742.197,694.937 741.575,695.074 740.951,695.199 740.325,695.314 739.697,695.418 739.068,695.511 738.436,695.593 737.804,695.664 737.17,695.725 736.535,695.774 735.9,695.813 735.264,695.84 734.628,695.857 733.991,695.862 518.996,695.862 518.36,695.857 517.723,695.84 517.087,695.813 516.452,695.774 515.817,695.725 515.184,695.664 514.551,695.593 513.92,695.511 513.29,695.418 512.662,695.314 512.036,695.199 511.412,695.074 510.79,694.937 510.171,694.79 509.554,694.633 508.94,694.464 508.329,694.286 507.721,694.096 507.117,693.896 506.516,693.686 505.919,693.466 505.326,693.235 504.737,692.994 504.152,692.742 503.571,692.481 502.995,692.21 502.424,691.929 501.858,691.638 501.297,691.337 500.741,691.027 500.191,690.707 499.646,690.378 499.107,690.039 498.574,689.691 498.047,689.334 497.526,688.968 497.012,688.593 496.504,688.209 496.003,687.816 495.509,687.415 495.021,687.005 494.541,686.588 494.069,686.161 493.603,685.727 493.145,685.285 492.695,684.835 492.253,684.377 "
           id="polygon36889"
           style="stroke:#80ffe6;stroke-opacity:1" />
      </g>
      <g
         id="g36895"
         transform="matrix(0.26458333,0,0,0.26458333,164.99773,324.78904)"
         style="stroke:#80ffe6;stroke-opacity:1">
        <polygon
           fill="none"
           stroke="#00b9d2"
           stroke-width="2.75"
           stroke-linecap="round"
           stroke-linejoin="round"
           stroke-miterlimit="10"
           points="523.318,242.726 523.257,242.65 523.197,242.574 523.138,242.496 523.081,242.418 523.025,242.338 522.971,242.258 522.918,242.176 522.866,242.094 522.816,242.011 522.767,241.927 522.719,241.842 522.673,241.756 522.629,241.67 522.586,241.583 522.545,241.495 522.505,241.406 522.466,241.317 522.43,241.227 522.394,241.136 522.361,241.045 522.329,240.954 522.298,240.861 522.269,240.768 522.242,240.675 522.216,240.581 522.192,240.487 522.17,240.393 522.149,240.298 522.13,240.203 522.112,240.107 522.096,240.011 522.082,239.915 522.07,239.819 522.059,239.722 522.05,239.625 522.042,239.528 522.036,239.431 522.032,239.334 522.029,239.237 522.029,239.14 522.029,235.224 522.029,235.126 522.032,235.029 522.036,234.932 522.042,234.835 522.05,234.738 522.059,234.642 522.07,234.545 522.082,234.449 522.096,234.352 522.112,234.257 522.13,234.161 522.149,234.066 522.17,233.971 522.192,233.876 522.216,233.782 522.242,233.688 522.269,233.595 522.298,233.502 522.329,233.41 522.361,233.318 522.394,233.227 522.43,233.137 522.466,233.047 522.505,232.957 522.545,232.869 522.586,232.781 522.629,232.694 522.673,232.607 522.719,232.522 522.767,232.437 522.816,232.353 522.866,232.27 522.918,232.187 522.971,232.106 523.025,232.025 523.081,231.946 523.138,231.867 523.197,231.79 523.257,231.713 523.318,231.638 523.381,231.564 523.444,231.49 523.51,231.418 523.576,231.347 523.643,231.277 523.712,231.208 523.782,231.141 523.853,231.075 523.925,231.01 523.998,230.946 524.073,230.883 524.148,230.822 524.225,230.762 524.302,230.703 524.381,230.646 524.46,230.59 524.541,230.536 524.622,230.483 524.704,230.431 524.788,230.381 524.872,230.332 524.956,230.285 525.042,230.239 525.129,230.194 525.216,230.151 525.304,230.11 525.392,230.07 525.482,230.032 525.572,229.995 525.662,229.96 525.753,229.926 525.845,229.894 525.937,229.863 526.03,229.834 526.123,229.807 526.217,229.781 526.311,229.757 526.406,229.735 526.501,229.714 526.596,229.695 526.691,229.677 526.787,229.662 526.883,229.647 526.98,229.635 527.076,229.624 527.173,229.615 527.27,229.607 527.367,229.601 527.464,229.597 527.561,229.595 527.658,229.594 531.391,229.594 531.488,229.595 531.586,229.597 531.683,229.601 531.78,229.607 531.877,229.615 531.973,229.624 532.07,229.635 532.166,229.647 532.262,229.662 532.358,229.677 532.454,229.695 532.549,229.714 532.644,229.735 532.739,229.757 532.833,229.781 532.926,229.807 533.02,229.834 533.112,229.863 533.205,229.894 533.297,229.926 533.388,229.96 533.478,229.995 533.568,230.032 533.657,230.07 533.746,230.11 533.834,230.151 533.921,230.194 534.008,230.239 534.093,230.285 534.178,230.332 534.262,230.381 534.345,230.431 534.428,230.483 534.509,230.536 534.589,230.59 534.669,230.646 534.747,230.703 534.825,230.762 534.901,230.822 534.977,230.883 535.051,230.946 535.125,231.01 535.197,231.075 535.268,231.141 535.338,231.208 535.406,231.277 535.474,231.347 535.54,231.418 535.605,231.49 535.669,231.564 535.732,231.638 535.793,231.713 535.853,231.79 535.911,231.867 535.969,231.946 536.025,232.025 536.079,232.106 536.132,232.187 536.184,232.27 536.234,232.353 536.283,232.437 536.33,232.522 536.376,232.607 536.421,232.694 536.464,232.781 536.505,232.869 536.545,232.957 536.583,233.047 536.62,233.137 536.655,233.227 536.689,233.318 536.721,233.41 536.752,233.502 536.78,233.595 536.808,233.688 536.833,233.782 536.858,233.876 536.88,233.971 536.901,234.066 536.92,234.161 536.938,234.257 536.953,234.352 536.968,234.449 536.98,234.545 536.991,234.642 537,234.738 537.008,234.835 537.014,234.932 537.018,235.029 537.02,235.126 537.021,235.224 537.021,239.14 537.02,239.237 537.018,239.334 537.014,239.431 537.008,239.528 537,239.625 536.991,239.722 536.98,239.819 536.968,239.915 536.953,240.011 536.938,240.107 536.92,240.203 536.901,240.298 536.88,240.393 536.858,240.487 536.833,240.581 536.808,240.675 536.78,240.768 536.752,240.861 536.721,240.954 536.689,241.045 536.655,241.136 536.62,241.227 536.583,241.317 536.545,241.406 536.505,241.495 536.464,241.583 536.421,241.67 536.376,241.756 536.33,241.842 536.283,241.927 536.234,242.011 536.184,242.094 536.132,242.176 536.079,242.258 536.025,242.338 535.969,242.418 535.911,242.496 535.853,242.574 535.793,242.65 535.732,242.726 535.669,242.8 535.605,242.873 535.54,242.945 535.474,243.017 535.406,243.086 535.338,243.155 535.268,243.223 535.197,243.289 535.125,243.354 535.051,243.418 534.977,243.48 534.901,243.542 534.825,243.602 534.747,243.66 534.669,243.717 534.589,243.773 534.509,243.828 534.428,243.881 534.345,243.933 534.262,243.983 534.178,244.032 534.093,244.079 534.008,244.125 533.921,244.169 533.834,244.212 533.746,244.254 533.657,244.294 533.568,244.332 533.478,244.369 533.388,244.404 533.297,244.438 533.205,244.47 533.112,244.5 533.02,244.529 532.926,244.557 532.833,244.582 532.739,244.606 532.644,244.629 532.549,244.65 532.454,244.669 532.358,244.686 532.262,244.702 532.166,244.716 532.07,244.729 531.973,244.74 531.877,244.749 531.78,244.756 531.683,244.762 531.586,244.767 531.488,244.769 531.391,244.77 527.658,244.77 527.561,244.769 527.464,244.767 527.367,244.762 527.27,244.756 527.173,244.749 527.076,244.74 526.98,244.729 526.883,244.716 526.787,244.702 526.691,244.686 526.596,244.669 526.501,244.65 526.406,244.629 526.311,244.606 526.217,244.582 526.123,244.557 526.03,244.529 525.937,244.5 525.845,244.47 525.753,244.438 525.662,244.404 525.572,244.369 525.482,244.332 525.392,244.294 525.304,244.254 525.216,244.212 525.129,244.169 525.042,244.125 524.956,244.079 524.872,244.032 524.788,243.983 524.704,243.933 524.622,243.881 524.541,243.828 524.46,243.773 524.381,243.717 524.302,243.66 524.225,243.602 524.148,243.542 524.073,243.48 523.998,243.418 523.925,243.354 523.853,243.289 523.782,243.223 523.712,243.155 523.643,243.086 523.576,243.017 523.51,242.945 523.444,242.873 523.381,242.8 "
           id="polygon36893"
           style="stroke:#80ffe6;stroke-opacity:1" />
      </g>
      <g
         id="g36899"
         transform="matrix(0.26458333,0,0,0.26458333,156.43636,343.20674)"
         style="stroke:#80ffe6;stroke-opacity:1">
        <path
           fill="none"
           stroke="#00b9d2"
           stroke-width="2.75"
           stroke-linecap="round"
           stroke-linejoin="round"
           stroke-miterlimit="10"
           d="m 540.888,132.455 c 0.012,5.177 -3.552,9.756 -8.573,11.015 -7.148,1.795 -14.073,-3.547 -14.152,-10.916 -0.048,-7.452 6.924,-12.927 14.152,-11.114 5.021,1.259 8.585,5.838 8.573,11.015 z"
           id="path36897"
           style="stroke:#80ffe6;stroke-opacity:1" />
      </g>
      <g
         id="g36903"
         transform="matrix(0.26458333,0,0,0.26458333,156.43636,343.20674)"
         style="stroke:#80ffe6;stroke-opacity:1">
        <path
           fill="none"
           stroke="#00b9d2"
           stroke-width="2.75"
           stroke-linecap="round"
           stroke-linejoin="round"
           stroke-miterlimit="10"
           d="m 540.888,167.572 c 0.012,-5.177 -3.552,-9.756 -8.573,-11.015 -7.148,-1.795 -14.073,3.547 -14.152,10.916 -0.048,7.452 6.924,12.927 14.152,11.114 5.021,-1.259 8.585,-5.838 8.573,-11.015 z"
           id="path36901"
           style="stroke:#80ffe6;stroke-opacity:1" />
      </g>
      <g
         id="g36907"
         transform="matrix(0.26458333,0,0,0.26458333,156.43636,343.20674)"
         style="stroke:#80ffe6;stroke-opacity:1">
        <path
           fill="none"
           stroke="#00b9d2"
           stroke-width="2.75"
           stroke-linecap="round"
           stroke-linejoin="round"
           stroke-miterlimit="10"
           d="m 540.888,202.69 c 0.012,-5.177 -3.552,-9.756 -8.573,-11.015 -7.148,-1.795 -14.073,3.547 -14.152,10.916 -0.048,7.452 6.924,12.927 14.152,11.114 5.021,-1.259 8.585,-5.839 8.573,-11.015 z"
           id="path36905"
           style="stroke:#80ffe6;stroke-opacity:1" />
      </g>
      <g
         id="g36911"
         transform="matrix(0.26458333,0,0,0.26458333,156.43636,343.20674)"
         style="stroke:#80ffe6;stroke-opacity:1">
        <polygon
           fill="none"
           stroke="#00b9d2"
           stroke-width="3.25"
           stroke-linecap="round"
           stroke-linejoin="round"
           stroke-miterlimit="10"
           points="753.775,690.106 754.171,689.851 754.565,689.59 754.956,689.323 755.344,689.051 755.729,688.774 756.111,688.492 756.489,688.204 756.864,687.912 757.235,687.614 757.603,687.312 757.967,687.004 758.327,686.692 758.684,686.375 759.036,686.053 759.384,685.727 759.728,685.396 760.068,685.061 760.403,684.721 760.734,684.377 761.061,684.029 761.382,683.676 761.699,683.32 762.012,682.96 762.319,682.596 762.622,682.228 762.919,681.857 763.212,681.482 763.499,681.103 763.781,680.722 764.059,680.337 764.33,679.949 764.597,679.558 764.858,679.164 765.114,678.767 765.364,678.368 765.609,677.966 765.848,677.562 766.082,677.155 766.31,676.746 766.533,676.335 766.749,675.922 766.961,675.507 767.166,675.09 767.366,674.672 767.56,674.252 767.749,673.83 767.932,673.407 768.109,672.983 768.28,672.558 768.446,672.132 768.606,671.705 768.76,671.278 768.908,670.849 769.051,670.42 769.188,669.991 769.32,669.561 769.446,669.131 769.566,668.701 769.681,668.271 769.79,667.841 769.894,667.411 769.992,666.981 770.085,666.552 770.172,666.123 770.254,665.694 770.33,665.266 770.401,664.839 770.467,664.413 770.528,663.988 770.584,663.564 770.634,663.14 770.68,662.718 770.72,662.297 770.756,661.878 770.786,661.46 770.812,661.043 770.833,660.628 770.849,660.214 770.86,659.802 770.867,659.392 770.869,658.984 770.869,120.062 770.867,119.653 770.86,119.243 770.849,118.831 770.833,118.417 770.812,118.002 770.786,117.586 770.756,117.167 770.72,116.748 770.68,116.327 770.634,115.905 770.584,115.482 770.528,115.057 770.467,114.632 770.401,114.206 770.33,113.779 770.254,113.351 770.172,112.923 770.085,112.494 769.992,112.064 769.894,111.635 769.79,111.205 769.681,110.775 769.566,110.344 769.446,109.914 769.32,109.484 769.188,109.054 769.051,108.625 768.908,108.196 768.76,107.768 768.606,107.34 768.446,106.913 768.28,106.487 768.109,106.062 767.932,105.638 767.749,105.215 767.56,104.794 767.366,104.374 767.166,103.955 766.961,103.538 766.749,103.124 766.533,102.71 766.31,102.299 766.082,101.89 765.848,101.484 765.609,101.079 765.364,100.677 765.114,100.278 764.858,99.881 764.597,99.487 764.33,99.096 764.059,98.708 763.781,98.324 763.499,97.942 763.212,97.564 762.919,97.189 762.622,96.817 762.319,96.449 762.012,96.085 761.699,95.725 761.382,95.369 761.061,95.017 760.734,94.668 760.403,94.324 760.068,93.985 759.728,93.649 759.384,93.318 759.036,92.992 758.684,92.67 758.327,92.353 757.967,92.041 757.603,91.733 757.235,91.431 756.864,91.133 756.489,90.841 756.111,90.553 755.729,90.271 755.344,89.994 754.956,89.722 754.565,89.456 754.171,89.195 753.775,88.939 753.375,88.689 752.973,88.444 752.569,88.204 752.162,87.971 751.753,87.743 751.342,87.52 750.929,87.303 750.514,87.092 750.097,86.886 749.679,86.686 749.259,86.492 748.838,86.304 748.415,86.121 747.991,85.944 747.566,85.773 747.14,85.607 746.713,85.447 746.285,85.293 745.857,85.144 745.428,85.001 744.998,84.864 744.568,84.733 744.138,84.607 743.708,84.486 743.278,84.372 742.848,84.263 742.418,84.159 741.988,84.061 741.559,83.968 741.13,83.881 740.702,83.799 740.274,83.722 739.847,83.651 739.421,83.585 738.995,83.524 738.571,83.469 738.148,83.418 737.726,83.373 737.305,83.332 736.885,83.297 736.467,83.266 736.05,83.241 735.635,83.22 735.221,83.204 734.81,83.192 734.399,83.185 733.991,83.183 518.996,83.183 518.588,83.185 518.178,83.192 517.766,83.204 517.352,83.22 516.937,83.241 516.52,83.266 516.102,83.297 515.682,83.332 515.262,83.373 514.84,83.418 514.416,83.469 513.992,83.524 513.567,83.585 513.14,83.651 512.713,83.722 512.286,83.799 511.857,83.881 511.428,83.968 510.999,84.061 510.569,84.159 510.139,84.263 509.709,84.372 509.279,84.486 508.849,84.607 508.419,84.733 507.989,84.864 507.56,85.001 507.131,85.144 506.702,85.293 506.275,85.447 505.848,85.607 505.421,85.773 504.996,85.944 504.572,86.121 504.15,86.304 503.728,86.492 503.308,86.686 502.89,86.886 502.473,87.092 502.058,87.303 501.645,87.52 501.234,87.743 500.825,87.971 500.418,88.204 500.014,88.444 499.612,88.689 499.213,88.939 498.816,89.195 498.422,89.456 498.031,89.722 497.643,89.994 497.258,90.271 496.877,90.553 496.498,90.841 496.123,91.133 495.752,91.431 495.384,91.733 495.02,92.041 494.66,92.353 494.303,92.67 493.951,92.992 493.603,93.318 493.259,93.649 492.919,93.985 492.584,94.324 492.253,94.668 491.927,95.017 491.605,95.369 491.288,95.725 490.976,96.085 490.668,96.449 490.366,96.817 490.068,97.189 489.775,97.564 489.488,97.942 489.206,98.324 488.929,98.708 488.657,99.096 488.39,99.487 488.129,99.881 487.874,100.278 487.623,100.677 487.378,101.079 487.139,101.484 486.905,101.89 486.677,102.299 486.455,102.71 486.238,103.124 486.027,103.538 485.821,103.955 485.621,104.374 485.427,104.794 485.238,105.215 485.056,105.638 484.879,106.062 484.707,106.487 484.542,106.913 484.382,107.34 484.227,107.768 484.079,108.196 483.936,108.625 483.799,109.054 483.667,109.484 483.541,109.914 483.421,110.344 483.306,110.775 483.197,111.205 483.094,111.635 482.995,112.064 482.903,112.494 482.815,112.923 482.734,113.351 482.657,113.779 482.586,114.206 482.52,114.632 482.459,115.057 482.403,115.482 482.353,115.905 482.307,116.327 482.267,116.748 482.232,117.167 482.201,117.586 482.175,118.002 482.155,118.417 482.138,118.831 482.127,119.243 482.12,119.653 482.118,120.062 482.118,180.886 480.185,180.886 480.185,262.785 482.118,262.785 482.118,303.207 480.185,303.207 480.185,340.194 482.118,340.194 482.118,658.984 482.12,659.392 482.127,659.802 482.138,660.214 482.155,660.628 482.175,661.043 482.201,661.46 482.232,661.878 482.267,662.297 482.307,662.718 482.353,663.14 482.403,663.564 482.459,663.988 482.52,664.413 482.586,664.839 482.657,665.266 482.734,665.694 482.815,666.123 482.903,666.552 482.995,666.981 483.094,667.411 483.197,667.841 483.306,668.271 483.421,668.701 483.541,669.131 483.667,669.561 483.799,669.991 483.936,670.42 484.079,670.849 484.227,671.278 484.382,671.705 484.542,672.132 484.707,672.558 484.879,672.983 485.056,673.407 485.238,673.83 485.427,674.252 485.621,674.672 485.821,675.09 486.027,675.507 486.238,675.922 486.455,676.335 486.677,676.746 486.905,677.155 487.139,677.562 487.378,677.966 487.623,678.368 487.874,678.767 488.129,679.164 488.39,679.558 488.657,679.949 488.929,680.337 489.206,680.722 489.488,681.103 489.775,681.482 490.068,681.857 490.366,682.228 490.668,682.596 490.976,682.96 491.288,683.32 491.605,683.676 491.927,684.029 492.253,684.377 492.584,684.721 492.919,685.061 493.259,685.396 493.603,685.727 493.951,686.053 494.303,686.375 494.66,686.692 495.02,687.004 495.384,687.312 495.752,687.614 496.123,687.912 496.498,688.204 496.877,688.492 497.258,688.774 497.643,689.051 498.031,689.323 498.422,689.59 498.816,689.851 499.213,690.106 499.612,690.357 500.014,690.602 500.418,690.841 500.825,691.075 501.234,691.303 501.645,691.525 502.058,691.742 502.473,691.953 502.89,692.159 503.308,692.359 503.728,692.553 504.15,692.742 504.572,692.924 504.996,693.101 505.421,693.273 505.848,693.438 506.275,693.598 506.702,693.753 507.131,693.901 507.56,694.044 507.989,694.181 508.419,694.313 508.849,694.438 509.279,694.559 509.709,694.673 510.139,694.783 510.569,694.886 510.999,694.984 511.428,695.077 511.857,695.164 512.286,695.246 512.713,695.323 513.14,695.394 513.567,695.46 513.992,695.521 514.416,695.577 514.84,695.627 515.262,695.672 515.682,695.713 516.102,695.748 516.52,695.779 516.937,695.804 517.352,695.825 517.766,695.841 518.178,695.853 518.588,695.86 518.996,695.862 733.991,695.862 734.399,695.86 734.81,695.853 735.221,695.841 735.635,695.825 736.05,695.804 736.467,695.779 736.885,695.748 737.305,695.713 737.726,695.672 738.148,695.627 738.571,695.577 738.995,695.521 739.421,695.46 739.847,695.394 740.274,695.323 740.702,695.246 741.13,695.164 741.559,695.077 741.988,694.984 742.418,694.886 742.848,694.783 743.278,694.673 743.708,694.559 744.138,694.438 744.568,694.313 744.998,694.181 745.428,694.044 745.857,693.901 746.285,693.753 746.713,693.598 747.14,693.438 747.566,693.273 747.991,693.101 748.415,692.924 748.838,692.742 749.259,692.553 749.679,692.359 750.097,692.159 750.514,691.953 750.929,691.742 751.342,691.525 751.753,691.303 752.162,691.075 752.569,690.841 752.973,690.602 753.375,690.357 "
           id="polygon36909"
           style="stroke:#80ffe6;stroke-opacity:1" />
      </g>
      <rect
         style="opacity:1;fill:none;fill-opacity:1;stroke:#80ffe6;stroke-width:0.928;stroke-linecap:round;stroke-miterlimit:10;stroke-dasharray:none;stroke-opacity:1;paint-order:stroke fill markers"
         id="rect36913"
         width="18.254089"
         height="28.425108"
         x="291.97412"
         y="373.42038"
         ry="4.0987983" />
      <g
         id="g36917"
         transform="matrix(0.26458333,0,0,0.26458333,164.99763,343.20674)"
         style="stroke:#80ffe6;stroke-opacity:1">
        <path
           fill="none"
           stroke="#00b9d2"
           stroke-width="2.75"
           stroke-linecap="round"
           stroke-linejoin="round"
           stroke-miterlimit="10"
           d="m 540.888,202.69 c 0.012,-5.177 -3.552,-9.756 -8.573,-11.015 -7.148,-1.795 -14.073,3.547 -14.152,10.916 -0.048,7.452 6.924,12.927 14.152,11.114 5.021,-1.259 8.585,-5.839 8.573,-11.015 z"
           id="path36915"
           style="stroke:#80ffe6;stroke-opacity:1" />
      </g>
    </g>
  </g>
</svg>
