<?xml version="1.0" encoding="UTF-8" standalone="no"?>
<svg
   xmlns:dc="http://purl.org/dc/elements/1.1/"
   xmlns:cc="http://creativecommons.org/ns#"
   xmlns:rdf="http://www.w3.org/1999/02/22-rdf-syntax-ns#"
   xmlns:svg="http://www.w3.org/2000/svg"
   xmlns="http://www.w3.org/2000/svg"
   xmlns:sodipodi="http://sodipodi.sourceforge.net/DTD/sodipodi-0.dtd"
   xmlns:inkscape="http://www.inkscape.org/namespaces/inkscape"
   width="15.072898mm"
   height="30.083092mm"
   viewBox="0 0 15.072898 30.083092"
   version="1.1"
   id="svg4830"
   inkscape:version="1.0.2 (e86c8708, 2021-01-15)"
   sodipodi:docname="Ip11ProMax.svg">
  <defs
     id="defs4824" />
  <sodipodi:namedview
     id="base"
     pagecolor="#ffffff"
     bordercolor="#666666"
     borderopacity="1.0"
     inkscape:pageopacity="0.0"
     inkscape:pageshadow="2"
     inkscape:zoom="4.255072"
     inkscape:cx="26.494572"
     inkscape:cy="63.023636"
     inkscape:document-units="mm"
     inkscape:current-layer="layer1"
     inkscape:document-rotation="0"
     showgrid="false"
     inkscape:window-width="1440"
     inkscape:window-height="872"
     inkscape:window-x="0"
     inkscape:window-y="28"
     inkscape:window-maximized="0" />
  <metadata
     id="metadata4827">
    <rdf:RDF>
      <cc:Work
         rdf:about="">
        <dc:format>image/svg+xml</dc:format>
        <dc:type
           rdf:resource="http://purl.org/dc/dcmitype/StillImage" />
        <dc:title></dc:title>
      </cc:Work>
    </rdf:RDF>
  </metadata>
  <g
     inkscape:label="Layer 1"
     inkscape:groupmode="layer"
     id="layer1"
     transform="translate(-46.892126,-160.3394)">
    <g
       id="g11349"
       style="stroke:#80ffe6;stroke-opacity:1"
       transform="matrix(0.16428956,0,0,0.16428956,25.98875,163.07362)">
      <path
         fill="none"
         stroke="#00b9d2"
         stroke-width="0.529167"
         stroke-linecap="round"
         stroke-linejoin="round"
         stroke-miterlimit="10"
         d="m 216.52045,152.74464 c -0.0175,2.03729 -0.52546,4.04495 -1.533,5.82084 -0.99774,1.75815 -2.44131,3.24723 -4.17168,4.29339 -1.7235,1.04193 -3.7084,1.63168 -5.72135,1.69836 -0.64479,0.0214 -1.29196,0.007 -1.93675,0.007 -1.52691,0 -3.05356,0 -4.58047,0 -2.29367,0 -4.58708,0 -6.88075,0 -2.81252,0 -5.62531,0 -8.43783,0 -3.09272,0 -6.18569,0 -9.27841,0 -3.116,0 -6.23173,0 -9.34773,0 -2.88158,0 -5.76342,0 -8.64499,0 -2.40851,0 -4.81701,0 -7.22551,0 -1.68751,0 -3.37529,0 -5.0628,0 -0.71914,0 -1.43828,0.002 -2.15715,0 -1.78303,-0.006 -3.54833,-0.39608 -5.15646,-1.17051 -1.82907,-0.8808 -3.42292,-2.23758 -4.57915,-3.90684 -1.1512,-1.66185 -1.86637,-3.60839 -2.05793,-5.62134 -0.0513,-0.53763 -0.0537,-1.07447 -0.0537,-1.61343 0,-0.62891 0,-1.25783 0,-1.88648 0,-1.06124 0,-2.12248 0,-3.18373 0,-1.45282 0,-2.90539 0,-4.35821 0,-1.8034 0,-3.6068 0,-5.4102 0,-2.11323 0,-4.22646 0,-6.33942 0,-2.39607 0,-4.7924 0,-7.18846 0,-2.61144 0,-5.22261 0,-7.83405 0,-2.79824 0,-5.59647 0,-8.39497 0,-2.94428 0,-5.88883 0,-8.833111 0,-3.049588 0,-6.099175 0,-9.149027 0,-3.114146 0,-6.228027 0,-9.342173 0,-3.137429 0,-6.275123 0,-9.412817 0,-3.128962 0,-6.257924 0,-9.386887 0,-3.070225 0,-6.140714 0,-9.210939 0,-2.962275 0,-5.92455 0,-8.886825 0,-2.822046 0,-5.644356 0,-8.466402 0,-2.641071 0,-5.282406 0,-7.923477 0,-2.41935 0,-4.8387 0,-7.257786 0,-2.156618 0,-4.313237 0,-6.469856 0,-1.857639 0,-3.7155434 0,-5.573183 0,-1.5113 0,-3.0223354 0,-4.5336354 0,-1.1210395 0,-2.24181451 0,-3.36285407 0,-0.69453125 0,-1.38906253 0,-2.08359373 0,-0.3005667 -0.003,-0.6016625 0.002,-0.9022292 0.0381,-2.0327937 0.60801,-4.0441562 1.64227,-5.7946395 1.02446,-1.7340791 2.49449,-3.1921981 4.23571,-4.2042291 1.74837,-1.016 3.7473,-1.567921 5.76871,-1.599406 0.61357,-0.0095 1.22793,-0.0016 1.8415,-0.0016 1.56157,0 3.12314,0 4.68471,0 2.31855,0 4.63736,0 6.9559,0 2.82787,0 5.656,0 8.48386,0 3.08954,0 6.17935,0 9.26889,0 3.10356,0 6.20712,0 9.31069,0 2.87734,0 5.75442,0 8.63176,0 2.39236,0 4.78473,0 7.17709,0 1.65417,0 3.30835,0 4.96279,0 0.67601,0 1.35176,-0.0024 2.02777,0 1.85076,0.0066 3.68405,0.432594 5.3377,1.267354 1.81504,0.916253 3.37979,2.302405 4.50824,3.9938858 1.11786,1.6753417 1.79387,3.6324645 1.94997,5.6403874 0.0376,0.4839229 0.036,0.9667875 0.036,1.4515042 0,0.6490229 0,1.2980458 0,1.94680413 0,1.07738332 0,2.15476667 0,3.23214997 0,1.4673791 0,2.9344937 0,4.4018728 0,1.8163646 0,3.6327287 0,5.4490937 0,2.124604 0,4.248944 0,6.373548 0,2.391833 0,4.783666 0,7.1755 0,2.618316 0,5.236633 0,7.85495 0,2.811991 0,5.623983 0,8.435975 0,2.957512 0,5.91476 0,8.872272 0,3.053027 0,6.10579 0,9.158817 0,3.115733 0,6.231467 0,9.3472 0,3.137694 0,6.275387 0,9.413081 0,3.118644 0,6.237552 0,9.356196 0,3.058848 0,6.11796 0,9.176808 0,2.966511 0,5.932751 0,8.899261 0,2.8239 0,5.6478 0,8.47196 0,2.63313 0,5.26653 0,7.89966 0,2.40983 0,4.81939 0,7.22921 0,2.14551 0,4.29075 0,6.43626 0,1.84018 0,3.68035 0,5.52053 0,1.4941 0,2.9882 0,4.48257 0,1.10966 0,2.21959 0,3.32925 0,0.67945 0,1.3589 0,2.03835 0,0.20929 0,0.4191 0,0.62865 z"
         id="path10015"
         style="stroke:#80ffe6;stroke-opacity:1" />
      <line
         fill="none"
         stroke="#00b9d2"
         stroke-width="0.529167"
         stroke-linecap="round"
         stroke-linejoin="round"
         stroke-miterlimit="10"
         x1="217.9619"
         y1="147.36354"
         x2="216.52045"
         y2="147.36354"
         id="line10018"
         style="stroke:#80ffe6;stroke-opacity:1" />
      <line
         fill="none"
         stroke="#00b9d2"
         stroke-width="0.529167"
         stroke-linecap="round"
         stroke-linejoin="round"
         stroke-miterlimit="10"
         x1="217.9619"
         y1="148.97247"
         x2="216.52045"
         y2="148.97247"
         id="line10021"
         style="stroke:#80ffe6;stroke-opacity:1" />
      <line
         fill="none"
         stroke="#00b9d2"
         stroke-width="0.529167"
         stroke-linecap="round"
         stroke-linejoin="round"
         stroke-miterlimit="10"
         x1="200.92935"
         y1="166.00502"
         x2="200.92935"
         y2="164.56357"
         id="line10024"
         style="stroke:#80ffe6;stroke-opacity:1" />
      <line
         fill="none"
         stroke="#00b9d2"
         stroke-width="0.529167"
         stroke-linecap="round"
         stroke-linejoin="round"
         stroke-miterlimit="10"
         x1="199.32042"
         y1="166.00502"
         x2="199.32042"
         y2="164.56357"
         id="line10027"
         style="stroke:#80ffe6;stroke-opacity:1" />
      <line
         fill="none"
         stroke="#00b9d2"
         stroke-width="0.529167"
         stroke-linecap="round"
         stroke-linejoin="round"
         stroke-miterlimit="10"
         x1="128.25333"
         y1="148.97247"
         x2="129.69452"
         y2="148.97247"
         id="line10030"
         style="stroke:#80ffe6;stroke-opacity:1" />
      <line
         fill="none"
         stroke="#00b9d2"
         stroke-width="0.529167"
         stroke-linecap="round"
         stroke-linejoin="round"
         stroke-miterlimit="10"
         x1="128.25333"
         y1="147.36354"
         x2="129.69452"
         y2="147.36354"
         id="line10033"
         style="stroke:#80ffe6;stroke-opacity:1" />
      <line
         fill="none"
         stroke="#00b9d2"
         stroke-width="0.529167"
         stroke-linecap="round"
         stroke-linejoin="round"
         stroke-miterlimit="10"
         x1="217.9619"
         y1="3.1230342"
         x2="216.52045"
         y2="3.1230342"
         id="line10036"
         style="stroke:#80ffe6;stroke-opacity:1" />
      <line
         fill="none"
         stroke="#00b9d2"
         stroke-width="0.529167"
         stroke-linecap="round"
         stroke-linejoin="round"
         stroke-miterlimit="10"
         x1="217.9619"
         y1="1.5141027"
         x2="216.52045"
         y2="1.5141027"
         id="line10039"
         style="stroke:#80ffe6;stroke-opacity:1" />
      <line
         fill="none"
         stroke="#00b9d2"
         stroke-width="0.529167"
         stroke-linecap="round"
         stroke-linejoin="round"
         stroke-miterlimit="10"
         x1="147.55576"
         y1="-16.179644"
         x2="147.55576"
         y2="-14.738194"
         id="line10042"
         style="stroke:#80ffe6;stroke-opacity:1" />
      <line
         fill="none"
         stroke="#00b9d2"
         stroke-width="0.529167"
         stroke-linecap="round"
         stroke-linejoin="round"
         stroke-miterlimit="10"
         x1="145.94681"
         y1="-16.179644"
         x2="145.94681"
         y2="-14.738194"
         id="line10045"
         style="stroke:#80ffe6;stroke-opacity:1" />
      <line
         fill="none"
         stroke="#00b9d2"
         stroke-width="0.529167"
         stroke-linecap="round"
         stroke-linejoin="round"
         stroke-miterlimit="10"
         x1="128.25333"
         y1="1.5141027"
         x2="129.69452"
         y2="1.5141027"
         id="line10048"
         style="stroke:#80ffe6;stroke-opacity:1" />
      <line
         fill="none"
         stroke="#00b9d2"
         stroke-width="0.529167"
         stroke-linecap="round"
         stroke-linejoin="round"
         stroke-miterlimit="10"
         x1="128.25333"
         y1="3.1230342"
         x2="129.69452"
         y2="3.1230342"
         id="line10051"
         style="stroke:#80ffe6;stroke-opacity:1" />
      <path
         fill="none"
         stroke="#00b9d2"
         stroke-width="0.529167"
         stroke-linecap="round"
         stroke-linejoin="round"
         stroke-miterlimit="10"
         d="m 156.01633,12.796465 c 1.01044,0.778139 2.25107,1.236133 3.52583,1.293812 1.28112,0.05794 2.5662,-0.28575 3.64649,-0.977106 1.08003,-0.691356 1.93066,-1.7145 2.41432,-2.902214 0.48075,-1.1805713 0.58658,-2.5013712 0.30136,-3.74359 -0.28522,-1.2424833 -0.95647,-2.3846895 -1.90394,-3.2374416 -0.95303,-0.8577792 -2.16482,-1.4078479 -3.43826,-1.558925 -1.2737,-0.1510771 -2.57995,0.1000125 -3.7076,0.7109354 -1.12078,0.6072188 -2.04074,1.5607771 -2.6088,2.701925 -0.56806,1.1411479 -0.77417,2.449777 -0.58314,3.710252 0.19209,1.2678832 0.77973,2.4616832 1.66794,3.3866662 0.21325,0.221721 0.44291,0.427038 0.6858,0.615686 z"
         id="path10054"
         style="stroke:#80ffe6;stroke-opacity:1" />
      <path
         fill="none"
         stroke="#00b9d2"
         stroke-width="0.529167"
         stroke-linecap="round"
         stroke-linejoin="round"
         stroke-miterlimit="10"
         d="m 139.21158,3.2637921 c 1.01044,0.7781395 2.25107,1.2361333 3.52584,1.2938124 1.28111,0.057944 2.56619,-0.2857499 3.64648,-0.9771062 1.08003,-0.6913562 1.93067,-1.7145 2.41433,-2.90221454 0.48075,-1.18057081 0.58658,-2.50137076 0.30136,-3.74358956 -0.28522,-1.2424833 -0.95647,-2.3846895 -1.90394,-3.2374416 -0.95303,-0.8577792 -2.16482,-1.4078479 -3.43826,-1.558925 -1.27371,-0.1510771 -2.57996,0.1000125 -3.70761,0.7109354 -1.12078,0.6072188 -2.04073,1.5607771 -2.60879,2.701925 -0.56806,1.1411479 -0.77417,2.449777 -0.58314,3.71025203 0.19208,1.26788332 0.77972,2.46168327 1.66793,3.38666667 0.055,0.056621 0.68659,0.6140979 0.6858,0.6156854 z"
         id="path10057"
         style="stroke:#80ffe6;stroke-opacity:1" />
      <path
         fill="none"
         stroke="#00b9d2"
         stroke-width="0.727604"
         stroke-linecap="round"
         stroke-linejoin="round"
         stroke-miterlimit="10"
         d="m 179.42798,72.292789 c -0.009,-1.318948 0.54028,-2.548731 1.47691,-3.468158 0.27119,-0.266171 0.56991,-0.506677 0.89402,-0.705115 -0.47731,-0.697177 -1.12474,-1.260475 -1.8833,-1.633008 -0.78952,-0.387879 -1.69757,-0.582348 -2.57757,-0.5588 -0.9533,0.0254 -1.837,0.406665 -2.71304,0.743744 -0.54716,0.210343 -1.00145,0.350837 -1.57136,0.18706 -0.96467,-0.277283 -1.84573,-0.808567 -2.86994,-0.858837 -0.92498,-0.04524 -1.87351,0.216429 -2.6752,0.669925 -0.86836,0.491066 -1.58803,1.222639 -2.08386,2.086504 -0.52149,0.908579 -0.79348,1.939925 -0.87974,2.979473 -0.0894,1.076325 0.0127,2.163233 0.23601,3.217862 0.22014,1.039283 0.56251,2.054754 1.00833,3.018631 0.47572,1.028171 1.09114,1.9812 1.79149,2.870465 0.46699,0.592931 1.00833,1.192212 1.70418,1.517385 0.54743,0.255852 1.13771,0.256646 1.7153,0.105569 0.51012,-0.13335 0.97578,-0.388144 1.47267,-0.5588 0.4744,-0.162983 0.97023,-0.239713 1.47161,-0.23204 0.47757,0.0071 0.94298,0.09975 1.38959,0.267759 0.46699,0.175948 0.91017,0.41566 1.39991,0.52705 0.53764,0.122237 1.1102,0.107421 1.62587,-0.0971 0.71199,-0.282575 1.25968,-0.861219 1.72455,-1.45124 0.68765,-0.872596 1.2962,-1.817952 1.7608,-2.828131 0.11087,-0.2413 0.21432,-0.48604 0.30957,-0.733954 0.0437,-0.113771 0.0857,-0.228071 0.12541,-0.343429 0.0204,-0.05953 0.068,-0.153194 0.0706,-0.214842 0.004,-0.101336 0.0217,-0.04551 -0.0574,-0.103717 -0.15716,-0.115623 -0.37121,-0.183885 -0.53949,-0.287866 -0.20002,-0.123561 -0.39184,-0.260615 -0.57361,-0.410105 -0.73025,-0.600075 -1.28244,-1.398587 -1.5502,-2.30796 -0.13441,-0.454025 -0.19711,-0.926042 -0.20214,-1.398323"
         id="path10060"
         style="stroke:#80ffe6;stroke-opacity:1" />
      <path
         fill="none"
         stroke="#00b9d2"
         stroke-width="0.727604"
         stroke-linecap="round"
         stroke-linejoin="round"
         stroke-miterlimit="10"
         d="m 173.41453,65.694345 c 0.80672,0.06218 1.60946,-0.224895 2.2733,-0.669925 0.8726,-0.585258 1.5248,-1.470818 1.87563,-2.457714 0.18177,-0.510911 0.28046,-1.053306 0.2667,-1.596496 -0.002,-0.0971 0.014,-0.291571 -0.0548,-0.329671 -0.0622,-0.0344 -0.26696,0.02461 -0.33681,0.03572 -0.25109,0.03942 -0.49742,0.106098 -0.73687,0.191029 -0.99906,0.354542 -1.88436,1.01944 -2.47888,1.898386 -0.53551,0.791368 -0.89535,1.762918 -0.82841,2.729177 0.005,0.06668 0.0114,0.13335 0.0201,0.199495 z"
         id="path10063"
         style="stroke:#80ffe6;stroke-opacity:1" />
      <path
         fill="none"
         stroke="#00b9d2"
         stroke-width="0.529167"
         stroke-linecap="round"
         stroke-linejoin="round"
         stroke-miterlimit="10"
         d="m 139.21158,22.329138 c 1.01044,0.778139 2.25107,1.236133 3.52584,1.293812 1.28111,0.05794 2.56619,-0.28575 3.64648,-0.977106 1.08003,-0.691356 1.93067,-1.7145 2.41433,-2.902215 0.48075,-1.18057 0.58658,-2.50137 0.30136,-3.743589 -0.28522,-1.242483 -0.95647,-2.38469 -1.90394,-3.237442 -0.95303,-0.857779 -2.16482,-1.407848 -3.43826,-1.558925 -1.27371,-0.151077 -2.57996,0.100013 -3.70761,0.710936 -1.12078,0.607218 -2.04073,1.560777 -2.60879,2.701925 -0.56806,1.141147 -0.77417,2.449777 -0.58314,3.710252 0.19208,1.267883 0.77972,2.461683 1.66793,3.386666 0.10451,0.108744 0.21299,0.213784 0.32517,0.314854 0.0653,0.05847 0.27596,0.300832 0.36063,0.300832 z"
         id="path10066"
         style="stroke:#80ffe6;stroke-opacity:1" />
      <path
         fill="none"
         stroke="#00b9d2"
         stroke-width="0.727604"
         stroke-linecap="round"
         stroke-linejoin="round"
         stroke-miterlimit="10"
         d="m 217.9619,152.74464 c -0.0172,1.99708 -0.45032,3.96293 -1.31869,5.76474 -0.86704,1.79864 -2.1455,3.39037 -3.70945,4.63048 -1.55602,1.23375 -3.38879,2.10582 -5.32554,2.54211 -1.12501,0.25347 -2.26139,0.3228 -3.40968,0.3228 -1.17713,0 -2.35453,0 -3.53166,0 -2.09259,0 -4.18544,0 -6.27803,0 -2.72733,0 -5.45465,0 -8.18198,0 -3.09959,0 -6.19919,0 -9.29904,0 -3.21363,0 -6.42726,0 -9.64089,0 -3.03477,0 -6.06928,0 -9.10405,0 -2.62096,0 -5.24219,0 -7.86315,0 -1.91267,0 -3.82561,0 -5.73829,0 -0.95752,0 -1.91505,0 -2.87284,0 -1.45283,0 -2.88766,-0.20029 -4.27196,-0.64929 -1.88913,-0.61251 -3.63009,-1.6555 -5.06598,-3.02657 -1.44754,-1.38245 -2.56778,-3.09192 -3.26655,-4.96676 -0.55456,-1.48802 -0.82576,-3.06546 -0.83052,-4.65217 -0.001,-0.36592 0,-0.73184 0,-1.09775 0,-0.84482 0,-1.68937 0,-2.53418 0,-1.27979 0,-2.55958 0,-3.83937 0,-1.67587 0,-3.35174 0,-5.02761 0,-2.01269 0,-4.02538 0,-6.03833 0,-2.32753 0,-4.65507 0,-6.98261 0,-2.57308 0,-5.14589 0,-7.71896 0,-2.80246 0,-5.60493 0,-8.4074 0,-2.96598 0,-5.93169 0,-8.89767 0,-3.092451 0,-6.185165 0,-9.277615 0,-3.183996 0,-6.367992 0,-9.551988 0,-3.204898 0,-6.41006 0,-9.614958 0,-3.217069 0,-6.434137 0,-9.651206 0,-3.150129 0,-6.300258 0,-9.450387 0,-3.073665 0,-6.14733 0,-9.220729 0,-2.935288 0,-5.870311 0,-8.805598 0,-2.737909 0,-5.475817 0,-8.213725 0,-2.526506 0,-5.053013 0,-7.579519 0,-2.243666 0,-4.487333 0,-6.730735 0,-1.941248 0,-3.882496 0,-5.8234792 0,-1.5774459 0,-3.1548917 0,-4.7323375 0,-1.1755437 0,-2.3508229 0,-3.52636661 0,-0.73077916 0,-1.46155829 0,-2.19207289 0,-0.3145896 -0.003,-0.6294437 0.002,-0.9437687 0.0344,-1.9894021 0.52255,-3.9645167 1.41817,-5.7411937 0.89376,-1.7735024 2.18889,-3.3356024 3.7629,-4.5460704 1.58274,-1.217348 3.44011,-2.064544 5.39485,-2.469621 1.07897,-0.223573 2.16535,-0.274638 3.26205,-0.274638 1.21682,0 2.43364,0 3.65046,0 2.12222,0 4.24444,0 6.36667,0 2.73843,0 5.47687,0 8.21531,0 3.11679,0 6.23358,0 9.35037,0 3.20358,0 6.40742,0 9.61099,0 3.03186,0 6.06372,0 9.09532,0 2.59927,0 5.19853,0 7.79753,0 1.88093,0 3.76159,0 5.64251,0 0.91519,0 1.83039,0 2.74558,0 1.50389,0 2.99164,0.225425 4.41695,0.710936 1.88992,0.643731 3.62427,1.721114 5.04376,3.124464 1.42345,1.407054 2.51407,3.1358419 3.18029,5.0225856 0.50509,1.4300729 0.7485,2.9355521 0.75274,4.4505562 0.001,0.3852333 0,0.7702021 0,1.1554354 0,0.85910208 0,1.71846874 0,2.57757081 0,1.29857499 0,2.59714999 0,3.89572499 0,1.6848666 0,3.3699978 0,5.0548645 0,2.0301475 0,4.0605605 0,6.0907085 0,2.338387 0,4.67651 0,7.014898 0,2.582068 0,5.163872 0,7.745941 0,2.809875 0,5.61975 0,8.429625 0,2.963069 0,5.926402 0,8.889471 0,3.104885 0,6.209771 0,9.314656 0,3.186377 0,6.372489 0,9.558866 0,3.205692 0,6.411119 0,9.616811 0,3.21601 0,6.43202 0,9.648031 0,3.147483 0,6.294702 0,9.442185 0,3.069167 0,6.138338 0,9.207498 0,2.91359 0,5.82692 0,8.74051 0,2.74558 0,5.49116 0,8.23675 0,2.51698 0,5.03396 0,7.55094 0,2.23255 0,4.46484 0,6.69713 0,1.92829 0,3.85657 0,5.78459 0,1.55919 0,3.11811 0,4.6773 0,1.16285 0,2.32569 0,3.48853 0,0.71147 0,1.42267 0,2.13413 0,0.22146 0,0.44265 0,0.66384 z"
         id="path10313"
         style="stroke:#80ffe6;stroke-opacity:1" />
      <path
         fill="none"
         stroke="#00b9d2"
         stroke-width="0.727604"
         stroke-linecap="round"
         stroke-linejoin="round"
         stroke-miterlimit="10"
         d="m 128.25333,25.564727 c -0.12171,0 -0.56991,-0.06112 -0.62812,0.01879 -0.027,0.03731 0,0.199495 0,0.243681 0,0.410104 0,0.820208 0,1.230312 0,1.529557 0,3.059377 0,4.588934 0,1.931458 0,3.862916 0,5.79411 0,1.710002 0,3.420004 0,5.130006 0,0.568061 0,1.136121 0,1.704181 0,0.177271 0,0.354277 0,0.531548 0,0.06165 -0.0304,0.22225 0,0.277548 0.0394,0.07117 0.46911,0.07408 0.56542,0.03413 0.0884,-0.03678 0.0529,0.0037 0.063,-0.11086 0.0286,-0.324644 0,-0.665162 0,-0.9906 0,-1.433248 0,-2.866496 0,-4.299479 0,-1.923785 0,-3.847835 0,-5.771621 0,-1.771914 0,-3.543564 0,-5.315479 0,-0.975254 0,-1.950508 0,-2.925762 -2.7e-4,-0.04657 -2.7e-4,-0.09287 -2.7e-4,-0.139436 z"
         id="path10316"
         style="stroke:#80ffe6;stroke-opacity:1" />
      <path
         fill="none"
         stroke="#00b9d2"
         stroke-width="0.727604"
         stroke-linecap="round"
         stroke-linejoin="round"
         stroke-miterlimit="10"
         d="m 218.59002,37.119875 c -0.0976,0 -0.57468,-0.0635 -0.62812,0 -0.0124,0.01455 0.003,0.07673 0,0.09499 -0.0378,0.213519 0,0.469371 0,0.685536 0,0.943239 0,1.886744 0,2.829983 0,2.336006 0,4.672013 0,7.008283 0,0.36539 0,0.730779 0,1.096169 0,0.104246 -0.0593,0.435769 0,0.526256 0.0386,0.059 0.58975,0.059 0.62812,0 0.0606,-0.0926 0,-0.431271 0,-0.538162 0,-2.094177 0,-4.188354 0,-6.282796 0,-1.776677 0,-3.553619 0,-5.330296 0,-0.0299 0,-0.0598 0,-0.08996 z"
         id="path10319"
         style="stroke:#80ffe6;stroke-opacity:1" />
      <path
         fill="none"
         stroke="#00b9d2"
         stroke-width="0.727604"
         stroke-linecap="round"
         stroke-linejoin="round"
         stroke-miterlimit="10"
         d="m 218.59002,21.714246 c -0.0976,0 -0.57468,-0.0635 -0.62812,0 -0.0124,0.01455 0.003,0.07673 0,0.09499 -0.0378,0.213519 0,0.469371 0,0.685536 0,0.943239 0,1.886744 0,2.829983 0,2.336006 0,4.672013 0,7.008283 0,0.36539 0,0.73078 0,1.096169 0,0.104246 -0.0593,0.435769 0,0.526256 0.0386,0.059 0.58975,0.059 0.62812,0 0.0606,-0.0926 0,-0.43127 0,-0.538162 0,-2.094177 0,-4.188354 0,-6.282796 0,-1.776677 0,-3.553619 0,-5.330296 0,-0.0299 0,-0.06006 0,-0.08996 z"
         id="path10322"
         style="stroke:#80ffe6;stroke-opacity:1" />
      <path
         fill="none"
         stroke="#00b9d2"
         stroke-width="0.727604"
         stroke-linecap="round"
         stroke-linejoin="round"
         stroke-miterlimit="10"
         d="m 218.59002,9.3677295 c -0.0963,0 -0.57759,-0.06059 -0.62812,0.00238 -0.0286,0.035454 0,0.2092855 0,0.2524125 0,0.475721 0,0.951706 0,1.427427 0,1.295136 0,2.590536 0,3.885671 0,0.208492 0,0.416719 0,0.62521 0,0.05054 -0.0341,0.270669 0,0.310886 0.0339,0.03995 0.52255,0.04921 0.58155,0.01402 0.0643,-0.03837 0.0466,-0.0463 0.0466,-0.155046 0,-1.096169 0,-2.192602 0,-3.288771 0,-1.024731 0,-2.049462 0,-3.0741937 z"
         id="path10325"
         style="stroke:#80ffe6;stroke-opacity:1" />
      <path
         fill="none"
         stroke="#00b9d2"
         stroke-width="0.727604"
         stroke-linecap="round"
         stroke-linejoin="round"
         stroke-miterlimit="10"
         d="m 162.85448,-5.0883099 c -0.002,-1.2647083 -0.81544,-2.4230541 -2.00686,-2.8495625 -1.19036,-0.4259791 -2.55694,-0.048419 -3.35915,0.9286875 -0.80222,0.9771062 -0.90699,2.3910396 -0.25744,3.4758312 0.64955,1.0845271 1.94548,1.6599958 3.18558,1.4139333 1.2356,-0.2450041 2.21165,-1.2649729 2.40268,-2.5098374 0.0161,-0.1050396 0.0833,-0.3624792 0.0352,-0.4590521 z"
         id="path10328"
         style="stroke:#80ffe6;stroke-opacity:1" />
      <path
         fill="none"
         stroke="#00b9d2"
         stroke-width="0.727604"
         stroke-linecap="round"
         stroke-linejoin="round"
         stroke-miterlimit="10"
         d="m 161.1847,21.04194 c -2.7e-4,-0.567002 -0.36592,-1.086644 -0.89985,-1.277673 -0.53367,-0.191029 -1.14644,-0.0217 -1.50627,0.416454 -0.35984,0.43815 -0.40667,1.072092 -0.11536,1.558396 0.2913,0.486304 0.87233,0.744273 1.42848,0.633941 0.55404,-0.109802 0.99166,-0.567266 1.07739,-1.125272 0.0103,-0.06826 0.0156,-0.137055 0.0156,-0.205846 z"
         id="path10331"
         style="stroke:#80ffe6;stroke-opacity:1" />
      <path
         fill="none"
         stroke="#00b9d2"
         stroke-width="0.727604"
         stroke-linecap="round"
         stroke-linejoin="round"
         stroke-miterlimit="10"
         d="m 155.13526,13.937084 c 1.25519,0.952235 2.76358,1.52056 4.34102,1.593056 1.57692,0.07223 3.15992,-0.352161 4.48945,-1.203061 1.32927,-0.8509 2.37781,-2.110845 2.97233,-3.573197 0.59134,-1.4541504 0.72231,-3.0789567 0.37121,-4.6090421 -0.3511,-1.5300854 -1.17766,-2.9352874 -2.34394,-3.9859478 -1.1729,-1.0564813 -2.66568,-1.73328542 -4.23307,-1.9192875 -1.56739,-0.18600208 -3.17712,0.12250209 -4.56459,0.8752417 -1.3798,0.7485062 -2.51222,1.9211395 -3.21178,3.3266062 -0.69956,1.4054666 -0.9525,3.0157208 -0.71808,4.5680312 0.23601,1.5607773 0.96017,3.0310663 2.05343,4.1695683 0.26273,0.273315 0.5461,0.523875 0.84402,0.758032 z"
         id="path10334"
         style="stroke:#80ffe6;stroke-opacity:1" />
      <path
         fill="none"
         stroke="#00b9d2"
         stroke-width="0.727604"
         stroke-linecap="round"
         stroke-linejoin="round"
         stroke-miterlimit="10"
         d="m 138.33052,4.4044108 c 1.25518,0.9522354 2.76357,1.5205604 4.34102,1.5930562 1.57691,0.072231 3.15991,-0.3521604 4.48945,-1.2030604 1.32926,-0.8509 2.37781,-2.1108458 2.97233,-3.5731978 0.59134,-1.45415002 0.72231,-3.0789563 0.37121,-4.6090417 -0.35111,-1.5300853 -1.17766,-2.9352874 -2.34395,-3.9859478 -1.17263,-1.0564813 -2.66568,-1.7332854 -4.23307,-1.9192875 -1.56739,-0.1860021 -3.17711,0.1225021 -4.56459,0.8752417 -1.3798,0.7485062 -2.51222,1.9211395 -3.21178,3.3266062 -0.69955,1.405202 -0.9525,3.0157208 -0.71807,4.56803116 0.236,1.56077704 0.96017,3.03106664 2.05343,4.16956874 0.26273,0.2733145 0.5461,0.5236104 0.84402,0.7580312 z"
         id="path10337"
         style="stroke:#80ffe6;stroke-opacity:1" />
      <path
         fill="none"
         stroke="#00b9d2"
         stroke-width="0.727604"
         stroke-linecap="round"
         stroke-linejoin="round"
         stroke-miterlimit="10"
         d="m 138.33052,11.319825 c 1.25518,-0.952235 2.76357,-1.5205601 4.34102,-1.5930559 1.57691,-0.072231 3.15991,0.3521599 4.48945,1.2030599 1.32926,0.8509 2.37781,2.110846 2.97233,3.573198 0.59134,1.45415 0.72231,3.078957 0.37121,4.609042 -0.35111,1.530085 -1.17766,2.935287 -2.34395,3.985948 -1.17263,1.056481 -2.66568,1.733285 -4.23307,1.919287 -1.56739,0.186002 -3.17711,-0.122502 -4.56459,-0.875241 -1.3798,-0.748507 -2.51222,-1.92114 -3.21178,-3.326607 -0.69955,-1.405202 -0.9525,-3.01572 -0.71807,-4.568031 0.236,-1.560777 0.96017,-3.031066 2.05343,-4.169568 0.26273,-0.273315 0.5461,-0.523611 0.84402,-0.758032 z"
         id="path10340"
         style="stroke:#80ffe6;stroke-opacity:1" />
      <path
         fill="none"
         stroke="#00b9d2"
         stroke-width="0.727604"
         stroke-linecap="round"
         stroke-linejoin="round"
         stroke-miterlimit="10"
         d="m 143.0229,-10.937189 c -1.91399,0.0029 -3.80418,0.602721 -5.36548,1.711325 -1.57613,1.1191875 -2.77601,2.7286479 -3.40254,4.5569187 -0.60669,1.7708562 -0.49848,3.611827 -0.49848,5.45412073 0,2.38707077 0,4.77414157 0,7.16121237 0,2.7389662 0,5.4779332 0,8.2169002 0,0.79375 -0.027,1.593056 0.0717,2.382308 0.11351,0.907785 0.36248,1.797579 0.73607,2.632604 0.78926,1.764506 2.13387,3.26099 3.80656,4.230688 1.54782,0.897202 3.24353,1.252537 5.01809,1.252537 2.46645,0 4.93263,0 7.39907,0 2.59715,0 5.1943,0 7.79145,0 0.80249,0 1.59809,0.0029 2.39237,-0.132556 0.89879,-0.153458 1.77456,-0.440796 2.59,-0.849577 1.74202,-0.873125 3.18453,-2.297377 4.07961,-4.028281 0.42016,-0.812271 0.71888,-1.686984 0.88345,-2.586832 0.14049,-0.767556 0.1516,-1.536435 0.1516,-2.313252 0,-2.833158 0,-5.666052 0,-8.49921 0,-2.1788437 0,-4.3576874 0,-6.5365312 0,-1.11336662 0.002,-2.22673327 0,-3.3400999 -0.002,-0.8725958 -0.11483,-1.7385771 -0.35295,-2.5786292 -0.52229,-1.8425583 -1.62507,-3.5012312 -3.11944,-4.6987353 -1.46367,-1.1726334 -3.27422,-1.8798644 -5.14456,-2.0121564 -0.91546,-0.06482 -1.84494,-0.02302 -2.76172,-0.02302 -1.62269,0 -3.24511,0 -4.8678,0 -2.12963,0 -4.25953,0 -6.38916,0 -1.00595,2.65e-4 -2.01189,2.65e-4 -3.01784,2.66e-4 z"
         id="path10343"
         style="stroke:#80ffe6;stroke-opacity:1" />
      <path
         fill="none"
         stroke="#00b9d2"
         stroke-width="0.926042"
         stroke-linecap="round"
         stroke-linejoin="round"
         stroke-miterlimit="10"
         d="m 217.9619,152.74464 c 0,-0.26035 0,-0.5207 0,-0.78078 0,-0.75116 0,-1.50257 0,-2.25372 0,-1.19777 0,-2.39554 0,-3.59357 0,-1.59015 0,-3.18056 0,-4.77071 0,-1.9558 0,-3.91186 0,-5.86766 0,-2.2696 0,-4.53893 0,-6.80852 0,-2.53154 0,-5.06281 0,-7.59434 0,-2.75511 0,-5.51021 0,-8.26532 0,-2.94296 0,-5.88618 0,-8.82914 0,-3.07922 0,-6.158445 0,-9.237931 0,-3.153568 0,-6.307137 0,-9.46097 0,-3.218392 0,-6.436784 0,-9.655175 0,-3.221567 0,-6.443398 0,-9.664965 0,-3.180556 0,-6.361112 0,-9.541668 0,-3.078427 0,-6.156855 0,-9.235282 0,-2.965979 0,-5.931958 0,-8.897672 0,-2.791884 0,-5.583767 0,-8.37565 0,-2.566723 0,-5.133446 0,-7.699904 0,-2.305315 0,-4.610629 0,-6.915944 0,-2.005012 0,-4.010025 0,-6.0147728 0,-1.6533813 0,-3.3070271 0,-4.9606729 0,-1.2520083 0,-2.5040166 0,-3.75576037 0,-0.81994374 0,-1.63988743 0,-2.45983123 0,-0.3354916 7.9e-4,-0.6709833 0,-1.006475 -0.004,-1.6258645 -0.29581,-3.2422041 -0.87763,-4.761177 -0.73845,-1.9282833 -1.93145,-3.6755917 -3.45942,-5.0646537 -1.50892,-1.3716 -3.32978,-2.385484 -5.29061,-2.944548 -1.26312,-0.360098 -2.55799,-0.507471 -3.86874,-0.507471 -1.00727,0 -2.01454,0 -3.0218,0 -1.95739,0 -3.91478,0 -5.87243,0 -2.64848,0 -5.29696,0 -7.9457,0 -3.06626,0 -6.13252,0 -9.19877,0 -3.19723,0 -6.39472,0 -9.59194,0 -3.09563,0 -6.19125,0 -9.28688,0 -2.70721,0 -5.41443,0 -8.12191,0 -2.04973,0 -4.09945,0 -6.14945,0 -1.11998,0 -2.23996,0 -3.35994,0 -1.15226,0 -2.29156,0.08387 -3.41736,0.347133 -1.97062,0.46064 -3.82482,1.374775 -5.39062,2.656681 -1.60655,1.315244 -2.89322,3.010165 -3.73036,4.9101379 -0.74136,1.68275 -1.12051,3.5094333 -1.12554,5.3474937 -7.9e-4,0.2799291 0,0.5598583 0,0.8395229 0,0.7691437 0,1.53828745 0,2.30743119 0,1.20623541 0,2.41247081 0,3.61870621 0,1.6123708 0,3.2247416 0,4.8371124 0,1.9687647 0,3.9375287 0,5.9060287 0,2.280709 0,4.561152 0,6.841861 0,2.53365 0,5.067035 0,7.600685 0,2.770188 0,5.540375 0,8.310298 0,2.949046 0,5.898091 0,8.847137 0,3.083719 0,6.167173 0,9.250892 0,3.156214 0,6.312429 0,9.468643 0,3.21945 0,6.438636 0,9.658086 0,3.221037 0,6.44181 0,9.662848 0,3.169443 0,6.339152 0,9.508595 0,3.082925 0,6.16585 0,9.248771 0,2.96016 0,5.92006 0,8.88021 0,2.78421 0,5.56869 0,8.3529 0,2.55085 0,5.10143 0,7.65228 0,2.30108 0,4.60216 0,6.90324 0,1.99232 0,3.98463 0,5.97694 0,1.63909 0,3.27845 0,4.91755 0,1.23613 0,2.472 0,3.70813 0,0.80222 0,1.60443 0,2.40665 0,0.31618 -7.9e-4,0.63209 0,0.94827 0.004,1.69968 0.32597,3.38958 0.96176,4.96702 0.77259,1.91664 1.99576,3.64146 3.5478,5.00565 1.53458,1.34885 3.38164,2.33283 5.35676,2.85539 1.20755,0.31935 2.4376,0.44185 3.68352,0.44185 1.04431,0 2.08889,0 3.1332,0 1.99284,0 3.98568,0 5.97853,0 2.66938,0 5.33902,0 8.0084,0 3.07684,0 6.15368,0 9.23079,0 3.19775,0 6.3955,0 9.59299,0 3.08558,0 6.17141,0 9.25698,0 2.68711,0 5.37422,0 8.06133,0 2.0148,0 4.02986,0 6.04467,0 1.08373,0 2.16773,0 3.25146,0 1.19592,0 2.37675,-0.10319 3.54066,-0.39211 1.98569,-0.49319 3.85101,-1.4523 5.40676,-2.7813 1.56077,-1.3335 2.80246,-3.02604 3.60309,-4.91622 0.69136,-1.6309 1.0504,-3.39884 1.0504,-5.17023 z"
         id="path10395"
         style="stroke:#80ffe6;stroke-opacity:1" />
    </g>
  </g>
</svg>
