<?xml version="1.0" encoding="UTF-8" standalone="no"?>
<svg
   xmlns:dc="http://purl.org/dc/elements/1.1/"
   xmlns:cc="http://creativecommons.org/ns#"
   xmlns:rdf="http://www.w3.org/1999/02/22-rdf-syntax-ns#"
   xmlns:svg="http://www.w3.org/2000/svg"
   xmlns="http://www.w3.org/2000/svg"
   xmlns:sodipodi="http://sodipodi.sourceforge.net/DTD/sodipodi-0.dtd"
   xmlns:inkscape="http://www.inkscape.org/namespaces/inkscape"
   width="15.072898mm"
   height="29.556376mm"
   viewBox="0 0 15.072898 29.556377"
   version="1.1"
   id="svg4830"
   inkscape:version="1.0.2 (e86c8708, 2021-01-15)"
   sodipodi:docname="ip11.svg">
  <defs
     id="defs4824" />
  <sodipodi:namedview
     id="base"
     pagecolor="#ffffff"
     bordercolor="#666666"
     borderopacity="1.0"
     inkscape:pageopacity="0.0"
     inkscape:pageshadow="2"
     inkscape:zoom="2.8696784"
     inkscape:cx="-8.0820432"
     inkscape:cy="78.79342"
     inkscape:document-units="mm"
     inkscape:current-layer="layer1"
     inkscape:document-rotation="0"
     showgrid="false"
     inkscape:window-width="1440"
     inkscape:window-height="872"
     inkscape:window-x="0"
     inkscape:window-y="28"
     inkscape:window-maximized="0" />
  <metadata
     id="metadata4827">
    <rdf:RDF>
      <cc:Work
         rdf:about="">
        <dc:format>image/svg+xml</dc:format>
        <dc:type
           rdf:resource="http://purl.org/dc/dcmitype/StillImage" />
        <dc:title></dc:title>
      </cc:Work>
    </rdf:RDF>
  </metadata>
  <g
     inkscape:label="Layer 1"
     inkscape:groupmode="layer"
     id="layer1"
     transform="translate(-79.343224,-160.93576)">
    <g
       id="g13961"
       transform="matrix(0.04241751,0,0,0.04241751,57.970852,158.63794)"
       style="stroke:#80ffe6;stroke-opacity:1">
      <path
         fill="none"
         stroke="#00b9d2"
         stroke-width="2"
         stroke-linecap="round"
         stroke-linejoin="round"
         stroke-miterlimit="10"
         d="m 549.691,129.351 c 3.84,2.957 8.555,4.698 13.399,4.917 4.868,0.22 9.752,-1.086 13.857,-3.713 4.104,-2.627 7.337,-6.516 9.175,-11.029 1.827,-4.487 2.229,-9.505 1.146,-14.227 -1.084,-4.721 -3.634,-9.062 -7.235,-12.303 -3.622,-3.26 -8.227,-5.35 -13.066,-5.924 -4.84,-0.574 -9.805,0.38 -14.09,2.701 -4.259,2.307 -7.755,5.932 -9.914,10.268 -2.159,4.337 -2.942,9.31 -2.216,14.1 0.73,4.818 2.963,9.355 6.338,12.87 0.81,0.843 1.682,1.623 2.606,2.34 z"
         id="path12788"
         style="stroke:#80ffe6;stroke-opacity:1" />
      <path
         fill="none"
         stroke="#00b9d2"
         stroke-width="2"
         stroke-linecap="round"
         stroke-linejoin="round"
         stroke-miterlimit="10"
         d="m 549.691,196.937 c 3.84,2.957 8.555,4.698 13.399,4.917 4.868,0.22 9.752,-1.086 13.857,-3.713 4.104,-2.627 7.337,-6.516 9.175,-11.029 1.827,-4.487 2.229,-9.505 1.146,-14.227 -1.084,-4.721 -3.634,-9.062 -7.235,-12.303 -3.622,-3.26 -8.227,-5.35 -13.066,-5.924 -4.84,-0.574 -9.805,0.38 -14.09,2.701 -4.259,2.307 -7.755,5.932 -9.914,10.268 -2.159,4.337 -2.942,9.31 -2.216,14.1 0.73,4.818 2.963,9.355 6.338,12.87 0.81,0.843 1.682,1.623 2.606,2.34 z"
         id="path12791"
         style="stroke:#80ffe6;stroke-opacity:1" />
      <path
         fill="none"
         stroke="#00b9d2"
         stroke-width="2.75"
         stroke-linecap="round"
         stroke-linejoin="round"
         stroke-miterlimit="10"
         d="m 680.839,368.873 c 3.081,0.237 6.147,-0.858 8.682,-2.558 3.333,-2.235 5.823,-5.617 7.163,-9.387 0.694,-1.952 1.071,-4.023 1.019,-6.097 -0.009,-0.371 0.054,-1.114 -0.209,-1.259 -0.238,-0.132 -1.019,0.094 -1.287,0.136 -0.959,0.151 -1.9,0.405 -2.814,0.73 -3.815,1.354 -7.196,3.894 -9.467,7.25 -2.045,3.022 -3.419,6.733 -3.164,10.423 0.018,0.254 0.043,0.509 0.077,0.762 z"
         id="path12794"
         style="stroke:#80ffe6;stroke-opacity:1" />
      <path
         fill="none"
         stroke="#00b9d2"
         stroke-width="2.75"
         stroke-linecap="round"
         stroke-linejoin="round"
         stroke-miterlimit="10"
         d="m 703.805,394.072 c -0.034,-5.082 2.102,-9.824 5.737,-13.34 1.011,-0.978 2.117,-1.863 3.317,-2.598 0,-0.506 -1.237,-1.631 -1.578,-2.009 -0.52,-0.577 -1.076,-1.122 -1.665,-1.629 -1.199,-1.031 -2.53,-1.902 -3.949,-2.599 -3.016,-1.481 -6.483,-2.224 -9.844,-2.134 -3.641,0.097 -7.016,1.553 -10.361,2.84 -2.114,0.813 -3.849,1.34 -6.048,0.7 -3.684,-1.071 -7.06,-3.097 -10.978,-3.269 -3.543,-0.156 -7.163,0.854 -10.228,2.604 -3.347,1.91 -6.104,4.756 -7.989,8.111 -1.954,3.477 -2.962,7.412 -3.271,11.371 -0.324,4.16 0.091,8.368 0.985,12.435 0.87,3.958 2.19,7.824 3.914,11.492 1.828,3.889 4.185,7.515 6.864,10.872 1.78,2.23 3.847,4.478 6.498,5.666 2.134,0.956 4.439,0.894 6.658,0.268 1.938,-0.546 3.717,-1.525 5.627,-2.151 1.771,-0.58 3.619,-0.838 5.48,-0.799 1.82,0.038 3.591,0.409 5.291,1.058 1.765,0.674 3.445,1.573 5.301,1.987 2.07,0.462 4.268,0.388 6.243,-0.417 2.679,-1.093 4.743,-3.278 6.5,-5.508 2.626,-3.332 4.95,-6.943 6.724,-10.801 0.428,-0.93 0.827,-1.874 1.193,-2.83 0.173,-0.451 0.339,-0.905 0.495,-1.363 0.073,-0.215 0.232,-0.519 0.243,-0.742 0.019,-0.38 0.085,-0.198 -0.244,-0.407 -1.435,-0.911 -2.928,-1.582 -4.26,-2.681 -2.806,-2.316 -4.915,-5.401 -5.922,-8.907 -0.485,-1.697 -0.714,-3.457 -0.733,-5.22"
         id="path12797"
         style="stroke:#80ffe6;stroke-opacity:1" />
      <path
         fill="none"
         stroke="#00b9d2"
         stroke-width="2"
         stroke-linecap="round"
         stroke-linejoin="round"
         stroke-miterlimit="10"
         d="m 800.291,743.014 c 7.35,-0.063 14.596,-1.651 21.23,-4.846 6.585,-3.171 12.434,-7.83 16.995,-13.541 4.559,-5.708 7.815,-12.432 9.453,-19.551 0.886,-3.849 1.251,-7.763 1.251,-11.707 0,-1.893 0,-3.786 0,-5.679 0,-3.669 0,-7.337 0,-11.005 0,-5.238 0,-10.475 0,-15.713 0,-6.657 0,-13.314 0,-19.971 0,-7.958 0,-15.916 0,-23.873 0,-9.005 0,-18.01 0,-27.015 0,-9.927 0,-19.855 0,-29.782 0,-10.745 0,-21.49 0,-32.235 0,-11.279 0,-22.557 0,-33.836 0,-11.737 0,-23.473 0,-35.21 0,-11.998 0,-23.995 0,-35.993 0,-12.059 0,-24.117 0,-36.175 0,-12.02 0,-24.039 0,-36.059 0,-11.781 0,-23.562 0,-35.342 0,-11.345 0,-22.689 0,-34.034 0,-10.833 0,-21.667 0,-32.5 0,-10.037 0,-20.074 0,-30.112 0,-9.137 0,-18.274 0,-27.411 0,-8.112 0,-16.225 0,-24.337 0,-6.833 0,-13.666 0,-20.498 0,-5.435 0,-10.871 0,-16.306 0,-3.889 0,-7.779 0,-11.668 0,-2.135 0,-4.269 0,-6.404 0,-3.167 -0.17,-6.319 -0.71,-9.446 -1.242,-7.199 -4.104,-14.098 -8.341,-20.051 -4.215,-5.922 -9.746,-10.889 -16.105,-14.415 -6.407,-3.553 -13.592,-5.659 -20.909,-6.08 -2.683,-0.154 -5.385,-0.086 -8.071,-0.086 -5.729,0 -11.459,0 -17.188,0 -8.826,0 -17.652,0 -26.479,0 -10.826,0 -21.652,0 -32.478,0 -11.871,0 -23.742,0 -35.613,0 -11.985,0 -23.969,0 -35.954,0 -10.966,0 -21.933,0 -32.899,0 -9.041,0 -18.081,0 -27.122,0 -6.079,0 -12.157,0 -18.236,0 -2.398,0 -4.798,-0.034 -7.196,0.007 -7.324,0.126 -14.599,1.92 -21.143,5.211 -6.528,3.284 -12.3,8.042 -16.759,13.832 -4.445,5.772 -7.582,12.526 -9.101,19.653 -0.777,3.645 -1.082,7.337 -1.082,11.057 0,1.964 0,3.927 0,5.891 0,3.708 0,7.416 0,11.125 0,5.321 0,10.641 0,15.962 0,6.709 0,13.417 0,20.126 0,7.98 0,15.959 0,23.939 0,9.067 0,18.135 0,27.202 0,9.96 0,19.919 0,29.879 0,10.741 0,21.481 0,32.222 0,11.329 0,22.657 0,33.986 0,11.717 0,23.434 0,35.151 0,12.037 0,24.074 0,36.111 0,12.059 0,24.118 0,36.176 0,11.981 0,23.961 0,35.942 0,11.801 0,23.602 0,35.403 0,11.326 0,22.651 0,33.977 0,10.751 0,21.501 0,32.252 0,10.063 0,20.126 0,30.189 0,9.099 0,18.197 0,27.296 0,8.047 0,16.094 0,24.141 0,6.802 0,13.605 0,20.407 0,5.378 0,10.756 0,16.134 0,3.825 0,7.651 0,11.476 0,2.064 0,4.129 0,6.193 0,3.384 0.219,6.749 0.849,10.081 1.362,7.198 4.345,14.067 8.697,19.963 4.317,5.848 9.933,10.719 16.352,14.135 6.423,3.418 13.563,5.375 20.831,5.71 2.616,0.121 5.248,0.051 7.866,0.051 5.866,0 11.731,0 17.597,0 8.897,0 17.793,0 26.69,0 10.913,0 21.825,0 32.738,0 11.891,0 23.783,0 35.674,0 11.966,0 23.933,0 35.899,0 10.91,0 21.819,0 32.729,0 8.924,0 17.848,0 26.772,0 5.965,0 11.931,0 17.896,0 1.445,0 2.889,0 4.334,0 0.297,10e-4 1.272,-0.173 1.533,10e-4 z"
         id="path12800"
         style="stroke:#80ffe6;stroke-opacity:1" />
      <line
         fill="none"
         stroke="#00b9d2"
         stroke-width="2"
         stroke-linecap="round"
         stroke-linejoin="round"
         stroke-miterlimit="10"
         x1="507.63199"
         y1="674.51099"
         x2="513.83502"
         y2="674.51099"
         id="line12803"
         style="stroke:#80ffe6;stroke-opacity:1" />
      <line
         fill="none"
         stroke="#00b9d2"
         stroke-width="2"
         stroke-linecap="round"
         stroke-linejoin="round"
         stroke-miterlimit="10"
         x1="507.63199"
         y1="680.74799"
         x2="513.83502"
         y2="680.74799"
         id="line12806"
         style="stroke:#80ffe6;stroke-opacity:1" />
      <line
         fill="none"
         stroke="#00b9d2"
         stroke-width="2"
         stroke-linecap="round"
         stroke-linejoin="round"
         stroke-miterlimit="10"
         x1="507.63199"
         y1="130.76601"
         x2="513.83502"
         y2="130.76601"
         id="line12809"
         style="stroke:#80ffe6;stroke-opacity:1" />
      <line
         fill="none"
         stroke="#00b9d2"
         stroke-width="2"
         stroke-linecap="round"
         stroke-linejoin="round"
         stroke-miterlimit="10"
         x1="507.63199"
         y1="124.528"
         x2="513.83502"
         y2="124.528"
         id="line12812"
         style="stroke:#80ffe6;stroke-opacity:1" />
      <line
         fill="none"
         stroke="#00b9d2"
         stroke-width="2"
         stroke-linecap="round"
         stroke-linejoin="round"
         stroke-miterlimit="10"
         x1="855.42401"
         y1="124.528"
         x2="849.22101"
         y2="124.528"
         id="line12815"
         style="stroke:#80ffe6;stroke-opacity:1" />
      <line
         fill="none"
         stroke="#00b9d2"
         stroke-width="2"
         stroke-linecap="round"
         stroke-linejoin="round"
         stroke-miterlimit="10"
         x1="855.42401"
         y1="130.76601"
         x2="849.22101"
         y2="130.76601"
         id="line12818"
         style="stroke:#80ffe6;stroke-opacity:1" />
      <line
         fill="none"
         stroke="#00b9d2"
         stroke-width="2"
         stroke-linecap="round"
         stroke-linejoin="round"
         stroke-miterlimit="10"
         x1="855.42401"
         y1="680.74799"
         x2="849.22101"
         y2="680.74799"
         id="line12821"
         style="stroke:#80ffe6;stroke-opacity:1" />
      <line
         fill="none"
         stroke="#00b9d2"
         stroke-width="2"
         stroke-linecap="round"
         stroke-linejoin="round"
         stroke-miterlimit="10"
         x1="855.42401"
         y1="674.51099"
         x2="849.22101"
         y2="674.51099"
         id="line12824"
         style="stroke:#80ffe6;stroke-opacity:1" />
      <path
         fill="none"
         stroke="#00b9d2"
         stroke-width="2.75"
         stroke-linecap="round"
         stroke-linejoin="round"
         stroke-miterlimit="10"
         d="m 623.938,110.6 c -10e-4,-2.259 -1.458,-4.329 -3.585,-5.091 -2.126,-0.761 -4.568,-0.086 -6.002,1.659 -1.433,1.745 -1.621,4.272 -0.46,6.21 1.161,1.938 3.475,2.966 5.691,2.526 2.207,-0.438 3.952,-2.26 4.293,-4.484 0.042,-0.271 0.063,-0.546 0.063,-0.82 z"
         id="path13082"
         style="stroke:#80ffe6;stroke-opacity:1" />
      <path
         fill="none"
         stroke="#00b9d2"
         stroke-width="2.75"
         stroke-linecap="round"
         stroke-linejoin="round"
         stroke-miterlimit="10"
         d="m 630.59,144.393 c -0.006,-5.039 -3.249,-9.655 -7.996,-11.354 -4.742,-1.698 -10.188,-0.192 -13.385,3.701 -3.197,3.893 -3.614,9.527 -1.026,13.849 2.588,4.322 7.752,6.614 12.693,5.634 4.923,-0.976 8.812,-5.04 9.574,-10 0.093,-0.606 0.14,-1.218 0.14,-1.83 z"
         id="path13085"
         style="stroke:#80ffe6;stroke-opacity:1" />
      <path
         fill="none"
         stroke="#00b9d2"
         stroke-width="2.75"
         stroke-linecap="round"
         stroke-linejoin="round"
         stroke-miterlimit="10"
         d="m 546.882,132.987 c 4.626,3.509 10.184,5.604 15.997,5.87 5.811,0.266 11.645,-1.298 16.544,-4.433 4.899,-3.136 8.762,-7.779 10.954,-13.168 2.179,-5.359 2.662,-11.347 1.368,-16.985 -1.294,-5.638 -4.34,-10.817 -8.638,-14.689 -4.322,-3.893 -9.823,-6.387 -15.599,-7.073 -5.776,-0.686 -11.709,0.451 -16.822,3.225 -5.085,2.758 -9.258,7.08 -11.836,12.259 -2.578,5.179 -3.51,11.114 -2.646,16.834 0.869,5.752 3.538,11.17 7.567,15.366 0.474,0.494 0.966,0.97 1.475,1.429 0.296,0.266 1.252,1.365 1.636,1.365 z"
         id="path13088"
         style="stroke:#80ffe6;stroke-opacity:1" />
      <path
         fill="none"
         stroke="#00b9d2"
         stroke-width="2.75"
         stroke-linecap="round"
         stroke-linejoin="round"
         stroke-miterlimit="10"
         d="m 546.882,200.573 c 4.626,3.509 10.184,5.604 15.997,5.87 5.811,0.266 11.645,-1.298 16.544,-4.433 4.899,-3.136 8.762,-7.779 10.954,-13.168 2.179,-5.359 2.662,-11.347 1.368,-16.985 -1.294,-5.638 -4.34,-10.817 -8.638,-14.689 -4.322,-3.893 -9.823,-6.387 -15.599,-7.073 -5.776,-0.686 -11.709,0.451 -16.822,3.225 -5.085,2.758 -9.258,7.08 -11.836,12.259 -2.578,5.179 -3.51,11.114 -2.646,16.834 0.869,5.752 3.538,11.17 7.567,15.366 0.474,0.494 0.966,0.97 1.475,1.429 0.296,0.265 1.252,1.365 1.636,1.365 z"
         id="path13091"
         style="stroke:#80ffe6;stroke-opacity:1" />
      <path
         fill="none"
         stroke="#00b9d2"
         stroke-width="2.75"
         stroke-linecap="round"
         stroke-linejoin="round"
         stroke-miterlimit="10"
         d="m 583.752,211.01 c 8.952,0 17.903,0 26.855,0 2.941,0 5.901,0.099 8.841,-0.033 3.613,-0.161 7.195,-0.925 10.56,-2.249 5.835,-2.295 10.953,-6.278 14.616,-11.366 3.99,-5.543 6.143,-12.258 6.185,-19.083 0.044,-7.244 0.002,-14.489 0.002,-21.733 0,-10.311 0,-20.622 0,-30.933 0,-2.003 0,-4.006 0,-6.009 0,-4.144 0.254,-8.386 -0.19,-12.517 -0.707,-6.571 -3.428,-12.869 -7.739,-17.879 -4.078,-4.74 -9.492,-8.261 -15.483,-10.055 -3.189,-0.955 -6.478,-1.377 -9.802,-1.379 -4.329,-0.002 -8.659,0 -12.988,0 -7.534,0 -15.069,0 -22.603,0 -5.289,0 -10.579,0 -15.868,0 -3.097,0 -6.143,0.118 -9.181,0.804 -6.24,1.409 -12.004,4.655 -16.439,9.266 -4.523,4.702 -7.577,10.734 -8.689,17.163 -0.651,3.763 -0.481,7.597 -0.481,11.399 0,2.558 0,5.116 0,7.674 0,9.704 0,19.408 0,29.112 0,8.256 -0.024,16.513 0,24.769 0.018,6.327 1.745,12.546 5.16,17.888 3.401,5.32 8.328,9.601 14.077,12.216 3.157,1.436 6.54,2.366 9.987,2.747 3.541,0.391 7.171,0.199 10.725,0.199 4.151,-0.001 8.303,-0.001 12.455,-0.001 z"
         id="path13094"
         style="stroke:#80ffe6;stroke-opacity:1" />
      <path
         fill="none"
         stroke="#00b9d2"
         stroke-width="2.75"
         stroke-linecap="round"
         stroke-linejoin="round"
         stroke-miterlimit="10"
         d="m 505.335,150.08 c 0.403,0 2.067,-0.241 2.297,0.014 0.109,0.12 0,0.854 0,1.008 0,1.824 0,3.647 0,5.471 0,5.017 0,10.034 0,15.05 0,1.242 0,2.484 0,3.726 0,-0.089 -2.165,0.133 -2.297,-0.014 -0.109,-0.12 0,-0.854 0,-1.008 0,-1.824 0,-3.647 0,-5.471 0,-5.017 0,-10.034 0,-15.05 0,-1.242 0,-2.484 0,-3.726 z"
         id="path13097"
         style="stroke:#80ffe6;stroke-opacity:1" />
      <path
         fill="none"
         stroke="#00b9d2"
         stroke-width="2.75"
         stroke-linecap="round"
         stroke-linejoin="round"
         stroke-miterlimit="10"
         d="m 505.335,197.946 c 0.378,0 2.077,-0.243 2.297,0.001 0.048,0.054 -0.009,0.319 0,0.389 0.115,0.866 0,1.829 0,2.701 0,3.652 0,7.304 0,10.957 0,9.043 0,18.087 0,27.13 0,1.418 0,2.835 0,4.253 0,0.39 0.229,1.697 0,2.031 -0.155,0.226 -2.155,0.218 -2.297,-0.021 -0.23,-0.385 0,-1.621 0,-2.055 0,-8.134 0,-16.268 0,-24.402 0,-6.878 0,-13.756 0,-20.634 0,-0.116 0,-0.233 0,-0.35 z"
         id="path13100"
         style="stroke:#80ffe6;stroke-opacity:1" />
      <path
         fill="none"
         stroke="#00b9d2"
         stroke-width="2.75"
         stroke-linecap="round"
         stroke-linejoin="round"
         stroke-miterlimit="10"
         d="m 505.335,257.672 c 0.378,0 2.077,-0.243 2.297,10e-4 0.048,0.054 -0.009,0.319 0,0.389 0.115,0.866 0,1.829 0,2.701 0,3.652 0,7.304 0,10.957 0,9.043 0,18.087 0,27.13 0,1.418 0,2.835 0,4.253 0,0.39 0.229,1.697 0,2.031 -0.155,0.226 -2.155,0.218 -2.297,-0.021 -0.23,-0.385 0,-1.621 0,-2.055 0,-8.134 0,-16.268 0,-24.402 0,-6.878 0,-13.756 0,-20.634 0,-0.116 0,-0.233 0,-0.35 z"
         id="path13103"
         style="stroke:#80ffe6;stroke-opacity:1" />
      <path
         fill="none"
         stroke="#00b9d2"
         stroke-width="2.75"
         stroke-linecap="round"
         stroke-linejoin="round"
         stroke-miterlimit="10"
         d="m 855.424,213.718 c 0.462,0 2.085,-0.226 2.297,0.084 0.108,0.157 0,0.777 0,0.962 0,1.585 0,3.171 0,4.756 0,5.913 0,11.827 0,17.74 0,7.532 0,15.064 0,22.596 0,6.605 0,13.211 0,19.816 0,2.202 0,4.404 0,6.606 0,0.68 0,1.36 0,2.041 0,0.234 0.118,0.863 0,1.07 -0.156,0.273 -1.702,0.286 -2.067,0.135 -0.321,-0.132 -0.207,-0.013 -0.23,-0.443 -0.069,-1.284 0,-2.591 0,-3.876 0,-5.55 0,-11.1 0,-16.65 0,-7.471 0,-14.942 0,-22.413 0,-6.847 0,-13.695 0,-20.542 0,-3.783 0,-7.566 0,-11.35 0,-0.177 0,-0.354 0,-0.532 z"
         id="path13106"
         style="stroke:#80ffe6;stroke-opacity:1" />
      <path
         fill="none"
         stroke="#00b9d2"
         stroke-width="2.75"
         stroke-linecap="round"
         stroke-linejoin="round"
         stroke-miterlimit="10"
         d="m 800.291,749.217 c 7.372,-0.064 14.653,-1.472 21.454,-4.347 6.826,-2.885 13.046,-7.151 18.195,-12.481 5.149,-5.33 9.198,-11.694 11.846,-18.615 2.407,-6.292 3.609,-12.98 3.637,-19.712 0.005,-1.186 0,-2.372 0,-3.559 0,-3.103 0,-6.205 0,-9.308 0,-4.839 0,-9.678 0,-14.517 0,-6.396 0,-12.791 0,-19.187 0,-7.773 0,-15.546 0,-23.318 0,-8.945 0,-17.89 0,-26.835 0,-9.958 0,-19.917 0,-29.875 0,-10.824 0,-21.648 0,-32.471 0,-11.484 0,-22.968 0,-34.452 0,-11.965 0,-23.93 0,-35.895 0,-12.233 0,-24.467 0,-36.7 0,-12.355 0,-24.711 0,-37.066 0,-12.332 0,-24.664 0,-36.996 0,-12.096 0,-24.192 0,-36.288 0,-11.681 0,-23.362 0,-35.042 0,-11.057 0,-22.114 0,-33.172 0,-10.288 0,-20.575 0,-30.863 0,-9.364 0,-18.727 0,-28.091 0,-8.232 0,-16.463 0,-24.695 0,-6.92 0,-13.84 0,-20.76 0,-5.416 0,-10.833 0,-16.249 0,-3.755 0,-7.511 0,-11.266 0,-1.919 0,-3.837 0,-5.756 0,-4.296 -0.404,-8.564 -1.35,-12.76 -1.616,-7.169 -4.677,-13.999 -8.956,-19.974 -4.278,-5.975 -9.758,-11.075 -16.025,-14.913 -6.271,-3.841 -13.297,-6.401 -20.568,-7.502 -3.713,-0.562 -7.429,-0.62 -11.17,-0.62 -5.11,0 -10.219,0 -15.329,0 -8.525,0 -17.05,0 -25.576,0 -10.86,0 -21.721,0 -32.581,0 -12.048,0 -24.097,0 -36.145,0 -12.291,0 -24.582,0 -36.873,0 -11.391,0 -22.782,0 -34.172,0 -9.41,0 -18.82,0 -28.23,0 -6.349,0 -12.698,0 -19.047,0 -2.515,0 -5.032,-0.035 -7.547,0.008 -7.33,0.125 -14.609,1.721 -21.319,4.673 -6.762,2.975 -12.898,7.328 -17.956,12.71 -5.079,5.403 -9.044,11.837 -11.589,18.802 -2.223,6.086 -3.333,12.513 -3.357,18.988 -0.005,1.261 0,2.522 0,3.783 0,3.171 0,6.343 0,9.514 0,4.901 0,9.801 0,14.702 0,6.451 0,12.901 0,19.352 0,7.821 0,15.642 0,23.463 0,8.961 0,17.922 0,26.882 0,10.019 0,20.038 0,30.056 0,10.852 0,21.704 0,32.556 0,11.506 0,23.011 0,34.517 0,11.98 0,23.959 0,35.939 0,12.208 0,24.416 0,36.624 0,12.39 0,24.779 0,37.169 0,12.326 0,24.653 0,36.979 0,12.084 0,24.168 0,36.251 0,11.662 0,23.323 0,34.985 0,11.031 0,22.063 0,33.094 0,10.255 0,20.51 0,30.765 0,9.324 0,18.649 0,27.973 0,8.185 0,16.371 0,24.556 0,6.867 0,13.734 0,20.601 0,5.357 0,10.714 0,16.071 0,3.689 0,7.378 0,11.067 0,1.846 0,3.691 0,5.537 0,4.529 0.47,9.03 1.533,13.437 1.731,7.18 4.908,14 9.311,19.932 4.365,5.881 9.894,10.865 16.193,14.603 6.312,3.745 13.382,6.202 20.654,7.191 3.571,0.486 7.14,0.506 10.732,0.506 5.258,0 10.516,0 15.773,0 8.633,0 17.265,0 25.898,0 10.927,0 21.854,0 32.781,0 12.074,0 24.149,0 36.223,0 12.277,0 24.554,0 36.831,0 11.336,0 22.672,0 34.008,0 9.314,0 18.629,0 27.943,0 6.213,0 12.425,0 18.638,0 1.512,0 3.024,0 4.536,0 0.31,-10e-4 1.331,-0.184 1.604,-10e-4 z"
         id="path13109"
         style="stroke:#80ffe6;stroke-opacity:1" />
      <path
         fill="none"
         stroke="#00b9d2"
         stroke-width="3.5"
         stroke-linecap="round"
         stroke-linejoin="round"
         stroke-miterlimit="10"
         d="m 800.291,749.217 c 7.616,-0.042 15.169,-1.579 22.148,-4.645 6.639,-2.916 12.697,-7.143 17.704,-12.392 5.014,-5.256 8.987,-11.49 11.593,-18.273 2.434,-6.336 3.671,-13.075 3.688,-19.86 0.003,-1.24 0,-2.481 0,-3.721 0,-3.141 0,-6.282 0,-9.423 0,-4.863 0,-9.727 0,-14.59 0,-6.408 0,-12.816 0,-19.224 0,-7.774 0,-15.549 0,-23.323 0,-8.988 0,-17.977 0,-26.965 0,-9.948 0,-19.895 0,-29.843 0,-10.836 0,-21.672 0,-32.508 0,-11.43 0,-22.86 0,-34.29 0,-11.969 0,-23.939 0,-35.908 0,-12.202 0,-24.405 0,-36.607 0,-12.389 0,-24.778 0,-37.166 0,-12.265 0,-24.529 0,-36.794 0,-12.094 0,-24.189 0,-36.283 0,-11.617 0,-23.233 0,-34.85 0,-11.086 0,-22.172 0,-33.258 0,-10.259 0,-20.517 0,-30.776 0,-9.364 0,-18.727 0,-28.091 0,-8.191 0,-16.381 0,-24.572 0,-6.927 0,-13.855 0,-20.782 0,-5.412 0,-10.825 0,-16.237 0,-3.777 0,-7.554 0,-11.332 0,-1.924 0,-3.848 0,-5.772 0,-4.47 -0.436,-8.908 -1.459,-13.266 -1.641,-6.991 -4.66,-13.629 -8.831,-19.473 -4.271,-5.985 -9.757,-11.077 -16.02,-14.925 -6.281,-3.86 -13.349,-6.434 -20.64,-7.524 -3.748,-0.561 -7.495,-0.611 -11.27,-0.611 -5.135,0 -10.271,0 -15.406,0 -8.556,0 -17.112,0 -25.668,0 -10.817,0 -21.633,0 -32.45,0 -12.119,0 -24.238,0 -36.356,0 -12.223,0 -24.445,0 -36.668,0 -11.383,0 -22.766,0 -34.149,0 -9.353,0 -18.706,0 -28.06,0 -6.349,0 -12.698,0 -19.047,0 -2.487,0 -4.976,-0.03 -7.463,0.007 -7.573,0.114 -15.104,1.804 -21.999,4.94 -6.633,3.017 -12.655,7.358 -17.607,12.705 -4.927,5.32 -8.793,11.608 -11.298,18.414 -2.254,6.124 -3.388,12.61 -3.402,19.132 -0.003,1.316 0,2.632 0,3.948 0,3.198 0,6.396 0,9.594 0,4.936 0,9.872 0,14.808 0,6.463 0,12.925 0,19.388 0,7.822 0,15.645 0,23.467 0,9.004 0,18.008 0,27.013 0,10.008 0,20.016 0,30.024 0,10.834 0,21.667 0,32.501 0,11.481 0,22.963 0,34.444 0,11.984 0,23.968 0,35.951 0,12.21 0,24.42 0,36.631 0,12.39 0,24.78 0,37.17 0,12.259 0,24.518 0,36.777 0,12.082 0,24.164 0,36.246 0,11.598 0,23.195 0,34.793 0,11.06 0,22.12 0,33.18 0,10.226 0,20.453 0,30.679 0,9.324 0,18.649 0,27.973 0,8.145 0,16.289 0,24.434 0,6.875 0,13.749 0,20.624 0,5.353 0,10.706 0,16.059 0,3.711 0,7.422 0,11.133 0,1.851 0,3.703 0,5.554 0,4.735 0.515,9.434 1.671,14.031 1.749,6.955 4.872,13.55 9.136,19.316 4.371,5.909 9.924,10.921 16.249,14.664 6.323,3.742 13.381,6.192 20.66,7.184 3.615,0.493 7.228,0.501 10.863,0.501 5.282,0 10.565,0 15.847,0 8.663,0 17.326,0 25.989,0 10.883,0 21.766,0 32.648,0 12.145,0 24.289,0 36.434,0 12.208,0 24.416,0 36.624,0 11.328,0 22.656,0 33.984,0 9.258,0 18.516,0 27.774,0 6.213,0 12.425,0 18.638,0 1.512,0 3.024,0 4.536,0 0.314,-10e-4 1.334,-0.184 1.607,-10e-4 z"
         id="path13185"
         style="stroke:#80ffe6;stroke-opacity:1" />
    </g>
  </g>
</svg>
