<?xml version="1.0" encoding="UTF-8" standalone="no"?>
<svg
   xmlns:dc="http://purl.org/dc/elements/1.1/"
   xmlns:cc="http://creativecommons.org/ns#"
   xmlns:rdf="http://www.w3.org/1999/02/22-rdf-syntax-ns#"
   xmlns:svg="http://www.w3.org/2000/svg"
   xmlns="http://www.w3.org/2000/svg"
   xmlns:sodipodi="http://sodipodi.sourceforge.net/DTD/sodipodi-0.dtd"
   xmlns:inkscape="http://www.inkscape.org/namespaces/inkscape"
   width="15.072902mm"
   height="29.879473mm"
   viewBox="0 0 15.072902 29.879474"
   version="1.1"
   id="svg4830"
   inkscape:version="1.0.2 (e86c8708, 2021-01-15)"
   sodipodi:docname="ip11pro.svg">
  <defs
     id="defs4824" />
  <sodipodi:namedview
     id="base"
     pagecolor="#ffffff"
     bordercolor="#666666"
     borderopacity="1.0"
     inkscape:pageopacity="0.0"
     inkscape:pageshadow="2"
     inkscape:zoom="2.8696784"
     inkscape:cx="-5.3846806"
     inkscape:cy="111.21404"
     inkscape:document-units="mm"
     inkscape:current-layer="layer1"
     inkscape:document-rotation="0"
     showgrid="false"
     inkscape:window-width="1440"
     inkscape:window-height="872"
     inkscape:window-x="0"
     inkscape:window-y="28"
     inkscape:window-maximized="0" />
  <metadata
     id="metadata4827">
    <rdf:RDF>
      <cc:Work
         rdf:about="">
        <dc:format>image/svg+xml</dc:format>
        <dc:type
           rdf:resource="http://purl.org/dc/dcmitype/StillImage" />
        <dc:title></dc:title>
      </cc:Work>
    </rdf:RDF>
  </metadata>
  <g
     inkscape:label="Layer 1"
     inkscape:groupmode="layer"
     id="layer1"
     transform="translate(-78.629547,-152.3578)">
    <g
       id="g12638"
       transform="matrix(0.04163875,0,0,0.04163875,57.214339,149.35911)"
       style="stroke:#80ffe6;stroke-opacity:1">
      <path
         fill="none"
         stroke="#00b9d2"
         stroke-width="2"
         stroke-linecap="round"
         stroke-linejoin="round"
         stroke-miterlimit="10"
         d="m 624.962,188.506 c 4.161,3.181 9.222,5.071 14.462,5.307 5.255,0.236 10.525,-1.171 14.957,-4.008 4.432,-2.837 7.917,-7.033 9.903,-11.904 1.974,-4.841 2.406,-10.261 1.237,-15.356 -1.169,-5.094 -3.922,-9.784 -7.809,-13.279 -3.912,-3.518 -8.878,-5.774 -14.103,-6.394 -5.225,-0.62 -10.581,0.411 -15.208,2.916 -4.597,2.489 -8.371,6.403 -10.701,11.083 -2.329,4.679 -3.178,10.05 -2.392,15.219 0.791,5.201 3.197,10.096 6.841,13.891 0.875,0.91 1.817,1.749 2.813,2.525 z"
         id="path11412"
         style="stroke:#80ffe6;stroke-opacity:1" />
      <path
         fill="none"
         stroke="#00b9d2"
         stroke-width="2"
         stroke-linecap="round"
         stroke-linejoin="round"
         stroke-miterlimit="10"
         d="m 559.716,225.811 c 4.161,3.181 9.222,5.071 14.462,5.307 5.255,0.236 10.525,-1.171 14.957,-4.008 4.432,-2.837 7.917,-7.033 9.903,-11.904 1.974,-4.841 2.406,-10.261 1.237,-15.356 -1.169,-5.094 -3.922,-9.784 -7.809,-13.279 -3.912,-3.518 -8.878,-5.774 -14.103,-6.394 -5.225,-0.62 -10.581,0.411 -15.208,2.916 -4.597,2.489 -8.371,6.403 -10.7,11.083 -2.329,4.679 -3.178,10.05 -2.392,15.219 0.791,5.201 3.197,10.096 6.841,13.891 0.874,0.91 1.816,1.749 2.812,2.525 z"
         id="path11415"
         style="stroke:#80ffe6;stroke-opacity:1" />
      <path
         fill="none"
         stroke="#00b9d2"
         stroke-width="2"
         stroke-linecap="round"
         stroke-linejoin="round"
         stroke-miterlimit="10"
         d="m 559.716,151.085 c 4.161,3.181 9.222,5.071 14.462,5.307 5.255,0.236 10.525,-1.171 14.957,-4.008 4.432,-2.837 7.917,-7.033 9.903,-11.904 1.974,-4.841 2.406,-10.261 1.237,-15.356 -1.169,-5.094 -3.922,-9.784 -7.809,-13.279 -3.912,-3.518 -8.878,-5.774 -14.103,-6.394 -5.225,-0.62 -10.581,0.411 -15.208,2.916 -4.597,2.489 -8.371,6.403 -10.7,11.083 -2.329,4.679 -3.178,10.05 -2.392,15.219 0.791,5.201 3.197,10.096 6.841,13.891 0.874,0.91 1.816,1.749 2.812,2.525 z"
         id="path11418"
         style="stroke:#80ffe6;stroke-opacity:1" />
      <path
         fill="none"
         stroke="#00b9d2"
         stroke-width="2.75"
         stroke-linecap="round"
         stroke-linejoin="round"
         stroke-miterlimit="10"
         d="m 698.587,393.595 c 3.326,0.256 6.634,-0.927 9.371,-2.761 3.615,-2.424 6.31,-6.098 7.752,-10.189 0.736,-2.089 1.135,-4.305 1.079,-6.523 -0.01,-0.414 0.07,-1.226 -0.252,-1.358 -0.317,-0.13 -1.082,0.101 -1.417,0.155 -1.035,0.168 -2.052,0.445 -3.038,0.798 -4.095,1.468 -7.721,4.198 -10.162,7.805 -2.207,3.262 -3.69,7.267 -3.415,11.25 0.003,0.067 0.056,0.823 0.082,0.823 z"
         id="path11421"
         style="stroke:#80ffe6;stroke-opacity:1" />
      <path
         fill="none"
         stroke="#00b9d2"
         stroke-width="2.75"
         stroke-linecap="round"
         stroke-linejoin="round"
         stroke-miterlimit="10"
         d="m 723.375,420.794 c -0.039,-5.543 2.32,-10.699 6.306,-14.508 1.06,-1.012 2.216,-1.93 3.467,-2.696 0.127,-0.169 -1.58,-2.034 -1.771,-2.244 -0.584,-0.642 -1.21,-1.246 -1.874,-1.806 -1.38,-1.164 -2.919,-2.133 -4.557,-2.89 -3.222,-1.49 -6.92,-2.243 -10.471,-2.085 -3.989,0.178 -7.646,1.834 -11.324,3.218 -1.192,0.449 -2.472,0.952 -3.766,0.98 -1.104,0.024 -2.208,-0.321 -3.238,-0.677 -3.505,-1.212 -6.878,-2.971 -10.641,-3.221 -3.883,-0.258 -7.9,0.845 -11.266,2.747 -3.759,2.125 -6.828,5.339 -8.883,9.127 -2.131,3.928 -3.164,8.369 -3.407,12.811 -0.254,4.646 0.316,9.32 1.416,13.832 1.059,4.345 2.618,8.574 4.63,12.568 1.977,3.925 4.485,7.637 7.294,11.016 1.933,2.325 4.242,4.648 7.152,5.688 2.634,0.941 5.465,0.448 8.017,-0.524 2.007,-0.765 3.923,-1.735 6.026,-2.224 1.807,-0.421 3.693,-0.537 5.54,-0.379 3.881,0.333 7.052,2.654 10.816,3.332 2.375,0.428 4.814,0.183 6.985,-0.901 2.867,-1.432 5.041,-3.963 6.931,-6.482 2.627,-3.501 4.971,-7.192 6.768,-11.189 0.421,-0.937 0.813,-1.886 1.177,-2.847 0.203,-0.536 0.398,-1.076 0.577,-1.62 0.232,-0.704 0.289,-0.693 -0.322,-0.975 -1.702,-0.784 -3.291,-1.85 -4.712,-3.068 -3.033,-2.599 -5.252,-6.053 -6.236,-9.935 -0.417,-1.65 -0.615,-3.348 -0.634,-5.048"
         id="path11424"
         style="stroke:#80ffe6;stroke-opacity:1" />
      <line
         fill="none"
         stroke="#00b9d2"
         stroke-width="2"
         stroke-linecap="round"
         stroke-linejoin="round"
         stroke-miterlimit="10"
         x1="594.45801"
         y1="73.769997"
         x2="594.45801"
         y2="80.084"
         id="line11427"
         style="stroke:#80ffe6;stroke-opacity:1" />
      <line
         fill="none"
         stroke="#00b9d2"
         stroke-width="2"
         stroke-linecap="round"
         stroke-linejoin="round"
         stroke-miterlimit="10"
         x1="588.10797"
         y1="73.769997"
         x2="588.10797"
         y2="80.084"
         id="line11430"
         style="stroke:#80ffe6;stroke-opacity:1" />
      <line
         fill="none"
         stroke="#00b9d2"
         stroke-width="2"
         stroke-linecap="round"
         stroke-linejoin="round"
         stroke-miterlimit="10"
         x1="872.341"
         y1="149.955"
         x2="866.026"
         y2="149.955"
         id="line11433"
         style="stroke:#80ffe6;stroke-opacity:1" />
      <line
         fill="none"
         stroke="#00b9d2"
         stroke-width="2"
         stroke-linecap="round"
         stroke-linejoin="round"
         stroke-miterlimit="10"
         x1="872.341"
         y1="143.605"
         x2="866.026"
         y2="143.605"
         id="line11436"
         style="stroke:#80ffe6;stroke-opacity:1" />
      <line
         fill="none"
         stroke="#00b9d2"
         stroke-width="2"
         stroke-linecap="round"
         stroke-linejoin="round"
         stroke-miterlimit="10"
         x1="518.27301"
         y1="143.605"
         x2="524.58698"
         y2="143.605"
         id="line11439"
         style="stroke:#80ffe6;stroke-opacity:1" />
      <line
         fill="none"
         stroke="#00b9d2"
         stroke-width="2"
         stroke-linecap="round"
         stroke-linejoin="round"
         stroke-miterlimit="10"
         x1="518.27301"
         y1="149.955"
         x2="524.58698"
         y2="149.955"
         id="line11442"
         style="stroke:#80ffe6;stroke-opacity:1" />
      <path
         fill="none"
         stroke="#00b9d2"
         stroke-width="2"
         stroke-linecap="round"
         stroke-linejoin="round"
         stroke-miterlimit="10"
         d="m 574.4,781.541 c -7.341,-0.041 -14.601,-1.627 -21.249,-4.76 -7.196,-3.391 -13.531,-8.521 -18.357,-14.844 -4.684,-6.136 -7.9,-13.357 -9.336,-20.941 -0.638,-3.369 -0.871,-6.771 -0.871,-10.193 0,-2.053 0,-4.106 0,-6.159 0,-3.835 0,-7.67 0,-11.505 0,-5.448 0,-10.897 0,-16.346 0,-6.853 0,-13.706 0,-20.559 0,-8.164 0,-16.328 0,-24.492 0,-9.273 0,-18.546 0,-27.82 0,-10.185 0,-20.371 0,-30.556 0,-10.954 0,-21.908 0,-32.862 0,-11.588 0,-23.175 0,-34.763 0,-12.024 0,-24.048 0,-36.072 0,-12.225 0,-24.451 0,-36.676 0,-12.391 0,-24.783 0,-37.174 0,-12.324 0,-24.647 0,-36.971 0,-12.087 0,-24.174 0,-36.262 0,-11.621 0,-23.242 0,-34.863 0,-11.113 0,-22.226 0,-33.339 0,-10.372 0,-20.744 0,-31.117 0,-9.439 0,-18.878 0,-28.317 0,-8.368 0,-16.735 0,-25.103 0,-7.147 0,-14.294 0,-21.44 0,-5.733 0,-11.467 0,-17.2 0,-4.134 0,-8.267 0,-12.401 0,-2.411 0,-4.822 0,-7.233 0,-2.313 0.034,-4.617 0.278,-6.922 0.799,-7.541 3.338,-14.869 7.378,-21.287 4.221,-6.706 10.044,-12.362 16.871,-16.384 6.481,-3.819 13.819,-6.141 21.318,-6.737 2.875,-0.229 5.773,-0.159 8.655,-0.159 5.71,0 11.419,0 17.129,0 8.856,0 17.712,0 26.568,0 11.06,0 22.12,0 33.18,0 12.181,0 24.363,0 36.544,0 12.228,0 24.455,0 36.683,0 11.271,0 22.543,0 33.814,0 9.302,0 18.604,0 27.906,0 6.258,0 12.516,0 18.774,0 2.424,0 4.851,-0.03 7.275,0.006 7.397,0.111 14.745,1.889 21.373,5.175 7.131,3.535 13.382,8.788 18.079,15.215 4.517,6.181 7.581,13.385 8.885,20.929 0.546,3.159 0.728,6.342 0.728,9.541 0,2.123 0,4.246 0,6.369 0,3.899 0,7.798 0,11.696 0,5.489 0,10.978 0,16.468 0,6.921 0,13.841 0,20.762 0,8.209 0,16.418 0,24.626 0,9.312 0,18.623 0,27.935 0,10.189 0,20.378 0,30.566 0,11.008 0,22.017 0,33.025 0,11.607 0,23.214 0,34.821 0,12.037 0,24.074 0,36.111 0,12.232 0,24.464 0,36.697 0,12.392 0,24.784 0,37.176 0,12.318 0,24.635 0,36.953 0,12.075 0,24.15 0,36.225 0,11.603 0,23.205 0,34.808 0,11.088 0,22.176 0,33.264 0,10.341 0,20.682 0,31.023 0,9.402 0,18.803 0,28.205 0,8.324 0,16.648 0,24.972 0,7.097 0,14.193 0,21.29 0,5.677 0,11.354 0,17.031 0,4.071 0,8.142 0,12.214 0,2.342 0,4.684 0,7.026 0,2.554 -0.062,5.1 -0.379,7.641 -0.936,7.517 -3.595,14.79 -7.741,21.131 -4.334,6.63 -10.256,12.185 -17.149,16.088 -6.498,3.679 -13.809,5.863 -21.258,6.358 -2.792,0.186 -5.61,0.109 -8.406,0.109 -5.828,0 -11.657,0 -17.485,0 -8.976,0 -17.952,0 -26.928,0 -11.121,0 -22.242,0 -33.363,0 -12.203,0 -24.406,0 -36.609,0 -12.178,0 -24.357,0 -36.535,0 -11.247,0 -22.494,0 -33.741,0 -9.206,0 -18.413,0 -27.619,0 -6.123,0 -12.246,0 -18.37,0 -2.014,0.001 -4.028,0.001 -6.042,0.001 z"
         id="path11445"
         style="stroke:#80ffe6;stroke-opacity:1" />
      <line
         fill="none"
         stroke="#00b9d2"
         stroke-width="2"
         stroke-linecap="round"
         stroke-linejoin="round"
         stroke-miterlimit="10"
         x1="518.27301"
         y1="714.28101"
         x2="524.58698"
         y2="714.28101"
         id="line11448"
         style="stroke:#80ffe6;stroke-opacity:1" />
      <line
         fill="none"
         stroke="#00b9d2"
         stroke-width="2"
         stroke-linecap="round"
         stroke-linejoin="round"
         stroke-miterlimit="10"
         x1="518.27301"
         y1="720.63098"
         x2="524.58698"
         y2="720.63098"
         id="line11451"
         style="stroke:#80ffe6;stroke-opacity:1" />
      <line
         fill="none"
         stroke="#00b9d2"
         stroke-width="2"
         stroke-linecap="round"
         stroke-linejoin="round"
         stroke-miterlimit="10"
         x1="872.341"
         y1="720.63098"
         x2="866.026"
         y2="720.63098"
         id="line11454"
         style="stroke:#80ffe6;stroke-opacity:1" />
      <line
         fill="none"
         stroke="#00b9d2"
         stroke-width="2"
         stroke-linecap="round"
         stroke-linejoin="round"
         stroke-miterlimit="10"
         x1="872.341"
         y1="714.28101"
         x2="866.026"
         y2="714.28101"
         id="line11457"
         style="stroke:#80ffe6;stroke-opacity:1" />
      <line
         fill="none"
         stroke="#00b9d2"
         stroke-width="2"
         stroke-linecap="round"
         stroke-linejoin="round"
         stroke-miterlimit="10"
         x1="805.11603"
         y1="787.85498"
         x2="805.11603"
         y2="781.54102"
         id="line11460"
         style="stroke:#80ffe6;stroke-opacity:1" />
      <line
         fill="none"
         stroke="#00b9d2"
         stroke-width="2"
         stroke-linecap="round"
         stroke-linejoin="round"
         stroke-miterlimit="10"
         x1="798.76599"
         y1="787.85498"
         x2="798.76599"
         y2="781.54102"
         id="line11463"
         style="stroke:#80ffe6;stroke-opacity:1" />
      <path
         fill="none"
         stroke="#00b9d2"
         stroke-width="2.75"
         stroke-linecap="round"
         stroke-linejoin="round"
         stroke-miterlimit="10"
         d="m 646.431,219.87 c -0.002,-2.438 -1.573,-4.673 -3.87,-5.495 -2.295,-0.822 -4.931,-0.093 -6.478,1.791 -1.547,1.884 -1.749,4.611 -0.497,6.702 1.252,2.092 3.751,3.201 6.143,2.727 2.383,-0.473 4.264,-2.439 4.633,-4.84 0.047,-0.292 0.069,-0.588 0.069,-0.885 z"
         id="path11710"
         style="stroke:#80ffe6;stroke-opacity:1" />
      <path
         fill="none"
         stroke="#00b9d2"
         stroke-width="2.75"
         stroke-linecap="round"
         stroke-linejoin="round"
         stroke-miterlimit="10"
         d="m 653.612,118.03 c -0.01,-5.439 -3.505,-10.42 -8.63,-12.255 -5.119,-1.832 -10.996,-0.208 -14.447,3.994 -3.451,4.203 -3.899,10.282 -1.107,14.948 2.792,4.665 8.368,7.139 13.7,6.081 5.311,-1.054 9.514,-5.44 10.334,-10.794 0.055,-0.365 0.374,-1.674 0.15,-1.974 z"
         id="path11713"
         style="stroke:#80ffe6;stroke-opacity:1" />
      <path
         fill="none"
         stroke="#00b9d2"
         stroke-width="2.75"
         stroke-linecap="round"
         stroke-linejoin="round"
         stroke-miterlimit="10"
         d="m 621.93,192.431 c 4.993,3.787 10.992,6.049 17.267,6.336 6.272,0.287 12.569,-1.401 17.857,-4.785 5.287,-3.384 9.46,-8.397 11.823,-14.212 2.351,-5.785 2.874,-12.246 1.476,-18.333 -1.397,-6.087 -4.685,-11.673 -9.323,-15.854 -4.663,-4.203 -10.604,-6.894 -16.837,-7.634 -6.235,-0.74 -12.638,0.487 -18.157,3.481 -5.488,2.977 -9.993,7.642 -12.775,13.232 -2.783,5.59 -3.789,11.996 -2.856,18.17 0.938,6.208 3.819,12.057 8.168,16.585 1.045,1.086 2.172,2.082 3.357,3.014 z"
         id="path11716"
         style="stroke:#80ffe6;stroke-opacity:1" />
      <path
         fill="none"
         stroke="#00b9d2"
         stroke-width="2.75"
         stroke-linecap="round"
         stroke-linejoin="round"
         stroke-miterlimit="10"
         d="m 575.349,95.415 c -3.63,0.007 -7.25,0.56 -10.71,1.658 -3.543,1.125 -6.905,2.806 -9.926,4.972 -3.122,2.238 -5.873,4.982 -8.118,8.1 -2.172,3.018 -3.864,6.376 -4.996,9.918 -1.108,3.469 -1.663,7.09 -1.681,10.73 -0.018,3.596 0,7.192 0,10.787 0,6.368 0,12.735 0,19.103 0,2.671 0,5.342 0,8.013 0,4.678 0,9.357 0,14.035 0,6.107 0,12.214 0,18.321 0,2.973 -0.096,5.961 0.274,8.918 0.445,3.554 1.432,7.041 2.919,10.3 1.568,3.436 3.685,6.619 6.255,9.388 2.592,2.794 5.634,5.168 8.979,6.996 3.188,1.742 6.642,2.994 10.209,3.689 3.011,0.587 6.024,0.658 9.079,0.658 5.909,0 11.819,0 17.728,0 3.566,0 7.132,0 10.698,0 4.391,0 8.781,0 13.172,0 5.944,0 11.888,0 17.832,0 2.973,0 5.925,0.02 8.871,-0.46 3.559,-0.58 7.027,-1.703 10.247,-3.327 3.408,-1.718 6.535,-3.986 9.222,-6.697 2.667,-2.691 4.899,-5.808 6.581,-9.203 1.61,-3.248 2.718,-6.739 3.273,-10.322 0.449,-2.899 0.418,-5.804 0.418,-8.726 0,-5.855 0,-11.71 0,-17.566 0,-5.127 0,-10.254 0,-15.38 0,-2.354 0,-4.708 0,-7.062 0,-6.271 0,-12.542 0,-18.813 0,-4.158 0.009,-8.316 0,-12.474 -0.007,-3.34 -0.448,-6.661 -1.368,-9.874 -1.021,-3.566 -2.605,-6.971 -4.679,-10.047 -2.132,-3.162 -4.773,-5.977 -7.798,-8.299 -2.972,-2.281 -6.304,-4.091 -9.839,-5.331 -3.364,-1.18 -6.899,-1.849 -10.462,-1.981 -3.655,-0.135 -7.331,-0.024 -10.988,-0.024 -6.263,0 -12.526,0 -18.789,0 -2.508,0 -5.017,0 -7.525,0 -5.716,0 -11.432,0 -17.148,0 -0.677,0 -11.73,0 -11.73,0 z"
         id="path11719"
         style="stroke:#80ffe6;stroke-opacity:1" />
      <path
         fill="none"
         stroke="#00b9d2"
         stroke-width="2.75"
         stroke-linecap="round"
         stroke-linejoin="round"
         stroke-miterlimit="10"
         d="m 556.684,229.736 c 4.993,3.787 10.992,6.049 17.267,6.336 6.272,0.287 12.569,-1.401 17.857,-4.785 5.287,-3.384 9.46,-8.397 11.823,-14.212 2.351,-5.785 2.874,-12.246 1.476,-18.333 -1.397,-6.087 -4.685,-11.673 -9.323,-15.854 -4.663,-4.203 -10.604,-6.894 -16.837,-7.634 -6.235,-0.74 -12.638,0.487 -18.156,3.481 -5.488,2.977 -9.993,7.642 -12.775,13.232 -2.783,5.59 -3.789,11.996 -2.856,18.17 0.938,6.208 3.819,12.057 8.168,16.585 0.512,0.533 1.043,1.047 1.592,1.542 0.318,0.285 1.349,1.472 1.764,1.472 z"
         id="path11722"
         style="stroke:#80ffe6;stroke-opacity:1" />
      <path
         fill="none"
         stroke="#00b9d2"
         stroke-width="2.75"
         stroke-linecap="round"
         stroke-linejoin="round"
         stroke-miterlimit="10"
         d="m 556.684,155.01 c 4.993,3.787 10.992,6.049 17.267,6.336 6.272,0.287 12.569,-1.401 17.857,-4.785 5.287,-3.384 9.46,-8.397 11.823,-14.212 2.351,-5.785 2.874,-12.246 1.476,-18.333 -1.398,-6.087 -4.685,-11.673 -9.323,-15.854 -4.663,-4.203 -10.604,-6.894 -16.837,-7.634 -6.235,-0.74 -12.638,0.487 -18.156,3.481 -5.488,2.977 -9.993,7.642 -12.775,13.232 -2.783,5.59 -3.789,11.996 -2.856,18.17 0.938,6.208 3.819,12.057 8.168,16.585 0.266,0.276 3.36,3.006 3.356,3.014 z"
         id="path11725"
         style="stroke:#80ffe6;stroke-opacity:1" />
      <path
         fill="none"
         stroke="#00b9d2"
         stroke-width="2.75"
         stroke-linecap="round"
         stroke-linejoin="round"
         stroke-miterlimit="10"
         d="m 574.4,787.855 c -7.754,-0.043 -15.442,-1.607 -22.548,-4.729 -6.932,-3.045 -13.224,-7.492 -18.402,-13.016 -5.145,-5.489 -9.157,-12.007 -11.749,-19.069 -2.277,-6.204 -3.414,-12.782 -3.428,-19.388 -0.003,-1.358 0,-2.717 0,-4.075 0,-3.281 0,-6.563 0,-9.844 0,-5.026 0,-10.053 0,-15.079 0,-6.592 0,-13.184 0,-19.776 0,-7.978 0,-15.956 0,-23.934 0,-9.236 0,-18.472 0,-27.707 0,-10.217 0,-20.433 0,-30.65 0,-11.063 0,-22.126 0,-33.189 0,-11.73 0,-23.46 0,-35.191 0,-12.283 0,-24.566 0,-36.849 0,-12.527 0,-25.054 0,-37.581 0,-12.654 0,-25.309 0,-37.963 0,-12.602 0,-25.205 0,-37.807 0,-12.371 0,-24.742 0,-37.113 0,-12.022 0,-24.043 0,-36.065 0,-11.366 0,-22.732 0,-34.098 0,-10.595 0,-21.19 0,-31.785 0,-9.644 0,-19.289 0,-28.933 0,-8.556 0,-17.112 0,-25.668 0,-7.197 0,-14.395 0,-21.592 0,-5.707 0,-11.415 0,-17.122 0,-4.038 0,-8.076 0,-12.114 0,-2.189 0,-4.378 0,-6.567 0,-3.805 0.254,-7.588 0.95,-11.336 1.353,-7.284 4.172,-14.279 8.228,-20.477 4.21,-6.433 9.758,-11.981 16.191,-16.191 6.198,-4.056 13.193,-6.875 20.477,-8.228 4.257,-0.791 8.529,-0.95 12.841,-0.95 5.031,0 10.063,0 15.094,0 8.582,0 17.164,0 25.746,0 11.021,0 22.043,0 33.064,0 12.349,0 24.699,0 37.048,0 12.63,0 25.261,0 37.892,0 11.663,0 23.326,0 34.989,0 9.651,0 19.302,0 28.952,0 6.527,0 13.054,0 19.581,0 2.636,0 5.276,-0.038 7.912,0.01 7.648,0.14 15.248,1.859 22.211,5.026 6.932,3.153 13.21,7.727 18.324,13.371 5.037,5.558 8.929,12.102 11.414,19.178 2.104,5.99 3.139,12.311 3.152,18.656 0.003,1.433 0,2.866 0,4.299 0,3.349 0,6.697 0,10.046 0,5.087 0,10.174 0,15.262 0,6.646 0,13.292 0,19.939 0,8.071 0,16.143 0,24.214 0,9.231 0,18.463 0,27.694 0,10.251 0,20.502 0,30.753 0,11.091 0,22.182 0,33.273 0,11.783 0,23.566 0,35.349 0,12.266 0,24.532 0,36.798 0,12.535 0,25.07 0,37.604 0,12.656 0,25.311 0,37.967 0,12.597 0,25.194 0,37.792 0,12.423 0,24.846 0,37.269 0,11.939 0,23.878 0,35.816 0,11.341 0,22.681 0,34.022 0,10.563 0,21.126 0,31.689 0,9.63 0,19.26 0,28.889 0,8.487 0,16.973 0,25.46 0,7.146 0,14.292 0,21.437 0,5.649 0,11.298 0,16.947 0,3.973 0,7.946 0,11.919 0,2.123 0,4.247 0,6.37 0,4.1 -0.32,8.174 -1.148,12.196 -1.483,7.204 -4.385,14.085 -8.504,20.179 -4.291,6.348 -9.9,11.79 -16.366,15.9 -6.286,3.996 -13.355,6.709 -20.696,7.964 -4.084,0.698 -8.177,0.796 -12.302,0.796 -5.182,0 -10.364,0 -15.546,0 -8.692,0 -17.383,0 -26.075,0 -11.09,0 -22.18,0 -33.27,0 -12.444,0 -24.887,0 -37.331,0 -12.55,0 -25.101,0 -37.652,0 -11.609,0 -23.217,0 -34.826,0 -9.555,0 -19.111,0 -28.666,0 -6.402,0 -12.805,0 -19.207,0 -2.115,0.002 -4.232,0.002 -6.35,0.002 z"
         id="path11728"
         style="stroke:#80ffe6;stroke-opacity:1" />
      <path
         fill="none"
         stroke="#00b9d2"
         stroke-width="2.75"
         stroke-linecap="round"
         stroke-linejoin="round"
         stroke-miterlimit="10"
         d="m 874.82,281.86 c -0.393,0 -2.256,-0.255 -2.479,0 -0.047,0.053 0.012,0.294 0,0.363 -0.151,0.847 0,1.864 0,2.722 0,3.737 0,7.475 0,11.212 0,9.189 0,18.379 0,27.568 0,1.459 0,2.917 0,4.376 0,0.387 -0.234,1.753 0,2.081 0.156,0.219 2.327,0.222 2.479,0 0.239,-0.349 0,-1.718 0,-2.126 0,-8.26 0,-16.519 0,-24.779 0,-7.018 0,-14.036 0,-21.055 0,-0.12 0,-0.241 0,-0.362 z"
         id="path11731"
         style="stroke:#80ffe6;stroke-opacity:1" />
      <path
         fill="none"
         stroke="#00b9d2"
         stroke-width="2.75"
         stroke-linecap="round"
         stroke-linejoin="round"
         stroke-miterlimit="10"
         d="m 874.82,221.056 c -0.393,0 -2.256,-0.255 -2.479,0 -0.047,0.053 0.012,0.294 0,0.363 -0.151,0.847 0,1.864 0,2.722 0,3.737 0,7.475 0,11.212 0,9.189 0,18.379 0,27.568 0,1.459 0,2.917 0,4.376 0,0.387 -0.234,1.753 0,2.081 0.156,0.219 2.327,0.222 2.479,0 0.239,-0.349 0,-1.718 0,-2.126 0,-8.26 0,-16.519 0,-24.779 0,-7.018 0,-14.036 0,-21.055 0,-0.12 0,-0.241 0,-0.362 z"
         id="path11734"
         style="stroke:#80ffe6;stroke-opacity:1" />
      <path
         fill="none"
         stroke="#00b9d2"
         stroke-width="2.75"
         stroke-linecap="round"
         stroke-linejoin="round"
         stroke-miterlimit="10"
         d="m 874.82,172.327 c -0.446,0 -0.892,0 -1.337,0 -0.147,0 -1.037,-0.103 -1.142,0.008 -0.103,0.11 0,0.817 0,0.96 0,1.881 0,3.762 0,5.642 0,5.094 0,10.187 0,15.281 0,1.278 0,2.556 0,3.834 0,-0.1 2.334,0.146 2.479,-0.008 0.103,-0.11 0,-0.817 0,-0.96 0,-1.881 0,-3.762 0,-5.642 0,-5.094 0,-10.187 0,-15.281 0,-1.278 0,-2.556 0,-3.834 z"
         id="path11737"
         style="stroke:#80ffe6;stroke-opacity:1" />
      <path
         fill="none"
         stroke="#00b9d2"
         stroke-width="2.75"
         stroke-linecap="round"
         stroke-linejoin="round"
         stroke-miterlimit="10"
         d="m 518.273,236.737 c -0.482,0 -2.243,-0.244 -2.479,0.068 -0.107,0.142 0,0.789 0,0.96 0,1.619 0,3.237 0,4.856 0,6.014 0,12.029 0,18.043 0,7.666 0,15.332 0,22.998 0,6.728 0,13.457 0,20.185 0,2.246 0,4.491 0,6.737 0,0.695 0,1.39 0,2.086 0,0.242 -0.122,0.894 0,1.108 0.167,0.292 1.795,0.267 2.196,0.133 0.393,-0.131 0.246,0.04 0.283,-0.419 0.106,-1.292 0,-2.638 0,-3.933 0,-5.637 0,-11.274 0,-16.911 0,-7.602 0,-15.204 0,-22.806 0,-7.003 0,-14.006 0,-21.01 0,-3.851 0,-7.702 0,-11.553 0,-0.181 0,-0.361 0,-0.542 z"
         id="path11740"
         style="stroke:#80ffe6;stroke-opacity:1" />
      <path
         fill="none"
         stroke="#00b9d2"
         stroke-width="3.5"
         stroke-linecap="round"
         stroke-linejoin="round"
         stroke-miterlimit="10"
         d="m 574.4,787.855 c 2.493,0 4.985,0 7.478,0 6.681,0 13.362,0 20.043,0 9.758,0 19.516,0 29.274,0 11.723,0 23.447,0 35.17,0 12.644,0 25.288,0 37.932,0 12.316,0 24.632,0 36.948,0 10.941,0 21.882,0 32.823,0 8.455,0 16.91,0 25.365,0 4.857,0 9.715,0 14.572,0 4.594,0 9.143,-0.238 13.658,-1.181 7.199,-1.503 14.083,-4.426 20.16,-8.568 6.302,-4.295 11.697,-9.876 15.785,-16.313 3.996,-6.293 6.707,-13.382 7.949,-20.731 0.59,-3.493 0.782,-7.01 0.782,-10.546 0,-2.27 0,-4.541 0,-6.811 0,-4.112 0,-8.224 0,-12.336 0,-5.774 0,-11.548 0,-17.321 0,-7.256 0,-14.513 0,-21.769 0,-8.607 0,-17.215 0,-25.822 0,-9.688 0,-19.376 0,-29.064 0,-10.631 0,-21.262 0,-31.893 0,-11.394 0,-22.789 0,-34.183 0,-12.043 0,-24.085 0,-36.128 0,-12.384 0,-24.769 0,-37.153 0,-12.608 0,-25.217 0,-37.825 0,-12.653 0,-25.305 0,-37.958 0,-12.518 0,-25.035 0,-37.553 0,-12.266 0,-24.532 0,-36.798 0,-11.706 0,-23.411 0,-35.117 0,-11.031 0,-22.062 0,-33.093 0,-10.177 0,-20.354 0,-30.531 0,-9.188 0,-18.377 0,-27.565 0,-7.923 0,-15.847 0,-23.77 0,-6.53 0,-13.059 0,-19.589 0,-4.957 0,-9.913 0,-14.87 0,-3.204 0,-6.408 0,-9.612 0,-1.273 0.003,-2.546 0,-3.819 -0.016,-6.862 -1.257,-13.686 -3.707,-20.099 -2.713,-7.099 -6.887,-13.624 -12.184,-19.072 -5.268,-5.418 -11.633,-9.746 -18.606,-12.659 -6.848,-2.86 -14.225,-4.318 -21.644,-4.336 -2.667,-0.007 -5.333,0 -8,0 -6.814,0 -13.628,0 -20.442,0 -9.85,0 -19.7,0 -29.55,0 -11.775,0 -23.549,0 -35.324,0 -12.654,0 -25.308,0 -37.963,0 -12.285,0 -24.57,0 -36.855,0 -10.869,0 -21.739,0 -32.608,0 -8.342,0 -16.684,0 -25.027,0 -4.717,0 -9.434,0 -14.151,0 -4.733,0 -9.415,0.306 -14.052,1.336 -7.226,1.605 -14.127,4.652 -20.174,8.923 -6.221,4.394 -11.511,10.037 -15.5,16.525 -3.937,6.405 -6.554,13.612 -7.665,21.046 -0.479,3.204 -0.617,6.423 -0.617,9.656 0,2.341 0,4.683 0,7.024 0,4.176 0,8.353 0,12.529 0,5.832 0,11.663 0,17.495 0,7.35 0,14.699 0,22.049 0,8.61 0,17.22 0,25.83 0,9.726 0,19.452 0,29.178 0,10.662 0,21.325 0,31.987 0,11.45 0,22.9 0,34.35 0,12.03 0,24.06 0,36.09 0,12.396 0,24.792 0,37.187 0,12.613 0,25.226 0,37.839 0,12.651 0,25.302 0,37.953 0,12.574 0,25.149 0,37.723 0,12.186 0,24.372 0,36.557 0,11.684 0,23.368 0,35.052 0,11.003 0,22.006 0,33.009 0,10.167 0,20.335 0,30.503 0,9.121 0,18.243 0,27.364 0,7.875 0,15.75 0,23.625 0,6.475 0,12.95 0,19.425 0,4.895 0,9.79 0,14.685 0,3.147 0,6.295 0,9.442 0,1.186 -0.003,2.373 0,3.559 0.018,7.134 1.367,14.217 4.008,20.845 2.807,7.044 7.07,13.499 12.431,18.86 5.378,5.378 11.853,9.644 18.92,12.455 3.07,1.221 6.244,2.17 9.48,2.836 1.874,0.386 3.767,0.673 5.671,0.866 0.962,0.097 1.927,0.168 2.893,0.215 0.31,0.015 2.644,-0.098 2.727,0.067 z"
         id="path11786"
         style="stroke:#80ffe6;stroke-opacity:1" />
    </g>
  </g>
</svg>
