<?xml version="1.0" encoding="UTF-8" standalone="no"?>
<svg
   xmlns:dc="http://purl.org/dc/elements/1.1/"
   xmlns:cc="http://creativecommons.org/ns#"
   xmlns:rdf="http://www.w3.org/1999/02/22-rdf-syntax-ns#"
   xmlns:svg="http://www.w3.org/2000/svg"
   xmlns="http://www.w3.org/2000/svg"
   width="14.896039mm"
   height="30.066921mm"
   viewBox="0 0 14.896039 30.066922"
   version="1.1"
   id="svg4830">
  <defs
     id="defs4824">
    <filter
       style="color-interpolation-filters:sRGB"
       id="filter19860"
       x="-1.8403634e-19"
       width="1"
       y="-9.117703e-20"
       height="1">
      <feGaussianBlur
         stdDeviation="1.4795343e-18"
         id="feGaussianBlur19862" />
    </filter>
  </defs>
  <metadata
     id="metadata4827">
    <rdf:RDF>
      <cc:Work
         rdf:about="">
        <dc:format>image/svg+xml</dc:format>
        <dc:type
           rdf:resource="http://purl.org/dc/dcmitype/StillImage" />
        <dc:title></dc:title>
      </cc:Work>
    </rdf:RDF>
  </metadata>
  <g
     id="layer1"
     transform="translate(-70.19643,-169.15296)">
    <g
       id="g6774"
       style="stroke:#80ffe6;stroke-opacity:1;filter:url(#filter19860)"
       transform="matrix(0.772037,0,0,0.772037,28.80661,131.87239)">
      <path
         fill="none"
         stroke="#00b9d2"
         stroke-width="0.166605"
         stroke-linecap="round"
         stroke-linejoin="round"
         stroke-miterlimit="10"
         d="m 69.744411,86.947096 c 0.920324,0.0022 1.794247,-0.475407 2.288812,-1.252115 0.159857,-0.249658 0.279313,-0.527469 0.350203,-0.815362 0.04832,-0.196512 0.07514,-0.401186 0.07855,-0.603526 0.0088,-0.10971 -0.005,-32.915039 0,-33.028747 0,-8.3e-5 -0.0013,-0.04698 -0.0013,-0.04698 l -0.002,-0.0469 c -0.01058,-0.201758 -0.04415,-0.406099 -0.09938,-0.600443 -0.194094,-0.69399 -0.67683,-1.299764 -1.31051,-1.643303 -0.218835,-0.119538 -0.456496,-0.210004 -0.699656,-0.265317 -0.135782,-0.03049 -0.278396,-0.0524 -0.417261,-0.06164 -0.02316,-0.0036 -0.07039,-0.0026 -0.09372,-0.0048 -0.02324,-0.003 -0.07056,0 -0.0938,-0.0016 -0.0484,0.0044 -12.974654,-0.0037 -13.018804,4.1e-4 -0.09113,0.0026 -0.190346,0.0077 -0.280812,0.01941 -0.748387,0.08838 -1.445626,0.501396 -1.882213,1.11575 -0.06214,0.08797 -0.123288,0.183264 -0.174602,0.277896 -0.157358,0.287642 -0.262652,0.605523 -0.307635,0.930319 -0.01208,0.09138 -0.02141,0.18843 -0.02424,0.280312 -0.02283,0.126619 0.01258,32.932448 -0.0013,33.075563 8.3e-5,8.2e-5 0.0013,0.04698 0.0013,0.04698 l 0.002,0.0469 0.0028,0.04682 0.0037,0.04673 c 0.01491,0.169851 0.04623,0.342788 0.09288,0.506894 0.194095,0.693989 0.676831,1.299763 1.310511,1.643301 0.205007,0.111958 0.42709,0.19876 0.654006,0.254491 0.119872,0.0289 0.246658,0.05206 0.369445,0.06439 0.05906,0.0043 0.128035,0.01215 0.18718,0.01291 0.02324,0.0031 0.07056,0 0.0938,0.0016 0,0 12.971989,0 12.971989,0 z"
         id="path5162"
         style="stroke:#80ffe6;stroke-opacity:1" />
      <line
         fill="none"
         stroke="#00b9d2"
         stroke-width="0.166605"
         stroke-linecap="round"
         stroke-linejoin="round"
         stroke-miterlimit="10"
         x1="68.971123"
         y1="87.23349"
         x2="68.971123"
         y2="86.947098"
         id="line5165"
         style="stroke:#80ffe6;stroke-opacity:1" />
      <line
         fill="none"
         stroke="#00b9d2"
         stroke-width="0.166605"
         stroke-linecap="round"
         stroke-linejoin="round"
         stroke-miterlimit="10"
         x1="68.571266"
         y1="86.947098"
         x2="68.571266"
         y2="87.23349"
         id="line5168"
         style="stroke:#80ffe6;stroke-opacity:1" />
      <line
         fill="none"
         stroke="#00b9d2"
         stroke-width="0.166605"
         stroke-linecap="round"
         stroke-linejoin="round"
         stroke-miterlimit="10"
         x1="57.88942"
         y1="48.57626"
         x2="57.88942"
         y2="48.289867"
         id="line5171"
         style="stroke:#80ffe6;stroke-opacity:1" />
      <line
         fill="none"
         stroke="#00b9d2"
         stroke-width="0.166605"
         stroke-linecap="round"
         stroke-linejoin="round"
         stroke-miterlimit="10"
         x1="57.489571"
         y1="48.289867"
         x2="57.489571"
         y2="48.57626"
         id="line5174"
         style="stroke:#80ffe6;stroke-opacity:1" />
      <line
         fill="none"
         stroke="#00b9d2"
         stroke-width="0.166605"
         stroke-linecap="round"
         stroke-linejoin="round"
         stroke-miterlimit="10"
         x1="53.768044"
         y1="52.610172"
         x2="54.05444"
         y2="52.610172"
         id="line5177"
         style="stroke:#80ffe6;stroke-opacity:1" />
      <line
         fill="none"
         stroke="#00b9d2"
         stroke-width="0.166605"
         stroke-linecap="round"
         stroke-linejoin="round"
         stroke-miterlimit="10"
         x1="54.05444"
         y1="52.21032"
         x2="53.768044"
         y2="52.21032"
         id="line5180"
         style="stroke:#80ffe6;stroke-opacity:1" />
      <line
         fill="none"
         stroke="#00b9d2"
         stroke-width="0.166605"
         stroke-linecap="round"
         stroke-linejoin="round"
         stroke-miterlimit="10"
         x1="72.462395"
         y1="52.610172"
         x2="72.748795"
         y2="52.610172"
         id="line5183"
         style="stroke:#80ffe6;stroke-opacity:1" />
      <line
         fill="none"
         stroke="#00b9d2"
         stroke-width="0.166605"
         stroke-linecap="round"
         stroke-linejoin="round"
         stroke-miterlimit="10"
         x1="72.748795"
         y1="52.21032"
         x2="72.462395"
         y2="52.21032"
         id="line5186"
         style="stroke:#80ffe6;stroke-opacity:1" />
      <line
         fill="none"
         stroke="#00b9d2"
         stroke-width="0.166605"
         stroke-linecap="round"
         stroke-linejoin="round"
         stroke-miterlimit="10"
         x1="72.462395"
         y1="83.332779"
         x2="72.748795"
         y2="83.332779"
         id="line5189"
         style="stroke:#80ffe6;stroke-opacity:1" />
      <line
         fill="none"
         stroke="#00b9d2"
         stroke-width="0.166605"
         stroke-linecap="round"
         stroke-linejoin="round"
         stroke-miterlimit="10"
         x1="72.748795"
         y1="82.93293"
         x2="72.462395"
         y2="82.93293"
         id="line5192"
         style="stroke:#80ffe6;stroke-opacity:1" />
      <line
         fill="none"
         stroke="#00b9d2"
         stroke-width="0.166605"
         stroke-linecap="round"
         stroke-linejoin="round"
         stroke-miterlimit="10"
         x1="53.768044"
         y1="83.332779"
         x2="54.05444"
         y2="83.332779"
         id="line5195"
         style="stroke:#80ffe6;stroke-opacity:1" />
      <line
         fill="none"
         stroke="#00b9d2"
         stroke-width="0.166605"
         stroke-linecap="round"
         stroke-linejoin="round"
         stroke-miterlimit="10"
         x1="54.05444"
         y1="82.93293"
         x2="53.768044"
         y2="82.93293"
         id="line5198"
         style="stroke:#80ffe6;stroke-opacity:1" />
      <path
         fill="none"
         stroke="#00b9d2"
         stroke-width="0.229081"
         stroke-linecap="round"
         stroke-linejoin="round"
         stroke-miterlimit="10"
         d="m 64.713041,67.225129 c -0.0019,-0.162356 0.03399,-0.325379 0.10621,-0.470908 0.09497,-0.190928 0.245825,-0.354201 0.426591,-0.467075 -0.0808,-0.118623 -0.184848,-0.221667 -0.305219,-0.299972 -0.176934,-0.115123 -0.386273,-0.178849 -0.596694,-0.189012 -0.140448,-0.01433 -0.282062,0.0125 -0.415845,0.0544 -0.129035,0.03899 -0.284227,0.110959 -0.413012,0.15086 -0.03965,0.01166 -0.08255,0.02199 -0.123871,0.02041 -0.06947,-0.0031 -0.136699,-0.02716 -0.201508,-0.05073 l -0.202508,-0.07864 c -0.104877,-0.0389 -0.214003,-0.07264 -0.325878,-0.08197 -0.127536,-0.0092 -0.25732,0.0086 -0.379941,0.04398 -0.242326,0.07089 -0.458829,0.222834 -0.613521,0.421843 -0.103795,0.132783 -0.180016,0.286809 -0.229415,0.447749 -0.201091,0.662586 0.01424,1.484612 0.362948,2.064979 0.09197,0.147278 0.195927,0.293474 0.307219,0.426674 0.111042,0.128618 0.242076,0.254155 0.409597,0.301304 0.09721,0.02749 0.200925,0.01733 0.297722,-0.0069 0.08055,-0.01941 0.188013,-0.06889 0.265234,-0.100546 0.176601,-0.07439 0.368446,-0.09738 0.557209,-0.06231 0.106127,0.01874 0.217002,0.06956 0.315882,0.111958 0.05531,0.02307 0.112958,0.04332 0.171852,0.05498 0.06789,0.01333 0.138115,0.01724 0.206923,0.0097 0.280895,-0.03315 0.468992,-0.27548 0.622934,-0.490233 0.171186,-0.234912 0.313716,-0.495565 0.405599,-0.771629 l 0.01324,-0.04148 -0.0086,-0.0035 c -0.203508,-0.09047 -0.380942,-0.242909 -0.498148,-0.432505 -0.103794,-0.167604 -0.153942,-0.365114 -0.155025,-0.561374"
         id="path5201"
         style="stroke:#80ffe6;stroke-opacity:1" />
      <path
         fill="none"
         stroke="#00b9d2"
         stroke-width="0.229081"
         stroke-linecap="round"
         stroke-linejoin="round"
         stroke-miterlimit="10"
         d="m 63.361546,65.742183 c 0.148777,0.01158 0.297971,-0.03041 0.428256,-0.10063 0.181016,-0.09688 0.328211,-0.250489 0.426341,-0.430006 0.101212,-0.183015 0.155942,-0.396102 0.132701,-0.60544 -0.140698,0.0064 -0.277313,0.05365 -0.401267,0.118706 -0.164855,0.0868 -0.309718,0.21292 -0.411347,0.369528 -0.123953,0.189346 -0.20409,0.419677 -0.174684,0.647842 z"
         id="path5204"
         style="stroke:#80ffe6;stroke-opacity:1" />
      <path
         fill="none"
         stroke="#00b9d2"
         stroke-width="0.166605"
         stroke-linecap="round"
         stroke-linejoin="round"
         stroke-miterlimit="10"
         d="m 57.016999,57.425122 c -0.747221,0.0017 -1.431466,-0.453247 -1.718942,-1.14324 -0.0953,-0.227081 -0.145112,-0.474406 -0.144946,-0.72073 0,0 0,-4.014584 0,-4.014584 l 2.5e-4,-0.03215 c 0.0013,-0.06256 0.0057,-0.130368 0.01333,-0.192511 0.02191,-0.180433 0.07089,-0.359283 0.144113,-0.525637 0.256654,-0.588447 0.813446,-1.009457 1.449709,-1.095924 0.0838,-0.0115 0.172019,-0.01783 0.256571,-0.01774 h 3.540761 l 0.03215,2.5e-4 c 0.04007,0.0012 0.08847,0.0029 0.128535,0.0067 0.116624,0.01016 0.234996,0.03174 0.347621,0.06373 0.247324,0.06997 0.480737,0.192428 0.678829,0.356283 0.390521,0.320047 0.639512,0.804533 0.672333,1.308428 0.0023,0.04049 0.0047,0.08813 0.0044,0.128619 0,0 0,4.014584 0,4.014584 l -2.5e-4,0.03215 c -0.0016,0.08447 -0.009,0.172769 -0.02216,0.256238 -0.01483,0.09421 -0.03757,0.190679 -0.06681,0.281478 -0.0948,0.295973 -0.265651,0.568038 -0.491234,0.781791 -0.232996,0.221668 -0.525053,0.381442 -0.837353,0.458079 -0.103212,0.02532 -0.211421,0.0424 -0.317465,0.04973 -0.0404,0.0023 -0.08813,0.0047 -0.128619,0.0044 -8.3e-5,8.3e-5 -3.540844,8.3e-5 -3.540844,8.3e-5 z"
         id="path5327"
         style="stroke:#80ffe6;stroke-opacity:1" />
      <path
         fill="none"
         stroke="#00b9d2"
         stroke-width="0.166605"
         stroke-linecap="round"
         stroke-linejoin="round"
         stroke-miterlimit="10"
         d="m 61.916919,53.553901 c 0.0017,-0.443001 -0.228332,-0.868092 -0.600193,-1.109002 -0.680246,-0.443084 -1.593905,-0.1776 -1.930612,0.561124 -0.157692,0.342872 -0.157692,0.752969 0,1.095841 0.336791,0.738724 1.250366,1.004208 1.930612,0.561123 0.371778,-0.240993 0.601858,-0.666001 0.600193,-1.109086 z"
         id="path5330"
         style="stroke:#80ffe6;stroke-opacity:1" />
      <path
         fill="none"
         stroke="#00b9d2"
         stroke-width="0.166605"
         stroke-linecap="round"
         stroke-linejoin="round"
         stroke-miterlimit="10"
         d="m 58.343087,55.547074 c 0.0017,0.436087 -0.22475,0.854431 -0.590697,1.091509 -0.669499,0.43617 -1.568747,0.174768 -1.900206,-0.552211 -0.155193,-0.33754 -0.155193,-0.741056 0,-1.078597 0.331459,-0.727062 1.230707,-0.988381 1.900206,-0.55221 0.365947,0.237078 0.592363,0.655422 0.590697,1.091509 z"
         id="path5333"
         style="stroke:#80ffe6;stroke-opacity:1" />
      <path
         fill="none"
         stroke="#00b9d2"
         stroke-width="0.166605"
         stroke-linecap="round"
         stroke-linejoin="round"
         stroke-miterlimit="10"
         d="m 58.343087,51.560729 c 0.0017,-0.436087 -0.22475,-0.854431 -0.590697,-1.091509 -0.669499,-0.43617 -1.568747,-0.174768 -1.900206,0.552211 -0.155193,0.33754 -0.155193,0.741056 0,1.078597 0.331459,0.727062 1.230707,0.988381 1.900206,0.55221 0.365947,-0.237078 0.592363,-0.655422 0.590697,-1.091509 z"
         id="path5336"
         style="stroke:#80ffe6;stroke-opacity:1" />
      <g
         id="g6167"
         transform="matrix(0.08330222,0,0,0.08330222,21.728012,41.963564)"
         style="stroke:#80ffe6;stroke-opacity:1">
        <g
           id="POLYLINE_427_"
           style="stroke:#80ffe6;stroke-opacity:1">
          <path
             fill="none"
             stroke="#00b9d2"
             stroke-width="2.75"
             stroke-linecap="round"
             stroke-linejoin="round"
             stroke-miterlimit="10"
             d="m 576.412,543.442 c 12.217,0.027 23.803,-6.305 30.371,-16.615 2.121,-3.313 3.707,-7 4.647,-10.82 0.641,-2.608 0.997,-5.324 1.043,-8.009 0.11,-1.407 -0.062,-395.157 0,-396.611 0,-0.001 -0.016,-0.623 -0.016,-0.623 l -0.027,-0.622 -0.038,-0.621 c -0.187,-2.674 -0.679,-5.377 -1.456,-7.944 -2.992,-10.006 -10.427,-18.406 -20.007,-22.583 -3.411,-1.498 -7.083,-2.474 -10.789,-2.858 -1.21,-0.113 -2.513,-0.202 -3.729,-0.193 -0.649,0.082 -155.753,-0.065 -156.343,0.005 -10e-4,0 -0.624,0.016 -0.624,0.016 l -0.622,0.027 -0.621,0.038 -0.621,0.048 c -3.503,0.305 -6.994,1.13 -10.26,2.435 -6.75,2.682 -12.65,7.469 -16.661,13.524 -2.294,3.449 -3.997,7.319 -4.987,11.341 -0.388,1.594 -0.688,3.271 -0.855,4.902 -0.095,1.007 -0.176,2.098 -0.188,3.106 -0.321,0.137 0.22,395.682 -0.006,395.989 0.001,0 0.006,0.623 0.006,0.623 l 0.016,0.622 0.027,0.622 c 0.569,11.532 6.815,22.295 16.566,28.504 2.787,1.783 5.851,3.198 9.019,4.153 1.97,0.59 4.043,1.034 6.085,1.279 0.773,0.117 1.702,0.157 2.48,0.215 0.56,0.02 1.308,0.054 1.867,0.048 10e-4,0.002 155.723,0.002 155.723,0.002 z"
             id="path5340"
             style="stroke:#80ffe6;stroke-opacity:1" />
        </g>
        <g
           id="POLYLINE_425_"
           style="stroke:#80ffe6;stroke-opacity:1">
          <rect
             x="612.47803"
             y="150.48399"
             fill="none"
             stroke="#00b9d2"
             stroke-width="2.75"
             stroke-linecap="round"
             stroke-linejoin="round"
             stroke-miterlimit="10"
             width="1.883"
             height="17.027"
             id="rect5343"
             style="stroke:#80ffe6;stroke-opacity:1" />
        </g>
        <g
           id="POLYLINE_422_"
           style="stroke:#80ffe6;stroke-opacity:1">
          <rect
             x="612.47803"
             y="184.01401"
             fill="none"
             stroke="#00b9d2"
             stroke-width="2.75"
             stroke-linecap="round"
             stroke-linejoin="round"
             stroke-miterlimit="10"
             width="1.883"
             height="34.754002"
             id="rect5346"
             style="stroke:#80ffe6;stroke-opacity:1" />
        </g>
        <g
           id="POLYLINE_421_"
           style="stroke:#80ffe6;stroke-opacity:1">
          <rect
             x="612.47803"
             y="228.552"
             fill="none"
             stroke="#00b9d2"
             stroke-width="2.75"
             stroke-linecap="round"
             stroke-linejoin="round"
             stroke-miterlimit="10"
             width="1.883"
             height="34.754002"
             id="rect5349"
             style="stroke:#80ffe6;stroke-opacity:1" />
        </g>
        <g
           id="POLYLINE_420_"
           style="stroke:#80ffe6;stroke-opacity:1">
          <rect
             x="382.741"
             y="194.901"
             fill="none"
             stroke="#00b9d2"
             stroke-width="2.75"
             stroke-linecap="round"
             stroke-linejoin="round"
             stroke-miterlimit="10"
             width="1.883"
             height="55.981998"
             id="rect5352"
             style="stroke:#80ffe6;stroke-opacity:1" />
        </g>
        <g
           id="POLYLINE_419_"
           style="stroke:#80ffe6;stroke-opacity:1">
          <path
             fill="none"
             stroke="#00b9d2"
             stroke-width="2.75"
             stroke-linecap="round"
             stroke-linejoin="round"
             stroke-miterlimit="10"
             d="m 423.626,188.795 c -11.562,0.015 -21.764,-7.834 -24.71,-19.018 -0.562,-2.124 -0.852,-4.347 -0.852,-6.545 0,0 0,-48.193 0,-48.193 0.01,-0.388 0.007,-0.934 0.034,-1.323 0.062,-1.157 0.206,-2.363 0.425,-3.501 0.581,-3.027 1.724,-5.964 3.342,-8.588 2.924,-4.766 7.464,-8.517 12.696,-10.489 1.779,-0.674 3.662,-1.156 5.546,-1.418 0.702,-0.094 1.488,-0.175 2.196,-0.209 0.397,-0.01 0.927,-0.041 1.323,-0.034 0,0 42.505,0 42.505,0 1.308,10e-4 2.663,0.105 3.955,0.308 9.02,1.388 16.732,7.647 19.946,16.19 0.779,2.055 1.297,4.236 1.524,6.422 0.069,0.706 0.123,1.493 0.133,2.202 0,0 0.004,0.441 0.004,0.441 v 48.193 c 0.02,10.737 -6.798,20.439 -16.912,24.054 -2.068,0.743 -4.258,1.224 -6.447,1.413 -0.553,0.042 -1.208,0.086 -1.762,0.091 0,0 -0.441,0.004 -0.441,0.004 z"
             id="path5355"
             style="stroke:#80ffe6;stroke-opacity:1" />
        </g>
        <g
           id="POLYLINE_381_"
           style="stroke:#80ffe6;stroke-opacity:1">
          <path
             fill="none"
             stroke="#00b9d2"
             stroke-width="2.75"
             stroke-linecap="round"
             stroke-linejoin="round"
             stroke-miterlimit="10"
             d="m 476.661,104.841 c 0.013,-4.606 -3.165,-8.689 -7.634,-9.808 -6.433,-1.616 -12.645,3.263 -12.6,9.896 0.068,6.559 6.239,11.319 12.6,9.72 4.469,-1.119 7.647,-5.202 7.634,-9.808 z"
             id="path5406"
             style="stroke:#80ffe6;stroke-opacity:1" />
        </g>
        <g
           id="POLYLINE_376_"
           style="stroke:#80ffe6;stroke-opacity:1">
          <path
             fill="none"
             stroke="#00b9d2"
             stroke-width="2.75"
             stroke-linecap="round"
             stroke-linejoin="round"
             stroke-miterlimit="10"
             d="m 485.968,139.136 c 0.022,-6.504 -3.343,-12.722 -8.8,-16.261 -9.979,-6.497 -23.366,-2.606 -28.308,8.227 -2.312,5.031 -2.312,11.037 0,16.068 4.942,10.833 18.33,14.724 28.308,8.227 5.456,-3.539 8.822,-9.757 8.8,-16.261 z"
             id="path5409"
             style="stroke:#80ffe6;stroke-opacity:1" />
        </g>
        <g
           id="POLYLINE_375_"
           style="stroke:#80ffe6;stroke-opacity:1">
          <path
             fill="none"
             stroke="#00b9d2"
             stroke-width="2.75"
             stroke-linecap="round"
             stroke-linejoin="round"
             stroke-miterlimit="10"
             d="m 475.765,173.096 c 0.011,-4.199 -2.885,-7.92 -6.958,-8.939 -5.798,-1.458 -11.422,2.881 -11.485,8.859 -0.041,6.046 5.621,10.492 11.485,9.019 4.074,-1.02 6.97,-4.741 6.958,-8.939 z"
             id="path5412"
             style="stroke:#80ffe6;stroke-opacity:1" />
        </g>
        <g
           id="POLYLINE_374_"
           style="stroke:#80ffe6;stroke-opacity:1">
          <path
             fill="none"
             stroke="#00b9d2"
             stroke-width="2.75"
             stroke-linecap="round"
             stroke-linejoin="round"
             stroke-miterlimit="10"
             d="m 483.698,162.809 c 0.006,-1.372 -1.222,-2.431 -2.548,-2.265 -0.612,0.066 -1.197,0.415 -1.544,0.88 -0.322,0.43 -0.468,0.894 -0.469,1.405 -0.003,0.523 0.217,1.085 0.543,1.458 0.399,0.465 0.934,0.731 1.509,0.791 0.624,0.073 1.317,-0.166 1.758,-0.578 0.494,-0.451 0.748,-1.052 0.751,-1.691 z"
             id="path5415"
             style="stroke:#80ffe6;stroke-opacity:1" />
        </g>
        <g
           id="POLYLINE_373_"
           style="stroke:#80ffe6;stroke-opacity:1">
          <path
             fill="none"
             stroke="#00b9d2"
             stroke-width="2.75"
             stroke-linecap="round"
             stroke-linejoin="round"
             stroke-miterlimit="10"
             d="m 428.846,163.063 c 0.009,2.25 -1.553,4.258 -3.737,4.801 -3.146,0.793 -6.193,-1.6 -6.168,-4.844 0.031,-3.208 3.057,-5.543 6.168,-4.758 2.184,0.543 3.746,2.551 3.737,4.801 z"
             id="path5418"
             style="stroke:#80ffe6;stroke-opacity:1" />
        </g>
        <g
           id="POLYLINE_372_"
           style="stroke:#80ffe6;stroke-opacity:1">
          <path
             fill="none"
             stroke="#00b9d2"
             stroke-width="2.75"
             stroke-linecap="round"
             stroke-linejoin="round"
             stroke-miterlimit="10"
             d="m 443.931,163.063 c 0.022,6.709 -3.449,13.124 -9.078,16.775 -10.294,6.702 -24.104,2.688 -29.203,-8.487 -2.385,-5.19 -2.385,-11.385 0,-16.576 5.098,-11.175 18.909,-15.189 29.203,-8.487 5.628,3.651 9.1,10.066 9.078,16.775 z"
             id="path5421"
             style="stroke:#80ffe6;stroke-opacity:1" />
        </g>
        <g
           id="POLYLINE_347_"
           style="stroke:#80ffe6;stroke-opacity:1">
          <path
             fill="none"
             stroke="#00b9d2"
             stroke-width="2.75"
             stroke-linecap="round"
             stroke-linejoin="round"
             stroke-miterlimit="10"
             d="m 428.846,115.209 c 0.009,-2.25 -1.553,-4.258 -3.737,-4.801 -3.146,-0.793 -6.193,1.6 -6.168,4.844 0.031,3.208 3.057,5.543 6.168,4.758 2.184,-0.543 3.746,-2.551 3.737,-4.801 z"
             id="path5424"
             style="stroke:#80ffe6;stroke-opacity:1" />
        </g>
        <g
           id="POLYLINE_346_"
           style="stroke:#80ffe6;stroke-opacity:1">
          <path
             fill="none"
             stroke="#00b9d2"
             stroke-width="2.75"
             stroke-linecap="round"
             stroke-linejoin="round"
             stroke-miterlimit="10"
             d="m 443.931,115.209 c 0.022,-6.709 -3.449,-13.124 -9.078,-16.775 -10.294,-6.702 -24.104,-2.688 -29.203,8.487 -2.385,5.19 -2.385,11.385 0,16.576 5.098,11.175 18.909,15.189 29.203,8.487 5.628,-3.651 9.1,-10.066 9.078,-16.775 z"
             id="path5427"
             style="stroke:#80ffe6;stroke-opacity:1" />
        </g>
        <g
           id="POLYLINE_345_"
           style="stroke:#80ffe6;stroke-opacity:1">
          <path
             fill="none"
             stroke="#00b9d2"
             stroke-width="2.75"
             stroke-linecap="round"
             stroke-linejoin="round"
             stroke-miterlimit="10"
             d="m 472.15,139.136 c 0.01,-2.547 -1.758,-4.819 -4.23,-5.434 -3.561,-0.897 -7.009,1.811 -6.982,5.483 0.035,3.631 3.461,6.274 6.982,5.386 2.471,-0.616 4.24,-2.888 4.23,-5.435 z"
             id="path5430"
             style="stroke:#80ffe6;stroke-opacity:1" />
        </g>
      </g>
      <g
         id="POLYLINE_85_"
         transform="matrix(0.08330222,0,0,0.08330222,21.728012,41.963564)"
         style="stroke:#80ffe6;stroke-opacity:1">
        <path
           fill="none"
           stroke="#00b9d2"
           stroke-width="3.5"
           stroke-linecap="round"
           stroke-linejoin="round"
           stroke-miterlimit="10"
           d="m 576.412,543.442 c 12.217,0.027 23.803,-6.305 30.371,-16.615 2.121,-3.313 3.707,-7 4.647,-10.82 0.641,-2.608 0.997,-5.324 1.043,-8.009 0.11,-1.407 -0.062,-395.157 0,-396.611 0,-0.001 -0.016,-0.623 -0.016,-0.623 l -0.027,-0.622 -0.038,-0.621 c -0.187,-2.674 -0.679,-5.377 -1.456,-7.944 -2.992,-10.006 -10.427,-18.406 -20.007,-22.583 -3.411,-1.498 -7.083,-2.474 -10.789,-2.858 -1.21,-0.113 -2.513,-0.202 -3.729,-0.193 -0.649,0.082 -155.753,-0.065 -156.343,0.005 -10e-4,0 -0.624,0.016 -0.624,0.016 l -0.622,0.027 -0.621,0.038 -0.621,0.048 c -3.503,0.305 -6.994,1.13 -10.26,2.435 -6.75,2.682 -12.65,7.469 -16.661,13.524 -2.294,3.449 -3.997,7.319 -4.987,11.341 -0.388,1.594 -0.688,3.271 -0.855,4.902 -0.095,1.007 -0.176,2.098 -0.188,3.106 -0.321,0.137 0.22,395.682 -0.006,395.989 0.001,0 0.006,0.623 0.006,0.623 l 0.016,0.622 0.027,0.622 c 0.569,11.532 6.815,22.295 16.566,28.504 2.787,1.783 5.851,3.198 9.019,4.153 1.97,0.59 4.043,1.034 6.085,1.279 0.773,0.117 1.702,0.157 2.48,0.215 0.56,0.02 1.308,0.054 1.867,0.048 10e-4,0.002 155.723,0.002 155.723,0.002 z"
           id="path5482"
           style="stroke:#80ffe6;stroke-opacity:1" />
      </g>
    </g>
  </g>
</svg>
