<?xml version="1.0" encoding="UTF-8" standalone="no"?>
<svg
   xmlns:dc="http://purl.org/dc/elements/1.1/"
   xmlns:cc="http://creativecommons.org/ns#"
   xmlns:rdf="http://www.w3.org/1999/02/22-rdf-syntax-ns#"
   xmlns:svg="http://www.w3.org/2000/svg"
   xmlns="http://www.w3.org/2000/svg"
   xmlns:sodipodi="http://sodipodi.sourceforge.net/DTD/sodipodi-0.dtd"
   xmlns:inkscape="http://www.inkscape.org/namespaces/inkscape"
   width="14.880576mm"
   height="29.936008mm"
   viewBox="0 0 14.880576 29.936009"
   version="1.1"
   id="svg4830"
   inkscape:version="1.0.2 (e86c8708, 2021-01-15)"
   sodipodi:docname="Ip12Mini.svg">
  <defs
     id="defs4824">
    <filter
       inkscape:collect="always"
       style="color-interpolation-filters:sRGB"
       id="filter19852"
       x="-1.8422757e-19"
       width="1"
       y="-9.157575e-20"
       height="1">
      <feGaussianBlur
         inkscape:collect="always"
         stdDeviation="4.3214604e-18"
         id="feGaussianBlur19854" />
    </filter>
  </defs>
  <sodipodi:namedview
     id="base"
     pagecolor="#ffffff"
     bordercolor="#666666"
     borderopacity="1.0"
     inkscape:pageopacity="0.0"
     inkscape:pageshadow="2"
     inkscape:zoom="4.255072"
     inkscape:cx="13.01793"
     inkscape:cy="77.763195"
     inkscape:document-units="mm"
     inkscape:current-layer="layer1"
     inkscape:document-rotation="0"
     showgrid="false"
     inkscape:window-width="1440"
     inkscape:window-height="872"
     inkscape:window-x="0"
     inkscape:window-y="28"
     inkscape:window-maximized="0" />
  <metadata
     id="metadata4827">
    <rdf:RDF>
      <cc:Work
         rdf:about="">
        <dc:format>image/svg+xml</dc:format>
        <dc:type
           rdf:resource="http://purl.org/dc/dcmitype/StillImage" />
        <dc:title></dc:title>
      </cc:Work>
    </rdf:RDF>
  </metadata>
  <g
     inkscape:label="Layer 1"
     inkscape:groupmode="layer"
     id="layer1"
     transform="translate(-54.437385,-152.21127)">
    <g
       id="g8361"
       transform="matrix(0.26432157,0,0,0.26432157,32.291859,146.29095)"
       style="stroke:#80ffe6;stroke-opacity:1;filter:url(#filter19852)">
      <path
         fill="none"
         stroke="#00b9d2"
         stroke-width="0.727604"
         stroke-linecap="round"
         stroke-linejoin="round"
         stroke-miterlimit="10"
         d="m 115.94421,77.431508 c -0.006,-0.475721 0.0995,-0.953294 0.31115,-1.379802 0.27834,-0.559594 0.72046,-1.03796 1.25015,-1.368689 -0.2368,-0.347398 -0.5416,-0.649552 -0.89429,-0.878946 -0.51858,-0.337344 -1.13189,-0.52414 -1.74836,-0.554038 -0.42836,-0.04366 -0.85964,0.04313 -1.2663,0.174625 -0.37174,0.116152 -0.82312,0.326761 -1.19645,0.436827 -0.1053,0.02963 -0.22013,0.05424 -0.32914,0.05001 -0.20373,-0.009 -0.40058,-0.07964 -0.59055,-0.148696 l -0.59346,-0.230452 c -0.30718,-0.114036 -0.62706,-0.212725 -0.95488,-0.240242 -0.39264,-0.02831 -0.7919,0.0299 -1.16708,0.145256 -0.68844,0.214048 -1.30201,0.651404 -1.74387,1.219729 -0.304,0.389202 -0.52757,0.840582 -0.67204,1.312069 -0.58922,1.942306 0.0415,4.349221 1.06363,6.050756 0.27887,0.445559 0.59266,0.887942 0.93318,1.288521 0.31777,0.36195 0.69295,0.711729 1.16735,0.844815 0.28469,0.0807 0.58869,0.0508 0.87233,-0.02037 0.236,-0.05689 0.55086,-0.201877 0.77734,-0.294746 0.51462,-0.217488 1.08268,-0.285485 1.63275,-0.182563 0.31115,0.05477 0.63579,0.203994 0.92577,0.328084 0.16219,0.06747 0.331,0.127 0.50351,0.160866 0.20611,0.04022 0.41989,0.05159 0.62865,0.0254 0.81253,-0.10795 1.35572,-0.809889 1.80313,-1.433777 0.50139,-0.688445 0.91916,-1.452033 1.18851,-2.260864 l 0.0386,-0.121708 -0.0251,-0.01032 c -0.60748,-0.270404 -1.13612,-0.728663 -1.47902,-1.299104 -0.29183,-0.483659 -0.43233,-1.049867 -0.4355,-1.612636"
         id="path7020"
         style="stroke:#80ffe6;stroke-opacity:1" />
      <path
         fill="none"
         stroke="#00b9d2"
         stroke-width="0.727604"
         stroke-linecap="round"
         stroke-linejoin="round"
         stroke-miterlimit="10"
         d="m 111.98419,73.086256 c 0.43603,0.03387 0.87312,-0.0889 1.25492,-0.29501 0.53022,-0.283898 0.96176,-0.733954 1.24936,-1.260211 0.2966,-0.53631 0.45694,-1.160727 0.38894,-1.774031 -0.41222,0.01879 -0.81254,0.157163 -1.17581,0.347927 -0.48287,0.254265 -0.90752,0.623888 -1.20544,1.08294 -0.36328,0.555096 -0.59823,1.229783 -0.51197,1.898385 z"
         id="path7023"
         style="stroke:#80ffe6;stroke-opacity:1" />
      <path
         fill="none"
         stroke="#00b9d2"
         stroke-width="0.529167"
         stroke-linecap="round"
         stroke-linejoin="round"
         stroke-miterlimit="10"
         d="m 93.027058,49.928865 c -2.301875,0.0045 -4.402138,-1.403615 -5.272088,-3.535363 -0.207433,-0.505354 -0.342106,-1.042987 -0.397404,-1.586177 -0.01455,-0.147108 -0.02487,-0.302948 -0.02778,-0.450585 -0.0021,-0.03175 -2.65e-4,-0.09499 -0.0013,-0.126471 0,0 0,-13.021469 0,-13.021469 -5.29e-4,-0.786606 0.1651,-1.57427 0.482335,-2.294202 0.77814,-1.782233 2.452953,-3.061493 4.377532,-3.342481 0.234156,-0.03466 0.475721,-0.05556 0.712523,-0.06059 0.03201,5.29e-4 0.09472,-0.0024 0.12647,-0.0013 0.06059,0.0061 10.524324,-0.0048 10.576714,2.64e-4 0.12462,0.0019 0.26009,0.0071 0.38418,0.0172 0.3548,0.02805 0.71093,0.08996 1.05436,0.183886 0.78423,0.213783 1.52294,0.599016 2.14709,1.119981 1.20386,0.995892 1.95977,2.498989 2.041,4.059237 0.005,0.102394 0.01,0.2159 0.009,0.318294 0,0 0,13.021469 0,13.021469 -10e-4,0.07885 -10e-4,0.175154 -0.006,0.254 -0.0138,0.306123 -0.0526,0.61542 -0.11562,0.915458 -0.0807,0.384704 -0.20267,0.76491 -0.36089,1.124744 -0.50748,1.160991 -1.41579,2.140743 -2.53524,2.734468 -0.43392,0.231246 -0.90038,0.407194 -1.37901,0.519377 -0.32173,0.07541 -0.65405,0.123561 -0.98399,0.141817 -0.0804,0.0029 -0.17462,0.0087 -0.25505,0.0085 -0.0492,0.005 -10.520627,-0.0034 -10.577248,0 z"
         id="path7026"
         style="stroke:#80ffe6;stroke-opacity:1" />
      <path
         fill="none"
         stroke="#00b9d2"
         stroke-width="0.529167"
         stroke-linecap="round"
         stroke-linejoin="round"
         stroke-miterlimit="10"
         d="m 97.717591,31.614671 c 0.0045,-1.374246 -0.715169,-2.684462 -1.877483,-3.417887 -2.096559,-1.328473 -4.877594,-0.482865 -5.8801,1.787525 -0.455613,1.024202 -0.455613,2.236787 0,3.260989 1.002506,2.27039 3.783541,3.115734 5.8801,1.787525 1.162314,-0.733689 1.881981,-2.043906 1.877483,-3.418152 z"
         id="path7029"
         style="stroke:#80ffe6;stroke-opacity:1" />
      <path
         fill="none"
         stroke="#00b9d2"
         stroke-width="0.529167"
         stroke-linecap="round"
         stroke-linejoin="round"
         stroke-miterlimit="10"
         d="m 97.717591,43.824134 c 0.0045,1.374245 -0.715169,2.684462 -1.877483,3.417887 -2.096559,1.328473 -4.877594,0.482865 -5.8801,-1.787525 -0.455613,-1.024202 -0.455613,-2.236787 0,-3.260989 1.002506,-2.27039 3.783541,-3.115734 5.8801,-1.787525 1.162314,0.733689 1.881981,2.043906 1.877483,3.418152 z"
         id="path7032"
         style="stroke:#80ffe6;stroke-opacity:1" />
      <path
         fill="none"
         stroke="#00b9d2"
         stroke-width="0.529167"
         stroke-linecap="round"
         stroke-linejoin="round"
         stroke-miterlimit="10"
         d="m 85.220262,126.48499 c -0.0064,2.93238 1.591998,5.68802 4.147344,7.13582 0.94271,0.53736 1.997869,0.88661 3.075516,1.01679 0.275167,0.0304 0.5715,0.0558 0.848255,0.0587 0.103187,0.0839 37.016003,-0.058 37.138503,0.001 -2.6e-4,-2.7e-4 0.14155,-0.001 0.14155,-0.001 l 0.14182,-0.004 0.14155,-0.006 c 0.65749,-0.0347 1.32027,-0.14923 1.95051,-0.33999 2.27806,-0.68078 4.19232,-2.3757 5.14244,-4.55586 0.26485,-0.60325 0.45985,-1.24619 0.57256,-1.89521 0.046,-0.27438 0.0844,-0.56674 0.10239,-0.84402 0.0116,-0.12383 0.014,-0.30004 0.0183,-0.42492 0.0257,-0.32544 -0.0146,-94.891758 0,-95.228837 -0.0109,-0.610394 -0.091,-1.230842 -0.2376,-1.823773 -0.32649,-1.329796 -0.99483,-2.577571 -1.92167,-3.585898 -0.92471,-1.009914 -2.11005,-1.783821 -3.40677,-2.223558 -0.48869,-0.1651 -1.00383,-0.28919 -1.515,-0.359569 -0.322,-0.0426 -0.66384,-0.07276 -0.98875,-0.07699 -0.30745,-0.05239 -36.96785,0.0336 -37.279793,0 -0.32385,0.0079 -0.668073,0.03096 -0.988748,0.07699 -1.685396,0.231511 -3.29274,1.004888 -4.524375,2.178844 -0.959379,0.909637 -1.695186,2.057929 -2.120106,3.310202 -0.150284,0.444235 -0.2667,0.911489 -0.338932,1.374775 -0.04921,0.322262 -0.08334,0.661723 -0.09393,0.98716 -0.111919,0.102659 0.07012,95.059764 -0.005,95.229094 z"
         id="path7035"
         style="stroke:#80ffe6;stroke-opacity:1" />
      <line
         fill="none"
         stroke="#00b9d2"
         stroke-width="0.529167"
         stroke-linecap="round"
         stroke-linejoin="round"
         stroke-miterlimit="10"
         x1="138.64201"
         y1="124.37759"
         x2="139.57097"
         y2="124.37759"
         id="line7038"
         style="stroke:#80ffe6;stroke-opacity:1" />
      <line
         fill="none"
         stroke="#00b9d2"
         stroke-width="0.529167"
         stroke-linecap="round"
         stroke-linejoin="round"
         stroke-miterlimit="10"
         x1="139.57097"
         y1="123.08033"
         x2="138.64201"
         y2="123.08033"
         id="line7041"
         style="stroke:#80ffe6;stroke-opacity:1" />
      <line
         fill="none"
         stroke="#00b9d2"
         stroke-width="0.529167"
         stroke-linecap="round"
         stroke-linejoin="round"
         stroke-miterlimit="10"
         x1="84.291306"
         y1="124.37759"
         x2="85.220261"
         y2="124.37759"
         id="line7044"
         style="stroke:#80ffe6;stroke-opacity:1" />
      <line
         fill="none"
         stroke="#00b9d2"
         stroke-width="0.529167"
         stroke-linecap="round"
         stroke-linejoin="round"
         stroke-miterlimit="10"
         x1="85.220261"
         y1="123.08033"
         x2="84.291306"
         y2="123.08033"
         id="line7047"
         style="stroke:#80ffe6;stroke-opacity:1" />
      <line
         fill="none"
         stroke="#00b9d2"
         stroke-width="0.529167"
         stroke-linecap="round"
         stroke-linejoin="round"
         stroke-miterlimit="10"
         x1="128.69527"
         y1="135.6266"
         x2="128.69527"
         y2="134.69766"
         id="line7050"
         style="stroke:#80ffe6;stroke-opacity:1" />
      <line
         fill="none"
         stroke="#00b9d2"
         stroke-width="0.529167"
         stroke-linecap="round"
         stroke-linejoin="round"
         stroke-miterlimit="10"
         x1="127.39828"
         y1="134.69766"
         x2="127.39828"
         y2="135.6266"
         id="line7053"
         style="stroke:#80ffe6;stroke-opacity:1" />
      <line
         fill="none"
         stroke="#00b9d2"
         stroke-width="0.529167"
         stroke-linecap="round"
         stroke-linejoin="round"
         stroke-miterlimit="10"
         x1="96.445999"
         y1="23.327127"
         x2="96.445999"
         y2="22.398176"
         id="line7056"
         style="stroke:#80ffe6;stroke-opacity:1" />
      <line
         fill="none"
         stroke="#00b9d2"
         stroke-width="0.529167"
         stroke-linecap="round"
         stroke-linejoin="round"
         stroke-miterlimit="10"
         x1="95.149017"
         y1="22.398176"
         x2="95.149017"
         y2="23.327127"
         id="line7059"
         style="stroke:#80ffe6;stroke-opacity:1" />
      <line
         fill="none"
         stroke="#00b9d2"
         stroke-width="0.529167"
         stroke-linecap="round"
         stroke-linejoin="round"
         stroke-miterlimit="10"
         x1="138.64201"
         y1="35.075157"
         x2="139.57097"
         y2="35.075157"
         id="line7062"
         style="stroke:#80ffe6;stroke-opacity:1" />
      <line
         fill="none"
         stroke="#00b9d2"
         stroke-width="0.529167"
         stroke-linecap="round"
         stroke-linejoin="round"
         stroke-miterlimit="10"
         x1="139.57097"
         y1="33.777905"
         x2="138.64201"
         y2="33.777905"
         id="line7065"
         style="stroke:#80ffe6;stroke-opacity:1" />
      <line
         fill="none"
         stroke="#00b9d2"
         stroke-width="0.529167"
         stroke-linecap="round"
         stroke-linejoin="round"
         stroke-miterlimit="10"
         x1="84.291306"
         y1="35.075157"
         x2="85.220261"
         y2="35.075157"
         id="line7068"
         style="stroke:#80ffe6;stroke-opacity:1" />
      <line
         fill="none"
         stroke="#00b9d2"
         stroke-width="0.529167"
         stroke-linecap="round"
         stroke-linejoin="round"
         stroke-miterlimit="10"
         x1="85.220261"
         y1="33.777905"
         x2="84.291306"
         y2="33.777905"
         id="line7071"
         style="stroke:#80ffe6;stroke-opacity:1" />
      <path
         fill="none"
         stroke="#00b9d2"
         stroke-width="0.727604"
         stroke-linecap="round"
         stroke-linejoin="round"
         stroke-miterlimit="10"
         d="m 105.726,37.719402 c 0.003,-1.002241 -0.68845,-1.890447 -1.66079,-2.1336 -1.38404,-0.347927 -2.72653,0.687653 -2.74135,2.11455 -0.01,1.443038 1.3417,2.504282 2.74135,2.152915 0.97208,-0.243681 1.66344,-1.131623 1.66079,-2.133865 z"
         id="path7189"
         style="stroke:#80ffe6;stroke-opacity:1" />
      <path
         fill="none"
         stroke="#00b9d2"
         stroke-width="0.727604"
         stroke-linecap="round"
         stroke-linejoin="round"
         stroke-miterlimit="10"
         d="m 104.48828,31.184459 c 5.3e-4,-0.212461 -0.0722,-0.424392 -0.2032,-0.591873 -0.13018,-0.168011 -0.31777,-0.290513 -0.52388,-0.342106 -0.61171,-0.154517 -1.20491,0.311679 -1.19988,0.942445 0.006,0.623623 0.59531,1.078442 1.19988,0.925513 0.20611,-0.05159 0.3937,-0.17436 0.52388,-0.342106 0.13097,-0.167482 0.20373,-0.379413 0.2032,-0.591873 z"
         id="path7192"
         style="stroke:#80ffe6;stroke-opacity:1" />
      <path
         fill="none"
         stroke="#00b9d2"
         stroke-width="0.727604"
         stroke-linecap="round"
         stroke-linejoin="round"
         stroke-miterlimit="10"
         d="m 95.005877,31.614671 c 0.0016,-0.689768 -0.531019,-1.272381 -1.217878,-1.332706 -0.782108,-0.07091 -1.458647,0.547688 -1.458383,1.332706 -2.64e-4,0.779198 0.666486,1.395677 1.443302,1.334029 0.693209,-0.05318 1.234281,-0.638439 1.232959,-1.334029 z"
         id="path7195"
         style="stroke:#80ffe6;stroke-opacity:1" />
      <path
         fill="none"
         stroke="#00b9d2"
         stroke-width="0.727604"
         stroke-linecap="round"
         stroke-linejoin="round"
         stroke-miterlimit="10"
         d="m 93.027058,51.136952 c -2.696633,0.0048 -5.174986,-1.590146 -6.287029,-4.047331 -0.385763,-0.84746 -0.597959,-1.775354 -0.618067,-2.706158 0.0013,-0.03942 -0.0032,-0.1143 -0.0016,-0.153194 0.0061,-0.07514 -0.0048,-13.031787 5.29e-4,-13.097669 0.0021,-0.151077 0.0087,-0.315118 0.0209,-0.465666 0.04048,-0.514086 0.1397,-1.027377 0.293423,-1.519502 0.520964,-1.685396 1.716352,-3.146954 3.265487,-3.991504 0.854604,-0.47043 1.811867,-0.756709 2.78474,-0.832644 0.151077,-0.01111 0.31406,-0.01984 0.465666,-0.0209 0,0 0.07646,-5.29e-4 0.07646,-5.29e-4 h 10.513743 l 0.0765,5.29e-4 0.0767,0.0013 c 0.34105,0.0077 0.68712,0.04101 1.02341,0.09922 1.10013,0.189178 2.15318,0.651405 3.03688,1.333236 1.68884,1.292489 2.69955,3.345921 2.6932,5.472641 -0.006,0.07514 0.005,13.031788 -5.3e-4,13.097669 -0.002,0.09631 -0.004,0.21299 -0.0103,0.309298 -0.0119,0.207962 -0.0336,0.425185 -0.0646,0.631296 -0.0524,0.351631 -0.13335,0.705114 -0.23945,1.044575 -0.29501,0.945621 -0.79824,1.827741 -1.46208,2.563018 -0.89668,0.997744 -2.0918,1.723761 -3.39064,2.059517 -0.41619,0.108215 -0.84667,0.178329 -1.27556,0.206904 -0.12435,0.0071 -0.26273,0.01455 -0.38735,0.01508 0,0 -0.0765,5.29e-4 -0.0765,5.29e-4 H 93.027058 Z"
         id="path7198"
         style="stroke:#80ffe6;stroke-opacity:1" />
      <path
         fill="none"
         stroke="#00b9d2"
         stroke-width="0.727604"
         stroke-linecap="round"
         stroke-linejoin="round"
         stroke-miterlimit="10"
         d="m 98.842335,31.614671 c 0.005,-1.757627 -0.912548,-3.428471 -2.398713,-4.367212 -2.6797,-1.697038 -6.231202,-0.617538 -7.513108,2.283883 -0.582348,1.310217 -0.582348,2.856442 0,4.166658 1.281642,2.901421 4.833408,3.981186 7.513108,2.283884 1.4859,-0.938742 2.404005,-2.609586 2.398713,-4.367213 z"
         id="path7201"
         style="stroke:#80ffe6;stroke-opacity:1" />
      <path
         fill="none"
         stroke="#00b9d2"
         stroke-width="0.727604"
         stroke-linecap="round"
         stroke-linejoin="round"
         stroke-miterlimit="10"
         d="m 98.842335,43.824134 c 0.005,1.757627 -0.912548,3.42847 -2.398713,4.367212 -2.6797,1.697302 -6.231202,0.617538 -7.513108,-2.283883 -0.582348,-1.310217 -0.582348,-2.856442 0,-4.166659 1.281642,-2.90142 4.833408,-3.981185 7.513108,-2.283883 1.4859,0.938742 2.404005,2.609586 2.398713,4.367213 z"
         id="path7204"
         style="stroke:#80ffe6;stroke-opacity:1" />
      <path
         fill="none"
         stroke="#00b9d2"
         stroke-width="0.727604"
         stroke-linecap="round"
         stroke-linejoin="round"
         stroke-miterlimit="10"
         d="m 95.005877,43.824134 c 0.0016,0.689768 -0.531019,1.272381 -1.217878,1.332706 -0.782108,0.07091 -1.458647,-0.547688 -1.458383,-1.332706 -2.64e-4,-0.779198 0.666486,-1.395677 1.443302,-1.33403 0.693209,0.05292 1.234281,0.63844 1.232959,1.33403 z"
         id="path7207"
         style="stroke:#80ffe6;stroke-opacity:1" />
      <rect
         x="83.782516"
         y="41.451881"
         fill="none"
         stroke="#00b9d2"
         stroke-width="0.727604"
         stroke-linecap="round"
         stroke-linejoin="round"
         stroke-miterlimit="10"
         width="0.50879371"
         height="15.126228"
         id="rect7210"
         style="stroke:#80ffe6;stroke-opacity:1" />
      <path
         fill="none"
         stroke="#00b9d2"
         stroke-width="0.727604"
         stroke-linecap="round"
         stroke-linejoin="round"
         stroke-miterlimit="10"
         d="m 84.29131,126.48499 c -0.0071,3.15146 1.654704,6.13278 4.344987,7.78219 0.938478,0.57838 1.988344,0.98769 3.071284,1.19513 0.355335,0.0659 0.733954,0.11906 1.094581,0.14261 0.140229,0.0156 0.332317,0.0135 0.47281,0.0204 0.113771,0.0886 37.018648,-0.0609 37.154378,0.002 0.57362,-0.001 1.16152,-0.0556 1.72508,-0.16457 1.96427,-0.3736 3.79466,-1.41553 5.11731,-2.91518 1.01177,-1.14036 1.73196,-2.54106 2.06984,-4.02776 0.15107,-0.66357 0.22939,-1.3536 0.22913,-2.03411 -0.001,-0.15849 0.003,-94.957372 -0.001,-95.102628 0,-5.29e-4 -0.004,-0.158221 -0.004,-0.158221 l -0.007,-0.157692 -0.01,-0.157427 c -0.0259,-0.35851 -0.0738,-0.741362 -0.14261,-1.094581 -0.14843,-0.771261 -0.39979,-1.533261 -0.7411,-2.241021 -1.16522,-2.438135 -3.42159,-4.270904 -6.04864,-4.909608 -0.55774,-0.136525 -1.14088,-0.224367 -1.7145,-0.253471 -0.14023,-0.01349 -0.33258,-0.0077 -0.47307,-0.01217 0,0 -36.996426,0 -36.996426,0 -0.251619,0.0042 -0.53684,0.0093 -0.787929,0.03413 -1.150938,0.09948 -2.288117,0.421217 -3.319992,0.940859 -1.835414,0.918368 -3.341423,2.4765 -4.195498,4.342871 -0.284162,0.618331 -0.502972,1.277672 -0.642672,1.943629 -0.09552,0.459052 -0.15928,0.938741 -0.183092,1.406789 -0.0061,0.07885 -0.0079,0.236538 -0.01085,0.315384 -0.08017,0.03625 0.05503,95.023777 -0.0013,95.102887 z"
         id="path7213"
         style="stroke:#80ffe6;stroke-opacity:1" />
      <rect
         x="139.57097"
         y="40.331371"
         fill="none"
         stroke="#00b9d2"
         stroke-width="0.727604"
         stroke-linecap="round"
         stroke-linejoin="round"
         stroke-miterlimit="10"
         width="0.50879371"
         height="4.600575"
         id="rect7216"
         style="stroke:#80ffe6;stroke-opacity:1" />
      <rect
         x="139.57097"
         y="49.390968"
         fill="none"
         stroke="#00b9d2"
         stroke-width="0.727604"
         stroke-linecap="round"
         stroke-linejoin="round"
         stroke-miterlimit="10"
         width="0.50879371"
         height="9.3903275"
         id="rect7219"
         style="stroke:#80ffe6;stroke-opacity:1" />
      <rect
         x="139.57097"
         y="61.425011"
         fill="none"
         stroke="#00b9d2"
         stroke-width="0.727604"
         stroke-linecap="round"
         stroke-linejoin="round"
         stroke-miterlimit="10"
         width="0.50879371"
         height="9.3903275"
         id="rect7222"
         style="stroke:#80ffe6;stroke-opacity:1" />
      <path
         fill="none"
         stroke="#00b9d2"
         stroke-width="0.926042"
         stroke-linecap="round"
         stroke-linejoin="round"
         stroke-miterlimit="10"
         d="m 84.29131,126.48499 c -0.0071,3.15146 1.654704,6.13278 4.344987,7.78219 0.938478,0.57838 1.988344,0.98769 3.071284,1.19513 0.355335,0.0659 0.733954,0.11906 1.094581,0.14261 0.140229,0.0156 0.332317,0.0135 0.47281,0.0204 0.113771,0.0886 37.018648,-0.0609 37.154378,0.002 0.57362,-0.001 1.16152,-0.0556 1.72508,-0.16457 1.96427,-0.3736 3.79466,-1.41553 5.11731,-2.91518 1.01177,-1.14036 1.73196,-2.54106 2.06984,-4.02776 0.15107,-0.66357 0.22939,-1.3536 0.22913,-2.03411 -0.001,-0.15849 0.003,-94.957372 -0.001,-95.102628 0,-5.29e-4 -0.004,-0.158221 -0.004,-0.158221 l -0.007,-0.157692 -0.01,-0.157427 c -0.0259,-0.35851 -0.0738,-0.741362 -0.14261,-1.094581 -0.14843,-0.771261 -0.39979,-1.533261 -0.7411,-2.241021 -1.16522,-2.438135 -3.42159,-4.270904 -6.04864,-4.909608 -0.55774,-0.136525 -1.14088,-0.224367 -1.7145,-0.253471 -0.14023,-0.01349 -0.33258,-0.0077 -0.47307,-0.01217 0,0 -36.996426,0 -36.996426,0 -0.251619,0.0042 -0.53684,0.0093 -0.787929,0.03413 -1.150938,0.09948 -2.288117,0.421217 -3.319992,0.940859 -1.835414,0.918368 -3.341423,2.4765 -4.195498,4.342871 -0.284162,0.618331 -0.502972,1.277672 -0.642672,1.943629 -0.09552,0.459052 -0.15928,0.938741 -0.183092,1.406789 -0.0061,0.07885 -0.0079,0.236538 -0.01085,0.315384 -0.08017,0.03625 0.05503,95.023777 -0.0013,95.102887 z"
         id="path7319"
         style="stroke:#80ffe6;stroke-opacity:1" />
    </g>
  </g>
</svg>
