<?xml version="1.0" encoding="UTF-8" standalone="no"?>
<svg
   xmlns:dc="http://purl.org/dc/elements/1.1/"
   xmlns:cc="http://creativecommons.org/ns#"
   xmlns:rdf="http://www.w3.org/1999/02/22-rdf-syntax-ns#"
   xmlns:svg="http://www.w3.org/2000/svg"
   xmlns="http://www.w3.org/2000/svg"
   xmlns:sodipodi="http://sodipodi.sourceforge.net/DTD/sodipodi-0.dtd"
   xmlns:inkscape="http://www.inkscape.org/namespaces/inkscape"
   width="14.9052mm"
   height="30.238226mm"
   viewBox="0 0 14.9052 30.238227"
   version="1.1"
   id="svg4830"
   inkscape:version="1.0.2 (e86c8708, 2021-01-15)"
   sodipodi:docname="ip12promax.svg">
  <defs
     id="defs4824">
    <filter
       inkscape:collect="always"
       style="color-interpolation-filters:sRGB"
       id="filter19864"
       x="-1.8392323e-19"
       width="1"
       y="-9.0660494e-20"
       height="1">
      <feGaussianBlur
         inkscape:collect="always"
         stdDeviation="4.9559837e-18"
         id="feGaussianBlur19866" />
    </filter>
  </defs>
  <sodipodi:namedview
     id="base"
     pagecolor="#ffffff"
     bordercolor="#666666"
     borderopacity="1.0"
     inkscape:pageopacity="0.0"
     inkscape:pageshadow="2"
     inkscape:zoom="2.8696784"
     inkscape:cx="-22.007817"
     inkscape:cy="104.87935"
     inkscape:document-units="mm"
     inkscape:current-layer="layer1"
     inkscape:document-rotation="0"
     showgrid="false"
     inkscape:window-width="1440"
     inkscape:window-height="872"
     inkscape:window-x="0"
     inkscape:window-y="28"
     inkscape:window-maximized="0" />
  <metadata
     id="metadata4827">
    <rdf:RDF>
      <cc:Work
         rdf:about="">
        <dc:format>image/svg+xml</dc:format>
        <dc:type
           rdf:resource="http://purl.org/dc/dcmitype/StillImage" />
        <dc:title></dc:title>
      </cc:Work>
    </rdf:RDF>
  </metadata>
  <g
     inkscape:label="Layer 1"
     inkscape:groupmode="layer"
     id="layer1"
     transform="translate(-78.878768,-162.88502)">
    <g
       id="g4906"
       transform="matrix(0.23048002,0,0,0.23048002,77.029303,160.29358)"
       style="fill:none;fill-opacity:1;stroke:#80ffe6;filter:url(#filter19864)">
      <g
         id="POLYLINE_1000_"
         transform="matrix(0.26458333,0,0,0.26458333,-95.578757,-8.6491577)"
         style="fill:none;fill-opacity:1;stroke:#80ffe6">
        <line
           fill="none"
           stroke="#00b9d2"
           stroke-width="2"
           stroke-linecap="round"
           stroke-linejoin="round"
           stroke-miterlimit="10"
           x1="441.36801"
           y1="75.306999"
           x2="441.36801"
           y2="78.633003"
           id="line3455"
           style="fill:none;fill-opacity:1;stroke:#80ffe6" />
      </g>
      <g
         id="POLYLINE_999_"
         transform="matrix(0.26458333,0,0,0.26458333,-95.578757,-8.6491577)"
         style="fill:none;fill-opacity:1;stroke:#80ffe6">
        <line
           fill="none"
           stroke="#00b9d2"
           stroke-width="2"
           stroke-linecap="round"
           stroke-linejoin="round"
           stroke-miterlimit="10"
           x1="446.01199"
           y1="78.633003"
           x2="446.01199"
           y2="75.306999"
           id="line3458"
           style="fill:none;fill-opacity:1;stroke:#80ffe6" />
      </g>
      <g
         id="POLYLINE_998_"
         transform="matrix(0.26458333,0,0,0.26458333,-95.578757,-8.6491577)"
         style="fill:none;fill-opacity:1;stroke:#80ffe6">
        <line
           fill="none"
           stroke="#00b9d2"
           stroke-width="2"
           stroke-linecap="round"
           stroke-linejoin="round"
           stroke-miterlimit="10"
           x1="582.48999"
           y1="567.72101"
           x2="582.48999"
           y2="571.047"
           id="line3461"
           style="fill:none;fill-opacity:1;stroke:#80ffe6" />
      </g>
      <g
         id="POLYLINE_997_"
         transform="matrix(0.26458333,0,0,0.26458333,-95.578757,-8.6491577)"
         style="fill:none;fill-opacity:1;stroke:#80ffe6">
        <line
           fill="none"
           stroke="#00b9d2"
           stroke-width="2"
           stroke-linecap="round"
           stroke-linejoin="round"
           stroke-miterlimit="10"
           x1="587.13397"
           y1="571.047"
           x2="587.13397"
           y2="567.72101"
           id="line3464"
           style="fill:none;fill-opacity:1;stroke:#80ffe6" />
      </g>
      <g
         id="POLYLINE_996_"
         transform="matrix(0.26458333,0,0,0.26458333,-95.578757,-8.6491577)"
         style="fill:none;fill-opacity:1;stroke:#80ffe6">
        <line
           fill="none"
           stroke="#00b9d2"
           stroke-width="2"
           stroke-linecap="round"
           stroke-linejoin="round"
           stroke-miterlimit="10"
           x1="396.71899"
           y1="517.90997"
           x2="393.39301"
           y2="517.90997"
           id="line3467"
           style="fill:none;fill-opacity:1;stroke:#80ffe6" />
      </g>
      <g
         id="POLYLINE_995_"
         transform="matrix(0.26458333,0,0,0.26458333,-95.578757,-8.6491577)"
         style="fill:none;fill-opacity:1;stroke:#80ffe6">
        <line
           fill="none"
           stroke="#00b9d2"
           stroke-width="2"
           stroke-linecap="round"
           stroke-linejoin="round"
           stroke-miterlimit="10"
           x1="393.39301"
           y1="522.55402"
           x2="396.71899"
           y2="522.55402"
           id="line3470"
           style="fill:none;fill-opacity:1;stroke:#80ffe6" />
      </g>
      <g
         id="POLYLINE_994_"
         transform="matrix(0.26458333,0,0,0.26458333,-95.578757,-8.6491577)"
         style="fill:none;fill-opacity:1;stroke:#80ffe6">
        <line
           fill="none"
           stroke="#00b9d2"
           stroke-width="2"
           stroke-linecap="round"
           stroke-linejoin="round"
           stroke-miterlimit="10"
           x1="634.172"
           y1="517.90997"
           x2="630.84601"
           y2="517.90997"
           id="line3473"
           style="fill:none;fill-opacity:1;stroke:#80ffe6" />
      </g>
      <g
         id="POLYLINE_993_"
         transform="matrix(0.26458333,0,0,0.26458333,-95.578757,-8.6491577)"
         style="fill:none;fill-opacity:1;stroke:#80ffe6">
        <line
           fill="none"
           stroke="#00b9d2"
           stroke-width="2"
           stroke-linecap="round"
           stroke-linejoin="round"
           stroke-miterlimit="10"
           x1="630.84601"
           y1="522.55402"
           x2="634.172"
           y2="522.55402"
           id="line3476"
           style="fill:none;fill-opacity:1;stroke:#80ffe6" />
      </g>
      <g
         id="POLYLINE_992_"
         transform="matrix(0.26458333,0,0,0.26458333,-95.578757,-8.6491577)"
         style="fill:none;fill-opacity:1;stroke:#80ffe6">
        <path
           fill="none"
           stroke="#00b9d2"
           stroke-width="2"
           stroke-linecap="round"
           stroke-linejoin="round"
           stroke-miterlimit="10"
           d="m 599.281,567.721 c 10.011,0.024 19.615,-4.852 25.498,-12.959 1.951,-2.675 3.485,-5.669 4.51,-8.817 0.918,-2.817 1.441,-5.774 1.539,-8.736 0.341,-0.883 -0.206,-426.309 0.016,-427.36 -0.013,-0.808 -0.051,-1.681 -0.126,-2.487 -0.133,-1.461 -0.371,-2.948 -0.707,-4.376 -0.775,-3.303 -2.093,-6.493 -3.877,-9.379 -3.668,-5.965 -9.385,-10.636 -15.964,-13.036 -2.472,-0.907 -5.072,-1.51 -7.692,-1.775 -0.817,-0.072 -1.676,-0.144 -2.496,-0.154 -0.417,-0.624 -171.16,0.433 -171.698,-0.009 0,0.001 -0.349,0.003 -0.349,0.003 l -0.351,0.006 c -0.938,0.027 -1.924,0.083 -2.857,0.193 -1.852,0.212 -3.71,0.589 -5.496,1.125 -7.336,2.174 -13.797,7.125 -17.799,13.647 -2.048,3.313 -3.478,7.017 -4.185,10.848 -0.283,1.542 -0.458,3.124 -0.509,4.69 -0.446,0.338 0.284,426.413 -0.018,427.011 10e-4,0 0.003,0.35 0.003,0.35 l 0.006,0.351 0.01,0.353 0.014,0.354 c 0.037,0.69 0.087,1.462 0.17,2.151 0.211,1.851 0.59,3.71 1.125,5.496 2.366,7.992 8.016,14.901 15.388,18.799 2.292,1.22 4.75,2.166 7.27,2.788 1.433,0.35 2.916,0.615 4.384,0.762 0.699,0.057 1.443,0.131 2.143,0.145 0,0 0.353,0.01 0.353,0.01 0.176,-0.006 0.525,0.015 0.701,0.008 -0.003,-0.002 170.994,-0.002 170.994,-0.002 z"
           id="path3479"
           style="fill:none;fill-opacity:1;stroke:#80ffe6" />
      </g>
      <g
         id="POLYLINE_991_"
         transform="matrix(0.26458333,0,0,0.26458333,-95.578757,-8.6491577)"
         style="fill:none;fill-opacity:1;stroke:#80ffe6">
        <line
           fill="none"
           stroke="#00b9d2"
           stroke-width="2"
           stroke-linecap="round"
           stroke-linejoin="round"
           stroke-miterlimit="10"
           x1="396.71899"
           y1="122.913"
           x2="393.39301"
           y2="122.913"
           id="line3482"
           style="fill:none;fill-opacity:1;stroke:#80ffe6" />
      </g>
      <g
         id="POLYLINE_931_"
         transform="matrix(0.26458333,0,0,0.26458333,-95.578757,-8.6491577)"
         style="fill:none;fill-opacity:1;stroke:#80ffe6">
        <line
           fill="none"
           stroke="#00b9d2"
           stroke-width="2"
           stroke-linecap="round"
           stroke-linejoin="round"
           stroke-miterlimit="10"
           x1="393.39301"
           y1="127.557"
           x2="396.71899"
           y2="127.557"
           id="line3485"
           style="fill:none;fill-opacity:1;stroke:#80ffe6" />
      </g>
      <g
         id="POLYLINE_930_"
         transform="matrix(0.26458333,0,0,0.26458333,-95.578757,-8.6491577)"
         style="fill:none;fill-opacity:1;stroke:#80ffe6">
        <line
           fill="none"
           stroke="#00b9d2"
           stroke-width="2"
           stroke-linecap="round"
           stroke-linejoin="round"
           stroke-miterlimit="10"
           x1="634.172"
           y1="122.913"
           x2="630.84601"
           y2="122.913"
           id="line3488"
           style="fill:none;fill-opacity:1;stroke:#80ffe6" />
      </g>
      <g
         id="POLYLINE_929_"
         transform="matrix(0.26458333,0,0,0.26458333,-95.578757,-8.6491577)"
         style="fill:none;fill-opacity:1;stroke:#80ffe6">
        <line
           fill="none"
           stroke="#00b9d2"
           stroke-width="2"
           stroke-linecap="round"
           stroke-linejoin="round"
           stroke-miterlimit="10"
           x1="630.84601"
           y1="127.557"
           x2="634.172"
           y2="127.557"
           id="line3491"
           style="fill:none;fill-opacity:1;stroke:#80ffe6" />
      </g>
      <g
         id="POLYLINE_928_"
         transform="matrix(0.26458333,0,0,0.26458333,-95.578757,-8.6491577)"
         style="fill:none;fill-opacity:1;stroke:#80ffe6">
        <path
           fill="none"
           stroke="#00b9d2"
           stroke-width="2.75"
           stroke-linecap="round"
           stroke-linejoin="round"
           stroke-miterlimit="10"
           d="m 513.854,298.54 c 1.918,0.149 3.838,-0.412 5.505,-1.34 2.199,-1.215 3.987,-3.103 5.189,-5.301 1.266,-2.29 1.951,-4.956 1.661,-7.576 -1.761,0.081 -3.47,0.671 -5.021,1.485 -2.016,1.063 -3.796,2.593 -5.061,4.495 -1.605,2.397 -2.648,5.329 -2.273,8.237 z"
           id="path3494"
           style="fill:none;fill-opacity:1;stroke:#80ffe6" />
      </g>
      <g
         id="POLYLINE_927_"
         transform="matrix(0.26458333,0,0,0.26458333,-95.578757,-8.6491577)"
         style="fill:none;fill-opacity:1;stroke:#80ffe6">
        <path
           fill="none"
           stroke="#00b9d2"
           stroke-width="2.75"
           stroke-linecap="round"
           stroke-linejoin="round"
           stroke-miterlimit="10"
           d="m 530.764,317.095 c -0.024,-2.031 0.425,-4.071 1.329,-5.892 1.189,-2.39 3.076,-4.433 5.338,-5.844 -1.011,-1.484 -2.313,-2.774 -3.819,-3.753 -2.214,-1.44 -4.833,-2.238 -7.466,-2.366 -1.758,-0.18 -3.53,0.156 -5.204,0.681 -1.615,0.488 -3.557,1.388 -5.168,1.888 -0.496,0.146 -1.033,0.275 -1.55,0.255 -0.87,-0.039 -1.711,-0.34 -2.522,-0.635 l -2.534,-0.984 c -1.312,-0.487 -2.677,-0.909 -4.078,-1.026 -1.596,-0.116 -3.22,0.108 -4.754,0.551 -5.201,1.532 -9.008,5.748 -10.548,10.88 -2.517,8.287 0.18,18.579 4.541,25.838 1.15,1.842 2.452,3.672 3.844,5.339 1.408,1.631 3.078,3.227 5.214,3.794 1.191,0.316 2.455,0.185 3.636,-0.111 1.008,-0.243 2.352,-0.862 3.319,-1.258 2.219,-0.932 4.6,-1.218 6.972,-0.78 1.328,0.234 2.715,0.871 3.953,1.401 0.692,0.288 1.413,0.542 2.15,0.687 0.849,0.166 1.729,0.216 2.59,0.121 3.514,-0.415 5.868,-3.447 7.794,-6.134 2.141,-2.94 3.925,-6.201 5.075,-9.655 l 0.165,-0.52 -0.107,-0.044 c -2.594,-1.154 -4.851,-3.111 -6.315,-5.548 -1.242,-2.064 -1.842,-4.482 -1.855,-6.885"
           id="path3497"
           style="fill:none;fill-opacity:1;stroke:#80ffe6" />
      </g>
      <g
         id="POLYLINE_926_"
         transform="matrix(0.26458333,0,0,0.26458333,-95.578757,-8.6491577)"
         style="fill:none;fill-opacity:1;stroke:#80ffe6">
        <path
           fill="none"
           stroke="#00b9d2"
           stroke-width="2"
           stroke-linecap="round"
           stroke-linejoin="round"
           stroke-miterlimit="10"
           d="m 451.95,116.619 c 0.022,-5.732 -2.954,-11.231 -7.764,-14.347 -8.8,-5.733 -20.62,-2.298 -24.977,7.259 -2.04,4.436 -2.04,9.741 0,14.177 4.357,9.556 16.176,12.991 24.977,7.259 4.81,-3.117 7.786,-8.616 7.764,-14.348 z"
           id="path3500"
           style="fill:none;fill-opacity:1;stroke:#80ffe6" />
      </g>
      <g
         id="POLYLINE_925_"
         transform="matrix(0.26458333,0,0,0.26458333,-95.578757,-8.6491577)"
         style="fill:none;fill-opacity:1;stroke:#80ffe6">
        <path
           fill="none"
           stroke="#00b9d2"
           stroke-width="2"
           stroke-linecap="round"
           stroke-linejoin="round"
           stroke-miterlimit="10"
           d="m 451.95,169.016 c 0.022,5.732 -2.954,11.231 -7.764,14.347 -8.8,5.733 -20.62,2.298 -24.977,-7.259 -2.04,-4.436 -2.04,-9.741 0,-14.177 4.357,-9.556 16.176,-12.991 24.977,-7.259 4.81,3.117 7.786,8.616 7.764,14.348 z"
           id="path3503"
           style="fill:none;fill-opacity:1;stroke:#80ffe6" />
      </g>
      <g
         id="POLYLINE_924_"
         transform="matrix(0.26458333,0,0,0.26458333,-95.578757,-8.6491577)"
         style="fill:none;fill-opacity:1;stroke:#80ffe6">
        <path
           fill="none"
           stroke="#00b9d2"
           stroke-width="2"
           stroke-linecap="round"
           stroke-linejoin="round"
           stroke-miterlimit="10"
           d="m 498.924,142.818 c 0.021,-5.827 -2.999,-11.408 -7.889,-14.577 -8.941,-5.824 -20.95,-2.334 -25.377,7.375 -2.072,4.507 -2.073,9.897 0,14.404 4.427,9.709 16.435,13.199 25.377,7.375 4.89,-3.17 7.91,-8.75 7.889,-14.577 z"
           id="path3506"
           style="fill:none;fill-opacity:1;stroke:#80ffe6" />
      </g>
      <g
         id="POLYLINE_923_"
         transform="matrix(0.26458333,0,0,0.26458333,-95.578757,-8.6491577)"
         style="fill:none;fill-opacity:1;stroke:#80ffe6">
        <path
           fill="none"
           stroke="#00b9d2"
           stroke-width="2"
           stroke-linecap="round"
           stroke-linejoin="round"
           stroke-miterlimit="10"
           d="m 434.52,193.701 c -9.826,0.019 -18.812,-5.955 -22.594,-15.027 -1.253,-2.985 -1.907,-6.236 -1.906,-9.473 v -52.768 l 0.004,-0.423 c 0.017,-0.822 0.074,-1.714 0.175,-2.53 0.288,-2.372 0.932,-4.722 1.894,-6.909 3.377,-7.738 10.688,-13.266 19.055,-14.405 1.101,-0.151 2.261,-0.234 3.372,-0.233 h 46.54 l 0.423,0.004 c 0.527,0.015 1.163,0.038 1.689,0.088 1.533,0.134 3.089,0.417 4.569,0.837 3.251,0.92 6.319,2.53 8.923,4.683 5.133,4.207 8.406,10.575 8.838,17.198 0.031,0.532 0.062,1.158 0.058,1.69 0,0 0,52.768 0,52.768 l -0.004,0.423 c -0.021,1.11 -0.119,2.271 -0.291,3.368 -0.217,1.379 -0.56,2.779 -1.011,4.101 -1.268,3.735 -3.462,7.162 -6.324,9.875 -3.062,2.913 -6.901,5.014 -11.007,6.021 -1.357,0.333 -2.779,0.558 -4.173,0.654 -0.531,0.031 -1.158,0.062 -1.69,0.058 0,0 -46.54,0 -46.54,0 z"
           id="path3509"
           style="fill:none;fill-opacity:1;stroke:#80ffe6" />
      </g>
      <g
         id="POLYLINE_673_"
         transform="matrix(0.26458333,0,0,0.26458333,-95.578757,-8.6491577)"
         style="fill:none;fill-opacity:1;stroke:#80ffe6">
        <rect
           x="391.57101"
           y="213.67"
           fill="none"
           stroke="#00b9d2"
           stroke-width="2.75"
           stroke-linecap="round"
           stroke-linejoin="round"
           stroke-miterlimit="10"
           width="1.822"
           height="54.159"
           id="rect3618"
           style="fill:none;fill-opacity:1;stroke:#80ffe6" />
      </g>
      <g
         id="POLYLINE_599_"
         transform="matrix(0.26458333,0,0,0.26458333,-95.578757,-8.6491577)"
         style="fill:none;fill-opacity:1;stroke:#80ffe6">
        <path
           fill="none"
           stroke="#00b9d2"
           stroke-width="2.75"
           stroke-linecap="round"
           stroke-linejoin="round"
           stroke-miterlimit="10"
           d="m 599.281,571.047 c 10.913,0.025 21.39,-5.211 27.918,-13.963 2.027,-2.705 3.666,-5.719 4.831,-8.891 1.05,-2.858 1.728,-5.868 2.001,-8.901 0.076,-0.906 0.133,-1.842 0.139,-2.749 0.017,-0.568 -0.005,-426.156 0,-426.73 0,0 -0.007,-0.388 -0.007,-0.388 l -0.011,-0.39 -0.015,-0.391 -0.02,-0.393 c -0.076,-1.323 -0.228,-2.689 -0.456,-3.996 -0.506,-2.923 -1.392,-5.8 -2.621,-8.501 -3.495,-7.742 -9.927,-14.097 -17.714,-17.493 -2.708,-1.19 -5.585,-2.041 -8.506,-2.51 -1.178,-0.182 -2.401,-0.326 -3.592,-0.388 -0.355,-0.002 -0.82,-0.051 -1.174,-0.046 -0.553,-0.402 -171.111,0.272 -171.773,-0.009 10e-4,10e-4 -0.385,0.003 -0.385,0.003 l -0.388,0.006 c -2.415,0.055 -4.846,0.362 -7.198,0.915 -8.49,1.966 -16.145,7.253 -20.984,14.502 -1.95,2.901 -3.467,6.109 -4.469,9.458 -0.705,2.361 -1.166,4.813 -1.358,7.269 -0.053,0.774 -0.102,1.579 -0.105,2.352 -0.017,0.568 0.005,426.156 0,426.73 0,0 0.007,0.388 0.007,0.388 l 0.011,0.39 0.015,0.391 c 0.085,1.873 0.322,3.769 0.708,5.604 1.98,9.579 8.102,18.075 16.572,22.98 2.742,1.598 5.718,2.828 8.79,3.626 1.715,0.443 3.49,0.768 5.253,0.945 0.772,0.064 1.595,0.144 2.369,0.16 0.344,0.022 0.819,0.012 1.164,0.02 10e-4,0 170.998,0 170.998,0 z"
           id="path3621"
           style="fill:none;fill-opacity:1;stroke:#80ffe6" />
      </g>
      <g
         id="POLYLINE_597_"
         transform="matrix(0.26458333,0,0,0.26458333,-95.578757,-8.6491577)"
         style="fill:none;fill-opacity:1;stroke:#80ffe6">
        <rect
           x="634.172"
           y="245.172"
           fill="none"
           stroke="#00b9d2"
           stroke-width="2.75"
           stroke-linecap="round"
           stroke-linejoin="round"
           stroke-miterlimit="10"
           width="1.822"
           height="33.622002"
           id="rect3624"
           style="fill:none;fill-opacity:1;stroke:#80ffe6" />
      </g>
      <g
         id="POLYLINE_594_"
         transform="matrix(0.26458333,0,0,0.26458333,-95.578757,-8.6491577)"
         style="fill:none;fill-opacity:1;stroke:#80ffe6">
        <rect
           x="634.172"
           y="202.08501"
           fill="none"
           stroke="#00b9d2"
           stroke-width="2.75"
           stroke-linecap="round"
           stroke-linejoin="round"
           stroke-miterlimit="10"
           width="1.822"
           height="33.622002"
           id="rect3627"
           style="fill:none;fill-opacity:1;stroke:#80ffe6" />
      </g>
      <g
         id="POLYLINE_593_"
         transform="matrix(0.26458333,0,0,0.26458333,-95.578757,-8.6491577)"
         style="fill:none;fill-opacity:1;stroke:#80ffe6">
        <rect
           x="634.172"
           y="169.647"
           fill="none"
           stroke="#00b9d2"
           stroke-width="2.75"
           stroke-linecap="round"
           stroke-linejoin="round"
           stroke-miterlimit="10"
           width="1.822"
           height="16.472"
           id="rect3630"
           style="fill:none;fill-opacity:1;stroke:#80ffe6" />
      </g>
      <g
         id="POLYLINE_592_"
         transform="matrix(0.26458333,0,0,0.26458333,-95.578757,-8.6491577)"
         style="fill:none;fill-opacity:1;stroke:#80ffe6">
        <path
           fill="none"
           stroke="#00b9d2"
           stroke-width="2.75"
           stroke-linecap="round"
           stroke-linejoin="round"
           stroke-miterlimit="10"
           d="m 487.65,142.818 c 0.01,-2.791 -1.923,-5.275 -4.631,-5.95 -3.855,-0.972 -7.606,1.921 -7.645,5.897 -0.03,4.021 3.746,6.986 7.645,6.004 2.708,-0.677 4.641,-3.161 4.631,-5.951 z"
           id="path3633"
           style="fill:none;fill-opacity:1;stroke:#80ffe6" />
      </g>
      <g
         id="POLYLINE_591_"
         transform="matrix(0.26458333,0,0,0.26458333,-95.578757,-8.6491577)"
         style="fill:none;fill-opacity:1;stroke:#80ffe6">
        <path
           fill="none"
           stroke="#00b9d2"
           stroke-width="2.75"
           stroke-linecap="round"
           stroke-linejoin="round"
           stroke-miterlimit="10"
           d="m 456.752,116.619 c 0.023,-7.35 -3.774,-14.366 -9.94,-18.367 -11.271,-7.338 -26.393,-2.943 -31.975,9.293 -2.612,5.687 -2.612,12.462 0,18.149 5.582,12.236 20.704,16.631 31.975,9.293 6.166,-4.001 9.963,-11.018 9.94,-18.368 z"
           id="path3636"
           style="fill:none;fill-opacity:1;stroke:#80ffe6" />
      </g>
      <g
         id="POLYLINE_577_"
         transform="matrix(0.26458333,0,0,0.26458333,-95.578757,-8.6491577)"
         style="fill:none;fill-opacity:1;stroke:#80ffe6">
        <path
           fill="none"
           stroke="#00b9d2"
           stroke-width="2.75"
           stroke-linecap="round"
           stroke-linejoin="round"
           stroke-miterlimit="10"
           d="m 440.235,116.619 c 0.01,-2.464 -1.701,-4.662 -4.092,-5.257 -3.445,-0.868 -6.781,1.752 -6.754,5.304 0.034,3.513 3.348,6.069 6.754,5.21 2.391,-0.595 4.102,-2.793 4.092,-5.257 z"
           id="path3639"
           style="fill:none;fill-opacity:1;stroke:#80ffe6" />
      </g>
      <g
         id="POLYLINE_576_"
         transform="matrix(0.26458333,0,0,0.26458333,-95.578757,-8.6491577)"
         style="fill:none;fill-opacity:1;stroke:#80ffe6">
        <path
           fill="none"
           stroke="#00b9d2"
           stroke-width="2.75"
           stroke-linecap="round"
           stroke-linejoin="round"
           stroke-miterlimit="10"
           d="m 456.752,169.016 c 0.023,7.35 -3.774,14.366 -9.94,18.367 -11.271,7.338 -26.393,2.943 -31.975,-9.293 -2.612,-5.687 -2.612,-12.462 0,-18.149 5.582,-12.236 20.704,-16.631 31.975,-9.293 6.166,4.002 9.963,11.018 9.94,18.368 z"
           id="path3642"
           style="fill:none;fill-opacity:1;stroke:#80ffe6" />
      </g>
      <g
         id="POLYLINE_574_"
         transform="matrix(0.26458333,0,0,0.26458333,-95.578757,-8.6491577)"
         style="fill:none;fill-opacity:1;stroke:#80ffe6">
        <path
           fill="none"
           stroke="#00b9d2"
           stroke-width="2.75"
           stroke-linecap="round"
           stroke-linejoin="round"
           stroke-miterlimit="10"
           d="m 440.235,169.016 c 0.01,2.464 -1.701,4.662 -4.092,5.257 -3.445,0.868 -6.781,-1.752 -6.754,-5.304 0.034,-3.513 3.348,-6.069 6.754,-5.21 2.391,0.595 4.102,2.793 4.092,5.257 z"
           id="path3645"
           style="fill:none;fill-opacity:1;stroke:#80ffe6" />
      </g>
      <g
         id="POLYLINE_573_"
         transform="matrix(0.26458333,0,0,0.26458333,-95.578757,-8.6491577)"
         style="fill:none;fill-opacity:1;stroke:#80ffe6">
        <path
           fill="none"
           stroke="#00b9d2"
           stroke-width="2.75"
           stroke-linecap="round"
           stroke-linejoin="round"
           stroke-miterlimit="10"
           d="m 500.294,168.738 c 0.003,-1.497 -1.321,-2.658 -2.79,-2.48 -0.606,0.062 -1.233,0.406 -1.609,0.862 -0.398,0.472 -0.596,1.033 -0.595,1.64 -0.002,0.582 0.241,1.205 0.623,1.629 0.429,0.479 0.962,0.75 1.581,0.829 1.486,0.179 2.796,-1.002 2.79,-2.48 z"
           id="path3648"
           style="fill:none;fill-opacity:1;stroke:#80ffe6" />
      </g>
      <g
         id="POLYLINE_572_"
         transform="matrix(0.26458333,0,0,0.26458333,-95.578757,-8.6491577)"
         style="fill:none;fill-opacity:1;stroke:#80ffe6">
        <path
           fill="none"
           stroke="#00b9d2"
           stroke-width="2.75"
           stroke-linecap="round"
           stroke-linejoin="round"
           stroke-miterlimit="10"
           d="m 491.609,180.001 c 0.012,-4.597 -3.158,-8.671 -7.618,-9.788 -6.42,-1.613 -12.62,3.256 -12.575,9.876 0.068,6.546 6.226,11.296 12.575,9.7 4.459,-1.117 7.63,-5.191 7.618,-9.788 z"
           id="path3651"
           style="fill:none;fill-opacity:1;stroke:#80ffe6" />
      </g>
      <g
         id="POLYLINE_570_"
         transform="matrix(0.26458333,0,0,0.26458333,-95.578757,-8.6491577)"
         style="fill:none;fill-opacity:1;stroke:#80ffe6">
        <path
           fill="none"
           stroke="#00b9d2"
           stroke-width="2.75"
           stroke-linecap="round"
           stroke-linejoin="round"
           stroke-miterlimit="10"
           d="m 502.78,142.818 c 0.022,-7.125 -3.659,-13.927 -9.635,-17.805 -10.926,-7.114 -25.585,-2.853 -30.996,9.008 -2.532,5.513 -2.532,12.081 0,17.593 5.411,11.861 20.07,16.122 30.996,9.008 5.976,-3.878 9.657,-10.68 9.635,-17.804 z"
           id="path3654"
           style="fill:none;fill-opacity:1;stroke:#80ffe6" />
      </g>
      <g
         id="POLYLINE_568_"
         transform="matrix(0.26458333,0,0,0.26458333,-95.578757,-8.6491577)"
         style="fill:none;fill-opacity:1;stroke:#80ffe6">
        <path
           fill="none"
           stroke="#00b9d2"
           stroke-width="2.75"
           stroke-linecap="round"
           stroke-linejoin="round"
           stroke-miterlimit="10"
           d="m 492.59,105.267 c 0.012,-5.047 -3.463,-9.511 -8.358,-10.739 -6.968,-1.75 -13.72,3.458 -13.797,10.642 -0.047,7.265 6.75,12.603 13.797,10.835 4.895,-1.227 8.37,-5.691 8.358,-10.738 z"
           id="path3657"
           style="fill:none;fill-opacity:1;stroke:#80ffe6" />
      </g>
      <g
         id="POLYLINE_553_"
         transform="matrix(0.26458333,0,0,0.26458333,-95.578757,-8.6491577)"
         style="fill:none;fill-opacity:1;stroke:#80ffe6">
        <path
           fill="none"
           stroke="#00b9d2"
           stroke-width="2.75"
           stroke-linecap="round"
           stroke-linejoin="round"
           stroke-miterlimit="10"
           d="m 434.52,197.191 c -12.664,0.014 -23.826,-8.574 -27.056,-20.823 -0.616,-2.326 -0.933,-4.76 -0.933,-7.166 v -52.768 c 0.01,-0.425 0.008,-1.023 0.038,-1.449 0.067,-1.267 0.225,-2.588 0.466,-3.834 0.636,-3.315 1.887,-6.531 3.659,-9.403 3.201,-5.218 8.173,-9.326 13.902,-11.484 1.947,-0.738 4.01,-1.266 6.072,-1.552 0.769,-0.102 1.629,-0.191 2.404,-0.229 0.434,-0.011 1.015,-0.045 1.449,-0.038 0,0 46.54,0 46.54,0 1.432,0.002 2.916,0.115 4.331,0.337 9.88,1.523 18.317,8.369 21.84,17.727 0.853,2.25 1.421,4.638 1.669,7.031 0.076,0.773 0.135,1.635 0.146,2.411 0,0 0.004,0.483 0.004,0.483 v 52.768 c 0.019,11.761 -7.44,22.375 -18.517,26.338 -2.264,0.814 -4.662,1.34 -7.059,1.547 -0.606,0.046 -1.322,0.094 -1.93,0.1 0,0 -0.483,0.004 -0.483,0.004 z"
           id="path3660"
           style="fill:none;fill-opacity:1;stroke:#80ffe6" />
      </g>
    </g>
  </g>
</svg>
