<?xml version="1.0" encoding="UTF-8" standalone="no"?>
<svg
   xmlns:dc="http://purl.org/dc/elements/1.1/"
   xmlns:cc="http://creativecommons.org/ns#"
   xmlns:rdf="http://www.w3.org/1999/02/22-rdf-syntax-ns#"
   xmlns:svg="http://www.w3.org/2000/svg"
   xmlns="http://www.w3.org/2000/svg"
   xmlns:sodipodi="http://sodipodi.sourceforge.net/DTD/sodipodi-0.dtd"
   xmlns:inkscape="http://www.inkscape.org/namespaces/inkscape"
   width="15.072898mm"
   height="30.240765mm"
   viewBox="0 0 15.072899 30.240766"
   version="1.1"
   id="svg4830"
   inkscape:version="1.0.2 (e86c8708, 2021-01-15)"
   sodipodi:docname="ip6.svg">
  <defs
     id="defs4824" />
  <sodipodi:namedview
     id="base"
     pagecolor="#ffffff"
     bordercolor="#666666"
     borderopacity="1.0"
     inkscape:pageopacity="0.0"
     inkscape:pageshadow="2"
     inkscape:zoom="3.8813991"
     inkscape:cx="36.145485"
     inkscape:cy="73.39245"
     inkscape:document-units="mm"
     inkscape:current-layer="layer1"
     inkscape:document-rotation="0"
     showgrid="false"
     inkscape:window-width="1440"
     inkscape:window-height="872"
     inkscape:window-x="0"
     inkscape:window-y="28"
     inkscape:window-maximized="0" />
  <metadata
     id="metadata4827">
    <rdf:RDF>
      <cc:Work
         rdf:about="">
        <dc:format>image/svg+xml</dc:format>
        <dc:type
           rdf:resource="http://purl.org/dc/dcmitype/StillImage" />
        <dc:title></dc:title>
      </cc:Work>
    </rdf:RDF>
  </metadata>
  <g
     inkscape:label="Layer 1"
     inkscape:groupmode="layer"
     id="layer1"
     transform="translate(-74.077241,-123.83526)">
    <g
       id="g19632"
       transform="matrix(0.22155764,0,0,0.22155764,52.051936,78.679471)"
       style="stroke:#80ffe6;stroke-opacity:1">
      <g
         id="g19734"
         transform="matrix(0.24451971,0,0,0.24451971,-18.360031,184.44388)">
        <path
           fill="none"
           stroke="#00b9d2"
           stroke-width="2"
           stroke-linecap="round"
           stroke-linejoin="round"
           stroke-miterlimit="10"
           d="m 540.37,104 c 0.01,-2.599 -1.794,-4.918 -4.316,-5.545 -3.634,-0.916 -7.153,1.848 -7.124,5.595 0.036,3.705 3.531,6.402 7.124,5.495 2.522,-0.628 4.327,-2.947 4.316,-5.545 z"
           id="path18804"
           style="stroke:#80ffe6;stroke-opacity:1" />
        <path
           fill="none"
           stroke="#00b9d2"
           stroke-width="2"
           stroke-linecap="round"
           stroke-linejoin="round"
           stroke-miterlimit="10"
           d="m 621.174,209.881 c 1.927,0.15 3.857,-0.414 5.531,-1.346 2.21,-1.221 4.006,-3.118 5.214,-5.327 1.272,-2.301 1.961,-4.98 1.669,-7.612 -1.769,0.081 -3.487,0.674 -5.045,1.493 -2.072,1.091 -3.894,2.677 -5.172,4.647 -1.56,2.38 -2.567,5.275 -2.197,8.145 z"
           id="path18807"
           style="stroke:#80ffe6;stroke-opacity:1" />
        <path
           fill="none"
           stroke="#00b9d2"
           stroke-width="2"
           stroke-linecap="round"
           stroke-linejoin="round"
           stroke-miterlimit="10"
           d="m 638.167,228.526 c -0.024,-2.041 0.427,-4.091 1.335,-5.921 1.194,-2.401 3.091,-4.454 5.364,-5.872 -1.016,-1.491 -2.324,-2.788 -3.838,-3.771 -2.225,-1.447 -4.856,-2.249 -7.502,-2.377 -1.766,-0.18 -3.547,0.157 -5.229,0.684 -1.622,0.491 -3.574,1.395 -5.193,1.897 -0.498,0.147 -1.038,0.276 -1.557,0.257 -0.874,-0.039 -1.719,-0.342 -2.534,-0.638 0,0 -2.546,-0.989 -2.546,-0.989 -1.319,-0.489 -2.69,-0.913 -4.098,-1.031 -1.443,-0.107 -2.911,0.071 -4.311,0.424 -5.351,1.385 -9.352,5.606 -10.988,10.818 -2.663,8.374 0.067,18.853 4.487,26.208 1.156,1.851 2.464,3.69 3.863,5.365 1.396,1.617 3.044,3.196 5.15,3.788 1.222,0.346 2.526,0.218 3.743,-0.087 1.013,-0.244 2.364,-0.867 3.335,-1.264 0.851,-0.345 1.741,-0.634 2.646,-0.795 1.435,-0.25 2.927,-0.258 4.36,0.011 1.335,0.236 2.729,0.875 3.972,1.408 0.696,0.29 1.42,0.545 2.16,0.691 0.854,0.167 1.737,0.217 2.602,0.121 3.531,-0.417 5.897,-3.463 7.832,-6.164 2.152,-2.954 3.944,-6.231 5.1,-9.702 l 0.166,-0.522 c 0,0 -0.108,-0.044 -0.108,-0.044 -2.607,-1.16 -4.875,-3.126 -6.346,-5.575 -1.249,-2.076 -1.852,-4.506 -1.865,-6.92"
           id="path18810"
           style="stroke:#80ffe6;stroke-opacity:1" />
        <path
           fill="none"
           stroke="#00b9d2"
           stroke-width="2"
           stroke-linecap="round"
           stroke-linejoin="round"
           stroke-miterlimit="10"
           d="m 498.274,117.141 -0.061,-0.001 -0.061,-0.002 -0.061,-0.003 -0.061,-0.004 -0.061,-0.005 -0.061,-0.006 -0.061,-0.007 -0.061,-0.008 -0.061,-0.009 -0.06,-0.01 -0.06,-0.011 -0.06,-0.012 -0.06,-0.013 -0.06,-0.014 -0.059,-0.015 -0.059,-0.016 c 0,0 -0.059,-0.017 -0.059,-0.017 l -0.058,-0.018 -0.058,-0.019 -0.058,-0.02 -0.057,-0.021 c 0,0 -0.057,-0.022 -0.057,-0.022 l -0.057,-0.023 c 0,0 -0.056,-0.024 -0.056,-0.024 0,0 -0.056,-0.025 -0.056,-0.025 l -0.055,-0.026 -0.055,-0.027 -0.054,-0.028 c 0,0 -0.054,-0.029 -0.054,-0.029 0,0 -0.053,-0.03 -0.053,-0.03 0,0 -0.053,-0.031 -0.053,-0.031 l -0.052,-0.032 -0.052,-0.033 c -0.051,-0.034 -0.102,-0.068 -0.102,-0.068 -0.05,-0.036 -0.099,-0.072 -0.099,-0.072 -0.049,-0.037 -0.097,-0.075 -0.097,-0.075 -0.047,-0.039 -0.094,-0.079 -0.094,-0.079 -0.046,-0.041 -0.091,-0.082 -0.091,-0.082 -0.044,-0.042 -0.088,-0.085 -0.088,-0.085 -0.043,-0.044 -0.085,-0.088 -0.085,-0.088 -0.041,-0.045 -0.082,-0.091 -0.082,-0.091 -0.04,-0.047 -0.079,-0.094 -0.079,-0.094 -0.038,-0.048 -0.076,-0.096 -0.076,-0.096 -0.036,-0.049 -0.072,-0.099 -0.072,-0.099 -0.035,-0.05 -0.069,-0.101 -0.069,-0.101 0,0 -0.033,-0.052 -0.033,-0.052 0,0 -0.032,-0.052 -0.032,-0.052 l -0.031,-0.053 -0.03,-0.053 c 0,0 -0.029,-0.054 -0.029,-0.054 l -0.028,-0.054 c 0,0 -0.027,-0.055 -0.027,-0.055 l -0.026,-0.055 -0.025,-0.056 -0.025,-0.056 c 0,0 -0.024,-0.057 -0.024,-0.057 l -0.023,-0.057 -0.022,-0.057 -0.021,-0.058 c 0,0 -0.02,-0.058 -0.02,-0.058 l -0.019,-0.058 -0.018,-0.059 -0.016,-0.059 c 0,0 -0.015,-0.059 -0.015,-0.059 0,0 -0.014,-0.06 -0.014,-0.06 l -0.013,-0.06 -0.012,-0.06 c 0,0 -0.011,-0.06 -0.011,-0.06 l -0.01,-0.06 -0.009,-0.061 -0.008,-0.061 c 0,0 -0.007,-0.061 -0.007,-0.061 l -0.006,-0.061 -0.005,-0.061 -0.004,-0.061 c 0,0 -0.003,-0.061 -0.003,-0.061 l -0.002,-0.061 -0.001,-0.061 v -0.061 l 0.001,-0.061 0.003,-0.061 0.004,-0.061 c 0,0 0.005,-0.061 0.005,-0.061 l 0.006,-0.061 0.007,-0.061 0.008,-0.061 0.009,-0.061 0.01,-0.06 0.011,-0.06 0.012,-0.06 0.064,-0.299 0.067,-0.299 0.071,-0.299 0.074,-0.3 c 0,0 0.077,-0.3 0.077,-0.3 l 0.081,-0.3 c 0,0 0.084,-0.3 0.084,-0.3 0,0 0.087,-0.3 0.087,-0.3 0,0 0.091,-0.3 0.091,-0.3 0,0 0.094,-0.3 0.094,-0.3 l 0.097,-0.299 c 0,0 0.101,-0.299 0.101,-0.299 l 0.104,-0.299 0.108,-0.299 0.111,-0.298 0.114,-0.298 0.118,-0.297 0.121,-0.297 c 0,0 0.125,-0.296 0.125,-0.296 l 0.128,-0.295 0.131,-0.295 0.135,-0.294 0.138,-0.293 c 0,0 0.142,-0.292 0.142,-0.292 l 0.145,-0.291 0.149,-0.29 c 0,0 0.152,-0.289 0.152,-0.289 l 0.155,-0.288 c 0,0 0.159,-0.287 0.159,-0.287 0,0 0.162,-0.285 0.162,-0.285 l 0.165,-0.284 0.169,-0.283 c 0,0 0.172,-0.281 0.172,-0.281 0,0 0.175,-0.28 0.175,-0.28 l 0.179,-0.278 0.182,-0.276 c 0,0 0.185,-0.275 0.185,-0.275 l 0.188,-0.273 0.192,-0.271 0.195,-0.27 0.198,-0.268 0.201,-0.266 c 0,0 0.204,-0.264 0.204,-0.264 l 0.207,-0.262 0.21,-0.26 0.213,-0.257 c 0,0 0.216,-0.255 0.216,-0.255 0,0 0.219,-0.253 0.219,-0.253 l 0.222,-0.251 c 0,0 0.225,-0.248 0.225,-0.248 0,0 0.228,-0.246 0.228,-0.246 0,0 0.231,-0.243 0.231,-0.243 l 0.234,-0.241 0.236,-0.238 0.239,-0.236 c 0,0 0.242,-0.233 0.242,-0.233 l 0.244,-0.23 0.247,-0.228 0.249,-0.225 0.252,-0.222 c 0,0 0.254,-0.219 0.254,-0.219 l 0.256,-0.216 0.259,-0.213 0.261,-0.21 c 0,0 0.263,-0.207 0.263,-0.207 l 0.265,-0.204 c 0,0 0.267,-0.201 0.267,-0.201 l 0.269,-0.198 0.271,-0.195 0.273,-0.192 0.275,-0.189 0.277,-0.186 0.279,-0.182 c 0,0 0.281,-0.179 0.281,-0.179 0,0 0.282,-0.176 0.282,-0.176 l 0.284,-0.172 0.285,-0.169 0.287,-0.166 c 0,0 0.288,-0.162 0.288,-0.162 l 0.29,-0.159 0.291,-0.156 0.292,-0.152 c 0,0 0.293,-0.149 0.293,-0.149 0,0 0.294,-0.145 0.294,-0.145 0,0 0.296,-0.142 0.296,-0.142 l 0.297,-0.139 c 0,0 0.298,-0.135 0.298,-0.135 0,0 0.298,-0.132 0.298,-0.132 l 0.299,-0.128 0.3,-0.125 0.301,-0.121 c 0,0 0.301,-0.118 0.301,-0.118 l 0.302,-0.114 c 0,0 0.303,-0.111 0.303,-0.111 l 0.303,-0.107 0.304,-0.104 0.304,-0.1 c 0,0 0.304,-0.097 0.304,-0.097 l 0.305,-0.094 c 0,0 0.305,-0.09 0.305,-0.09 0,0 0.305,-0.087 0.305,-0.087 l 0.305,-0.083 c 0,0 0.305,-0.08 0.305,-0.08 l 0.305,-0.076 0.305,-0.073 0.305,-0.07 0.305,-0.066 c 0,0 0.305,-0.063 0.305,-0.063 l 0.304,-0.06 0.304,-0.056 0.304,-0.053 0.303,-0.05 0.303,-0.047 0.302,-0.044 c 0,0 0.302,-0.04 0.302,-0.04 0,0 0.301,-0.037 0.301,-0.037 0,0 0.301,-0.034 0.301,-0.034 l 0.3,-0.031 0.299,-0.028 0.298,-0.025 0.298,-0.022 0.297,-0.019 0.296,-0.016 0.295,-0.013 0.294,-0.01 0.293,-0.007 0.292,-0.004 0.291,-0.001 c 0,0 192.686,0 192.686,0 l 0.291,0.001 0.292,0.004 0.293,0.007 0.294,0.01 0.295,0.013 0.296,0.016 0.297,0.019 c 0,0 0.298,0.022 0.298,0.022 l 0.298,0.025 0.299,0.028 c 0,0 0.3,0.031 0.3,0.031 l 0.3,0.034 0.301,0.037 c 0,0 0.302,0.04 0.302,0.04 0,0 0.302,0.044 0.302,0.044 l 0.303,0.047 0.303,0.05 0.304,0.053 c 0,0 0.304,0.056 0.304,0.056 l 0.304,0.06 0.305,0.063 0.305,0.066 0.305,0.07 0.305,0.073 0.305,0.076 0.305,0.08 c 0,0 0.305,0.083 0.305,0.083 l 0.305,0.087 0.305,0.09 0.305,0.094 0.304,0.097 0.304,0.1 c 0,0 0.304,0.104 0.304,0.104 l 0.303,0.107 0.303,0.111 0.302,0.114 0.302,0.118 0.301,0.121 0.3,0.125 0.299,0.128 0.298,0.132 0.298,0.135 0.297,0.139 0.296,0.142 c 0,0 0.294,0.145 0.294,0.145 l 0.293,0.149 0.292,0.152 c 0,0 0.291,0.156 0.291,0.156 0,0 0.29,0.159 0.29,0.159 0,0 0.288,0.162 0.288,0.162 l 0.287,0.166 c 0,0 0.285,0.169 0.285,0.169 l 0.284,0.172 0.282,0.176 c 0,0 0.281,0.179 0.281,0.179 l 0.279,0.182 0.277,0.186 0.275,0.189 c 0,0 0.273,0.192 0.273,0.192 l 0.271,0.195 0.269,0.198 0.267,0.201 0.265,0.204 c 0,0 0.263,0.207 0.263,0.207 l 0.261,0.21 0.259,0.213 0.256,0.216 c 0,0 0.254,0.219 0.254,0.219 l 0.252,0.222 0.249,0.225 0.247,0.228 c 0,0 0.244,0.23 0.244,0.23 l 0.242,0.233 c 0,0 0.239,0.236 0.239,0.236 l 0.236,0.238 0.233,0.241 c 0,0 0.231,0.243 0.231,0.243 l 0.228,0.246 c 0,0 0.225,0.248 0.225,0.248 l 0.222,0.251 c 0,0 0.219,0.253 0.219,0.253 l 0.216,0.255 0.213,0.257 0.21,0.26 c 0,0 0.207,0.262 0.207,0.262 l 0.204,0.264 0.201,0.266 0.198,0.268 0.195,0.27 c 0,0 0.192,0.271 0.192,0.271 l 0.188,0.273 0.185,0.275 0.182,0.276 0.179,0.278 0.175,0.28 0.172,0.281 0.169,0.283 0.165,0.284 0.162,0.285 0.159,0.287 0.155,0.288 c 0,0 0.152,0.289 0.152,0.289 l 0.148,0.29 c 0,0 0.145,0.291 0.145,0.291 0,0 0.142,0.292 0.142,0.292 l 0.138,0.293 0.135,0.294 0.131,0.295 c 0,0 0.128,0.295 0.128,0.295 l 0.125,0.296 0.121,0.297 0.118,0.297 0.114,0.298 c 0,0 0.111,0.298 0.111,0.298 l 0.107,0.299 0.104,0.299 0.101,0.299 0.097,0.299 c 0,0 0.094,0.3 0.094,0.3 l 0.091,0.3 0.087,0.3 0.084,0.3 c 0,0 0.081,0.3 0.081,0.3 l 0.077,0.3 0.074,0.3 0.071,0.299 c 0,0 0.067,0.299 0.067,0.299 0,0 0.064,0.299 0.064,0.299 l 0.012,0.06 0.011,0.06 0.01,0.06 0.009,0.061 0.008,0.061 0.007,0.061 0.006,0.061 0.005,0.061 0.004,0.061 c 0,0 0.003,0.061 0.003,0.061 l 10e-4,0.061 v 0.061 c 0,0 -10e-4,0.061 -10e-4,0.061 0,0 -0.002,0.061 -0.002,0.061 l -0.003,0.061 -0.004,0.061 -0.005,0.061 c 0,0 -0.006,0.061 -0.006,0.061 l -0.007,0.061 -0.008,0.061 -0.009,0.061 -0.01,0.06 -0.011,0.06 c 0,0 -0.012,0.06 -0.012,0.06 l -0.013,0.06 -0.014,0.06 -0.015,0.059 c 0,0 -0.016,0.059 -0.016,0.059 0,0 -0.018,0.059 -0.018,0.059 l -0.019,0.058 -0.02,0.058 c 0,0 -0.021,0.058 -0.021,0.058 l -0.022,0.057 c 0,0 -0.023,0.057 -0.023,0.057 l -0.024,0.057 -0.025,0.056 -0.025,0.056 -0.026,0.055 -0.027,0.055 -0.028,0.054 -0.029,0.054 -0.03,0.053 -0.031,0.053 -0.032,0.052 -0.033,0.052 c -0.034,0.051 -0.069,0.101 -0.069,0.101 -0.036,0.05 -0.072,0.099 -0.072,0.099 -0.037,0.049 -0.076,0.096 -0.076,0.096 -0.039,0.047 -0.079,0.094 -0.079,0.094 -0.041,0.046 -0.082,0.091 -0.082,0.091 -0.042,0.044 -0.085,0.088 -0.085,0.088 -0.044,0.043 -0.088,0.085 -0.088,0.085 -0.045,0.041 -0.091,0.082 -0.091,0.082 -0.047,0.04 -0.094,0.079 -0.094,0.079 -0.048,0.038 -0.097,0.075 -0.097,0.075 -0.049,0.036 -0.099,0.072 -0.099,0.072 -0.051,0.035 -0.102,0.068 -0.102,0.068 l -0.052,0.033 -0.052,0.032 c 0,0 -0.053,0.031 -0.053,0.031 l -0.053,0.03 -0.054,0.029 c 0,0 -0.054,0.028 -0.054,0.028 l -0.055,0.027 c 0,0 -0.055,0.026 -0.055,0.026 l -0.056,0.025 -0.056,0.024 -0.057,0.023 -0.057,0.022 c 0,0 -0.057,0.021 -0.057,0.021 l -0.058,0.02 -0.058,0.019 -0.058,0.018 -0.059,0.017 -0.059,0.016 -0.059,0.015 -0.06,0.014 -0.06,0.013 c 0,0 -0.06,0.012 -0.06,0.012 l -0.06,0.011 -0.06,0.01 -0.061,0.009 -0.061,0.008 c 0,0 -0.061,0.007 -0.061,0.007 l -0.061,0.006 -0.061,0.005 -0.061,0.004 -0.061,0.003 -0.061,0.002 -0.061,0.001 z"
           id="path18813"
           style="stroke:#80ffe6;stroke-opacity:1" />
        <path
           fill="none"
           stroke="#00b9d2"
           stroke-width="2"
           stroke-linecap="round"
           stroke-linejoin="round"
           stroke-miterlimit="10"
           d="m 746.629,603.923 0.013,-0.062 0.012,-0.063 0.011,-0.063 0.01,-0.063 0.009,-0.063 0.008,-0.063 c 0,0 0.006,-0.063 0.006,-0.063 l 0.005,-0.063 c 0,0 0.004,-0.064 0.004,-0.064 0,0 0.003,-0.064 0.003,-0.064 l 0.002,-0.064 10e-4,-0.064 V 603.1 l -10e-4,-0.064 c 0,0 -0.002,-0.064 -0.002,-0.064 l -0.003,-0.064 -0.005,-0.063 -0.006,-0.063 -0.007,-0.063 -0.008,-0.063 -0.009,-0.063 -0.01,-0.063 c 0,0 -0.011,-0.063 -0.011,-0.063 l -0.012,-0.062 -0.013,-0.062 -0.014,-0.062 -0.015,-0.062 -0.017,-0.061 c 0,0 -0.018,-0.061 -0.018,-0.061 l -0.019,-0.061 -0.02,-0.061 -0.021,-0.06 c 0,0 -0.022,-0.06 -0.022,-0.06 0,0 -0.023,-0.059 -0.023,-0.059 l -0.024,-0.059 c 0,0 -0.025,-0.059 -0.025,-0.059 0,0 -0.026,-0.058 -0.026,-0.058 l -0.027,-0.058 -0.028,-0.057 c 0,0 -0.029,-0.057 -0.029,-0.057 l -0.03,-0.056 -0.031,-0.056 -0.032,-0.055 c 0,0 -0.033,-0.055 -0.033,-0.055 0,0 -0.034,-0.054 -0.034,-0.054 l -0.035,-0.053 -0.035,-0.053 -0.036,-0.052 -0.037,-0.052 c -0.038,-0.051 -0.077,-0.101 -0.077,-0.101 -0.04,-0.05 -0.081,-0.098 -0.081,-0.098 -0.042,-0.048 -0.084,-0.096 -0.084,-0.096 -0.043,-0.047 -0.087,-0.093 -0.087,-0.093 -0.045,-0.045 -0.091,-0.09 -0.091,-0.09 -0.046,-0.044 -0.094,-0.086 -0.094,-0.086 -0.048,-0.042 -0.096,-0.083 -0.096,-0.083 -0.049,-0.04 -0.099,-0.08 -0.099,-0.08 -0.051,-0.039 -0.102,-0.076 -0.102,-0.076 l -0.052,-0.037 -0.053,-0.036 c 0,0 -0.053,-0.035 -0.053,-0.035 0,0 -0.054,-0.034 -0.054,-0.034 l -0.054,-0.033 -0.055,-0.032 -0.056,-0.031 -0.056,-0.03 -0.057,-0.029 -0.057,-0.028 -0.058,-0.027 -0.058,-0.026 c 0,0 -0.058,-0.025 -0.058,-0.025 l -0.059,-0.024 c 0,0 -0.059,-0.023 -0.059,-0.023 l -0.06,-0.022 -0.06,-0.021 c 0,0 -0.06,-0.02 -0.06,-0.02 l -0.061,-0.019 c 0,0 -0.061,-0.018 -0.061,-0.018 l -0.061,-0.017 -0.062,-0.016 -0.062,-0.015 -0.062,-0.014 c 0,0 -0.062,-0.013 -0.062,-0.013 l -0.063,-0.012 c 0,0 -0.063,-0.01 -0.063,-0.01 l -0.063,-0.009 c 0,0 -0.063,-0.008 -0.063,-0.008 l -0.063,-0.007 -0.063,-0.006 -0.063,-0.005 -0.064,-0.004 c 0,0 -0.064,-0.003 -0.064,-0.003 l -0.064,-0.002 -0.064,-10e-4 H 498.473 l -0.064,10e-4 -0.064,0.002 -0.064,0.003 -0.064,0.004 -0.063,0.005 -0.063,0.006 c 0,0 -0.063,0.007 -0.063,0.007 l -0.063,0.008 -0.063,0.009 c 0,0 -0.063,0.01 -0.063,0.01 l -0.063,0.012 -0.062,0.013 c 0,0 -0.062,0.014 -0.062,0.014 0,0 -0.062,0.015 -0.062,0.015 l -0.062,0.016 -0.061,0.017 c 0,0 -0.061,0.018 -0.061,0.018 0,0 -0.061,0.019 -0.061,0.019 l -0.06,0.02 -0.06,0.021 -0.06,0.022 c 0,0 -0.059,0.023 -0.059,0.023 0,0 -0.059,0.024 -0.059,0.024 l -0.058,0.025 c 0,0 -0.058,0.026 -0.058,0.026 0,0 -0.058,0.027 -0.058,0.027 0,0 -0.057,0.028 -0.057,0.028 0,0 -0.057,0.029 -0.057,0.029 l -0.056,0.03 -0.056,0.031 -0.055,0.032 c 0,0 -0.054,0.033 -0.054,0.033 0,0 -0.054,0.034 -0.054,0.034 0,0 -0.053,0.035 -0.053,0.035 0,0 -0.053,0.036 -0.053,0.036 0,0 -0.052,0.037 -0.052,0.037 l -0.051,0.038 c -0.051,0.039 -0.101,0.078 -0.101,0.078 -0.049,0.04 -0.098,0.081 -0.098,0.081 -0.048,0.042 -0.095,0.085 -0.095,0.085 -0.046,0.044 -0.092,0.088 -0.092,0.088 -0.045,0.045 -0.089,0.091 -0.089,0.091 -0.043,0.047 -0.086,0.094 -0.086,0.094 -0.042,0.048 -0.082,0.097 -0.082,0.097 -0.04,0.05 -0.079,0.1 -0.079,0.1 -0.038,0.051 -0.076,0.103 -0.076,0.103 l -0.036,0.052 -0.036,0.053 -0.035,0.053 -0.034,0.054 c 0,0 -0.033,0.055 -0.033,0.055 l -0.032,0.055 -0.031,0.056 -0.03,0.056 c 0,0 -0.029,0.057 -0.029,0.057 l -0.028,0.057 -0.027,0.058 -0.026,0.058 c 0,0 -0.025,0.059 -0.025,0.059 0,0 -0.024,0.059 -0.024,0.059 l -0.023,0.059 -0.022,0.06 c 0,0 -0.021,0.06 -0.021,0.06 l -0.02,0.061 -0.019,0.061 -0.018,0.061 c 0,0 -0.017,0.061 -0.017,0.061 l -0.015,0.062 -0.014,0.062 -0.013,0.062 -0.012,0.062 -0.011,0.063 -0.01,0.063 -0.009,0.063 -0.008,0.063 c 0,0 -0.007,0.063 -0.007,0.063 l -0.006,0.063 -0.005,0.063 -0.003,0.064 c 0,0 -0.002,0.064 -0.002,0.064 0,0 -10e-4,0.064 -10e-4,0.064 0,0 0,0.064 0,0.064 l 10e-4,0.064 c 0,0 0.002,0.064 0.002,0.064 l 0.003,0.064 c 0,0 0.004,0.064 0.004,0.064 l 0.005,0.063 0.006,0.063 0.008,0.063 c 0,0 0.009,0.063 0.009,0.063 l 0.01,0.063 0.011,0.063 0.012,0.063 0.013,0.062 c 0,0 0.066,0.297 0.066,0.297 l 0.069,0.298 c 0,0 0.073,0.298 0.073,0.298 l 0.076,0.298 0.079,0.298 0.082,0.298 c 0,0 0.086,0.298 0.086,0.298 l 0.089,0.298 0.092,0.298 0.096,0.298 0.099,0.298 0.102,0.297 0.106,0.297 c 0,0 0.109,0.297 0.109,0.297 0,0 0.112,0.296 0.112,0.296 l 0.116,0.296 0.119,0.295 0.123,0.294 0.126,0.294 0.129,0.293 0.133,0.292 c 0,0 0.136,0.292 0.136,0.292 l 0.14,0.291 c 0,0 0.143,0.29 0.143,0.29 l 0.146,0.289 0.15,0.288 0.153,0.287 0.156,0.285 0.16,0.284 0.163,0.283 0.166,0.282 0.17,0.28 c 0,0 0.173,0.279 0.173,0.279 l 0.176,0.277 0.179,0.276 0.183,0.274 0.186,0.272 0.189,0.271 0.192,0.269 c 0,0 0.195,0.267 0.195,0.267 l 0.198,0.265 0.202,0.263 0.205,0.261 0.208,0.259 0.211,0.257 0.214,0.255 0.217,0.253 c 0,0 0.219,0.25 0.219,0.25 0,0 0.222,0.248 0.222,0.248 0,0 0.225,0.246 0.225,0.246 l 0.228,0.243 0.231,0.241 0.233,0.238 c 0,0 0.236,0.236 0.236,0.236 l 0.239,0.233 c 0,0 0.241,0.231 0.241,0.231 l 0.244,0.228 0.246,0.225 c 0,0 0.249,0.222 0.249,0.222 l 0.251,0.22 0.253,0.217 c 0,0 0.256,0.214 0.256,0.214 0,0 0.258,0.211 0.258,0.211 0,0 0.26,0.208 0.26,0.208 l 0.262,0.205 0.264,0.202 0.267,0.199 c 0,0 0.269,0.196 0.269,0.196 l 0.27,0.193 0.272,0.19 0.274,0.187 c 0,0 0.276,0.183 0.276,0.183 l 0.278,0.18 0.279,0.177 0.281,0.174 c 0,0 0.283,0.171 0.283,0.171 0,0 0.284,0.167 0.284,0.167 l 0.286,0.164 c 0,0 0.287,0.161 0.287,0.161 l 0.288,0.157 0.29,0.154 0.291,0.151 c 0,0 0.292,0.147 0.292,0.147 l 0.293,0.144 0.294,0.14 c 0,0 0.295,0.137 0.295,0.137 l 0.296,0.133 0.297,0.13 c 0,0 0.298,0.127 0.298,0.127 0,0 0.299,0.123 0.299,0.123 l 0.299,0.12 c 0,0 0.3,0.116 0.3,0.116 l 0.3,0.113 0.301,0.109 0.302,0.106 c 0,0 0.302,0.103 0.302,0.103 l 0.302,0.099 0.303,0.096 0.303,0.092 0.303,0.089 0.303,0.086 0.303,0.082 c 0,0 0.303,0.079 0.303,0.079 l 0.303,0.076 0.303,0.072 0.303,0.069 0.303,0.066 0.303,0.062 c 0,0 0.302,0.059 0.302,0.059 l 0.302,0.056 0.302,0.053 0.301,0.049 c 0,0 0.301,0.046 0.301,0.046 l 0.3,0.043 0.3,0.04 c 0,0 0.299,0.037 0.299,0.037 l 0.299,0.034 0.298,0.031 c 0,0 0.297,0.028 0.297,0.028 l 0.297,0.025 c 0,0 0.296,0.022 0.296,0.022 l 0.295,0.019 0.294,0.016 c 0,0 0.293,0.013 0.293,0.013 l 0.292,0.01 0.291,0.007 0.29,0.004 0.289,10e-4 c 0,0 192.686,0 192.686,0 l 0.289,-10e-4 0.29,-0.004 c 0,0 0.291,-0.007 0.291,-0.007 l 0.292,-0.01 0.293,-0.013 0.294,-0.016 c 0,0 0.295,-0.019 0.295,-0.019 l 0.296,-0.022 c 0,0 0.297,-0.025 0.297,-0.025 0,0 0.297,-0.028 0.297,-0.028 l 0.298,-0.031 c 0,0 0.299,-0.034 0.299,-0.034 0,0 0.299,-0.037 0.299,-0.037 l 0.3,-0.04 c 0,0 0.3,-0.043 0.3,-0.043 l 0.301,-0.046 0.301,-0.049 0.302,-0.053 0.302,-0.056 0.302,-0.059 0.303,-0.062 0.303,-0.066 0.303,-0.069 c 0,0 0.303,-0.072 0.303,-0.072 l 0.303,-0.076 c 0,0 0.303,-0.079 0.303,-0.079 0,0 0.303,-0.082 0.303,-0.082 l 0.303,-0.086 c 0,0 0.303,-0.089 0.303,-0.089 l 0.303,-0.092 0.303,-0.096 0.302,-0.099 0.302,-0.103 0.301,-0.106 0.301,-0.109 0.3,-0.113 c 0,0 0.3,-0.116 0.3,-0.116 0,0 0.299,-0.12 0.299,-0.12 l 0.298,-0.123 0.298,-0.127 0.297,-0.13 0.296,-0.133 c 0,0 0.295,-0.137 0.295,-0.137 0,0 0.294,-0.14 0.294,-0.14 0,0 0.293,-0.144 0.293,-0.144 l 0.292,-0.147 0.291,-0.151 0.29,-0.154 0.288,-0.157 0.287,-0.161 c 0,0 0.286,-0.164 0.286,-0.164 0,0 0.284,-0.167 0.284,-0.167 l 0.283,-0.171 0.281,-0.174 0.279,-0.177 c 0,0 0.278,-0.18 0.278,-0.18 l 0.276,-0.183 0.274,-0.187 0.272,-0.19 0.271,-0.193 c 0,0 0.269,-0.196 0.269,-0.196 l 0.267,-0.199 0.264,-0.202 0.262,-0.205 c 0,0 0.26,-0.208 0.26,-0.208 0,0 0.258,-0.211 0.258,-0.211 0,0 0.256,-0.214 0.256,-0.214 0,0 0.253,-0.217 0.253,-0.217 l 0.251,-0.22 0.249,-0.222 0.246,-0.225 0.244,-0.228 0.241,-0.231 0.239,-0.233 0.236,-0.236 0.233,-0.238 0.231,-0.241 0.228,-0.243 0.225,-0.246 0.222,-0.248 c 0,0 0.219,-0.25 0.219,-0.25 l 0.217,-0.253 0.214,-0.255 0.211,-0.257 0.208,-0.259 0.205,-0.261 c 0,0 0.202,-0.263 0.202,-0.263 l 0.198,-0.265 c 0,0 0.195,-0.267 0.195,-0.267 0,0 0.192,-0.269 0.192,-0.269 l 0.189,-0.271 0.186,-0.272 0.183,-0.274 0.179,-0.276 0.176,-0.277 0.173,-0.279 0.17,-0.28 0.166,-0.282 0.163,-0.283 0.16,-0.284 0.156,-0.285 c 0,0 0.153,-0.287 0.153,-0.287 l 0.15,-0.288 c 0,0 0.146,-0.289 0.146,-0.289 l 0.143,-0.29 0.14,-0.291 0.136,-0.292 0.133,-0.292 0.129,-0.293 c 0,0 0.126,-0.294 0.126,-0.294 l 0.123,-0.294 0.119,-0.295 0.116,-0.296 c 0,0 0.112,-0.296 0.112,-0.296 l 0.109,-0.297 0.106,-0.297 0.102,-0.297 0.099,-0.298 0.096,-0.298 0.092,-0.298 c 0,0 0.089,-0.298 0.089,-0.298 0,0 0.086,-0.298 0.086,-0.298 l 0.082,-0.298 0.079,-0.298 c 0,0 0.076,-0.298 0.076,-0.298 l 0.073,-0.298 0.069,-0.298 c 0.013,0 0.079,-0.297 0.079,-0.297 z"
           id="path18816"
           style="stroke:#80ffe6;stroke-opacity:1" />
        <line
           fill="none"
           stroke="#00b9d2"
           stroke-width="2"
           stroke-linecap="round"
           stroke-linejoin="round"
           stroke-miterlimit="10"
           x1="486.13599"
           y1="123.976"
           x2="755.375"
           y2="123.976"
           id="line18819"
           style="stroke:#80ffe6;stroke-opacity:1" />
        <line
           fill="none"
           stroke="#00b9d2"
           stroke-width="2"
           stroke-linecap="round"
           stroke-linejoin="round"
           stroke-miterlimit="10"
           x1="755.375"
           y1="592.633"
           x2="486.13599"
           y2="592.633"
           id="line18822"
           style="stroke:#80ffe6;stroke-opacity:1" />
        <polygon
           fill="none"
           stroke="#00b9d2"
           stroke-width="2.75"
           stroke-linecap="round"
           stroke-linejoin="round"
           stroke-miterlimit="10"
           points="749.331,618.148 749.682,617.589 750.024,617.023 750.356,616.452 750.678,615.875 750.99,615.293 751.292,614.705 751.584,614.112 751.866,613.515 752.137,612.912 752.398,612.305 752.648,611.694 752.887,611.078 753.116,610.458 753.335,609.834 753.542,609.207 753.739,608.576 753.924,607.942 754.099,607.305 754.263,606.665 754.415,606.022 754.557,605.377 754.687,604.729 754.806,604.079 754.914,603.427 755.01,602.774 755.096,602.119 755.17,601.462 755.232,600.804 755.284,600.146 755.323,599.486 755.352,598.826 755.369,598.166 755.375,597.505 755.375,119.104 755.369,118.444 755.352,117.783 755.323,117.123 755.284,116.464 755.232,115.805 755.17,115.147 755.096,114.491 755.01,113.835 754.914,113.182 754.806,112.53 754.687,111.88 754.557,111.232 754.415,110.587 754.263,109.944 754.099,109.304 753.924,108.667 753.739,108.033 753.542,107.402 753.335,106.775 753.116,106.151 752.887,105.531 752.648,104.916 752.398,104.304 752.137,103.697 751.866,103.095 751.584,102.497 751.292,101.904 750.99,101.317 750.678,100.734 750.356,100.157 750.024,99.586 749.682,99.021 749.331,98.461 748.97,97.908 748.599,97.361 748.219,96.821 747.83,96.287 747.432,95.76 747.024,95.24 746.608,94.727 746.183,94.221 745.749,93.723 745.306,93.232 744.856,92.749 744.396,92.274 743.929,91.806 743.454,91.347 742.971,90.897 742.48,90.454 741.982,90.02 741.476,89.595 740.963,89.179 740.443,88.771 739.916,88.373 739.382,87.984 738.842,87.604 738.295,87.233 737.742,86.872 737.182,86.52 736.617,86.179 736.046,85.847 735.469,85.525 734.886,85.213 734.299,84.911 733.706,84.619 733.108,84.337 732.506,84.066 731.899,83.805 731.287,83.555 730.672,83.316 730.052,83.087 729.428,82.868 728.801,82.661 728.17,82.464 727.536,82.279 726.899,82.104 726.259,81.94 725.616,81.788 724.971,81.646 724.323,81.516 723.673,81.397 723.021,81.289 722.367,81.193 721.712,81.107 721.056,81.033 720.398,80.971 719.739,80.919 719.08,80.88 718.42,80.851 717.759,80.834 717.099,80.828 524.412,80.828 523.752,80.834 523.091,80.851 522.431,80.88 521.772,80.919 521.113,80.971 520.455,81.033 519.799,81.107 519.143,81.193 518.49,81.289 517.838,81.397 517.188,81.516 516.54,81.646 515.895,81.788 515.252,81.94 514.612,82.104 513.975,82.279 513.341,82.464 512.71,82.661 512.083,82.868 511.459,83.087 510.839,83.316 510.224,83.555 509.612,83.805 509.005,84.066 508.403,84.337 507.805,84.619 507.212,84.911 506.625,85.213 506.042,85.525 505.465,85.847 504.894,86.179 504.329,86.52 503.769,86.872 503.216,87.233 502.669,87.604 502.129,87.984 501.595,88.373 501.068,88.771 500.548,89.179 500.035,89.595 499.529,90.02 499.031,90.454 498.54,90.897 498.057,91.347 497.582,91.806 497.114,92.274 496.655,92.749 496.205,93.232 495.762,93.723 495.328,94.221 494.903,94.727 494.487,95.24 494.079,95.76 493.681,96.287 493.292,96.821 492.912,97.361 492.541,97.908 492.18,98.461 491.828,99.021 491.487,99.586 491.155,100.157 490.833,100.734 490.521,101.317 490.219,101.904 489.927,102.497 489.645,103.095 489.374,103.697 489.113,104.304 488.863,104.916 488.624,105.531 488.395,106.151 488.176,106.775 487.969,107.402 487.772,108.033 487.587,108.667 487.412,109.304 487.248,109.944 487.096,110.587 486.954,111.232 486.824,111.88 486.705,112.53 486.597,113.182 486.501,113.835 486.415,114.491 486.341,115.147 486.279,115.805 486.227,116.464 486.188,117.123 486.159,117.783 486.142,118.444 486.136,119.104 486.136,597.505 486.142,598.166 486.159,598.826 486.188,599.486 486.227,600.146 486.279,600.804 486.341,601.462 486.415,602.119 486.501,602.774 486.597,603.427 486.705,604.079 486.824,604.729 486.954,605.377 487.096,606.022 487.248,606.665 487.412,607.305 487.587,607.942 487.772,608.576 487.969,609.207 488.176,609.834 488.395,610.458 488.624,611.078 488.863,611.694 489.113,612.305 489.374,612.912 489.645,613.515 489.927,614.112 490.219,614.705 490.521,615.293 490.833,615.875 491.155,616.452 491.487,617.023 491.828,617.589 492.18,618.148 492.541,618.701 492.912,619.248 493.292,619.789 493.681,620.323 494.079,620.85 494.487,621.37 494.903,621.883 495.328,622.388 495.762,622.887 496.205,623.377 496.655,623.86 497.114,624.336 497.582,624.803 498.057,625.262 498.54,625.713 499.031,626.155 499.529,626.589 500.035,627.014 500.548,627.43 501.068,627.838 501.595,628.236 502.129,628.625 502.669,629.005 503.216,629.376 503.769,629.737 504.329,630.089 504.894,630.431 505.465,630.763 506.042,631.085 506.625,631.397 507.212,631.699 507.805,631.99 508.403,632.272 509.005,632.543 509.612,632.804 510.224,633.054 510.839,633.294 511.459,633.523 512.083,633.741 512.71,633.948 513.341,634.145 513.975,634.33 514.612,634.505 515.252,634.669 515.895,634.821 516.54,634.963 517.188,635.093 517.838,635.212 518.49,635.32 519.143,635.417 519.799,635.502 520.455,635.576 521.113,635.639 521.772,635.69 522.431,635.73 523.091,635.758 523.752,635.775 524.412,635.781 717.099,635.781 717.759,635.775 718.42,635.758 719.08,635.73 719.739,635.69 720.398,635.639 721.056,635.576 721.712,635.502 722.367,635.417 723.021,635.32 723.673,635.212 724.323,635.093 724.971,634.963 725.616,634.821 726.259,634.669 726.899,634.505 727.536,634.33 728.17,634.145 728.801,633.948 729.428,633.741 730.052,633.523 730.672,633.294 731.287,633.054 731.899,632.804 732.506,632.543 733.108,632.272 733.706,631.99 734.299,631.699 734.886,631.397 735.469,631.085 736.046,630.763 736.617,630.431 737.182,630.089 737.742,629.737 738.295,629.376 738.842,629.005 739.382,628.625 739.916,628.236 740.443,627.838 740.963,627.43 741.476,627.014 741.982,626.589 742.48,626.155 742.971,625.713 743.454,625.262 743.929,624.803 744.396,624.336 744.856,623.86 745.306,623.377 745.749,622.887 746.183,622.388 746.608,621.883 747.024,621.37 747.432,620.85 747.83,620.323 748.219,619.789 748.599,619.248 748.97,618.701 "
           id="polygon18871"
           style="stroke:#80ffe6;stroke-opacity:1" />
        <rect
           x="755.375"
           y="142.09599"
           fill="none"
           stroke="#00b9d2"
           stroke-width="2.75"
           stroke-linecap="round"
           stroke-linejoin="round"
           stroke-miterlimit="10"
           width="2.868"
           height="20.58"
           id="rect18874"
           style="stroke:#80ffe6;stroke-opacity:1" />
        <rect
           x="755.375"
           y="184.864"
           fill="none"
           stroke="#00b9d2"
           stroke-width="2.75"
           stroke-linecap="round"
           stroke-linejoin="round"
           stroke-miterlimit="10"
           width="2.868"
           height="36.594002"
           id="rect18877"
           style="stroke:#80ffe6;stroke-opacity:1" />
        <rect
           x="755.375"
           y="231.089"
           fill="none"
           stroke="#00b9d2"
           stroke-width="2.75"
           stroke-linecap="round"
           stroke-linejoin="round"
           stroke-miterlimit="10"
           width="2.868"
           height="36.594002"
           id="rect18880"
           style="stroke:#80ffe6;stroke-opacity:1" />
        <rect
           x="483.26801"
           y="184.864"
           fill="none"
           stroke="#00b9d2"
           stroke-width="2.75"
           stroke-linecap="round"
           stroke-linejoin="round"
           stroke-miterlimit="10"
           width="2.868"
           height="36.594002"
           id="rect18883"
           style="stroke:#80ffe6;stroke-opacity:1" />
        <path
           fill="none"
           stroke="#00b9d2"
           stroke-width="2.75"
           stroke-linecap="round"
           stroke-linejoin="round"
           stroke-miterlimit="10"
           d="m 547.594,104 c 0.012,-5.901 -4.044,-11.112 -9.767,-12.548 -8.143,-2.044 -16.032,4.041 -16.122,12.436 -0.055,8.49 7.887,14.727 16.122,12.661 5.724,-1.438 9.78,-6.649 9.767,-12.549 z"
           id="path18886"
           style="stroke:#80ffe6;stroke-opacity:1" />
        <path
           fill="none"
           stroke="#00b9d2"
           stroke-width="2.75"
           stroke-linecap="round"
           stroke-linejoin="round"
           stroke-miterlimit="10"
           d="m 558.72,101.102 c -1.327,-0.015 -2.515,0.953 -2.809,2.186 -0.471,1.84 0.956,3.606 2.783,3.608 1.9,0.021 3.277,-1.783 2.846,-3.559 -0.294,-1.314 -1.531,-2.252 -2.82,-2.235 z"
           id="path18889"
           style="stroke:#80ffe6;stroke-opacity:1" />
        <path
           fill="none"
           stroke="#00b9d2"
           stroke-width="2.75"
           stroke-linecap="round"
           stroke-linejoin="round"
           stroke-miterlimit="10"
           d="m 576.698,97.102 c -3.136,-0.011 -5.927,2.161 -6.686,5.204 -1.093,4.332 2.159,8.547 6.626,8.59 4.518,0.034 7.85,-4.209 6.746,-8.59 -0.759,-3.043 -3.55,-5.215 -6.686,-5.204 z"
           id="path18892"
           style="stroke:#80ffe6;stroke-opacity:1" />
        <polygon
           fill="none"
           stroke="#00b9d2"
           stroke-width="3.25"
           stroke-linecap="round"
           stroke-linejoin="round"
           stroke-miterlimit="10"
           points="495.011,94.597 495.33,94.219 495.654,93.845 495.983,93.476 496.317,93.11 496.656,92.749 496.999,92.392 497.347,92.039 497.7,91.691 498.057,91.348 498.418,91.009 498.784,90.675 499.154,90.346 499.527,90.022 499.905,89.703 500.287,89.389 500.672,89.08 501.062,88.776 501.454,88.478 501.85,88.185 502.25,87.897 502.653,87.615 503.058,87.338 503.467,87.067 503.879,86.802 504.293,86.542 504.711,86.288 505.13,86.04 505.552,85.797 505.977,85.56 506.404,85.329 506.832,85.104 507.263,84.885 507.696,84.672 508.13,84.464 508.566,84.263 509.003,84.067 509.442,83.877 509.882,83.693 510.323,83.516 510.765,83.344 511.208,83.178 511.652,83.018 512.097,82.864 512.542,82.715 512.988,82.573 513.434,82.436 513.88,82.306 514.327,82.181 514.773,82.062 515.22,81.948 515.666,81.841 516.112,81.739 516.558,81.643 517.003,81.552 517.447,81.467 517.891,81.388 518.335,81.314 518.777,81.245 519.218,81.182 519.659,81.125 520.098,81.072 520.536,81.025 520.973,80.983 521.409,80.946 521.843,80.915 522.275,80.888 522.706,80.866 523.135,80.85 523.563,80.838 523.988,80.831 524.412,80.828 717.099,80.828 717.523,80.831 717.948,80.838 718.376,80.85 718.805,80.866 719.236,80.888 719.668,80.915 720.102,80.946 720.538,80.983 720.975,81.025 721.413,81.072 721.852,81.125 722.293,81.182 722.734,81.245 723.176,81.314 723.62,81.388 724.063,81.467 724.508,81.552 724.953,81.643 725.399,81.739 725.845,81.841 726.291,81.948 726.738,82.062 727.184,82.181 727.631,82.306 728.077,82.436 728.523,82.573 728.969,82.715 729.414,82.864 729.859,83.018 730.302,83.178 730.746,83.344 731.188,83.516 731.629,83.693 732.069,83.877 732.508,84.067 732.945,84.263 733.381,84.464 733.815,84.672 734.248,84.885 734.679,85.104 735.107,85.329 735.534,85.56 735.958,85.797 736.381,86.04 736.8,86.288 737.217,86.542 737.632,86.802 738.044,87.067 738.453,87.338 738.858,87.615 739.261,87.897 739.661,88.185 740.057,88.478 740.449,88.776 740.839,89.08 741.224,89.389 741.606,89.703 741.984,90.022 742.357,90.346 742.727,90.675 743.093,91.009 743.454,91.348 743.811,91.691 744.164,92.039 744.512,92.392 744.855,92.749 745.194,93.11 745.528,93.476 745.857,93.845 746.181,94.219 746.5,94.597 746.814,94.979 747.123,95.364 747.427,95.754 747.725,96.146 748.018,96.542 748.306,96.942 748.588,97.345 748.865,97.75 749.136,98.159 749.401,98.571 749.661,98.985 749.915,99.403 750.163,99.822 750.406,100.244 750.643,100.669 750.874,101.096 751.099,101.524 751.318,101.955 751.531,102.388 751.739,102.822 751.94,103.258 752.136,103.695 752.326,104.134 752.509,104.574 752.687,105.015 752.859,105.457 753.025,105.9 753.185,106.344 753.339,106.789 753.488,107.234 753.63,107.68 753.767,108.126 753.897,108.572 754.022,109.019 754.141,109.465 754.254,109.912 754.362,110.358 754.464,110.804 754.56,111.25 754.651,111.695 754.736,112.139 754.815,112.583 754.889,113.027 754.958,113.469 755.021,113.91 755.078,114.351 755.131,114.79 755.178,115.228 755.22,115.665 755.257,116.1 755.288,116.534 755.315,116.967 755.337,117.398 755.353,117.827 755.365,118.255 755.372,118.68 755.375,119.104 755.375,123.976 755.375,142.096 758.243,142.096 758.243,162.675 755.375,162.675 755.375,184.864 758.243,184.864 758.243,221.459 755.375,221.459 755.375,231.089 758.243,231.089 758.243,267.683 755.375,267.683 755.375,597.505 755.372,597.929 755.365,598.354 755.353,598.782 755.337,599.211 755.315,599.642 755.288,600.075 755.257,600.509 755.22,600.944 755.178,601.381 755.131,601.819 755.078,602.258 755.021,602.699 754.958,603.14 754.889,603.583 754.815,604.026 754.736,604.47 754.651,604.914 754.56,605.36 754.464,605.805 754.362,606.251 754.254,606.698 754.141,607.144 754.022,607.59 753.897,608.037 753.767,608.483 753.63,608.929 753.488,609.375 753.339,609.82 753.185,610.265 753.025,610.709 752.859,611.152 752.687,611.594 752.509,612.035 752.326,612.475 752.136,612.914 751.94,613.352 751.739,613.787 751.531,614.222 751.318,614.654 751.099,615.085 750.874,615.514 750.643,615.94 750.406,616.365 750.163,616.787 749.915,617.207 749.661,617.624 749.401,618.038 749.136,618.45 748.865,618.859 748.588,619.265 748.306,619.667 748.018,620.067 747.725,620.463 747.427,620.856 747.123,621.245 746.814,621.63 746.5,622.012 746.181,622.39 745.857,622.764 745.528,623.134 745.194,623.499 744.855,623.861 744.512,624.218 744.164,624.57 743.811,624.918 743.454,625.262 743.093,625.6 742.727,625.934 742.357,626.263 741.984,626.588 741.606,626.907 741.224,627.221 740.839,627.53 740.449,627.833 740.057,628.131 739.661,628.424 739.261,628.712 738.858,628.994 738.453,629.271 738.044,629.542 737.632,629.807 737.217,630.067 736.8,630.321 736.381,630.569 735.958,630.812 735.534,631.049 735.107,631.28 734.679,631.505 734.248,631.724 733.815,631.938 733.381,632.145 732.945,632.347 732.508,632.542 732.069,632.732 731.629,632.916 731.188,633.094 730.746,633.265 730.302,633.431 729.859,633.591 729.414,633.746 728.969,633.894 728.523,634.036 728.077,634.173 727.631,634.303 727.184,634.428 726.738,634.547 726.291,634.661 725.845,634.768 725.399,634.87 724.953,634.966 724.508,635.057 724.063,635.142 723.62,635.221 723.176,635.295 722.734,635.364 722.293,635.427 721.852,635.485 721.413,635.537 720.975,635.584 720.538,635.626 720.102,635.663 719.668,635.695 719.236,635.721 718.805,635.743 718.376,635.76 717.948,635.772 717.523,635.779 717.099,635.781 524.412,635.781 523.988,635.779 523.563,635.772 523.135,635.76 522.706,635.743 522.275,635.721 521.843,635.695 521.409,635.663 520.973,635.626 520.536,635.584 520.098,635.537 519.659,635.485 519.218,635.427 518.777,635.364 518.335,635.295 517.891,635.221 517.447,635.142 517.003,635.057 516.558,634.966 516.112,634.87 515.666,634.768 515.22,634.661 514.773,634.547 514.327,634.428 513.88,634.303 513.434,634.173 512.988,634.036 512.542,633.894 512.097,633.746 511.652,633.591 511.208,633.431 510.765,633.265 510.323,633.094 509.882,632.916 509.442,632.732 509.003,632.542 508.566,632.347 508.13,632.145 507.696,631.938 507.263,631.724 506.832,631.505 506.404,631.28 505.977,631.049 505.552,630.812 505.13,630.569 504.711,630.321 504.293,630.067 503.879,629.807 503.467,629.542 503.058,629.271 502.653,628.994 502.25,628.712 501.85,628.424 501.454,628.131 501.062,627.833 500.672,627.53 500.287,627.221 499.905,626.907 499.527,626.588 499.154,626.263 498.784,625.934 498.418,625.6 498.057,625.262 497.7,624.918 497.347,624.57 496.999,624.218 496.656,623.861 496.317,623.499 495.983,623.134 495.654,622.764 495.33,622.39 495.011,622.012 494.697,621.63 494.388,621.245 494.084,620.856 493.786,620.463 493.493,620.067 493.205,619.667 492.923,619.265 492.646,618.859 492.375,618.45 492.11,618.038 491.85,617.624 491.596,617.207 491.348,616.787 491.105,616.365 490.868,615.94 490.637,615.514 490.412,615.085 490.193,614.654 489.98,614.222 489.772,613.787 489.571,613.352 489.375,612.914 489.185,612.475 489.001,612.035 488.824,611.594 488.652,611.152 488.486,610.709 488.326,610.265 488.172,609.82 488.023,609.375 487.881,608.929 487.744,608.483 487.614,608.037 487.489,607.59 487.37,607.144 487.256,606.698 487.149,606.251 487.047,605.805 486.951,605.36 486.86,604.914 486.775,604.47 486.696,604.026 486.622,603.583 486.553,603.14 486.49,602.699 486.433,602.258 486.38,601.819 486.333,601.381 486.291,600.944 486.254,600.509 486.223,600.075 486.196,599.642 486.174,599.211 486.158,598.782 486.146,598.354 486.139,597.929 486.136,597.505 486.136,592.633 486.136,221.459 483.268,221.459 483.268,184.864 486.136,184.864 486.136,119.104 486.139,118.68 486.146,118.255 486.158,117.827 486.174,117.398 486.196,116.967 486.223,116.534 486.254,116.1 486.291,115.665 486.333,115.228 486.38,114.79 486.433,114.351 486.49,113.91 486.553,113.469 486.622,113.027 486.696,112.583 486.775,112.139 486.86,111.695 486.951,111.25 487.047,110.804 487.149,110.358 487.256,109.912 487.37,109.465 487.489,109.019 487.614,108.572 487.744,108.126 487.881,107.68 488.023,107.234 488.172,106.789 488.326,106.344 488.486,105.9 488.652,105.457 488.824,105.015 489.001,104.574 489.185,104.134 489.375,103.695 489.571,103.258 489.772,102.822 489.98,102.388 490.193,101.955 490.412,101.524 490.637,101.096 490.868,100.669 491.105,100.244 491.348,99.822 491.596,99.403 491.85,98.985 492.11,98.571 492.375,98.159 492.646,97.75 492.923,97.345 493.205,96.942 493.493,96.542 493.786,96.146 494.084,95.754 494.388,95.364 494.697,94.979 "
           id="polygon18902"
           style="stroke:#80ffe6;stroke-opacity:1" />
      </g>
    </g>
  </g>
</svg>
