<?xml version="1.0" encoding="UTF-8" standalone="no"?>
<svg
   xmlns:dc="http://purl.org/dc/elements/1.1/"
   xmlns:cc="http://creativecommons.org/ns#"
   xmlns:rdf="http://www.w3.org/1999/02/22-rdf-syntax-ns#"
   xmlns:svg="http://www.w3.org/2000/svg"
   xmlns="http://www.w3.org/2000/svg"
   xmlns:sodipodi="http://sodipodi.sourceforge.net/DTD/sodipodi-0.dtd"
   xmlns:inkscape="http://www.inkscape.org/namespaces/inkscape"
   width="15.072897mm"
   height="29.683794mm"
   viewBox="0 0 15.072898 29.683795"
   version="1.1"
   id="svg4830"
   inkscape:version="1.0.2 (e86c8708, 2021-01-15)"
   sodipodi:docname="ip6plus.svg">
  <defs
     id="defs4824" />
  <sodipodi:namedview
     id="base"
     pagecolor="#ffffff"
     bordercolor="#666666"
     borderopacity="1.0"
     inkscape:pageopacity="0.0"
     inkscape:pageshadow="2"
     inkscape:zoom="3.8813991"
     inkscape:cx="61.765471"
     inkscape:cy="64.93833"
     inkscape:document-units="mm"
     inkscape:current-layer="layer1"
     inkscape:document-rotation="0"
     showgrid="false"
     inkscape:window-width="1440"
     inkscape:window-height="872"
     inkscape:window-x="0"
     inkscape:window-y="28"
     inkscape:window-maximized="0" />
  <metadata
     id="metadata4827">
    <rdf:RDF>
      <cc:Work
         rdf:about="">
        <dc:format>image/svg+xml</dc:format>
        <dc:type
           rdf:resource="http://purl.org/dc/dcmitype/StillImage" />
        <dc:title></dc:title>
      </cc:Work>
    </rdf:RDF>
  </metadata>
  <g
     inkscape:label="Layer 1"
     inkscape:groupmode="layer"
     id="layer1"
     transform="translate(-67.29862,-126.07208)">
    <g
       id="g18366"
       transform="matrix(0.05057476,0,0,0.05057476,42.961186,122.13731)"
       style="stroke:#80ffe6;stroke-opacity:1">
      <g
         id="POLYLINE_661_"
         style="stroke:#80ffe6;stroke-opacity:1">
        <path
           fill="none"
           stroke="#00b9d2"
           stroke-width="2"
           stroke-linecap="round"
           stroke-linejoin="round"
           stroke-miterlimit="10"
           d="m 631.015,219.029 c 1.979,0.154 3.964,-0.404 5.698,-1.339 2.355,-1.261 4.285,-3.245 5.587,-5.569 1.401,-2.471 2.167,-5.364 1.851,-8.208 -1.872,0.086 -3.689,0.713 -5.339,1.579 -2.25,1.185 -4.198,2.904 -5.564,5.056 -1.594,2.491 -2.618,5.5 -2.233,8.481 z"
           id="path17464"
           style="stroke:#80ffe6;stroke-opacity:1" />
      </g>
      <g
         id="POLYLINE_660_"
         style="stroke:#80ffe6;stroke-opacity:1">
        <path
           fill="none"
           stroke="#00b9d2"
           stroke-width="2"
           stroke-linecap="round"
           stroke-linejoin="round"
           stroke-miterlimit="10"
           d="m 648.997,238.759 c -0.025,-2.16 0.452,-4.329 1.413,-6.265 1.264,-2.541 3.271,-4.713 5.676,-6.214 -1.075,-1.578 -2.459,-2.95 -4.061,-3.991 -2.354,-1.531 -5.139,-2.38 -7.939,-2.515 -1.945,-0.199 -3.904,0.196 -5.75,0.793 -1.688,0.527 -3.737,1.483 -5.432,1.983 -0.479,0.134 -0.999,0.246 -1.494,0.227 -0.925,-0.041 -1.819,-0.362 -2.682,-0.675 l -2.694,-1.047 c -1.365,-0.506 -2.783,-0.947 -4.238,-1.082 -1.729,-0.143 -3.49,0.098 -5.153,0.577 -5.533,1.631 -9.577,6.109 -11.215,11.569 -2.636,8.683 0.109,19.383 4.576,27.051 1.107,1.861 2.419,3.685 3.753,5.39 1.573,1.932 3.412,3.893 5.85,4.665 1.345,0.429 2.799,0.303 4.149,-0.038 1.072,-0.258 2.501,-0.917 3.529,-1.338 0.9,-0.365 1.842,-0.671 2.799,-0.841 1.519,-0.265 3.098,-0.273 4.614,0.012 1.412,0.249 2.887,0.926 4.203,1.49 0.736,0.306 1.503,0.577 2.286,0.731 0.87,0.171 1.77,0.224 2.653,0.139 3.784,-0.39 6.325,-3.65 8.389,-6.534 2.277,-3.126 4.174,-6.593 5.397,-10.266 l 0.176,-0.552 -0.114,-0.047 c -2.708,-1.204 -5.068,-3.232 -6.628,-5.755 -1.381,-2.228 -2.05,-4.856 -2.063,-7.467"
           id="path17467"
           style="stroke:#80ffe6;stroke-opacity:1" />
      </g>
      <g
         id="POLYLINE_659_"
         style="stroke:#80ffe6;stroke-opacity:1">
        <path
           fill="none"
           stroke="#00b9d2"
           stroke-width="2"
           stroke-linecap="round"
           stroke-linejoin="round"
           stroke-miterlimit="10"
           d="m 549.718,108.774 c 0.01,-2.405 -1.661,-4.552 -3.995,-5.133 -3.363,-0.847 -6.62,1.71 -6.594,5.179 0.033,3.43 3.269,5.925 6.594,5.087 2.334,-0.582 4.005,-2.728 3.995,-5.133 z"
           id="path17470"
           style="stroke:#80ffe6;stroke-opacity:1" />
      </g>
      <g
         id="POLYLINE_658_"
         style="stroke:#80ffe6;stroke-opacity:1">
        <path
           fill="none"
           stroke="#00b9d2"
           stroke-width="2"
           stroke-linecap="round"
           stroke-linejoin="round"
           stroke-miterlimit="10"
           d="m 773.935,125.06 h -2.824 l -0.058,-0.001 -0.058,-0.002 -0.058,-0.003 -0.058,-0.004 -0.058,-0.005 c 0,0 -0.058,-0.006 -0.058,-0.006 l -0.058,-0.007 -0.058,-0.008 c 0,0 -0.058,-0.009 -0.058,-0.009 l -0.057,-0.01 -0.057,-0.01 -0.057,-0.011 -0.057,-0.012 -0.057,-0.013 c 0,0 -0.056,-0.014 -0.056,-0.014 0,0 -0.056,-0.015 -0.056,-0.015 0,0 -0.056,-0.016 -0.056,-0.016 l -0.056,-0.017 -0.055,-0.018 c 0,0 -0.055,-0.019 -0.055,-0.019 l -0.055,-0.02 -0.054,-0.021 -0.054,-0.022 c 0,0 -0.054,-0.023 -0.054,-0.023 l -0.053,-0.024 -0.053,-0.025 c 0,0 -0.052,-0.026 -0.052,-0.026 l -0.052,-0.027 -0.051,-0.028 c 0,0 -0.051,-0.028 -0.051,-0.028 l -0.05,-0.029 -0.05,-0.03 c 0,0 -0.049,-0.031 -0.049,-0.031 0,0 -0.049,-0.032 -0.049,-0.032 0,0 -0.048,-0.033 -0.048,-0.033 l -0.048,-0.033 c -0.047,-0.034 -0.094,-0.069 -0.094,-0.069 -0.046,-0.036 -0.091,-0.073 -0.091,-0.073 -0.045,-0.037 -0.088,-0.076 -0.088,-0.076 -0.043,-0.039 -0.086,-0.079 -0.086,-0.079 -0.042,-0.04 -0.083,-0.082 -0.083,-0.082 -0.04,-0.042 -0.08,-0.084 -0.08,-0.084 -0.039,-0.043 -0.077,-0.087 -0.077,-0.087 -0.037,-0.045 -0.074,-0.09 -0.074,-0.09 -0.036,-0.046 -0.071,-0.092 -0.071,-0.092 -0.034,-0.047 -0.068,-0.095 -0.068,-0.095 0,0 -0.033,-0.048 -0.033,-0.048 l -0.032,-0.049 -0.031,-0.049 c 0,0 -0.03,-0.05 -0.03,-0.05 0,0 -0.029,-0.05 -0.029,-0.05 l -0.028,-0.051 -0.027,-0.051 -0.027,-0.052 -0.026,-0.052 -0.025,-0.053 -0.024,-0.053 c 0,0 -0.023,-0.054 -0.023,-0.054 0,0 -0.022,-0.054 -0.022,-0.054 0,0 -0.021,-0.054 -0.021,-0.054 l -0.02,-0.055 c 0,0 -0.019,-0.055 -0.019,-0.055 l -0.018,-0.055 -0.017,-0.056 -0.016,-0.056 -0.015,-0.056 -0.014,-0.056 -0.013,-0.057 -0.012,-0.057 -0.011,-0.057 -0.01,-0.057 -0.01,-0.057 -0.008,-0.058 c 0,0 -0.008,-0.058 -0.008,-0.058 l -0.007,-0.058 -0.006,-0.058 c 0,0 -0.005,-0.058 -0.005,-0.058 l -0.003,-0.058 -0.003,-0.058 -0.002,-0.058 v -0.058 l -0.002,-0.399 -0.007,-0.401 -0.011,-0.403 -0.016,-0.404 -0.02,-0.406 -0.025,-0.408 -0.03,-0.409 c 0,0 -0.034,-0.41 -0.034,-0.41 l -0.039,-0.412 -0.044,-0.413 -0.049,-0.414 c 0,0 -0.054,-0.415 -0.054,-0.415 l -0.059,-0.416 -0.064,-0.417 -0.069,-0.418 -0.074,-0.418 -0.079,-0.419 -0.085,-0.419 c 0,0 -0.09,-0.42 -0.09,-0.42 l -0.095,-0.42 -0.1,-0.421 -0.106,-0.421 -0.111,-0.421 -0.117,-0.421 -0.122,-0.421 -0.127,-0.42 -0.133,-0.42 c 0,0 -0.138,-0.42 -0.138,-0.42 l -0.144,-0.419 -0.149,-0.418 -0.155,-0.418 c 0,0 -0.16,-0.417 -0.16,-0.417 0,0 -0.166,-0.416 -0.166,-0.416 l -0.172,-0.415 -0.177,-0.413 -0.183,-0.412 -0.188,-0.411 c 0,0 -0.194,-0.409 -0.194,-0.409 l -0.199,-0.408 c 0,0 -0.205,-0.406 -0.205,-0.406 l -0.21,-0.404 -0.216,-0.402 -0.221,-0.4 -0.227,-0.398 c 0,0 -0.232,-0.395 -0.232,-0.395 l -0.237,-0.393 -0.242,-0.391 -0.248,-0.388 c 0,0 -0.253,-0.385 -0.253,-0.385 0,0 -0.258,-0.382 -0.258,-0.382 l -0.263,-0.379 -0.268,-0.376 -0.274,-0.373 -0.279,-0.37 c 0,0 -0.283,-0.367 -0.283,-0.367 l -0.288,-0.363 -0.293,-0.36 -0.298,-0.356 -0.303,-0.352 c 0,0 -0.307,-0.348 -0.307,-0.348 l -0.312,-0.345 -0.316,-0.341 c 0,0 -0.321,-0.336 -0.321,-0.336 l -0.325,-0.332 c 0,0 -0.329,-0.328 -0.329,-0.328 l -0.333,-0.324 -0.337,-0.319 -0.341,-0.315 -0.345,-0.31 c 0,0 -0.349,-0.305 -0.349,-0.305 l -0.353,-0.301 -0.356,-0.296 -0.36,-0.291 c 0,0 -0.363,-0.286 -0.363,-0.286 0,0 -0.367,-0.281 -0.367,-0.281 l -0.37,-0.276 -0.373,-0.271 -0.376,-0.266 -0.379,-0.261 -0.382,-0.255 -0.384,-0.25 -0.387,-0.245 -0.389,-0.239 -0.392,-0.234 c 0,0 -0.394,-0.229 -0.394,-0.229 0,0 -0.396,-0.223 -0.396,-0.223 l -0.398,-0.218 c 0,0 -0.4,-0.212 -0.4,-0.212 0,0 -0.402,-0.207 -0.402,-0.207 0,0 -0.404,-0.201 -0.404,-0.201 l -0.405,-0.195 c 0,0 -0.407,-0.19 -0.407,-0.19 0,0 -0.408,-0.184 -0.408,-0.184 l -0.41,-0.179 -0.411,-0.173 c 0,0 -0.412,-0.168 -0.412,-0.168 0,0 -0.413,-0.162 -0.413,-0.162 0,0 -0.414,-0.156 -0.414,-0.156 l -0.414,-0.151 c 0,0 -0.415,-0.145 -0.415,-0.145 l -0.416,-0.14 c 0,0 -0.416,-0.134 -0.416,-0.134 l -0.416,-0.129 -0.417,-0.123 -0.417,-0.118 -0.417,-0.112 -0.417,-0.107 c 0,0 -0.417,-0.101 -0.417,-0.101 l -0.416,-0.096 c 0,0 -0.416,-0.091 -0.416,-0.091 l -0.416,-0.085 -0.415,-0.08 -0.414,-0.075 -0.414,-0.07 -0.413,-0.065 -0.412,-0.059 -0.411,-0.054 c 0,0 -0.41,-0.049 -0.41,-0.049 l -0.409,-0.044 -0.408,-0.04 c 0,0 -0.406,-0.035 -0.406,-0.035 l -0.405,-0.03 c 0,0 -0.404,-0.025 -0.404,-0.025 0,0 -0.402,-0.02 -0.402,-0.02 l -0.401,-0.016 c 0,0 -0.399,-0.011 -0.399,-0.011 l -0.397,-0.007 -0.396,-0.002 c 0,0 -203.538,0 -203.538,0 l -0.396,0.002 -0.397,0.007 c 0,0 -0.399,0.011 -0.399,0.011 0,0 -0.401,0.016 -0.401,0.016 l -0.402,0.02 c 0,0 -0.404,0.025 -0.404,0.025 l -0.405,0.03 -0.407,0.034 c 0,0 -0.408,0.039 -0.408,0.039 l -0.409,0.044 c 0,0 -0.41,0.049 -0.41,0.049 l -0.411,0.054 -0.412,0.059 -0.413,0.064 -0.414,0.069 -0.414,0.074 -0.415,0.079 -0.416,0.085 -0.416,0.09 -0.416,0.095 -0.417,0.1 c 0,0 -0.417,0.106 -0.417,0.106 l -0.417,0.111 -0.422,0.12 -0.417,0.122 -0.416,0.128 -0.416,0.133 -0.416,0.138 -0.415,0.144 c 0,0 -0.414,0.149 -0.414,0.149 l -0.414,0.155 -0.413,0.16 -0.412,0.166 c 0,0 -0.411,0.172 -0.411,0.172 l -0.41,0.177 -0.408,0.183 -0.407,0.188 c 0,0 -0.405,0.194 -0.405,0.194 0,0 -0.404,0.199 -0.404,0.199 0,0 -0.402,0.205 -0.402,0.205 0,0 -0.4,0.21 -0.4,0.21 l -0.398,0.216 -0.396,0.221 c 0,0 -0.394,0.226 -0.394,0.226 l -0.392,0.232 -0.389,0.237 c 0,0 -0.387,0.243 -0.387,0.243 l -0.384,0.248 -0.382,0.253 -0.379,0.258 -0.376,0.263 c 0,0 -0.373,0.268 -0.373,0.268 0,0 -0.37,0.274 -0.37,0.274 l -0.367,0.279 -0.363,0.283 -0.36,0.288 -0.356,0.293 -0.353,0.298 c 0,0 -0.349,0.303 -0.349,0.303 l -0.345,0.307 -0.341,0.312 -0.337,0.316 -0.333,0.321 -0.329,0.325 -0.325,0.329 -0.321,0.333 -0.316,0.337 -0.312,0.341 -0.307,0.345 -0.303,0.349 -0.298,0.353 -0.293,0.356 -0.288,0.36 -0.283,0.363 c 0,0 -0.279,0.367 -0.279,0.367 0,0 -0.274,0.37 -0.274,0.37 l -0.268,0.373 -0.263,0.376 -0.258,0.379 -0.253,0.382 -0.248,0.384 c 0,0 -0.243,0.387 -0.243,0.387 0,0 -0.237,0.389 -0.237,0.389 l -0.232,0.392 -0.227,0.394 -0.221,0.396 -0.216,0.398 c 0,0 -0.21,0.4 -0.21,0.4 l -0.205,0.402 -0.199,0.404 -0.194,0.405 -0.188,0.407 -0.183,0.408 -0.177,0.41 -0.172,0.411 -0.166,0.412 -0.16,0.413 -0.155,0.414 c 0,0 -0.149,0.414 -0.149,0.414 0,0 -0.144,0.415 -0.144,0.415 l -0.138,0.416 -0.133,0.416 -0.127,0.416 -0.122,0.417 c 0,0 -0.117,0.417 -0.117,0.417 0,0 -0.111,0.417 -0.111,0.417 l -0.106,0.417 -0.1,0.417 c 0,0 -0.095,0.416 -0.095,0.416 0,0 -0.09,0.416 -0.09,0.416 l -0.085,0.416 -0.079,0.415 -0.074,0.414 -0.069,0.414 c 0,0 -0.064,0.413 -0.064,0.413 l -0.059,0.412 c 0,0 -0.054,0.411 -0.054,0.411 l -0.049,0.41 -0.044,0.409 c 0,0 -0.039,0.408 -0.039,0.408 l -0.034,0.407 c 0,0 -0.03,0.405 -0.03,0.405 0,0 -0.025,0.404 -0.025,0.404 0,0 -0.02,0.402 -0.02,0.402 0,0 -0.016,0.401 -0.016,0.401 0,0 -0.011,0.399 -0.011,0.399 l -0.007,0.397 c 0,0 -0.002,0.396 -0.002,0.396 0,0 0.005,0.059 0.005,0.059 l 0.004,0.059 0.003,0.059 0.002,0.059 10e-4,0.059 v 0.059 l -10e-4,0.059 -0.002,0.059 c 0,0 -0.003,0.059 -0.003,0.059 l -0.004,0.059 -0.008,0.057 c 0,0 -0.006,0.058 -0.006,0.058 l -0.007,0.058 -0.008,0.058 -0.009,0.058 -0.01,0.058 -0.011,0.058 c 0,0 -0.012,0.057 -0.012,0.057 l -0.013,0.057 c 0,0 -0.014,0.057 -0.014,0.057 l -0.015,0.057 -0.016,0.056 -0.017,0.056 -0.018,0.056 -0.019,0.056 -0.02,0.055 c 0,0 -0.021,0.055 -0.021,0.055 0,0 -0.022,0.054 -0.022,0.054 l -0.023,0.054 c 0,0 -0.024,0.054 -0.024,0.054 l -0.025,0.053 -0.026,0.053 -0.027,0.052 -0.027,0.052 -0.028,0.051 -0.029,0.051 -0.03,0.05 -0.031,0.05 -0.032,0.049 c 0,0 -0.033,0.049 -0.033,0.049 l -0.034,0.048 -0.034,0.048 c -0.035,0.047 -0.071,0.093 -0.071,0.093 -0.037,0.046 -0.074,0.091 -0.074,0.091 -0.038,0.044 -0.078,0.088 -0.078,0.088 -0.04,0.043 -0.081,0.085 -0.081,0.085 -0.041,0.042 -0.083,0.083 -0.083,0.083 -0.043,0.04 -0.086,0.08 -0.086,0.08 -0.044,0.039 -0.089,0.077 -0.089,0.077 -0.046,0.037 -0.092,0.074 -0.092,0.074 -0.047,0.036 -0.094,0.07 -0.094,0.07 l -0.048,0.034 -0.049,0.033 c 0,0 -0.049,0.032 -0.049,0.032 l -0.05,0.031 c 0,0 -0.05,0.031 -0.05,0.031 l -0.051,0.03 -0.051,0.029 -0.052,0.028 -0.052,0.027 c 0,0 -0.053,0.026 -0.053,0.026 l -0.053,0.025 -0.054,0.024 c 0,0 -0.054,0.023 -0.054,0.023 l -0.054,0.022 -0.055,0.021 c 0,0 -0.055,0.02 -0.055,0.02 0,0 -0.055,0.019 -0.055,0.019 l -0.056,0.019 -0.056,0.018 c 0,0 -0.056,0.017 -0.056,0.017 l -0.057,0.016 -0.057,0.015 -0.057,0.014 -0.057,0.013 c 0,0 -0.058,0.012 -0.058,0.012 l -0.058,0.011 c 0,0 -0.058,0.01 -0.058,0.01 l -0.058,0.009 -0.058,0.008 c 0,0 -0.058,0.007 -0.058,0.007 l -0.058,0.006 c 0,0 -0.059,0.005 -0.059,0.005 l -0.059,0.004 -0.059,0.003 -0.059,0.002 -0.059,10e-4 h -2.824"
           id="path17473"
           style="stroke:#80ffe6;stroke-opacity:1" />
      </g>
      <g
         id="POLYLINE_657_"
         style="stroke:#80ffe6;stroke-opacity:1">
        <path
           fill="none"
           stroke="#00b9d2"
           stroke-width="2"
           stroke-linecap="round"
           stroke-linejoin="round"
           stroke-miterlimit="10"
           d="m 760.871,121.355 -0.002,-0.32 -0.005,-0.321 -0.009,-0.322 -0.013,-0.324 -0.016,-0.325 -0.02,-0.326 -0.024,-0.327 -0.028,-0.328 -0.032,-0.329 -0.036,-0.33 -0.04,-0.331 -0.044,-0.332 -0.048,-0.333 c 0,0 -0.052,-0.334 -0.052,-0.334 0,0 -0.056,-0.334 -0.056,-0.334 l -0.06,-0.335 -0.064,-0.335 -0.068,-0.336 -0.073,-0.336 -0.077,-0.336 -0.081,-0.337 -0.086,-0.337 c 0,0 -0.09,-0.337 -0.09,-0.337 0,0 -0.094,-0.337 -0.094,-0.337 l -0.099,-0.337 -0.103,-0.336 -0.107,-0.336 c 0,0 -0.112,-0.336 -0.112,-0.336 0,0 -0.116,-0.335 -0.116,-0.335 l -0.121,-0.335 c 0,0 -0.125,-0.334 -0.125,-0.334 l -0.13,-0.334 -0.134,-0.333 -0.139,-0.332 -0.143,-0.331 -0.148,-0.33 -0.152,-0.329 c 0,0 -0.156,-0.328 -0.156,-0.328 l -0.161,-0.326 -0.165,-0.325 -0.17,-0.323 c 0,0 -0.174,-0.322 -0.174,-0.322 l -0.179,-0.32 -0.183,-0.318 c 0,0 -0.187,-0.317 -0.187,-0.317 0,0 -0.192,-0.315 -0.192,-0.315 l -0.196,-0.313 c 0,0 -0.2,-0.311 -0.2,-0.311 l -0.204,-0.308 -0.209,-0.306 -0.213,-0.304 -0.217,-0.301 -0.221,-0.299 -0.225,-0.296 c 0,0 -0.229,-0.293 -0.229,-0.293 l -0.233,-0.291 -0.237,-0.288 -0.241,-0.285 -0.245,-0.282 -0.248,-0.279 -0.252,-0.276 -0.255,-0.273 c 0,0 -0.259,-0.269 -0.259,-0.269 l -0.263,-0.266 -0.266,-0.263 -0.269,-0.259 -0.273,-0.255 -0.276,-0.252 -0.279,-0.248 -0.282,-0.244 -0.285,-0.241 -0.288,-0.237 -0.291,-0.233 -0.293,-0.229 -0.296,-0.225 c 0,0 -0.299,-0.221 -0.299,-0.221 0,0 -0.301,-0.217 -0.301,-0.217 0,0 -0.304,-0.213 -0.304,-0.213 l -0.306,-0.209 -0.308,-0.204 -0.311,-0.2 -0.313,-0.196 -0.315,-0.192 c 0,0 -0.317,-0.187 -0.317,-0.187 0,0 -0.318,-0.183 -0.318,-0.183 l -0.32,-0.179 -0.322,-0.174 -0.323,-0.17 -0.325,-0.165 -0.326,-0.161 c 0,0 -0.328,-0.156 -0.328,-0.156 0,0 -0.329,-0.152 -0.329,-0.152 l -0.33,-0.148 c 0,0 -0.331,-0.143 -0.331,-0.143 0,0 -0.332,-0.139 -0.332,-0.139 l -0.333,-0.134 -0.333,-0.13 -0.334,-0.125 c 0,0 -0.335,-0.121 -0.335,-0.121 0,0 -0.335,-0.116 -0.335,-0.116 l -0.336,-0.112 -0.336,-0.107 -0.336,-0.103 -0.337,-0.099 -0.337,-0.094 -0.337,-0.09 c 0,0 -0.337,-0.085 -0.337,-0.085 l -0.337,-0.081 -0.336,-0.077 -0.336,-0.073 c 0,0 -0.336,-0.068 -0.336,-0.068 l -0.335,-0.064 -0.335,-0.06 c 0,0 -0.334,-0.056 -0.334,-0.056 l -0.334,-0.052 -0.333,-0.048 -0.332,-0.044 -0.331,-0.04 -0.33,-0.036 -0.329,-0.032 -0.328,-0.028 -0.327,-0.024 c 0,0 -0.326,-0.02 -0.326,-0.02 l -0.325,-0.016 -0.324,-0.013 -0.322,-0.009 -0.321,-0.005 c 0,0 -0.32,-0.002 -0.32,-0.002 H 528.466 c 0,0 -0.32,0.002 -0.32,0.002 0,0 -0.321,0.005 -0.321,0.005 l -0.322,0.009 -0.324,0.013 -0.325,0.016 -0.326,0.02 c 0,0 -0.327,0.024 -0.327,0.024 0,0 -0.328,0.028 -0.328,0.028 l -0.329,0.032 -0.33,0.036 c 0,0 -0.331,0.04 -0.331,0.04 l -0.332,0.044 -0.333,0.048 -0.334,0.052 -0.334,0.056 -0.335,0.06 -0.335,0.064 c 0,0 -0.336,0.068 -0.336,0.068 l -0.336,0.073 -0.336,0.077 -0.337,0.081 -0.337,0.085 c 0,0 -0.337,0.09 -0.337,0.09 l -0.337,0.094 c 0,0 -0.337,0.099 -0.337,0.099 0,0 -0.336,0.103 -0.336,0.103 l -0.336,0.107 c 0,0 -0.336,0.112 -0.336,0.112 0,0 -0.335,0.116 -0.335,0.116 0,0 -0.335,0.121 -0.335,0.121 0,0 -0.334,0.125 -0.334,0.125 0,0 -0.333,0.13 -0.333,0.13 l -0.333,0.134 c 0,0 -0.332,0.139 -0.332,0.139 l -0.331,0.143 -0.33,0.148 -0.329,0.152 -0.328,0.156 c 0,0 -0.326,0.161 -0.326,0.161 l -0.325,0.165 -0.323,0.17 -0.322,0.174 c 0,0 -0.32,0.179 -0.32,0.179 0,0 -0.318,0.183 -0.318,0.183 l -0.317,0.187 -0.315,0.192 -0.313,0.196 -0.31,0.2 c 0,0 -0.308,0.204 -0.308,0.204 l -0.306,0.209 -0.304,0.213 -0.301,0.217 -0.299,0.221 c 0,0 -0.296,0.225 -0.296,0.225 0,0 -0.293,0.229 -0.293,0.229 l -0.291,0.233 -0.288,0.237 -0.285,0.241 -0.282,0.244 c 0,0 -0.279,0.248 -0.279,0.248 l -0.276,0.252 -0.273,0.255 -0.269,0.259 -0.266,0.263 -0.263,0.266 -0.259,0.269 -0.255,0.273 -0.252,0.276 -0.248,0.279 -0.244,0.282 -0.241,0.285 c 0,0 -0.237,0.288 -0.237,0.288 l -0.233,0.291 -0.229,0.293 -0.225,0.296 -0.221,0.299 -0.217,0.301 c 0,0 -0.213,0.304 -0.213,0.304 0,0 -0.209,0.306 -0.209,0.306 0,0 -0.204,0.308 -0.204,0.308 l -0.2,0.311 -0.196,0.313 -0.192,0.315 c 0,0 -0.187,0.317 -0.187,0.317 0,0 -0.183,0.318 -0.183,0.318 l -0.179,0.32 -0.174,0.322 -0.17,0.323 -0.165,0.325 -0.161,0.326 c 0,0 -0.156,0.328 -0.156,0.328 l -0.152,0.329 -0.148,0.33 c 0,0 -0.143,0.331 -0.143,0.331 l -0.139,0.332 -0.134,0.333 c 0,0 -0.13,0.334 -0.13,0.334 0,0 -0.125,0.334 -0.125,0.334 l -0.121,0.335 -0.116,0.335 c 0,0 -0.112,0.336 -0.112,0.336 0,0 -0.107,0.336 -0.107,0.336 l -0.103,0.336 -0.099,0.337 c 0,0 -0.094,0.337 -0.094,0.337 l -0.09,0.337 -0.085,0.337 -0.081,0.337 -0.077,0.336 -0.073,0.336 -0.068,0.336 -0.064,0.335 -0.06,0.335 c 0,0 -0.056,0.334 -0.056,0.334 0,0 -0.052,0.334 -0.052,0.334 0,0 -0.048,0.333 -0.048,0.333 0,0 -0.044,0.332 -0.044,0.332 0,0 -0.04,0.331 -0.04,0.331 l -0.036,0.33 c 0,0 -0.032,0.329 -0.032,0.329 0,0 -0.028,0.328 -0.028,0.328 l -0.024,0.327 -0.02,0.326 c 0,0 -0.016,0.325 -0.016,0.325 0,0 -0.013,0.324 -0.013,0.324 l -0.009,0.322 -0.005,0.321 -0.002,0.32 c 0,0 -0.005,0.059 -0.005,0.059 l -0.004,0.059 -0.003,0.059 -0.002,0.059 -0.001,0.059 v 0.059 c 0,0 0.001,0.059 0.001,0.059 l 0.002,0.059 c 0,0 0.003,0.059 0.003,0.059 l 0.004,0.059 0.005,0.059 c 0,0 0.006,0.058 0.006,0.058 l 0.007,0.058 0.008,0.058 0.009,0.058 c 0,0 0.01,0.058 0.01,0.058 l 0.011,0.058 0.012,0.057 c 0,0 0.013,0.057 0.013,0.057 0,0 0.014,0.057 0.014,0.057 l 0.015,0.057 0.016,0.056 0.017,0.056 0.018,0.056 c 0,0 0.019,0.056 0.019,0.056 l 0.02,0.055 c 0,0 0.021,0.055 0.021,0.055 0,0 0.022,0.054 0.022,0.054 l 0.023,0.054 c 0,0 0.024,0.054 0.024,0.054 l 0.025,0.053 0.026,0.053 0.027,0.052 0.027,0.052 0.028,0.051 0.029,0.051 0.03,0.05 0.031,0.05 0.032,0.049 0.033,0.049 0.034,0.048 0.034,0.048 c 0.035,0.047 0.071,0.093 0.071,0.093 0.037,0.046 0.074,0.091 0.074,0.091 0.038,0.044 0.078,0.088 0.078,0.088 0.04,0.043 0.081,0.085 0.081,0.085 0.041,0.042 0.084,0.083 0.084,0.083 0.043,0.04 0.086,0.08 0.086,0.08 0.044,0.039 0.089,0.077 0.089,0.077 0.046,0.037 0.092,0.074 0.092,0.074 0.047,0.036 0.094,0.07 0.094,0.07 l 0.048,0.034 0.049,0.033 c 0,0 0.049,0.032 0.049,0.032 l 0.05,0.031 c 0,0 0.05,0.031 0.05,0.031 l 0.051,0.03 0.051,0.029 0.052,0.028 0.052,0.027 c 0,0 0.053,0.026 0.053,0.026 l 0.053,0.025 c 0,0 0.054,0.024 0.054,0.024 l 0.054,0.023 c 0,0 0.054,0.022 0.054,0.022 l 0.055,0.021 0.055,0.02 c 0,0 0.055,0.019 0.055,0.019 0,0 0.056,0.019 0.056,0.019 0,0 0.056,0.018 0.056,0.018 l 0.056,0.017 0.057,0.016 c 0,0 0.057,0.015 0.057,0.015 l 0.057,0.014 0.057,0.013 0.058,0.012 c 0,0 0.058,0.011 0.058,0.011 0,0 0.058,0.01 0.058,0.01 l 0.058,0.009 c 0,0 0.058,0.008 0.058,0.008 l 0.058,0.007 0.058,0.006 0.059,0.005 c 0,0 0.059,0.004 0.059,0.004 0,0 0.059,0.003 0.059,0.003 l 0.059,0.002 c 0,0 0.059,0.001 0.059,0.001 h 254.527 l 0.058,-0.001 0.058,-0.002 0.058,-0.003 c 0,0 0.058,-0.004 0.058,-0.004 l 0.058,-0.005 c 0,0 0.058,-0.006 0.058,-0.006 l 0.058,-0.007 0.058,-0.008 c 0,0 0.058,-0.009 0.058,-0.009 l 0.057,-0.01 0.057,-0.01 0.057,-0.011 0.057,-0.012 c 0,0 0.057,-0.013 0.057,-0.013 l 0.056,-0.014 0.056,-0.015 0.056,-0.016 0.056,-0.017 0.055,-0.018 c 0,0 0.055,-0.019 0.055,-0.019 l 0.055,-0.02 c 0,0 0.054,-0.021 0.054,-0.021 l 0.054,-0.022 c 0,0 0.054,-0.023 0.054,-0.023 l 0.053,-0.024 0.053,-0.025 0.052,-0.026 0.052,-0.027 0.051,-0.028 c 0,0 0.051,-0.028 0.051,-0.028 l 0.05,-0.029 0.05,-0.03 c 0,0 0.049,-0.031 0.049,-0.031 l 0.049,-0.032 0.048,-0.033 0.048,-0.033 c 0.047,-0.034 0.094,-0.069 0.094,-0.069 0.046,-0.036 0.091,-0.073 0.091,-0.073 0.045,-0.037 0.089,-0.076 0.089,-0.076 0.043,-0.039 0.086,-0.079 0.086,-0.079 0.042,-0.04 0.083,-0.082 0.083,-0.082 0.04,-0.042 0.08,-0.084 0.08,-0.084 0.039,-0.043 0.077,-0.087 0.077,-0.087 0.037,-0.045 0.074,-0.09 0.074,-0.09 0.036,-0.046 0.071,-0.092 0.071,-0.092 0.034,-0.047 0.068,-0.095 0.068,-0.095 0,0 0.033,-0.048 0.033,-0.048 l 0.032,-0.049 0.031,-0.049 0.03,-0.05 0.029,-0.05 0.028,-0.051 c 0,0 0.027,-0.051 0.027,-0.051 l 0.027,-0.052 c 0,0 0.026,-0.052 0.026,-0.052 l 0.025,-0.053 c 0,0 0.024,-0.053 0.024,-0.053 l 0.023,-0.054 0.022,-0.054 c 0,0 0.021,-0.054 0.021,-0.054 l 0.02,-0.055 0.019,-0.055 c 0,0 0.018,-0.055 0.018,-0.055 0,0 0.017,-0.056 0.017,-0.056 l 0.016,-0.056 c 0,0 0.015,-0.056 0.015,-0.056 l 0.014,-0.056 0.013,-0.057 0.012,-0.057 0.011,-0.057 0.01,-0.057 0.01,-0.057 0.008,-0.058 c 0,0 0.008,-0.058 0.008,-0.058 0,0 0.007,-0.058 0.007,-0.058 0,0 0.006,-0.058 0.006,-0.058 0,0 0.005,-0.058 0.005,-0.058 l 0.003,-0.058 0.003,-0.058 10e-4,-0.058 v -0.058"
           id="path17476"
           style="stroke:#80ffe6;stroke-opacity:1" />
      </g>
      <g
         id="POLYLINE_656_"
         style="stroke:#80ffe6;stroke-opacity:1">
        <path
           fill="none"
           stroke="#00b9d2"
           stroke-width="2"
           stroke-linecap="round"
           stroke-linejoin="round"
           stroke-miterlimit="10"
           d="m 773.935,617.443 h -2.492 l -0.064,10e-4 -0.064,0.002 -0.064,0.003 c 0,0 -0.064,0.004 -0.064,0.004 0,0 -0.064,0.005 -0.064,0.005 l -0.064,0.006 c 0,0 -0.064,0.007 -0.064,0.007 0,0 -0.063,0.008 -0.063,0.008 l -0.063,0.009 -0.063,0.01 -0.063,0.012 -0.063,0.013 -0.062,0.014 -0.062,0.015 c 0,0 -0.062,0.016 -0.062,0.016 l -0.062,0.017 c 0,0 -0.061,0.018 -0.061,0.018 l -0.061,0.019 -0.061,0.02 -0.06,0.021 -0.06,0.022 c 0,0 -0.06,0.023 -0.06,0.023 l -0.059,0.024 c 0,0 -0.059,0.025 -0.059,0.025 l -0.058,0.026 -0.058,0.027 -0.057,0.028 -0.057,0.029 -0.056,0.03 -0.056,0.031 -0.055,0.032 -0.055,0.033 -0.054,0.034 -0.054,0.035 -0.053,0.036 -0.052,0.037 -0.052,0.038 -0.051,0.039 -0.05,0.039 -0.05,0.04 -0.049,0.041 -0.048,0.042 -0.047,0.043 c -0.047,0.044 -0.093,0.088 -0.093,0.088 -0.045,0.045 -0.09,0.091 -0.09,0.091 -0.044,0.047 -0.086,0.094 -0.086,0.094 l -0.042,0.048 c 0,0 -0.041,0.049 -0.041,0.049 l -0.04,0.05 -0.039,0.05 c 0,0 -0.039,0.051 -0.039,0.051 l -0.038,0.052 -0.037,0.052 c 0,0 -0.036,0.053 -0.036,0.053 l -0.035,0.054 -0.034,0.054 -0.033,0.055 -0.032,0.055 -0.031,0.056 c 0,0 -0.03,0.056 -0.03,0.056 0,0 -0.029,0.057 -0.029,0.057 0,0 -0.028,0.057 -0.028,0.057 0,0 -0.027,0.058 -0.027,0.058 l -0.026,0.058 c 0,0 -0.025,0.059 -0.025,0.059 l -0.024,0.059 -0.023,0.06 -0.022,0.06 -0.021,0.06 c 0,0 -0.02,0.061 -0.02,0.061 0,0 -0.019,0.061 -0.019,0.061 l -0.018,0.061 c 0,0 -0.017,0.062 -0.017,0.062 l -0.016,0.062 c 0,0 -0.015,0.062 -0.015,0.062 l -0.014,0.062 -0.013,0.063 -0.012,0.063 -0.01,0.063 c 0,0 -0.009,0.063 -0.009,0.063 l -0.008,0.063 -0.007,0.064 -0.006,0.064 -0.005,0.064 c 0,0 -0.004,0.064 -0.004,0.064 l -0.003,0.064 -0.002,0.064 -10e-4,0.064 c 0,0 -0.002,0.396 -0.002,0.396 l -0.007,0.397 c 0,0 -0.011,0.399 -0.011,0.399 0,0 -0.016,0.401 -0.016,0.401 l -0.02,0.402 -0.025,0.404 -0.03,0.405 c 0,0 -0.034,0.407 -0.034,0.407 l -0.039,0.408 c 0,0 -0.044,0.409 -0.044,0.409 l -0.049,0.41 -0.054,0.411 -0.059,0.412 c 0,0 -0.064,0.413 -0.064,0.413 l -0.069,0.414 c 0,0 -0.074,0.414 -0.074,0.414 l -0.079,0.415 -0.085,0.416 -0.09,0.416 c 0,0 -0.095,0.416 -0.095,0.416 l -0.1,0.417 -0.106,0.417 -0.111,0.417 -0.117,0.417 -0.122,0.417 -0.127,0.416 -0.133,0.416 -0.138,0.416 -0.144,0.415 c 0,0 -0.149,0.414 -0.149,0.414 0,0 -0.155,0.414 -0.155,0.414 0,0 -0.16,0.413 -0.16,0.413 l -0.166,0.412 c 0,0 -0.172,0.411 -0.172,0.411 l -0.177,0.41 c 0,0 -0.183,0.408 -0.183,0.408 0,0 -0.188,0.407 -0.188,0.407 l -0.194,0.405 -0.199,0.404 -0.205,0.402 -0.21,0.4 -0.216,0.398 -0.221,0.396 -0.227,0.394 c 0,0 -0.232,0.392 -0.232,0.392 l -0.237,0.389 c 0,0 -0.242,0.387 -0.242,0.387 l -0.248,0.384 c 0,0 -0.253,0.382 -0.253,0.382 l -0.258,0.379 -0.263,0.376 c 0,0 -0.268,0.373 -0.268,0.373 l -0.274,0.37 -0.279,0.367 -0.283,0.363 -0.288,0.36 -0.293,0.356 -0.298,0.353 -0.303,0.349 -0.307,0.345 c 0,0 -0.312,0.341 -0.312,0.341 l -0.316,0.337 -0.321,0.333 -0.325,0.329 -0.329,0.325 c 0,0 -0.333,0.321 -0.333,0.321 l -0.337,0.316 -0.341,0.312 -0.345,0.307 c 0,0 -0.349,0.303 -0.349,0.303 l -0.353,0.298 -0.356,0.293 -0.36,0.288 -0.363,0.284 -0.367,0.279 -0.37,0.274 c 0,0 -0.373,0.268 -0.373,0.268 0,0 -0.376,0.263 -0.376,0.263 l -0.379,0.258 -0.382,0.253 -0.384,0.248 -0.387,0.243 c 0,0 -0.389,0.237 -0.389,0.237 l -0.392,0.232 -0.394,0.226 c 0,0 -0.396,0.221 -0.396,0.221 l -0.398,0.216 c 0,0 -0.4,0.21 -0.4,0.21 l -0.402,0.205 -0.404,0.199 c 0,0 -0.405,0.194 -0.405,0.194 0,0 -0.407,0.188 -0.407,0.188 l -0.408,0.183 c 0,0 -0.41,0.177 -0.41,0.177 l -0.411,0.172 c 0,0 -0.412,0.166 -0.412,0.166 l -0.413,0.161 -0.414,0.155 -0.414,0.149 c 0,0 -0.415,0.144 -0.415,0.144 l -0.416,0.138 -0.416,0.133 -0.416,0.128 -0.417,0.122 -0.417,0.117 -0.417,0.111 -0.417,0.106 c 0,0 -0.417,0.1 -0.417,0.1 l -0.416,0.095 -0.416,0.09 -0.416,0.085 c 0,0 -0.415,0.079 -0.415,0.079 l -0.414,0.074 -0.414,0.069 -0.413,0.064 -0.412,0.059 -0.411,0.054 -0.41,0.049 c 0,0 -0.409,0.044 -0.409,0.044 l -0.408,0.039 c 0,0 -0.406,0.034 -0.406,0.034 l -0.405,0.03 -0.404,0.025 c 0,0 -0.402,0.02 -0.402,0.02 l -0.401,0.016 c 0,0 -0.399,0.011 -0.399,0.011 0,0 -0.397,0.007 -0.397,0.007 l -0.396,0.002 c 0,0 -203.538,0 -203.538,0 l -0.396,-0.002 -0.397,-0.007 -0.399,-0.011 -0.401,-0.016 -0.402,-0.02 c 0,0 -0.404,-0.025 -0.404,-0.025 0,0 -0.405,-0.03 -0.405,-0.03 l -0.407,-0.034 c 0,0 -0.408,-0.039 -0.408,-0.039 l -0.409,-0.044 -0.41,-0.049 -0.411,-0.054 -0.412,-0.059 -0.413,-0.064 -0.414,-0.069 -0.414,-0.074 -0.415,-0.079 -0.416,-0.085 -0.416,-0.09 -0.416,-0.095 -0.417,-0.1 -0.417,-0.106 -0.417,-0.111 c 0,0 -0.417,-0.117 -0.417,-0.117 l -0.417,-0.122 -0.416,-0.128 -0.416,-0.133 -0.416,-0.138 -0.415,-0.144 -0.414,-0.149 c 0,0 -0.414,-0.155 -0.414,-0.155 0,0 -0.413,-0.161 -0.413,-0.161 l -0.412,-0.166 -0.411,-0.172 c 0,0 -0.41,-0.177 -0.41,-0.177 l -0.408,-0.183 c 0,0 -0.407,-0.188 -0.407,-0.188 l -0.405,-0.194 -0.404,-0.199 c 0,0 -0.402,-0.205 -0.402,-0.205 l -0.4,-0.21 -0.398,-0.216 c 0,0 -0.396,-0.221 -0.396,-0.221 0,0 -0.394,-0.226 -0.394,-0.226 l -0.392,-0.232 -0.389,-0.237 -0.387,-0.243 -0.384,-0.248 -0.382,-0.253 -0.379,-0.258 -0.376,-0.263 c 0,0 -0.373,-0.268 -0.373,-0.268 0,0 -0.37,-0.274 -0.37,-0.274 0,0 -0.367,-0.279 -0.367,-0.279 l -0.363,-0.284 c 0,0 -0.36,-0.288 -0.36,-0.288 l -0.356,-0.293 c 0,0 -0.353,-0.298 -0.353,-0.298 0,0 -0.349,-0.303 -0.349,-0.303 l -0.345,-0.307 -0.341,-0.312 -0.337,-0.316 -0.333,-0.321 -0.329,-0.325 -0.325,-0.329 -0.321,-0.333 -0.316,-0.337 -0.312,-0.341 c 0,0 -0.307,-0.345 -0.307,-0.345 l -0.303,-0.349 c 0,0 -0.298,-0.353 -0.298,-0.353 l -0.293,-0.356 c 0,0 -0.288,-0.36 -0.288,-0.36 l -0.283,-0.363 -0.279,-0.367 -0.274,-0.37 -0.268,-0.373 -0.263,-0.376 c 0,0 -0.258,-0.379 -0.258,-0.379 l -0.253,-0.382 c 0,0 -0.248,-0.384 -0.248,-0.384 l -0.243,-0.387 -0.237,-0.389 c 0,0 -0.232,-0.392 -0.232,-0.392 l -0.227,-0.394 -0.221,-0.396 c 0,0 -0.216,-0.398 -0.216,-0.398 l -0.21,-0.4 -0.205,-0.402 -0.199,-0.404 -0.194,-0.405 -0.188,-0.407 -0.183,-0.408 c 0,0 -0.177,-0.41 -0.177,-0.41 l -0.172,-0.411 -0.166,-0.412 -0.16,-0.413 -0.155,-0.414 -0.149,-0.414 c 0,0 -0.144,-0.415 -0.144,-0.415 l -0.138,-0.416 -0.133,-0.416 -0.127,-0.416 -0.122,-0.417 c 0,0 -0.117,-0.417 -0.117,-0.417 0,0 -0.111,-0.417 -0.111,-0.417 l -0.106,-0.417 -0.1,-0.417 -0.095,-0.416 c 0,0 -0.09,-0.416 -0.09,-0.416 l -0.085,-0.416 -0.079,-0.415 -0.074,-0.414 c 0,0 -0.069,-0.414 -0.069,-0.414 l -0.064,-0.413 -0.059,-0.412 -0.054,-0.411 -0.049,-0.41 -0.044,-0.409 -0.039,-0.408 -0.034,-0.407 c 0,0 -0.03,-0.405 -0.03,-0.405 0,0 -0.025,-0.404 -0.025,-0.404 l -0.02,-0.402 c 0,0 -0.016,-0.401 -0.016,-0.401 l -0.011,-0.399 -0.007,-0.397 c 0,0 -0.002,-0.396 -0.002,-0.396 0,0 -0.001,-0.064 -0.001,-0.064 0,0 -0.002,-0.064 -0.002,-0.064 l -0.003,-0.064 c 0,0 -0.004,-0.064 -0.004,-0.064 l -0.005,-0.064 -0.006,-0.064 -0.007,-0.064 -0.008,-0.063 -0.009,-0.063 c 0,0 -0.01,-0.063 -0.01,-0.063 0,0 -0.012,-0.063 -0.012,-0.063 l -0.013,-0.063 -0.014,-0.062 -0.015,-0.062 -0.016,-0.062 -0.017,-0.062 c 0,0 -0.018,-0.061 -0.018,-0.061 l -0.019,-0.061 c 0,0 -0.02,-0.061 -0.02,-0.061 0,0 -0.021,-0.06 -0.021,-0.06 l -0.022,-0.06 -0.023,-0.06 -0.024,-0.059 -0.025,-0.059 -0.026,-0.058 c 0,0 -0.027,-0.058 -0.027,-0.058 0,0 -0.028,-0.057 -0.028,-0.057 0,0 -0.029,-0.057 -0.029,-0.057 0,0 -0.03,-0.056 -0.03,-0.056 0,0 -0.031,-0.056 -0.031,-0.056 l -0.032,-0.055 -0.033,-0.055 -0.034,-0.054 -0.035,-0.054 -0.036,-0.053 c 0,0 -0.037,-0.052 -0.037,-0.052 0,0 -0.038,-0.052 -0.038,-0.052 l -0.039,-0.051 c 0,0 -0.039,-0.05 -0.039,-0.05 l -0.04,-0.05 c 0,0 -0.041,-0.049 -0.041,-0.049 0,0 -0.042,-0.048 -0.042,-0.048 l -0.043,-0.047 c -0.044,-0.047 -0.088,-0.093 -0.088,-0.093 -0.045,-0.045 -0.091,-0.09 -0.091,-0.09 -0.047,-0.044 -0.094,-0.086 -0.094,-0.086 l -0.048,-0.042 c 0,0 -0.049,-0.041 -0.049,-0.041 l -0.05,-0.04 -0.05,-0.039 -0.051,-0.039 -0.052,-0.038 -0.052,-0.037 -0.053,-0.036 -0.054,-0.035 -0.054,-0.034 c 0,0 -0.055,-0.033 -0.055,-0.033 l -0.055,-0.032 -0.056,-0.031 -0.056,-0.03 -0.057,-0.029 c 0,0 -0.057,-0.028 -0.057,-0.028 0,0 -0.058,-0.027 -0.058,-0.027 l -0.058,-0.026 -0.059,-0.025 c 0,0 -0.059,-0.024 -0.059,-0.024 0,0 -0.06,-0.023 -0.06,-0.023 l -0.06,-0.022 c 0,0 -0.06,-0.021 -0.06,-0.021 0,0 -0.061,-0.02 -0.061,-0.02 l -0.061,-0.019 -0.061,-0.018 -0.062,-0.017 -0.062,-0.016 -0.062,-0.015 -0.062,-0.014 -0.063,-0.013 -0.063,-0.012 -0.063,-0.01 -0.063,-0.009 -0.063,-0.008 -0.064,-0.007 c 0,0 -0.064,-0.006 -0.064,-0.006 l -0.064,-0.005 -0.064,-0.004 c 0,0 -0.064,-0.003 -0.064,-0.003 l -0.064,-0.002 -0.064,-10e-4 h -2.492"
           id="path17479"
           style="stroke:#80ffe6;stroke-opacity:1" />
      </g>
      <g
         id="POLYLINE_655_"
         style="stroke:#80ffe6;stroke-opacity:1">
        <path
           fill="none"
           stroke="#00b9d2"
           stroke-width="2"
           stroke-linecap="round"
           stroke-linejoin="round"
           stroke-miterlimit="10"
           d="m 499.597,621.148 0.002,0.32 0.005,0.321 0.009,0.322 0.013,0.324 c 0,0 0.016,0.325 0.016,0.325 l 0.02,0.326 0.024,0.327 0.028,0.328 0.032,0.329 c 0,0 0.036,0.33 0.036,0.33 0,0 0.04,0.331 0.04,0.331 0,0 0.044,0.332 0.044,0.332 0,0 0.048,0.333 0.048,0.333 l 0.052,0.334 c 0,0 0.056,0.334 0.056,0.334 0,0 0.06,0.335 0.06,0.335 l 0.064,0.335 c 0,0 0.068,0.336 0.068,0.336 l 0.073,0.336 0.077,0.336 0.081,0.337 0.085,0.337 0.09,0.337 c 0,0 0.094,0.337 0.094,0.337 l 0.099,0.337 0.103,0.336 0.107,0.336 0.112,0.336 0.116,0.335 c 0,0 0.121,0.335 0.121,0.335 l 0.125,0.334 0.13,0.334 0.134,0.333 c 0,0 0.139,0.332 0.139,0.332 l 0.143,0.331 0.148,0.33 0.152,0.329 0.156,0.328 0.161,0.326 c 0,0 0.165,0.325 0.165,0.325 0,0 0.17,0.323 0.17,0.323 l 0.174,0.322 0.179,0.32 0.183,0.318 0.187,0.317 0.192,0.315 0.196,0.313 c 0,0 0.2,0.311 0.2,0.311 l 0.204,0.308 c 0,0 0.209,0.306 0.209,0.306 0,0 0.213,0.304 0.213,0.304 l 0.217,0.301 0.221,0.299 c 0,0 0.225,0.296 0.225,0.296 0,0 0.229,0.294 0.229,0.294 l 0.233,0.291 0.237,0.288 0.241,0.285 c 0,0 0.244,0.282 0.244,0.282 l 0.248,0.279 0.252,0.276 0.255,0.273 0.259,0.269 0.263,0.266 0.266,0.263 c 0,0 0.269,0.259 0.269,0.259 l 0.273,0.255 0.276,0.252 0.279,0.248 c 0,0 0.282,0.244 0.282,0.244 l 0.285,0.241 0.288,0.237 c 0,0 0.291,0.233 0.291,0.233 l 0.293,0.229 0.296,0.225 c 0,0 0.299,0.221 0.299,0.221 l 0.301,0.217 0.304,0.213 0.306,0.209 0.308,0.204 0.31,0.2 0.313,0.196 c 0,0 0.315,0.192 0.315,0.192 l 0.317,0.187 0.318,0.183 c 0,0 0.32,0.179 0.32,0.179 0,0 0.322,0.174 0.322,0.174 l 0.323,0.17 0.325,0.165 0.326,0.161 c 0,0 0.328,0.156 0.328,0.156 0,0 0.329,0.152 0.329,0.152 l 0.33,0.148 c 0,0 0.331,0.143 0.331,0.143 0,0 0.332,0.139 0.332,0.139 l 0.333,0.134 0.333,0.13 0.334,0.125 c 0,0 0.335,0.121 0.335,0.121 l 0.335,0.116 0.336,0.112 c 0,0 0.336,0.107 0.336,0.107 l 0.336,0.103 c 0,0 0.337,0.099 0.337,0.099 l 0.337,0.094 0.337,0.09 0.337,0.085 0.337,0.081 0.336,0.077 c 0,0 0.336,0.073 0.336,0.073 l 0.336,0.068 0.335,0.064 c 0,0 0.335,0.06 0.335,0.06 l 0.334,0.056 c 0,0 0.334,0.052 0.334,0.052 l 0.333,0.048 0.332,0.044 0.331,0.04 0.33,0.036 0.329,0.032 0.328,0.028 0.327,0.024 c 0,0 0.326,0.02 0.326,0.02 l 0.325,0.016 0.324,0.013 0.322,0.009 c 0,0 0.321,0.005 0.321,0.005 0,0 0.32,0.002 0.32,0.002 0,0 203.538,0 203.538,0 0,0 0.32,-0.002 0.32,-0.002 0,0 0.321,-0.005 0.321,-0.005 l 0.322,-0.009 0.324,-0.013 0.325,-0.016 0.326,-0.02 c 0,0 0.327,-0.024 0.327,-0.024 l 0.328,-0.028 c 0,0 0.329,-0.032 0.329,-0.032 0,0 0.33,-0.036 0.33,-0.036 l 0.331,-0.04 0.332,-0.044 0.333,-0.048 0.334,-0.052 0.334,-0.056 c 0,0 0.335,-0.06 0.335,-0.06 l 0.335,-0.064 0.336,-0.068 c 0,0 0.336,-0.073 0.336,-0.073 l 0.336,-0.077 c 0,0 0.337,-0.081 0.337,-0.081 l 0.337,-0.085 0.337,-0.09 0.337,-0.094 0.337,-0.099 0.336,-0.103 0.336,-0.107 c 0,0 0.336,-0.112 0.336,-0.112 l 0.335,-0.116 c 0,0 0.335,-0.121 0.335,-0.121 l 0.334,-0.125 c 0,0 0.333,-0.13 0.333,-0.13 l 0.333,-0.134 c 0,0 0.332,-0.139 0.332,-0.139 l 0.331,-0.143 c 0,0 0.33,-0.148 0.33,-0.148 0,0 0.329,-0.152 0.329,-0.152 l 0.328,-0.156 0.326,-0.161 c 0,0 0.325,-0.165 0.325,-0.165 l 0.323,-0.17 0.322,-0.174 0.32,-0.179 0.318,-0.183 0.317,-0.187 0.315,-0.192 0.313,-0.196 0.311,-0.2 0.308,-0.204 0.306,-0.209 0.304,-0.213 c 0,0 0.301,-0.217 0.301,-0.217 l 0.299,-0.221 0.296,-0.225 0.293,-0.229 c 0,0 0.291,-0.233 0.291,-0.233 l 0.288,-0.237 0.285,-0.241 0.282,-0.244 0.279,-0.248 0.276,-0.252 0.273,-0.255 c 0,0 0.269,-0.259 0.269,-0.259 l 0.266,-0.263 c 0,0 0.263,-0.266 0.263,-0.266 0,0 0.259,-0.269 0.259,-0.269 l 0.255,-0.273 0.252,-0.276 0.248,-0.279 0.245,-0.282 0.241,-0.285 0.237,-0.288 0.233,-0.291 c 0,0 0.229,-0.294 0.229,-0.294 l 0.225,-0.296 0.221,-0.299 0.217,-0.301 0.213,-0.304 0.209,-0.306 0.204,-0.308 0.2,-0.311 0.196,-0.313 c 0,0 0.192,-0.315 0.192,-0.315 l 0.187,-0.317 0.183,-0.318 c 0,0 0.179,-0.32 0.179,-0.32 l 0.174,-0.322 c 0,0 0.17,-0.323 0.17,-0.323 0,0 0.165,-0.325 0.165,-0.325 l 0.161,-0.326 0.156,-0.328 0.152,-0.329 0.148,-0.33 0.143,-0.331 c 0,0 0.139,-0.332 0.139,-0.332 0,0 0.134,-0.333 0.134,-0.333 0,0 0.13,-0.334 0.13,-0.334 0,0 0.125,-0.334 0.125,-0.334 l 0.121,-0.335 c 0,0 0.116,-0.335 0.116,-0.335 0,0 0.112,-0.336 0.112,-0.336 0,0 0.107,-0.336 0.107,-0.336 0,0 0.103,-0.336 0.103,-0.336 l 0.099,-0.337 0.094,-0.337 0.09,-0.337 0.086,-0.337 0.081,-0.337 0.077,-0.336 c 0,0 0.073,-0.336 0.073,-0.336 l 0.068,-0.336 0.064,-0.335 0.06,-0.335 0.056,-0.334 0.052,-0.334 0.048,-0.333 c 0,0 0.044,-0.332 0.044,-0.332 0,0 0.04,-0.331 0.04,-0.331 l 0.036,-0.33 c 0,0 0.032,-0.329 0.032,-0.329 l 0.028,-0.328 0.024,-0.327 0.02,-0.326 0.016,-0.325 0.013,-0.324 0.009,-0.322 0.005,-0.321 0.002,-0.32 c 0,0 -10e-4,-0.064 -10e-4,-0.064 0,0 -0.002,-0.064 -0.002,-0.064 l -0.003,-0.064 c 0,0 -0.004,-0.064 -0.004,-0.064 l -0.005,-0.064 -0.006,-0.064 -0.007,-0.064 -0.008,-0.063 -0.009,-0.063 c 0,0 -0.01,-0.063 -0.01,-0.063 0,0 -0.012,-0.063 -0.012,-0.063 0,0 -0.013,-0.063 -0.013,-0.063 l -0.014,-0.062 -0.015,-0.062 -0.016,-0.062 -0.017,-0.062 c 0,0 -0.018,-0.061 -0.018,-0.061 l -0.019,-0.061 c 0,0 -0.02,-0.061 -0.02,-0.061 l -0.021,-0.06 c 0,0 -0.022,-0.06 -0.022,-0.06 l -0.023,-0.06 -0.024,-0.059 -0.025,-0.059 -0.026,-0.058 c 0,0 -0.027,-0.058 -0.027,-0.058 l -0.028,-0.057 c 0,0 -0.029,-0.057 -0.029,-0.057 l -0.03,-0.056 -0.031,-0.056 -0.032,-0.055 c 0,0 -0.033,-0.055 -0.033,-0.055 l -0.034,-0.054 -0.035,-0.054 -0.036,-0.053 c 0,0 -0.037,-0.052 -0.037,-0.052 0,0 -0.038,-0.052 -0.038,-0.052 l -0.039,-0.051 c 0,0 -0.039,-0.05 -0.039,-0.05 l -0.04,-0.05 c 0,0 -0.041,-0.049 -0.041,-0.049 0,0 -0.042,-0.048 -0.042,-0.048 l -0.043,-0.047 c -0.044,-0.047 -0.088,-0.093 -0.088,-0.093 -0.045,-0.045 -0.091,-0.09 -0.091,-0.09 -0.047,-0.044 -0.094,-0.086 -0.094,-0.086 l -0.048,-0.042 c 0,0 -0.049,-0.041 -0.049,-0.041 l -0.05,-0.04 -0.05,-0.039 -0.051,-0.039 -0.052,-0.038 -0.052,-0.037 -0.053,-0.036 -0.054,-0.035 -0.054,-0.034 c 0,0 -0.055,-0.033 -0.055,-0.033 L 759,617.928 c 0,0 -0.056,-0.031 -0.056,-0.031 l -0.056,-0.03 c 0,0 -0.057,-0.029 -0.057,-0.029 0,0 -0.057,-0.028 -0.057,-0.028 l -0.058,-0.027 c 0,0 -0.058,-0.026 -0.058,-0.026 l -0.059,-0.025 -0.059,-0.024 -0.06,-0.023 c 0,0 -0.06,-0.022 -0.06,-0.022 l -0.06,-0.021 c 0,0 -0.061,-0.02 -0.061,-0.02 l -0.061,-0.019 -0.061,-0.018 -0.062,-0.017 -0.062,-0.016 -0.062,-0.015 c 0,0 -0.062,-0.014 -0.062,-0.014 l -0.063,-0.013 -0.063,-0.012 -0.063,-0.01 -0.063,-0.009 -0.063,-0.008 -0.064,-0.007 c 0,0 -0.064,-0.006 -0.064,-0.006 l -0.064,-0.005 -0.064,-0.004 -0.064,-0.003 -0.064,-0.002 -0.064,-10e-4 H 503.303 l -0.064,10e-4 -0.064,0.002 -0.064,0.003 c 0,0 -0.064,0.004 -0.064,0.004 0,0 -0.064,0.005 -0.064,0.005 l -0.064,0.006 c 0,0 -0.064,0.007 -0.064,0.007 0,0 -0.063,0.008 -0.063,0.008 l -0.063,0.009 -0.063,0.01 -0.063,0.012 -0.063,0.013 -0.062,0.014 -0.062,0.015 c 0,0 -0.062,0.016 -0.062,0.016 l -0.062,0.017 -0.061,0.018 -0.061,0.019 -0.061,0.02 -0.06,0.021 -0.06,0.022 c 0,0 -0.06,0.023 -0.06,0.023 l -0.059,0.024 c 0,0 -0.059,0.025 -0.059,0.025 l -0.058,0.026 -0.058,0.027 -0.057,0.028 -0.057,0.029 -0.056,0.03 -0.056,0.031 -0.055,0.032 c 0,0 -0.055,0.033 -0.055,0.033 0,0 -0.054,0.034 -0.054,0.034 0,0 -0.054,0.035 -0.054,0.035 l -0.053,0.036 c 0,0 -0.052,0.037 -0.052,0.037 l -0.052,0.038 -0.051,0.039 -0.05,0.039 -0.05,0.04 -0.049,0.041 -0.048,0.042 -0.048,0.043 c -0.047,0.044 -0.093,0.088 -0.093,0.088 -0.045,0.045 -0.09,0.091 -0.09,0.091 -0.044,0.047 -0.086,0.094 -0.086,0.094 l -0.042,0.048 c 0,0 -0.041,0.049 -0.041,0.049 0,0 -0.04,0.05 -0.04,0.05 l -0.039,0.05 c 0,0 -0.039,0.051 -0.039,0.051 l -0.038,0.052 c 0,0 -0.037,0.052 -0.037,0.052 0,0 -0.036,0.053 -0.036,0.053 0,0 -0.035,0.054 -0.035,0.054 l -0.034,0.054 -0.033,0.055 -0.032,0.055 c 0,0 -0.031,0.056 -0.031,0.056 0,0 -0.03,0.056 -0.03,0.056 0,0 -0.029,0.057 -0.029,0.057 0,0 -0.028,0.057 -0.028,0.057 0,0 -0.027,0.058 -0.027,0.058 l -0.026,0.058 -0.025,0.059 c 0,0 -0.024,0.059 -0.024,0.059 l -0.023,0.06 -0.022,0.06 -0.021,0.06 c 0,0 -0.02,0.061 -0.02,0.061 l -0.019,0.061 c 0,0 -0.018,0.061 -0.018,0.061 0,0 -0.017,0.062 -0.017,0.062 l -0.016,0.062 c 0,0 -0.015,0.062 -0.015,0.062 l -0.014,0.062 -0.013,0.063 -0.012,0.063 -0.01,0.063 c 0,0 -0.009,0.063 -0.009,0.063 0,0 -0.008,0.063 -0.008,0.063 l -0.007,0.064 -0.006,0.064 -0.005,0.064 c 0,0 -0.004,0.064 -0.004,0.064 l -0.003,0.064 -0.002,0.064 c -10e-4,10e-4 -0.002,0.065 -0.002,0.065 z"
           id="path17482"
           style="stroke:#80ffe6;stroke-opacity:1" />
      </g>
      <g
         id="POLYLINE_654_"
         style="stroke:#80ffe6;stroke-opacity:1">
        <line
           fill="none"
           stroke="#00b9d2"
           stroke-width="2"
           stroke-linecap="round"
           stroke-linejoin="round"
           stroke-miterlimit="10"
           x1="773.935"
           y1="608.37097"
           x2="486.534"
           y2="608.37097"
           id="line17485"
           style="stroke:#80ffe6;stroke-opacity:1" />
      </g>
      <g
         id="POLYLINE_653_"
         style="stroke:#80ffe6;stroke-opacity:1">
        <line
           fill="none"
           stroke="#00b9d2"
           stroke-width="2"
           stroke-linecap="round"
           stroke-linejoin="round"
           stroke-miterlimit="10"
           x1="773.935"
           y1="134.131"
           x2="486.534"
           y2="134.131"
           id="line17488"
           style="stroke:#80ffe6;stroke-opacity:1" />
      </g>
      <g
         id="POLYLINE_101_"
         style="stroke:#80ffe6;stroke-opacity:1">
        <path
           fill="none"
           stroke="#00b9d2"
           stroke-width="2.75"
           stroke-linecap="round"
           stroke-linejoin="round"
           stroke-miterlimit="10"
           d="m 558.692,108.774 c 0.013,-6.504 -4.457,-12.249 -10.766,-13.832 -8.979,-2.252 -17.67,4.452 -17.771,13.708 -0.058,9.361 8.691,16.232 17.771,13.957 6.309,-1.585 10.78,-7.329 10.766,-13.833 z"
           id="path17534"
           style="stroke:#80ffe6;stroke-opacity:1" />
      </g>
      <g
         id="POLYLINE_103_"
         style="stroke:#80ffe6;stroke-opacity:1">
        <path
           fill="none"
           stroke="#00b9d2"
           stroke-width="2.75"
           stroke-linecap="round"
           stroke-linejoin="round"
           stroke-miterlimit="10"
           d="m 572.311,108.774 c 0.005,-1.922 -1.68,-3.428 -3.572,-3.231 -0.81,0.069 -1.645,0.517 -2.149,1.127 -0.515,0.61 -0.777,1.346 -0.774,2.133 -0.002,0.759 0.311,1.562 0.811,2.119 0.567,0.634 1.287,0.994 2.112,1.084 1.912,0.195 3.577,-1.329 3.572,-3.232 z"
           id="path17537"
           style="stroke:#80ffe6;stroke-opacity:1" />
      </g>
      <g
         id="POLYLINE_104_"
         style="stroke:#80ffe6;stroke-opacity:1">
        <path
           fill="none"
           stroke="#00b9d2"
           stroke-width="2.75"
           stroke-linecap="round"
           stroke-linejoin="round"
           stroke-miterlimit="10"
           d="m 596.622,108.774 c 0.01,-3.868 -2.657,-7.296 -6.41,-8.235 -5.342,-1.343 -10.523,2.654 -10.58,8.161 -0.038,5.57 5.178,9.666 10.58,8.309 3.752,-0.94 6.42,-4.367 6.41,-8.235 z"
           id="path17540"
           style="stroke:#80ffe6;stroke-opacity:1" />
      </g>
      <g
         id="POLYLINE_109_"
         style="stroke:#80ffe6;stroke-opacity:1">
        <polygon
           fill="none"
           stroke="#00b9d2"
           stroke-width="2.75"
           stroke-linecap="round"
           stroke-linejoin="round"
           stroke-miterlimit="10"
           points="766.918,644.369 767.314,643.762 767.699,643.15 768.073,642.53 768.437,641.904 768.79,641.272 769.132,640.634 769.463,639.991 769.782,639.341 770.091,638.687 770.388,638.026 770.673,637.361 770.947,636.692 771.21,636.017 771.461,635.338 771.7,634.655 771.927,633.968 772.142,633.277 772.346,632.582 772.537,631.884 772.716,631.183 772.883,630.479 773.038,629.771 773.181,629.062 773.312,628.35 773.43,627.636 773.536,626.92 773.629,626.202 773.71,625.483 773.779,624.762 773.835,624.041 773.878,623.318 773.91,622.595 773.928,621.872 773.935,621.148 773.935,121.355 773.928,120.631 773.91,119.908 773.878,119.185 773.835,118.462 773.779,117.741 773.71,117.02 773.629,116.301 773.536,115.583 773.43,114.867 773.312,114.153 773.181,113.441 773.038,112.731 772.883,112.024 772.716,111.32 772.537,110.619 772.346,109.921 772.142,109.226 771.927,108.535 771.7,107.848 771.461,107.165 771.21,106.486 770.947,105.811 770.673,105.141 770.388,104.476 770.091,103.816 769.782,103.162 769.463,102.512 769.132,101.868 768.79,101.23 768.437,100.598 768.073,99.973 767.699,99.353 767.314,98.74 766.918,98.134 766.512,97.535 766.096,96.943 765.669,96.358 765.233,95.781 764.786,95.211 764.33,94.649 763.865,94.095 763.389,93.549 762.905,93.012 762.411,92.482 761.908,91.962 761.396,91.45 760.876,90.947 760.346,90.453 759.809,89.969 759.263,89.493 758.709,89.028 758.147,88.572 757.577,88.125 757,87.689 756.415,87.262 755.823,86.846 755.224,86.44 754.618,86.044 754.005,85.659 753.385,85.285 752.76,84.921 752.128,84.568 751.49,84.226 750.846,83.896 750.196,83.576 749.542,83.267 748.882,82.97 748.217,82.685 747.547,82.411 746.872,82.148 746.193,81.897 745.51,81.658 744.823,81.431 744.132,81.216 743.437,81.012 742.739,80.821 742.038,80.642 741.334,80.475 740.627,80.32 739.917,80.177 739.205,80.047 738.491,79.928 737.775,79.823 737.057,79.729 736.338,79.648 735.618,79.579 734.896,79.523 734.173,79.48 733.45,79.448 732.727,79.43 732.003,79.423 528.466,79.423 527.742,79.43 527.018,79.448 526.295,79.48 525.573,79.523 524.851,79.579 524.13,79.648 523.411,79.729 522.693,79.823 521.977,79.928 521.263,80.047 520.551,80.177 519.842,80.32 519.135,80.475 518.431,80.642 517.729,80.821 517.031,81.012 516.337,81.216 515.646,81.431 514.958,81.658 514.275,81.897 513.596,82.148 512.922,82.411 512.252,82.685 511.587,82.97 510.927,83.267 510.272,83.576 509.623,83.896 508.979,84.226 508.341,84.568 507.709,84.921 507.083,85.285 506.464,85.659 505.851,86.044 505.245,86.44 504.646,86.846 504.054,87.262 503.469,87.689 502.891,88.125 502.322,88.572 501.76,89.028 501.206,89.493 500.66,89.969 500.122,90.453 499.593,90.947 499.072,91.45 498.561,91.962 498.058,92.482 497.564,93.012 497.079,93.549 496.604,94.095 496.138,94.649 495.682,95.211 495.236,95.781 494.799,96.358 494.373,96.943 493.956,97.535 493.55,98.134 493.155,98.74 492.77,99.353 492.395,99.973 492.032,100.598 491.679,101.23 491.337,101.868 491.006,102.512 490.686,103.162 490.378,103.816 490.081,104.476 489.795,105.141 489.521,105.811 489.259,106.486 489.008,107.165 488.769,107.848 488.542,108.535 488.326,109.226 488.123,109.921 487.932,110.619 487.752,111.32 487.585,112.024 487.43,112.731 487.287,113.441 487.157,114.153 487.039,114.867 486.933,115.583 486.84,116.301 486.759,117.02 486.69,117.741 486.634,118.462 486.59,119.185 486.559,119.908 486.54,120.631 486.534,121.355 486.534,621.148 486.54,621.872 486.559,622.595 486.59,623.318 486.634,624.041 486.69,624.762 486.759,625.483 486.84,626.202 486.933,626.92 487.039,627.636 487.157,628.35 487.287,629.062 487.43,629.771 487.585,630.479 487.752,631.183 487.932,631.884 488.123,632.582 488.326,633.277 488.542,633.968 488.769,634.655 489.008,635.338 489.259,636.017 489.521,636.692 489.795,637.361 490.081,638.026 490.378,638.687 490.686,639.341 491.006,639.991 491.337,640.634 491.679,641.272 492.032,641.904 492.395,642.53 492.77,643.15 493.155,643.762 493.55,644.369 493.956,644.968 494.373,645.56 494.799,646.145 495.236,646.722 495.682,647.292 496.138,647.854 496.604,648.408 497.079,648.954 497.564,649.491 498.058,650.02 498.561,650.541 499.072,651.053 499.593,651.556 500.122,652.049 500.66,652.534 501.206,653.009 501.76,653.475 502.322,653.931 502.891,654.378 503.469,654.814 504.054,655.241 504.646,655.657 505.245,656.063 505.851,656.459 506.464,656.844 507.083,657.218 507.709,657.582 508.341,657.935 508.979,658.276 509.623,658.607 510.272,658.927 510.927,659.235 511.587,659.532 512.252,659.818 512.922,660.092 513.596,660.355 514.275,660.605 514.958,660.844 515.646,661.072 516.337,661.287 517.031,661.49 517.729,661.682 518.431,661.861 519.135,662.028 519.842,662.183 520.551,662.326 521.263,662.456 521.977,662.575 522.693,662.68 523.411,662.774 524.13,662.855 524.851,662.923 525.573,662.98 526.295,663.023 527.018,663.055 527.742,663.073 528.466,663.08 732.003,663.08 732.727,663.073 733.45,663.055 734.173,663.023 734.896,662.98 735.618,662.923 736.338,662.855 737.057,662.774 737.775,662.68 738.491,662.575 739.205,662.456 739.917,662.326 740.627,662.183 741.334,662.028 742.038,661.861 742.739,661.682 743.437,661.49 744.132,661.287 744.823,661.072 745.51,660.844 746.193,660.605 746.872,660.355 747.547,660.092 748.217,659.818 748.882,659.532 749.542,659.235 750.196,658.927 750.846,658.607 751.49,658.276 752.128,657.935 752.76,657.582 753.385,657.218 754.005,656.844 754.618,656.459 755.224,656.063 755.823,655.657 756.415,655.241 757,654.814 757.577,654.378 758.147,653.931 758.709,653.475 759.263,653.009 759.809,652.534 760.346,652.049 760.876,651.556 761.396,651.053 761.908,650.541 762.411,650.02 762.905,649.491 763.389,648.954 763.865,648.408 764.33,647.854 764.786,647.292 765.233,646.722 765.669,646.145 766.096,645.56 766.512,644.968 "
           id="polygon17543"
           style="stroke:#80ffe6;stroke-opacity:1" />
      </g>
      <g
         id="POLYLINE_112_"
         style="stroke:#80ffe6;stroke-opacity:1">
        <path
           fill="none"
           stroke="#00b9d2"
           stroke-width="2.75"
           stroke-linecap="round"
           stroke-linejoin="round"
           stroke-miterlimit="10"
           d="m 486.534,247.588 -0.064,-0.001 -0.064,-0.002 -0.064,-0.003 -0.064,-0.004 -0.064,-0.005 c 0,0 -0.063,-0.006 -0.063,-0.006 l -0.063,-0.007 -0.063,-0.008 -0.063,-0.009 -0.063,-0.01 -0.063,-0.011 -0.062,-0.013 -0.062,-0.014 -0.062,-0.015 c 0,0 -0.062,-0.016 -0.062,-0.016 l -0.061,-0.017 -0.061,-0.018 c 0,0 -0.061,-0.019 -0.061,-0.019 l -0.06,-0.02 -0.06,-0.021 -0.06,-0.022 -0.059,-0.023 -0.059,-0.024 -0.059,-0.025 -0.058,-0.026 -0.058,-0.027 -0.057,-0.028 -0.057,-0.029 -0.056,-0.03 -0.056,-0.031 -0.055,-0.032 -0.055,-0.033 -0.054,-0.034 -0.053,-0.035 -0.053,-0.036 c 0,0 -0.052,-0.037 -0.052,-0.037 l -0.051,-0.038 -0.051,-0.038 c 0,0 -0.05,-0.039 -0.05,-0.039 l -0.049,-0.04 -0.049,-0.041 c 0,0 -0.048,-0.042 -0.048,-0.042 0,0 -0.047,-0.043 -0.047,-0.043 -0.047,-0.043 -0.092,-0.088 -0.092,-0.088 -0.045,-0.045 -0.089,-0.091 -0.089,-0.091 -0.043,-0.047 -0.086,-0.094 -0.086,-0.094 l -0.042,-0.048 -0.041,-0.049 c 0,0 -0.04,-0.049 -0.04,-0.049 0,0 -0.039,-0.05 -0.039,-0.05 l -0.038,-0.051 -0.038,-0.051 -0.037,-0.052 c 0,0 -0.036,-0.053 -0.036,-0.053 l -0.035,-0.053 -0.034,-0.054 -0.033,-0.055 -0.032,-0.055 -0.031,-0.056 c 0,0 -0.03,-0.056 -0.03,-0.056 l -0.029,-0.057 c 0,0 -0.028,-0.057 -0.028,-0.057 l -0.027,-0.058 c 0,0 -0.026,-0.058 -0.026,-0.058 l -0.025,-0.059 c 0,0 -0.024,-0.059 -0.024,-0.059 0,0 -0.023,-0.059 -0.023,-0.059 l -0.022,-0.06 -0.021,-0.06 c 0,0 -0.02,-0.06 -0.02,-0.06 0,0 -0.019,-0.061 -0.019,-0.061 l -0.018,-0.061 -0.017,-0.061 -0.016,-0.062 -0.015,-0.062 -0.014,-0.062 -0.013,-0.062 c 0,0 -0.011,-0.063 -0.011,-0.063 0,0 -0.01,-0.063 -0.01,-0.063 l -0.009,-0.063 -0.008,-0.063 -0.007,-0.063 c 0,0 -0.006,-0.063 -0.006,-0.063 l -0.005,-0.063 c 0,0 -0.004,-0.064 -0.004,-0.064 l -0.003,-0.064 -0.002,-0.064 c 0,0 -10e-4,-0.064 -10e-4,-0.064 0,0 0,-37.322 0,-37.322 l 10e-4,-0.064 0.002,-0.064 0.003,-0.064 0.004,-0.064 0.005,-0.063 c 0,0 0.006,-0.063 0.006,-0.063 l 0.007,-0.063 c 0,0 0.008,-0.063 0.008,-0.063 l 0.009,-0.063 0.01,-0.063 0.011,-0.063 0.013,-0.062 0.014,-0.062 c 0,0 0.015,-0.062 0.015,-0.062 l 0.016,-0.062 0.017,-0.061 0.018,-0.061 0.019,-0.061 c 0,0 0.02,-0.06 0.02,-0.06 0,0 0.021,-0.06 0.021,-0.06 l 0.022,-0.06 0.023,-0.059 c 0,0 0.024,-0.059 0.024,-0.059 l 0.025,-0.059 c 0,0 0.026,-0.058 0.026,-0.058 l 0.027,-0.058 0.028,-0.057 0.029,-0.057 0.03,-0.056 c 0,0 0.031,-0.056 0.031,-0.056 l 0.032,-0.055 0.033,-0.054 c 0,0 0.034,-0.054 0.034,-0.054 0,0 0.035,-0.053 0.035,-0.053 0,0 0.036,-0.053 0.036,-0.053 0,0 0.037,-0.052 0.037,-0.052 0,0 0.038,-0.051 0.038,-0.051 0,0 0.038,-0.051 0.038,-0.051 l 0.039,-0.05 c 0,0 0.04,-0.049 0.04,-0.049 l 0.041,-0.049 0.042,-0.048 c 0,0 0.043,-0.047 0.043,-0.047 0.043,-0.047 0.088,-0.092 0.088,-0.092 0.045,-0.045 0.091,-0.089 0.091,-0.089 0.047,-0.043 0.094,-0.086 0.094,-0.086 0,0 0.048,-0.042 0.048,-0.042 l 0.049,-0.041 0.049,-0.04 0.05,-0.039 0.051,-0.038 0.051,-0.038 0.052,-0.037 0.053,-0.036 0.053,-0.035 c 0,0 0.054,-0.034 0.054,-0.034 l 0.055,-0.033 0.055,-0.032 c 0,0 0.056,-0.031 0.056,-0.031 l 0.056,-0.03 0.057,-0.029 0.057,-0.028 0.058,-0.027 0.058,-0.026 0.059,-0.025 0.059,-0.024 c 0,0 0.059,-0.023 0.059,-0.023 l 0.06,-0.022 0.06,-0.021 0.06,-0.02 0.061,-0.019 0.061,-0.018 0.061,-0.017 c 0,0 0.062,-0.016 0.062,-0.016 l 0.062,-0.015 0.062,-0.014 0.062,-0.013 0.063,-0.011 c 0,0 0.063,-0.01 0.063,-0.01 0,0 0.063,-0.009 0.063,-0.009 0,0 0.063,-0.008 0.063,-0.008 l 0.063,-0.007 0.063,-0.006 0.064,-0.005 0.064,-0.004 0.064,-0.003 0.064,-0.002 c 0,0 0.064,-0.001 0.064,-0.001"
           id="path17546"
           style="stroke:#80ffe6;stroke-opacity:1" />
      </g>
      <g
         id="POLYLINE_113_"
         style="stroke:#80ffe6;stroke-opacity:1">
        <path
           fill="none"
           stroke="#00b9d2"
           stroke-width="2.75"
           stroke-linecap="round"
           stroke-linejoin="round"
           stroke-miterlimit="10"
           d="m 773.935,178.668 0.064,-0.001 0.064,-0.002 c 0,0 0.064,-0.003 0.064,-0.003 l 0.064,-0.004 0.064,-0.005 c 0,0 0.063,-0.006 0.063,-0.006 l 0.063,-0.007 c 0,0 0.063,-0.008 0.063,-0.008 l 0.063,-0.009 0.063,-0.01 0.063,-0.011 c 0,0 0.062,-0.013 0.062,-0.013 l 0.062,-0.014 c 0,0 0.062,-0.015 0.062,-0.015 0,0 0.062,-0.016 0.062,-0.016 l 0.061,-0.017 0.061,-0.018 c 0,0 0.061,-0.019 0.061,-0.019 0,0 0.06,-0.02 0.06,-0.02 0,0 0.06,-0.021 0.06,-0.021 l 0.06,-0.022 c 0,0 0.059,-0.023 0.059,-0.023 0,0 0.059,-0.024 0.059,-0.024 l 0.058,-0.025 c 0,0 0.058,-0.026 0.058,-0.026 l 0.058,-0.027 0.057,-0.028 c 0,0 0.057,-0.029 0.057,-0.029 0,0 0.056,-0.03 0.056,-0.03 0,0 0.056,-0.031 0.056,-0.031 l 0.055,-0.032 0.055,-0.033 0.054,-0.034 0.053,-0.035 0.053,-0.036 c 0,0 0.052,-0.037 0.052,-0.037 l 0.051,-0.038 0.051,-0.038 0.05,-0.039 0.049,-0.04 0.049,-0.041 0.048,-0.042 c 0,0 0.047,-0.043 0.047,-0.043 0.047,-0.043 0.092,-0.088 0.092,-0.088 0.045,-0.045 0.089,-0.091 0.089,-0.091 0.043,-0.047 0.086,-0.094 0.086,-0.094 0,0 0.042,-0.048 0.042,-0.048 l 0.041,-0.049 c 0,0 0.04,-0.049 0.04,-0.049 l 0.039,-0.05 0.038,-0.051 0.037,-0.051 0.037,-0.052 c 0,0 0.036,-0.053 0.036,-0.053 l 0.035,-0.053 0.034,-0.054 0.033,-0.054 0.032,-0.055 0.031,-0.056 0.03,-0.056 0.029,-0.057 c 0,0 0.028,-0.057 0.028,-0.057 l 0.027,-0.058 0.026,-0.058 0.025,-0.059 0.024,-0.059 c 0,0 0.023,-0.059 0.023,-0.059 l 0.022,-0.06 0.021,-0.06 0.02,-0.06 0.019,-0.061 0.018,-0.061 c 0,0 0.017,-0.061 0.017,-0.061 0,0 0.016,-0.062 0.016,-0.062 l 0.015,-0.062 c 0,0 0.014,-0.062 0.014,-0.062 l 0.013,-0.062 c 0,0 0.011,-0.063 0.011,-0.063 l 0.01,-0.063 0.009,-0.063 0.008,-0.063 c 0,0 0.007,-0.063 0.007,-0.063 l 0.006,-0.063 0.005,-0.063 0.004,-0.064 0.003,-0.064 0.002,-0.064 10e-4,-0.064 v -16.598 l -10e-4,-0.064 c 0,0 -0.002,-0.064 -0.002,-0.064 l -0.003,-0.064 -0.004,-0.064 -0.005,-0.063 -0.005,-0.06 -0.007,-0.063 -0.008,-0.063 -0.009,-0.063 -0.01,-0.063 -0.011,-0.063 -0.013,-0.062 c 0,0 -0.014,-0.062 -0.014,-0.062 l -0.015,-0.062 c 0,0 -0.016,-0.062 -0.016,-0.062 l -0.017,-0.061 c 0,0 -0.018,-0.061 -0.018,-0.061 l -0.019,-0.061 -0.02,-0.06 c 0,0 -0.021,-0.06 -0.021,-0.06 l -0.022,-0.06 -0.023,-0.059 c 0,0 -0.024,-0.059 -0.024,-0.059 l -0.025,-0.059 c 0,0 -0.026,-0.058 -0.026,-0.058 l -0.027,-0.058 -0.028,-0.057 c 0,0 -0.029,-0.057 -0.029,-0.057 0,0 -0.03,-0.056 -0.03,-0.056 l -0.031,-0.056 c 0,0 -0.032,-0.055 -0.032,-0.055 l -0.033,-0.054 -0.034,-0.054 -0.035,-0.053 -0.036,-0.053 -0.037,-0.052 -0.037,-0.051 -0.038,-0.051 -0.039,-0.05 -0.04,-0.049 c 0,0 -0.041,-0.049 -0.041,-0.049 0,0 -0.042,-0.048 -0.042,-0.048 l -0.043,-0.047 c -0.043,-0.047 -0.088,-0.092 -0.088,-0.092 -0.045,-0.045 -0.091,-0.089 -0.091,-0.089 -0.047,-0.043 -0.094,-0.086 -0.094,-0.086 l -0.048,-0.042 -0.049,-0.041 -0.049,-0.04 -0.05,-0.039 -0.051,-0.038 -0.051,-0.038 -0.052,-0.037 -0.053,-0.036 -0.053,-0.035 c 0,0 -0.054,-0.034 -0.054,-0.034 0,0 -0.055,-0.033 -0.055,-0.033 l -0.055,-0.032 -0.056,-0.031 -0.056,-0.03 -0.057,-0.029 -0.057,-0.028 c 0,0 -0.058,-0.027 -0.058,-0.027 0,0 -0.058,-0.026 -0.058,-0.026 l -0.058,-0.025 -0.059,-0.024 -0.059,-0.023 -0.06,-0.022 -0.06,-0.021 c 0,0 -0.06,-0.02 -0.06,-0.02 0,0 -0.061,-0.019 -0.061,-0.019 l -0.061,-0.018 -0.061,-0.017 c 0,0 -0.062,-0.016 -0.062,-0.016 0,0 -0.062,-0.015 -0.062,-0.015 0,0 -0.062,-0.014 -0.062,-0.014 l -0.062,-0.013 -0.063,-0.011 -0.063,-0.01 -0.063,-0.009 -0.063,-0.008 c 0,0 -0.063,-0.007 -0.063,-0.007 l -0.063,-0.006 -0.064,-0.005 -0.064,-0.004 -0.064,-0.003 -0.064,-0.002 -0.064,-10e-4"
           id="path17549"
           style="stroke:#80ffe6;stroke-opacity:1" />
      </g>
      <g
         id="POLYLINE_114_"
         style="stroke:#80ffe6;stroke-opacity:1">
        <path
           fill="none"
           stroke="#00b9d2"
           stroke-width="2.75"
           stroke-linecap="round"
           stroke-linejoin="round"
           stroke-miterlimit="10"
           d="m 773.935,247.588 0.064,-0.001 0.064,-0.002 0.064,-0.003 0.064,-0.004 0.064,-0.005 0.063,-0.006 0.063,-0.007 0.063,-0.008 0.063,-0.009 0.063,-0.01 0.063,-0.011 0.062,-0.013 0.062,-0.014 c 0,0 0.062,-0.015 0.062,-0.015 0,0 0.062,-0.016 0.062,-0.016 l 0.061,-0.017 0.061,-0.018 c 0,0 0.061,-0.019 0.061,-0.019 l 0.06,-0.02 0.06,-0.021 0.06,-0.022 0.059,-0.023 0.059,-0.024 0.058,-0.025 0.058,-0.026 0.058,-0.027 0.057,-0.028 0.057,-0.029 0.056,-0.03 0.056,-0.031 0.055,-0.032 0.055,-0.033 0.054,-0.034 0.053,-0.035 0.053,-0.036 c 0,0 0.052,-0.037 0.052,-0.037 l 0.051,-0.038 0.051,-0.038 c 0,0 0.05,-0.039 0.05,-0.039 l 0.049,-0.04 0.049,-0.041 c 0,0 0.048,-0.042 0.048,-0.042 0,0 0.047,-0.043 0.047,-0.043 0.047,-0.043 0.092,-0.088 0.092,-0.088 0.045,-0.045 0.089,-0.091 0.089,-0.091 0.043,-0.047 0.086,-0.094 0.086,-0.094 l 0.042,-0.048 0.041,-0.049 c 0,0 0.04,-0.049 0.04,-0.049 0,0 0.039,-0.05 0.039,-0.05 l 0.038,-0.051 0.037,-0.051 0.037,-0.052 c 0,0 0.036,-0.053 0.036,-0.053 l 0.035,-0.053 0.034,-0.054 0.033,-0.055 0.032,-0.055 0.031,-0.056 c 0,0 0.03,-0.056 0.03,-0.056 l 0.029,-0.057 c 0,0 0.028,-0.057 0.028,-0.057 l 0.027,-0.058 c 0,0 0.026,-0.058 0.026,-0.058 l 0.025,-0.059 c 0,0 0.024,-0.059 0.024,-0.059 0,0 0.023,-0.059 0.023,-0.059 l 0.022,-0.06 0.021,-0.06 c 0,0 0.02,-0.06 0.02,-0.06 0,0 0.019,-0.061 0.019,-0.061 l 0.018,-0.061 0.017,-0.061 0.016,-0.062 0.015,-0.062 0.014,-0.062 0.013,-0.062 c 0,0 0.011,-0.063 0.011,-0.063 0,0 0.01,-0.063 0.01,-0.063 l 0.009,-0.063 0.008,-0.063 0.007,-0.063 c 0,0 0.006,-0.063 0.006,-0.063 l 0.005,-0.063 c 0,0 0.004,-0.064 0.004,-0.064 l 0.003,-0.064 0.002,-0.064 c 0,0 10e-4,-0.064 10e-4,-0.064 0,0 0,-37.322 0,-37.322 l -10e-4,-0.064 -0.002,-0.064 -0.003,-0.064 -0.004,-0.064 -0.005,-0.063 c 0,0 -0.006,-0.063 -0.006,-0.063 l -0.007,-0.063 -0.008,-0.063 -0.009,-0.063 -0.01,-0.063 -0.011,-0.063 -0.013,-0.062 -0.014,-0.062 c 0,0 -0.015,-0.062 -0.015,-0.062 l -0.016,-0.062 -0.017,-0.061 -0.018,-0.061 -0.019,-0.061 c 0,0 -0.02,-0.06 -0.02,-0.06 0,0 -0.021,-0.06 -0.021,-0.06 l -0.022,-0.06 -0.023,-0.059 c 0,0 -0.024,-0.059 -0.024,-0.059 l -0.025,-0.059 c 0,0 -0.026,-0.058 -0.026,-0.058 l -0.027,-0.058 -0.028,-0.057 -0.029,-0.057 -0.03,-0.056 c 0,0 -0.031,-0.056 -0.031,-0.056 l -0.032,-0.055 -0.033,-0.054 c 0,0 -0.034,-0.054 -0.034,-0.054 0,0 -0.035,-0.053 -0.035,-0.053 0,0 -0.036,-0.053 -0.036,-0.053 l -0.037,-0.052 c 0,0 -0.037,-0.051 -0.037,-0.051 l -0.038,-0.051 -0.039,-0.05 c 0,0 -0.04,-0.049 -0.04,-0.049 l -0.041,-0.049 -0.042,-0.048 c 0,0 -0.043,-0.047 -0.043,-0.047 -0.043,-0.047 -0.088,-0.092 -0.088,-0.092 -0.045,-0.045 -0.091,-0.089 -0.091,-0.089 -0.047,-0.043 -0.094,-0.086 -0.094,-0.086 0,0 -0.048,-0.042 -0.048,-0.042 l -0.049,-0.041 -0.049,-0.04 -0.05,-0.039 -0.051,-0.038 -0.051,-0.038 -0.052,-0.037 -0.053,-0.036 -0.053,-0.035 c 0,0 -0.054,-0.034 -0.054,-0.034 l -0.055,-0.033 -0.055,-0.032 c 0,0 -0.056,-0.031 -0.056,-0.031 l -0.056,-0.03 -0.057,-0.029 -0.057,-0.028 -0.058,-0.027 -0.058,-0.026 -0.058,-0.025 -0.059,-0.024 -0.059,-0.023 -0.06,-0.022 -0.06,-0.021 -0.06,-0.02 -0.061,-0.019 -0.061,-0.018 -0.061,-0.017 c 0,0 -0.062,-0.016 -0.062,-0.016 l -0.062,-0.015 c 0,0 -0.062,-0.014 -0.062,-0.014 l -0.062,-0.013 -0.063,-0.011 -0.063,-0.01 c 0,0 -0.063,-0.009 -0.063,-0.009 0,0 -0.063,-0.008 -0.063,-0.008 0,0 -0.063,-0.007 -0.063,-0.007 l -0.063,-0.006 -0.064,-0.005 -0.064,-0.004 -0.064,-0.003 -0.064,-0.002 c 0,0 -0.064,-0.001 -0.064,-0.001"
           id="path17552"
           style="stroke:#80ffe6;stroke-opacity:1" />
      </g>
      <g
         id="POLYLINE_115_"
         style="stroke:#80ffe6;stroke-opacity:1">
        <path
           fill="none"
           stroke="#00b9d2"
           stroke-width="2.75"
           stroke-linecap="round"
           stroke-linejoin="round"
           stroke-miterlimit="10"
           d="m 773.935,301.852 0.064,-10e-4 0.064,-0.002 0.064,-0.003 0.064,-0.004 0.064,-0.005 0.063,-0.006 0.063,-0.007 0.063,-0.008 c 0,0 0.063,-0.009 0.063,-0.009 l 0.063,-0.01 c 0,0 0.063,-0.011 0.063,-0.011 0,0 0.062,-0.013 0.062,-0.013 l 0.062,-0.014 c 0,0 0.062,-0.015 0.062,-0.015 0,0 0.062,-0.016 0.062,-0.016 l 0.061,-0.017 0.061,-0.018 0.061,-0.019 c 0,0 0.06,-0.02 0.06,-0.02 l 0.06,-0.021 0.06,-0.022 0.059,-0.023 0.059,-0.024 0.058,-0.025 0.058,-0.026 0.058,-0.027 0.057,-0.028 0.057,-0.029 c 0,0 0.056,-0.03 0.056,-0.03 0,0 0.056,-0.031 0.056,-0.031 l 0.055,-0.032 c 0,0 0.055,-0.033 0.055,-0.033 l 0.054,-0.034 0.053,-0.035 0.053,-0.036 0.052,-0.037 0.051,-0.038 0.051,-0.038 0.05,-0.039 c 0,0 0.049,-0.04 0.049,-0.04 0,0 0.049,-0.041 0.049,-0.041 l 0.048,-0.042 c 0,0 0.047,-0.043 0.047,-0.043 0.047,-0.043 0.092,-0.088 0.092,-0.088 0.045,-0.045 0.089,-0.091 0.089,-0.091 0.043,-0.047 0.086,-0.094 0.086,-0.094 l 0.042,-0.048 0.041,-0.049 c 0,0 0.04,-0.049 0.04,-0.049 l 0.039,-0.05 0.038,-0.051 0.037,-0.051 c 0,0 0.037,-0.052 0.037,-0.052 l 0.036,-0.053 c 0,0 0.035,-0.053 0.035,-0.053 0,0 0.034,-0.054 0.034,-0.054 l 0.033,-0.055 0.032,-0.055 0.031,-0.056 c 0,0 0.03,-0.056 0.03,-0.056 l 0.029,-0.057 0.028,-0.057 c 0,0 0.027,-0.058 0.027,-0.058 l 0.026,-0.058 0.025,-0.059 0.024,-0.059 c 0,0 0.023,-0.059 0.023,-0.059 l 0.022,-0.06 0.021,-0.06 0.02,-0.06 0.019,-0.061 0.018,-0.061 0.017,-0.061 0.016,-0.062 0.015,-0.062 c 0,0 0.014,-0.062 0.014,-0.062 l 0.013,-0.062 0.011,-0.063 0.01,-0.063 c 0,0 0.009,-0.063 0.009,-0.063 l 0.008,-0.063 0.007,-0.063 0.006,-0.063 0.005,-0.063 0.004,-0.064 0.003,-0.064 c 0,0 0.002,-0.064 0.002,-0.064 0,0 10e-4,-0.064 10e-4,-0.064 v -37.322 c 0,0 -10e-4,-0.064 -10e-4,-0.064 0,0 -0.002,-0.064 -0.002,-0.064 l -0.003,-0.064 c 0,0 -0.004,-0.064 -0.004,-0.064 l -0.005,-0.063 -0.006,-0.063 -0.007,-0.063 -0.008,-0.063 -0.009,-0.063 -0.01,-0.063 -0.011,-0.063 c 0,0 -0.013,-0.062 -0.013,-0.062 l -0.014,-0.062 -0.015,-0.062 c 0,0 -0.016,-0.062 -0.016,-0.062 l -0.017,-0.061 -0.018,-0.061 -0.019,-0.061 -0.02,-0.06 -0.021,-0.06 -0.022,-0.06 -0.023,-0.059 c 0,0 -0.024,-0.059 -0.024,-0.059 l -0.025,-0.059 -0.026,-0.058 -0.027,-0.058 c 0,0 -0.028,-0.057 -0.028,-0.057 0,0 -0.029,-0.057 -0.029,-0.057 l -0.03,-0.056 -0.031,-0.056 c 0,0 -0.032,-0.055 -0.032,-0.055 0,0 -0.033,-0.054 -0.033,-0.054 l -0.034,-0.054 -0.035,-0.053 c 0,0 -0.036,-0.053 -0.036,-0.053 l -0.037,-0.052 -0.037,-0.051 c 0,0 -0.038,-0.051 -0.038,-0.051 l -0.039,-0.05 -0.04,-0.049 -0.041,-0.049 -0.042,-0.048 -0.043,-0.047 c -0.043,-0.047 -0.088,-0.092 -0.088,-0.092 -0.045,-0.045 -0.091,-0.089 -0.091,-0.089 -0.047,-0.043 -0.094,-0.086 -0.094,-0.086 l -0.048,-0.042 -0.049,-0.041 -0.049,-0.04 c 0,0 -0.05,-0.039 -0.05,-0.039 l -0.051,-0.038 -0.051,-0.038 c 0,0 -0.052,-0.037 -0.052,-0.037 l -0.053,-0.036 -0.053,-0.035 -0.054,-0.034 -0.055,-0.033 -0.055,-0.032 -0.056,-0.031 -0.056,-0.03 -0.057,-0.029 -0.057,-0.028 -0.058,-0.027 c 0,0 -0.058,-0.026 -0.058,-0.026 l -0.058,-0.025 -0.059,-0.024 c 0,0 -0.059,-0.023 -0.059,-0.023 0,0 -0.06,-0.022 -0.06,-0.022 l -0.06,-0.021 -0.06,-0.02 c 0,0 -0.061,-0.019 -0.061,-0.019 l -0.061,-0.018 -0.061,-0.017 c 0,0 -0.062,-0.016 -0.062,-0.016 l -0.062,-0.015 c 0,0 -0.062,-0.014 -0.062,-0.014 0,0 -0.062,-0.013 -0.062,-0.013 l -0.063,-0.011 -0.063,-0.01 -0.063,-0.009 -0.063,-0.008 c 0,0 -0.063,-0.007 -0.063,-0.007 l -0.063,-0.006 c 0,0 -0.064,-0.005 -0.064,-0.005 l -0.064,-0.004 c 0,0 -0.064,-0.003 -0.064,-0.003 l -0.064,-0.002 -0.064,-10e-4"
           id="path17555"
           style="stroke:#80ffe6;stroke-opacity:1" />
      </g>
      <g
         id="POLYLINE_601_"
         style="stroke:#80ffe6;stroke-opacity:1">
        <path
           fill="none"
           stroke="#00b9d2"
           stroke-width="3.25"
           stroke-linecap="round"
           stroke-linejoin="round"
           stroke-miterlimit="10"
           d="m 486.534,202.887 v -81.532 l 0.003,-0.464 0.008,-0.466 0.013,-0.468 c 0,0 0.018,-0.47 0.018,-0.47 0,0 0.024,-0.472 0.024,-0.472 0,0 0.029,-0.474 0.029,-0.474 l 0.035,-0.475 c 0,0 0.04,-0.477 0.04,-0.477 l 0.046,-0.479 c 0,0 0.052,-0.48 0.052,-0.48 l 0.057,-0.481 c 0,0 0.063,-0.482 0.063,-0.482 0,0 0.069,-0.484 0.069,-0.484 l 0.075,-0.485 0.081,-0.486 0.087,-0.486 0.093,-0.487 0.099,-0.488 0.105,-0.488 c 0,0 0.112,-0.489 0.112,-0.489 l 0.118,-0.489 c 0,0 0.124,-0.489 0.124,-0.489 l 0.13,-0.489 0.137,-0.489 c 0,0 0.143,-0.489 0.143,-0.489 0,0 0.15,-0.489 0.15,-0.489 l 0.156,-0.488 c 0,0 0.162,-0.488 0.162,-0.488 0,0 0.169,-0.487 0.169,-0.487 l 0.175,-0.486 0.182,-0.485 0.188,-0.484 c 0,0 0.195,-0.483 0.195,-0.483 l 0.201,-0.482 0.208,-0.481 0.214,-0.479 0.221,-0.478 0.227,-0.476 0.234,-0.474 c 0,0 0.24,-0.472 0.24,-0.472 l 0.247,-0.47 0.253,-0.467 0.259,-0.465 0.266,-0.462 c 0,0 0.272,-0.46 0.272,-0.46 l 0.278,-0.457 0.285,-0.454 0.291,-0.451 0.297,-0.448 0.303,-0.445 0.309,-0.441 0.315,-0.438 0.321,-0.434 c 0,0 0.327,-0.43 0.327,-0.43 0,0 0.333,-0.426 0.333,-0.426 l 0.338,-0.422 0.344,-0.418 0.35,-0.414 0.355,-0.41 0.361,-0.405 0.366,-0.401 0.371,-0.396 0.376,-0.391 0.381,-0.386 0.386,-0.381 0.391,-0.376 0.396,-0.371 0.401,-0.366 0.405,-0.36 c 0,0 0.41,-0.355 0.41,-0.355 l 0.414,-0.35 0.418,-0.344 0.422,-0.338 0.426,-0.333 c 0,0 0.43,-0.327 0.43,-0.327 0,0 0.434,-0.321 0.434,-0.321 l 0.438,-0.315 0.441,-0.309 0.445,-0.303 0.448,-0.297 0.451,-0.291 c 0,0 0.454,-0.285 0.454,-0.285 l 0.457,-0.278 c 0,0 0.46,-0.272 0.46,-0.272 l 0.462,-0.266 c 0,0 0.465,-0.259 0.465,-0.259 l 0.467,-0.253 0.47,-0.247 0.472,-0.24 0.474,-0.234 0.476,-0.227 0.478,-0.221 0.479,-0.214 0.481,-0.208 0.482,-0.201 0.483,-0.195 c 0,0 0.484,-0.188 0.484,-0.188 L 514,81.999 c 0,0 0.486,-0.175 0.486,-0.175 l 0.487,-0.169 c 0,0 0.488,-0.162 0.488,-0.162 l 0.488,-0.156 0.489,-0.15 0.489,-0.143 c 0,0 0.489,-0.137 0.489,-0.137 0,0 0.489,-0.13 0.489,-0.13 l 0.489,-0.124 0.489,-0.118 0.489,-0.112 0.488,-0.105 0.488,-0.099 0.487,-0.093 c 0,0 0.486,-0.087 0.486,-0.087 l 0.486,-0.081 c 0,0 0.485,-0.075 0.485,-0.075 0,0 0.484,-0.069 0.484,-0.069 l 0.482,-0.063 c 0,0 0.481,-0.057 0.481,-0.057 l 0.48,-0.052 0.479,-0.046 0.477,-0.04 c 0,0 0.476,-0.035 0.476,-0.035 0,0 0.474,-0.029 0.474,-0.029 0,0 0.472,-0.024 0.472,-0.024 l 0.47,-0.018 0.468,-0.013 0.466,-0.008 0.464,-0.003 h 203.538 l 0.464,0.003 0.466,0.008 0.468,0.013 0.47,0.018 0.472,0.024 0.474,0.029 c 0,0 0.475,0.035 0.475,0.035 l 0.477,0.04 0.479,0.046 0.48,0.052 0.481,0.057 0.482,0.063 0.484,0.069 0.485,0.075 c 0,0 0.486,0.081 0.486,0.081 l 0.486,0.087 c 0,0 0.487,0.093 0.487,0.093 l 0.488,0.099 0.488,0.105 0.489,0.112 0.489,0.118 0.489,0.124 0.489,0.13 c 0,0 0.489,0.137 0.489,0.137 l 0.489,0.143 0.489,0.15 c 0,0 0.488,0.156 0.488,0.156 l 0.488,0.162 c 0,0 0.487,0.169 0.487,0.169 l 0.486,0.175 c 0,0 0.485,0.182 0.485,0.182 l 0.484,0.188 c 0,0 0.483,0.195 0.483,0.195 0,0 0.482,0.201 0.482,0.201 l 0.481,0.208 0.479,0.214 0.478,0.221 0.476,0.227 0.474,0.234 0.472,0.24 0.47,0.247 0.467,0.253 0.465,0.259 c 0,0 0.462,0.266 0.462,0.266 l 0.46,0.272 c 0,0 0.457,0.278 0.457,0.278 l 0.454,0.285 c 0,0 0.451,0.291 0.451,0.291 l 0.448,0.297 c 0,0 0.445,0.303 0.445,0.303 l 0.441,0.309 0.438,0.315 0.434,0.321 c 0,0 0.43,0.327 0.43,0.327 0,0 0.426,0.333 0.426,0.333 l 0.422,0.338 0.418,0.344 0.414,0.35 0.41,0.355 0.405,0.36 0.401,0.366 c 0,0 0.396,0.371 0.396,0.371 l 0.391,0.376 0.386,0.381 0.381,0.386 c 0,0 0.376,0.391 0.376,0.391 l 0.371,0.396 0.366,0.401 0.36,0.405 0.355,0.41 0.35,0.414 0.344,0.418 0.338,0.422 0.333,0.426 c 0,0 0.327,0.43 0.327,0.43 l 0.321,0.434 c 0,0 0.315,0.438 0.315,0.438 l 0.309,0.441 0.303,0.445 0.297,0.448 0.291,0.451 0.285,0.454 0.278,0.457 0.272,0.46 c 0,0 0.266,0.462 0.266,0.462 l 0.259,0.465 c 0,0 0.253,0.467 0.253,0.467 l 0.247,0.47 0.24,0.472 c 0,0 0.234,0.474 0.234,0.474 0,0 0.227,0.476 0.227,0.476 l 0.221,0.478 0.214,0.479 0.208,0.481 0.201,0.482 0.195,0.483 c 0,0 0.188,0.484 0.188,0.484 0,0 0.182,0.485 0.182,0.485 l 0.175,0.486 0.169,0.487 c 0,0 0.162,0.488 0.162,0.488 0,0 0.156,0.488 0.156,0.488 l 0.15,0.489 0.143,0.489 0.137,0.489 0.13,0.489 c 0,0 0.124,0.489 0.124,0.489 l 0.118,0.489 0.112,0.489 c 0,0 0.105,0.488 0.105,0.488 l 0.099,0.488 0.093,0.487 0.087,0.486 0.081,0.486 0.075,0.485 0.069,0.484 0.063,0.482 0.057,0.481 0.052,0.48 c 0,0 0.046,0.479 0.046,0.479 l 0.04,0.477 c 0,0 0.035,0.475 0.035,0.475 l 0.029,0.474 0.024,0.472 c 0,0 0.018,0.47 0.018,0.47 l 0.013,0.468 0.008,0.466 0.003,0.464 c 0,0 0,3.705 0,3.705 v 29.631 c 0.041,0 0.082,0.001 0.082,0.001 0.041,0.001 0.083,0.003 0.083,0.003 0.042,0.002 0.083,0.005 0.083,0.005 0.042,0.003 0.084,0.007 0.084,0.007 0.042,0.004 0.084,0.009 0.084,0.009 0.042,0.005 0.085,0.011 0.085,0.011 0.043,0.006 0.085,0.013 0.085,0.013 0.043,0.007 0.086,0.015 0.086,0.015 0.043,0.008 0.086,0.017 0.086,0.017 0.043,0.009 0.086,0.019 0.086,0.019 0.043,0.01 0.086,0.021 0.086,0.021 0.043,0.011 0.086,0.024 0.086,0.024 0.043,0.013 0.086,0.026 0.086,0.026 0.043,0.014 0.086,0.028 0.086,0.028 0.043,0.015 0.086,0.03 0.086,0.03 0.043,0.016 0.085,0.033 0.085,0.033 0.043,0.017 0.085,0.035 0.085,0.035 0.042,0.018 0.084,0.037 0.084,0.037 0.042,0.019 0.084,0.039 0.084,0.039 0.042,0.021 0.083,0.042 0.083,0.042 0.041,0.022 0.082,0.044 0.082,0.044 0.041,0.023 0.082,0.046 0.082,0.046 0.04,0.024 0.081,0.048 0.081,0.048 0.04,0.025 0.08,0.051 0.08,0.051 0.039,0.026 0.078,0.053 0.078,0.053 0.039,0.027 0.077,0.055 0.077,0.055 0.038,0.028 0.076,0.057 0.076,0.057 0.038,0.029 0.075,0.059 0.075,0.059 0.037,0.03 0.073,0.061 0.073,0.061 0.036,0.031 0.072,0.063 0.072,0.063 0.035,0.032 0.07,0.065 0.07,0.065 0.034,0.033 0.068,0.067 0.068,0.067 0.034,0.034 0.067,0.068 0.067,0.068 0.033,0.035 0.065,0.07 0.065,0.07 0.032,0.036 0.063,0.072 0.063,0.072 0.031,0.036 0.061,0.073 0.061,0.073 0.03,0.037 0.059,0.075 0.059,0.075 0.029,0.038 0.057,0.076 0.057,0.076 0.028,0.038 0.055,0.077 0.055,0.077 0.027,0.039 0.053,0.079 0.053,0.079 0.026,0.04 0.051,0.08 0.051,0.08 0.024,0.04 0.048,0.081 0.048,0.081 0.023,0.041 0.046,0.082 0.046,0.082 0.022,0.041 0.044,0.082 0.044,0.082 0.021,0.042 0.042,0.083 0.042,0.083 0.02,0.042 0.039,0.084 0.039,0.084 0.019,0.042 0.037,0.084 0.037,0.084 0.018,0.042 0.035,0.085 0.035,0.085 0.017,0.043 0.033,0.085 0.033,0.085 0.015,0.043 0.03,0.086 0.03,0.086 0.014,0.043 0.028,0.086 0.028,0.086 0.013,0.043 0.026,0.086 0.026,0.086 0.012,0.043 0.023,0.086 0.023,0.086 0.011,0.043 0.021,0.086 0.021,0.086 0.01,0.043 0.019,0.086 0.019,0.086 0.009,0.043 0.017,0.086 0.017,0.086 0.008,0.043 0.015,0.086 0.015,0.086 0.007,0.043 0.013,0.085 0.013,0.085 0.006,0.042 0.011,0.085 0.011,0.085 0.005,0.042 0.009,0.084 0.009,0.084 0.004,0.042 0.007,0.084 0.007,0.084 0.003,0.042 0.005,0.083 0.005,0.083 0.002,0.041 0.003,0.083 0.003,0.083 10e-4,0.041 10e-4,0.082 10e-4,0.082 v 16.598 c 0,0.041 -10e-4,0.082 -10e-4,0.082 -0.001,0.041 -0.003,0.083 -0.003,0.083 -0.002,0.042 -0.005,0.083 -0.005,0.083 -0.003,0.042 -0.007,0.084 -0.007,0.084 -0.004,0.042 -0.009,0.084 -0.009,0.084 -0.005,0.042 -0.011,0.085 -0.011,0.085 -0.006,0.043 -0.013,0.085 -0.013,0.085 -0.007,0.043 -0.015,0.086 -0.015,0.086 -0.008,0.043 -0.017,0.086 -0.017,0.086 -0.009,0.043 -0.019,0.086 -0.019,0.086 -0.01,0.043 -0.021,0.086 -0.021,0.086 -0.011,0.043 -0.023,0.086 -0.023,0.086 -0.013,0.043 -0.026,0.086 -0.026,0.086 -0.014,0.043 -0.028,0.086 -0.028,0.086 -0.015,0.043 -0.03,0.086 -0.03,0.086 -0.016,0.043 -0.033,0.085 -0.033,0.085 -0.017,0.043 -0.035,0.085 -0.035,0.085 -0.018,0.042 -0.037,0.084 -0.037,0.084 -0.019,0.042 -0.039,0.084 -0.039,0.084 -0.021,0.042 -0.042,0.083 -0.042,0.083 -0.022,0.041 -0.044,0.082 -0.044,0.082 -0.023,0.041 -0.046,0.082 -0.046,0.082 -0.024,0.04 -0.048,0.081 -0.048,0.081 -0.025,0.04 -0.051,0.08 -0.051,0.08 -0.026,0.039 -0.053,0.079 -0.053,0.079 -0.027,0.039 -0.055,0.077 -0.055,0.077 -0.028,0.038 -0.057,0.076 -0.057,0.076 -0.029,0.038 -0.059,0.075 -0.059,0.075 -0.03,0.037 -0.061,0.073 -0.061,0.073 -0.031,0.036 -0.063,0.072 -0.063,0.072 -0.032,0.035 -0.065,0.07 -0.065,0.07 -0.033,0.034 -0.067,0.068 -0.067,0.068 -0.034,0.034 -0.068,0.067 -0.068,0.067 -0.035,0.033 -0.07,0.065 -0.07,0.065 -0.036,0.032 -0.072,0.063 -0.072,0.063 -0.036,0.031 -0.073,0.061 -0.073,0.061 -0.037,0.03 -0.075,0.059 -0.075,0.059 -0.038,0.029 -0.076,0.057 -0.076,0.057 -0.039,0.028 -0.077,0.055 -0.077,0.055 -0.039,0.027 -0.078,0.053 -0.078,0.053 -0.04,0.026 -0.08,0.051 -0.08,0.051 -0.04,0.024 -0.081,0.048 -0.081,0.048 -0.041,0.023 -0.082,0.046 -0.082,0.046 -0.041,0.022 -0.082,0.044 -0.082,0.044 -0.042,0.021 -0.083,0.042 -0.083,0.042 -0.042,0.02 -0.084,0.039 -0.084,0.039 -0.042,0.019 -0.084,0.037 -0.084,0.037 -0.042,0.018 -0.085,0.035 -0.085,0.035 -0.043,0.017 -0.085,0.033 -0.085,0.033 -0.043,0.015 -0.086,0.03 -0.086,0.03 -0.043,0.014 -0.086,0.028 -0.086,0.028 -0.043,0.013 -0.086,0.026 -0.086,0.026 -0.043,0.012 -0.086,0.024 -0.086,0.024 -0.043,0.011 -0.086,0.021 -0.086,0.021 -0.043,0.01 -0.086,0.019 -0.086,0.019 -0.043,0.009 -0.086,0.017 -0.086,0.017 -0.043,0.008 -0.086,0.015 -0.086,0.015 -0.043,0.007 -0.085,0.013 -0.085,0.013 -0.042,0.006 -0.085,0.011 -0.085,0.011 -0.042,0.005 -0.084,0.009 -0.084,0.009 -0.042,0.004 -0.084,0.007 -0.084,0.007 -0.042,0.003 -0.083,0.005 -0.083,0.005 -0.041,0.002 -0.083,0.003 -0.083,0.003 -0.041,0.001 -0.082,0.001 -0.082,0.001 0,0 0,24.219 0,24.219 0.041,0 0.082,0.001 0.082,0.001 0.041,0.001 0.083,0.003 0.083,0.003 0.042,0.002 0.083,0.005 0.083,0.005 0.042,0.003 0.084,0.007 0.084,0.007 0.042,0.004 0.084,0.009 0.084,0.009 0.042,0.005 0.085,0.011 0.085,0.011 0.043,0.006 0.085,0.013 0.085,0.013 0.043,0.007 0.086,0.015 0.086,0.015 0.043,0.008 0.086,0.017 0.086,0.017 0.043,0.009 0.086,0.019 0.086,0.019 0.043,0.01 0.086,0.021 0.086,0.021 0.043,0.011 0.086,0.024 0.086,0.024 0.043,0.013 0.086,0.026 0.086,0.026 0.043,0.014 0.086,0.028 0.086,0.028 0.043,0.015 0.086,0.03 0.086,0.03 0.043,0.016 0.085,0.033 0.085,0.033 0.043,0.017 0.085,0.035 0.085,0.035 0.042,0.018 0.084,0.037 0.084,0.037 0.042,0.019 0.084,0.039 0.084,0.039 0.042,0.021 0.083,0.042 0.083,0.042 0.041,0.022 0.082,0.044 0.082,0.044 0.041,0.023 0.082,0.046 0.082,0.046 0.04,0.024 0.081,0.048 0.081,0.048 0.04,0.025 0.08,0.051 0.08,0.051 0.039,0.026 0.078,0.053 0.078,0.053 0.039,0.027 0.077,0.055 0.077,0.055 0.038,0.028 0.076,0.057 0.076,0.057 0.038,0.029 0.075,0.059 0.075,0.059 0.037,0.03 0.073,0.061 0.073,0.061 0.036,0.031 0.072,0.063 0.072,0.063 0.035,0.032 0.07,0.065 0.07,0.065 0.034,0.033 0.068,0.067 0.068,0.067 0.034,0.034 0.067,0.068 0.067,0.068 0.033,0.035 0.065,0.07 0.065,0.07 0.032,0.036 0.063,0.072 0.063,0.072 0.031,0.036 0.061,0.073 0.061,0.073 0.03,0.037 0.059,0.075 0.059,0.075 0.029,0.038 0.057,0.076 0.057,0.076 0.028,0.038 0.055,0.077 0.055,0.077 0.027,0.039 0.053,0.079 0.053,0.079 0.026,0.04 0.051,0.08 0.051,0.08 0.024,0.04 0.048,0.081 0.048,0.081 0.023,0.041 0.046,0.082 0.046,0.082 0.022,0.041 0.044,0.082 0.044,0.082 0.021,0.042 0.042,0.083 0.042,0.083 0.02,0.042 0.039,0.084 0.039,0.084 0.019,0.042 0.037,0.084 0.037,0.084 0.018,0.042 0.035,0.085 0.035,0.085 0.017,0.043 0.033,0.085 0.033,0.085 0.015,0.043 0.03,0.086 0.03,0.086 0.014,0.043 0.028,0.086 0.028,0.086 0.013,0.043 0.026,0.086 0.026,0.086 0.012,0.043 0.023,0.086 0.023,0.086 0.011,0.043 0.021,0.086 0.021,0.086 0.01,0.043 0.019,0.086 0.019,0.086 0.009,0.043 0.017,0.086 0.017,0.086 0.008,0.043 0.015,0.086 0.015,0.086 0.007,0.043 0.013,0.085 0.013,0.085 0.006,0.042 0.011,0.085 0.011,0.085 0.005,0.042 0.009,0.084 0.009,0.084 0.004,0.042 0.007,0.084 0.007,0.084 0.003,0.042 0.005,0.083 0.005,0.083 0.002,0.041 0.003,0.083 0.003,0.083 10e-4,0.041 10e-4,0.082 10e-4,0.082 v 37.322 c 0,0.041 -10e-4,0.082 -10e-4,0.082 -0.001,0.041 -0.003,0.083 -0.003,0.083 -0.002,0.042 -0.005,0.083 -0.005,0.083 -0.003,0.042 -0.007,0.084 -0.007,0.084 -0.004,0.042 -0.009,0.084 -0.009,0.084 -0.005,0.042 -0.011,0.085 -0.011,0.085 -0.006,0.043 -0.013,0.085 -0.013,0.085 -0.007,0.043 -0.015,0.086 -0.015,0.086 -0.008,0.043 -0.017,0.086 -0.017,0.086 -0.009,0.043 -0.019,0.086 -0.019,0.086 -0.01,0.043 -0.021,0.086 -0.021,0.086 -0.011,0.043 -0.023,0.086 -0.023,0.086 -0.013,0.043 -0.026,0.086 -0.026,0.086 -0.014,0.043 -0.028,0.086 -0.028,0.086 -0.015,0.043 -0.03,0.086 -0.03,0.086 -0.016,0.043 -0.033,0.085 -0.033,0.085 -0.017,0.043 -0.035,0.085 -0.035,0.085 -0.018,0.042 -0.037,0.084 -0.037,0.084 -0.019,0.042 -0.039,0.084 -0.039,0.084 -0.021,0.042 -0.042,0.083 -0.042,0.083 -0.022,0.041 -0.044,0.082 -0.044,0.082 -0.023,0.041 -0.046,0.082 -0.046,0.082 -0.024,0.04 -0.048,0.081 -0.048,0.081 -0.025,0.04 -0.051,0.08 -0.051,0.08 -0.026,0.039 -0.053,0.079 -0.053,0.079 -0.027,0.039 -0.055,0.077 -0.055,0.077 -0.028,0.038 -0.057,0.076 -0.057,0.076 -0.029,0.038 -0.059,0.075 -0.059,0.075 -0.03,0.037 -0.061,0.073 -0.061,0.073 -0.031,0.036 -0.063,0.072 -0.063,0.072 -0.032,0.035 -0.065,0.07 -0.065,0.07 -0.033,0.034 -0.067,0.068 -0.067,0.068 -0.034,0.034 -0.068,0.067 -0.068,0.067 -0.035,0.033 -0.07,0.065 -0.07,0.065 -0.036,0.032 -0.072,0.063 -0.072,0.063 -0.036,0.031 -0.073,0.061 -0.073,0.061 -0.037,0.03 -0.075,0.059 -0.075,0.059 -0.038,0.029 -0.076,0.057 -0.076,0.057 -0.039,0.028 -0.077,0.055 -0.077,0.055 -0.039,0.027 -0.078,0.053 -0.078,0.053 -0.04,0.026 -0.08,0.051 -0.08,0.051 -0.04,0.024 -0.081,0.048 -0.081,0.048 -0.041,0.023 -0.082,0.046 -0.082,0.046 -0.041,0.022 -0.082,0.044 -0.082,0.044 -0.042,0.021 -0.083,0.042 -0.083,0.042 -0.042,0.02 -0.084,0.039 -0.084,0.039 -0.042,0.019 -0.084,0.037 -0.084,0.037 -0.042,0.018 -0.085,0.035 -0.085,0.035 -0.043,0.017 -0.085,0.033 -0.085,0.033 -0.043,0.015 -0.086,0.03 -0.086,0.03 -0.043,0.014 -0.086,0.028 -0.086,0.028 -0.043,0.013 -0.086,0.026 -0.086,0.026 -0.043,0.012 -0.086,0.024 -0.086,0.024 -0.043,0.011 -0.086,0.021 -0.086,0.021 -0.043,0.01 -0.086,0.019 -0.086,0.019 -0.043,0.009 -0.086,0.017 -0.086,0.017 -0.043,0.008 -0.086,0.015 -0.086,0.015 -0.043,0.007 -0.085,0.013 -0.085,0.013 -0.042,0.006 -0.085,0.011 -0.085,0.011 -0.042,0.005 -0.084,0.009 -0.084,0.009 -0.042,0.004 -0.084,0.007 -0.084,0.007 -0.042,0.003 -0.083,0.005 -0.083,0.005 -0.041,0.002 -0.083,0.003 -0.083,0.003 -0.041,0.001 -0.082,0.001 -0.082,0.001 v 9.564 c 0.041,0 0.082,10e-4 0.082,10e-4 0.041,0.001 0.083,0.003 0.083,0.003 0.042,0.002 0.083,0.005 0.083,0.005 0.042,0.003 0.084,0.007 0.084,0.007 0.042,0.004 0.084,0.009 0.084,0.009 0.042,0.005 0.085,0.011 0.085,0.011 0.043,0.006 0.085,0.013 0.085,0.013 0.043,0.007 0.086,0.015 0.086,0.015 0.043,0.008 0.086,0.017 0.086,0.017 0.043,0.009 0.086,0.019 0.086,0.019 0.043,0.01 0.086,0.021 0.086,0.021 0.043,0.011 0.086,0.023 0.086,0.023 0.043,0.013 0.086,0.026 0.086,0.026 0.043,0.014 0.086,0.028 0.086,0.028 0.043,0.015 0.086,0.03 0.086,0.03 0.043,0.016 0.085,0.033 0.085,0.033 0.043,0.017 0.085,0.035 0.085,0.035 0.042,0.018 0.084,0.037 0.084,0.037 0.042,0.019 0.084,0.039 0.084,0.039 0.042,0.021 0.083,0.042 0.083,0.042 0.041,0.022 0.082,0.044 0.082,0.044 0.041,0.023 0.082,0.046 0.082,0.046 0.04,0.024 0.081,0.048 0.081,0.048 0.04,0.025 0.08,0.051 0.08,0.051 0.039,0.026 0.078,0.053 0.078,0.053 0.039,0.027 0.077,0.055 0.077,0.055 0.038,0.028 0.076,0.057 0.076,0.057 0.038,0.029 0.075,0.059 0.075,0.059 0.037,0.03 0.073,0.061 0.073,0.061 0.036,0.031 0.072,0.063 0.072,0.063 0.035,0.032 0.07,0.065 0.07,0.065 0.034,0.033 0.068,0.067 0.068,0.067 0.034,0.034 0.067,0.068 0.067,0.068 0.033,0.035 0.065,0.07 0.065,0.07 0.032,0.036 0.063,0.072 0.063,0.072 0.031,0.036 0.061,0.073 0.061,0.073 0.03,0.037 0.059,0.075 0.059,0.075 0.029,0.038 0.057,0.076 0.057,0.076 0.028,0.039 0.055,0.077 0.055,0.077 0.027,0.039 0.053,0.079 0.053,0.079 0.026,0.04 0.051,0.08 0.051,0.08 0.024,0.04 0.048,0.081 0.048,0.081 0.023,0.041 0.046,0.082 0.046,0.082 0.022,0.041 0.044,0.082 0.044,0.082 0.021,0.042 0.042,0.083 0.042,0.083 0.02,0.042 0.039,0.084 0.039,0.084 0.019,0.042 0.037,0.084 0.037,0.084 0.018,0.042 0.035,0.085 0.035,0.085 0.017,0.043 0.033,0.085 0.033,0.085 0.015,0.043 0.03,0.086 0.03,0.086 0.014,0.043 0.028,0.086 0.028,0.086 0.013,0.043 0.026,0.086 0.026,0.086 0.012,0.043 0.023,0.086 0.023,0.086 0.011,0.043 0.021,0.086 0.021,0.086 0.01,0.043 0.019,0.086 0.019,0.086 0.009,0.043 0.017,0.086 0.017,0.086 0.008,0.043 0.015,0.086 0.015,0.086 0.007,0.043 0.013,0.085 0.013,0.085 0.006,0.042 0.011,0.085 0.011,0.085 0.005,0.042 0.009,0.084 0.009,0.084 0.004,0.042 0.007,0.084 0.007,0.084 0.003,0.042 0.005,0.083 0.005,0.083 0.002,0.041 0.003,0.083 0.003,0.083 10e-4,0.041 10e-4,0.082 10e-4,0.082 v 37.322 c 0,0.041 -10e-4,0.082 -10e-4,0.082 -0.001,0.041 -0.003,0.083 -0.003,0.083 -0.002,0.042 -0.005,0.083 -0.005,0.083 -0.003,0.042 -0.007,0.084 -0.007,0.084 -0.004,0.042 -0.009,0.084 -0.009,0.084 -0.005,0.042 -0.011,0.085 -0.011,0.085 -0.006,0.043 -0.013,0.085 -0.013,0.085 -0.007,0.043 -0.015,0.086 -0.015,0.086 -0.008,0.043 -0.017,0.086 -0.017,0.086 -0.009,0.043 -0.019,0.086 -0.019,0.086 -0.01,0.043 -0.021,0.086 -0.021,0.086 -0.011,0.043 -0.023,0.086 -0.023,0.086 -0.013,0.043 -0.026,0.086 -0.026,0.086 -0.014,0.043 -0.028,0.086 -0.028,0.086 -0.015,0.043 -0.03,0.086 -0.03,0.086 -0.016,0.043 -0.033,0.085 -0.033,0.085 -0.017,0.043 -0.035,0.085 -0.035,0.085 -0.018,0.042 -0.037,0.084 -0.037,0.084 -0.019,0.042 -0.039,0.084 -0.039,0.084 -0.021,0.042 -0.042,0.083 -0.042,0.083 -0.022,0.041 -0.044,0.082 -0.044,0.082 -0.023,0.041 -0.046,0.082 -0.046,0.082 -0.024,0.04 -0.048,0.081 -0.048,0.081 -0.025,0.04 -0.051,0.08 -0.051,0.08 -0.026,0.039 -0.053,0.079 -0.053,0.079 -0.027,0.039 -0.055,0.077 -0.055,0.077 -0.028,0.038 -0.057,0.076 -0.057,0.076 -0.029,0.038 -0.059,0.075 -0.059,0.075 -0.03,0.037 -0.061,0.073 -0.061,0.073 -0.031,0.036 -0.063,0.072 -0.063,0.072 -0.032,0.035 -0.065,0.07 -0.065,0.07 -0.033,0.034 -0.067,0.068 -0.067,0.068 -0.034,0.034 -0.068,0.067 -0.068,0.067 -0.035,0.033 -0.07,0.065 -0.07,0.065 -0.036,0.032 -0.072,0.063 -0.072,0.063 -0.036,0.031 -0.073,0.061 -0.073,0.061 -0.037,0.03 -0.075,0.059 -0.075,0.059 -0.038,0.029 -0.076,0.057 -0.076,0.057 -0.039,0.028 -0.077,0.055 -0.077,0.055 -0.039,0.027 -0.078,0.053 -0.078,0.053 -0.04,0.026 -0.08,0.051 -0.08,0.051 -0.04,0.024 -0.081,0.048 -0.081,0.048 -0.041,0.023 -0.082,0.046 -0.082,0.046 -0.041,0.022 -0.082,0.044 -0.082,0.044 -0.042,0.021 -0.083,0.042 -0.083,0.042 -0.042,0.02 -0.084,0.039 -0.084,0.039 -0.042,0.019 -0.084,0.037 -0.084,0.037 -0.042,0.018 -0.085,0.035 -0.085,0.035 -0.043,0.017 -0.085,0.033 -0.085,0.033 -0.043,0.015 -0.086,0.03 -0.086,0.03 -0.043,0.014 -0.086,0.028 -0.086,0.028 -0.043,0.013 -0.086,0.026 -0.086,0.026 -0.043,0.012 -0.086,0.024 -0.086,0.024 -0.043,0.011 -0.086,0.021 -0.086,0.021 -0.043,0.01 -0.086,0.019 -0.086,0.019 -0.043,0.009 -0.086,0.017 -0.086,0.017 -0.043,0.008 -0.086,0.015 -0.086,0.015 -0.043,0.007 -0.085,0.013 -0.085,0.013 -0.042,0.006 -0.085,0.011 -0.085,0.011 -0.042,0.005 -0.084,0.009 -0.084,0.009 -0.042,0.004 -0.084,0.007 -0.084,0.007 -0.042,0.003 -0.083,0.005 -0.083,0.005 -0.041,0.002 -0.083,0.003 -0.083,0.003 -0.041,0.001 -0.082,0.001 -0.082,0.001 v 319.296 c 0,0 -0.003,0.464 -0.003,0.464 l -0.008,0.466 -0.013,0.468 -0.018,0.47 -0.024,0.472 c 0,0 -0.029,0.474 -0.029,0.474 l -0.035,0.475 c 0,0 -0.04,0.477 -0.04,0.477 l -0.046,0.479 -0.052,0.48 -0.057,0.481 -0.063,0.482 c 0,0 -0.069,0.484 -0.069,0.484 l -0.075,0.485 -0.081,0.486 -0.087,0.486 -0.093,0.487 c 0,0 -0.099,0.488 -0.099,0.488 l -0.105,0.488 c 0,0 -0.112,0.489 -0.112,0.489 l -0.118,0.489 -0.124,0.489 -0.13,0.489 -0.137,0.489 -0.143,0.489 c 0,0 -0.15,0.489 -0.15,0.489 l -0.156,0.488 -0.162,0.488 -0.169,0.487 -0.175,0.486 -0.182,0.485 c 0,0 -0.188,0.484 -0.188,0.484 l -0.195,0.483 -0.201,0.482 -0.208,0.481 -0.214,0.479 -0.221,0.478 c 0,0 -0.227,0.476 -0.227,0.476 l -0.234,0.474 -0.24,0.472 -0.247,0.47 -0.253,0.467 -0.259,0.465 -0.266,0.462 c 0,0 -0.272,0.46 -0.272,0.46 l -0.278,0.457 -0.285,0.454 -0.291,0.451 -0.297,0.448 -0.303,0.445 -0.309,0.441 -0.315,0.438 -0.321,0.434 -0.327,0.43 -0.333,0.426 -0.338,0.422 -0.344,0.418 c 0,0 -0.35,0.414 -0.35,0.414 l -0.355,0.41 -0.36,0.405 -0.366,0.401 -0.371,0.396 -0.376,0.391 -0.381,0.386 c 0,0 -0.386,0.381 -0.386,0.381 l -0.391,0.376 c 0,0 -0.396,0.371 -0.396,0.371 0,0 -0.401,0.366 -0.401,0.366 l -0.405,0.361 -0.41,0.355 c 0,0 -0.414,0.35 -0.414,0.35 0,0 -0.418,0.344 -0.418,0.344 0,0 -0.422,0.338 -0.422,0.338 0,0 -0.426,0.333 -0.426,0.333 l -0.43,0.327 c 0,0 -0.434,0.321 -0.434,0.321 l -0.438,0.315 -0.441,0.309 c 0,0 -0.445,0.303 -0.445,0.303 l -0.448,0.297 -0.451,0.291 -0.454,0.285 c 0,0 -0.457,0.278 -0.457,0.278 l -0.46,0.272 -0.462,0.266 c 0,0 -0.465,0.259 -0.465,0.259 0,0 -0.467,0.253 -0.467,0.253 l -0.47,0.247 c 0,0 -0.472,0.24 -0.472,0.24 0,0 -0.474,0.234 -0.474,0.234 l -0.476,0.227 -0.478,0.221 c 0,0 -0.479,0.214 -0.479,0.214 l -0.481,0.208 c 0,0 -0.482,0.201 -0.482,0.201 l -0.483,0.195 c 0,0 -0.484,0.188 -0.484,0.188 0,0 -0.485,0.182 -0.485,0.182 0,0 -0.486,0.175 -0.486,0.175 0,0 -0.487,0.169 -0.487,0.169 l -0.488,0.162 c 0,0 -0.488,0.156 -0.488,0.156 l -0.489,0.15 -0.489,0.143 -0.489,0.137 c 0,0 -0.489,0.13 -0.489,0.13 l -0.489,0.124 c 0,0 -0.489,0.118 -0.489,0.118 l -0.489,0.112 c 0,0 -0.488,0.105 -0.488,0.105 l -0.488,0.099 -0.487,0.093 -0.486,0.087 -0.486,0.081 -0.485,0.075 -0.484,0.069 c 0,0 -0.482,0.063 -0.482,0.063 l -0.481,0.057 -0.48,0.052 c 0,0 -0.479,0.046 -0.479,0.046 0,0 -0.477,0.04 -0.477,0.04 l -0.475,0.035 -0.474,0.029 -0.472,0.024 -0.47,0.018 -0.468,0.013 -0.466,0.008 c 0,0 -0.464,0.003 -0.464,0.003 H 528.466 l -0.464,-0.003 c 0,0 -0.466,-0.008 -0.466,-0.008 0,0 -0.468,-0.013 -0.468,-0.013 0,0 -0.47,-0.018 -0.47,-0.018 l -0.472,-0.024 -0.474,-0.029 -0.476,-0.035 -0.477,-0.04 -0.479,-0.046 c 0,0 -0.48,-0.052 -0.48,-0.052 0,0 -0.481,-0.057 -0.481,-0.057 l -0.482,-0.063 c 0,0 -0.484,-0.069 -0.484,-0.069 l -0.485,-0.075 -0.486,-0.081 -0.486,-0.087 -0.487,-0.093 -0.488,-0.099 -0.488,-0.105 c 0,0 -0.489,-0.112 -0.489,-0.112 l -0.489,-0.118 c 0,0 -0.489,-0.124 -0.489,-0.124 l -0.489,-0.13 c 0,0 -0.489,-0.137 -0.489,-0.137 0,0 -0.489,-0.143 -0.489,-0.143 l -0.489,-0.15 -0.488,-0.156 -0.488,-0.162 -0.487,-0.169 c 0,0 -0.486,-0.175 -0.486,-0.175 l -0.485,-0.182 c 0,0 -0.484,-0.188 -0.484,-0.188 0,0 -0.483,-0.195 -0.483,-0.195 l -0.482,-0.201 -0.481,-0.208 c 0,0 -0.479,-0.214 -0.479,-0.214 l -0.478,-0.221 c 0,0 -0.476,-0.227 -0.476,-0.227 l -0.474,-0.234 c 0,0 -0.472,-0.24 -0.472,-0.24 0,0 -0.47,-0.247 -0.47,-0.247 l -0.467,-0.253 c 0,0 -0.465,-0.259 -0.465,-0.259 0,0 -0.462,-0.266 -0.462,-0.266 0,0 -0.46,-0.272 -0.46,-0.272 0,0 -0.457,-0.278 -0.457,-0.278 0,0 -0.454,-0.285 -0.454,-0.285 l -0.451,-0.291 -0.448,-0.297 -0.445,-0.303 c 0,0 -0.441,-0.309 -0.441,-0.309 l -0.438,-0.315 -0.434,-0.321 c 0,0 -0.43,-0.327 -0.43,-0.327 0,0 -0.426,-0.333 -0.426,-0.333 0,0 -0.422,-0.338 -0.422,-0.338 0,0 -0.418,-0.344 -0.418,-0.344 0,0 -0.414,-0.35 -0.414,-0.35 0,0 -0.41,-0.355 -0.41,-0.355 0,0 -0.405,-0.361 -0.405,-0.361 0,0 -0.401,-0.366 -0.401,-0.366 0,0 -0.396,-0.371 -0.396,-0.371 0,0 -0.391,-0.376 -0.391,-0.376 l -0.386,-0.381 c 0,0 -0.381,-0.386 -0.381,-0.386 l -0.376,-0.391 -0.371,-0.396 -0.366,-0.401 -0.361,-0.405 -0.355,-0.41 c 0,0 -0.35,-0.414 -0.35,-0.414 l -0.344,-0.418 -0.338,-0.422 -0.333,-0.426 -0.327,-0.43 -0.321,-0.434 -0.315,-0.438 -0.309,-0.441 -0.303,-0.445 -0.297,-0.448 -0.291,-0.451 -0.285,-0.454 -0.278,-0.457 -0.272,-0.46 -0.266,-0.462 -0.259,-0.465 -0.253,-0.467 -0.247,-0.47 -0.24,-0.472 c 0,0 -0.234,-0.474 -0.234,-0.474 l -0.227,-0.476 -0.221,-0.478 -0.214,-0.479 -0.208,-0.481 -0.201,-0.482 -0.195,-0.483 c 0,0 -0.188,-0.484 -0.188,-0.484 0,0 -0.182,-0.485 -0.182,-0.485 0,0 -0.175,-0.486 -0.175,-0.486 0,0 -0.169,-0.487 -0.169,-0.487 0,0 -0.162,-0.488 -0.162,-0.488 l -0.156,-0.488 -0.15,-0.489 c 0,0 -0.143,-0.489 -0.143,-0.489 l -0.137,-0.489 -0.13,-0.489 c 0,0 -0.124,-0.489 -0.124,-0.489 0,0 -0.118,-0.489 -0.118,-0.489 l -0.112,-0.489 c 0,0 -0.105,-0.488 -0.105,-0.488 l -0.099,-0.488 -0.093,-0.487 -0.087,-0.486 c 0,0 -0.081,-0.486 -0.081,-0.486 l -0.075,-0.485 c 0,0 -0.069,-0.484 -0.069,-0.484 0,0 -0.063,-0.482 -0.063,-0.482 l -0.057,-0.481 c 0,0 -0.052,-0.48 -0.052,-0.48 l -0.046,-0.479 -0.04,-0.477 c 0,0 -0.035,-0.475 -0.035,-0.475 l -0.029,-0.474 c 0,0 -0.024,-0.472 -0.024,-0.472 l -0.018,-0.47 -0.013,-0.468 -0.008,-0.466 c 0,0 -0.003,-0.464 -0.003,-0.464 0,0 0,-3.705 0,-3.705 0,0 0,-369.855 0,-369.855 -0.041,0 -0.082,-0.001 -0.082,-0.001 -0.041,-0.001 -0.083,-0.003 -0.083,-0.003 -0.042,-0.002 -0.083,-0.005 -0.083,-0.005 -0.042,-0.003 -0.084,-0.007 -0.084,-0.007 -0.042,-0.004 -0.084,-0.009 -0.084,-0.009 -0.042,-0.005 -0.085,-0.011 -0.085,-0.011 -0.043,-0.006 -0.085,-0.013 -0.085,-0.013 -0.043,-0.007 -0.086,-0.015 -0.086,-0.015 -0.043,-0.008 -0.086,-0.017 -0.086,-0.017 -0.043,-0.009 -0.086,-0.019 -0.086,-0.019 -0.043,-0.01 -0.086,-0.021 -0.086,-0.021 -0.043,-0.011 -0.086,-0.024 -0.086,-0.024 -0.043,-0.013 -0.086,-0.026 -0.086,-0.026 -0.043,-0.014 -0.086,-0.028 -0.086,-0.028 -0.043,-0.015 -0.086,-0.03 -0.086,-0.03 -0.043,-0.016 -0.085,-0.033 -0.085,-0.033 -0.043,-0.017 -0.085,-0.035 -0.085,-0.035 -0.042,-0.018 -0.084,-0.037 -0.084,-0.037 -0.042,-0.019 -0.084,-0.039 -0.084,-0.039 -0.042,-0.021 -0.083,-0.042 -0.083,-0.042 -0.041,-0.022 -0.082,-0.044 -0.082,-0.044 -0.041,-0.023 -0.082,-0.046 -0.082,-0.046 -0.04,-0.024 -0.081,-0.048 -0.081,-0.048 -0.04,-0.025 -0.08,-0.051 -0.08,-0.051 -0.039,-0.026 -0.079,-0.053 -0.079,-0.053 -0.039,-0.027 -0.077,-0.055 -0.077,-0.055 -0.038,-0.028 -0.076,-0.057 -0.076,-0.057 -0.038,-0.029 -0.075,-0.059 -0.075,-0.059 -0.037,-0.03 -0.073,-0.061 -0.073,-0.061 -0.036,-0.031 -0.072,-0.063 -0.072,-0.063 -0.035,-0.032 -0.07,-0.065 -0.07,-0.065 -0.034,-0.033 -0.068,-0.067 -0.068,-0.067 -0.034,-0.034 -0.067,-0.068 -0.067,-0.068 -0.033,-0.035 -0.065,-0.07 -0.065,-0.07 -0.032,-0.036 -0.063,-0.072 -0.063,-0.072 -0.031,-0.036 -0.061,-0.073 -0.061,-0.073 -0.03,-0.037 -0.059,-0.075 -0.059,-0.075 -0.029,-0.038 -0.057,-0.076 -0.057,-0.076 -0.028,-0.039 -0.055,-0.077 -0.055,-0.077 -0.027,-0.039 -0.053,-0.079 -0.053,-0.079 -0.026,-0.04 -0.051,-0.08 -0.051,-0.08 -0.025,-0.04 -0.048,-0.081 -0.048,-0.081 -0.023,-0.041 -0.046,-0.082 -0.046,-0.082 -0.022,-0.041 -0.044,-0.082 -0.044,-0.082 -0.021,-0.042 -0.042,-0.083 -0.042,-0.083 -0.02,-0.042 -0.039,-0.084 -0.039,-0.084 -0.019,-0.042 -0.037,-0.084 -0.037,-0.084 -0.018,-0.042 -0.035,-0.085 -0.035,-0.085 -0.017,-0.043 -0.033,-0.085 -0.033,-0.085 -0.015,-0.043 -0.03,-0.086 -0.03,-0.086 -0.014,-0.043 -0.028,-0.086 -0.028,-0.086 -0.013,-0.043 -0.026,-0.086 -0.026,-0.086 -0.012,-0.043 -0.023,-0.086 -0.023,-0.086 -0.011,-0.043 -0.021,-0.086 -0.021,-0.086 -0.01,-0.043 -0.019,-0.086 -0.019,-0.086 -0.009,-0.043 -0.017,-0.086 -0.017,-0.086 -0.008,-0.043 -0.015,-0.086 -0.015,-0.086 -0.007,-0.043 -0.013,-0.085 -0.013,-0.085 -0.006,-0.042 -0.011,-0.085 -0.011,-0.085 -0.005,-0.042 -0.009,-0.084 -0.009,-0.084 -0.004,-0.042 -0.007,-0.084 -0.007,-0.084 -0.003,-0.042 -0.005,-0.083 -0.005,-0.083 -0.002,-0.041 -0.003,-0.083 -0.003,-0.083 -0.001,-0.041 -0.001,-0.082 -0.001,-0.082 0,0 0,-37.322 0,-37.322 0,-0.041 0.001,-0.082 0.001,-0.082 10e-4,-0.041 0.003,-0.083 0.003,-0.083 0.002,-0.042 0.005,-0.083 0.005,-0.083 0.003,-0.042 0.007,-0.084 0.007,-0.084 0.004,-0.042 0.009,-0.084 0.009,-0.084 0.005,-0.042 0.011,-0.085 0.011,-0.085 0.006,-0.043 0.013,-0.085 0.013,-0.085 0.007,-0.043 0.015,-0.086 0.015,-0.086 0.008,-0.043 0.017,-0.086 0.017,-0.086 0.009,-0.043 0.019,-0.086 0.019,-0.086 0.01,-0.043 0.021,-0.086 0.021,-0.086 0.011,-0.043 0.023,-0.086 0.023,-0.086 0.013,-0.043 0.026,-0.086 0.026,-0.086 0.014,-0.043 0.028,-0.086 0.028,-0.086 0.015,-0.043 0.03,-0.086 0.03,-0.086 0.016,-0.043 0.033,-0.085 0.033,-0.085 0.017,-0.043 0.035,-0.085 0.035,-0.085 0.018,-0.042 0.037,-0.084 0.037,-0.084 0.019,-0.042 0.039,-0.084 0.039,-0.084 0.021,-0.042 0.042,-0.083 0.042,-0.083 0.022,-0.041 0.044,-0.082 0.044,-0.082 0.023,-0.041 0.046,-0.082 0.046,-0.082 0.024,-0.04 0.048,-0.081 0.048,-0.081 0.025,-0.04 0.051,-0.08 0.051,-0.08 0.026,-0.039 0.053,-0.079 0.053,-0.079 0.027,-0.039 0.055,-0.077 0.055,-0.077 0.028,-0.038 0.057,-0.076 0.057,-0.076 0.029,-0.038 0.059,-0.075 0.059,-0.075 0.03,-0.037 0.061,-0.073 0.061,-0.073 0.031,-0.036 0.063,-0.072 0.063,-0.072 0.032,-0.035 0.065,-0.07 0.065,-0.07 0.033,-0.034 0.067,-0.068 0.067,-0.068 0.034,-0.034 0.068,-0.067 0.068,-0.067 0.035,-0.033 0.07,-0.065 0.07,-0.065 0.036,-0.032 0.072,-0.063 0.072,-0.063 0.036,-0.031 0.073,-0.061 0.073,-0.061 0.037,-0.03 0.075,-0.059 0.075,-0.059 0.038,-0.029 0.076,-0.057 0.076,-0.057 0.039,-0.028 0.077,-0.055 0.077,-0.055 0.039,-0.027 0.079,-0.053 0.079,-0.053 0.04,-0.026 0.08,-0.051 0.08,-0.051 0.04,-0.024 0.081,-0.048 0.081,-0.048 0.041,-0.023 0.082,-0.046 0.082,-0.046 0.041,-0.022 0.082,-0.044 0.082,-0.044 0.042,-0.021 0.083,-0.042 0.083,-0.042 0.042,-0.02 0.084,-0.039 0.084,-0.039 0.042,-0.019 0.084,-0.037 0.084,-0.037 0.042,-0.018 0.085,-0.035 0.085,-0.035 0.043,-0.017 0.085,-0.033 0.085,-0.033 0.043,-0.015 0.086,-0.03 0.086,-0.03 0.043,-0.014 0.086,-0.028 0.086,-0.028 0.043,-0.013 0.086,-0.026 0.086,-0.026 0.043,-0.012 0.086,-0.024 0.086,-0.024 0.043,-0.011 0.086,-0.021 0.086,-0.021 0.043,-0.01 0.086,-0.019 0.086,-0.019 0.043,-0.009 0.086,-0.017 0.086,-0.017 0.043,-0.008 0.086,-0.015 0.086,-0.015 0.043,-0.007 0.085,-0.013 0.085,-0.013 0.042,-0.006 0.085,-0.011 0.085,-0.011 0.042,-0.005 0.084,-0.009 0.084,-0.009 0.042,-0.004 0.084,-0.007 0.084,-0.007 0.042,-0.003 0.083,-0.005 0.083,-0.005 0.041,-0.002 0.083,-0.003 0.083,-0.003 0.04,-0.019 0.081,-0.019 0.081,-0.019 z"
           id="path17607"
           style="stroke:#80ffe6;stroke-opacity:1" />
      </g>
    </g>
  </g>
</svg>
