<?xml version="1.0" encoding="UTF-8" standalone="no"?>
<svg
   xmlns:dc="http://purl.org/dc/elements/1.1/"
   xmlns:cc="http://creativecommons.org/ns#"
   xmlns:rdf="http://www.w3.org/1999/02/22-rdf-syntax-ns#"
   xmlns:svg="http://www.w3.org/2000/svg"
   xmlns="http://www.w3.org/2000/svg"
   xmlns:sodipodi="http://sodipodi.sourceforge.net/DTD/sodipodi-0.dtd"
   xmlns:inkscape="http://www.inkscape.org/namespaces/inkscape"
   width="14.443197mm"
   height="28.74715mm"
   viewBox="0 0 14.443198 28.747152"
   version="1.1"
   id="svg4830"
   inkscape:version="1.0.2 (e86c8708, 2021-01-15)"
   sodipodi:docname="ip7.svg">
  <defs
     id="defs4824" />
  <sodipodi:namedview
     id="base"
     pagecolor="#ffffff"
     bordercolor="#666666"
     borderopacity="1.0"
     inkscape:pageopacity="0.0"
     inkscape:pageshadow="2"
     inkscape:zoom="2.8696784"
     inkscape:cx="8.3191765"
     inkscape:cy="101.42068"
     inkscape:document-units="mm"
     inkscape:current-layer="layer1"
     inkscape:document-rotation="0"
     showgrid="false"
     inkscape:window-width="1440"
     inkscape:window-height="872"
     inkscape:window-x="0"
     inkscape:window-y="28"
     inkscape:window-maximized="0" />
  <metadata
     id="metadata4827">
    <rdf:RDF>
      <cc:Work
         rdf:about="">
        <dc:format>image/svg+xml</dc:format>
        <dc:type
           rdf:resource="http://purl.org/dc/dcmitype/StillImage" />
        <dc:title></dc:title>
      </cc:Work>
    </rdf:RDF>
  </metadata>
  <g
     inkscape:label="Layer 1"
     inkscape:groupmode="layer"
     id="layer1"
     transform="translate(-77.585325,-149.69358)">
    <g
       id="g17141"
       transform="matrix(0.80200899,0,0,0.80187723,-20.18372,-26.779118)"
       style="stroke-width:1.04419">
      <path
         fill="none"
         stroke="#00b9d2"
         stroke-width="0.127532"
         stroke-linecap="round"
         stroke-linejoin="round"
         stroke-miterlimit="10"
         d="m 139.68501,223.22169 h -0.45635 c -0.003,0 -0.005,-1.2e-4 -0.005,-1.2e-4 -0.003,-1.2e-4 -0.005,-3e-4 -0.005,-3e-4 -0.003,-1.9e-4 -0.005,-4.9e-4 -0.005,-4.9e-4 -0.003,-3.1e-4 -0.005,-6.7e-4 -0.005,-6.7e-4 -0.003,-3.7e-4 -0.005,-8.6e-4 -0.005,-8.6e-4 -0.003,-4.9e-4 -0.005,-10e-4 -0.005,-10e-4 -0.003,-5.5e-4 -0.005,-0.001 -0.005,-0.001 -0.003,-6.7e-4 -0.005,-0.001 -0.005,-0.001 -0.003,-7.4e-4 -0.005,-0.002 -0.005,-0.002 -0.003,-8.5e-4 -0.005,-0.002 -0.005,-0.002 -0.003,-9.2e-4 -0.005,-0.002 -0.005,-0.002 -0.003,-0.001 -0.005,-0.002 -0.005,-0.002 -0.002,-0.001 -0.005,-0.002 -0.005,-0.002 -0.002,-0.001 -0.005,-0.002 -0.005,-0.002 -0.002,-0.001 -0.005,-0.003 -0.005,-0.003 -0.002,-10e-4 -0.005,-0.003 -0.005,-0.003 -0.002,-0.001 -0.005,-0.003 -0.005,-0.003 -0.002,-0.002 -0.004,-0.003 -0.004,-0.003 -0.002,-0.002 -0.004,-0.003 -0.004,-0.003 -0.002,-0.002 -0.004,-0.003 -0.004,-0.003 -0.002,-0.002 -0.004,-0.003 -0.004,-0.003 -0.002,-0.002 -0.004,-0.004 -0.004,-0.004 -0.002,-0.002 -0.004,-0.004 -0.004,-0.004 -0.002,-0.002 -0.004,-0.004 -0.004,-0.004 -0.002,-0.002 -0.004,-0.004 -0.004,-0.004 -0.002,-0.002 -0.003,-0.004 -0.003,-0.004 -0.002,-0.002 -0.003,-0.004 -0.003,-0.004 -0.002,-0.002 -0.003,-0.004 -0.003,-0.004 -0.002,-0.002 -0.003,-0.004 -0.003,-0.004 -0.001,-0.002 -0.003,-0.005 -0.003,-0.005 -0.001,-0.002 -0.003,-0.005 -0.003,-0.005 -0.001,-0.002 -0.003,-0.005 -0.003,-0.005 -0.001,-0.002 -0.002,-0.005 -0.002,-0.005 -0.001,-0.002 -0.002,-0.005 -0.002,-0.005 -0.001,-0.003 -0.002,-0.005 -0.002,-0.005 -9.1e-4,-0.003 -0.002,-0.005 -0.002,-0.005 -8.6e-4,-0.003 -0.002,-0.005 -0.002,-0.005 -7.3e-4,-0.003 -0.001,-0.005 -0.001,-0.005 -6.7e-4,-0.003 -10e-4,-0.005 -10e-4,-0.005 -5.5e-4,-0.003 -0.001,-0.005 -0.001,-0.005 -4.9e-4,-0.003 -9.1e-4,-0.005 -9.1e-4,-0.005 -3.7e-4,-0.003 -7.4e-4,-0.005 -7.4e-4,-0.005 -3e-4,-0.003 -5.5e-4,-0.005 -5.5e-4,-0.005 -1.8e-4,-0.003 -3.6e-4,-0.005 -3.6e-4,-0.005 -1.2e-4,-0.003 -1.8e-4,-0.005 -1.8e-4,-0.005 0,-0.003 0,-0.63785 0,-0.63785 0,0 -1.3e-4,-0.0182 -1.3e-4,-0.0182 l -3e-4,-0.0183 -4.9e-4,-0.0183 c 0,0 -7.3e-4,-0.0184 -7.3e-4,-0.0184 l -9.2e-4,-0.0185 -0.001,-0.0186 -0.001,-0.0186 -0.002,-0.0187 -0.002,-0.0187 -0.002,-0.0188 c 0,0 -0.002,-0.0188 -0.002,-0.0188 l -0.002,-0.0189 -0.003,-0.0189 c 0,0 -0.003,-0.019 -0.003,-0.019 0,0 -0.003,-0.019 -0.003,-0.019 0,0 -0.003,-0.0191 -0.003,-0.0191 0,0 -0.004,-0.019 -0.004,-0.019 l -0.004,-0.0191 -0.004,-0.0191 -0.004,-0.0191 -0.005,-0.0191 c 0,0 -0.005,-0.0191 -0.005,-0.0191 l -0.005,-0.0192 -0.005,-0.0191 c 0,0 -0.006,-0.0191 -0.006,-0.0191 0,0 -0.006,-0.0191 -0.006,-0.0191 l -0.006,-0.0191 -0.006,-0.0191 -0.007,-0.019 -0.007,-0.019 -0.007,-0.019 -0.007,-0.019 -0.008,-0.0189 -0.008,-0.0189 -0.008,-0.0188 c 0,0 -0.008,-0.0187 -0.008,-0.0187 0,0 -0.009,-0.0187 -0.009,-0.0187 0,0 -0.009,-0.0186 -0.009,-0.0186 l -0.009,-0.0186 c 0,0 -0.009,-0.0184 -0.009,-0.0184 l -0.01,-0.0184 -0.01,-0.0183 -0.0101,-0.0182 c 0,0 -0.0104,-0.0181 -0.0104,-0.0181 l -0.0106,-0.018 -0.0109,-0.0179 -0.0111,-0.0178 -0.0114,-0.0177 -0.0116,-0.0175 -0.0118,-0.0174 -0.0121,-0.0173 -0.0123,-0.0171 -0.0126,-0.017 c 0,0 -0.0128,-0.0169 -0.0128,-0.0169 l -0.013,-0.0167 -0.0132,-0.0165 -0.0134,-0.0164 c 0,0 -0.0137,-0.0162 -0.0137,-0.0162 l -0.0139,-0.0161 -0.0141,-0.0159 -0.0143,-0.0157 -0.0145,-0.0155 -0.0147,-0.0153 -0.0149,-0.0152 -0.0151,-0.0149 -0.0153,-0.0147 -0.0155,-0.0145 -0.0157,-0.0143 -0.0159,-0.0141 c 0,0 -0.0161,-0.0139 -0.0161,-0.0139 0,0 -0.0162,-0.0137 -0.0162,-0.0137 l -0.0164,-0.0134 c 0,0 -0.0165,-0.0132 -0.0165,-0.0132 l -0.0167,-0.013 c 0,0 -0.0169,-0.0128 -0.0169,-0.0128 0,0 -0.017,-0.0126 -0.017,-0.0126 l -0.0171,-0.0123 -0.0173,-0.0121 -0.0174,-0.0119 -0.0175,-0.0116 -0.0177,-0.0114 c 0,0 -0.0178,-0.0111 -0.0178,-0.0111 0,0 -0.0179,-0.0109 -0.0179,-0.0109 l -0.018,-0.0106 -0.0181,-0.0104 -0.0182,-0.0101 -0.0183,-0.01 -0.0184,-0.01 -0.0184,-0.009 c 0,0 -0.0186,-0.009 -0.0186,-0.009 l -0.0186,-0.009 c 0,0 -0.0187,-0.009 -0.0187,-0.009 l -0.0187,-0.008 c 0,0 -0.0188,-0.008 -0.0188,-0.008 l -0.0189,-0.008 -0.0189,-0.008 c 0,0 -0.0189,-0.007 -0.0189,-0.007 0,0 -0.019,-0.007 -0.019,-0.007 0,0 -0.0188,-0.007 -0.0188,-0.007 l -0.0191,-0.007 -0.0191,-0.006 -0.0191,-0.006 c 0,0 -0.0191,-0.006 -0.0191,-0.006 l -0.0191,-0.006 -0.0191,-0.005 c 0,0 -0.0192,-0.005 -0.0192,-0.005 0,0 -0.0191,-0.005 -0.0191,-0.005 l -0.0191,-0.005 -0.0191,-0.004 c 0,0 -0.0191,-0.004 -0.0191,-0.004 0,0 -0.0191,-0.004 -0.0191,-0.004 l -0.019,-0.004 c 0,0 -0.0191,-0.003 -0.0191,-0.003 l -0.019,-0.003 c 0,0 -0.019,-0.003 -0.019,-0.003 l -0.0189,-0.003 -0.0189,-0.002 -0.0188,-0.002 -0.0188,-0.002 -0.0187,-0.002 c 0,0 -0.0187,-0.002 -0.0187,-0.002 l -0.0186,-0.001 c 0,0 -0.0186,-0.001 -0.0186,-0.001 l -0.0185,-9.2e-4 -0.0184,-7.3e-4 -0.0183,-4.9e-4 -0.0183,-3e-4 -0.0182,-1.3e-4 H 124.3897 c 0,0 -0.0182,1.3e-4 -0.0182,1.3e-4 l -0.0183,3e-4 -0.0183,4.9e-4 -0.0184,7.3e-4 c 0,0 -0.0185,9.2e-4 -0.0185,9.2e-4 0,0 -0.0186,0.001 -0.0186,0.001 0,0 -0.0186,0.001 -0.0186,0.001 l -0.0187,0.002 -0.0187,0.002 -0.0188,0.002 c 0,0 -0.0188,0.002 -0.0188,0.002 l -0.0189,0.002 c 0,0 -0.0189,0.003 -0.0189,0.003 l -0.019,0.003 -0.019,0.003 -0.0191,0.003 -0.019,0.004 c 0,0 -0.0191,0.004 -0.0191,0.004 0,0 -0.0191,0.004 -0.0191,0.004 l -0.0191,0.004 -0.0191,0.005 -0.0191,0.005 -0.0191,0.005 -0.0191,0.005 -0.0191,0.006 -0.0191,0.006 c 0,0 -0.0191,0.006 -0.0191,0.006 l -0.0191,0.006 -0.0191,0.007 -0.019,0.007 -0.019,0.007 -0.0189,0.007 -0.0189,0.008 c 0,0 -0.0189,0.008 -0.0189,0.008 l -0.0188,0.008 -0.0187,0.008 -0.0187,0.009 c 0,0 -0.0186,0.009 -0.0186,0.009 l -0.0186,0.009 c 0,0 -0.0184,0.009 -0.0184,0.009 0,0 -0.0184,0.01 -0.0184,0.01 l -0.0183,0.01 -0.0182,0.0101 -0.0181,0.0104 -0.018,0.0106 c 0,0 -0.0179,0.0109 -0.0179,0.0109 0,0 -0.0178,0.0111 -0.0178,0.0111 l -0.0177,0.0114 c 0,0 -0.0175,0.0116 -0.0175,0.0116 l -0.0174,0.0118 -0.0173,0.0121 -0.0171,0.0123 -0.017,0.0126 -0.0169,0.0128 -0.0167,0.013 -0.0166,0.0132 c 0,0 -0.0164,0.0134 -0.0164,0.0134 l -0.0162,0.0137 -0.0161,0.0139 c 0,0 -0.0159,0.0141 -0.0159,0.0141 l -0.0157,0.0143 -0.0155,0.0145 -0.0153,0.0147 -0.0152,0.0149 -0.0149,0.0151 -0.0147,0.0153 -0.0145,0.0155 -0.0143,0.0157 -0.0141,0.0159 -0.0139,0.0161 -0.0137,0.0162 c 0,0 -0.0134,0.0164 -0.0134,0.0164 0,0 -0.0132,0.0165 -0.0132,0.0165 l -0.013,0.0167 -0.0128,0.0169 c 0,0 -0.0126,0.017 -0.0126,0.017 l -0.0123,0.0171 -0.0121,0.0173 -0.0118,0.0174 -0.0116,0.0175 c 0,0 -0.0114,0.0177 -0.0114,0.0177 l -0.0111,0.0178 -0.0109,0.0179 -0.0106,0.018 c 0,0 -0.0104,0.0181 -0.0104,0.0181 0,0 -0.0101,0.0182 -0.0101,0.0182 l -0.01,0.0183 -0.01,0.0184 c 0,0 -0.009,0.0184 -0.009,0.0184 0,0 -0.009,0.0186 -0.009,0.0186 0,0 -0.009,0.0186 -0.009,0.0186 l -0.009,0.0187 c 0,0 -0.008,0.0187 -0.008,0.0187 l -0.008,0.0188 c 0,0 -0.008,0.0189 -0.008,0.0189 l -0.008,0.0189 -0.007,0.019 -0.007,0.019 -0.007,0.019 c 0,0 -0.007,0.0191 -0.007,0.0191 0,0 -0.006,0.0191 -0.006,0.0191 l -0.006,0.0191 -0.006,0.0191 c 0,0 -0.006,0.0191 -0.006,0.0191 l -0.005,0.0191 -0.005,0.0192 -0.005,0.0191 -0.005,0.0191 c 0,0 -0.004,0.0191 -0.004,0.0191 l -0.004,0.0191 -0.004,0.0191 -0.004,0.0191 c 0,0 -0.003,0.019 -0.003,0.019 0,0 -0.003,0.019 -0.003,0.019 l -0.003,0.019 -0.003,0.0189 -0.002,0.0189 -0.002,0.0188 -0.002,0.0188 -0.002,0.0188 -0.002,0.0187 c 0,0 -0.001,0.0186 -0.001,0.0186 l -0.001,0.0186 -9.1e-4,0.0185 c 0,0 -7.4e-4,0.0184 -7.4e-4,0.0184 0,0 -4.8e-4,0.0183 -4.8e-4,0.0183 l -3.1e-4,0.0183 -1.2e-4,0.0182 c 0,0 0,0.63517 0,0.63517 0,0.003 -6e-5,0.005 -6e-5,0.005 -1.2e-4,0.003 -3.1e-4,0.005 -3.1e-4,0.005 -1.8e-4,0.003 -4.9e-4,0.005 -4.9e-4,0.005 -3e-4,0.003 -6.7e-4,0.005 -6.7e-4,0.005 -3.6e-4,0.003 -8.5e-4,0.005 -8.5e-4,0.005 -4.9e-4,0.003 -0.001,0.005 -0.001,0.005 -5.5e-4,0.003 -0.001,0.005 -0.001,0.005 -6.7e-4,0.003 -10e-4,0.005 -10e-4,0.005 -7.3e-4,0.003 -0.002,0.005 -0.002,0.005 -8.6e-4,0.003 -0.002,0.005 -0.002,0.005 -9.2e-4,0.002 -0.002,0.005 -0.002,0.005 -0.001,0.003 -0.002,0.005 -0.002,0.005 -10e-4,0.002 -0.002,0.005 -0.002,0.005 -0.001,0.002 -0.002,0.005 -0.002,0.005 -0.001,0.002 -0.003,0.005 -0.003,0.005 -0.001,0.002 -0.003,0.005 -0.003,0.005 -0.001,0.002 -0.003,0.005 -0.003,0.005 -0.002,0.002 -0.003,0.004 -0.003,0.004 -0.002,0.002 -0.003,0.004 -0.003,0.004 -0.002,0.002 -0.003,0.004 -0.003,0.004 -0.002,0.002 -0.003,0.004 -0.003,0.004 -0.002,0.002 -0.004,0.004 -0.004,0.004 -0.002,0.002 -0.004,0.004 -0.004,0.004 -0.002,0.002 -0.004,0.004 -0.004,0.004 -0.002,0.002 -0.004,0.004 -0.004,0.004 -0.002,0.002 -0.004,0.003 -0.004,0.003 -0.002,0.002 -0.004,0.003 -0.004,0.003 -0.002,0.002 -0.004,0.003 -0.004,0.003 -0.002,0.002 -0.004,0.003 -0.004,0.003 -0.002,10e-4 -0.005,0.003 -0.005,0.003 -0.002,0.001 -0.005,0.003 -0.005,0.003 -0.002,10e-4 -0.005,0.003 -0.005,0.003 -0.002,0.001 -0.005,0.002 -0.005,0.002 -0.002,0.001 -0.005,0.002 -0.005,0.002 -0.002,0.001 -0.005,0.002 -0.005,0.002 -0.002,9.2e-4 -0.005,0.002 -0.005,0.002 -0.003,8.6e-4 -0.005,0.002 -0.005,0.002 -0.003,7.3e-4 -0.005,0.001 -0.005,0.001 -0.003,6.7e-4 -0.005,0.001 -0.005,0.001 -0.003,5.5e-4 -0.005,0.001 -0.005,0.001 -0.003,4.9e-4 -0.005,9.2e-4 -0.005,9.2e-4 -0.003,3.6e-4 -0.005,7.3e-4 -0.005,7.3e-4 -0.003,3e-4 -0.005,5.5e-4 -0.005,5.5e-4 -0.003,1.8e-4 -0.005,3.6e-4 -0.005,3.6e-4 -0.003,1.3e-4 -0.005,1.9e-4 -0.005,1.9e-4 -0.003,0 -0.45905,0 -0.45905,0"
         id="path17054"
         style="stroke:#80ffe6;stroke-opacity:1" />
      <path
         fill="none"
         stroke="#00b9d2"
         stroke-width="0.127532"
         stroke-linecap="round"
         stroke-linejoin="round"
         stroke-miterlimit="10"
         d="m 130.92877,228.51046 c 0.12085,0.009 0.24207,-0.0247 0.34796,-0.0818 0.14381,-0.077 0.26167,-0.19817 0.34118,-0.34009 0.0856,-0.1509 0.13234,-0.32756 0.11304,-0.50124 -0.11432,0.005 -0.22528,0.0435 -0.32604,0.0964 -0.1374,0.0724 -0.25636,0.17734 -0.33978,0.30875 -0.0973,0.15212 -0.15988,0.33594 -0.13636,0.51792 z"
         id="path17056"
         style="stroke:#80ffe6;stroke-opacity:1" />
      <path
         fill="none"
         stroke="#00b9d2"
         stroke-width="0.127532"
         stroke-linecap="round"
         stroke-linejoin="round"
         stroke-miterlimit="10"
         d="m 132.02688,229.71532 c -0.002,-0.1319 0.0276,-0.26436 0.0863,-0.38259 0.0772,-0.15517 0.19976,-0.28781 0.34662,-0.37947 -0.0656,-0.0964 -0.15016,-0.18015 -0.24799,-0.24372 -0.14376,-0.0935 -0.31383,-0.14534 -0.48482,-0.15359 -0.11878,-0.0121 -0.23841,0.012 -0.35114,0.0484 -0.10308,0.0322 -0.22821,0.0906 -0.33172,0.1211 -0.0292,0.008 -0.061,0.015 -0.0912,0.0139 -0.0565,-0.002 -0.11109,-0.0221 -0.16379,-0.0412 0,0 -0.16451,-0.0639 -0.16451,-0.0639 -0.0834,-0.0309 -0.16995,-0.0578 -0.25881,-0.0661 -0.10558,-0.009 -0.21312,0.006 -0.31468,0.0352 -0.33789,0.0996 -0.58484,0.37306 -0.68487,0.70649 -0.16098,0.53025 0.007,1.18368 0.27944,1.65195 0.0676,0.11364 0.14773,0.22503 0.22919,0.32915 0.0961,0.11798 0.20836,0.23774 0.35725,0.28488 0.0821,0.0262 0.17092,0.0185 0.25337,-0.002 0.0655,-0.0157 0.15273,-0.056 0.2155,-0.0817 0.055,-0.0223 0.11249,-0.041 0.17093,-0.0514 0.0928,-0.0162 0.18919,-0.0167 0.28177,7.4e-4 0.0862,0.0152 0.1763,0.0566 0.25666,0.091 0.045,0.0187 0.0918,0.0352 0.13961,0.0446 0.0531,0.0104 0.10809,0.0137 0.16201,0.008 0.23108,-0.0238 0.38625,-0.2229 0.51229,-0.39902 0.13906,-0.1909 0.2549,-0.40262 0.32959,-0.62692 l 0.0107,-0.0337 -0.007,-0.003 c -0.16537,-0.0735 -0.30949,-0.19737 -0.40475,-0.35144 -0.0843,-0.13606 -0.12513,-0.29655 -0.12599,-0.456"
         id="path17058"
         style="stroke:#80ffe6;stroke-opacity:1" />
      <polygon
         fill="none"
         stroke="#00b9d2"
         stroke-width="2.08839"
         stroke-linecap="round"
         stroke-linejoin="round"
         stroke-miterlimit="10"
         points="511.978,139.158 511.874,138.952 511.773,138.744 511.676,138.535 511.583,138.324 511.493,138.112 511.407,137.898 511.325,137.682 511.247,137.465 511.172,137.247 511.101,137.027 511.034,136.807 510.971,136.585 510.911,136.362 510.856,136.138 510.804,135.913 510.757,135.688 510.713,135.461 510.673,135.234 510.637,135.006 510.605,134.777 510.577,134.548 510.553,134.319 510.533,134.089 510.517,133.859 510.505,133.629 510.497,133.398 510.493,133.168 510.493,132.937 510.497,132.706 510.505,132.476 510.517,132.245 510.533,132.015 510.553,131.785 510.577,131.556 510.605,131.327 510.637,131.099 510.673,130.871 510.713,130.643 510.757,130.417 510.804,130.191 510.856,129.966 510.911,129.743 510.971,129.52 511.034,129.298 511.101,129.077 511.172,128.858 511.247,128.639 511.325,128.422 511.407,128.207 511.493,127.993 511.583,127.78 511.676,127.569 511.773,127.36 511.874,127.152 511.978,126.947 512.086,126.743 512.197,126.541 512.312,126.341 512.43,126.142 512.552,125.946 512.677,125.753 512.805,125.561 512.937,125.371 513.072,125.184 513.21,125 513.351,124.817 513.496,124.638 513.643,124.46 513.794,124.286 513.948,124.114 514.104,123.944 514.264,123.778 514.426,123.614 514.592,123.453 514.76,123.295 514.93,123.14 515.104,122.987 515.28,122.838 515.458,122.692 515.639,122.549 515.823,122.41 516.009,122.273 516.197,122.14 516.387,122.01 516.58,121.883 516.775,121.76 516.972,121.64 517.171,121.523 517.372,121.41 517.575,121.301 517.78,121.195 517.987,121.092 518.195,120.993 518.406,120.898 518.617,120.807 518.831,120.719 519.045,120.635 519.262,120.555 519.479,120.478 519.698,120.405 519.918,120.336 520.14,120.271 520.362,120.21 520.585,120.152 520.81,120.099 521.035,120.049 521.261,120.003 521.488,119.961 521.716,119.924 521.944,119.89 522.172,119.86 522.402,119.834 522.631,119.812 522.861,119.794 523.091,119.78 523.322,119.77 523.553,119.764 523.783,119.762 564.066,119.762 564.296,119.764 564.527,119.77 564.757,119.78 564.988,119.794 565.218,119.812 565.447,119.834 565.676,119.86 565.905,119.89 566.133,119.924 566.361,119.961 566.588,120.003 566.814,120.049 567.039,120.099 567.263,120.152 567.487,120.21 567.709,120.271 567.93,120.336 568.151,120.405 568.37,120.478 568.587,120.555 568.803,120.635 569.018,120.719 569.231,120.807 569.443,120.898 569.653,120.993 569.862,121.092 570.068,121.195 570.273,121.301 570.476,121.41 570.677,121.523 570.877,121.64 571.074,121.76 571.269,121.883 571.461,122.01 571.652,122.14 571.84,122.273 572.026,122.41 572.21,122.549 572.391,122.692 572.569,122.838 572.745,122.987 572.919,123.14 573.089,123.295 573.257,123.453 573.422,123.614 573.585,123.778 573.744,123.944 573.901,124.114 574.055,124.286 574.205,124.46 574.353,124.638 574.497,124.817 574.639,125 574.777,125.184 574.912,125.371 575.044,125.561 575.172,125.753 575.297,125.946 575.419,126.142 575.537,126.341 575.652,126.541 575.763,126.743 575.871,126.947 575.975,127.152 576.075,127.36 576.172,127.569 576.266,127.78 576.355,127.993 576.441,128.207 576.524,128.422 576.602,128.639 576.677,128.858 576.748,129.077 576.815,129.298 576.878,129.52 576.937,129.743 576.993,129.966 577.044,130.191 577.092,130.417 577.136,130.643 577.176,130.871 577.212,131.099 577.244,131.327 577.272,131.556 577.296,131.785 577.316,132.015 577.332,132.245 577.344,132.476 577.352,132.706 577.356,132.937 577.356,133.168 577.352,133.398 577.344,133.629 577.332,133.859 577.316,134.089 577.296,134.319 577.272,134.548 577.244,134.777 577.212,135.006 577.176,135.234 577.136,135.461 577.092,135.688 577.044,135.913 576.993,136.138 576.937,136.362 576.878,136.585 576.815,136.807 576.748,137.027 576.677,137.247 576.602,137.465 576.524,137.682 576.441,137.898 576.355,138.112 576.266,138.324 576.172,138.535 576.075,138.744 575.975,138.952 575.871,139.158 575.763,139.362 575.652,139.564 575.537,139.764 575.419,139.962 575.297,140.158 575.172,140.352 575.044,140.544 574.912,140.733 574.777,140.92 574.639,141.105 574.497,141.287 574.353,141.467 574.205,141.644 574.055,141.819 573.901,141.991 573.744,142.16 573.585,142.327 573.422,142.491 573.257,142.652 573.089,142.81 572.919,142.965 572.745,143.117 572.569,143.266 572.391,143.412 572.21,143.555 572.026,143.695 571.84,143.832 571.652,143.965 571.461,144.095 571.269,144.222 571.074,144.345 570.877,144.465 570.677,144.581 570.476,144.694 570.273,144.804 570.068,144.91 569.862,145.012 569.653,145.111 569.443,145.206 569.231,145.298 569.018,145.386 568.803,145.47 568.587,145.55 568.37,145.627 568.151,145.699 567.93,145.768 567.709,145.834 567.487,145.895 567.263,145.952 567.039,146.006 566.814,146.056 566.588,146.101 566.361,146.143 566.133,146.181 565.905,146.215 565.676,146.245 565.447,146.271 565.218,146.293 564.988,146.311 564.757,146.325 564.527,146.335 564.296,146.341 564.066,146.343 523.783,146.343 523.553,146.341 523.322,146.335 523.091,146.325 522.861,146.311 522.631,146.293 522.402,146.271 522.172,146.245 521.944,146.215 521.716,146.181 521.488,146.143 521.261,146.101 521.035,146.056 520.81,146.006 520.585,145.952 520.362,145.895 520.14,145.834 519.918,145.768 519.698,145.699 519.479,145.627 519.262,145.55 519.045,145.47 518.831,145.386 518.617,145.298 518.406,145.206 518.195,145.111 517.987,145.012 517.78,144.91 517.575,144.804 517.372,144.694 517.171,144.581 516.972,144.465 516.775,144.345 516.58,144.222 516.387,144.095 516.197,143.965 516.009,143.832 515.823,143.695 515.639,143.555 515.458,143.412 515.28,143.266 515.104,143.117 514.93,142.965 514.76,142.81 514.592,142.652 514.426,142.491 514.264,142.327 514.104,142.16 513.948,141.991 513.794,141.819 513.643,141.644 513.496,141.467 513.351,141.287 513.21,141.105 513.072,140.92 512.937,140.733 512.805,140.544 512.677,140.352 512.552,140.158 512.43,139.962 512.312,139.764 512.197,139.564 512.086,139.362 "
         id="polygon17060"
         style="stroke:#80ffe6;stroke-opacity:1"
         transform="matrix(0.06106767,0,0,0.06106767,92.422607,214.35082)" />
      <rect
         x="122.0088"
         y="226.96281"
         fill="none"
         stroke="#00b9d2"
         stroke-width="0.175358"
         stroke-linecap="round"
         stroke-linejoin="round"
         stroke-miterlimit="10"
         width="0.12531087"
         height="2.358983"
         id="rect17062"
         style="stroke:#80ffe6;stroke-opacity:1" />
      <path
         fill="none"
         stroke="#00b9d2"
         stroke-width="0.175358"
         stroke-linecap="round"
         stroke-linejoin="round"
         stroke-miterlimit="10"
         d="m 130.06203,222.476 c 6.1e-4,-0.2047 -0.14082,-0.38644 -0.33941,-0.43609 -0.28275,-0.0712 -0.55731,0.14064 -0.56024,0.43218 -0.002,0.29483 0.27432,0.51193 0.56024,0.43999 0.19859,-0.0497 0.34002,-0.23139 0.33941,-0.43608 z"
         id="path17066"
         style="stroke:#80ffe6;stroke-opacity:1" />
      <path
         fill="none"
         stroke="#00b9d2"
         stroke-width="0.175358"
         stroke-linecap="round"
         stroke-linejoin="round"
         stroke-miterlimit="10"
         d="m 127.26831,222.476 c 6.1e-4,-0.18168 -0.12519,-0.34333 -0.30143,-0.3873 -0.25093,-0.0633 -0.49508,0.12501 -0.49758,0.38381 -0.002,0.26174 0.24378,0.45471 0.49758,0.39078 0.17624,-0.044 0.30204,-0.20562 0.30143,-0.38729 z"
         id="path17068"
         style="stroke:#80ffe6;stroke-opacity:1" />
      <path
         fill="none"
         stroke="#00b9d2"
         stroke-width="0.175358"
         stroke-linecap="round"
         stroke-linejoin="round"
         stroke-miterlimit="10"
         d="m 124.95433,222.476 c 6.7e-4,-0.24837 -0.17062,-0.46852 -0.41159,-0.52885 -0.34302,-0.0862 -0.67572,0.17044 -0.67938,0.52408 -0.002,0.35768 0.33251,0.62069 0.67938,0.53355 0.24097,-0.0603 0.41226,-0.28036 0.41159,-0.52878 z"
         id="path17070"
         style="stroke:#80ffe6;stroke-opacity:1" />
      <rect
         x="139.68501"
         y="229.80093"
         fill="none"
         stroke="#00b9d2"
         stroke-width="0.175358"
         stroke-linecap="round"
         stroke-linejoin="round"
         stroke-miterlimit="10"
         width="0.12531087"
         height="2.2530308"
         id="rect17074"
         style="stroke:#80ffe6;stroke-opacity:1" />
      <rect
         x="139.68501"
         y="226.98468"
         fill="none"
         stroke="#00b9d2"
         stroke-width="0.175358"
         stroke-linecap="round"
         stroke-linejoin="round"
         stroke-miterlimit="10"
         width="0.12531087"
         height="2.2530308"
         id="rect17076"
         style="stroke:#80ffe6;stroke-opacity:1" />
      <rect
         x="139.68501"
         y="224.39371"
         fill="none"
         stroke="#00b9d2"
         stroke-width="0.175358"
         stroke-linecap="round"
         stroke-linejoin="round"
         stroke-miterlimit="10"
         width="0.12531087"
         height="1.2391241"
         id="rect17078"
         style="stroke:#80ffe6;stroke-opacity:1" />
      <polygon
         fill="none"
         stroke="#00b9d2"
         stroke-width="2.87153"
         stroke-linecap="round"
         stroke-linejoin="round"
         stroke-miterlimit="10"
         points="763.129,106.229 763.464,106.569 763.795,106.913 764.122,107.262 764.444,107.614 764.761,107.97 765.073,108.331 765.381,108.695 765.684,109.063 765.981,109.435 766.274,109.81 766.562,110.188 766.844,110.57 767.121,110.955 767.393,111.343 767.66,111.734 767.921,112.128 768.177,112.525 768.427,112.925 768.672,113.327 768.911,113.731 769.145,114.138 769.373,114.547 769.596,114.959 769.813,115.372 770.024,115.787 770.23,116.204 770.43,116.623 770.624,117.043 770.813,117.464 770.996,117.887 771.173,118.311 771.344,118.737 771.51,119.163 771.67,119.59 771.824,120.018 771.973,120.446 772.116,120.876 772.253,121.305 772.385,121.735 772.511,122.165 772.631,122.596 772.746,123.026 772.855,123.456 772.959,123.887 773.057,124.316 773.15,124.746 773.237,125.175 773.319,125.604 773.395,126.032 773.467,126.459 773.533,126.885 773.593,127.311 773.649,127.735 773.7,128.159 773.745,128.581 773.785,129.002 773.821,129.422 773.851,129.84 773.877,130.257 773.898,130.672 773.914,131.086 773.926,131.498 773.932,131.908 773.935,132.317 773.935,642.186 773.932,642.594 773.926,643.005 773.914,643.417 773.898,643.831 773.877,644.246 773.851,644.663 773.821,645.081 773.785,645.501 773.745,645.922 773.7,646.344 773.649,646.768 773.593,647.192 773.533,647.618 773.467,648.044 773.395,648.471 773.319,648.899 773.237,649.328 773.15,649.757 773.057,650.186 772.959,650.616 772.855,651.046 772.746,651.477 772.631,651.907 772.511,652.338 772.385,652.768 772.253,653.198 772.116,653.627 771.973,654.056 771.824,654.485 771.67,654.913 771.51,655.34 771.344,655.766 771.173,656.192 770.996,656.616 770.813,657.039 770.624,657.46 770.43,657.88 770.23,658.299 770.024,658.716 769.813,659.131 769.596,659.544 769.373,659.955 769.145,660.365 768.911,660.771 768.672,661.176 768.427,661.578 768.177,661.978 767.921,662.374 767.66,662.768 767.393,663.16 767.121,663.548 766.844,663.933 766.562,664.315 766.274,664.693 765.981,665.068 765.684,665.44 765.381,665.808 765.073,666.172 764.761,666.532 764.444,666.889 764.122,667.241 763.795,667.59 763.464,667.934 763.129,668.274 762.789,668.609 762.445,668.94 762.096,669.267 761.744,669.589 761.388,669.906 761.027,670.218 760.663,670.526 760.295,670.828 759.924,671.126 759.548,671.419 759.17,671.706 758.788,671.989 758.403,672.266 758.015,672.538 757.624,672.804 757.23,673.066 756.833,673.322 756.433,673.572 756.031,673.817 755.627,674.056 755.22,674.29 754.811,674.518 754.399,674.741 753.986,674.958 753.571,675.169 753.154,675.375 752.735,675.575 752.315,675.769 751.894,675.958 751.471,676.141 751.047,676.318 750.621,676.489 750.195,676.655 749.768,676.815 749.34,676.969 748.912,677.118 748.482,677.261 748.053,677.398 747.623,677.529 747.193,677.655 746.762,677.776 746.332,677.891 745.902,678 745.471,678.103 745.042,678.202 744.612,678.294 744.183,678.382 743.754,678.464 743.326,678.54 742.899,678.611 742.473,678.677 742.047,678.738 741.623,678.794 741.2,678.844 740.777,678.89 740.356,678.93 739.936,678.966 739.518,678.996 739.101,679.022 738.686,679.043 738.272,679.059 737.86,679.07 737.45,679.077 737.041,679.08 523.427,679.08 523.019,679.077 522.609,679.07 522.196,679.059 521.783,679.043 521.367,679.022 520.95,678.996 520.532,678.966 520.112,678.93 519.691,678.89 519.269,678.844 518.846,678.794 518.421,678.738 517.996,678.677 517.569,678.611 517.142,678.54 516.714,678.464 516.286,678.382 515.857,678.294 515.427,678.202 514.997,678.103 514.567,678 514.137,677.891 513.706,677.776 513.276,677.655 512.846,677.529 512.416,677.398 511.986,677.261 511.557,677.118 511.128,676.969 510.7,676.815 510.273,676.655 509.847,676.489 509.422,676.318 508.998,676.141 508.575,675.958 508.153,675.769 507.733,675.575 507.314,675.375 506.898,675.169 506.482,674.958 506.069,674.741 505.658,674.518 505.249,674.29 504.842,674.056 504.437,673.817 504.035,673.572 503.636,673.322 503.239,673.066 502.845,672.804 502.454,672.538 502.066,672.266 501.68,671.989 501.299,671.706 500.92,671.419 500.545,671.126 500.173,670.828 499.806,670.526 499.441,670.218 499.081,669.906 498.724,669.589 498.372,669.267 498.024,668.94 497.68,668.609 497.34,668.274 497.004,667.934 496.673,667.59 496.347,667.241 496.025,666.889 495.708,666.532 495.395,666.172 495.088,665.808 494.785,665.44 494.487,665.068 494.195,664.693 493.907,664.315 493.625,663.933 493.347,663.548 493.076,663.16 492.809,662.768 492.548,662.374 492.292,661.978 492.041,661.578 491.797,661.176 491.557,660.771 491.323,660.365 491.095,659.955 490.872,659.544 490.655,659.131 490.444,658.716 490.238,658.299 490.038,657.88 489.844,657.46 489.656,657.039 489.473,656.616 489.296,656.192 489.124,655.766 488.959,655.34 488.799,654.913 488.644,654.485 488.496,654.056 488.353,653.627 488.216,653.198 488.084,652.768 487.958,652.338 487.838,651.907 487.723,651.477 487.614,651.046 487.51,650.616 487.412,650.186 487.319,649.757 487.232,649.328 487.15,648.899 487.073,648.471 487.002,648.044 486.936,647.618 486.875,647.192 486.819,646.768 486.769,646.344 486.724,645.922 486.683,645.501 486.648,645.081 486.617,644.663 486.591,644.246 486.571,643.831 486.554,643.417 486.543,643.005 486.536,642.594 486.534,642.186 486.534,132.317 486.536,131.908 486.543,131.498 486.554,131.086 486.571,130.672 486.591,130.257 486.617,129.84 486.648,129.422 486.683,129.002 486.724,128.581 486.769,128.159 486.819,127.735 486.875,127.311 486.936,126.885 487.002,126.459 487.073,126.032 487.15,125.604 487.232,125.175 487.319,124.746 487.412,124.316 487.51,123.887 487.614,123.456 487.723,123.026 487.838,122.596 487.958,122.165 488.084,121.735 488.216,121.305 488.353,120.876 488.496,120.446 488.644,120.018 488.799,119.59 488.959,119.163 489.124,118.737 489.296,118.311 489.473,117.887 489.656,117.464 489.844,117.043 490.038,116.623 490.238,116.204 490.444,115.787 490.655,115.372 490.872,114.959 491.095,114.547 491.323,114.138 491.557,113.731 491.797,113.327 492.041,112.925 492.292,112.525 492.548,112.128 492.809,111.734 493.076,111.343 493.347,110.955 493.625,110.57 493.907,110.188 494.195,109.81 494.487,109.435 494.785,109.063 495.088,108.695 495.395,108.331 495.708,107.97 496.025,107.614 496.347,107.262 496.673,106.913 497.004,106.569 497.34,106.229 497.68,105.894 498.024,105.563 498.372,105.236 498.724,104.914 499.081,104.597 499.441,104.285 499.806,103.977 500.173,103.674 500.545,103.377 500.92,103.084 501.299,102.797 501.68,102.514 502.066,102.237 502.454,101.965 502.845,101.698 503.239,101.437 503.636,101.181 504.035,100.931 504.437,100.686 504.842,100.447 505.249,100.213 505.658,99.985 506.069,99.762 506.482,99.545 506.898,99.334 507.314,99.128 507.733,98.928 508.153,98.734 508.575,98.545 508.998,98.362 509.422,98.185 509.847,98.014 510.273,97.848 510.7,97.688 511.128,97.534 511.557,97.385 511.986,97.242 512.416,97.105 512.846,96.973 513.276,96.847 513.706,96.727 514.137,96.612 514.567,96.503 514.997,96.399 515.427,96.301 515.857,96.209 516.286,96.121 516.714,96.039 517.142,95.963 517.569,95.891 517.996,95.825 518.421,95.765 518.846,95.709 519.269,95.658 519.691,95.613 520.112,95.573 520.532,95.537 520.95,95.507 521.367,95.481 521.783,95.46 522.196,95.444 522.609,95.432 523.019,95.426 523.427,95.423 737.041,95.423 737.45,95.426 737.86,95.432 738.272,95.444 738.686,95.46 739.101,95.481 739.518,95.507 739.936,95.537 740.356,95.573 740.777,95.613 741.2,95.658 741.623,95.709 742.047,95.765 742.473,95.825 742.899,95.891 743.326,95.963 743.754,96.039 744.183,96.121 744.612,96.209 745.042,96.301 745.471,96.399 745.902,96.503 746.332,96.612 746.762,96.727 747.193,96.847 747.623,96.973 748.053,97.105 748.482,97.242 748.912,97.385 749.34,97.534 749.768,97.688 750.195,97.848 750.621,98.014 751.047,98.185 751.471,98.362 751.894,98.545 752.315,98.734 752.735,98.928 753.154,99.128 753.571,99.334 753.986,99.545 754.399,99.762 754.811,99.985 755.22,100.213 755.627,100.447 756.031,100.686 756.433,100.931 756.833,101.181 757.23,101.437 757.624,101.698 758.015,101.965 758.403,102.237 758.788,102.514 759.17,102.797 759.548,103.084 759.924,103.377 760.295,103.674 760.663,103.977 761.027,104.285 761.388,104.597 761.744,104.914 762.096,105.236 762.445,105.563 762.789,105.894 "
         id="polygon17080"
         style="stroke:#80ffe6;stroke-opacity:1"
         transform="matrix(0.06106767,0,0,0.06106767,92.422607,214.35082)" />
      <polygon
         fill="none"
         stroke="#00b9d2"
         stroke-width="3.39363"
         stroke-linecap="round"
         stroke-linejoin="round"
         stroke-miterlimit="10"
         points="497.004,106.569 497.34,106.229 497.68,105.894 498.024,105.563 498.372,105.236 498.724,104.914 499.081,104.597 499.441,104.285 499.806,103.977 500.173,103.674 500.545,103.377 500.92,103.084 501.299,102.797 501.68,102.514 502.066,102.237 502.454,101.965 502.845,101.698 503.239,101.437 503.636,101.181 504.035,100.931 504.437,100.686 504.842,100.447 505.249,100.213 505.658,99.985 506.069,99.762 506.482,99.545 506.898,99.334 507.314,99.128 507.733,98.928 508.153,98.734 508.575,98.545 508.998,98.362 509.422,98.185 509.847,98.014 510.273,97.848 510.7,97.688 511.128,97.534 511.557,97.385 511.986,97.242 512.416,97.105 512.846,96.973 513.276,96.847 513.706,96.727 514.137,96.612 514.567,96.503 514.997,96.399 515.427,96.301 515.857,96.209 516.286,96.121 516.714,96.039 517.142,95.963 517.569,95.891 517.996,95.825 518.421,95.765 518.846,95.709 519.269,95.658 519.691,95.613 520.112,95.573 520.532,95.537 520.95,95.507 521.367,95.481 521.783,95.46 522.196,95.444 522.609,95.432 523.019,95.426 523.427,95.423 737.041,95.423 737.45,95.426 737.86,95.432 738.272,95.444 738.686,95.46 739.101,95.481 739.518,95.507 739.936,95.537 740.356,95.573 740.777,95.613 741.2,95.658 741.623,95.709 742.047,95.765 742.473,95.825 742.899,95.891 743.326,95.963 743.754,96.039 744.183,96.121 744.612,96.209 745.042,96.301 745.471,96.399 745.902,96.503 746.332,96.612 746.762,96.727 747.193,96.847 747.623,96.973 748.053,97.105 748.482,97.242 748.912,97.385 749.34,97.534 749.768,97.688 750.195,97.848 750.621,98.014 751.047,98.185 751.471,98.362 751.894,98.545 752.315,98.734 752.735,98.928 753.154,99.128 753.571,99.334 753.986,99.545 754.399,99.762 754.811,99.985 755.22,100.213 755.627,100.447 756.031,100.686 756.433,100.931 756.833,101.181 757.23,101.437 757.624,101.698 758.015,101.965 758.403,102.237 758.788,102.514 759.17,102.797 759.548,103.084 759.924,103.377 760.295,103.674 760.663,103.977 761.027,104.285 761.388,104.597 761.744,104.914 762.096,105.236 762.445,105.563 762.789,105.894 763.129,106.229 763.464,106.569 763.795,106.913 764.122,107.262 764.444,107.614 764.761,107.97 765.073,108.331 765.381,108.695 765.684,109.063 765.981,109.435 766.274,109.81 766.562,110.188 766.844,110.57 767.121,110.955 767.393,111.343 767.66,111.734 767.921,112.128 768.177,112.525 768.427,112.925 768.672,113.327 768.911,113.731 769.145,114.138 769.373,114.547 769.596,114.959 769.813,115.372 770.024,115.787 770.23,116.204 770.43,116.623 770.624,117.043 770.813,117.464 770.996,117.887 771.173,118.311 771.344,118.737 771.51,119.163 771.67,119.59 771.824,120.018 771.973,120.446 772.116,120.876 772.253,121.305 772.385,121.735 772.511,122.165 772.631,122.596 772.746,123.026 772.855,123.456 772.959,123.887 773.057,124.316 773.15,124.746 773.237,125.175 773.319,125.604 773.395,126.032 773.467,126.459 773.533,126.885 773.593,127.311 773.649,127.735 773.7,128.159 773.745,128.581 773.785,129.002 773.821,129.422 773.851,129.84 773.877,130.257 773.898,130.672 773.914,131.086 773.926,131.498 773.932,131.908 773.935,132.317 773.935,145.263 773.935,164.455 775.987,164.455 775.987,184.747 773.935,184.747 773.935,206.883 775.987,206.883 775.987,243.776 773.935,243.776 773.935,253 775.987,253 775.987,289.893 773.935,289.893 773.935,642.186 773.932,642.594 773.926,643.005 773.914,643.417 773.898,643.831 773.877,644.246 773.851,644.663 773.821,645.081 773.785,645.501 773.745,645.922 773.7,646.344 773.649,646.768 773.593,647.192 773.533,647.618 773.467,648.044 773.395,648.471 773.319,648.899 773.237,649.328 773.15,649.757 773.057,650.186 772.959,650.616 772.855,651.046 772.746,651.477 772.631,651.907 772.511,652.338 772.385,652.768 772.253,653.198 772.116,653.627 771.973,654.056 771.824,654.485 771.67,654.913 771.51,655.34 771.344,655.766 771.173,656.192 770.996,656.616 770.813,657.039 770.624,657.46 770.43,657.88 770.23,658.299 770.024,658.716 769.813,659.131 769.596,659.544 769.373,659.955 769.145,660.365 768.911,660.771 768.672,661.176 768.427,661.578 768.177,661.978 767.921,662.374 767.66,662.768 767.393,663.16 767.121,663.548 766.844,663.933 766.562,664.315 766.274,664.693 765.981,665.068 765.684,665.44 765.381,665.808 765.073,666.172 764.761,666.532 764.444,666.889 764.122,667.241 763.795,667.59 763.464,667.934 763.129,668.274 762.789,668.609 762.445,668.94 762.096,669.267 761.744,669.589 761.388,669.906 761.027,670.218 760.663,670.526 760.295,670.828 759.924,671.126 759.548,671.419 759.17,671.706 758.788,671.989 758.403,672.266 758.015,672.538 757.624,672.804 757.23,673.066 756.833,673.322 756.433,673.572 756.031,673.817 755.627,674.056 755.22,674.29 754.811,674.518 754.399,674.741 753.986,674.958 753.571,675.169 753.154,675.375 752.735,675.575 752.315,675.769 751.894,675.958 751.471,676.141 751.047,676.318 750.621,676.489 750.195,676.655 749.768,676.815 749.34,676.969 748.912,677.118 748.482,677.261 748.053,677.398 747.623,677.529 747.193,677.655 746.762,677.776 746.332,677.891 745.902,678 745.471,678.103 745.042,678.202 744.612,678.294 744.183,678.382 743.754,678.464 743.326,678.54 742.899,678.611 742.473,678.677 742.047,678.738 741.623,678.794 741.2,678.844 740.777,678.89 740.356,678.93 739.936,678.966 739.518,678.996 739.101,679.022 738.686,679.043 738.272,679.059 737.86,679.07 737.45,679.077 737.041,679.08 523.427,679.08 523.019,679.077 522.609,679.07 522.196,679.059 521.783,679.043 521.367,679.022 520.95,678.996 520.532,678.966 520.112,678.93 519.691,678.89 519.269,678.844 518.846,678.794 518.421,678.738 517.996,678.677 517.569,678.611 517.142,678.54 516.714,678.464 516.286,678.382 515.857,678.294 515.427,678.202 514.997,678.103 514.567,678 514.137,677.891 513.706,677.776 513.276,677.655 512.846,677.529 512.416,677.398 511.986,677.261 511.557,677.118 511.128,676.969 510.7,676.815 510.273,676.655 509.847,676.489 509.422,676.318 508.998,676.141 508.575,675.958 508.153,675.769 507.733,675.575 507.314,675.375 506.898,675.169 506.482,674.958 506.069,674.741 505.658,674.518 505.249,674.29 504.842,674.056 504.437,673.817 504.035,673.572 503.636,673.322 503.239,673.066 502.845,672.804 502.454,672.538 502.066,672.266 501.68,671.989 501.299,671.706 500.92,671.419 500.545,671.126 500.173,670.828 499.806,670.526 499.441,670.218 499.081,669.906 498.724,669.589 498.372,669.267 498.024,668.94 497.68,668.609 497.34,668.274 497.004,667.934 496.673,667.59 496.347,667.241 496.025,666.889 495.708,666.532 495.395,666.172 495.088,665.808 494.785,665.44 494.487,665.068 494.195,664.693 493.907,664.315 493.625,663.933 493.347,663.548 493.076,663.16 492.809,662.768 492.548,662.374 492.292,661.978 492.041,661.578 491.797,661.176 491.557,660.771 491.323,660.365 491.095,659.955 490.872,659.544 490.655,659.131 490.444,658.716 490.238,658.299 490.038,657.88 489.844,657.46 489.656,657.039 489.473,656.616 489.296,656.192 489.124,655.766 488.959,655.34 488.799,654.913 488.644,654.485 488.496,654.056 488.353,653.627 488.216,653.198 488.084,652.768 487.958,652.338 487.838,651.907 487.723,651.477 487.614,651.046 487.51,650.616 487.412,650.186 487.319,649.757 487.232,649.328 487.15,648.899 487.073,648.471 487.002,648.044 486.936,647.618 486.875,647.192 486.819,646.768 486.769,646.344 486.724,645.922 486.683,645.501 486.648,645.081 486.617,644.663 486.591,644.246 486.571,643.831 486.554,643.417 486.543,643.005 486.536,642.594 486.534,642.186 486.534,245.155 484.482,245.155 484.482,206.525 486.534,206.525 486.534,132.317 486.536,131.908 486.543,131.498 486.554,131.086 486.571,130.672 486.591,130.257 486.617,129.84 486.648,129.422 486.683,129.002 486.724,128.581 486.769,128.159 486.819,127.735 486.875,127.311 486.936,126.885 487.002,126.459 487.073,126.032 487.15,125.604 487.232,125.175 487.319,124.746 487.412,124.316 487.51,123.887 487.614,123.456 487.723,123.026 487.838,122.596 487.958,122.165 488.084,121.735 488.216,121.305 488.353,120.876 488.496,120.446 488.644,120.018 488.799,119.59 488.959,119.163 489.124,118.737 489.296,118.311 489.473,117.887 489.656,117.464 489.844,117.043 490.038,116.623 490.238,116.204 490.444,115.787 490.655,115.372 490.872,114.959 491.095,114.547 491.323,114.138 491.557,113.731 491.797,113.327 492.041,112.925 492.292,112.525 492.548,112.128 492.809,111.734 493.076,111.343 493.347,110.955 493.625,110.57 493.907,110.188 494.195,109.81 494.487,109.435 494.785,109.063 495.088,108.695 495.395,108.331 495.708,107.97 496.025,107.614 496.347,107.262 496.673,106.913 "
         id="polygon17082"
         style="stroke:#80ffe6;stroke-opacity:1"
         transform="matrix(0.06106767,0,0,0.06106767,92.422607,214.35082)" />
    </g>
  </g>
</svg>
