<?xml version="1.0" encoding="UTF-8" standalone="no"?>
<svg
   xmlns:dc="http://purl.org/dc/elements/1.1/"
   xmlns:cc="http://creativecommons.org/ns#"
   xmlns:rdf="http://www.w3.org/1999/02/22-rdf-syntax-ns#"
   xmlns:svg="http://www.w3.org/2000/svg"
   xmlns="http://www.w3.org/2000/svg"
   xmlns:sodipodi="http://sodipodi.sourceforge.net/DTD/sodipodi-0.dtd"
   xmlns:inkscape="http://www.inkscape.org/namespaces/inkscape"
   width="15.072898mm"
   height="30.012688mm"
   viewBox="0 0 15.072899 30.012689"
   version="1.1"
   id="svg4830"
   inkscape:version="1.0.2 (e86c8708, 2021-01-15)"
   sodipodi:docname="ip7plus.svg">
  <defs
     id="defs4824" />
  <sodipodi:namedview
     id="base"
     pagecolor="#ffffff"
     bordercolor="#666666"
     borderopacity="1.0"
     inkscape:pageopacity="0.0"
     inkscape:pageshadow="2"
     inkscape:zoom="3.8813991"
     inkscape:cx="8.8587943"
     inkscape:cy="72.983268"
     inkscape:document-units="mm"
     inkscape:current-layer="layer1"
     inkscape:document-rotation="0"
     showgrid="false"
     inkscape:window-width="1440"
     inkscape:window-height="872"
     inkscape:window-x="0"
     inkscape:window-y="28"
     inkscape:window-maximized="0" />
  <metadata
     id="metadata4827">
    <rdf:RDF>
      <cc:Work
         rdf:about="">
        <dc:format>image/svg+xml</dc:format>
        <dc:type
           rdf:resource="http://purl.org/dc/dcmitype/StillImage" />
        <dc:title></dc:title>
      </cc:Work>
    </rdf:RDF>
  </metadata>
  <g
     inkscape:label="Layer 1"
     inkscape:groupmode="layer"
     id="layer1"
     transform="translate(-84.228025,-128.03355)">
    <g
       id="g15580"
       transform="matrix(0.05113704,0,0,0.05113704,59.536147,123.237)"
       style="stroke:#80ffe6;stroke-opacity:1">
      <path
         fill="none"
         stroke="#00b9d2"
         stroke-width="2"
         stroke-linecap="round"
         stroke-linejoin="round"
         stroke-miterlimit="10"
         d="m 773.935,145.263 h -7.473 c -0.044,0 -0.088,-0.002 -0.088,-0.002 -0.044,-0.002 -0.088,-0.005 -0.088,-0.005 -0.044,-0.003 -0.088,-0.008 -0.088,-0.008 -0.044,-0.005 -0.087,-0.011 -0.087,-0.011 -0.043,-0.006 -0.087,-0.014 -0.087,-0.014 -0.043,-0.008 -0.086,-0.017 -0.086,-0.017 -0.043,-0.009 -0.086,-0.02 -0.086,-0.02 -0.043,-0.011 -0.085,-0.022 -0.085,-0.022 -0.042,-0.012 -0.084,-0.025 -0.084,-0.025 -0.042,-0.014 -0.083,-0.028 -0.083,-0.028 -0.041,-0.015 -0.082,-0.031 -0.082,-0.031 -0.041,-0.017 -0.081,-0.034 -0.081,-0.034 -0.04,-0.018 -0.08,-0.037 -0.08,-0.037 -0.039,-0.019 -0.078,-0.039 -0.078,-0.039 -0.039,-0.021 -0.077,-0.042 -0.077,-0.042 -0.038,-0.022 -0.076,-0.045 -0.076,-0.045 -0.037,-0.023 -0.074,-0.047 -0.074,-0.047 -0.036,-0.025 -0.072,-0.05 -0.072,-0.05 -0.036,-0.026 -0.071,-0.052 -0.071,-0.052 -0.035,-0.027 -0.069,-0.055 -0.069,-0.055 -0.034,-0.028 -0.067,-0.057 -0.067,-0.057 -0.033,-0.029 -0.065,-0.059 -0.065,-0.059 -0.032,-0.031 -0.063,-0.062 -0.063,-0.062 -0.031,-0.032 -0.061,-0.064 -0.061,-0.064 -0.029,-0.033 -0.058,-0.066 -0.058,-0.066 -0.028,-0.034 -0.056,-0.068 -0.056,-0.068 -0.027,-0.035 -0.054,-0.07 -0.054,-0.07 -0.026,-0.036 -0.051,-0.071 -0.051,-0.071 -0.025,-0.036 -0.049,-0.073 -0.049,-0.073 -0.023,-0.037 -0.046,-0.075 -0.046,-0.075 -0.022,-0.038 -0.044,-0.076 -0.044,-0.076 -0.021,-0.039 -0.041,-0.078 -0.041,-0.078 -0.019,-0.039 -0.038,-0.079 -0.038,-0.079 -0.018,-0.04 -0.035,-0.08 -0.035,-0.08 -0.017,-0.041 -0.033,-0.082 -0.033,-0.082 -0.015,-0.041 -0.03,-0.083 -0.03,-0.083 -0.014,-0.042 -0.027,-0.084 -0.027,-0.084 -0.012,-0.042 -0.024,-0.085 -0.024,-0.085 -0.011,-0.043 -0.021,-0.085 -0.021,-0.085 -0.009,-0.043 -0.018,-0.086 -0.018,-0.086 -0.008,-0.043 -0.015,-0.087 -0.015,-0.087 -0.006,-0.043 -0.012,-0.087 -0.012,-0.087 -0.005,-0.044 -0.009,-0.087 -0.009,-0.087 -0.003,-0.044 -0.006,-0.088 -0.006,-0.088 -0.002,-0.044 -0.003,-0.088 -0.003,-0.088 0,-0.044 0,-10.445 0,-10.445 0,0 -0.002,-0.298 -0.002,-0.298 l -0.005,-0.299 -0.008,-0.3 c 0,0 -0.012,-0.301 -0.012,-0.301 l -0.015,-0.303 -0.019,-0.304 -0.022,-0.305 -0.026,-0.306 -0.029,-0.307 -0.033,-0.308 c 0,0 -0.037,-0.308 -0.037,-0.308 l -0.041,-0.309 -0.044,-0.31 c 0,0 -0.048,-0.311 -0.048,-0.311 0,0 -0.052,-0.311 -0.052,-0.311 0,0 -0.056,-0.312 -0.056,-0.312 0,0 -0.06,-0.312 -0.06,-0.312 l -0.064,-0.313 -0.068,-0.313 -0.072,-0.313 -0.076,-0.313 c 0,0 -0.08,-0.313 -0.08,-0.313 l -0.084,-0.314 -0.088,-0.313 c 0,0 -0.092,-0.313 -0.092,-0.313 0,0 -0.096,-0.313 -0.096,-0.313 l -0.1,-0.313 -0.104,-0.313 -0.108,-0.312 -0.112,-0.312 -0.117,-0.311 -0.121,-0.311 -0.125,-0.31 -0.129,-0.309 -0.133,-0.308 c 0,0 -0.137,-0.307 -0.137,-0.307 0,0 -0.142,-0.306 -0.142,-0.306 0,0 -0.146,-0.305 -0.146,-0.305 l -0.15,-0.304 c 0,0 -0.154,-0.302 -0.154,-0.302 l -0.158,-0.301 -0.162,-0.3 -0.166,-0.298 c 0,0 -0.17,-0.296 -0.17,-0.296 l -0.174,-0.295 -0.178,-0.293 -0.182,-0.291 -0.186,-0.289 -0.19,-0.287 -0.194,-0.285 -0.198,-0.283 -0.202,-0.28 -0.206,-0.278 c 0,0 -0.209,-0.276 -0.209,-0.276 l -0.213,-0.273 -0.217,-0.271 -0.22,-0.268 c 0,0 -0.224,-0.265 -0.224,-0.265 l -0.228,-0.263 -0.231,-0.26 -0.234,-0.257 -0.238,-0.254 -0.241,-0.251 -0.244,-0.248 -0.248,-0.244 -0.251,-0.241 -0.254,-0.238 -0.257,-0.234 -0.26,-0.231 c 0,0 -0.263,-0.228 -0.263,-0.228 0,0 -0.265,-0.224 -0.265,-0.224 l -0.268,-0.22 c 0,0 -0.271,-0.217 -0.271,-0.217 l -0.273,-0.213 c 0,0 -0.276,-0.209 -0.276,-0.209 0,0 -0.278,-0.206 -0.278,-0.206 l -0.28,-0.202 -0.283,-0.198 -0.285,-0.194 -0.287,-0.19 -0.289,-0.186 c 0,0 -0.291,-0.182 -0.291,-0.182 0,0 -0.293,-0.178 -0.293,-0.178 l -0.295,-0.174 -0.296,-0.17 -0.298,-0.166 -0.3,-0.162 -0.301,-0.158 -0.302,-0.154 c 0,0 -0.304,-0.15 -0.304,-0.15 l -0.305,-0.146 c 0,0 -0.306,-0.142 -0.306,-0.142 l -0.307,-0.137 c 0,0 -0.308,-0.133 -0.308,-0.133 l -0.309,-0.129 -0.31,-0.125 c 0,0 -0.31,-0.121 -0.31,-0.121 0,0 -0.311,-0.117 -0.311,-0.117 0,0 -0.308,-0.109 -0.308,-0.109 l -0.312,-0.108 -0.313,-0.104 -0.313,-0.1 c 0,0 -0.313,-0.096 -0.313,-0.096 l -0.313,-0.092 -0.313,-0.088 c 0,0 -0.314,-0.084 -0.314,-0.084 0,0 -0.313,-0.08 -0.313,-0.08 l -0.313,-0.076 -0.313,-0.072 c 0,0 -0.313,-0.068 -0.313,-0.068 0,0 -0.313,-0.064 -0.313,-0.064 l -0.312,-0.06 c 0,0 -0.312,-0.056 -0.312,-0.056 l -0.311,-0.052 c 0,0 -0.311,-0.048 -0.311,-0.048 l -0.31,-0.044 -0.309,-0.041 -0.308,-0.037 -0.308,-0.033 -0.307,-0.029 c 0,0 -0.306,-0.026 -0.306,-0.026 l -0.305,-0.022 c 0,0 -0.304,-0.019 -0.304,-0.019 l -0.303,-0.015 -0.301,-0.012 -0.3,-0.008 -0.299,-0.005 -0.298,-0.002 H 523.427 c 0,0 -0.298,0.002 -0.298,0.002 l -0.299,0.005 -0.3,0.008 -0.301,0.012 c 0,0 -0.303,0.015 -0.303,0.015 0,0 -0.304,0.019 -0.304,0.019 0,0 -0.305,0.022 -0.305,0.022 l -0.306,0.026 -0.307,0.029 -0.308,0.033 c 0,0 -0.308,0.037 -0.308,0.037 l -0.309,0.041 c 0,0 -0.31,0.044 -0.31,0.044 l -0.311,0.048 -0.311,0.052 -0.312,0.056 -0.312,0.06 c 0,0 -0.313,0.064 -0.313,0.064 0,0 -0.313,0.068 -0.313,0.068 l -0.313,0.072 -0.313,0.076 -0.313,0.08 -0.313,0.084 -0.313,0.088 -0.313,0.092 -0.313,0.096 c 0,0 -0.313,0.1 -0.313,0.1 l -0.313,0.104 -0.312,0.108 -0.312,0.112 -0.311,0.117 -0.31,0.121 -0.31,0.125 c 0,0 -0.309,0.129 -0.309,0.129 l -0.308,0.133 -0.307,0.137 -0.306,0.142 c 0,0 -0.305,0.146 -0.305,0.146 l -0.304,0.15 c 0,0 -0.302,0.154 -0.302,0.154 0,0 -0.301,0.158 -0.301,0.158 l -0.3,0.162 -0.298,0.166 -0.296,0.17 -0.295,0.174 c 0,0 -0.293,0.178 -0.293,0.178 0,0 -0.291,0.182 -0.291,0.182 l -0.289,0.186 c 0,0 -0.287,0.19 -0.287,0.19 l -0.285,0.194 -0.283,0.198 -0.28,0.202 -0.278,0.206 -0.276,0.209 -0.273,0.213 -0.271,0.217 c 0,0 -0.268,0.22 -0.268,0.22 l -0.265,0.224 -0.263,0.228 c 0,0 -0.26,0.231 -0.26,0.231 l -0.257,0.234 -0.254,0.238 -0.251,0.241 -0.248,0.244 -0.244,0.248 -0.241,0.251 -0.238,0.254 -0.234,0.257 -0.231,0.26 -0.228,0.263 -0.224,0.265 c 0,0 -0.22,0.268 -0.22,0.268 0,0 -0.217,0.271 -0.217,0.271 l -0.213,0.273 -0.209,0.276 c 0,0 -0.206,0.278 -0.206,0.278 l -0.202,0.28 -0.198,0.283 -0.194,0.285 -0.19,0.287 c 0,0 -0.186,0.289 -0.186,0.289 l -0.182,0.291 -0.178,0.293 -0.174,0.295 c 0,0 -0.17,0.296 -0.17,0.296 0,0 -0.166,0.298 -0.166,0.298 l -0.162,0.3 -0.158,0.301 c 0,0 -0.154,0.302 -0.154,0.302 0,0 -0.15,0.304 -0.15,0.304 0,0 -0.146,0.305 -0.146,0.305 l -0.142,0.306 c 0,0 -0.137,0.307 -0.137,0.307 l -0.133,0.308 c 0,0 -0.129,0.309 -0.129,0.309 l -0.125,0.31 -0.121,0.311 -0.117,0.311 -0.112,0.312 c 0,0 -0.108,0.312 -0.108,0.312 0,0 -0.104,0.313 -0.104,0.313 l -0.1,0.313 -0.096,0.313 c 0,0 -0.092,0.313 -0.092,0.313 l -0.088,0.313 -0.084,0.314 -0.08,0.313 -0.076,0.313 c 0,0 -0.072,0.313 -0.072,0.313 l -0.068,0.313 -0.064,0.313 -0.06,0.312 c 0,0 -0.056,0.312 -0.056,0.312 0,0 -0.052,0.311 -0.052,0.311 l -0.048,0.311 -0.044,0.31 -0.041,0.309 -0.037,0.308 -0.033,0.308 -0.029,0.307 -0.026,0.306 c 0,0 -0.022,0.305 -0.022,0.305 l -0.019,0.304 -0.015,0.303 c 0,0 -0.012,0.301 -0.012,0.301 0,0 -0.008,0.3 -0.008,0.3 l -0.005,0.299 -0.002,0.298 c 0,0 0,10.401 0,10.401 0,0.044 -0.001,0.088 -0.001,0.088 -0.002,0.044 -0.005,0.088 -0.005,0.088 -0.003,0.044 -0.008,0.088 -0.008,0.088 -0.005,0.044 -0.011,0.087 -0.011,0.087 -0.006,0.043 -0.014,0.087 -0.014,0.087 -0.008,0.043 -0.017,0.086 -0.017,0.086 -0.009,0.043 -0.02,0.086 -0.02,0.086 -0.011,0.043 -0.022,0.085 -0.022,0.085 -0.012,0.042 -0.025,0.084 -0.025,0.084 -0.014,0.042 -0.028,0.083 -0.028,0.083 -0.015,0.041 -0.031,0.082 -0.031,0.082 -0.017,0.041 -0.034,0.081 -0.034,0.081 -0.018,0.04 -0.037,0.08 -0.037,0.08 -0.019,0.039 -0.039,0.079 -0.039,0.079 -0.021,0.039 -0.042,0.077 -0.042,0.077 -0.022,0.038 -0.045,0.076 -0.045,0.076 -0.023,0.037 -0.047,0.074 -0.047,0.074 -0.025,0.036 -0.05,0.072 -0.05,0.072 -0.026,0.036 -0.052,0.071 -0.052,0.071 -0.027,0.035 -0.055,0.069 -0.055,0.069 -0.028,0.034 -0.057,0.067 -0.057,0.067 -0.029,0.033 -0.059,0.065 -0.059,0.065 -0.031,0.032 -0.062,0.063 -0.062,0.063 -0.032,0.031 -0.064,0.061 -0.064,0.061 -0.033,0.029 -0.066,0.058 -0.066,0.058 -0.034,0.028 -0.068,0.056 -0.068,0.056 -0.035,0.027 -0.07,0.054 -0.07,0.054 -0.036,0.026 -0.071,0.051 -0.071,0.051 -0.036,0.025 -0.073,0.049 -0.073,0.049 -0.037,0.023 -0.075,0.046 -0.075,0.046 -0.038,0.022 -0.076,0.044 -0.076,0.044 -0.039,0.021 -0.078,0.041 -0.078,0.041 -0.039,0.019 -0.079,0.038 -0.079,0.038 -0.04,0.018 -0.08,0.035 -0.08,0.035 -0.041,0.017 -0.082,0.033 -0.082,0.033 -0.041,0.015 -0.083,0.03 -0.083,0.03 -0.042,0.014 -0.084,0.027 -0.084,0.027 -0.042,0.012 -0.085,0.024 -0.085,0.024 -0.043,0.011 -0.085,0.021 -0.085,0.021 -0.043,0.009 -0.086,0.018 -0.086,0.018 -0.043,0.008 -0.087,0.015 -0.087,0.015 -0.043,0.006 -0.087,0.012 -0.087,0.012 -0.044,0.005 -0.087,0.009 -0.087,0.009 -0.044,0.003 -0.088,0.006 -0.088,0.006 -0.044,0.002 -0.088,0.003 -0.088,0.003 -0.044,0 -7.517,0 -7.517,0"
         id="path14754"
         style="stroke:#80ffe6;stroke-opacity:1" />
      <path
         fill="none"
         stroke="#00b9d2"
         stroke-width="2"
         stroke-linecap="round"
         stroke-linejoin="round"
         stroke-miterlimit="10"
         d="m 630.549,231.868 c 1.979,0.154 3.964,-0.404 5.698,-1.339 2.355,-1.261 4.285,-3.245 5.587,-5.569 1.401,-2.471 2.167,-5.364 1.851,-8.208 -1.872,0.086 -3.689,0.713 -5.339,1.579 -2.25,1.185 -4.198,2.904 -5.564,5.056 -1.594,2.491 -2.618,5.501 -2.233,8.481 z"
         id="path14757"
         style="stroke:#80ffe6;stroke-opacity:1" />
      <path
         fill="none"
         stroke="#00b9d2"
         stroke-width="2"
         stroke-linecap="round"
         stroke-linejoin="round"
         stroke-miterlimit="10"
         d="m 648.531,251.598 c -0.025,-2.16 0.452,-4.329 1.413,-6.265 1.264,-2.541 3.271,-4.713 5.676,-6.214 -1.075,-1.578 -2.459,-2.95 -4.061,-3.991 -2.354,-1.531 -5.139,-2.38 -7.939,-2.515 -1.945,-0.199 -3.904,0.196 -5.75,0.793 -1.688,0.527 -3.737,1.483 -5.432,1.983 -0.479,0.134 -0.999,0.246 -1.494,0.227 -0.925,-0.041 -1.819,-0.362 -2.682,-0.675 0,0 -2.694,-1.047 -2.694,-1.047 -1.365,-0.506 -2.783,-0.947 -4.238,-1.082 -1.729,-0.143 -3.49,0.098 -5.153,0.577 -5.533,1.631 -9.577,6.109 -11.215,11.569 -2.636,8.683 0.109,19.383 4.576,27.051 1.107,1.861 2.419,3.685 3.753,5.39 1.573,1.932 3.412,3.893 5.85,4.665 1.345,0.429 2.799,0.303 4.149,-0.038 1.072,-0.258 2.501,-0.917 3.529,-1.338 0.9,-0.365 1.842,-0.671 2.799,-0.841 1.519,-0.265 3.098,-0.273 4.614,0.012 1.412,0.249 2.887,0.926 4.203,1.49 0.736,0.306 1.503,0.577 2.286,0.731 0.87,0.171 1.77,0.224 2.653,0.139 3.784,-0.39 6.325,-3.65 8.389,-6.534 2.277,-3.126 4.174,-6.593 5.397,-10.266 l 0.176,-0.552 -0.114,-0.047 c -2.708,-1.204 -5.068,-3.232 -6.628,-5.755 -1.381,-2.228 -2.049,-4.856 -2.063,-7.467"
         id="path14760"
         style="stroke:#80ffe6;stroke-opacity:1" />
      <polygon
         fill="none"
         stroke="#00b9d2"
         stroke-width="2"
         stroke-linecap="round"
         stroke-linejoin="round"
         stroke-miterlimit="10"
         points="513.21,141.105 513.072,140.92 512.937,140.733 512.805,140.544 512.677,140.352 512.552,140.158 512.43,139.962 512.312,139.764 512.197,139.564 512.086,139.362 511.978,139.158 511.874,138.952 511.773,138.744 511.676,138.535 511.583,138.324 511.493,138.112 511.407,137.898 511.325,137.682 511.247,137.465 511.172,137.247 511.101,137.027 511.034,136.807 510.971,136.585 510.911,136.362 510.856,136.138 510.804,135.913 510.757,135.688 510.713,135.461 510.673,135.234 510.637,135.006 510.605,134.777 510.577,134.548 510.553,134.319 510.533,134.089 510.517,133.859 510.505,133.629 510.497,133.398 510.493,133.168 510.493,132.937 510.497,132.706 510.505,132.476 510.517,132.245 510.533,132.015 510.553,131.785 510.577,131.556 510.605,131.327 510.637,131.099 510.673,130.871 510.713,130.643 510.757,130.417 510.804,130.191 510.856,129.966 510.911,129.743 510.971,129.52 511.034,129.298 511.101,129.077 511.172,128.858 511.247,128.639 511.325,128.422 511.407,128.207 511.493,127.993 511.583,127.78 511.676,127.569 511.773,127.36 511.874,127.152 511.978,126.947 512.086,126.743 512.197,126.541 512.312,126.341 512.43,126.142 512.552,125.946 512.677,125.753 512.805,125.561 512.937,125.371 513.072,125.184 513.21,125 513.351,124.817 513.496,124.638 513.643,124.46 513.794,124.286 513.948,124.114 514.104,123.944 514.264,123.778 514.426,123.614 514.592,123.453 514.76,123.295 514.93,123.14 515.104,122.987 515.28,122.838 515.458,122.692 515.639,122.549 515.823,122.41 516.009,122.273 516.197,122.14 516.387,122.01 516.58,121.883 516.775,121.76 516.972,121.64 517.171,121.523 517.372,121.41 517.575,121.301 517.78,121.195 517.987,121.092 518.195,120.993 518.406,120.898 518.617,120.807 518.831,120.719 519.045,120.635 519.262,120.555 519.479,120.478 519.698,120.405 519.918,120.336 520.14,120.271 520.362,120.21 520.585,120.152 520.81,120.099 521.035,120.049 521.261,120.003 521.488,119.961 521.716,119.924 521.944,119.89 522.172,119.86 522.402,119.834 522.631,119.812 522.861,119.794 523.091,119.78 523.322,119.77 523.553,119.764 523.783,119.762 564.066,119.762 564.296,119.764 564.527,119.77 564.757,119.78 564.988,119.794 565.218,119.812 565.447,119.834 565.676,119.86 565.905,119.89 566.133,119.924 566.361,119.961 566.588,120.003 566.814,120.049 567.039,120.099 567.263,120.152 567.487,120.21 567.709,120.271 567.93,120.336 568.151,120.405 568.37,120.478 568.587,120.555 568.803,120.635 569.018,120.719 569.231,120.807 569.443,120.898 569.653,120.993 569.862,121.092 570.068,121.195 570.273,121.301 570.476,121.41 570.677,121.523 570.877,121.64 571.074,121.76 571.269,121.883 571.461,122.01 571.652,122.14 571.84,122.273 572.026,122.41 572.21,122.549 572.391,122.692 572.569,122.838 572.745,122.987 572.919,123.14 573.089,123.295 573.257,123.453 573.422,123.614 573.585,123.778 573.744,123.944 573.901,124.114 574.055,124.286 574.205,124.46 574.353,124.638 574.497,124.817 574.639,125 574.777,125.184 574.912,125.371 575.044,125.561 575.172,125.753 575.297,125.946 575.419,126.142 575.537,126.341 575.652,126.541 575.763,126.743 575.871,126.947 575.975,127.152 576.075,127.36 576.172,127.569 576.266,127.78 576.355,127.993 576.441,128.207 576.524,128.422 576.602,128.639 576.677,128.858 576.748,129.077 576.815,129.298 576.878,129.52 576.937,129.743 576.993,129.966 577.044,130.191 577.092,130.417 577.136,130.643 577.176,130.871 577.212,131.099 577.244,131.327 577.272,131.556 577.296,131.785 577.316,132.015 577.332,132.245 577.344,132.476 577.352,132.706 577.356,132.937 577.356,133.168 577.352,133.398 577.344,133.629 577.332,133.859 577.316,134.089 577.296,134.319 577.272,134.548 577.244,134.777 577.212,135.006 577.176,135.234 577.136,135.461 577.092,135.688 577.044,135.913 576.993,136.138 576.937,136.362 576.878,136.585 576.815,136.807 576.748,137.027 576.677,137.247 576.602,137.465 576.524,137.682 576.441,137.898 576.355,138.112 576.266,138.324 576.172,138.535 576.075,138.744 575.975,138.952 575.871,139.158 575.763,139.362 575.652,139.564 575.537,139.764 575.419,139.962 575.297,140.158 575.172,140.352 575.044,140.544 574.912,140.733 574.777,140.92 574.639,141.105 574.497,141.287 574.353,141.467 574.205,141.644 574.055,141.819 573.901,141.991 573.744,142.16 573.585,142.327 573.422,142.491 573.257,142.652 573.089,142.81 572.919,142.965 572.745,143.117 572.569,143.266 572.391,143.412 572.21,143.555 572.026,143.695 571.84,143.832 571.652,143.965 571.461,144.095 571.269,144.222 571.074,144.345 570.877,144.465 570.677,144.581 570.476,144.694 570.273,144.804 570.068,144.91 569.862,145.012 569.653,145.111 569.443,145.206 569.231,145.298 569.018,145.386 568.803,145.47 568.587,145.55 568.37,145.627 568.151,145.699 567.93,145.768 567.709,145.834 567.487,145.895 567.263,145.952 567.039,146.006 566.814,146.056 566.588,146.101 566.361,146.143 566.133,146.181 565.905,146.215 565.676,146.245 565.447,146.271 565.218,146.293 564.988,146.311 564.757,146.325 564.527,146.335 564.296,146.341 564.066,146.343 523.783,146.343 523.553,146.341 523.322,146.335 523.091,146.325 522.861,146.311 522.631,146.293 522.402,146.271 522.172,146.245 521.944,146.215 521.716,146.181 521.488,146.143 521.261,146.101 521.035,146.056 520.81,146.006 520.585,145.952 520.362,145.895 520.14,145.834 519.918,145.768 519.698,145.699 519.479,145.627 519.262,145.55 519.045,145.47 518.831,145.386 518.617,145.298 518.406,145.206 518.195,145.111 517.987,145.012 517.78,144.91 517.575,144.804 517.372,144.694 517.171,144.581 516.972,144.465 516.775,144.345 516.58,144.222 516.387,144.095 516.197,143.965 516.009,143.832 515.823,143.695 515.639,143.555 515.458,143.412 515.28,143.266 515.104,143.117 514.93,142.965 514.76,142.81 514.592,142.652 514.426,142.491 514.264,142.327 514.104,142.16 513.948,141.991 513.794,141.819 513.643,141.644 513.496,141.467 513.351,141.287 "
         id="polygon14763"
         style="stroke:#80ffe6;stroke-opacity:1" />
      <rect
         x="484.48199"
         y="206.52499"
         fill="none"
         stroke="#00b9d2"
         stroke-width="2.75"
         stroke-linecap="round"
         stroke-linejoin="round"
         stroke-miterlimit="10"
         width="2.052"
         height="38.629002"
         id="rect14785"
         style="stroke:#80ffe6;stroke-opacity:1" />
      <path
         fill="none"
         stroke="#00b9d2"
         stroke-width="2.75"
         stroke-linecap="round"
         stroke-linejoin="round"
         stroke-miterlimit="10"
         d="m 594.072,133.052 c 0.013,-1.165 -0.837,-2.207 -1.918,-2.465 -1.615,-0.413 -3.164,0.839 -3.167,2.443 -0.019,1.667 1.565,2.876 3.124,2.497 1.153,-0.258 1.975,-1.344 1.961,-2.475 z"
         id="path14791"
         style="stroke:#80ffe6;stroke-opacity:1" />
      <path
         fill="none"
         stroke="#00b9d2"
         stroke-width="2.75"
         stroke-linecap="round"
         stroke-linejoin="round"
         stroke-miterlimit="10"
         d="m 616.356,133.052 c 0.01,-3.352 -2.306,-6.328 -5.558,-7.141 -4.63,-1.166 -9.126,2.303 -9.174,7.077 -0.034,4.828 4.492,8.383 9.174,7.205 3.252,-0.813 5.568,-3.789 5.558,-7.141 z"
         id="path14794"
         style="stroke:#80ffe6;stroke-opacity:1" />
      <path
         fill="none"
         stroke="#00b9d2"
         stroke-width="2.75"
         stroke-linecap="round"
         stroke-linejoin="round"
         stroke-miterlimit="10"
         d="m 570.608,133.052 c 0.01,-2.975 -2.05,-5.622 -4.936,-6.342 -4.109,-1.036 -8.107,2.047 -8.148,6.285 -0.032,4.286 3.992,7.446 8.148,6.399 2.886,-0.72 4.946,-3.367 4.936,-6.342 z"
         id="path14797"
         style="stroke:#80ffe6;stroke-opacity:1" />
      <path
         fill="none"
         stroke="#00b9d2"
         stroke-width="2.75"
         stroke-linecap="round"
         stroke-linejoin="round"
         stroke-miterlimit="10"
         d="m 532.716,133.052 c 0.011,-4.067 -2.794,-7.672 -6.74,-8.66 -5.617,-1.412 -11.065,2.791 -11.125,8.582 -0.04,5.857 5.445,10.164 11.125,8.737 3.946,-0.987 6.751,-4.591 6.74,-8.659 z"
         id="path14800"
         style="stroke:#80ffe6;stroke-opacity:1" />
      <polygon
         fill="none"
         stroke="#00b9d2"
         stroke-width="2.75"
         stroke-linecap="round"
         stroke-linejoin="round"
         stroke-miterlimit="10"
         points="509.911,143.728 509.729,143.487 509.551,143.243 509.377,142.996 509.208,142.746 509.042,142.493 508.882,142.237 508.725,141.978 508.574,141.717 508.426,141.453 508.284,141.187 508.145,140.918 508.012,140.647 507.883,140.374 507.759,140.098 507.64,139.821 507.526,139.541 507.416,139.26 507.311,138.976 507.212,138.691 507.117,138.404 507.027,138.116 506.942,137.826 506.862,137.534 506.787,137.241 506.717,136.947 506.653,136.652 506.593,136.356 506.539,136.059 506.489,135.761 506.445,135.462 506.406,135.162 506.372,134.862 506.344,134.561 506.32,134.26 506.302,133.958 506.289,133.656 506.281,133.354 506.279,133.052 506.281,132.75 506.289,132.448 506.302,132.146 506.32,131.845 506.344,131.543 506.372,131.243 506.406,130.942 506.445,130.643 506.489,130.344 506.539,130.046 506.593,129.748 506.653,129.452 506.717,129.157 506.787,128.863 506.862,128.57 506.942,128.279 507.027,127.989 507.117,127.7 507.212,127.414 507.311,127.128 507.416,126.845 507.526,126.563 507.64,126.284 507.759,126.006 507.883,125.731 508.012,125.457 508.145,125.186 508.284,124.917 508.426,124.651 508.574,124.387 508.725,124.126 508.882,123.867 509.042,123.612 509.208,123.359 509.377,123.108 509.551,122.861 509.729,122.617 509.911,122.376 510.098,122.138 510.288,121.904 510.482,121.672 510.681,121.444 510.883,121.22 511.089,120.999 511.299,120.782 511.513,120.568 511.73,120.358 511.951,120.152 512.175,119.95 512.403,119.751 512.635,119.557 512.869,119.366 513.107,119.18 513.348,118.998 513.592,118.82 513.839,118.646 514.09,118.477 514.343,118.311 514.598,118.151 514.857,117.994 515.118,117.843 515.382,117.695 515.648,117.553 515.917,117.414 516.188,117.281 516.462,117.152 516.737,117.028 517.015,116.909 517.294,116.795 517.576,116.685 517.859,116.58 518.145,116.481 518.432,116.386 518.72,116.296 519.01,116.211 519.301,116.131 519.594,116.056 519.888,115.986 520.183,115.922 520.479,115.862 520.777,115.808 521.075,115.758 521.374,115.714 521.673,115.675 521.974,115.641 522.274,115.613 522.576,115.589 522.877,115.571 523.179,115.558 523.481,115.55 523.783,115.548 564.066,115.548 564.368,115.55 564.67,115.558 564.972,115.571 565.273,115.589 565.574,115.613 565.875,115.641 566.176,115.675 566.475,115.714 566.774,115.758 567.072,115.808 567.369,115.862 567.666,115.922 567.961,115.986 568.255,116.056 568.547,116.131 568.839,116.211 569.129,116.296 569.417,116.386 569.704,116.481 569.989,116.58 570.273,116.685 570.554,116.795 570.834,116.909 571.112,117.028 571.387,117.152 571.661,117.281 571.932,117.414 572.2,117.553 572.467,117.695 572.731,117.843 572.992,117.994 573.25,118.151 573.506,118.311 573.759,118.477 574.009,118.646 574.257,118.82 574.501,118.998 574.742,119.18 574.98,119.366 575.214,119.557 575.445,119.751 575.673,119.95 575.898,120.152 576.119,120.358 576.336,120.568 576.55,120.782 576.76,120.999 576.966,121.22 577.168,121.444 577.366,121.672 577.561,121.904 577.751,122.138 577.938,122.376 578.12,122.617 578.298,122.861 578.472,123.108 578.641,123.359 578.806,123.612 578.967,123.867 579.123,124.126 579.275,124.387 579.422,124.651 579.565,124.917 579.703,125.186 579.837,125.457 579.966,125.731 580.09,126.006 580.209,126.284 580.323,126.563 580.433,126.845 580.537,127.128 580.637,127.414 580.732,127.7 580.822,127.989 580.907,128.279 580.987,128.57 581.062,128.863 581.131,129.157 581.196,129.452 581.256,129.748 581.31,130.046 581.359,130.344 581.404,130.643 581.443,130.942 581.477,131.243 581.505,131.543 581.529,131.845 581.547,132.146 581.56,132.448 581.568,132.75 581.57,133.052 581.568,133.354 581.56,133.656 581.547,133.958 581.529,134.26 581.505,134.561 581.477,134.862 581.443,135.162 581.404,135.462 581.359,135.761 581.31,136.059 581.256,136.356 581.196,136.652 581.131,136.947 581.062,137.241 580.987,137.534 580.907,137.826 580.822,138.116 580.732,138.404 580.637,138.691 580.537,138.976 580.433,139.26 580.323,139.541 580.209,139.821 580.09,140.098 579.966,140.374 579.837,140.647 579.703,140.918 579.565,141.187 579.422,141.453 579.275,141.717 579.123,141.978 578.967,142.237 578.806,142.493 578.641,142.746 578.472,142.996 578.298,143.243 578.12,143.487 577.938,143.728 577.751,143.966 577.561,144.201 577.366,144.432 577.168,144.66 576.966,144.884 576.76,145.105 576.55,145.323 576.336,145.536 576.119,145.746 575.898,145.952 575.673,146.155 575.445,146.353 575.214,146.548 574.98,146.738 574.742,146.924 574.501,147.107 574.257,147.285 574.009,147.458 573.759,147.628 573.506,147.793 573.25,147.954 572.992,148.11 572.731,148.262 572.467,148.409 572.2,148.552 571.932,148.69 571.661,148.823 571.387,148.952 571.112,149.076 570.834,149.195 570.554,149.31 570.273,149.419 569.989,149.524 569.704,149.624 569.417,149.719 569.129,149.809 568.839,149.894 568.547,149.973 568.255,150.048 567.961,150.118 567.666,150.183 567.369,150.242 567.072,150.297 566.774,150.346 566.475,150.39 566.176,150.429 565.875,150.463 565.574,150.492 565.273,150.515 564.972,150.534 564.67,150.547 564.368,150.554 564.066,150.557 523.783,150.557 523.481,150.554 523.179,150.547 522.877,150.534 522.576,150.515 522.274,150.492 521.974,150.463 521.673,150.429 521.374,150.39 521.075,150.346 520.777,150.297 520.479,150.242 520.183,150.183 519.888,150.118 519.594,150.048 519.301,149.973 519.01,149.894 518.72,149.809 518.432,149.719 518.145,149.624 517.859,149.524 517.576,149.419 517.294,149.31 517.015,149.195 516.737,149.076 516.462,148.952 516.188,148.823 515.917,148.69 515.648,148.552 515.382,148.409 515.118,148.262 514.857,148.11 514.598,147.954 514.343,147.793 514.09,147.628 513.839,147.458 513.592,147.285 513.348,147.107 513.107,146.924 512.869,146.738 512.635,146.548 512.403,146.353 512.175,146.155 511.951,145.952 511.73,145.746 511.513,145.536 511.299,145.323 511.089,145.105 510.883,144.884 510.681,144.66 510.482,144.432 510.288,144.201 510.098,143.966 "
         id="polygon14803"
         style="stroke:#80ffe6;stroke-opacity:1" />
      <rect
         x="773.935"
         y="253"
         fill="none"
         stroke="#00b9d2"
         stroke-width="2.75"
         stroke-linecap="round"
         stroke-linejoin="round"
         stroke-miterlimit="10"
         width="2.052"
         height="36.894001"
         id="rect14806"
         style="stroke:#80ffe6;stroke-opacity:1" />
      <rect
         x="773.935"
         y="206.883"
         fill="none"
         stroke="#00b9d2"
         stroke-width="2.75"
         stroke-linecap="round"
         stroke-linejoin="round"
         stroke-miterlimit="10"
         width="2.052"
         height="36.894001"
         id="rect14809"
         style="stroke:#80ffe6;stroke-opacity:1" />
      <rect
         x="773.935"
         y="164.455"
         fill="none"
         stroke="#00b9d2"
         stroke-width="2.75"
         stroke-linecap="round"
         stroke-linejoin="round"
         stroke-miterlimit="10"
         width="2.052"
         height="20.291"
         id="rect14812"
         style="stroke:#80ffe6;stroke-opacity:1" />
      <polygon
         fill="none"
         stroke="#00b9d2"
         stroke-width="2.75"
         stroke-linecap="round"
         stroke-linejoin="round"
         stroke-miterlimit="10"
         points="759.548,103.084 759.924,103.377 760.295,103.674 760.663,103.977 761.027,104.285 761.388,104.597 761.744,104.914 762.096,105.236 762.445,105.563 762.789,105.894 763.129,106.229 763.464,106.569 763.795,106.913 764.122,107.262 764.444,107.614 764.761,107.97 765.073,108.331 765.381,108.695 765.684,109.063 765.981,109.435 766.274,109.81 766.562,110.188 766.844,110.57 767.121,110.955 767.393,111.343 767.66,111.734 767.921,112.128 768.177,112.525 768.427,112.925 768.672,113.327 768.911,113.731 769.145,114.138 769.373,114.547 769.596,114.959 769.813,115.372 770.024,115.787 770.23,116.204 770.43,116.623 770.624,117.043 770.813,117.464 770.996,117.887 771.173,118.311 771.344,118.737 771.51,119.163 771.67,119.59 771.824,120.018 771.973,120.446 772.116,120.876 772.253,121.305 772.385,121.735 772.511,122.165 772.631,122.596 772.746,123.026 772.855,123.456 772.959,123.887 773.057,124.316 773.15,124.746 773.237,125.175 773.319,125.604 773.395,126.032 773.467,126.459 773.533,126.885 773.593,127.311 773.649,127.735 773.7,128.159 773.745,128.581 773.785,129.002 773.821,129.422 773.851,129.84 773.877,130.257 773.898,130.672 773.914,131.086 773.926,131.498 773.932,131.908 773.935,132.317 773.935,642.186 773.932,642.594 773.926,643.005 773.914,643.417 773.898,643.831 773.877,644.246 773.851,644.663 773.821,645.081 773.785,645.501 773.745,645.922 773.7,646.344 773.649,646.768 773.593,647.192 773.533,647.618 773.467,648.044 773.395,648.471 773.319,648.899 773.237,649.328 773.15,649.757 773.057,650.186 772.959,650.616 772.855,651.046 772.746,651.477 772.631,651.907 772.511,652.338 772.385,652.768 772.253,653.198 772.116,653.627 771.973,654.056 771.824,654.485 771.67,654.913 771.51,655.34 771.344,655.766 771.173,656.192 770.996,656.616 770.813,657.039 770.624,657.46 770.43,657.88 770.23,658.299 770.024,658.716 769.813,659.131 769.596,659.544 769.373,659.955 769.145,660.365 768.911,660.771 768.672,661.176 768.427,661.578 768.177,661.978 767.921,662.374 767.66,662.768 767.393,663.16 767.121,663.548 766.844,663.933 766.562,664.315 766.274,664.693 765.981,665.068 765.684,665.44 765.381,665.808 765.073,666.172 764.761,666.532 764.444,666.889 764.122,667.241 763.795,667.59 763.464,667.934 763.129,668.274 762.789,668.609 762.445,668.94 762.096,669.267 761.744,669.589 761.388,669.906 761.027,670.218 760.663,670.526 760.295,670.828 759.924,671.126 759.548,671.419 759.17,671.706 758.788,671.989 758.403,672.266 758.015,672.538 757.624,672.804 757.23,673.066 756.833,673.322 756.433,673.572 756.031,673.817 755.627,674.056 755.22,674.29 754.811,674.518 754.399,674.741 753.986,674.958 753.571,675.169 753.154,675.375 752.735,675.575 752.315,675.769 751.894,675.958 751.471,676.141 751.047,676.318 750.621,676.489 750.195,676.655 749.768,676.815 749.34,676.969 748.912,677.118 748.482,677.261 748.053,677.398 747.623,677.529 747.193,677.655 746.762,677.776 746.332,677.891 745.902,678 745.471,678.103 745.042,678.202 744.612,678.294 744.183,678.382 743.754,678.464 743.326,678.54 742.899,678.611 742.473,678.677 742.047,678.738 741.623,678.794 741.2,678.844 740.777,678.89 740.356,678.93 739.936,678.966 739.518,678.996 739.101,679.022 738.686,679.043 738.272,679.059 737.86,679.07 737.45,679.077 737.041,679.08 523.427,679.08 523.019,679.077 522.609,679.07 522.196,679.059 521.783,679.043 521.367,679.022 520.95,678.996 520.532,678.966 520.112,678.93 519.691,678.89 519.269,678.844 518.846,678.794 518.421,678.738 517.996,678.677 517.569,678.611 517.142,678.54 516.714,678.464 516.286,678.382 515.857,678.294 515.427,678.202 514.997,678.103 514.567,678 514.137,677.891 513.706,677.776 513.276,677.655 512.846,677.529 512.416,677.398 511.986,677.261 511.557,677.118 511.128,676.969 510.7,676.815 510.273,676.655 509.847,676.489 509.422,676.318 508.998,676.141 508.575,675.958 508.153,675.769 507.733,675.575 507.314,675.375 506.898,675.169 506.482,674.958 506.069,674.741 505.658,674.518 505.249,674.29 504.842,674.056 504.437,673.817 504.035,673.572 503.636,673.322 503.239,673.066 502.845,672.804 502.454,672.538 502.066,672.266 501.68,671.989 501.299,671.706 500.92,671.419 500.545,671.126 500.173,670.828 499.806,670.526 499.441,670.218 499.081,669.906 498.724,669.589 498.372,669.267 498.024,668.94 497.68,668.609 497.34,668.274 497.004,667.934 496.673,667.59 496.347,667.241 496.025,666.889 495.708,666.532 495.395,666.172 495.088,665.808 494.785,665.44 494.487,665.068 494.195,664.693 493.907,664.315 493.625,663.933 493.347,663.548 493.076,663.16 492.809,662.768 492.548,662.374 492.292,661.978 492.041,661.578 491.797,661.176 491.557,660.771 491.323,660.365 491.095,659.955 490.872,659.544 490.655,659.131 490.444,658.716 490.238,658.299 490.038,657.88 489.844,657.46 489.656,657.039 489.473,656.616 489.296,656.192 489.124,655.766 488.959,655.34 488.799,654.913 488.644,654.485 488.496,654.056 488.353,653.627 488.216,653.198 488.084,652.768 487.958,652.338 487.838,651.907 487.723,651.477 487.614,651.046 487.51,650.616 487.412,650.186 487.319,649.757 487.232,649.328 487.15,648.899 487.073,648.471 487.002,648.044 486.936,647.618 486.875,647.192 486.819,646.768 486.769,646.344 486.724,645.922 486.683,645.501 486.648,645.081 486.617,644.663 486.591,644.246 486.571,643.831 486.554,643.417 486.543,643.005 486.536,642.594 486.534,642.186 486.534,132.317 486.536,131.908 486.543,131.498 486.554,131.086 486.571,130.672 486.591,130.257 486.617,129.84 486.648,129.422 486.683,129.002 486.724,128.581 486.769,128.159 486.819,127.735 486.875,127.311 486.936,126.885 487.002,126.459 487.073,126.032 487.15,125.604 487.232,125.175 487.319,124.746 487.412,124.316 487.51,123.887 487.614,123.456 487.723,123.026 487.838,122.596 487.958,122.165 488.084,121.735 488.216,121.305 488.353,120.876 488.496,120.446 488.644,120.018 488.799,119.59 488.959,119.163 489.124,118.737 489.296,118.311 489.473,117.887 489.656,117.464 489.844,117.043 490.038,116.623 490.238,116.204 490.444,115.787 490.655,115.372 490.872,114.959 491.095,114.547 491.323,114.138 491.557,113.731 491.797,113.327 492.041,112.925 492.292,112.525 492.548,112.128 492.809,111.734 493.076,111.343 493.347,110.955 493.625,110.57 493.907,110.188 494.195,109.81 494.487,109.435 494.785,109.063 495.088,108.695 495.395,108.331 495.708,107.97 496.025,107.614 496.347,107.262 496.673,106.913 497.004,106.569 497.34,106.229 497.68,105.894 498.024,105.563 498.372,105.236 498.724,104.914 499.081,104.597 499.441,104.285 499.806,103.977 500.173,103.674 500.545,103.377 500.92,103.084 501.299,102.797 501.68,102.514 502.066,102.237 502.454,101.965 502.845,101.698 503.239,101.437 503.636,101.181 504.035,100.931 504.437,100.686 504.842,100.447 505.249,100.213 505.658,99.985 506.069,99.762 506.482,99.545 506.898,99.334 507.314,99.128 507.733,98.928 508.153,98.734 508.575,98.545 508.998,98.362 509.422,98.185 509.847,98.014 510.273,97.848 510.7,97.688 511.128,97.534 511.557,97.385 511.986,97.242 512.416,97.105 512.846,96.973 513.276,96.847 513.706,96.727 514.137,96.612 514.567,96.503 514.997,96.399 515.427,96.301 515.857,96.209 516.286,96.121 516.714,96.039 517.142,95.963 517.569,95.891 517.996,95.825 518.421,95.765 518.846,95.709 519.269,95.658 519.691,95.613 520.112,95.573 520.532,95.537 520.95,95.507 521.367,95.481 521.783,95.46 522.196,95.444 522.609,95.432 523.019,95.426 523.427,95.423 737.041,95.423 737.45,95.426 737.86,95.432 738.272,95.444 738.686,95.46 739.101,95.481 739.518,95.507 739.936,95.537 740.356,95.573 740.777,95.613 741.2,95.658 741.623,95.709 742.047,95.765 742.473,95.825 742.899,95.891 743.326,95.963 743.754,96.039 744.183,96.121 744.612,96.209 745.042,96.301 745.471,96.399 745.902,96.503 746.332,96.612 746.762,96.727 747.193,96.847 747.623,96.973 748.053,97.105 748.482,97.242 748.912,97.385 749.34,97.534 749.768,97.688 750.195,97.848 750.621,98.014 751.047,98.185 751.471,98.362 751.894,98.545 752.315,98.734 752.735,98.928 753.154,99.128 753.571,99.334 753.986,99.545 754.399,99.762 754.811,99.985 755.22,100.213 755.627,100.447 756.031,100.686 756.433,100.931 756.833,101.181 757.23,101.437 757.624,101.698 758.015,101.965 758.403,102.237 758.788,102.514 759.17,102.797 "
         id="polygon14815"
         style="stroke:#80ffe6;stroke-opacity:1" />
      <polygon
         fill="none"
         stroke="#00b9d2"
         stroke-width="3.25"
         stroke-linecap="round"
         stroke-linejoin="round"
         stroke-miterlimit="10"
         points="493.907,110.188 494.195,109.81 494.487,109.435 494.785,109.063 495.088,108.695 495.395,108.331 495.708,107.97 496.025,107.614 496.347,107.262 496.673,106.913 497.004,106.569 497.34,106.229 497.68,105.894 498.024,105.563 498.372,105.236 498.724,104.914 499.081,104.597 499.441,104.285 499.806,103.977 500.173,103.674 500.545,103.377 500.92,103.084 501.299,102.797 501.68,102.514 502.066,102.237 502.454,101.965 502.845,101.698 503.239,101.437 503.636,101.181 504.035,100.931 504.437,100.686 504.842,100.447 505.249,100.213 505.658,99.985 506.069,99.762 506.482,99.545 506.898,99.334 507.314,99.128 507.733,98.928 508.153,98.734 508.575,98.545 508.998,98.362 509.422,98.185 509.847,98.014 510.273,97.848 510.7,97.688 511.128,97.534 511.557,97.385 511.986,97.242 512.416,97.105 512.846,96.973 513.276,96.847 513.706,96.727 514.137,96.612 514.567,96.503 514.997,96.399 515.427,96.301 515.857,96.209 516.286,96.121 516.714,96.039 517.142,95.963 517.569,95.891 517.996,95.825 518.421,95.765 518.846,95.709 519.269,95.658 519.691,95.613 520.112,95.573 520.532,95.537 520.95,95.507 521.367,95.481 521.783,95.46 522.196,95.444 522.609,95.432 523.019,95.426 523.427,95.423 737.041,95.423 737.45,95.426 737.86,95.432 738.272,95.444 738.686,95.46 739.101,95.481 739.518,95.507 739.936,95.537 740.356,95.573 740.777,95.613 741.2,95.658 741.623,95.709 742.047,95.765 742.473,95.825 742.899,95.891 743.326,95.963 743.754,96.039 744.183,96.121 744.612,96.209 745.042,96.301 745.471,96.399 745.902,96.503 746.332,96.612 746.762,96.727 747.193,96.847 747.623,96.973 748.053,97.105 748.482,97.242 748.912,97.385 749.34,97.534 749.768,97.688 750.195,97.848 750.621,98.014 751.047,98.185 751.471,98.362 751.894,98.545 752.315,98.734 752.735,98.928 753.154,99.128 753.571,99.334 753.986,99.545 754.399,99.762 754.811,99.985 755.22,100.213 755.627,100.447 756.031,100.686 756.433,100.931 756.833,101.181 757.23,101.437 757.624,101.698 758.015,101.965 758.403,102.237 758.788,102.514 759.17,102.797 759.548,103.084 759.924,103.377 760.295,103.674 760.663,103.977 761.027,104.285 761.388,104.597 761.744,104.914 762.096,105.236 762.445,105.563 762.789,105.894 763.129,106.229 763.464,106.569 763.795,106.913 764.122,107.262 764.444,107.614 764.761,107.97 765.073,108.331 765.381,108.695 765.684,109.063 765.981,109.435 766.274,109.81 766.562,110.188 766.844,110.57 767.121,110.955 767.393,111.343 767.66,111.734 767.921,112.128 768.177,112.525 768.427,112.925 768.672,113.327 768.911,113.731 769.145,114.138 769.373,114.547 769.596,114.959 769.813,115.372 770.024,115.787 770.23,116.204 770.43,116.623 770.624,117.043 770.813,117.464 770.996,117.887 771.173,118.311 771.344,118.737 771.51,119.163 771.67,119.59 771.824,120.018 771.973,120.446 772.116,120.876 772.253,121.305 772.385,121.735 772.511,122.165 772.631,122.596 772.746,123.026 772.855,123.456 772.959,123.887 773.057,124.316 773.15,124.746 773.237,125.175 773.319,125.604 773.395,126.032 773.467,126.459 773.533,126.885 773.593,127.311 773.649,127.735 773.7,128.159 773.745,128.581 773.785,129.002 773.821,129.422 773.851,129.84 773.877,130.257 773.898,130.672 773.914,131.086 773.926,131.498 773.932,131.908 773.935,132.317 773.935,145.263 773.935,164.455 775.987,164.455 775.987,184.747 773.935,184.747 773.935,206.883 775.987,206.883 775.987,243.776 773.935,243.776 773.935,253 775.987,253 775.987,289.893 773.935,289.893 773.935,642.186 773.932,642.594 773.926,643.005 773.914,643.417 773.898,643.831 773.877,644.246 773.851,644.663 773.821,645.081 773.785,645.501 773.745,645.922 773.7,646.344 773.649,646.768 773.593,647.192 773.533,647.618 773.467,648.044 773.395,648.471 773.319,648.899 773.237,649.328 773.15,649.757 773.057,650.186 772.959,650.616 772.855,651.046 772.746,651.477 772.631,651.907 772.511,652.338 772.385,652.768 772.253,653.198 772.116,653.627 771.973,654.056 771.824,654.485 771.67,654.913 771.51,655.34 771.344,655.766 771.173,656.192 770.996,656.616 770.813,657.039 770.624,657.46 770.43,657.88 770.23,658.299 770.024,658.716 769.813,659.131 769.596,659.544 769.373,659.955 769.145,660.365 768.911,660.771 768.672,661.176 768.427,661.578 768.177,661.978 767.921,662.374 767.66,662.768 767.393,663.16 767.121,663.548 766.844,663.933 766.562,664.315 766.274,664.693 765.981,665.068 765.684,665.44 765.381,665.808 765.073,666.172 764.761,666.532 764.444,666.889 764.122,667.241 763.795,667.59 763.464,667.934 763.129,668.274 762.789,668.609 762.445,668.94 762.096,669.267 761.744,669.589 761.388,669.906 761.027,670.218 760.663,670.526 760.295,670.828 759.924,671.126 759.548,671.419 759.17,671.706 758.788,671.989 758.403,672.266 758.015,672.538 757.624,672.804 757.23,673.066 756.833,673.322 756.433,673.572 756.031,673.817 755.627,674.056 755.22,674.29 754.811,674.518 754.399,674.741 753.986,674.958 753.571,675.169 753.154,675.375 752.735,675.575 752.315,675.769 751.894,675.958 751.471,676.141 751.047,676.318 750.621,676.489 750.195,676.655 749.768,676.815 749.34,676.969 748.912,677.118 748.482,677.261 748.053,677.398 747.623,677.529 747.193,677.655 746.762,677.776 746.332,677.891 745.902,678 745.471,678.103 745.042,678.202 744.612,678.294 744.183,678.382 743.754,678.464 743.326,678.54 742.899,678.611 742.473,678.677 742.047,678.738 741.623,678.794 741.2,678.844 740.777,678.89 740.356,678.93 739.936,678.966 739.518,678.996 739.101,679.022 738.686,679.043 738.272,679.059 737.86,679.07 737.45,679.077 737.041,679.08 523.427,679.08 523.019,679.077 522.609,679.07 522.196,679.059 521.783,679.043 521.367,679.022 520.95,678.996 520.532,678.966 520.112,678.93 519.691,678.89 519.269,678.844 518.846,678.794 518.421,678.738 517.996,678.677 517.569,678.611 517.142,678.54 516.714,678.464 516.286,678.382 515.857,678.294 515.427,678.202 514.997,678.103 514.567,678 514.137,677.891 513.706,677.776 513.276,677.655 512.846,677.529 512.416,677.398 511.986,677.261 511.557,677.118 511.128,676.969 510.7,676.815 510.273,676.655 509.847,676.489 509.422,676.318 508.998,676.141 508.575,675.958 508.153,675.769 507.733,675.575 507.314,675.375 506.898,675.169 506.482,674.958 506.069,674.741 505.658,674.518 505.249,674.29 504.842,674.056 504.437,673.817 504.035,673.572 503.636,673.322 503.239,673.066 502.845,672.804 502.454,672.538 502.066,672.266 501.68,671.989 501.299,671.706 500.92,671.419 500.545,671.126 500.173,670.828 499.806,670.526 499.441,670.218 499.081,669.906 498.724,669.589 498.372,669.267 498.024,668.94 497.68,668.609 497.34,668.274 497.004,667.934 496.673,667.59 496.347,667.241 496.025,666.889 495.708,666.532 495.395,666.172 495.088,665.808 494.785,665.44 494.487,665.068 494.195,664.693 493.907,664.315 493.625,663.933 493.347,663.548 493.076,663.16 492.809,662.768 492.548,662.374 492.292,661.978 492.041,661.578 491.797,661.176 491.557,660.771 491.323,660.365 491.095,659.955 490.872,659.544 490.655,659.131 490.444,658.716 490.238,658.299 490.038,657.88 489.844,657.46 489.656,657.039 489.473,656.616 489.296,656.192 489.124,655.766 488.959,655.34 488.799,654.913 488.644,654.485 488.496,654.056 488.353,653.627 488.216,653.198 488.084,652.768 487.958,652.338 487.838,651.907 487.723,651.477 487.614,651.046 487.51,650.616 487.412,650.186 487.319,649.757 487.232,649.328 487.15,648.899 487.073,648.471 487.002,648.044 486.936,647.618 486.875,647.192 486.819,646.768 486.769,646.344 486.724,645.922 486.683,645.501 486.648,645.081 486.617,644.663 486.591,644.246 486.571,643.831 486.554,643.417 486.543,643.005 486.536,642.594 486.534,642.186 486.534,245.155 484.482,245.155 484.482,206.525 486.534,206.525 486.534,132.317 486.536,131.908 486.543,131.498 486.554,131.086 486.571,130.672 486.591,130.257 486.617,129.84 486.648,129.422 486.683,129.002 486.724,128.581 486.769,128.159 486.819,127.735 486.875,127.311 486.936,126.885 487.002,126.459 487.073,126.032 487.15,125.604 487.232,125.175 487.319,124.746 487.412,124.316 487.51,123.887 487.614,123.456 487.723,123.026 487.838,122.596 487.958,122.165 488.084,121.735 488.216,121.305 488.353,120.876 488.496,120.446 488.644,120.018 488.799,119.59 488.959,119.163 489.124,118.737 489.296,118.311 489.473,117.887 489.656,117.464 489.844,117.043 490.038,116.623 490.238,116.204 490.444,115.787 490.655,115.372 490.872,114.959 491.095,114.547 491.323,114.138 491.557,113.731 491.797,113.327 492.041,112.925 492.292,112.525 492.548,112.128 492.809,111.734 493.076,111.343 493.347,110.955 493.625,110.57 "
         id="polygon14855"
         style="stroke:#80ffe6;stroke-opacity:1" />
    </g>
  </g>
</svg>
