<?xml version="1.0" encoding="UTF-8" standalone="no"?>
<svg
   xmlns:dc="http://purl.org/dc/elements/1.1/"
   xmlns:cc="http://creativecommons.org/ns#"
   xmlns:rdf="http://www.w3.org/1999/02/22-rdf-syntax-ns#"
   xmlns:svg="http://www.w3.org/2000/svg"
   xmlns="http://www.w3.org/2000/svg"
   xmlns:sodipodi="http://sodipodi.sourceforge.net/DTD/sodipodi-0.dtd"
   xmlns:inkscape="http://www.inkscape.org/namespaces/inkscape"
   width="15.072897mm"
   height="30.017145mm"
   viewBox="0 0 15.072898 30.017146"
   version="1.1"
   id="svg4830"
   inkscape:version="1.0.2 (e86c8708, 2021-01-15)"
   sodipodi:docname="ip8plus.svg">
  <defs
     id="defs4824" />
  <sodipodi:namedview
     id="base"
     pagecolor="#ffffff"
     bordercolor="#666666"
     borderopacity="1.0"
     inkscape:pageopacity="0.0"
     inkscape:pageshadow="2"
     inkscape:zoom="3.8813991"
     inkscape:cx="26.006878"
     inkscape:cy="87.713411"
     inkscape:document-units="mm"
     inkscape:current-layer="layer1"
     inkscape:document-rotation="0"
     showgrid="false"
     inkscape:window-width="1440"
     inkscape:window-height="872"
     inkscape:window-x="0"
     inkscape:window-y="28"
     inkscape:window-maximized="0" />
  <metadata
     id="metadata4827">
    <rdf:RDF>
      <cc:Work
         rdf:about="">
        <dc:format>image/svg+xml</dc:format>
        <dc:type
           rdf:resource="http://purl.org/dc/dcmitype/StillImage" />
        <dc:title></dc:title>
      </cc:Work>
    </rdf:RDF>
  </metadata>
  <g
     inkscape:label="Layer 1"
     inkscape:groupmode="layer"
     id="layer1"
     transform="translate(-79.690928,-124.1362)">
    <g
       id="g16841"
       transform="matrix(0.05119296,0,0,0.05119296,154.36873,119.70463)"
       style="stroke:#80ffe6;stroke-opacity:1">
      <g
         id="g23803"
         transform="translate(-1941.4814)">
        <path
           fill="none"
           stroke="#00b9d2"
           stroke-width="2"
           stroke-linecap="round"
           stroke-linejoin="round"
           stroke-miterlimit="10"
           d="m 630.322,235.92 c 1.933,0.15 3.871,-0.395 5.564,-1.308 2.3,-1.232 4.184,-3.169 5.456,-5.438 1.369,-2.413 2.116,-5.238 1.808,-8.015 -1.828,0.084 -3.603,0.697 -5.213,1.542 -2.196,1.156 -4.1,2.837 -5.433,4.937 -1.558,2.432 -2.558,5.371 -2.182,8.282 z"
           id="path15924"
           style="stroke:#80ffe6;stroke-opacity:1" />
        <path
           fill="none"
           stroke="#00b9d2"
           stroke-width="2"
           stroke-linecap="round"
           stroke-linejoin="round"
           stroke-miterlimit="10"
           d="m 647.882,255.187 c -0.025,-2.109 0.441,-4.227 1.38,-6.118 1.234,-2.481 3.194,-4.603 5.543,-6.068 -1.05,-1.541 -2.401,-2.881 -3.965,-3.897 -2.299,-1.495 -5.018,-2.324 -7.753,-2.456 -1.9,-0.194 -3.812,0.191 -5.615,0.774 -1.648,0.514 -3.649,1.448 -5.305,1.937 -0.467,0.131 -0.976,0.241 -1.459,0.222 -0.903,-0.04 -1.776,-0.353 -2.619,-0.659 0,0 -2.631,-1.022 -2.631,-1.022 -1.333,-0.494 -2.718,-0.925 -4.139,-1.057 -1.522,-0.129 -3.073,0.058 -4.55,0.43 -5.529,1.432 -9.664,5.793 -11.355,11.178 -2.752,8.653 0.069,19.481 4.636,27.082 1.11,1.787 2.38,3.564 3.703,5.2 1.51,1.803 3.287,3.6 5.611,4.259 1.263,0.358 2.611,0.225 3.868,-0.09 1.047,-0.252 2.442,-0.896 3.446,-1.307 0.879,-0.357 1.799,-0.655 2.734,-0.821 1.483,-0.259 3.025,-0.266 4.506,0.011 1.379,0.243 2.82,0.904 4.105,1.455 0.745,0.31 1.52,0.581 2.314,0.73 0.824,0.154 1.674,0.201 2.509,0.12 3.695,-0.381 6.177,-3.565 8.192,-6.38 2.224,-3.052 4.076,-6.439 5.27,-10.025 0,0 0.172,-0.539 0.172,-0.539 l -0.112,-0.046 c -2.644,-1.176 -4.949,-3.156 -6.472,-5.62 -1.348,-2.177 -2.001,-4.743 -2.014,-7.293"
           id="path15927"
           style="stroke:#80ffe6;stroke-opacity:1" />
        <polygon
           fill="none"
           stroke="#00b9d2"
           stroke-width="2"
           stroke-linecap="round"
           stroke-linejoin="round"
           stroke-miterlimit="10"
           points="513.23,134.487 513.092,134.303 512.958,134.116 512.826,133.927 512.698,133.736 512.574,133.543 512.452,133.347 512.334,133.15 512.22,132.95 512.109,132.748 512.001,132.545 511.897,132.339 511.797,132.132 511.7,131.923 511.607,131.713 511.518,131.501 511.432,131.287 511.35,131.072 511.271,130.856 511.197,130.638 511.126,130.419 511.059,130.199 510.996,129.977 510.937,129.755 510.881,129.532 510.83,129.307 510.782,129.082 510.739,128.856 510.699,128.629 510.663,128.402 510.631,128.174 510.603,127.946 510.579,127.717 510.559,127.487 510.544,127.258 510.532,127.028 510.524,126.798 510.52,126.568 510.52,126.338 510.524,126.107 510.532,125.877 510.544,125.648 510.559,125.418 510.579,125.189 510.603,124.96 510.631,124.731 510.663,124.503 510.699,124.276 510.739,124.049 510.782,123.823 510.83,123.598 510.881,123.374 510.937,123.15 510.996,122.928 511.059,122.707 511.126,122.486 511.197,122.267 511.271,122.05 511.35,121.833 511.432,121.618 511.518,121.404 511.607,121.192 511.7,120.982 511.797,120.773 511.897,120.566 512.001,120.361 512.109,120.157 512.22,119.955 512.334,119.756 512.452,119.558 512.574,119.363 512.698,119.169 512.826,118.978 512.958,118.789 513.092,118.602 513.23,118.418 513.371,118.236 513.516,118.057 513.663,117.88 513.813,117.705 513.966,117.534 514.123,117.365 514.282,117.198 514.444,117.035 514.609,116.874 514.776,116.717 514.947,116.562 515.12,116.41 515.295,116.261 515.474,116.116 515.654,115.973 515.837,115.833 516.023,115.697 516.211,115.564 516.401,115.434 516.593,115.308 516.788,115.185 516.984,115.065 517.183,114.949 517.384,114.836 517.586,114.727 517.791,114.621 517.997,114.519 518.205,114.421 518.414,114.326 518.626,114.234 518.839,114.147 519.053,114.063 519.269,113.983 519.486,113.906 519.704,113.833 519.924,113.765 520.145,113.7 520.367,113.638 520.589,113.581 520.813,113.528 521.038,113.478 521.264,113.433 521.49,113.391 521.717,113.353 521.945,113.319 522.173,113.289 522.402,113.263 522.631,113.241 522.86,113.223 523.09,113.21 523.32,113.2 523.55,113.194 523.78,113.192 563.974,113.192 564.204,113.194 564.434,113.2 564.664,113.21 564.893,113.223 565.123,113.241 565.352,113.263 565.581,113.289 565.809,113.319 566.037,113.353 566.264,113.391 566.49,113.433 566.716,113.478 566.94,113.528 567.164,113.581 567.387,113.638 567.609,113.7 567.83,113.765 568.05,113.833 568.268,113.906 568.485,113.983 568.701,114.063 568.915,114.147 569.128,114.234 569.339,114.326 569.549,114.421 569.757,114.519 569.963,114.621 570.168,114.727 570.37,114.836 570.571,114.949 570.77,115.065 570.966,115.185 571.161,115.308 571.353,115.434 571.543,115.564 571.731,115.697 571.916,115.833 572.1,115.973 572.28,116.116 572.458,116.261 572.634,116.41 572.807,116.562 572.977,116.717 573.145,116.874 573.31,117.035 573.472,117.198 573.631,117.365 573.787,117.534 573.941,117.705 574.091,117.88 574.238,118.057 574.382,118.236 574.523,118.418 574.661,118.602 574.796,118.789 574.927,118.978 575.055,119.169 575.18,119.363 575.302,119.558 575.419,119.756 575.534,119.955 575.645,120.157 575.753,120.361 575.856,120.566 575.957,120.773 576.054,120.982 576.147,121.192 576.236,121.404 576.322,121.618 576.404,121.833 576.482,122.05 576.557,122.267 576.628,122.486 576.695,122.707 576.758,122.928 576.817,123.15 576.872,123.374 576.924,123.598 576.971,123.823 577.015,124.049 577.055,124.276 577.091,124.503 577.122,124.731 577.15,124.96 577.174,125.189 577.194,125.418 577.21,125.648 577.222,125.877 577.23,126.107 577.234,126.338 577.234,126.568 577.23,126.798 577.222,127.028 577.21,127.258 577.194,127.487 577.174,127.717 577.15,127.946 577.122,128.174 577.091,128.402 577.055,128.629 577.015,128.856 576.971,129.082 576.924,129.307 576.872,129.532 576.817,129.755 576.758,129.977 576.695,130.199 576.628,130.419 576.557,130.638 576.482,130.856 576.404,131.072 576.322,131.287 576.236,131.501 576.147,131.713 576.054,131.923 575.957,132.132 575.856,132.339 575.753,132.545 575.645,132.748 575.534,132.95 575.419,133.15 575.302,133.347 575.18,133.543 575.055,133.736 574.927,133.927 574.796,134.116 574.661,134.303 574.523,134.487 574.382,134.669 574.238,134.849 574.091,135.026 573.941,135.2 573.787,135.372 573.631,135.541 573.472,135.707 573.31,135.87 573.145,136.031 572.977,136.189 572.807,136.343 572.634,136.495 572.458,136.644 572.28,136.79 572.1,136.932 571.916,137.072 571.731,137.208 571.543,137.341 571.353,137.471 571.161,137.597 570.966,137.72 570.77,137.84 570.571,137.956 570.37,138.069 570.168,138.178 569.963,138.284 569.757,138.386 569.549,138.485 569.339,138.58 569.128,138.671 568.915,138.759 568.701,138.843 568.485,138.923 568.268,138.999 568.05,139.072 567.83,139.141 567.609,139.206 567.387,139.267 567.164,139.324 566.94,139.378 566.716,139.427 566.49,139.473 566.264,139.515 566.037,139.552 565.809,139.586 565.581,139.616 565.352,139.642 565.123,139.664 564.893,139.682 564.664,139.696 564.434,139.706 564.204,139.712 563.974,139.714 523.78,139.714 523.55,139.712 523.32,139.706 523.09,139.696 522.86,139.682 522.631,139.664 522.402,139.642 522.173,139.616 521.945,139.586 521.717,139.552 521.49,139.515 521.264,139.473 521.038,139.427 520.813,139.378 520.589,139.324 520.367,139.267 520.145,139.206 519.924,139.141 519.704,139.072 519.486,138.999 519.269,138.923 519.053,138.843 518.839,138.759 518.626,138.671 518.414,138.58 518.205,138.485 517.997,138.386 517.791,138.284 517.586,138.178 517.384,138.069 517.183,137.956 516.984,137.84 516.788,137.72 516.593,137.597 516.401,137.471 516.211,137.341 516.023,137.208 515.837,137.072 515.654,136.932 515.474,136.79 515.295,136.644 515.12,136.495 514.947,136.343 514.776,136.189 514.609,136.031 514.444,135.87 514.282,135.707 514.123,135.541 513.966,135.372 513.813,135.2 513.663,135.026 513.516,134.849 513.371,134.669 "
           id="polygon15930"
           style="stroke:#80ffe6;stroke-opacity:1" />
        <line
           fill="none"
           stroke="#00b9d2"
           stroke-width="2"
           stroke-linecap="round"
           stroke-linejoin="round"
           stroke-miterlimit="10"
           x1="768.17603"
           y1="130.716"
           x2="773.698"
           y2="130.716"
           id="line15933"
           style="stroke:#80ffe6;stroke-opacity:1" />
        <line
           fill="none"
           stroke="#00b9d2"
           stroke-width="2"
           stroke-linecap="round"
           stroke-linejoin="round"
           stroke-miterlimit="10"
           x1="486.19501"
           y1="130.716"
           x2="491.71701"
           y2="130.716"
           id="line15936"
           style="stroke:#80ffe6;stroke-opacity:1" />
        <line
           fill="none"
           stroke="#00b9d2"
           stroke-width="2"
           stroke-linecap="round"
           stroke-linejoin="round"
           stroke-miterlimit="10"
           x1="491.71701"
           y1="137.905"
           x2="486.19501"
           y2="137.905"
           id="line15939"
           style="stroke:#80ffe6;stroke-opacity:1" />
        <line
           fill="none"
           stroke="#00b9d2"
           stroke-width="2"
           stroke-linecap="round"
           stroke-linejoin="round"
           stroke-miterlimit="10"
           x1="773.698"
           y1="137.905"
           x2="768.17603"
           y2="137.905"
           id="line15942"
           style="stroke:#80ffe6;stroke-opacity:1" />
        <line
           fill="none"
           stroke="#00b9d2"
           stroke-width="2"
           stroke-linecap="round"
           stroke-linejoin="round"
           stroke-miterlimit="10"
           x1="486.19501"
           y1="621.57898"
           x2="491.71701"
           y2="621.57898"
           id="line15945"
           style="stroke:#80ffe6;stroke-opacity:1" />
        <line
           fill="none"
           stroke="#00b9d2"
           stroke-width="2"
           stroke-linecap="round"
           stroke-linejoin="round"
           stroke-miterlimit="10"
           x1="491.71701"
           y1="628.76801"
           x2="486.19501"
           y2="628.76801"
           id="line15948"
           style="stroke:#80ffe6;stroke-opacity:1" />
        <line
           fill="none"
           stroke="#00b9d2"
           stroke-width="2"
           stroke-linecap="round"
           stroke-linejoin="round"
           stroke-miterlimit="10"
           x1="768.17603"
           y1="621.57898"
           x2="773.698"
           y2="621.57898"
           id="line15951"
           style="stroke:#80ffe6;stroke-opacity:1" />
        <line
           fill="none"
           stroke="#00b9d2"
           stroke-width="2"
           stroke-linecap="round"
           stroke-linejoin="round"
           stroke-miterlimit="10"
           x1="773.698"
           y1="628.76801"
           x2="768.17603"
           y2="628.76801"
           id="line15954"
           style="stroke:#80ffe6;stroke-opacity:1" />
        <polygon
           fill="none"
           stroke="#00b9d2"
           stroke-width="2"
           stroke-linecap="round"
           stroke-linejoin="round"
           stroke-miterlimit="10"
           points="762.008,106.349 762.326,106.786 762.637,107.228 762.94,107.675 763.235,108.127 763.523,108.584 763.802,109.047 764.073,109.514 764.337,109.985 764.592,110.461 764.839,110.942 765.077,111.426 765.307,111.915 765.529,112.407 765.742,112.904 765.947,113.404 766.143,113.907 766.33,114.414 766.508,114.923 766.678,115.436 766.838,115.952 766.99,116.47 767.133,116.991 767.267,117.514 767.391,118.04 767.507,118.567 767.614,119.097 767.711,119.628 767.799,120.161 767.878,120.695 767.948,121.231 768.008,121.768 768.06,122.305 768.101,122.844 768.134,123.383 768.157,123.923 768.171,124.462 768.176,125.003 768.176,634.482 768.171,635.022 768.157,635.562 768.134,636.101 768.101,636.64 768.06,637.179 768.008,637.717 767.948,638.253 767.878,638.789 767.799,639.323 767.711,639.856 767.614,640.387 767.507,640.917 767.391,641.444 767.267,641.97 767.133,642.493 766.99,643.014 766.838,643.532 766.678,644.048 766.508,644.561 766.33,645.071 766.143,645.577 765.947,646.081 765.742,646.581 765.529,647.077 765.307,647.569 765.077,648.058 764.839,648.543 764.592,649.023 764.337,649.499 764.073,649.971 763.802,650.438 763.523,650.9 763.235,651.357 762.94,651.809 762.637,652.257 762.326,652.698 762.008,653.135 761.682,653.566 761.349,653.991 761.009,654.41 760.661,654.824 760.307,655.231 759.945,655.632 759.577,656.027 759.201,656.415 758.819,656.797 758.431,657.173 758.036,657.541 757.635,657.903 757.228,658.257 756.814,658.605 756.395,658.945 755.97,659.279 755.539,659.604 755.102,659.922 754.661,660.233 754.213,660.536 753.761,660.831 753.304,661.119 752.842,661.398 752.375,661.669 751.903,661.933 751.427,662.188 750.947,662.435 750.462,662.673 749.973,662.903 749.481,663.125 748.985,663.338 748.485,663.543 747.981,663.739 747.475,663.926 746.965,664.104 746.452,664.274 745.936,664.434 745.418,664.586 744.897,664.729 744.374,664.863 743.848,664.987 743.321,665.103 742.791,665.21 742.26,665.307 741.727,665.395 741.193,665.474 740.657,665.544 740.121,665.604 739.583,665.655 739.044,665.697 738.505,665.73 737.966,665.753 737.426,665.767 736.886,665.772 523.008,665.772 522.467,665.767 521.928,665.753 521.388,665.73 520.849,665.697 520.31,665.655 519.773,665.604 519.236,665.544 518.7,665.474 518.166,665.395 517.633,665.307 517.102,665.21 516.572,665.103 516.045,664.987 515.519,664.863 514.996,664.729 514.475,664.586 513.957,664.434 513.441,664.274 512.928,664.104 512.419,663.926 511.912,663.739 511.409,663.543 510.909,663.338 510.412,663.125 509.92,662.903 509.431,662.673 508.947,662.435 508.466,662.188 507.99,661.933 507.519,661.669 507.052,661.398 506.589,661.119 506.132,660.831 505.68,660.536 505.233,660.233 504.791,659.922 504.354,659.604 503.924,659.279 503.498,658.945 503.079,658.605 502.666,658.257 502.258,657.903 501.857,657.541 501.462,657.173 501.074,656.797 500.692,656.415 500.317,656.027 499.948,655.632 499.586,655.231 499.232,654.824 498.884,654.41 498.544,653.991 498.211,653.566 497.885,653.135 497.567,652.698 497.256,652.257 496.953,651.809 496.658,651.357 496.371,650.9 496.091,650.438 495.82,649.971 495.557,649.499 495.301,649.023 495.055,648.543 494.816,648.058 494.586,647.569 494.364,647.077 494.151,646.581 493.947,646.081 493.751,645.577 493.563,645.071 493.385,644.561 493.216,644.048 493.055,643.532 492.903,643.014 492.76,642.493 492.627,641.97 492.502,641.444 492.386,640.917 492.28,640.387 492.182,639.856 492.094,639.323 492.015,638.789 491.945,638.253 491.885,637.717 491.834,637.179 491.792,636.64 491.759,636.101 491.736,635.562 491.722,635.022 491.717,634.482 491.717,125.003 491.722,124.462 491.736,123.923 491.759,123.383 491.792,122.844 491.834,122.305 491.885,121.768 491.945,121.231 492.015,120.695 492.094,120.161 492.182,119.628 492.28,119.097 492.386,118.567 492.502,118.04 492.627,117.514 492.76,116.991 492.903,116.47 493.055,115.952 493.216,115.436 493.385,114.923 493.563,114.414 493.751,113.907 493.947,113.404 494.151,112.904 494.364,112.407 494.586,111.915 494.816,111.426 495.055,110.942 495.301,110.461 495.557,109.985 495.82,109.514 496.091,109.047 496.371,108.584 496.658,108.127 496.953,107.675 497.256,107.228 497.567,106.786 497.885,106.349 498.211,105.919 498.544,105.493 498.884,105.074 499.232,104.661 499.586,104.253 499.948,103.852 500.317,103.457 500.692,103.069 501.074,102.687 501.462,102.312 501.857,101.943 502.258,101.581 502.666,101.227 503.079,100.879 503.498,100.539 503.924,100.206 504.354,99.88 504.791,99.562 505.233,99.251 505.68,98.948 506.132,98.653 506.589,98.366 507.052,98.086 507.519,97.815 507.99,97.552 508.466,97.296 508.947,97.05 509.431,96.811 509.92,96.581 510.412,96.359 510.909,96.146 511.409,95.942 511.912,95.746 512.419,95.559 512.928,95.38 513.441,95.211 513.957,95.05 514.475,94.898 514.996,94.755 515.519,94.622 516.045,94.497 516.572,94.381 517.102,94.275 517.633,94.177 518.166,94.089 518.7,94.01 519.236,93.94 519.773,93.88 520.31,93.829 520.849,93.787 521.388,93.754 521.928,93.731 522.467,93.717 523.008,93.712 736.886,93.712 737.426,93.717 737.966,93.731 738.505,93.754 739.044,93.787 739.583,93.829 740.121,93.88 740.657,93.94 741.193,94.01 741.727,94.089 742.26,94.177 742.791,94.275 743.321,94.381 743.848,94.497 744.374,94.622 744.897,94.755 745.418,94.898 745.936,95.05 746.452,95.211 746.965,95.38 747.475,95.559 747.981,95.746 748.485,95.942 748.985,96.146 749.481,96.359 749.973,96.581 750.462,96.811 750.947,97.05 751.427,97.296 751.903,97.552 752.375,97.815 752.842,98.086 753.304,98.366 753.761,98.653 754.213,98.948 754.661,99.251 755.102,99.562 755.539,99.88 755.97,100.206 756.395,100.539 756.814,100.879 757.228,101.227 757.635,101.581 758.036,101.943 758.431,102.312 758.819,102.687 759.201,103.069 759.577,103.457 759.945,103.852 760.307,104.253 760.661,104.661 761.009,105.074 761.349,105.493 761.682,105.919 "
           id="polygon15957"
           style="stroke:#80ffe6;stroke-opacity:1" />
        <polygon
           fill="none"
           stroke="#00b9d2"
           stroke-width="2.75"
           stroke-linecap="round"
           stroke-linejoin="round"
           stroke-miterlimit="10"
           points="510.125,137.343 509.939,137.105 509.757,136.865 509.579,136.621 509.406,136.375 509.237,136.125 509.072,135.872 508.912,135.617 508.756,135.359 508.604,135.099 508.457,134.835 508.315,134.57 508.177,134.301 508.044,134.031 507.915,133.758 507.792,133.483 507.673,133.206 507.558,132.927 507.449,132.646 507.345,132.363 507.245,132.079 507.15,131.793 507.061,131.505 506.976,131.215 506.896,130.925 506.822,130.633 506.752,130.339 506.688,130.045 506.628,129.749 506.574,129.453 506.524,129.155 506.48,128.857 506.441,128.558 506.408,128.258 506.379,127.958 506.356,127.658 506.338,127.357 506.325,127.056 506.317,126.754 506.314,126.453 506.317,126.151 506.325,125.85 506.338,125.549 506.356,125.248 506.379,124.947 506.408,124.647 506.441,124.347 506.48,124.048 506.524,123.75 506.574,123.453 506.628,123.156 506.688,122.861 506.752,122.566 506.822,122.273 506.896,121.981 506.976,121.69 507.061,121.401 507.15,121.113 507.245,120.826 507.345,120.542 507.449,120.259 507.558,119.978 507.673,119.699 507.792,119.422 507.915,119.147 508.044,118.874 508.177,118.604 508.315,118.336 508.457,118.07 508.604,117.807 508.756,117.546 508.912,117.288 509.072,117.033 509.237,116.78 509.406,116.531 509.579,116.284 509.757,116.041 509.939,115.8 510.125,115.563 510.315,115.329 510.509,115.098 510.707,114.871 510.909,114.647 511.114,114.426 511.324,114.209 511.537,113.996 511.754,113.787 511.974,113.581 512.198,113.379 512.425,113.181 512.656,112.987 512.89,112.797 513.128,112.611 513.368,112.429 513.612,112.252 513.858,112.078 514.108,111.909 514.36,111.744 514.616,111.584 514.874,111.428 515.134,111.277 515.398,111.13 515.663,110.987 515.931,110.849 516.202,110.716 516.475,110.588 516.75,110.464 517.027,110.345 517.306,110.231 517.587,110.122 517.869,110.017 518.154,109.918 518.44,109.823 518.728,109.733 519.017,109.649 519.308,109.569 519.6,109.494 519.894,109.425 520.188,109.36 520.484,109.301 520.78,109.246 521.078,109.197 521.376,109.153 521.675,109.114 521.974,109.08 522.275,109.052 522.575,109.028 522.876,109.01 523.177,108.997 523.479,108.989 523.78,108.987 543.877,108.987 563.974,108.987 564.275,108.989 564.576,108.997 564.878,109.01 565.179,109.028 565.479,109.052 565.779,109.08 566.079,109.114 566.378,109.153 566.676,109.197 566.974,109.246 567.27,109.301 567.566,109.36 567.86,109.425 568.153,109.494 568.446,109.569 568.736,109.649 569.026,109.733 569.313,109.823 569.6,109.918 569.884,110.017 570.167,110.122 570.448,110.231 570.727,110.345 571.004,110.464 571.279,110.588 571.552,110.716 571.822,110.849 572.09,110.987 572.356,111.13 572.619,111.277 572.88,111.428 573.138,111.584 573.393,111.744 573.646,111.909 573.895,112.078 574.142,112.252 574.386,112.429 574.626,112.611 574.863,112.797 575.098,112.987 575.328,113.181 575.556,113.379 575.78,113.581 576,113.787 576.217,113.996 576.43,114.209 576.64,114.426 576.845,114.647 577.047,114.871 577.245,115.098 577.439,115.329 577.629,115.563 577.815,115.8 577.997,116.041 578.174,116.284 578.348,116.531 578.517,116.78 578.682,117.033 578.842,117.288 578.998,117.546 579.15,117.807 579.297,118.07 579.439,118.336 579.577,118.604 579.71,118.874 579.838,119.147 579.962,119.422 580.081,119.699 580.195,119.978 580.305,120.259 580.409,120.542 580.509,120.826 580.603,121.113 580.693,121.401 580.778,121.69 580.857,121.981 580.932,122.273 581.002,122.566 581.066,122.861 581.126,123.156 581.18,123.453 581.229,123.75 581.273,124.048 581.312,124.347 581.346,124.647 581.375,124.947 581.398,125.248 581.416,125.549 581.429,125.85 581.437,126.151 581.44,126.453 581.437,126.754 581.429,127.056 581.416,127.357 581.398,127.658 581.375,127.958 581.346,128.258 581.312,128.558 581.273,128.857 581.229,129.155 581.18,129.453 581.126,129.749 581.066,130.045 581.002,130.339 580.932,130.633 580.857,130.925 580.778,131.215 580.693,131.505 580.603,131.793 580.509,132.079 580.409,132.363 580.305,132.646 580.195,132.927 580.081,133.206 579.962,133.483 579.838,133.758 579.71,134.031 579.577,134.301 579.439,134.57 579.297,134.835 579.15,135.099 578.998,135.359 578.842,135.617 578.682,135.872 578.517,136.125 578.348,136.375 578.174,136.621 577.997,136.865 577.815,137.105 577.629,137.343 577.439,137.577 577.245,137.807 577.047,138.035 576.845,138.259 576.64,138.479 576.43,138.696 576.217,138.909 576,139.119 575.78,139.324 575.556,139.526 575.328,139.724 575.098,139.918 574.863,140.108 574.626,140.294 574.386,140.476 574.142,140.654 573.895,140.827 573.646,140.996 573.393,141.161 573.138,141.321 572.88,141.477 572.619,141.629 572.356,141.776 572.09,141.918 571.822,142.056 571.552,142.189 571.279,142.318 571.004,142.441 570.727,142.56 570.448,142.674 570.167,142.784 569.884,142.888 569.6,142.988 569.313,143.082 569.026,143.172 568.736,143.257 568.446,143.337 568.153,143.411 567.86,143.481 567.566,143.545 567.27,143.605 566.974,143.659 566.676,143.708 566.378,143.752 566.079,143.791 565.779,143.825 565.479,143.854 565.179,143.877 564.878,143.895 564.576,143.908 564.275,143.916 563.974,143.919 543.877,143.919 523.78,143.919 523.479,143.916 523.177,143.908 522.876,143.895 522.575,143.877 522.275,143.854 521.974,143.825 521.675,143.791 521.376,143.752 521.078,143.708 520.78,143.659 520.484,143.605 520.188,143.545 519.894,143.481 519.6,143.411 519.308,143.337 519.017,143.257 518.728,143.172 518.44,143.082 518.154,142.988 517.869,142.888 517.587,142.784 517.306,142.674 517.027,142.56 516.75,142.441 516.475,142.318 516.202,142.189 515.931,142.056 515.663,141.918 515.398,141.776 515.134,141.629 514.874,141.477 514.616,141.321 514.36,141.161 514.108,140.996 513.858,140.827 513.612,140.654 513.368,140.476 513.128,140.294 512.89,140.108 512.656,139.918 512.425,139.724 512.198,139.526 511.974,139.324 511.754,139.119 511.537,138.909 511.324,138.696 511.114,138.479 510.909,138.259 510.707,138.035 510.509,137.807 510.315,137.577 "
           id="polygon16009"
           style="stroke:#80ffe6;stroke-opacity:1" />
        <path
           fill="none"
           stroke="#00b9d2"
           stroke-width="2.75"
           stroke-linecap="round"
           stroke-linejoin="round"
           stroke-miterlimit="10"
           d="m 593.914,126.453 c 0.013,-1.162 -0.835,-2.202 -1.914,-2.459 -1.612,-0.413 -3.158,0.837 -3.16,2.437 -0.019,1.663 1.561,2.869 3.117,2.492 1.15,-0.258 1.971,-1.342 1.957,-2.47 z"
           id="path16012"
           style="stroke:#80ffe6;stroke-opacity:1" />
        <path
           fill="none"
           stroke="#00b9d2"
           stroke-width="2.75"
           stroke-linecap="round"
           stroke-linejoin="round"
           stroke-miterlimit="10"
           d="m 616.148,126.453 c 0.01,-3.344 -2.301,-6.314 -5.546,-7.125 -4.619,-1.163 -9.106,2.298 -9.154,7.061 -0.034,4.817 4.482,8.364 9.154,7.189 3.245,-0.811 5.557,-3.781 5.546,-7.125 z"
           id="path16015"
           style="stroke:#80ffe6;stroke-opacity:1" />
        <path
           fill="none"
           stroke="#00b9d2"
           stroke-width="2.75"
           stroke-linecap="round"
           stroke-linejoin="round"
           stroke-miterlimit="10"
           d="m 570.501,126.453 c 0.011,-2.968 -2.045,-5.61 -4.925,-6.328 -4.1,-1.034 -8.089,2.043 -8.13,6.271 -0.032,4.276 3.984,7.43 8.13,6.385 2.88,-0.719 4.936,-3.36 4.925,-6.328 z"
           id="path16018"
           style="stroke:#80ffe6;stroke-opacity:1" />
        <path
           fill="none"
           stroke="#00b9d2"
           stroke-width="2.75"
           stroke-linecap="round"
           stroke-linejoin="round"
           stroke-miterlimit="10"
           d="m 532.693,126.453 c 0.011,-4.058 -2.788,-7.655 -6.725,-8.64 -5.605,-1.409 -11.041,2.784 -11.101,8.563 -0.039,5.844 5.433,10.142 11.101,8.718 3.937,-0.986 6.737,-4.583 6.725,-8.641 z"
           id="path16021"
           style="stroke:#80ffe6;stroke-opacity:1" />
        <rect
           x="484.35501"
           y="200.26601"
           fill="none"
           stroke="#00b9d2"
           stroke-width="2.75"
           stroke-linecap="round"
           stroke-linejoin="round"
           stroke-miterlimit="10"
           width="1.841"
           height="37.243"
           id="rect16024"
           style="stroke:#80ffe6;stroke-opacity:1" />
        <polygon
           fill="none"
           stroke="#00b9d2"
           stroke-width="2.75"
           stroke-linecap="round"
           stroke-linejoin="round"
           stroke-miterlimit="10"
           points="759.343,95.834 759.718,96.126 760.088,96.423 760.455,96.725 760.819,97.032 761.178,97.344 761.534,97.661 761.886,97.982 762.233,98.307 762.577,98.638 762.916,98.973 763.25,99.312 763.581,99.655 763.907,100.003 764.228,100.354 764.544,100.71 764.856,101.069 765.163,101.433 765.465,101.8 765.762,102.171 766.054,102.545 766.341,102.923 766.623,103.304 766.899,103.688 767.171,104.075 767.437,104.465 767.697,104.859 767.953,105.255 768.202,105.653 768.447,106.054 768.686,106.458 768.919,106.864 769.147,107.272 769.369,107.683 769.585,108.095 769.796,108.509 770.001,108.925 770.201,109.343 770.395,109.762 770.583,110.183 770.765,110.605 770.942,111.028 771.113,111.452 771.278,111.878 771.438,112.304 771.592,112.731 771.74,113.158 771.883,113.587 772.02,114.015 772.151,114.444 772.277,114.873 772.397,115.303 772.511,115.732 772.62,116.162 772.724,116.591 772.822,117.02 772.914,117.448 773.001,117.877 773.083,118.304 773.16,118.731 773.231,119.157 773.297,119.583 773.357,120.007 773.413,120.431 773.463,120.853 773.509,121.275 773.549,121.695 773.584,122.114 773.615,122.531 773.64,122.947 773.661,123.361 773.677,123.774 773.689,124.186 773.695,124.595 773.698,125.003 773.698,634.482 773.695,634.889 773.689,635.299 773.677,635.71 773.661,636.123 773.64,636.537 773.615,636.953 773.584,637.371 773.549,637.789 773.509,638.21 773.463,638.631 773.413,639.053 773.357,639.477 773.297,639.901 773.231,640.327 773.16,640.753 773.083,641.18 773.001,641.608 772.914,642.036 772.822,642.464 772.724,642.893 772.62,643.323 772.511,643.752 772.397,644.181 772.277,644.611 772.151,645.04 772.02,645.469 771.883,645.898 771.74,646.326 771.592,646.754 771.438,647.181 771.278,647.607 771.113,648.032 770.942,648.456 770.765,648.88 770.583,649.302 770.395,649.722 770.201,650.141 770.001,650.559 769.796,650.975 769.585,651.389 769.369,651.802 769.147,652.212 768.919,652.62 768.686,653.026 768.447,653.43 768.202,653.831 767.953,654.23 767.697,654.626 767.437,655.019 767.171,655.409 766.899,655.796 766.623,656.181 766.341,656.562 766.054,656.939 765.762,657.314 765.465,657.684 765.163,658.051 764.856,658.415 764.544,658.774 764.228,659.13 763.907,659.482 763.581,659.829 763.25,660.173 762.916,660.512 762.577,660.846 762.233,661.177 761.886,661.503 761.534,661.824 761.178,662.14 760.819,662.452 760.455,662.759 760.088,663.061 759.718,663.358 759.343,663.65 758.966,663.937 758.585,664.219 758.2,664.495 757.813,664.767 757.423,665.033 757.03,665.293 756.634,665.549 756.235,665.798 755.834,666.043 755.43,666.282 755.024,666.515 754.616,666.743 754.206,666.965 753.793,667.181 753.379,667.392 752.963,667.597 752.545,667.797 752.126,667.991 751.706,668.179 751.284,668.361 750.86,668.538 750.436,668.709 750.011,668.874 749.585,669.034 749.158,669.188 748.73,669.336 748.302,669.479 747.873,669.616 747.444,669.747 747.015,669.873 746.585,669.993 746.156,670.107 745.727,670.216 745.297,670.32 744.868,670.418 744.44,670.51 744.012,670.597 743.584,670.679 743.157,670.756 742.731,670.827 742.305,670.893 741.881,670.953 741.457,671.009 741.035,671.059 740.614,671.104 740.193,671.145 739.775,671.18 739.357,671.211 738.941,671.236 738.527,671.257 738.114,671.273 737.703,671.285 737.293,671.292 736.886,671.294 523.008,671.294 522.6,671.292 522.19,671.285 521.779,671.273 521.366,671.257 520.952,671.236 520.536,671.211 520.119,671.18 519.7,671.145 519.28,671.104 518.858,671.059 518.436,671.009 518.012,670.953 517.588,670.893 517.162,670.827 516.736,670.756 516.309,670.679 515.881,670.597 515.453,670.51 515.025,670.418 514.596,670.32 514.167,670.216 513.737,670.107 513.308,669.993 512.878,669.873 512.449,669.747 512.02,669.616 511.591,669.479 511.163,669.336 510.736,669.188 510.309,669.034 509.883,668.874 509.457,668.709 509.033,668.538 508.61,668.361 508.188,668.179 507.767,667.991 507.348,667.797 506.93,667.597 506.514,667.392 506.1,667.181 505.688,666.965 505.277,666.743 504.869,666.515 504.463,666.282 504.059,666.043 503.658,665.798 503.26,665.549 502.864,665.293 502.47,665.033 502.08,664.767 501.693,664.495 501.309,664.219 500.928,663.937 500.55,663.65 500.176,663.358 499.805,663.061 499.438,662.759 499.074,662.452 498.715,662.14 498.359,661.824 498.008,661.503 497.66,661.177 497.317,660.846 496.977,660.512 496.643,660.173 496.312,659.829 495.987,659.482 495.665,659.13 495.349,658.774 495.037,658.415 494.73,658.051 494.428,657.684 494.131,657.314 493.839,656.939 493.552,656.562 493.271,656.181 492.994,655.796 492.723,655.409 492.457,655.019 492.196,654.626 491.941,654.23 491.691,653.831 491.447,653.43 491.208,653.026 490.974,652.62 490.747,652.212 490.524,651.802 490.308,651.389 490.097,650.975 489.892,650.559 489.692,650.141 489.499,649.722 489.31,649.302 489.128,648.88 488.951,648.456 488.78,648.032 488.615,647.607 488.455,647.181 488.301,646.754 488.153,646.326 488.01,645.898 487.873,645.469 487.742,645.04 487.616,644.611 487.496,644.181 487.382,643.752 487.273,643.323 487.169,642.893 487.071,642.464 486.979,642.036 486.892,641.608 486.81,641.18 486.734,640.753 486.663,640.327 486.597,639.901 486.536,639.477 486.48,639.053 486.43,638.631 486.385,638.21 486.344,637.789 486.309,637.371 486.279,636.953 486.253,636.537 486.232,636.123 486.216,635.71 486.205,635.299 486.198,634.889 486.195,634.482 486.195,125.003 486.198,124.595 486.205,124.186 486.216,123.774 486.232,123.361 486.253,122.947 486.279,122.531 486.309,122.114 486.344,121.695 486.385,121.275 486.43,120.853 486.48,120.431 486.536,120.007 486.597,119.583 486.663,119.157 486.734,118.731 486.81,118.304 486.892,117.877 486.979,117.448 487.071,117.02 487.169,116.591 487.273,116.162 487.382,115.732 487.496,115.303 487.616,114.873 487.742,114.444 487.873,114.015 488.01,113.587 488.153,113.158 488.301,112.731 488.455,112.304 488.615,111.878 488.78,111.452 488.951,111.028 489.128,110.605 489.31,110.183 489.499,109.762 489.692,109.343 489.892,108.925 490.097,108.509 490.308,108.095 490.524,107.683 490.747,107.272 490.974,106.864 491.208,106.458 491.447,106.054 491.691,105.653 491.941,105.255 492.196,104.859 492.457,104.465 492.723,104.075 492.994,103.688 493.271,103.304 493.552,102.923 493.839,102.545 494.131,102.171 494.428,101.8 494.73,101.433 495.037,101.069 495.349,100.71 495.665,100.354 495.987,100.003 496.312,99.655 496.643,99.312 496.977,98.973 497.317,98.638 497.66,98.307 498.008,97.982 498.359,97.661 498.715,97.344 499.074,97.032 499.438,96.725 499.805,96.423 500.176,96.126 500.55,95.834 500.928,95.547 501.309,95.266 501.693,94.989 502.08,94.718 502.47,94.452 502.864,94.191 503.26,93.936 503.658,93.686 504.059,93.442 504.463,93.203 504.869,92.969 505.277,92.742 505.688,92.52 506.1,92.303 506.514,92.092 506.93,91.887 507.348,91.687 507.767,91.494 508.188,91.305 508.61,91.123 509.033,90.946 509.457,90.775 509.883,90.61 510.309,90.45 510.736,90.296 511.163,90.148 511.591,90.005 512.02,89.868 512.449,89.737 512.878,89.611 513.308,89.491 513.737,89.377 514.167,89.268 514.596,89.164 515.025,89.066 515.453,88.974 515.881,88.887 516.309,88.805 516.736,88.729 517.162,88.658 517.588,88.592 518.012,88.531 518.436,88.475 518.858,88.425 519.28,88.38 519.7,88.339 520.119,88.304 520.536,88.274 520.952,88.248 521.366,88.227 521.779,88.211 522.19,88.2 522.6,88.193 523.008,88.191 736.886,88.191 737.293,88.193 737.703,88.2 738.114,88.211 738.527,88.227 738.941,88.248 739.357,88.274 739.775,88.304 740.193,88.339 740.614,88.38 741.035,88.425 741.457,88.475 741.881,88.531 742.305,88.592 742.731,88.658 743.157,88.729 743.584,88.805 744.012,88.887 744.44,88.974 744.868,89.066 745.297,89.164 745.727,89.268 746.156,89.377 746.585,89.491 747.015,89.611 747.444,89.737 747.873,89.868 748.302,90.005 748.73,90.148 749.158,90.296 749.585,90.45 750.011,90.61 750.436,90.775 750.86,90.946 751.284,91.123 751.706,91.305 752.126,91.494 752.545,91.687 752.963,91.887 753.379,92.092 753.793,92.303 754.206,92.52 754.616,92.742 755.024,92.969 755.43,93.203 755.834,93.442 756.235,93.686 756.634,93.936 757.03,94.191 757.423,94.452 757.813,94.718 758.2,94.989 758.585,95.266 758.966,95.547 "
           id="polygon16027"
           style="stroke:#80ffe6;stroke-opacity:1" />
        <rect
           x="773.698"
           y="157.438"
           fill="none"
           stroke="#00b9d2"
           stroke-width="2.75"
           stroke-linecap="round"
           stroke-linejoin="round"
           stroke-miterlimit="10"
           width="1.841"
           height="20.247"
           id="rect16030"
           style="stroke:#80ffe6;stroke-opacity:1" />
        <rect
           x="773.698"
           y="199.772"
           fill="none"
           stroke="#00b9d2"
           stroke-width="2.75"
           stroke-linecap="round"
           stroke-linejoin="round"
           stroke-miterlimit="10"
           width="1.841"
           height="36.812"
           id="rect16033"
           style="stroke:#80ffe6;stroke-opacity:1" />
        <rect
           x="773.698"
           y="245.787"
           fill="none"
           stroke="#00b9d2"
           stroke-width="2.75"
           stroke-linecap="round"
           stroke-linejoin="round"
           stroke-miterlimit="10"
           width="1.841"
           height="36.812"
           id="rect16036"
           style="stroke:#80ffe6;stroke-opacity:1" />
        <polygon
           fill="none"
           stroke="#00b9d2"
           stroke-width="3.25"
           stroke-linecap="round"
           stroke-linejoin="round"
           stroke-miterlimit="10"
           points="493.552,102.923 493.839,102.545 494.131,102.171 494.428,101.8 494.73,101.433 495.037,101.069 495.349,100.71 495.665,100.354 495.987,100.003 496.312,99.655 496.643,99.312 496.977,98.973 497.317,98.638 497.66,98.307 498.008,97.982 498.359,97.661 498.715,97.344 499.074,97.032 499.438,96.725 499.805,96.423 500.176,96.126 500.55,95.834 500.928,95.547 501.309,95.266 501.693,94.989 502.08,94.718 502.47,94.452 502.864,94.191 503.26,93.936 503.658,93.686 504.059,93.442 504.463,93.203 504.869,92.969 505.277,92.742 505.688,92.52 506.1,92.303 506.514,92.092 506.93,91.887 507.348,91.687 507.767,91.494 508.188,91.305 508.61,91.123 509.033,90.946 509.457,90.775 509.883,90.61 510.309,90.45 510.736,90.296 511.163,90.148 511.591,90.005 512.02,89.868 512.449,89.737 512.878,89.611 513.308,89.491 513.737,89.377 514.167,89.268 514.596,89.164 515.025,89.066 515.453,88.974 515.881,88.887 516.309,88.805 516.736,88.729 517.162,88.658 517.588,88.592 518.012,88.531 518.436,88.475 518.858,88.425 519.28,88.38 519.7,88.339 520.119,88.304 520.536,88.274 520.952,88.248 521.366,88.227 521.779,88.211 522.19,88.2 522.6,88.193 523.008,88.191 736.886,88.191 737.293,88.193 737.703,88.2 738.114,88.211 738.527,88.227 738.941,88.248 739.357,88.274 739.775,88.304 740.193,88.339 740.614,88.38 741.035,88.425 741.457,88.475 741.881,88.531 742.305,88.592 742.731,88.658 743.157,88.729 743.584,88.805 744.012,88.887 744.44,88.974 744.868,89.066 745.297,89.164 745.727,89.268 746.156,89.377 746.585,89.491 747.015,89.611 747.444,89.737 747.873,89.868 748.302,90.005 748.73,90.148 749.158,90.296 749.585,90.45 750.011,90.61 750.436,90.775 750.86,90.946 751.284,91.123 751.706,91.305 752.126,91.494 752.545,91.687 752.963,91.887 753.379,92.092 753.793,92.303 754.206,92.52 754.616,92.742 755.024,92.969 755.43,93.203 755.834,93.442 756.235,93.686 756.634,93.936 757.03,94.191 757.423,94.452 757.813,94.718 758.2,94.989 758.585,95.266 758.966,95.547 759.343,95.834 759.718,96.126 760.088,96.423 760.455,96.725 760.819,97.032 761.178,97.344 761.534,97.661 761.886,97.982 762.233,98.307 762.577,98.638 762.916,98.973 763.25,99.312 763.581,99.655 763.907,100.003 764.228,100.354 764.544,100.71 764.856,101.069 765.163,101.433 765.465,101.8 765.762,102.171 766.054,102.545 766.341,102.923 766.623,103.304 766.899,103.688 767.171,104.075 767.437,104.465 767.697,104.859 767.953,105.255 768.202,105.653 768.447,106.054 768.686,106.458 768.919,106.864 769.147,107.272 769.369,107.683 769.585,108.095 769.796,108.509 770.001,108.925 770.201,109.343 770.395,109.762 770.583,110.183 770.765,110.605 770.942,111.028 771.113,111.452 771.278,111.878 771.438,112.304 771.592,112.731 771.74,113.158 771.883,113.587 772.02,114.015 772.151,114.444 772.277,114.873 772.397,115.303 772.511,115.732 772.62,116.162 772.724,116.591 772.822,117.02 772.914,117.448 773.001,117.877 773.083,118.304 773.16,118.731 773.231,119.157 773.297,119.583 773.357,120.007 773.413,120.431 773.463,120.853 773.509,121.275 773.549,121.695 773.584,122.114 773.615,122.531 773.64,122.947 773.661,123.361 773.677,123.774 773.689,124.186 773.695,124.595 773.698,125.003 773.698,130.716 773.698,157.438 775.538,157.438 775.538,177.685 773.698,177.685 773.698,199.772 775.538,199.772 775.538,236.584 773.698,236.584 773.698,245.787 775.538,245.787 775.538,282.599 773.698,282.599 773.698,634.482 773.695,634.889 773.689,635.299 773.677,635.71 773.661,636.123 773.64,636.537 773.615,636.953 773.584,637.371 773.549,637.789 773.509,638.21 773.463,638.631 773.413,639.053 773.357,639.477 773.297,639.901 773.231,640.327 773.16,640.753 773.083,641.18 773.001,641.608 772.914,642.036 772.822,642.464 772.724,642.893 772.62,643.323 772.511,643.752 772.397,644.181 772.277,644.611 772.151,645.04 772.02,645.469 771.883,645.898 771.74,646.326 771.592,646.754 771.438,647.181 771.278,647.607 771.113,648.032 770.942,648.456 770.765,648.88 770.583,649.302 770.395,649.722 770.201,650.141 770.001,650.559 769.796,650.975 769.585,651.389 769.369,651.802 769.147,652.212 768.919,652.62 768.686,653.026 768.447,653.43 768.202,653.831 767.953,654.23 767.697,654.626 767.437,655.019 767.171,655.409 766.899,655.796 766.623,656.181 766.341,656.562 766.054,656.939 765.762,657.314 765.465,657.684 765.163,658.051 764.856,658.415 764.544,658.774 764.228,659.13 763.907,659.482 763.581,659.829 763.25,660.173 762.916,660.512 762.577,660.846 762.233,661.177 761.886,661.503 761.534,661.824 761.178,662.14 760.819,662.452 760.455,662.759 760.088,663.061 759.718,663.358 759.343,663.65 758.966,663.937 758.585,664.219 758.2,664.495 757.813,664.767 757.423,665.033 757.03,665.293 756.634,665.549 756.235,665.798 755.834,666.043 755.43,666.282 755.024,666.515 754.616,666.743 754.206,666.965 753.793,667.181 753.379,667.392 752.963,667.597 752.545,667.797 752.126,667.991 751.706,668.179 751.284,668.361 750.86,668.538 750.436,668.709 750.011,668.874 749.585,669.034 749.158,669.188 748.73,669.336 748.302,669.479 747.873,669.616 747.444,669.747 747.015,669.873 746.585,669.993 746.156,670.107 745.727,670.216 745.297,670.32 744.868,670.418 744.44,670.51 744.012,670.597 743.584,670.679 743.157,670.756 742.731,670.827 742.305,670.893 741.881,670.953 741.457,671.009 741.035,671.059 740.614,671.104 740.193,671.145 739.775,671.18 739.357,671.211 738.941,671.236 738.527,671.257 738.114,671.273 737.703,671.285 737.293,671.292 736.886,671.294 523.008,671.294 522.6,671.292 522.19,671.285 521.779,671.273 521.366,671.257 520.952,671.236 520.536,671.211 520.119,671.18 519.7,671.145 519.28,671.104 518.858,671.059 518.436,671.009 518.012,670.953 517.588,670.893 517.162,670.827 516.736,670.756 516.309,670.679 515.881,670.597 515.453,670.51 515.025,670.418 514.596,670.32 514.167,670.216 513.737,670.107 513.308,669.993 512.878,669.873 512.449,669.747 512.02,669.616 511.591,669.479 511.163,669.336 510.736,669.188 510.309,669.034 509.883,668.874 509.457,668.709 509.033,668.538 508.61,668.361 508.188,668.179 507.767,667.991 507.348,667.797 506.93,667.597 506.514,667.392 506.1,667.181 505.688,666.965 505.277,666.743 504.869,666.515 504.463,666.282 504.059,666.043 503.658,665.798 503.26,665.549 502.864,665.293 502.47,665.033 502.08,664.767 501.693,664.495 501.309,664.219 500.928,663.937 500.55,663.65 500.176,663.358 499.805,663.061 499.438,662.759 499.074,662.452 498.715,662.14 498.359,661.824 498.008,661.503 497.66,661.177 497.317,660.846 496.977,660.512 496.643,660.173 496.312,659.829 495.987,659.482 495.665,659.13 495.349,658.774 495.037,658.415 494.73,658.051 494.428,657.684 494.131,657.314 493.839,656.939 493.552,656.562 493.271,656.181 492.994,655.796 492.723,655.409 492.457,655.019 492.196,654.626 491.941,654.23 491.691,653.831 491.447,653.43 491.208,653.026 490.974,652.62 490.747,652.212 490.524,651.802 490.308,651.389 490.097,650.975 489.892,650.559 489.692,650.141 489.499,649.722 489.31,649.302 489.128,648.88 488.951,648.456 488.78,648.032 488.615,647.607 488.455,647.181 488.301,646.754 488.153,646.326 488.01,645.898 487.873,645.469 487.742,645.04 487.616,644.611 487.496,644.181 487.382,643.752 487.273,643.323 487.169,642.893 487.071,642.464 486.979,642.036 486.892,641.608 486.81,641.18 486.734,640.753 486.663,640.327 486.597,639.901 486.536,639.477 486.48,639.053 486.43,638.631 486.385,638.21 486.344,637.789 486.309,637.371 486.279,636.953 486.253,636.537 486.232,636.123 486.216,635.71 486.205,635.299 486.198,634.889 486.195,634.482 486.195,628.768 486.195,237.509 484.355,237.509 484.355,200.266 486.195,200.266 486.195,125.003 486.198,124.595 486.205,124.186 486.216,123.774 486.232,123.361 486.253,122.947 486.279,122.531 486.309,122.114 486.344,121.695 486.385,121.275 486.43,120.853 486.48,120.431 486.536,120.007 486.597,119.583 486.663,119.157 486.734,118.731 486.81,118.304 486.892,117.877 486.979,117.448 487.071,117.02 487.169,116.591 487.273,116.162 487.382,115.732 487.496,115.303 487.616,114.873 487.742,114.444 487.873,114.015 488.01,113.587 488.153,113.158 488.301,112.731 488.455,112.304 488.615,111.878 488.78,111.452 488.951,111.028 489.128,110.605 489.31,110.183 489.499,109.762 489.692,109.343 489.892,108.925 490.097,108.509 490.308,108.095 490.524,107.683 490.747,107.272 490.974,106.864 491.208,106.458 491.447,106.054 491.691,105.653 491.941,105.255 492.196,104.859 492.457,104.465 492.723,104.075 492.994,103.688 493.271,103.304 "
           id="polygon16079"
           style="stroke:#80ffe6;stroke-opacity:1" />
      </g>
    </g>
  </g>
</svg>
