<?xml version="1.0" encoding="UTF-8" standalone="no"?>
<svg
   xmlns:dc="http://purl.org/dc/elements/1.1/"
   xmlns:cc="http://creativecommons.org/ns#"
   xmlns:rdf="http://www.w3.org/1999/02/22-rdf-syntax-ns#"
   xmlns:svg="http://www.w3.org/2000/svg"
   xmlns="http://www.w3.org/2000/svg"
   xmlns:sodipodi="http://sodipodi.sourceforge.net/DTD/sodipodi-0.dtd"
   xmlns:inkscape="http://www.inkscape.org/namespaces/inkscape"
   width="14.443197mm"
   height="28.747147mm"
   viewBox="0 0 14.443198 28.747148"
   version="1.1"
   id="svg4830"
   inkscape:version="1.0.2 (e86c8708, 2021-01-15)"
   sodipodi:docname="ip7.svg">
  <defs
     id="defs4824" />
  <sodipodi:namedview
     id="base"
     pagecolor="#ffffff"
     bordercolor="#666666"
     borderopacity="1.0"
     inkscape:pageopacity="0.0"
     inkscape:pageshadow="2"
     inkscape:zoom="2.8060312"
     inkscape:cx="-4.3248326"
     inkscape:cy="71.216602"
     inkscape:document-units="mm"
     inkscape:current-layer="layer2"
     inkscape:document-rotation="0"
     showgrid="false"
     inkscape:window-width="1440"
     inkscape:window-height="900"
     inkscape:window-x="0"
     inkscape:window-y="0"
     inkscape:window-maximized="0"
     inkscape:snap-global="false" />
  <metadata
     id="metadata4827">
    <rdf:RDF>
      <cc:Work
         rdf:about="">
        <dc:format>image/svg+xml</dc:format>
        <dc:type
           rdf:resource="http://purl.org/dc/dcmitype/StillImage" />
        <dc:title />
      </cc:Work>
    </rdf:RDF>
  </metadata>
  <g
     inkscape:groupmode="layer"
     id="layer2"
     inkscape:label="Layer 2"
     style="display:inline"
     transform="translate(-7.3528822,0.806968)" />
  <g
     inkscape:label="Layer 1"
     inkscape:groupmode="layer"
     id="layer1"
     transform="translate(-84.938207,-148.88662)">
    <path
       fill="none"
       stroke="#00b9d2"
       stroke-width="0.102273"
       stroke-linecap="round"
       stroke-linejoin="round"
       stroke-miterlimit="10"
       d="m 99.197796,151.41031 h -0.365997 c -0.0024,0 -0.004,-9e-5 -0.004,-9e-5 -0.0024,-1e-4 -0.004,-2.4e-4 -0.004,-2.4e-4 -0.0024,-1.6e-4 -0.004,-4e-4 -0.004,-4e-4 -0.0024,-2.5e-4 -0.004,-5.3e-4 -0.004,-5.3e-4 -0.0024,-3e-4 -0.004,-6.9e-4 -0.004,-6.9e-4 -0.0024,-4e-4 -0.004,-8.1e-4 -0.004,-8.1e-4 -0.0024,-4.4e-4 -0.004,-8e-4 -0.004,-8e-4 -0.0024,-5.4e-4 -0.004,-8e-4 -0.004,-8e-4 -0.0024,-5.9e-4 -0.004,-0.002 -0.004,-0.002 -0.0024,-6.9e-4 -0.004,-0.002 -0.004,-0.002 -0.0024,-7.3e-4 -0.004,-0.002 -0.004,-0.002 -0.0024,-8e-4 -0.004,-0.002 -0.004,-0.002 -0.0016,-8.1e-4 -0.004,-0.002 -0.004,-0.002 -0.0016,-8e-4 -0.004,-0.002 -0.004,-0.002 -0.0016,-8e-4 -0.004,-0.002 -0.004,-0.002 -0.0016,-8e-4 -0.004,-0.002 -0.004,-0.002 -0.0016,-8.1e-4 -0.004,-0.002 -0.004,-0.002 -0.0016,-0.002 -0.0032,-0.002 -0.0032,-0.002 -0.0016,-0.002 -0.0032,-0.002 -0.0032,-0.002 -0.0016,-0.002 -0.0032,-0.002 -0.0032,-0.002 -0.0016,-0.002 -0.0032,-0.002 -0.0032,-0.002 -0.0016,-0.002 -0.0032,-0.003 -0.0032,-0.003 -0.0016,-0.002 -0.0032,-0.003 -0.0032,-0.003 -0.0016,-0.002 -0.0032,-0.003 -0.0032,-0.003 -0.0016,-0.002 -0.0032,-0.003 -0.0032,-0.003 -0.0016,-0.002 -0.0024,-0.003 -0.0024,-0.003 -0.0016,-0.002 -0.0024,-0.003 -0.0024,-0.003 -0.0016,-0.002 -0.0024,-0.003 -0.0024,-0.003 -0.0016,-0.002 -0.0024,-0.003 -0.0024,-0.003 -8.02e-4,-0.002 -0.0024,-0.004 -0.0024,-0.004 -8.02e-4,-0.002 -0.0024,-0.004 -0.0024,-0.004 -8.02e-4,-0.002 -0.0024,-0.004 -0.0024,-0.004 -8.02e-4,-0.002 -0.0016,-0.004 -0.0016,-0.004 -8.02e-4,-0.002 -0.0016,-0.004 -0.0016,-0.004 -8.02e-4,-0.002 -0.0016,-0.004 -0.0016,-0.004 -7.3e-4,-0.002 -0.0016,-0.004 -0.0016,-0.004 -6.9e-4,-0.002 -0.0016,-0.004 -0.0016,-0.004 -5.86e-4,-0.002 -8.02e-4,-0.004 -8.02e-4,-0.004 -5.38e-4,-0.002 -8.02e-4,-0.004 -8.02e-4,-0.004 -4.41e-4,-0.002 -8.02e-4,-0.004 -8.02e-4,-0.004 -3.93e-4,-0.002 -7.3e-4,-0.004 -7.3e-4,-0.004 -2.97e-4,-0.002 -5.94e-4,-0.004 -5.94e-4,-0.004 -2.4e-4,-0.002 -4.41e-4,-0.004 -4.41e-4,-0.004 -1.44e-4,-0.002 -2.89e-4,-0.004 -2.89e-4,-0.004 -9.6e-5,-0.002 -1.44e-4,-0.004 -1.44e-4,-0.004 0,-0.002 0,-0.51148 0,-0.51148 0,0 -1.04e-4,-0.0146 -1.04e-4,-0.0146 l -2.41e-4,-0.0147 -3.93e-4,-0.0147 c 0,0 -5.85e-4,-0.0148 -5.85e-4,-0.0148 l -7.38e-4,-0.0148 -8.02e-4,-0.0149 -8.02e-4,-0.0149 -0.0016,-0.015 -0.0016,-0.015 -0.0016,-0.0151 c 0,0 -0.0016,-0.0151 -0.0016,-0.0151 l -0.0016,-0.0152 -0.0024,-0.0151 c 0,0 -0.0024,-0.0152 -0.0024,-0.0152 0,0 -0.0024,-0.0152 -0.0024,-0.0152 0,0 -0.0024,-0.0153 -0.0024,-0.0153 0,0 -0.0032,-0.0152 -0.0032,-0.0152 l -0.0032,-0.0153 -0.0032,-0.0153 -0.0032,-0.0153 -0.004,-0.0153 c 0,0 -0.004,-0.0153 -0.004,-0.0153 l -0.004,-0.0154 -0.004,-0.0153 c 0,0 -0.0048,-0.0153 -0.0048,-0.0153 0,0 -0.0048,-0.0153 -0.0048,-0.0153 l -0.0048,-0.0153 -0.0048,-0.0153 -0.0056,-0.0152 -0.0056,-0.0152 -0.0056,-0.0152 -0.0056,-0.0152 -0.0064,-0.0152 -0.0064,-0.0151 -0.0064,-0.0151 c 0,0 -0.0064,-0.015 -0.0064,-0.015 0,0 -0.0072,-0.015 -0.0072,-0.015 0,0 -0.0072,-0.0149 -0.0072,-0.0149 l -0.0072,-0.0149 c 0,0 -0.0072,-0.0147 -0.0072,-0.0147 l -0.008,-0.0148 -0.008,-0.0147 -0.0081,-0.0146 c 0,0 -0.0083,-0.0145 -0.0083,-0.0145 l -0.0085,-0.0144 -0.0087,-0.0144 -0.0089,-0.0143 -0.0091,-0.0142 -0.0093,-0.014 -0.0095,-0.0139 -0.0097,-0.0139 -0.0099,-0.0137 -0.01011,-0.0136 c 0,0 -0.01027,-0.0136 -0.01027,-0.0136 l -0.01043,-0.0134 -0.01059,-0.0132 -0.01075,-0.0131 c 0,0 -0.01099,-0.013 -0.01099,-0.013 l -0.01115,-0.0129 -0.01131,-0.0128 -0.01147,-0.0126 -0.01163,-0.0124 -0.01179,-0.0123 -0.01195,-0.0122 -0.01211,-0.012 -0.01227,-0.0118 -0.01243,-0.0116 -0.01259,-0.0115 -0.01275,-0.0113 c 0,0 -0.01291,-0.0112 -0.01291,-0.0112 0,0 -0.01299,-0.011 -0.01299,-0.011 l -0.01315,-0.0107 c 0,0 -0.01323,-0.0106 -0.01323,-0.0106 l -0.01339,-0.0104 c 0,0 -0.01355,-0.0103 -0.01355,-0.0103 0,0 -0.01363,-0.0101 -0.01363,-0.0101 l -0.01372,-0.01 -0.01387,-0.01 -0.01395,-0.01 -0.01404,-0.009 -0.0142,-0.009 c 0,0 -0.01428,-0.009 -0.01428,-0.009 0,0 -0.01436,-0.009 -0.01436,-0.009 l -0.01444,-0.008 -0.01452,-0.008 -0.0146,-0.008 -0.01468,-0.008 -0.01476,-0.008 -0.01476,-0.007 c 0,0 -0.01492,-0.007 -0.01492,-0.007 l -0.01492,-0.007 c 0,0 -0.015,-0.007 -0.015,-0.007 l -0.015,-0.006 c 0,0 -0.01508,-0.006 -0.01508,-0.006 l -0.01516,-0.006 -0.01516,-0.006 c 0,0 -0.01516,-0.006 -0.01516,-0.006 0,0 -0.01524,-0.006 -0.01524,-0.006 0,0 -0.01508,-0.006 -0.01508,-0.006 l -0.01532,-0.006 -0.01532,-0.005 -0.01532,-0.005 c 0,0 -0.01532,-0.005 -0.01532,-0.005 l -0.01532,-0.005 -0.01532,-0.004 c 0,0 -0.0154,-0.004 -0.0154,-0.004 0,0 -0.01532,-0.004 -0.01532,-0.004 l -0.01532,-0.004 -0.01532,-0.003 c 0,0 -0.01532,-0.003 -0.01532,-0.003 0,0 -0.01532,-0.003 -0.01532,-0.003 l -0.01524,-0.003 c 0,0 -0.01532,-0.002 -0.01532,-0.002 l -0.01524,-0.002 c 0,0 -0.01524,-0.002 -0.01524,-0.002 l -0.01516,-0.002 -0.01516,-0.002 -0.01508,-0.002 -0.01508,-0.002 -0.015,-0.002 c 0,0 -0.015,-0.002 -0.015,-0.002 l -0.01492,-8e-4 c 0,0 -0.01492,-8e-4 -0.01492,-8e-4 l -0.01484,-7.4e-4 -0.01476,-5.9e-4 -0.01468,-3.9e-4 -0.01468,-2.4e-4 -0.0146,-1.1e-4 H 86.93082 c 0,0 -0.0146,1.1e-4 -0.0146,1.1e-4 l -0.01468,2.4e-4 -0.01468,3.9e-4 -0.01476,5.9e-4 c 0,0 -0.01484,7.4e-4 -0.01484,7.4e-4 0,0 -0.01492,8e-4 -0.01492,8e-4 0,0 -0.01492,8e-4 -0.01492,8e-4 l -0.015,0.002 -0.015,0.002 -0.01508,0.002 c 0,0 -0.01508,0.002 -0.01508,0.002 l -0.01516,0.002 c 0,0 -0.01516,0.002 -0.01516,0.002 l -0.01524,0.002 -0.01524,0.002 -0.01532,0.002 -0.01524,0.003 c 0,0 -0.01532,0.003 -0.01532,0.003 0,0 -0.01532,0.003 -0.01532,0.003 l -0.01532,0.003 -0.01532,0.004 -0.01532,0.004 -0.01532,0.004 -0.01532,0.004 -0.01532,0.005 -0.01532,0.005 c 0,0 -0.01532,0.005 -0.01532,0.005 l -0.01532,0.005 -0.01532,0.006 -0.01524,0.006 -0.01524,0.006 -0.01516,0.006 -0.01516,0.006 c 0,0 -0.01516,0.006 -0.01516,0.006 l -0.01508,0.006 -0.015,0.006 -0.015,0.007 c 0,0 -0.01492,0.007 -0.01492,0.007 l -0.01492,0.007 c 0,0 -0.01476,0.007 -0.01476,0.007 0,0 -0.01476,0.008 -0.01476,0.008 l -0.01468,0.008 -0.0146,0.008 -0.01452,0.008 -0.01444,0.008 c 0,0 -0.01436,0.009 -0.01436,0.009 0,0 -0.01428,0.009 -0.01428,0.009 l -0.0142,0.009 c 0,0 -0.01403,0.009 -0.01403,0.009 l -0.01396,0.009 -0.01387,0.01 -0.01371,0.01 -0.01364,0.0101 -0.01355,0.0103 -0.01339,0.0104 -0.01331,0.0106 c 0,0 -0.01315,0.0107 -0.01315,0.0107 l -0.01299,0.011 -0.01291,0.0112 c 0,0 -0.01275,0.0113 -0.01275,0.0113 l -0.01259,0.0115 -0.01243,0.0116 -0.01227,0.0118 -0.01219,0.0119 -0.01195,0.0121 -0.01179,0.0123 -0.01163,0.0124 -0.01147,0.0126 -0.01131,0.0127 -0.01115,0.0129 -0.01099,0.013 c 0,0 -0.01075,0.0131 -0.01075,0.0131 0,0 -0.01059,0.0132 -0.01059,0.0132 l -0.01043,0.0134 -0.01027,0.0136 c 0,0 -0.01011,0.0136 -0.01011,0.0136 l -0.0099,0.0137 -0.0097,0.0139 -0.0095,0.014 -0.0093,0.014 c 0,0 -0.0091,0.0142 -0.0091,0.0142 l -0.0089,0.0143 -0.0087,0.0144 -0.0085,0.0144 c 0,0 -0.0083,0.0145 -0.0083,0.0145 0,0 -0.0081,0.0146 -0.0081,0.0146 l -0.008,0.0147 -0.008,0.0148 c 0,0 -0.0072,0.0147 -0.0072,0.0147 0,0 -0.0072,0.0149 -0.0072,0.0149 0,0 -0.0072,0.0149 -0.0072,0.0149 l -0.0072,0.015 c 0,0 -0.0064,0.015 -0.0064,0.015 l -0.0064,0.0151 c 0,0 -0.0064,0.0152 -0.0064,0.0152 l -0.0064,0.0152 -0.0056,0.0152 -0.0056,0.0152 -0.0056,0.0152 c 0,0 -0.0056,0.0153 -0.0056,0.0153 0,0 -0.0048,0.0153 -0.0048,0.0153 l -0.0048,0.0153 -0.0048,0.0153 c 0,0 -0.0048,0.0153 -0.0048,0.0153 l -0.004,0.0153 -0.004,0.0154 -0.004,0.0153 -0.004,0.0153 c 0,0 -0.0032,0.0153 -0.0032,0.0153 l -0.0032,0.0153 -0.0032,0.0153 -0.0032,0.0153 c 0,0 -0.0024,0.0152 -0.0024,0.0152 0,0 -0.0024,0.0152 -0.0024,0.0152 l -0.0024,0.0152 -0.0024,0.0152 -0.0016,0.0152 -0.0016,0.0151 -0.0016,0.0151 -0.0016,0.0151 -0.0016,0.015 c 0,0 -8.02e-4,0.0149 -8.02e-4,0.0149 l -8.02e-4,0.0149 -7.3e-4,0.0148 c 0,0 -5.94e-4,0.0148 -5.94e-4,0.0148 0,0 -3.85e-4,0.0147 -3.85e-4,0.0147 l -2.48e-4,0.0147 -9.6e-5,0.0146 c 0,0 0,0.50933 0,0.50933 0,0.002 -4.9e-5,0.004 -4.9e-5,0.004 -9.6e-5,0.002 -2.48e-4,0.004 -2.48e-4,0.004 -1.45e-4,0.002 -3.93e-4,0.004 -3.93e-4,0.004 -2.41e-4,0.002 -5.37e-4,0.004 -5.37e-4,0.004 -2.89e-4,0.002 -6.82e-4,0.004 -6.82e-4,0.004 -3.93e-4,0.002 -8.02e-4,0.004 -8.02e-4,0.004 -4.41e-4,0.002 -8.02e-4,0.004 -8.02e-4,0.004 -5.38e-4,0.002 -8.02e-4,0.004 -8.02e-4,0.004 -5.86e-4,0.002 -0.0016,0.004 -0.0016,0.004 -6.9e-4,0.002 -0.0016,0.004 -0.0016,0.004 -7.38e-4,0.002 -0.0016,0.004 -0.0016,0.004 -8.02e-4,0.002 -0.0016,0.004 -0.0016,0.004 -8.02e-4,0.002 -0.0016,0.004 -0.0016,0.004 -8.02e-4,0.002 -0.0016,0.004 -0.0016,0.004 -8.02e-4,0.002 -0.0024,0.004 -0.0024,0.004 -8.02e-4,0.002 -0.0024,0.004 -0.0024,0.004 -8.02e-4,0.002 -0.0024,0.004 -0.0024,0.004 -0.0016,0.002 -0.0024,0.003 -0.0024,0.003 -0.0016,0.002 -0.0024,0.003 -0.0024,0.003 -0.0016,0.002 -0.0024,0.003 -0.0024,0.003 -0.0016,0.002 -0.0024,0.003 -0.0024,0.003 -0.0016,0.002 -0.0032,0.003 -0.0032,0.003 -0.0016,0.002 -0.0032,0.003 -0.0032,0.003 -0.0016,0.002 -0.0032,0.003 -0.0032,0.003 -0.0016,0.002 -0.0032,0.003 -0.0032,0.003 -0.0016,0.002 -0.0032,0.002 -0.0032,0.002 -0.0016,0.002 -0.0032,0.002 -0.0032,0.002 -0.0016,0.002 -0.0032,0.002 -0.0032,0.002 -0.0016,0.002 -0.0032,0.002 -0.0032,0.002 -0.0016,8e-4 -0.004,0.002 -0.004,0.002 -0.0016,8e-4 -0.004,0.002 -0.004,0.002 -0.0016,8e-4 -0.004,0.002 -0.004,0.002 -0.0016,8e-4 -0.004,0.002 -0.004,0.002 -0.0016,8e-4 -0.004,0.002 -0.004,0.002 -0.0016,8e-4 -0.004,0.002 -0.004,0.002 -0.0016,7.4e-4 -0.004,0.002 -0.004,0.002 -0.0024,6.9e-4 -0.004,0.002 -0.004,0.002 -0.0024,5.8e-4 -0.004,8e-4 -0.004,8e-4 -0.0024,5.4e-4 -0.004,8e-4 -0.004,8e-4 -0.0024,4.4e-4 -0.004,8e-4 -0.004,8e-4 -0.0024,4e-4 -0.004,7.4e-4 -0.004,7.4e-4 -0.0024,2.9e-4 -0.004,5.9e-4 -0.004,5.9e-4 -0.0024,2.4e-4 -0.004,4.4e-4 -0.004,4.4e-4 -0.0024,1.4e-4 -0.004,2.9e-4 -0.004,2.9e-4 -0.0024,1e-4 -0.004,1.5e-4 -0.004,1.5e-4 -0.0024,0 -0.368162,0 -0.368162,0"
       id="path17054"
       style="stroke:#80ffe6;stroke-opacity:1" />
    <path
       fill="none"
       stroke="#00b9d2"
       stroke-width="0.102273"
       stroke-linecap="round"
       stroke-linejoin="round"
       stroke-miterlimit="10"
       d="m 92.175213,155.65126 c 0.09692,0.007 0.194142,-0.0198 0.279067,-0.0656 0.115337,-0.0617 0.209861,-0.1589 0.273629,-0.27271 0.06865,-0.121 0.106138,-0.26266 0.09066,-0.40193 -0.09169,0.004 -0.180676,0.0349 -0.261487,0.0773 -0.110196,0.0581 -0.205603,0.14221 -0.272506,0.24758 -0.07804,0.12198 -0.128226,0.26938 -0.109362,0.41531 z"
       id="path17056"
       style="stroke:#80ffe6;stroke-opacity:1" />
    <path
       fill="none"
       stroke="#00b9d2"
       stroke-width="0.102273"
       stroke-linecap="round"
       stroke-linejoin="round"
       stroke-miterlimit="10"
       d="m 93.055907,156.61741 c -0.0016,-0.10577 0.02213,-0.21199 0.06921,-0.30679 0.06191,-0.12443 0.160209,-0.23079 0.277992,-0.30429 -0.05261,-0.0773 -0.120429,-0.14446 -0.19889,-0.19544 -0.115297,-0.075 -0.251694,-0.11654 -0.38883,-0.12316 -0.09526,-0.01 -0.191207,0.01 -0.281617,0.0388 -0.08267,0.0258 -0.183027,0.0727 -0.266043,0.0971 -0.02342,0.006 -0.04892,0.012 -0.07314,0.0112 -0.04531,-0.002 -0.0891,-0.0177 -0.131361,-0.033 0,0 -0.131938,-0.0512 -0.131938,-0.0512 -0.06689,-0.0248 -0.136302,-0.0463 -0.207568,-0.053 -0.08468,-0.007 -0.170925,0.005 -0.252377,0.0282 -0.27099,0.0799 -0.469046,0.29915 -0.549271,0.56652 -0.129108,0.4252 0.0056,0.94917 0.224113,1.32466 0.05422,0.0911 0.118481,0.18045 0.183812,0.26394 0.07707,0.0946 0.167107,0.19064 0.286518,0.22844 0.06584,0.021 0.137079,0.0148 0.203205,-0.002 0.05253,-0.0126 0.122491,-0.0449 0.172833,-0.0655 0.04411,-0.0179 0.09022,-0.0329 0.137087,-0.0412 0.07443,-0.013 0.151733,-0.0134 0.225983,5.9e-4 0.06913,0.0122 0.141394,0.0454 0.205843,0.073 0.03609,0.015 0.07362,0.0282 0.111969,0.0358 0.04259,0.008 0.08669,0.011 0.129933,0.006 0.185328,-0.0191 0.309776,-0.17874 0.410861,-0.31997 0.111528,-0.15307 0.204432,-0.32285 0.264334,-0.50271 l 0.0086,-0.027 -0.0056,-0.002 c -0.132628,-0.0589 -0.248214,-0.15826 -0.324613,-0.28181 -0.06761,-0.1091 -0.100356,-0.2378 -0.101045,-0.36566"
       id="path17058"
       style="stroke:#80ffe6;stroke-opacity:1" />
    <rect
       x="85.021317"
       y="154.41023"
       fill="none"
       stroke="#00b9d2"
       stroke-width="0.140627"
       stroke-linecap="round"
       stroke-linejoin="round"
       stroke-miterlimit="10"
       width="0.10050044"
       height="1.8916148"
       id="rect17062"
       style="stroke:#80ffe6;stroke-opacity:1" />
    <path
       fill="none"
       stroke="#00b9d2"
       stroke-width="0.140627"
       stroke-linecap="round"
       stroke-linejoin="round"
       stroke-miterlimit="10"
       d="m 90.283945,150.91857 c 4.9e-4,-0.16414 -0.112939,-0.30988 -0.27221,-0.34969 -0.226768,-0.0571 -0.446967,0.11278 -0.449317,0.34656 -0.0016,0.23641 0.220007,0.4105 0.449317,0.35281 0.159271,-0.0399 0.2727,-0.18554 0.27221,-0.34968 z"
       id="path17066"
       style="stroke:#80ffe6;stroke-opacity:1" />
    <path
       fill="none"
       stroke="#00b9d2"
       stroke-width="0.0549283"
       stroke-linecap="round"
       stroke-linejoin="round"
       stroke-miterlimit="10"
       d="m 89.044231,150.91857 c 1.91e-4,-0.0569 -0.03922,-0.10754 -0.09443,-0.12131 -0.07861,-0.0198 -0.155089,0.0392 -0.155872,0.12021 -6.25e-4,0.082 0.07637,0.14242 0.155872,0.1224 0.05521,-0.0138 0.09462,-0.0644 0.09443,-0.1213 z"
       id="path17068"
       style="stroke:#80ffe6;stroke-opacity:1" />
    <rect
       x="99.1978"
       y="156.68607"
       fill="none"
       stroke="#00b9d2"
       stroke-width="0.140627"
       stroke-linecap="round"
       stroke-linejoin="round"
       stroke-miterlimit="10"
       width="0.10050044"
       height="1.8066541"
       id="rect17074"
       style="stroke:#80ffe6;stroke-opacity:1" />
    <rect
       x="99.1978"
       y="154.42776"
       fill="none"
       stroke="#00b9d2"
       stroke-width="0.140627"
       stroke-linecap="round"
       stroke-linejoin="round"
       stroke-miterlimit="10"
       width="0.10050044"
       height="1.8066541"
       id="rect17076"
       style="stroke:#80ffe6;stroke-opacity:1" />
    <rect
       x="99.1978"
       y="152.35013"
       fill="none"
       stroke="#00b9d2"
       stroke-width="0.140627"
       stroke-linecap="round"
       stroke-linejoin="round"
       stroke-miterlimit="10"
       width="0.10050044"
       height="0.99362534"
       id="rect17078"
       style="stroke:#80ffe6;stroke-opacity:1" />
    <polygon
       fill="none"
       stroke="#00b9d2"
       stroke-width="2.87153"
       stroke-linecap="round"
       stroke-linejoin="round"
       stroke-miterlimit="10"
       points="765.684,109.063 765.981,109.435 766.274,109.81 766.562,110.188 766.844,110.57 767.121,110.955 767.393,111.343 767.66,111.734 767.921,112.128 768.177,112.525 768.427,112.925 768.672,113.327 768.911,113.731 769.145,114.138 769.373,114.547 769.596,114.959 769.813,115.372 770.024,115.787 770.23,116.204 770.43,116.623 770.624,117.043 770.813,117.464 770.996,117.887 771.173,118.311 771.344,118.737 771.51,119.163 771.67,119.59 771.824,120.018 771.973,120.446 772.116,120.876 772.253,121.305 772.385,121.735 772.511,122.165 772.631,122.596 772.746,123.026 772.855,123.456 772.959,123.887 773.057,124.316 773.15,124.746 773.237,125.175 773.319,125.604 773.395,126.032 773.467,126.459 773.533,126.885 773.593,127.311 773.649,127.735 773.7,128.159 773.745,128.581 773.785,129.002 773.821,129.422 773.851,129.84 773.877,130.257 773.898,130.672 773.914,131.086 773.926,131.498 773.932,131.908 773.935,132.317 773.935,642.186 773.932,642.594 773.926,643.005 773.914,643.417 773.898,643.831 773.877,644.246 773.851,644.663 773.821,645.081 773.785,645.501 773.745,645.922 773.7,646.344 773.649,646.768 773.593,647.192 773.533,647.618 773.467,648.044 773.395,648.471 773.319,648.899 773.237,649.328 773.15,649.757 773.057,650.186 772.959,650.616 772.855,651.046 772.746,651.477 772.631,651.907 772.511,652.338 772.385,652.768 772.253,653.198 772.116,653.627 771.973,654.056 771.824,654.485 771.67,654.913 771.51,655.34 771.344,655.766 771.173,656.192 770.996,656.616 770.813,657.039 770.624,657.46 770.43,657.88 770.23,658.299 770.024,658.716 769.813,659.131 769.596,659.544 769.373,659.955 769.145,660.365 768.911,660.771 768.672,661.176 768.427,661.578 768.177,661.978 767.921,662.374 767.66,662.768 767.393,663.16 767.121,663.548 766.844,663.933 766.562,664.315 766.274,664.693 765.981,665.068 765.684,665.44 765.381,665.808 765.073,666.172 764.761,666.532 764.444,666.889 764.122,667.241 763.795,667.59 763.464,667.934 763.129,668.274 762.789,668.609 762.445,668.94 762.096,669.267 761.744,669.589 761.388,669.906 761.027,670.218 760.663,670.526 760.295,670.828 759.924,671.126 759.548,671.419 759.17,671.706 758.788,671.989 758.403,672.266 758.015,672.538 757.624,672.804 757.23,673.066 756.833,673.322 756.433,673.572 756.031,673.817 755.627,674.056 755.22,674.29 754.811,674.518 754.399,674.741 753.986,674.958 753.571,675.169 753.154,675.375 752.735,675.575 752.315,675.769 751.894,675.958 751.471,676.141 751.047,676.318 750.621,676.489 750.195,676.655 749.768,676.815 749.34,676.969 748.912,677.118 748.482,677.261 748.053,677.398 747.623,677.529 747.193,677.655 746.762,677.776 746.332,677.891 745.902,678 745.471,678.103 745.042,678.202 744.612,678.294 744.183,678.382 743.754,678.464 743.326,678.54 742.899,678.611 742.473,678.677 742.047,678.738 741.623,678.794 741.2,678.844 740.777,678.89 740.356,678.93 739.936,678.966 739.518,678.996 739.101,679.022 738.686,679.043 738.272,679.059 737.86,679.07 737.45,679.077 737.041,679.08 523.427,679.08 523.019,679.077 522.609,679.07 522.196,679.059 521.783,679.043 521.367,679.022 520.95,678.996 520.532,678.966 520.112,678.93 519.691,678.89 519.269,678.844 518.846,678.794 518.421,678.738 517.996,678.677 517.569,678.611 517.142,678.54 516.714,678.464 516.286,678.382 515.857,678.294 515.427,678.202 514.997,678.103 514.567,678 514.137,677.891 513.706,677.776 513.276,677.655 512.846,677.529 512.416,677.398 511.986,677.261 511.557,677.118 511.128,676.969 510.7,676.815 510.273,676.655 509.847,676.489 509.422,676.318 508.998,676.141 508.575,675.958 508.153,675.769 507.733,675.575 507.314,675.375 506.898,675.169 506.482,674.958 506.069,674.741 505.658,674.518 505.249,674.29 504.842,674.056 504.437,673.817 504.035,673.572 503.636,673.322 503.239,673.066 502.845,672.804 502.454,672.538 502.066,672.266 501.68,671.989 501.299,671.706 500.92,671.419 500.545,671.126 500.173,670.828 499.806,670.526 499.441,670.218 499.081,669.906 498.724,669.589 498.372,669.267 498.024,668.94 497.68,668.609 497.34,668.274 497.004,667.934 496.673,667.59 496.347,667.241 496.025,666.889 495.708,666.532 495.395,666.172 495.088,665.808 494.785,665.44 494.487,665.068 494.195,664.693 493.907,664.315 493.625,663.933 493.347,663.548 493.076,663.16 492.809,662.768 492.548,662.374 492.292,661.978 492.041,661.578 491.797,661.176 491.557,660.771 491.323,660.365 491.095,659.955 490.872,659.544 490.655,659.131 490.444,658.716 490.238,658.299 490.038,657.88 489.844,657.46 489.656,657.039 489.473,656.616 489.296,656.192 489.124,655.766 488.959,655.34 488.799,654.913 488.644,654.485 488.496,654.056 488.353,653.627 488.216,653.198 488.084,652.768 487.958,652.338 487.838,651.907 487.723,651.477 487.614,651.046 487.51,650.616 487.412,650.186 487.319,649.757 487.232,649.328 487.15,648.899 487.073,648.471 487.002,648.044 486.936,647.618 486.875,647.192 486.819,646.768 486.769,646.344 486.724,645.922 486.683,645.501 486.648,645.081 486.617,644.663 486.591,644.246 486.571,643.831 486.554,643.417 486.543,643.005 486.536,642.594 486.534,642.186 486.534,132.317 486.536,131.908 486.543,131.498 486.554,131.086 486.571,130.672 486.591,130.257 486.617,129.84 486.648,129.422 486.683,129.002 486.724,128.581 486.769,128.159 486.819,127.735 486.875,127.311 486.936,126.885 487.002,126.459 487.073,126.032 487.15,125.604 487.232,125.175 487.319,124.746 487.412,124.316 487.51,123.887 487.614,123.456 487.723,123.026 487.838,122.596 487.958,122.165 488.084,121.735 488.216,121.305 488.353,120.876 488.496,120.446 488.644,120.018 488.799,119.59 488.959,119.163 489.124,118.737 489.296,118.311 489.473,117.887 489.656,117.464 489.844,117.043 490.038,116.623 490.238,116.204 490.444,115.787 490.655,115.372 490.872,114.959 491.095,114.547 491.323,114.138 491.557,113.731 491.797,113.327 492.041,112.925 492.292,112.525 492.548,112.128 492.809,111.734 493.076,111.343 493.347,110.955 493.625,110.57 493.907,110.188 494.195,109.81 494.487,109.435 494.785,109.063 495.088,108.695 495.395,108.331 495.708,107.97 496.025,107.614 496.347,107.262 496.673,106.913 497.004,106.569 497.34,106.229 497.68,105.894 498.024,105.563 498.372,105.236 498.724,104.914 499.081,104.597 499.441,104.285 499.806,103.977 500.173,103.674 500.545,103.377 500.92,103.084 501.299,102.797 501.68,102.514 502.066,102.237 502.454,101.965 502.845,101.698 503.239,101.437 503.636,101.181 504.035,100.931 504.437,100.686 504.842,100.447 505.249,100.213 505.658,99.985 506.069,99.762 506.482,99.545 506.898,99.334 507.314,99.128 507.733,98.928 508.153,98.734 508.575,98.545 508.998,98.362 509.422,98.185 509.847,98.014 510.273,97.848 510.7,97.688 511.128,97.534 511.557,97.385 511.986,97.242 512.416,97.105 512.846,96.973 513.276,96.847 513.706,96.727 514.137,96.612 514.567,96.503 514.997,96.399 515.427,96.301 515.857,96.209 516.286,96.121 516.714,96.039 517.142,95.963 517.569,95.891 517.996,95.825 518.421,95.765 518.846,95.709 519.269,95.658 519.691,95.613 520.112,95.573 520.532,95.537 520.95,95.507 521.367,95.481 521.783,95.46 522.196,95.444 522.609,95.432 523.019,95.426 523.427,95.423 737.041,95.423 737.45,95.426 737.86,95.432 738.272,95.444 738.686,95.46 739.101,95.481 739.518,95.507 739.936,95.537 740.356,95.573 740.777,95.613 741.2,95.658 741.623,95.709 742.047,95.765 742.473,95.825 742.899,95.891 743.326,95.963 743.754,96.039 744.183,96.121 744.612,96.209 745.042,96.301 745.471,96.399 745.902,96.503 746.332,96.612 746.762,96.727 747.193,96.847 747.623,96.973 748.053,97.105 748.482,97.242 748.912,97.385 749.34,97.534 749.768,97.688 750.195,97.848 750.621,98.014 751.047,98.185 751.471,98.362 751.894,98.545 752.315,98.734 752.735,98.928 753.154,99.128 753.571,99.334 753.986,99.545 754.399,99.762 754.811,99.985 755.22,100.213 755.627,100.447 756.031,100.686 756.433,100.931 756.833,101.181 757.23,101.437 757.624,101.698 758.015,101.965 758.403,102.237 758.788,102.514 759.17,102.797 759.548,103.084 759.924,103.377 760.295,103.674 760.663,103.977 761.027,104.285 761.388,104.597 761.744,104.914 762.096,105.236 762.445,105.563 762.789,105.894 763.129,106.229 763.464,106.569 763.795,106.913 764.122,107.262 764.444,107.614 764.761,107.97 765.073,108.331 765.381,108.695 "
       id="polygon17080"
       style="stroke:#80ffe6;stroke-opacity:1"
       transform="matrix(0.04897682,0,0,0.04896877,61.292924,144.29696)" />
    <polygon
       fill="none"
       stroke="#00b9d2"
       stroke-width="3.39363"
       stroke-linecap="round"
       stroke-linejoin="round"
       stroke-miterlimit="10"
       points="499.806,103.977 500.173,103.674 500.545,103.377 500.92,103.084 501.299,102.797 501.68,102.514 502.066,102.237 502.454,101.965 502.845,101.698 503.239,101.437 503.636,101.181 504.035,100.931 504.437,100.686 504.842,100.447 505.249,100.213 505.658,99.985 506.069,99.762 506.482,99.545 506.898,99.334 507.314,99.128 507.733,98.928 508.153,98.734 508.575,98.545 508.998,98.362 509.422,98.185 509.847,98.014 510.273,97.848 510.7,97.688 511.128,97.534 511.557,97.385 511.986,97.242 512.416,97.105 512.846,96.973 513.276,96.847 513.706,96.727 514.137,96.612 514.567,96.503 514.997,96.399 515.427,96.301 515.857,96.209 516.286,96.121 516.714,96.039 517.142,95.963 517.569,95.891 517.996,95.825 518.421,95.765 518.846,95.709 519.269,95.658 519.691,95.613 520.112,95.573 520.532,95.537 520.95,95.507 521.367,95.481 521.783,95.46 522.196,95.444 522.609,95.432 523.019,95.426 523.427,95.423 737.041,95.423 737.45,95.426 737.86,95.432 738.272,95.444 738.686,95.46 739.101,95.481 739.518,95.507 739.936,95.537 740.356,95.573 740.777,95.613 741.2,95.658 741.623,95.709 742.047,95.765 742.473,95.825 742.899,95.891 743.326,95.963 743.754,96.039 744.183,96.121 744.612,96.209 745.042,96.301 745.471,96.399 745.902,96.503 746.332,96.612 746.762,96.727 747.193,96.847 747.623,96.973 748.053,97.105 748.482,97.242 748.912,97.385 749.34,97.534 749.768,97.688 750.195,97.848 750.621,98.014 751.047,98.185 751.471,98.362 751.894,98.545 752.315,98.734 752.735,98.928 753.154,99.128 753.571,99.334 753.986,99.545 754.399,99.762 754.811,99.985 755.22,100.213 755.627,100.447 756.031,100.686 756.433,100.931 756.833,101.181 757.23,101.437 757.624,101.698 758.015,101.965 758.403,102.237 758.788,102.514 759.17,102.797 759.548,103.084 759.924,103.377 760.295,103.674 760.663,103.977 761.027,104.285 761.388,104.597 761.744,104.914 762.096,105.236 762.445,105.563 762.789,105.894 763.129,106.229 763.464,106.569 763.795,106.913 764.122,107.262 764.444,107.614 764.761,107.97 765.073,108.331 765.381,108.695 765.684,109.063 765.981,109.435 766.274,109.81 766.562,110.188 766.844,110.57 767.121,110.955 767.393,111.343 767.66,111.734 767.921,112.128 768.177,112.525 768.427,112.925 768.672,113.327 768.911,113.731 769.145,114.138 769.373,114.547 769.596,114.959 769.813,115.372 770.024,115.787 770.23,116.204 770.43,116.623 770.624,117.043 770.813,117.464 770.996,117.887 771.173,118.311 771.344,118.737 771.51,119.163 771.67,119.59 771.824,120.018 771.973,120.446 772.116,120.876 772.253,121.305 772.385,121.735 772.511,122.165 772.631,122.596 772.746,123.026 772.855,123.456 772.959,123.887 773.057,124.316 773.15,124.746 773.237,125.175 773.319,125.604 773.395,126.032 773.467,126.459 773.533,126.885 773.593,127.311 773.649,127.735 773.7,128.159 773.745,128.581 773.785,129.002 773.821,129.422 773.851,129.84 773.877,130.257 773.898,130.672 773.914,131.086 773.926,131.498 773.932,131.908 773.935,132.317 773.935,145.263 773.935,164.455 775.987,164.455 775.987,184.747 773.935,184.747 773.935,206.883 775.987,206.883 775.987,243.776 773.935,243.776 773.935,253 775.987,253 775.987,289.893 773.935,289.893 773.935,642.186 773.932,642.594 773.926,643.005 773.914,643.417 773.898,643.831 773.877,644.246 773.851,644.663 773.821,645.081 773.785,645.501 773.745,645.922 773.7,646.344 773.649,646.768 773.593,647.192 773.533,647.618 773.467,648.044 773.395,648.471 773.319,648.899 773.237,649.328 773.15,649.757 773.057,650.186 772.959,650.616 772.855,651.046 772.746,651.477 772.631,651.907 772.511,652.338 772.385,652.768 772.253,653.198 772.116,653.627 771.973,654.056 771.824,654.485 771.67,654.913 771.51,655.34 771.344,655.766 771.173,656.192 770.996,656.616 770.813,657.039 770.624,657.46 770.43,657.88 770.23,658.299 770.024,658.716 769.813,659.131 769.596,659.544 769.373,659.955 769.145,660.365 768.911,660.771 768.672,661.176 768.427,661.578 768.177,661.978 767.921,662.374 767.66,662.768 767.393,663.16 767.121,663.548 766.844,663.933 766.562,664.315 766.274,664.693 765.981,665.068 765.684,665.44 765.381,665.808 765.073,666.172 764.761,666.532 764.444,666.889 764.122,667.241 763.795,667.59 763.464,667.934 763.129,668.274 762.789,668.609 762.445,668.94 762.096,669.267 761.744,669.589 761.388,669.906 761.027,670.218 760.663,670.526 760.295,670.828 759.924,671.126 759.548,671.419 759.17,671.706 758.788,671.989 758.403,672.266 758.015,672.538 757.624,672.804 757.23,673.066 756.833,673.322 756.433,673.572 756.031,673.817 755.627,674.056 755.22,674.29 754.811,674.518 754.399,674.741 753.986,674.958 753.571,675.169 753.154,675.375 752.735,675.575 752.315,675.769 751.894,675.958 751.471,676.141 751.047,676.318 750.621,676.489 750.195,676.655 749.768,676.815 749.34,676.969 748.912,677.118 748.482,677.261 748.053,677.398 747.623,677.529 747.193,677.655 746.762,677.776 746.332,677.891 745.902,678 745.471,678.103 745.042,678.202 744.612,678.294 744.183,678.382 743.754,678.464 743.326,678.54 742.899,678.611 742.473,678.677 742.047,678.738 741.623,678.794 741.2,678.844 740.777,678.89 740.356,678.93 739.936,678.966 739.518,678.996 739.101,679.022 738.686,679.043 738.272,679.059 737.86,679.07 737.45,679.077 737.041,679.08 523.427,679.08 523.019,679.077 522.609,679.07 522.196,679.059 521.783,679.043 521.367,679.022 520.95,678.996 520.532,678.966 520.112,678.93 519.691,678.89 519.269,678.844 518.846,678.794 518.421,678.738 517.996,678.677 517.569,678.611 517.142,678.54 516.714,678.464 516.286,678.382 515.857,678.294 515.427,678.202 514.997,678.103 514.567,678 514.137,677.891 513.706,677.776 513.276,677.655 512.846,677.529 512.416,677.398 511.986,677.261 511.557,677.118 511.128,676.969 510.7,676.815 510.273,676.655 509.847,676.489 509.422,676.318 508.998,676.141 508.575,675.958 508.153,675.769 507.733,675.575 507.314,675.375 506.898,675.169 506.482,674.958 506.069,674.741 505.658,674.518 505.249,674.29 504.842,674.056 504.437,673.817 504.035,673.572 503.636,673.322 503.239,673.066 502.845,672.804 502.454,672.538 502.066,672.266 501.68,671.989 501.299,671.706 500.92,671.419 500.545,671.126 500.173,670.828 499.806,670.526 499.441,670.218 499.081,669.906 498.724,669.589 498.372,669.267 498.024,668.94 497.68,668.609 497.34,668.274 497.004,667.934 496.673,667.59 496.347,667.241 496.025,666.889 495.708,666.532 495.395,666.172 495.088,665.808 494.785,665.44 494.487,665.068 494.195,664.693 493.907,664.315 493.625,663.933 493.347,663.548 493.076,663.16 492.809,662.768 492.548,662.374 492.292,661.978 492.041,661.578 491.797,661.176 491.557,660.771 491.323,660.365 491.095,659.955 490.872,659.544 490.655,659.131 490.444,658.716 490.238,658.299 490.038,657.88 489.844,657.46 489.656,657.039 489.473,656.616 489.296,656.192 489.124,655.766 488.959,655.34 488.799,654.913 488.644,654.485 488.496,654.056 488.353,653.627 488.216,653.198 488.084,652.768 487.958,652.338 487.838,651.907 487.723,651.477 487.614,651.046 487.51,650.616 487.412,650.186 487.319,649.757 487.232,649.328 487.15,648.899 487.073,648.471 487.002,648.044 486.936,647.618 486.875,647.192 486.819,646.768 486.769,646.344 486.724,645.922 486.683,645.501 486.648,645.081 486.617,644.663 486.591,644.246 486.571,643.831 486.554,643.417 486.543,643.005 486.536,642.594 486.534,642.186 486.534,245.155 484.482,245.155 484.482,206.525 486.534,206.525 486.534,132.317 486.536,131.908 486.543,131.498 486.554,131.086 486.571,130.672 486.591,130.257 486.617,129.84 486.648,129.422 486.683,129.002 486.724,128.581 486.769,128.159 486.819,127.735 486.875,127.311 486.936,126.885 487.002,126.459 487.073,126.032 487.15,125.604 487.232,125.175 487.319,124.746 487.412,124.316 487.51,123.887 487.614,123.456 487.723,123.026 487.838,122.596 487.958,122.165 488.084,121.735 488.216,121.305 488.353,120.876 488.496,120.446 488.644,120.018 488.799,119.59 488.959,119.163 489.124,118.737 489.296,118.311 489.473,117.887 489.656,117.464 489.844,117.043 490.038,116.623 490.238,116.204 490.444,115.787 490.655,115.372 490.872,114.959 491.095,114.547 491.323,114.138 491.557,113.731 491.797,113.327 492.041,112.925 492.292,112.525 492.548,112.128 492.809,111.734 493.076,111.343 493.347,110.955 493.625,110.57 493.907,110.188 494.195,109.81 494.487,109.435 494.785,109.063 495.088,108.695 495.395,108.331 495.708,107.97 496.025,107.614 496.347,107.262 496.673,106.913 497.004,106.569 497.34,106.229 497.68,105.894 498.024,105.563 498.372,105.236 498.724,104.914 499.081,104.597 499.441,104.285 "
       id="polygon17082"
       style="stroke:#80ffe6;stroke-opacity:1"
       transform="matrix(0.04897682,0,0,0.04896877,61.292924,144.29696)" />
    <circle
       style="opacity:1;fill:none;stroke:#80ffe6;stroke-width:0.0680699;stroke-linecap:square;stroke-opacity:1;paint-order:stroke fill markers"
       id="path1518"
       cx="87.268898"
       cy="150.91856"
       r="0.9190501" />
    <circle
       style="opacity:1;fill:none;stroke:#80ffe6;stroke-width:0.0680701;stroke-linecap:square;stroke-opacity:1;paint-order:stroke fill markers"
       id="circle1522"
       cx="87.268898"
       cy="150.91856"
       r="0.56699377" />
  </g>
</svg>
