<?xml version="1.0" encoding="UTF-8" standalone="no"?>
<svg
   xmlns:dc="http://purl.org/dc/elements/1.1/"
   xmlns:cc="http://creativecommons.org/ns#"
   xmlns:rdf="http://www.w3.org/1999/02/22-rdf-syntax-ns#"
   xmlns:svg="http://www.w3.org/2000/svg"
   xmlns="http://www.w3.org/2000/svg"
   xmlns:sodipodi="http://sodipodi.sourceforge.net/DTD/sodipodi-0.dtd"
   xmlns:inkscape="http://www.inkscape.org/namespaces/inkscape"
   width="15.072918mm"
   height="29.556574mm"
   viewBox="0 0 15.072918 29.556575"
   version="1.1"
   id="svg4830"
   inkscape:version="1.0.2 (e86c8708, 2021-01-15)"
   sodipodi:docname="ipxsmax.svg">
  <defs
     id="defs4824" />
  <sodipodi:namedview
     id="base"
     pagecolor="#ffffff"
     bordercolor="#666666"
     borderopacity="1.0"
     inkscape:pageopacity="0.0"
     inkscape:pageshadow="2"
     inkscape:zoom="4.1578895"
     inkscape:cx="30.133628"
     inkscape:cy="42.191746"
     inkscape:document-units="mm"
     inkscape:current-layer="layer1"
     inkscape:document-rotation="0"
     showgrid="false"
     inkscape:window-width="1440"
     inkscape:window-height="900"
     inkscape:window-x="0"
     inkscape:window-y="0"
     inkscape:window-maximized="0" />
  <metadata
     id="metadata4827">
    <rdf:RDF>
      <cc:Work
         rdf:about="">
        <dc:format>image/svg+xml</dc:format>
        <dc:type
           rdf:resource="http://purl.org/dc/dcmitype/StillImage" />
        <dc:title />
      </cc:Work>
    </rdf:RDF>
  </metadata>
  <g
     inkscape:label="Layer 1"
     inkscape:groupmode="layer"
     id="layer1"
     transform="translate(-75.539117,-160.7776)">
    <path
       fill="none"
       stroke="#00b9d2"
       stroke-width="0.116648"
       stroke-linecap="round"
       stroke-linejoin="round"
       stroke-miterlimit="10"
       d="m 83.046262,174.12667 c 0.13069,0.0101 0.260744,-0.0364 0.368273,-0.1085 0.141375,-0.0948 0.246994,-0.23826 0.303836,-0.39818 0.02939,-0.0828 0.04539,-0.17064 0.04321,-0.25861 -3.77e-4,-0.0157 0.0025,-0.0472 -0.0089,-0.0534 -0.01013,-0.006 -0.04321,0.004 -0.0546,0.006 -0.0407,0.007 -0.08056,0.0172 -0.11936,0.031 -0.161825,0.0574 -0.305235,0.16517 -0.401567,0.30753 -0.08674,0.12818 -0.145027,0.28559 -0.134208,0.44211 7.62e-4,0.0108 0.0017,0.0216 0.0034,0.0323 z"
       id="path14087"
       style="stroke:#80ffe6;stroke-opacity:1" />
    <path
       fill="none"
       stroke="#00b9d2"
       stroke-width="0.116648"
       stroke-linecap="round"
       stroke-linejoin="round"
       stroke-miterlimit="10"
       d="m 84.020423,175.19555 c -0.0017,-0.21556 0.08917,-0.41671 0.243352,-0.56585 0.04287,-0.0415 0.08979,-0.0791 0.140698,-0.1102 0,-0.0214 -0.0525,-0.0692 -0.06691,-0.0852 -0.02211,-0.0245 -0.04564,-0.0476 -0.07068,-0.0691 -0.05083,-0.0437 -0.10731,-0.0806 -0.167501,-0.11024 -0.127936,-0.0628 -0.274997,-0.0943 -0.417561,-0.0905 -0.154439,0.004 -0.297598,0.0659 -0.439484,0.12047 -0.08968,0.0345 -0.163265,0.0569 -0.256541,0.0297 -0.156264,-0.0455 -0.299473,-0.13136 -0.46566,-0.13867 -0.150286,-0.007 -0.303837,0.0363 -0.433849,0.11046 -0.14197,0.0811 -0.258919,0.20174 -0.338872,0.34405 -0.0829,0.14749 -0.125641,0.3144 -0.138746,0.48233 -0.01373,0.17646 0.0042,0.35495 0.04179,0.52746 0.03693,0.16789 0.0929,0.33187 0.166028,0.48746 0.07754,0.16496 0.177517,0.31878 0.29115,0.46116 0.07553,0.0946 0.163181,0.18996 0.275633,0.24034 0.09051,0.0405 0.188286,0.0379 0.282416,0.0114 0.08223,-0.0232 0.157663,-0.0647 0.238679,-0.0912 0.07511,-0.0246 0.15351,-0.0356 0.23245,-0.0339 0.07721,0.002 0.15232,0.0173 0.224427,0.0449 0.07486,0.0286 0.146131,0.0667 0.224854,0.0843 0.08781,0.0196 0.181042,0.0165 0.264814,-0.0177 0.113641,-0.0464 0.20119,-0.13905 0.275717,-0.23364 0.111388,-0.14133 0.209965,-0.2945 0.285212,-0.45815 0.01817,-0.0394 0.03509,-0.0795 0.05058,-0.12003 0.0075,-0.0192 0.0144,-0.0384 0.02102,-0.0579 0.0033,-0.009 0.0099,-0.022 0.0103,-0.0315 8.03e-4,-0.0161 0.0033,-0.008 -0.01038,-0.0173 -0.06088,-0.0387 -0.124201,-0.0671 -0.180699,-0.11372 -0.119026,-0.0982 -0.208483,-0.2291 -0.251198,-0.37782 -0.0206,-0.072 -0.03031,-0.14663 -0.03107,-0.22142"
       id="path14089"
       style="stroke:#80ffe6;stroke-opacity:1" />
    <path
       fill="none"
       stroke="#00b9d2"
       stroke-width="0.0848353"
       stroke-linecap="round"
       stroke-linejoin="round"
       stroke-miterlimit="10"
       d="m 88.113117,189.99681 c 0.311775,-0.003 0.619128,-0.07 0.900522,-0.20556 0.279326,-0.1345 0.527426,-0.33214 0.720887,-0.57438 0.193385,-0.24211 0.331495,-0.52734 0.400972,-0.8293 0.0376,-0.16327 0.05309,-0.32929 0.05309,-0.49658 0,-0.0803 0,-0.16059 0,-0.24089 0,-0.15564 0,-0.31122 0,-0.46681 0,-0.22218 0,-0.44432 0,-0.66651 0,-0.28237 0,-0.56474 0,-0.84712 0,-0.33756 0,-0.67511 0,-1.01263 0,-0.38197 0,-0.76394 0,-1.14591 0,-0.42108 0,-0.8422 0,-1.26327 0,-0.45578 0,-0.91156 0,-1.36733 0,-0.47843 0,-0.95681 0,-1.43524 0,-0.49785 0,-0.99567 0,-1.49353 0,-0.50892 0,-1.0178 0,-1.52673 0,-0.51151 0,-1.02298 0,-1.53445 0,-0.50986 0,-1.01968 0,-1.52954 0,-0.49971 0,-0.99944 0,-1.49911 0,-0.48123 0,-0.96242 0,-1.44364 0,-0.45951 0,-0.91907 0,-1.37857 0,-0.42574 0,-0.85149 0,-1.27728 0,-0.38756 0,-0.77513 0,-1.16271 0,-0.34408 0,-0.68822 0,-1.0323 0,-0.28985 0,-0.57968 0,-0.86948 0,-0.23054 0,-0.46113 0,-0.69167 0,-0.16495 0,-0.32996 0,-0.49492 0,-0.0906 0,-0.18108 0,-0.27164 0,-0.13434 -0.0075,-0.26804 -0.03014,-0.40068 -0.05267,-0.30536 -0.174084,-0.598 -0.353803,-0.85052 -0.17879,-0.25119 -0.413408,-0.46188 -0.683138,-0.61144 -0.271772,-0.15071 -0.576538,-0.24004 -0.886906,-0.2579 -0.113808,-0.007 -0.228421,-0.003 -0.342355,-0.003 -0.243009,0 -0.486059,0 -0.729068,0 -0.374377,0 -0.748755,0 -1.123174,0 -0.459212,0 -0.918425,0 -1.377638,0 -0.503535,0 -1.007079,0 -1.510614,0 -0.508375,0 -1.016709,0 -1.525076,0 -0.465158,0 -0.930349,0 -1.395499,0 -0.383496,0 -0.766951,0 -1.150447,0 -0.257856,0 -0.515669,0 -0.773525,0 -0.101716,0 -0.203517,-0.002 -0.305234,2.9e-4 -0.310669,0.005 -0.619253,0.0815 -0.896838,0.22104 -0.276897,0.1393 -0.521731,0.34112 -0.710871,0.58672 -0.188545,0.24483 -0.321614,0.53132 -0.386042,0.83363 -0.03299,0.15461 -0.04589,0.31122 -0.04589,0.46901 0,0.0833 0,0.16657 0,0.24988 0,0.15729 0,0.31458 0,0.47189 0,0.22571 0,0.45137 0,0.67708 0,0.28458 0,0.56911 0,0.85369 0,0.33849 0,0.67695 0,1.01543 0,0.3846 0,0.76925 0,1.15385 0,0.42248 0,0.84491 0,1.26739 0,0.45561 0,0.91117 0,1.36677 0,0.48055 0,0.96106 0,1.44161 0,0.497 0,0.99401 0,1.49102 0,0.51058 0,1.02115 0,1.53173 0,0.51152 0,1.02303 0,1.5345 0,0.50821 0,1.01636 0,1.52457 0,0.50057 0,1.00114 0,1.50171 0,0.48042 0,0.96079 0,1.44122 0,0.45603 0,0.91202 0,1.36805 0,0.42684 0,0.85369 0,1.28054 0,0.38596 0,0.77187 0,1.15782 0,0.34134 0,0.68267 0,1.02401 0,0.28853 0,0.57709 0,0.86562 0,0.22812 0,0.45624 0,0.68436 0,0.16225 0,0.32453 0,0.48678 0,0.0875 0,0.17514 0,0.26269 0,0.14355 0.0093,0.28628 0.03601,0.42761 0.05778,0.30533 0.1843,0.59669 0.368901,0.84679 0.183119,0.24806 0.421329,0.45467 0.693613,0.59956 0.272442,0.14499 0.575307,0.228 0.883598,0.24221 0.110962,0.005 0.22261,0.003 0.333655,0.003 0.24882,0 0.497599,0 0.746419,0 0.377392,0 0.754733,0 1.132125,0 0.462906,0 0.925761,0 1.388666,0 0.50439,0 1.008813,0 1.513202,0 0.507571,0 1.015176,0 1.522748,0 0.462771,0 0.925509,0 1.388281,0 0.37853,0 0.75707,0 1.1356,0 0.253024,0 0.506081,0 0.759105,0 0.0613,0 0.122543,0 0.183839,0 0.01256,5e-5 0.05393,-0.008 0.06507,5e-5 z"
       id="path14091"
       style="stroke:#80ffe6;stroke-opacity:1" />
    <line
       fill="none"
       stroke="#00b9d2"
       stroke-width="0.0848353"
       stroke-linecap="round"
       stroke-linejoin="round"
       stroke-miterlimit="10"
       x1="75.699249"
       y1="187.09108"
       x2="75.962372"
       y2="187.09108"
       id="line14093"
       style="stroke:#80ffe6;stroke-opacity:1" />
    <line
       fill="none"
       stroke="#00b9d2"
       stroke-width="0.0848353"
       stroke-linecap="round"
       stroke-linejoin="round"
       stroke-miterlimit="10"
       x1="75.699249"
       y1="187.35564"
       x2="75.962372"
       y2="187.35564"
       id="line14095"
       style="stroke:#80ffe6;stroke-opacity:1" />
    <line
       fill="none"
       stroke="#00b9d2"
       stroke-width="0.0848353"
       stroke-linecap="round"
       stroke-linejoin="round"
       stroke-miterlimit="10"
       x1="75.699249"
       y1="164.02676"
       x2="75.962372"
       y2="164.02676"
       id="line14097"
       style="stroke:#80ffe6;stroke-opacity:1" />
    <line
       fill="none"
       stroke="#00b9d2"
       stroke-width="0.0848353"
       stroke-linecap="round"
       stroke-linejoin="round"
       stroke-miterlimit="10"
       x1="75.699249"
       y1="163.76218"
       x2="75.962372"
       y2="163.76218"
       id="line14099"
       style="stroke:#80ffe6;stroke-opacity:1" />
    <line
       fill="none"
       stroke="#00b9d2"
       stroke-width="0.0848353"
       stroke-linecap="round"
       stroke-linejoin="round"
       stroke-miterlimit="10"
       x1="90.451721"
       y1="163.76218"
       x2="90.188614"
       y2="163.76218"
       id="line14101"
       style="stroke:#80ffe6;stroke-opacity:1" />
    <line
       fill="none"
       stroke="#00b9d2"
       stroke-width="0.0848353"
       stroke-linecap="round"
       stroke-linejoin="round"
       stroke-miterlimit="10"
       x1="90.451721"
       y1="164.02676"
       x2="90.188614"
       y2="164.02676"
       id="line14103"
       style="stroke:#80ffe6;stroke-opacity:1" />
    <line
       fill="none"
       stroke="#00b9d2"
       stroke-width="0.0848353"
       stroke-linecap="round"
       stroke-linejoin="round"
       stroke-miterlimit="10"
       x1="90.451721"
       y1="187.35564"
       x2="90.188614"
       y2="187.35564"
       id="line14105"
       style="stroke:#80ffe6;stroke-opacity:1" />
    <line
       fill="none"
       stroke="#00b9d2"
       stroke-width="0.0848353"
       stroke-linecap="round"
       stroke-linejoin="round"
       stroke-miterlimit="10"
       x1="90.451721"
       y1="187.09108"
       x2="90.188614"
       y2="187.09108"
       id="line14107"
       style="stroke:#80ffe6;stroke-opacity:1" />
    <path
       fill="none"
       stroke="#00b9d2"
       stroke-width="0.116648"
       stroke-linecap="round"
       stroke-linejoin="round"
       stroke-miterlimit="10"
       d="m 75.601816,164.84602 c 0.01708,0 0.08768,-0.0102 0.09744,5.9e-4 0.005,0.005 0,0.0363 0,0.0428 0,0.0774 0,0.1547 0,0.23207 0,0.21281 0,0.42561 0,0.63838 0,0.0527 0,0.10536 0,0.15805 0,-0.004 -0.09184,0.006 -0.09744,-5.9e-4 -0.005,-0.005 0,-0.0363 0,-0.0428 0,-0.0774 0,-0.1547 0,-0.23208 0,-0.2128 0,-0.42561 0,-0.63837 0,-0.0527 0,-0.10537 0,-0.15805 z"
       id="path14119"
       style="stroke:#80ffe6;stroke-opacity:1" />
    <path
       fill="none"
       stroke="#00b9d2"
       stroke-width="0.116648"
       stroke-linecap="round"
       stroke-linejoin="round"
       stroke-miterlimit="10"
       d="m 75.601816,166.87637 c 0.01599,0 0.0881,-0.0103 0.09744,4e-5 0.0017,0.003 -3.85e-4,0.0136 0,0.0165 0.005,0.0368 0,0.0775 0,0.11457 0,0.15491 0,0.30981 0,0.46476 0,0.38358 0,0.76721 0,1.15079 0,0.0601 0,0.12025 0,0.1804 0,0.0166 0.0097,0.072 0,0.0862 -0.0067,0.01 -0.09141,0.009 -0.09744,-8.3e-4 -0.0098,-0.0163 0,-0.0687 0,-0.0872 0,-0.34502 0,-0.69004 0,-1.03507 0,-0.29174 0,-0.58349 0,-0.87524 0,-0.005 0,-0.01 0,-0.0148 z"
       id="path14121"
       style="stroke:#80ffe6;stroke-opacity:1" />
    <path
       fill="none"
       stroke="#00b9d2"
       stroke-width="0.116648"
       stroke-linecap="round"
       stroke-linejoin="round"
       stroke-miterlimit="10"
       d="m 75.601816,169.4098 c 0.01599,0 0.0881,-0.0103 0.09744,4e-5 0.0017,0.003 -3.85e-4,0.0136 0,0.0165 0.005,0.0368 0,0.0776 0,0.11457 0,0.15491 0,0.30981 0,0.46476 0,0.38358 0,0.76721 0,1.15079 0,0.0601 0,0.12026 0,0.1804 0,0.0166 0.0097,0.072 0,0.0862 -0.0067,0.01 -0.09141,0.009 -0.09744,-8.4e-4 -0.0098,-0.0163 0,-0.0687 0,-0.0872 0,-0.34502 0,-0.69004 0,-1.03506 0,-0.29176 0,-0.5835 0,-0.87525 0,-0.005 0,-0.01 0,-0.0148 z"
       id="path14123"
       style="stroke:#80ffe6;stroke-opacity:1" />
    <path
       fill="none"
       stroke="#00b9d2"
       stroke-width="0.116648"
       stroke-linecap="round"
       stroke-linejoin="round"
       stroke-miterlimit="10"
       d="m 90.451728,167.54538 c 0.01959,0 0.08844,-0.01 0.09743,0.003 0.0042,0.007 0,0.0329 0,0.0408 0,0.0672 0,0.1345 0,0.20174 0,0.25081 0,0.50167 0,0.75248 0,0.31949 0,0.63898 0,0.95847 0,0.28017 0,0.56038 0,0.84054 0,0.0934 0,0.18681 0,0.28022 0,0.0288 0,0.0577 0,0.0866 0,0.01 0.005,0.0366 0,0.0454 -0.0067,0.0116 -0.07218,0.0121 -0.08767,0.006 -0.01365,-0.006 -0.0088,-5.5e-4 -0.0098,-0.0188 -0.0033,-0.0544 0,-0.1099 0,-0.16442 0,-0.23541 0,-0.47083 0,-0.70624 0,-0.3169 0,-0.6338 0,-0.95071 0,-0.29043 0,-0.5809 0,-0.87134 0,-0.16047 0,-0.32093 0,-0.48144 0,-0.008 0,-0.015 0,-0.0225 z"
       id="path14125"
       style="stroke:#80ffe6;stroke-opacity:1" />
    <path
       fill="none"
       stroke="#00b9d2"
       stroke-width="0.116648"
       stroke-linecap="round"
       stroke-linejoin="round"
       stroke-miterlimit="10"
       d="m 88.113117,190.25992 c 0.312704,-0.003 0.621548,-0.0625 0.910026,-0.18439 0.289542,-0.12238 0.553377,-0.30333 0.771791,-0.52941 0.218407,-0.22609 0.390154,-0.49603 0.502472,-0.7896 0.102102,-0.26689 0.153091,-0.55058 0.15428,-0.83614 2.09e-4,-0.0503 0,-0.10061 0,-0.15096 0,-0.13162 0,-0.2632 0,-0.39483 0,-0.20526 0,-0.41051 0,-0.61577 0,-0.2713 0,-0.54256 0,-0.81387 0,-0.32971 0,-0.65942 0,-0.98909 0,-0.37942 0,-0.75885 0,-1.13827 0,-0.42239 0,-0.84483 0,-1.26722 0,-0.45913 0,-0.91826 0,-1.37735 0,-0.48712 0,-0.97424 0,-1.46136 0,-0.50753 0,-1.01506 0,-1.52258 0,-0.51889 0,-1.03782 0,-1.55672 0,-0.52407 0,-1.04818 0,-1.57225 0,-0.52309 0,-1.04619 0,-1.56927 0,-0.51309 0,-1.02618 0,-1.53926 0,-0.49548 0,-0.99095 0,-1.48639 0,-0.46901 0,-0.93802 0,-1.40708 0,-0.43638 0,-0.87273 0,-1.30913 0,-0.39719 0,-0.79435 0,-1.19154 0,-0.34918 0,-0.69832 0,-1.0475 0,-0.29353 0,-0.58707 0,-0.88059 0,-0.22973 0,-0.45951 0,-0.68925 0,-0.15928 0,-0.3186 0,-0.47787 0,-0.0814 0,-0.16276 0,-0.24415 0,-0.18223 -0.01717,-0.36327 -0.05728,-0.54125 -0.06858,-0.30409 -0.198385,-0.59381 -0.379888,-0.84725 -0.18146,-0.25344 -0.41391,-0.46977 -0.679745,-0.63257 -0.265995,-0.16293 -0.56402,-0.27152 -0.872445,-0.31822 -0.157495,-0.0239 -0.315116,-0.0263 -0.4738,-0.0263 -0.216756,0 -0.433463,0 -0.650219,0 -0.361608,0 -0.723215,0 -1.084872,0 -0.460653,0 -0.921348,0 -1.382001,0 -0.511046,0 -1.022135,0 -1.533181,0 -0.521355,0 -1.04271,0 -1.564065,0 -0.483178,0 -0.966357,0 -1.449485,0 -0.399156,0 -0.798303,0 -1.19745,0 -0.269311,0 -0.538621,0 -0.807924,0 -0.106682,0 -0.213449,-0.002 -0.320131,3.3e-4 -0.310921,0.005 -0.619672,0.073 -0.904299,0.19822 -0.28682,0.12619 -0.547096,0.31083 -0.761642,0.53912 -0.215442,0.22918 -0.38363,0.5021 -0.491577,0.79754 -0.0943,0.25815 -0.141384,0.53077 -0.142397,0.80542 -2.1e-4,0.0535 0,0.10698 0,0.16047 0,0.1345 0,0.26905 0,0.40356 0,0.20789 0,0.41574 0,0.62362 0,0.27364 0,0.54723 0,0.82087 0,0.33174 0,0.66349 0,0.99523 0,0.38011 0,0.76021 0,1.14028 0,0.42498 0,0.84996 0,1.2749 0,0.46031 0,0.92062 0,1.38094 0,0.48805 0,0.97607 0,1.46413 0,0.50816 0,1.01628 0,1.52443 0,0.51784 0,1.03567 0,1.55351 0,0.52555 0,1.05106 0,1.57662 0,0.52283 0,1.04571 0,1.56855 0,0.51258 0,1.02515 0,1.53768 0,0.49467 0,0.9893 0,1.48397 0,0.46791 0,0.93586 0,1.40377 0,0.43499 0,0.86998 0,1.30498 0,0.39549 0,0.79104 0,1.18654 0,0.34719 0,0.69442 0,1.04161 0,0.29127 0,0.58256 0,0.87384 0,0.22722 0,0.45446 0,0.68169 0,0.15648 0,0.31295 0,0.46944 0,0.0783 0,0.15655 0,0.23486 0,0.19211 0.01993,0.38303 0.06506,0.56996 0.07344,0.30456 0.208191,0.59385 0.394952,0.84547 0.185154,0.24946 0.41968,0.46087 0.686864,0.61943 0.267745,0.15885 0.567637,0.26307 0.876095,0.30502 0.151474,0.0206 0.302857,0.0214 0.455227,0.0214 0.223028,0 0.446057,0 0.669044,0 0.366196,0 0.732342,0 1.098529,0 0.4635,0 0.926992,0 1.390492,0 0.512152,0 1.024337,0 1.536489,0 0.520761,0 1.041521,0 1.562281,0 0.480842,0 0.961693,0 1.442535,0 0.395078,0 0.790197,0 1.185274,0 0.263542,0 0.527033,0 0.790574,0 0.06414,0 0.12827,0 0.192405,0 0.01315,-4e-5 0.05644,-0.008 0.06808,-4e-5 z"
       id="path14127"
       style="stroke:#80ffe6;stroke-opacity:1" />
    <path
       fill="none"
       stroke="#00b9d2"
       stroke-width="0.148461"
       stroke-linecap="round"
       stroke-linejoin="round"
       stroke-miterlimit="10"
       d="m 88.113117,190.25992 c 0.323054,-0.002 0.643437,-0.067 0.939469,-0.19703 0.281603,-0.12369 0.538571,-0.30299 0.750957,-0.52564 0.212678,-0.22294 0.381202,-0.48737 0.491745,-0.7751 0.103241,-0.26875 0.155711,-0.55461 0.15644,-0.84241 1.25e-4,-0.0526 0,-0.10523 0,-0.15783 0,-0.13323 0,-0.26647 0,-0.3997 0,-0.20628 0,-0.4126 0,-0.61887 0,-0.27182 0,-0.54362 0,-0.81544 0,-0.32975 0,-0.65955 0,-0.9893 0,-0.38125 0,-0.76254 0,-1.14379 0,-0.42197 0,-0.8439 0,-1.26586 0,-0.45964 0,-0.91927 0,-1.37891 0,-0.48484 0,-0.96967 0,-1.4545 0,-0.50769 0,-1.01543 0,-1.52313 0,-0.51758 0,-1.0352 0,-1.55278 0,-0.5255 0,-1.05102 0,-1.57649 0,-0.52025 0,-1.04045 0,-1.5607 0,-0.513 0,-1.02604 0,-1.53904 0,-0.49276 0,-0.98549 0,-1.47825 0,-0.47024 0,-0.94048 0,-1.41072 0,-0.43516 0,-0.87028 0,-1.30545 0,-0.39719 0,-0.79435 0,-1.19154 0,-0.34744 0,-0.69485 0,-1.04229 0,-0.29383 0,-0.58769 0,-0.88152 0,-0.22956 0,-0.45917 0,-0.68873 0,-0.16022 0,-0.32042 0,-0.48067 0,-0.0816 0,-0.16323 0,-0.24484 0,-0.18961 -0.01851,-0.37786 -0.06188,-0.56271 -0.06959,-0.29654 -0.197664,-0.57811 -0.374587,-0.826 -0.181168,-0.25386 -0.413868,-0.46986 -0.679528,-0.63308 -0.26643,-0.16373 -0.56623,-0.27291 -0.875501,-0.31915 -0.158977,-0.0238 -0.317921,-0.0259 -0.478045,-0.0259 -0.217812,0 -0.435665,0 -0.653486,0 -0.362921,0 -0.725843,0 -1.088774,0 -0.458827,0 -0.917612,0 -1.376448,0 -0.514053,0 -1.028114,0 -1.542125,0 -0.518474,0 -1.036898,0 -1.555364,0 -0.482844,0 -0.965679,0 -1.448522,0 -0.396728,0 -0.793463,0 -1.190232,0 -0.269311,0 -0.538621,0 -0.807924,0 -0.105493,0 -0.211071,-0.002 -0.316564,2.9e-4 -0.321229,0.005 -0.640674,0.0765 -0.933147,0.20955 -0.281352,0.12796 -0.536787,0.3121 -0.746845,0.53891 -0.208986,0.22566 -0.372971,0.49238 -0.479234,0.78107 -0.0956,0.25976 -0.143704,0.53489 -0.144298,0.81153 -1.26e-4,0.0559 0,0.11165 0,0.16747 0,0.13565 0,0.2713 0,0.40695 0,0.20937 0,0.41875 0,0.62812 0,0.27415 0,0.54825 0,0.82239 0,0.3318 0,0.66363 0,0.99541 0,0.38193 0,0.76386 0,1.14583 0,0.42451 0,0.84903 0,1.27354 0,0.45956 0,0.91906 0,1.37861 0,0.487 0,0.97404 0,1.46103 0,0.50834 0,1.01666 0,1.52495 0,0.51792 0,1.03584 0,1.5538 0,0.52555 0,1.05111 0,1.57666 0,0.52 0,1.03999 0,1.55999 0,0.51248 0,1.02498 0,1.53747 0,0.49195 0,0.98387 0,1.47582 0,0.46914 0,0.93828 0,1.40742 0,0.43376 0,0.86756 0,1.30133 0,0.39549 0,0.79104 0,1.18654 0,0.34549 0,0.69094 0,1.03643 0,0.29162 0,0.5832 0,0.87482 0,0.22706 0,0.45412 0,0.68118 0,0.15741 0,0.31483 0,0.47224 0,0.0785 0,0.15707 0,0.23559 0,0.20084 0.02186,0.40016 0.07084,0.59515 0.07419,0.29502 0.206658,0.57476 0.387525,0.81934 0.185413,0.25064 0.420952,0.46324 0.689241,0.62201 0.268206,0.15873 0.567595,0.26265 0.876347,0.30473 0.153342,0.0209 0.306599,0.0213 0.460787,0.0213 0.22405,0 0.448142,0 0.672184,0 0.367469,0 0.734929,0 1.10239,0 0.461633,0 0.923265,0 1.384848,0 0.515166,0 1.030282,0 1.545441,0 0.517829,0 1.035667,0 1.553496,0 0.480507,0 0.961015,0 1.441522,0 0.392699,0 0.785398,0 1.178098,0 0.263541,0 0.52704,0 0.790582,0 0.06414,0 0.12827,0 0.192405,0 0.01331,-4e-5 0.05661,-0.008 0.06816,-4e-5 z"
       id="path14129"
       style="stroke:#80ffe6;stroke-opacity:1" />
    <path
       fill="none"
       stroke="#00b9d2"
       stroke-width="0.0753792"
       stroke-linecap="round"
       stroke-linejoin="round"
       stroke-miterlimit="10"
       d="m 77.845787,163.81129 c 0.144725,0.11145 0.322435,0.17706 0.505001,0.18531 0.183471,0.008 0.367544,-0.0409 0.522268,-0.13993 0.154673,-0.099 0.27652,-0.24558 0.345797,-0.41568 0.06883,-0.16912 0.08401,-0.35823 0.04321,-0.53621 -0.04086,-0.17794 -0.136971,-0.34154 -0.272686,-0.46369 -0.13651,-0.12287 -0.310074,-0.20165 -0.492456,-0.22327 -0.182416,-0.0217 -0.369546,0.0143 -0.531044,0.1018 -0.160518,0.0869 -0.29228,0.22357 -0.373657,0.38698 -0.08139,0.16347 -0.110878,0.3509 -0.08349,0.53142 0.02755,0.1816 0.111674,0.35259 0.238881,0.48508 0.03048,0.0317 0.06339,0.0611 0.09822,0.0882 z"
       id="path14450"
       style="stroke:#80ffe6;stroke-opacity:1" />
    <path
       fill="none"
       stroke="#00b9d2"
       stroke-width="0.207293"
       stroke-linecap="round"
       stroke-linejoin="round"
       stroke-miterlimit="10"
       d="m 78.798917,164.70258 c -8.4e-5,-0.17029 -0.110032,-0.32633 -0.27024,-0.38377 -0.160275,-0.0574 -0.344332,-0.007 -0.452422,0.12494 -0.108022,0.13147 -0.122258,0.32202 -0.03467,0.46809 0.08742,0.14604 0.26195,0.22359 0.428991,0.19041 0.166304,-0.033 0.297908,-0.17036 0.323598,-0.338 0.0033,-0.0204 0.005,-0.0412 0.005,-0.0618 z"
       id="path14474"
       style="stroke:#80ffe6;stroke-opacity:1" />
    <path
       fill="none"
       stroke="#00b9d2"
       stroke-width="0.0753792"
       stroke-linecap="round"
       stroke-linejoin="round"
       stroke-miterlimit="10"
       d="m 77.845787,167.0099 c 0.144725,0.11145 0.322435,0.17706 0.505001,0.18531 0.183471,0.008 0.367544,-0.041 0.522268,-0.13993 0.154673,-0.099 0.27652,-0.24558 0.345797,-0.41568 0.06883,-0.16912 0.08401,-0.35823 0.04321,-0.53621 -0.04086,-0.17793 -0.136971,-0.34154 -0.272686,-0.46369 -0.13651,-0.12287 -0.310074,-0.20164 -0.492456,-0.22327 -0.182416,-0.0217 -0.369546,0.0143 -0.531044,0.1018 -0.160518,0.0869 -0.29228,0.22357 -0.373657,0.38699 -0.08139,0.16346 -0.110878,0.35089 -0.08349,0.53142 0.02755,0.18159 0.111674,0.35258 0.238881,0.48507 0.03048,0.0317 0.06339,0.0611 0.09822,0.0882 z"
       id="path14488"
       style="stroke:#80ffe6;stroke-opacity:1" />
    <rect
       style="fill:none;fill-opacity:1;stroke:#80ffe6;stroke-width:0.0985835;stroke-linecap:round;stroke-miterlimit:4;stroke-dasharray:none;stroke-opacity:1;paint-order:stroke fill markers"
       id="rect14490"
       width="2.9588056"
       height="5.9975958"
       x="76.912224"
       y="161.75087"
       ry="1.4794028" />
  </g>
</svg>
