<?xml version="1.0" encoding="UTF-8" standalone="no"?>
<svg
   xmlns:dc="http://purl.org/dc/elements/1.1/"
   xmlns:cc="http://creativecommons.org/ns#"
   xmlns:rdf="http://www.w3.org/1999/02/22-rdf-syntax-ns#"
   xmlns:svg="http://www.w3.org/2000/svg"
   xmlns="http://www.w3.org/2000/svg"
   xmlns:sodipodi="http://sodipodi.sourceforge.net/DTD/sodipodi-0.dtd"
   xmlns:inkscape="http://www.inkscape.org/namespaces/inkscape"
   width="15.072918mm"
   height="29.556574mm"
   viewBox="0 0 15.072918 29.556575"
   version="1.1"
   id="svg4830"
   inkscape:version="1.0.2 (e86c8708, 2021-01-15)"
   sodipodi:docname="ipxsmax.svg">
  <defs
     id="defs4824" />
  <sodipodi:namedview
     id="base"
     pagecolor="#ffffff"
     bordercolor="#666666"
     borderopacity="1.0"
     inkscape:pageopacity="0.0"
     inkscape:pageshadow="2"
     inkscape:zoom="2.8696784"
     inkscape:cx="6.295684"
     inkscape:cy="79.391183"
     inkscape:document-units="mm"
     inkscape:current-layer="layer1"
     inkscape:document-rotation="0"
     showgrid="false"
     inkscape:window-width="1440"
     inkscape:window-height="872"
     inkscape:window-x="0"
     inkscape:window-y="28"
     inkscape:window-maximized="0" />
  <metadata
     id="metadata4827">
    <rdf:RDF>
      <cc:Work
         rdf:about="">
        <dc:format>image/svg+xml</dc:format>
        <dc:type
           rdf:resource="http://purl.org/dc/dcmitype/StillImage" />
        <dc:title></dc:title>
      </cc:Work>
    </rdf:RDF>
  </metadata>
  <g
     inkscape:label="Layer 1"
     inkscape:groupmode="layer"
     id="layer1"
     transform="translate(-75.539117,-160.7776)">
    <g
       id="g14412"
       transform="matrix(0.83738323,0,0,0.83738323,-65.007841,67.96494)">
      <path
         fill="none"
         stroke="#00b9d2"
         stroke-width="0.0900176"
         stroke-linecap="round"
         stroke-linejoin="round"
         stroke-miterlimit="10"
         d="m 170.43232,114.55978 c 0.17283,0.13309 0.38505,0.21145 0.60307,0.2213 0.2191,0.01 0.43892,-0.0489 0.62369,-0.16711 0.18471,-0.11824 0.33022,-0.29327 0.41295,-0.4964 0.0822,-0.20196 0.10033,-0.4278 0.0516,-0.64034 -0.0488,-0.21249 -0.16357,-0.40787 -0.32564,-0.55374 -0.16302,-0.14673 -0.37029,-0.2408 -0.58809,-0.26663 -0.21784,-0.0259 -0.44131,0.0171 -0.63417,0.12157 -0.19169,0.10383 -0.34904,0.26699 -0.44622,0.46214 -0.0972,0.19521 -0.13241,0.41904 -0.0997,0.63462 0.0329,0.21686 0.13336,0.42106 0.28527,0.57927 0.0364,0.0379 0.0757,0.073 0.11729,0.10532 z"
         id="path14083"
         style="stroke:#80ffe6;stroke-opacity:1" />
      <path
         fill="none"
         stroke="#00b9d2"
         stroke-width="0.139301"
         stroke-linecap="round"
         stroke-linejoin="round"
         stroke-miterlimit="10"
         d="m 176.80567,126.77795 c 0.15607,0.012 0.31138,-0.0435 0.43979,-0.12957 0.16883,-0.11322 0.29496,-0.28453 0.36284,-0.4755 0.0351,-0.0989 0.0542,-0.20378 0.0516,-0.30884 -4.5e-4,-0.0188 0.003,-0.0564 -0.0106,-0.0638 -0.0121,-0.007 -0.0516,0.005 -0.0652,0.007 -0.0486,0.008 -0.0962,0.0205 -0.14254,0.037 -0.19325,0.0686 -0.36451,0.19725 -0.47955,0.36725 -0.10359,0.15308 -0.17319,0.34106 -0.16027,0.52797 9.1e-4,0.0129 0.002,0.0258 0.004,0.0386 z"
         id="path14087"
         style="stroke:#80ffe6;stroke-opacity:1" />
      <path
         fill="none"
         stroke="#00b9d2"
         stroke-width="0.139301"
         stroke-linecap="round"
         stroke-linejoin="round"
         stroke-miterlimit="10"
         d="m 177.96901,128.0544 c -0.002,-0.25742 0.10648,-0.49763 0.29061,-0.67573 0.0512,-0.0495 0.10723,-0.0944 0.16802,-0.1316 0,-0.0256 -0.0627,-0.0826 -0.0799,-0.10177 -0.0264,-0.0292 -0.0545,-0.0568 -0.0844,-0.0825 -0.0607,-0.0522 -0.12815,-0.0963 -0.20003,-0.13165 -0.15278,-0.075 -0.3284,-0.11265 -0.49865,-0.10809 -0.18443,0.005 -0.35539,0.0787 -0.52483,0.14386 -0.10709,0.0412 -0.19497,0.0679 -0.30636,0.0355 -0.18661,-0.0543 -0.35763,-0.15687 -0.55609,-0.16559 -0.17947,-0.008 -0.36284,0.0433 -0.5181,0.13191 -0.16954,0.0968 -0.3092,0.24091 -0.40468,0.41086 -0.099,0.17613 -0.15004,0.37545 -0.16569,0.576 -0.0164,0.21072 0.005,0.42388 0.0499,0.62989 0.0441,0.20049 0.11094,0.39632 0.19827,0.58212 0.0926,0.197 0.21199,0.38068 0.34769,0.55072 0.0902,0.11296 0.19487,0.22684 0.32916,0.28701 0.10809,0.0484 0.22485,0.0453 0.33726,0.0136 0.0982,-0.0277 0.18828,-0.0772 0.28503,-0.10896 0.0897,-0.0294 0.18332,-0.0425 0.27759,-0.0405 0.0922,0.002 0.1819,0.0207 0.26801,0.0536 0.0894,0.0341 0.17451,0.0797 0.26852,0.10065 0.10486,0.0234 0.2162,0.0197 0.31624,-0.0211 0.13571,-0.0554 0.24026,-0.16605 0.32926,-0.27901 0.13302,-0.16878 0.25074,-0.35169 0.3406,-0.54712 0.0217,-0.0471 0.0419,-0.0949 0.0604,-0.14335 0.009,-0.0229 0.0172,-0.0459 0.0251,-0.0691 0.004,-0.0109 0.0118,-0.0263 0.0123,-0.0376 9.6e-4,-0.0192 0.004,-0.01 -0.0124,-0.0206 -0.0727,-0.0462 -0.14832,-0.0801 -0.21579,-0.1358 -0.14214,-0.11732 -0.24897,-0.27359 -0.29998,-0.45119 -0.0246,-0.086 -0.0362,-0.17511 -0.0371,-0.26442"
         id="path14089"
         style="stroke:#80ffe6;stroke-opacity:1" />
      <path
         fill="none"
         stroke="#00b9d2"
         stroke-width="0.10131"
         stroke-linecap="round"
         stroke-linejoin="round"
         stroke-miterlimit="10"
         d="m 182.85649,145.73001 c 0.37232,-0.003 0.73936,-0.0836 1.0754,-0.24548 0.33357,-0.16062 0.62985,-0.39663 0.86088,-0.68592 0.23094,-0.28913 0.39587,-0.62974 0.47884,-0.99035 0.0449,-0.19497 0.0634,-0.39323 0.0634,-0.59301 0,-0.0959 0,-0.19178 0,-0.28767 0,-0.18586 0,-0.37166 0,-0.55746 0,-0.26533 0,-0.53061 0,-0.79594 0,-0.33721 0,-0.67442 0,-1.01163 0,-0.40311 0,-0.80622 0,-1.20928 0,-0.45615 0,-0.91229 0,-1.36844 0,-0.50285 0,-1.00575 0,-1.5086 0,-0.54429 0,-1.08858 0,-1.63286 0,-0.57134 0,-1.14262 0,-1.71396 0,-0.59453 0,-1.18902 0,-1.78356 0,-0.60775 0,-1.21546 0,-1.82322 0,-0.61084 0,-1.22164 0,-1.83243 0,-0.60888 0,-1.2177 0,-1.82657 0,-0.59676 0,-1.19353 0,-1.79024 0,-0.57468 0,-1.14931 0,-1.72399 0,-0.54874 0,-1.09754 0,-1.64628 0,-0.50842 0,-1.01684 0,-1.52532 0,-0.46283 0,-0.92566 0,-1.3885 0,-0.41091 0,-0.82187 0,-1.23278 0,-0.34613 0,-0.69225 0,-1.03833 0,-0.27531 0,-0.55067 0,-0.82598 0,-0.19699 0,-0.39404 0,-0.59104 0,-0.10814 0,-0.21624 0,-0.32439 0,-0.16042 -0.009,-0.32009 -0.036,-0.47849 -0.0629,-0.36466 -0.20789,-0.71413 -0.42251,-1.01568 -0.21351,-0.29997 -0.49369,-0.55158 -0.8158,-0.73019 -0.32455,-0.17997 -0.6885,-0.28665 -1.05914,-0.30798 -0.13591,-0.008 -0.27278,-0.004 -0.40884,-0.004 -0.2902,0 -0.58045,0 -0.87065,0 -0.44708,0 -0.89416,0 -1.34129,0 -0.54839,0 -1.09678,0 -1.64517,0 -0.60132,0 -1.20265,0 -1.80397,0 -0.6071,0 -1.21415,0 -1.82124,0 -0.55549,0 -1.11102,0 -1.6665,0 -0.45797,0 -0.91589,0 -1.37386,0 -0.30793,0 -0.61581,0 -0.92374,0 -0.12147,0 -0.24304,-0.002 -0.36451,3.5e-4 -0.371,0.006 -0.73951,0.0973 -1.071,0.26396 -0.33067,0.16635 -0.62305,0.40737 -0.84892,0.70066 -0.22516,0.29238 -0.38407,0.6345 -0.46101,0.99552 -0.0394,0.18464 -0.0548,0.37166 -0.0548,0.56009 0,0.0995 0,0.19892 0,0.29841 0,0.18783 0,0.37566 0,0.56353 0,0.26954 0,0.53902 0,0.80856 0,0.33984 0,0.67963 0,1.01948 0,0.40422 0,0.8084 0,1.21262 0,0.45929 0,0.91863 0,1.37792 0,0.50452 0,1.00899 0,1.51351 0,0.54409 0,1.08812 0,1.6322 0,0.57387 0,1.14769 0,1.72156 0,0.59352 0,1.18704 0,1.78057 0,0.60973 0,1.21946 0,1.82919 0,0.61085 0,1.2217 0,1.83249 0,0.6069 0,1.21374 0,1.82064 0,0.59778 0,1.19555 0,1.79333 0,0.57372 0,1.14738 0,1.7211 0,0.54459 0,1.08913 0,1.63372 0,0.50974 0,1.01948 0,1.52922 0,0.46091 0,0.92177 0,1.38267 0,0.40762 0,0.81524 0,1.22286 0,0.34456 0,0.68916 0,1.03372 0,0.27242 0,0.54484 0,0.81726 0,0.19376 0,0.38756 0,0.58132 0,0.10455 0,0.20915 0,0.3137 0,0.17142 0.0111,0.34187 0.043,0.51065 0.069,0.36462 0.22009,0.71256 0.44054,1.01123 0.21868,0.29623 0.50315,0.54297 0.82831,0.716 0.32535,0.17314 0.68703,0.27227 1.05519,0.28924 0.13251,0.006 0.26584,0.003 0.39845,0.003 0.29714,0 0.59423,0 0.89137,0 0.45068,0 0.9013,0 1.35198,0 0.5528,0 1.10554,0 1.65834,0 0.60234,0 1.20472,0 1.80706,0 0.60614,0 1.21232,0 1.81846,0 0.55264,0 1.10524,0 1.65788,0 0.45204,0 0.90409,0 1.35613,0 0.30216,0 0.60436,0 0.90652,0 0.0732,0 0.14634,0 0.21954,0 0.015,6e-5 0.0644,-0.009 0.0777,6e-5 z"
         id="path14091"
         style="stroke:#80ffe6;stroke-opacity:1" />
      <line
         fill="none"
         stroke="#00b9d2"
         stroke-width="0.10131"
         stroke-linecap="round"
         stroke-linejoin="round"
         stroke-miterlimit="10"
         x1="168.03189"
         y1="142.25999"
         x2="168.34612"
         y2="142.25999"
         id="line14093"
         style="stroke:#80ffe6;stroke-opacity:1" />
      <line
         fill="none"
         stroke="#00b9d2"
         stroke-width="0.10131"
         stroke-linecap="round"
         stroke-linejoin="round"
         stroke-miterlimit="10"
         x1="168.03189"
         y1="142.57593"
         x2="168.34612"
         y2="142.57593"
         id="line14095"
         style="stroke:#80ffe6;stroke-opacity:1" />
      <line
         fill="none"
         stroke="#00b9d2"
         stroke-width="0.10131"
         stroke-linecap="round"
         stroke-linejoin="round"
         stroke-miterlimit="10"
         x1="168.03189"
         y1="114.71668"
         x2="168.34612"
         y2="114.71668"
         id="line14097"
         style="stroke:#80ffe6;stroke-opacity:1" />
      <line
         fill="none"
         stroke="#00b9d2"
         stroke-width="0.10131"
         stroke-linecap="round"
         stroke-linejoin="round"
         stroke-miterlimit="10"
         x1="168.03189"
         y1="114.4007"
         x2="168.34612"
         y2="114.4007"
         id="line14099"
         style="stroke:#80ffe6;stroke-opacity:1" />
      <line
         fill="none"
         stroke="#00b9d2"
         stroke-width="0.10131"
         stroke-linecap="round"
         stroke-linejoin="round"
         stroke-miterlimit="10"
         x1="185.64925"
         y1="114.4007"
         x2="185.33504"
         y2="114.4007"
         id="line14101"
         style="stroke:#80ffe6;stroke-opacity:1" />
      <line
         fill="none"
         stroke="#00b9d2"
         stroke-width="0.10131"
         stroke-linecap="round"
         stroke-linejoin="round"
         stroke-miterlimit="10"
         x1="185.64925"
         y1="114.71668"
         x2="185.33504"
         y2="114.71668"
         id="line14103"
         style="stroke:#80ffe6;stroke-opacity:1" />
      <line
         fill="none"
         stroke="#00b9d2"
         stroke-width="0.10131"
         stroke-linecap="round"
         stroke-linejoin="round"
         stroke-miterlimit="10"
         x1="185.64925"
         y1="142.57593"
         x2="185.33504"
         y2="142.57593"
         id="line14105"
         style="stroke:#80ffe6;stroke-opacity:1" />
      <line
         fill="none"
         stroke="#00b9d2"
         stroke-width="0.10131"
         stroke-linecap="round"
         stroke-linejoin="round"
         stroke-miterlimit="10"
         x1="185.64925"
         y1="142.25999"
         x2="185.33504"
         y2="142.25999"
         id="line14107"
         style="stroke:#80ffe6;stroke-opacity:1" />
      <path
         fill="none"
         stroke="#00b9d2"
         stroke-width="0.123774"
         stroke-linecap="round"
         stroke-linejoin="round"
         stroke-miterlimit="10"
         d="m 172.58235,118.34419 c -5e-5,-0.10168 -0.0657,-0.19485 -0.16136,-0.22915 -0.0957,-0.0343 -0.2056,-0.004 -0.27014,0.0746 -0.0645,0.0785 -0.073,0.19228 -0.0207,0.2795 0.0522,0.0872 0.15641,0.1335 0.25615,0.11369 0.0993,-0.0197 0.17788,-0.10172 0.19322,-0.20182 0.002,-0.0122 0.003,-0.0246 0.003,-0.0369 z"
         id="path14109"
         style="stroke:#80ffe6;stroke-opacity:1" />
      <path
         fill="none"
         stroke="#00b9d2"
         stroke-width="0.123774"
         stroke-linecap="round"
         stroke-linejoin="round"
         stroke-miterlimit="10"
         d="m 170.30589,117.76538 c 0.20821,0.15794 0.45837,0.25223 0.72001,0.26421 0.26154,0.012 0.52412,-0.0584 0.74462,-0.19953 0.2205,-0.14114 0.39436,-0.35012 0.49302,-0.59267 0.0981,-0.2412 0.11982,-0.51071 0.0616,-0.76447 -0.0583,-0.25376 -0.19533,-0.48686 -0.38878,-0.66113 -0.19453,-0.17522 -0.44212,-0.28747 -0.70209,-0.31835 -0.25998,-0.0309 -0.52701,0.0203 -0.75714,0.14515 -0.22887,0.12414 -0.41669,0.31867 -0.53272,0.55177 -0.11604,0.23309 -0.15798,0.50022 -0.11909,0.75767 0.0391,0.25889 0.15923,0.50275 0.34057,0.6916 0.0213,0.0222 0.0435,0.0436 0.0664,0.0643 0.0133,0.0119 0.0563,0.0614 0.0737,0.0614 z"
         id="path14115"
         style="stroke:#80ffe6;stroke-opacity:1" />
      <path
         fill="none"
         stroke="#00b9d2"
         stroke-width="0.139301"
         stroke-linecap="round"
         stroke-linejoin="round"
         stroke-miterlimit="10"
         d="m 167.91554,115.69503 c 0.0204,0 0.10471,-0.0122 0.11636,7.1e-4 0.006,0.006 0,0.0433 0,0.0511 0,0.0924 0,0.18474 0,0.27713 0,0.25414 0,0.50827 0,0.76236 0,0.0629 0,0.12582 0,0.18874 0,-0.005 -0.10967,0.007 -0.11636,-7.1e-4 -0.006,-0.006 0,-0.0433 0,-0.0511 0,-0.0924 0,-0.18474 0,-0.27714 0,-0.25413 0,-0.50827 0,-0.76235 0,-0.0629 0,-0.12583 0,-0.18874 z"
         id="path14119"
         style="stroke:#80ffe6;stroke-opacity:1" />
      <path
         fill="none"
         stroke="#00b9d2"
         stroke-width="0.139301"
         stroke-linecap="round"
         stroke-linejoin="round"
         stroke-miterlimit="10"
         d="m 167.91554,118.11967 c 0.0191,0 0.10521,-0.0123 0.11636,5e-5 0.002,0.003 -4.6e-4,0.0162 0,0.0197 0.006,0.0439 0,0.0926 0,0.13682 0,0.18499 0,0.36998 0,0.55502 0,0.45807 0,0.9162 0,1.37427 0,0.0718 0,0.1436 0,0.21543 0,0.0198 0.0116,0.086 0,0.10288 -0.008,0.0115 -0.10916,0.011 -0.11636,-0.001 -0.0117,-0.0195 0,-0.0821 0,-0.1041 0,-0.41202 0,-0.82405 0,-1.23608 0,-0.3484 0,-0.6968 0,-1.04521 0,-0.006 0,-0.0118 0,-0.0177 z"
         id="path14121"
         style="stroke:#80ffe6;stroke-opacity:1" />
      <path
         fill="none"
         stroke="#00b9d2"
         stroke-width="0.139301"
         stroke-linecap="round"
         stroke-linejoin="round"
         stroke-miterlimit="10"
         d="m 167.91554,121.14508 c 0.0191,0 0.10521,-0.0123 0.11636,5e-5 0.002,0.003 -4.6e-4,0.0162 0,0.0197 0.006,0.0439 0,0.0927 0,0.13682 0,0.18499 0,0.36998 0,0.55502 0,0.45807 0,0.9162 0,1.37427 0,0.0718 0,0.14361 0,0.21543 0,0.0198 0.0116,0.086 0,0.10288 -0.008,0.0114 -0.10916,0.011 -0.11636,-0.001 -0.0117,-0.0195 0,-0.0821 0,-0.1041 0,-0.41202 0,-0.82405 0,-1.23607 0,-0.34841 0,-0.69681 0,-1.04522 0,-0.006 0,-0.0118 0,-0.0177 z"
         id="path14123"
         style="stroke:#80ffe6;stroke-opacity:1" />
      <path
         fill="none"
         stroke="#00b9d2"
         stroke-width="0.139301"
         stroke-linecap="round"
         stroke-linejoin="round"
         stroke-miterlimit="10"
         d="m 185.64925,118.9186 c 0.0234,0 0.10561,-0.0114 0.11635,0.004 0.005,0.008 0,0.0393 0,0.0487 0,0.0803 0,0.16062 0,0.24091 0,0.29952 0,0.5991 0,0.89862 0,0.38153 0,0.76306 0,1.14459 0,0.33458 0,0.66921 0,1.00378 0,0.11154 0,0.22308 0,0.33463 0,0.0344 0,0.0689 0,0.10338 0,0.0119 0.006,0.0437 0,0.0542 -0.008,0.0138 -0.0862,0.0145 -0.1047,0.007 -0.0163,-0.007 -0.0105,-6.6e-4 -0.0117,-0.0224 -0.004,-0.065 0,-0.13124 0,-0.19634 0,-0.28113 0,-0.56227 0,-0.8434 0,-0.37844 0,-0.75688 0,-1.13533 0,-0.34683 0,-0.69371 0,-1.04055 0,-0.19163 0,-0.38325 0,-0.57493 0,-0.009 0,-0.0179 0,-0.0269 z"
         id="path14125"
         style="stroke:#80ffe6;stroke-opacity:1" />
      <path
         fill="none"
         stroke="#00b9d2"
         stroke-width="0.139301"
         stroke-linecap="round"
         stroke-linejoin="round"
         stroke-miterlimit="10"
         d="m 182.85649,146.04422 c 0.37343,-0.003 0.74225,-0.0746 1.08675,-0.2202 0.34577,-0.14614 0.66084,-0.36223 0.92167,-0.63222 0.26082,-0.26999 0.46592,-0.59236 0.60005,-0.94294 0.12193,-0.31872 0.18282,-0.6575 0.18424,-0.99851 2.5e-4,-0.0601 0,-0.12015 0,-0.18028 0,-0.15718 0,-0.31431 0,-0.4715 0,-0.24512 0,-0.49023 0,-0.73535 0,-0.32399 0,-0.64793 0,-0.97192 0,-0.39374 0,-0.78748 0,-1.18117 0,-0.4531 0,-0.90621 0,-1.35932 0,-0.50442 0,-1.00889 0,-1.51331 0,-0.54829 0,-1.09658 0,-1.64482 0,-0.58172 0,-1.16344 0,-1.74516 0,-0.60608 0,-1.21217 0,-1.81825 0,-0.61966 0,-1.23937 0,-1.85903 0,-0.62585 0,-1.25174 0,-1.87758 0,-0.62467 0,-1.24935 0,-1.87402 0,-0.61272 0,-1.22545 0,-1.83817 0,-0.5917 0,-1.18339 0,-1.77504 0,-0.56009 0,-1.12018 0,-1.68033 0,-0.52113 0,-1.04222 0,-1.56336 0,-0.47433 0,-0.94861 0,-1.42294 0,-0.41699 0,-0.83393 0,-1.25092 0,-0.35053 0,-0.70107 0,-1.0516 0,-0.27434 0,-0.54874 0,-0.82309 0,-0.19021 0,-0.38047 0,-0.57067 0,-0.0972 0,-0.19437 0,-0.29157 0,-0.21762 -0.0205,-0.43381 -0.0684,-0.64636 -0.0819,-0.36314 -0.23691,-0.70912 -0.45366,-1.01178 -0.2167,-0.30266 -0.49429,-0.561 -0.81175,-0.75541 -0.31765,-0.19457 -0.67355,-0.32425 -1.04187,-0.38002 -0.18808,-0.0285 -0.37631,-0.0314 -0.56581,-0.0314 -0.25885,0 -0.51764,0 -0.77649,0 -0.43183,0 -0.86366,0 -1.29555,0 -0.55011,0 -1.10027,0 -1.65038,0 -0.61029,0 -1.22063,0 -1.83092,0 -0.6226,0 -1.2452,0 -1.8678,0 -0.57701,0 -1.15402,0 -1.73097,0 -0.47667,0 -0.95333,0 -1.42999,0 -0.32161,0 -0.64322,0 -0.96482,0 -0.1274,0 -0.2549,-0.002 -0.3823,4e-4 -0.3713,0.006 -0.74001,0.0872 -1.07991,0.23671 -0.34252,0.1507 -0.65334,0.3712 -0.90955,0.64382 -0.25728,0.27369 -0.45813,0.59961 -0.58704,0.95242 -0.11261,0.30828 -0.16884,0.63384 -0.17005,0.96183 -2.5e-4,0.0639 0,0.12775 0,0.19163 0,0.16062 0,0.3213 0,0.48193 0,0.24826 0,0.49647 0,0.74473 0,0.32677 0,0.65349 0,0.98027 0,0.39617 0,0.79234 0,1.18851 0,0.45392 0,0.90784 0,1.36171 0,0.50751 0,1.01502 0,1.52248 0,0.5497 0,1.09941 0,1.64912 0,0.58283 0,1.16562 0,1.74845 0,0.60685 0,1.21364 0,1.82048 0,0.6184 0,1.23679 0,1.85519 0,0.62761 0,1.25517 0,1.88279 0,0.62437 0,1.24879 0,1.87316 0,0.61212 0,1.22423 0,1.83629 0,0.59074 0,1.18142 0,1.77216 0,0.55877 0,1.1176 0,1.67637 0,0.51947 0,1.03893 0,1.5584 0,0.4723 0,0.94466 0,1.41697 0,0.41461 0,0.82927 0,1.24388 0,0.34784 0,0.69569 0,1.04354 0,0.27135 0,0.54271 0,0.81407 0,0.18687 0,0.37373 0,0.5606 0,0.0935 0,0.18696 0,0.28047 0,0.22942 0.0238,0.45742 0.0777,0.68065 0.0877,0.3637 0.24862,0.70917 0.47165,1.00965 0.22111,0.29791 0.50118,0.55037 0.82025,0.73972 0.31974,0.1897 0.67787,0.31416 1.04623,0.36426 0.18089,0.0246 0.36167,0.0256 0.54363,0.0256 0.26634,0 0.53268,0 0.79897,0 0.43731,0 0.87456,0 1.31186,0 0.55351,0 1.10701,0 1.66052,0 0.61161,0 1.22326,0 1.83487,0 0.62189,0 1.24378,0 1.86567,0 0.57422,0 1.14845,0 1.72267,0 0.4718,0 0.94365,0 1.41545,0 0.31472,0 0.62938,0 0.9441,0 0.0766,0 0.15318,0 0.22977,0 0.0157,-5e-5 0.0674,-0.009 0.0813,-5e-5 z"
         id="path14127"
         style="stroke:#80ffe6;stroke-opacity:1" />
      <path
         fill="none"
         stroke="#00b9d2"
         stroke-width="0.177292"
         stroke-linecap="round"
         stroke-linejoin="round"
         stroke-miterlimit="10"
         d="m 182.85649,146.04422 c 0.38579,-0.002 0.76839,-0.08 1.12191,-0.23529 0.33629,-0.14771 0.64316,-0.36183 0.89679,-0.62772 0.25398,-0.26624 0.45523,-0.58202 0.58724,-0.92562 0.12329,-0.32094 0.18595,-0.66231 0.18682,-1.006 1.5e-4,-0.0628 0,-0.12567 0,-0.18849 0,-0.1591 0,-0.31821 0,-0.47732 0,-0.24633 0,-0.49272 0,-0.73905 0,-0.3246 0,-0.64919 0,-0.97379 0,-0.39379 0,-0.78763 0,-1.18142 0,-0.45529 0,-0.91063 0,-1.36591 0,-0.50392 0,-1.00778 0,-1.51169 0,-0.5489 0,-1.09779 0,-1.64669 0,-0.57899 0,-1.15797 0,-1.73696 0,-0.60628 0,-1.21262 0,-1.81891 0,-0.61809 0,-1.23623 0,-1.85432 0,-0.62756 0,-1.25513 0,-1.88264 0,-0.62128 0,-1.24251 0,-1.86379 0,-0.61262 0,-1.22529 0,-1.83791 0,-0.58846 0,-1.17687 0,-1.76532 0,-0.56156 0,-1.12312 0,-1.68468 0,-0.51967 0,-1.03929 0,-1.55896 0,-0.47433 0,-0.94861 0,-1.42294 0,-0.41491 0,-0.82978 0,-1.24469 0,-0.35089 0,-0.70182 0,-1.05271 0,-0.27414 0,-0.54834 0,-0.82248 0,-0.19133 0,-0.38265 0,-0.57402 0,-0.0975 0,-0.19492 0,-0.29238 0,-0.22643 -0.0221,-0.45124 -0.0739,-0.67199 -0.0831,-0.35413 -0.23605,-0.69038 -0.44733,-0.9864 -0.21635,-0.30317 -0.49424,-0.56111 -0.81149,-0.75603 -0.31817,-0.19552 -0.67619,-0.32591 -1.04552,-0.38112 -0.18985,-0.0284 -0.37966,-0.031 -0.57088,-0.031 -0.26011,0 -0.52027,0 -0.78039,0 -0.4334,0 -0.8668,0 -1.30021,0 -0.54793,0 -1.09581,0 -1.64375,0 -0.61388,0 -1.22777,0 -1.8416,0 -0.61916,0 -1.23826,0 -1.85741,0 -0.57661,0 -1.15321,0 -1.72982,0 -0.47377,0 -0.94755,0 -1.42137,0 -0.32161,0 -0.64322,0 -0.96482,0 -0.12598,0 -0.25206,-0.002 -0.37804,3.5e-4 -0.38361,0.006 -0.76509,0.0914 -1.11436,0.25024 -0.33599,0.15282 -0.64103,0.37271 -0.89188,0.64357 -0.24957,0.26948 -0.4454,0.588 -0.5723,0.93275 -0.11417,0.31021 -0.17161,0.63876 -0.17232,0.96913 -1.5e-4,0.0667 0,0.13333 0,0.19999 0,0.16199 0,0.32399 0,0.48598 0,0.25003 0,0.50007 0,0.7501 0,0.32738 0,0.65471 0,0.98209 0,0.39623 0,0.7925 0,1.18872 0,0.4561 0,0.91219 0,1.36834 0,0.50695 0,1.01391 0,1.52086 0,0.5488 0,1.09754 0,1.64633 0,0.58157 0,1.16319 0,1.74476 0,0.60705 0,1.21409 0,1.82109 0,0.6185 0,1.23699 0,1.85554 0,0.62761 0,1.25523 0,1.88284 0,0.62098 0,1.24195 0,1.86293 0,0.61201 0,1.22403 0,1.83604 0,0.58749 0,1.17494 0,1.76243 0,0.56024 0,1.12049 0,1.68073 0,0.518 0,1.03604 0,1.55404 0,0.4723 0,0.94466 0,1.41697 0,0.41258 0,0.82511 0,1.2377 0,0.34825 0,0.69645 0,1.0447 0,0.27116 0,0.54231 0,0.81347 0,0.18798 0,0.37596 0,0.56394 0,0.0938 0,0.18757 0,0.28134 0,0.23985 0.0261,0.47787 0.0846,0.71073 0.0886,0.35231 0.24679,0.68638 0.46278,0.97845 0.22142,0.29932 0.5027,0.5532 0.82309,0.74281 0.32029,0.18955 0.67782,0.31365 1.04653,0.3639 0.18312,0.025 0.36614,0.0254 0.55027,0.0254 0.26756,0 0.53517,0 0.80272,0 0.43883,0 0.87765,0 1.31647,0 0.55128,0 1.10256,0 1.65378,0 0.61521,0 1.23036,0 1.84556,0 0.61839,0 1.23679,0 1.85518,0 0.57382,0 1.14764,0 1.72146,0 0.46896,0 0.93792,0 1.40688,0 0.31472,0 0.62939,0 0.94411,0 0.0766,0 0.15318,0 0.22977,0 0.0159,-5e-5 0.0676,-0.009 0.0814,-5e-5 z"
         id="path14129"
         style="stroke:#80ffe6;stroke-opacity:1" />
      <rect
         style="fill:none;fill-opacity:1;stroke:#80ffe6;stroke-width:0.137733;stroke-linecap:round;stroke-miterlimit:4;stroke-dasharray:none;stroke-opacity:1;paint-order:stroke fill markers"
         id="rect14205"
         width="3.5160158"
         height="9.8517742"
         x="169.32784"
         y="112.10435"
         ry="1.6024822" />
      <path
         fill="none"
         stroke="#00b9d2"
         stroke-width="0.123774"
         stroke-linecap="round"
         stroke-linejoin="round"
         stroke-miterlimit="10"
         d="m 170.30589,120.99976 c 0.20821,0.15794 0.45837,0.25223 0.72001,0.26421 0.26154,0.012 0.52412,-0.0584 0.74462,-0.19953 0.2205,-0.14114 0.39436,-0.35012 0.49302,-0.59267 0.0981,-0.2412 0.11982,-0.51071 0.0616,-0.76447 -0.0583,-0.25376 -0.19533,-0.48686 -0.38878,-0.66113 -0.19453,-0.17522 -0.44212,-0.28747 -0.70209,-0.31835 -0.25998,-0.0309 -0.52701,0.0203 -0.75714,0.14515 -0.22887,0.12414 -0.41669,0.31867 -0.53272,0.55177 -0.11604,0.23309 -0.15798,0.50022 -0.11909,0.75767 0.0391,0.25889 0.15923,0.50275 0.34057,0.6916 0.0213,0.0222 0.0435,0.0436 0.0664,0.0643 0.0133,0.0119 0.0563,0.0614 0.0737,0.0614 z"
         id="path14207"
         style="stroke:#80ffe6;stroke-opacity:1" />
    </g>
  </g>
</svg>
