<?xml version="1.0" encoding="UTF-8" standalone="no"?>
<svg
   xmlns:dc="http://purl.org/dc/elements/1.1/"
   xmlns:cc="http://creativecommons.org/ns#"
   xmlns:rdf="http://www.w3.org/1999/02/22-rdf-syntax-ns#"
   xmlns:svg="http://www.w3.org/2000/svg"
   xmlns="http://www.w3.org/2000/svg"
   xmlns:sodipodi="http://sodipodi.sourceforge.net/DTD/sodipodi-0.dtd"
   xmlns:inkscape="http://www.inkscape.org/namespaces/inkscape"
   width="76.090446mm"
   height="155.8649mm"
   viewBox="0 0 76.090446 155.8649"
   version="1.1"
   id="svg2286"
   inkscape:version="1.0.2 (e86c8708, 2021-01-15)"
   sodipodi:docname="Mouss10.svg">
  <defs
     id="defs2280" />
  <sodipodi:namedview
     id="base"
     pagecolor="#ffffff"
     bordercolor="#666666"
     borderopacity="1.0"
     inkscape:pageopacity="0.0"
     inkscape:pageshadow="2"
     inkscape:zoom="1.042461"
     inkscape:cx="120.37473"
     inkscape:cy="321.32589"
     inkscape:document-units="mm"
     inkscape:current-layer="layer1"
     inkscape:document-rotation="0"
     showgrid="false"
     inkscape:window-width="1440"
     inkscape:window-height="872"
     inkscape:window-x="0"
     inkscape:window-y="28"
     inkscape:window-maximized="0" />
  <metadata
     id="metadata2283">
    <rdf:RDF>
      <cc:Work
         rdf:about="">
        <dc:format>image/svg+xml</dc:format>
        <dc:type
           rdf:resource="http://purl.org/dc/dcmitype/StillImage" />
        <dc:title></dc:title>
      </cc:Work>
    </rdf:RDF>
  </metadata>
  <g
     inkscape:label="Layer 1"
     inkscape:groupmode="layer"
     id="layer1"
     transform="translate(-43.597631,-29.412786)">
    <g
       id="layer2"
       transform="matrix(0.26458333,0,0,0.26458333,142.84015,25.055946)">
      <g
         id="g1188">
        <path
           style="color:#000000;font-style:normal;font-variant:normal;font-weight:normal;font-stretch:normal;font-size:medium;line-height:normal;font-family:sans-serif;font-variant-ligatures:normal;font-variant-position:normal;font-variant-caps:normal;font-variant-numeric:normal;font-variant-alternates:normal;font-variant-east-asian:normal;font-feature-settings:normal;font-variation-settings:normal;text-indent:0;text-align:start;text-decoration:none;text-decoration-line:none;text-decoration-style:solid;text-decoration-color:#000000;letter-spacing:normal;word-spacing:normal;text-transform:none;writing-mode:lr-tb;direction:ltr;text-orientation:mixed;dominant-baseline:auto;baseline-shift:baseline;text-anchor:start;white-space:normal;shape-padding:0;shape-margin:0;inline-size:0;clip-rule:nonzero;display:inline;overflow:visible;visibility:visible;opacity:1;isolation:auto;mix-blend-mode:normal;color-interpolation:sRGB;color-interpolation-filters:linearRGB;solid-color:#000000;solid-opacity:1;vector-effect:none;fill:#80ffe6;fill-opacity:1;fill-rule:nonzero;stroke:none;stroke-linecap:round;stroke-linejoin:round;stroke-miterlimit:4;stroke-dasharray:none;stroke-dashoffset:37.7953;stroke-opacity:1;paint-order:stroke fill markers;color-rendering:auto;image-rendering:auto;shape-rendering:auto;text-rendering:auto;enable-background:accumulate;stop-color:#000000;stop-opacity:1"
           d="m -326.83594,16.466797 c -25.00116,0 -45.18945,20.188295 -45.18945,45.189453 v 498.7168 c 0,25.00116 20.18829,45.18944 45.18945,45.18945 h 70.22266 a 1.889954,1.889954 0 0 0 0.56055,-0.0859 c 7.02691,-2.17848 15.26772,-3.35174 23.68359,-3.35156 8.41392,3.5e-4 16.65245,1.17359 23.67773,3.35156 a 1.889954,1.889954 0 0 0 0.56055,0.0859 h 21.94922 a 1.889954,1.889954 0 0 0 0.83789,-0.19727 c 4.38705,-2.16997 10.75341,-3.48609 17.4043,-3.48632 6.65088,2.3e-4 13.01724,1.31635 17.40429,3.48632 a 1.889954,1.889954 0 0 0 0.83789,0.19727 h 14.28907 c 25.00116,0 45.187497,-20.1884 45.187497,-45.18945 V 61.65625 c 0,-25.001055 -20.186337,-45.189453 -45.187497,-45.189453 z m 0,3.78125 h 191.42774 c 22.97254,0 41.406247,18.43556 41.406247,41.408203 v 498.7168 c 0,22.97264 -18.433707,41.4082 -41.406247,41.4082 h -13.9375 c -5.06845,-2.39177 -11.66613,-3.68335 -18.59375,-3.68359 -6.92763,2.4e-4 -13.5253,1.29182 -18.59375,3.68359 h -21.42578 c -7.3685,-2.2379 -15.78948,-3.43714 -24.41016,-3.4375 -8.62273,-1.9e-4 -17.04577,1.19906 -24.41602,3.4375 h -70.05078 c -22.97254,-10e-6 -41.4082,-18.43566 -41.4082,-41.4082 V 61.65625 c 0,-22.97254 18.43566,-41.408203 41.4082,-41.408203 z"
           id="rect1054" />
        <path
           style="color:#000000;font-style:normal;font-variant:normal;font-weight:normal;font-stretch:normal;font-size:medium;line-height:normal;font-family:sans-serif;font-variant-ligatures:normal;font-variant-position:normal;font-variant-caps:normal;font-variant-numeric:normal;font-variant-alternates:normal;font-variant-east-asian:normal;font-feature-settings:normal;font-variation-settings:normal;text-indent:0;text-align:start;text-decoration:none;text-decoration-line:none;text-decoration-style:solid;text-decoration-color:#000000;letter-spacing:normal;word-spacing:normal;text-transform:none;writing-mode:lr-tb;direction:ltr;text-orientation:mixed;dominant-baseline:auto;baseline-shift:baseline;text-anchor:start;white-space:normal;shape-padding:0;shape-margin:0;inline-size:0;clip-rule:nonzero;display:inline;overflow:visible;visibility:visible;opacity:1;isolation:auto;mix-blend-mode:normal;color-interpolation:sRGB;color-interpolation-filters:linearRGB;solid-color:#000000;solid-opacity:1;vector-effect:none;fill:#80ffe6;fill-opacity:1;fill-rule:nonzero;stroke:none;stroke-linecap:round;stroke-linejoin:miter;stroke-miterlimit:4;stroke-dasharray:none;stroke-dashoffset:0;stroke-opacity:1;color-rendering:auto;image-rendering:auto;shape-rendering:auto;text-rendering:auto;enable-background:accumulate;stop-color:#000000;stop-opacity:1"
           d="m -90.337891,210.69336 a 2.834645,2.834645 0 0 0 -2.833984,2.83398 v 41.74414 a 2.834645,2.834645 0 0 0 2.833984,2.83399 2.834645,2.834645 0 0 0 2.833985,-2.83399 v -41.74414 a 2.834645,2.834645 0 0 0 -2.833985,-2.83398 z"
           id="path7900" />
        <path
           style="color:#000000;font-style:normal;font-variant:normal;font-weight:normal;font-stretch:normal;font-size:medium;line-height:normal;font-family:sans-serif;font-variant-ligatures:normal;font-variant-position:normal;font-variant-caps:normal;font-variant-numeric:normal;font-variant-alternates:normal;font-variant-east-asian:normal;font-feature-settings:normal;font-variation-settings:normal;text-indent:0;text-align:start;text-decoration:none;text-decoration-line:none;text-decoration-style:solid;text-decoration-color:#000000;letter-spacing:normal;word-spacing:normal;text-transform:none;writing-mode:lr-tb;direction:ltr;text-orientation:mixed;dominant-baseline:auto;baseline-shift:baseline;text-anchor:start;white-space:normal;shape-padding:0;shape-margin:0;inline-size:0;clip-rule:nonzero;display:inline;overflow:visible;visibility:visible;opacity:1;isolation:auto;mix-blend-mode:normal;color-interpolation:sRGB;color-interpolation-filters:linearRGB;solid-color:#000000;solid-opacity:1;vector-effect:none;fill:#80ffe6;fill-opacity:1;fill-rule:nonzero;stroke:none;stroke-linecap:round;stroke-linejoin:miter;stroke-miterlimit:4;stroke-dasharray:none;stroke-dashoffset:0;stroke-opacity:1;color-rendering:auto;image-rendering:auto;shape-rendering:auto;text-rendering:auto;enable-background:accumulate;stop-color:#000000;stop-opacity:1"
           d="m -90.337891,147.89062 a 2.834645,2.834645 0 0 0 -2.833984,2.83399 v 29.92773 a 2.834645,2.834645 0 0 0 2.833984,2.83399 2.834645,2.834645 0 0 0 2.833985,-2.83399 v -29.92773 a 2.834645,2.834645 0 0 0 -2.833985,-2.83399 z"
           id="path1655" />
        <path
           style="color:#000000;font-style:normal;font-variant:normal;font-weight:normal;font-stretch:normal;font-size:medium;line-height:normal;font-family:sans-serif;font-variant-ligatures:normal;font-variant-position:normal;font-variant-caps:normal;font-variant-numeric:normal;font-variant-alternates:normal;font-variant-east-asian:normal;font-feature-settings:normal;font-variation-settings:normal;text-indent:0;text-align:start;text-decoration:none;text-decoration-line:none;text-decoration-style:solid;text-decoration-color:#000000;letter-spacing:normal;word-spacing:normal;text-transform:none;writing-mode:lr-tb;direction:ltr;text-orientation:mixed;dominant-baseline:auto;baseline-shift:baseline;text-anchor:start;white-space:normal;shape-padding:0;shape-margin:0;inline-size:0;clip-rule:nonzero;display:inline;overflow:visible;visibility:visible;opacity:1;isolation:auto;mix-blend-mode:normal;color-interpolation:sRGB;color-interpolation-filters:linearRGB;solid-color:#000000;solid-opacity:1;vector-effect:none;fill:#80ffe6;fill-opacity:1;fill-rule:nonzero;stroke:none;stroke-linecap:round;stroke-linejoin:miter;stroke-miterlimit:4;stroke-dasharray:none;stroke-dashoffset:0;stroke-opacity:1;color-rendering:auto;image-rendering:auto;shape-rendering:auto;text-rendering:auto;enable-background:accumulate;stop-color:#000000;stop-opacity:1"
           d="m -90.337891,100.64844 a 2.834645,2.834645 0 0 0 -2.833984,2.83594 v 29.92578 a 2.834645,2.834645 0 0 0 2.833984,2.83593 2.834645,2.834645 0 0 0 2.833985,-2.83593 v -29.92578 a 2.834645,2.834645 0 0 0 -2.833985,-2.83594 z"
           id="path1657" />
        <path
           style="color:#000000;font-style:normal;font-variant:normal;font-weight:normal;font-stretch:normal;font-size:medium;line-height:normal;font-family:sans-serif;font-variant-ligatures:normal;font-variant-position:normal;font-variant-caps:normal;font-variant-numeric:normal;font-variant-alternates:normal;font-variant-east-asian:normal;font-feature-settings:normal;font-variation-settings:normal;text-indent:0;text-align:start;text-decoration:none;text-decoration-line:none;text-decoration-style:solid;text-decoration-color:#000000;letter-spacing:normal;word-spacing:normal;text-transform:none;writing-mode:lr-tb;direction:ltr;text-orientation:mixed;dominant-baseline:auto;baseline-shift:baseline;text-anchor:start;white-space:normal;shape-padding:0;shape-margin:0;inline-size:0;clip-rule:nonzero;display:inline;overflow:visible;visibility:visible;opacity:1;isolation:auto;mix-blend-mode:normal;color-interpolation:sRGB;color-interpolation-filters:linearRGB;solid-color:#000000;solid-opacity:1;vector-effect:none;fill:#80ffe6;fill-opacity:1;fill-rule:nonzero;stroke:none;stroke-linecap:round;stroke-linejoin:miter;stroke-miterlimit:4;stroke-dasharray:none;stroke-dashoffset:0;stroke-opacity:1;color-rendering:auto;image-rendering:auto;shape-rendering:auto;text-rendering:auto;enable-background:accumulate;stop-color:#000000;stop-opacity:1"
           d="m -372.25391,125.08984 a 2.83465,2.83465 0 0 0 -2.83593,2.83594 v 38.65625 a 2.83465,2.83465 0 0 0 2.83593,2.83594 2.83465,2.83465 0 0 0 2.83399,-2.83594 v -38.65625 a 2.83465,2.83465 0 0 0 -2.83399,-2.83594 z"
           id="path1659" />
        <path
           style="color:#000000;font-style:normal;font-variant:normal;font-weight:normal;font-stretch:normal;font-size:medium;line-height:normal;font-family:sans-serif;font-variant-ligatures:normal;font-variant-position:normal;font-variant-caps:normal;font-variant-numeric:normal;font-variant-alternates:normal;font-variant-east-asian:normal;font-feature-settings:normal;font-variation-settings:normal;text-indent:0;text-align:start;text-decoration:none;text-decoration-line:none;text-decoration-style:solid;text-decoration-color:#000000;letter-spacing:normal;word-spacing:normal;text-transform:none;writing-mode:lr-tb;direction:ltr;text-orientation:mixed;dominant-baseline:auto;baseline-shift:baseline;text-anchor:start;white-space:normal;shape-padding:0;shape-margin:0;inline-size:0;clip-rule:nonzero;display:inline;overflow:visible;visibility:visible;opacity:1;isolation:auto;mix-blend-mode:normal;color-interpolation:sRGB;color-interpolation-filters:linearRGB;solid-color:#000000;solid-opacity:1;vector-effect:none;fill:#80ffe6;fill-opacity:1;fill-rule:nonzero;stroke:none;stroke-linecap:round;stroke-linejoin:round;stroke-miterlimit:4;stroke-dasharray:none;stroke-dashoffset:37.7953;stroke-opacity:1;paint-order:stroke fill markers;color-rendering:auto;image-rendering:auto;shape-rendering:auto;text-rendering:auto;enable-background:accumulate;stop-color:#000000;stop-opacity:1"
           d="m -332.47656,31.734375 c -14.73901,0 -26.63477,11.895764 -26.63477,26.634766 V 561.14648 c 0,14.73901 11.89585,26.63282 26.63477,26.63282 h 60.80273 a 0.9449764,0.9449764 0 0 0 0.81445,-0.46485 c 0,0 2.63315,-4.46535 5.37696,-8.98828 1.3719,-2.26146 2.77204,-4.53762 3.8789,-6.26953 0.55344,-0.86595 1.0343,-1.59808 1.39454,-2.11328 0.18011,-0.2576 0.33177,-0.46261 0.43554,-0.5918 0.10377,-0.12919 0.29592,-0.21162 -0.0137,-0.0449 1.08519,-0.58432 1.31011,-1.08191 2.80078,-1.20117 0.0596,-0.005 1.04363,-0.0318 2.43164,-0.0488 1.38802,-0.017 3.28003,-0.0326 5.50196,-0.0488 4.44384,-0.0324 10.20856,-0.0638 15.91992,-0.0898 11.42075,-0.0521 22.62308,-0.0859 22.62695,-0.0859 0,0 1.0063,10e-4 2.13867,0.17774 1.13238,0.17671 2.31607,0.65374 2.5625,0.97265 0.18772,0.24292 1.11717,1.6525 2.25586,3.44727 1.1387,1.79476 2.5494,4.05018 3.92383,6.25781 2.74886,4.41526 5.35156,8.64258 5.35156,8.64258 a 0.9449764,0.9449764 0 0 0 0.80469,0.44922 h 63.7207 c 14.73892,0 26.63477,-11.89381 26.63477,-26.63282 V 58.369141 c 0,-14.739002 -11.89576,-26.634766 -26.63477,-26.634766 z m 0,1.890625 h 202.72851 c 13.72476,0 24.74414,11.019394 24.74414,24.744141 V 561.14648 c 0,13.72476 -11.0193,24.74219 -24.74414,24.74219 h -63.19336 c -0.25003,-0.40588 -2.47093,-4.00837 -5.08007,-8.19922 -1.37598,-2.21011 -2.78769,-4.46842 -3.93164,-6.27148 -1.14396,-1.80306 -1.95692,-3.07602 -2.35547,-3.5918 -0.92611,-1.19849 -2.46848,-1.48086 -3.76758,-1.68359 -1.2991,-0.20273 -2.42969,-0.20117 -2.42969,-0.20117 a 0.9449764,0.9449764 0 0 0 -0.004,0 c 0,0 -11.20829,0.0358 -22.63281,0.0879 -5.71226,0.026 -11.4786,0.0554 -15.92578,0.0879 -2.22359,0.0162 -4.11596,0.0337 -5.50976,0.0508 -1.39381,0.0171 -2.18909,0.025 -2.56055,0.0547 -1.95797,0.15664 -2.83484,1.03862 -3.54297,1.41992 -0.42167,0.22705 -0.41723,0.33967 -0.56641,0.52539 -0.14917,0.18571 -0.31579,0.41594 -0.50976,0.69336 -0.38795,0.55483 -0.87646,1.29986 -1.4375,2.17773 -1.1221,1.75574 -2.52647,4.03862 -3.90235,6.30664 -2.60987,4.30216 -4.86164,8.11662 -5.11328,8.54297 h -60.26562 c -13.72484,0 -24.74414,-11.01743 -24.74414,-24.74219 V 58.369141 c 0,-13.724747 11.01938,-24.744141 24.74414,-24.744141 z"
           id="rect1677" />
        <path
           style="fill:#80ffe6;fill-opacity:1;stroke:none;stroke-width:1px;stroke-linecap:butt;stroke-linejoin:miter;stroke-opacity:1"
           d="m -257.092,587.15278 5.27237,-9.13202 3.75933,3.75935 2.95217,-3.60914 4.30255,8.95641 z"
           id="path1679" />
        <path
           id="path1683"
           style="fill:#80ffe6;fill-opacity:1;stroke:none;stroke-width:3.77953;stroke-linecap:round;stroke-linejoin:round;stroke-miterlimit:4;stroke-dasharray:none;stroke-dashoffset:37.7953;stroke-opacity:1;paint-order:stroke fill markers"
           d="m -229.68636,582.71497 a 4.4378004,4.4378004 0 0 1 -4.4378,4.4378 4.4378004,4.4378004 0 0 1 -4.4378,-4.4378 4.4378004,4.4378004 0 0 1 4.4378,-4.4378 4.4378004,4.4378004 0 0 1 4.4378,4.4378 z" />
        <path
           id="circle1685"
           style="fill:#80ffe6;fill-opacity:1;stroke:none;stroke-width:3.77953;stroke-linecap:round;stroke-linejoin:round;stroke-miterlimit:4;stroke-dasharray:none;stroke-dashoffset:37.7953;stroke-opacity:1;paint-order:stroke fill markers"
           d="m -216.81975,581.73226 v 0 a 5.3072247,5.3072247 0 0 1 -5.30721,5.30724 5.3072247,5.3072247 0 0 1 -5.30723,-5.30724" />
        <path
           id="path1696"
           style="fill:#80ffe6;fill-opacity:1;stroke:none;stroke-width:3.77953;stroke-linecap:round;stroke-linejoin:round;stroke-miterlimit:4;stroke-dasharray:none;stroke-dashoffset:37.7953;stroke-opacity:1;paint-order:stroke fill markers"
           d="m -212.99189,571.3191 a 5.3072247,5.3072247 0 0 0 -5.27,5.30586 5.3072247,5.3072247 0 0 0 5.30586,5.3081 v 5.10644 a 5.3072247,5.3072247 0 0 0 5.30811,-5.30587 5.3072247,5.3072247 0 0 0 -5.30811,-5.30809 v -5.10644 a 5.3072247,5.3072247 0 0 0 -0.0358,0 z" />
        <path
           style="color:#000000;font-style:normal;font-variant:normal;font-weight:normal;font-stretch:normal;font-size:medium;line-height:normal;font-family:sans-serif;font-variant-ligatures:normal;font-variant-position:normal;font-variant-caps:normal;font-variant-numeric:normal;font-variant-alternates:normal;font-variant-east-asian:normal;font-feature-settings:normal;font-variation-settings:normal;text-indent:0;text-align:start;text-decoration:none;text-decoration-line:none;text-decoration-style:solid;text-decoration-color:#000000;letter-spacing:normal;word-spacing:normal;text-transform:none;writing-mode:lr-tb;direction:ltr;text-orientation:mixed;dominant-baseline:auto;baseline-shift:baseline;text-anchor:start;white-space:normal;shape-padding:0;shape-margin:0;inline-size:0;clip-rule:nonzero;display:inline;overflow:visible;visibility:visible;opacity:1;isolation:auto;mix-blend-mode:normal;color-interpolation:sRGB;color-interpolation-filters:linearRGB;solid-color:#000000;solid-opacity:1;vector-effect:none;fill:#80ffe6;fill-opacity:1;fill-rule:nonzero;stroke:none;stroke-linecap:butt;stroke-linejoin:miter;stroke-miterlimit:4;stroke-dasharray:none;stroke-dashoffset:37.7953;stroke-opacity:1;paint-order:stroke fill markers;color-rendering:auto;image-rendering:auto;shape-rendering:auto;text-rendering:auto;enable-background:accumulate;stop-color:#000000;stop-opacity:1"
           d="m -306.46484,80.283203 c -15.99859,0 -28.9375,12.938916 -28.9375,28.937497 v 17.84571 c 0,15.99858 12.93891,28.9375 28.9375,28.9375 h 146.375 c 15.99858,0 28.93554,-12.93893 28.93554,-28.9375 V 109.2207 c 0,-15.998581 -12.93696,-28.937497 -28.93554,-28.937497 z m 0,3.78125 h 146.375 c 13.96985,0 25.15625,11.186402 25.15625,25.156247 v 17.84571 c 0,13.96984 -11.1864,25.1582 -25.15625,25.1582 h -146.375 c -13.96986,0 -25.15625,-11.18836 -25.15625,-25.1582 V 109.2207 c 0,-13.969844 11.18639,-25.156247 25.15625,-25.156247 z"
           id="rect1724" />
        <path
           style="color:#000000;font-style:normal;font-variant:normal;font-weight:normal;font-stretch:normal;font-size:medium;line-height:normal;font-family:sans-serif;font-variant-ligatures:normal;font-variant-position:normal;font-variant-caps:normal;font-variant-numeric:normal;font-variant-alternates:normal;font-variant-east-asian:normal;font-feature-settings:normal;font-variation-settings:normal;text-indent:0;text-align:start;text-decoration:none;text-decoration-line:none;text-decoration-style:solid;text-decoration-color:#000000;letter-spacing:normal;word-spacing:normal;text-transform:none;writing-mode:lr-tb;direction:ltr;text-orientation:mixed;dominant-baseline:auto;baseline-shift:baseline;text-anchor:start;white-space:normal;shape-padding:0;shape-margin:0;inline-size:0;clip-rule:nonzero;display:inline;overflow:visible;visibility:visible;opacity:1;isolation:auto;mix-blend-mode:normal;color-interpolation:sRGB;color-interpolation-filters:linearRGB;solid-color:#000000;solid-opacity:1;vector-effect:none;fill:#80ffe6;fill-opacity:1;fill-rule:nonzero;stroke:none;stroke-linecap:butt;stroke-linejoin:miter;stroke-miterlimit:4;stroke-dasharray:none;stroke-dashoffset:37.7953;stroke-opacity:1;paint-order:stroke fill markers;color-rendering:auto;image-rendering:auto;shape-rendering:auto;text-rendering:auto;enable-background:accumulate;stop-color:#000000;stop-opacity:1"
           d="m -305.07812,87.001953 c -13.08667,0 -23.65235,10.563723 -23.65235,23.650387 v 14.98243 c 0,13.08667 10.56568,23.65234 23.65235,23.65234 h 142.94531 c 13.08667,0 23.65039,-10.56567 23.65039,-23.65234 v -14.98243 c 0,-13.086664 -10.56372,-23.650387 -23.65039,-23.650387 z m 0,1.888672 h 142.94531 c 12.07243,0 21.76172,9.689291 21.76172,21.761715 v 14.98243 c 0,12.07243 -9.68929,21.76171 -21.76172,21.76171 h -142.94531 c -12.07244,0 -21.76172,-9.68928 -21.76172,-21.76171 v -14.98243 c 0,-12.072424 9.68928,-21.761715 21.76172,-21.761715 z"
           id="rect1726" />
        <path
           style="color:#000000;font-style:normal;font-variant:normal;font-weight:normal;font-stretch:normal;font-size:medium;line-height:normal;font-family:sans-serif;font-variant-ligatures:normal;font-variant-position:normal;font-variant-caps:normal;font-variant-numeric:normal;font-variant-alternates:normal;font-variant-east-asian:normal;font-feature-settings:normal;font-variation-settings:normal;text-indent:0;text-align:start;text-decoration:none;text-decoration-line:none;text-decoration-style:solid;text-decoration-color:#000000;letter-spacing:normal;word-spacing:normal;text-transform:none;writing-mode:lr-tb;direction:ltr;text-orientation:mixed;dominant-baseline:auto;baseline-shift:baseline;text-anchor:start;white-space:normal;shape-padding:0;shape-margin:0;inline-size:0;clip-rule:nonzero;display:inline;overflow:visible;visibility:visible;opacity:1;isolation:auto;mix-blend-mode:normal;color-interpolation:sRGB;color-interpolation-filters:linearRGB;solid-color:#000000;solid-opacity:1;vector-effect:none;fill:#80ffe6;fill-opacity:1;fill-rule:nonzero;stroke:none;stroke-linecap:butt;stroke-linejoin:miter;stroke-miterlimit:4;stroke-dasharray:none;stroke-dashoffset:37.7953;stroke-opacity:1;paint-order:stroke fill markers;color-rendering:auto;image-rendering:auto;shape-rendering:auto;text-rendering:auto;enable-background:accumulate;stop-color:#000000;stop-opacity:1"
           d="m -300.97852,95.966797 c -9.84767,0 -17.79101,7.943353 -17.79101,17.791013 v 11.42578 c 0,9.84767 7.94334,17.79102 17.79101,17.79102 h 136.63086 c 9.84767,0 17.79102,-7.94335 17.79102,-17.79102 v -11.42578 c 0,-9.84766 -7.94335,-17.791013 -17.79102,-17.791013 z m 0,0.945312 h 136.63086 c 9.34055,0 16.84571,7.505161 16.84571,16.845701 v 11.42578 c 0,9.34055 -7.50516,16.84571 -16.84571,16.84571 h -136.63086 c -9.34055,0 -16.8457,-7.50516 -16.8457,-16.84571 v -11.42578 c 0,-9.34054 7.50515,-16.845701 16.8457,-16.845701 z"
           id="rect1728" />
        <path
           style="color:#000000;font-style:normal;font-variant:normal;font-weight:normal;font-stretch:normal;font-size:medium;line-height:normal;font-family:sans-serif;font-variant-ligatures:normal;font-variant-position:normal;font-variant-caps:normal;font-variant-numeric:normal;font-variant-alternates:normal;font-variant-east-asian:normal;font-feature-settings:normal;font-variation-settings:normal;text-indent:0;text-align:start;text-decoration:none;text-decoration-line:none;text-decoration-style:solid;text-decoration-color:#000000;letter-spacing:normal;word-spacing:normal;text-transform:none;writing-mode:lr-tb;direction:ltr;text-orientation:mixed;dominant-baseline:auto;baseline-shift:baseline;text-anchor:start;white-space:normal;shape-padding:0;shape-margin:0;inline-size:0;clip-rule:nonzero;display:inline;overflow:visible;visibility:visible;opacity:1;isolation:auto;mix-blend-mode:normal;color-interpolation:sRGB;color-interpolation-filters:linearRGB;solid-color:#000000;solid-opacity:1;vector-effect:none;fill:#80ffe6;fill-opacity:1;fill-rule:nonzero;stroke:none;stroke-linecap:butt;stroke-linejoin:miter;stroke-miterlimit:4;stroke-dasharray:none;stroke-dashoffset:37.7953;stroke-opacity:1;paint-order:stroke fill markers;color-rendering:auto;image-rendering:auto;shape-rendering:auto;text-rendering:auto;enable-background:accumulate;stop-color:#000000;stop-opacity:1"
           d="m -252.80469,106.62695 c -7.08194,0 -12.84375,5.76181 -12.84375,12.84375 0,7.08194 5.76181,12.84375 12.84375,12.84375 7.08194,0 12.84375,-5.76181 12.84375,-12.84375 0,-7.08194 -5.76181,-12.84375 -12.84375,-12.84375 z m 0,1.89063 c 6.06064,0 10.95313,4.89249 10.95313,10.95312 0,6.06064 -4.89249,10.95313 -10.95313,10.95313 -6.06064,0 -10.95312,-4.89249 -10.95312,-10.95313 0,-6.06063 4.89248,-10.95312 10.95312,-10.95312 z"
           id="path1730" />
        <path
           style="color:#000000;font-style:normal;font-variant:normal;font-weight:normal;font-stretch:normal;font-size:medium;line-height:normal;font-family:sans-serif;font-variant-ligatures:normal;font-variant-position:normal;font-variant-caps:normal;font-variant-numeric:normal;font-variant-alternates:normal;font-variant-east-asian:normal;font-feature-settings:normal;font-variation-settings:normal;text-indent:0;text-align:start;text-decoration:none;text-decoration-line:none;text-decoration-style:solid;text-decoration-color:#000000;letter-spacing:normal;word-spacing:normal;text-transform:none;writing-mode:lr-tb;direction:ltr;text-orientation:mixed;dominant-baseline:auto;baseline-shift:baseline;text-anchor:start;white-space:normal;shape-padding:0;shape-margin:0;inline-size:0;clip-rule:nonzero;display:inline;overflow:visible;visibility:visible;opacity:1;isolation:auto;mix-blend-mode:normal;color-interpolation:sRGB;color-interpolation-filters:linearRGB;solid-color:#000000;solid-opacity:1;vector-effect:none;fill:#80ffe6;fill-opacity:1;fill-rule:nonzero;stroke:none;stroke-linecap:butt;stroke-linejoin:miter;stroke-miterlimit:4;stroke-dasharray:none;stroke-dashoffset:37.7953;stroke-opacity:1;paint-order:stroke fill markers;color-rendering:auto;image-rendering:auto;shape-rendering:auto;text-rendering:auto;enable-background:accumulate;stop-color:#000000;stop-opacity:1"
           d="m -297.28711,106.62695 c -7.08194,0 -12.84375,5.76181 -12.84375,12.84375 0,7.08194 5.76181,12.84375 12.84375,12.84375 7.08194,0 12.84375,-5.76181 12.84375,-12.84375 0,-7.08193 -5.76181,-12.84374 -12.84375,-12.84375 z m 0,1.89063 c 6.06063,0 10.95313,4.89249 10.95313,10.95312 0,6.06064 -4.8925,10.95312 -10.95313,10.95313 -6.06064,0 -10.95313,-4.89249 -10.95312,-10.95313 -10e-6,-6.06063 4.89248,-10.95312 10.95312,-10.95312 z"
           id="circle1732" />
        <path
           style="color:#000000;font-style:normal;font-variant:normal;font-weight:normal;font-stretch:normal;font-size:medium;line-height:normal;font-family:sans-serif;font-variant-ligatures:normal;font-variant-position:normal;font-variant-caps:normal;font-variant-numeric:normal;font-variant-alternates:normal;font-variant-east-asian:normal;font-feature-settings:normal;font-variation-settings:normal;text-indent:0;text-align:start;text-decoration:none;text-decoration-line:none;text-decoration-style:solid;text-decoration-color:#000000;letter-spacing:normal;word-spacing:normal;text-transform:none;writing-mode:lr-tb;direction:ltr;text-orientation:mixed;dominant-baseline:auto;baseline-shift:baseline;text-anchor:start;white-space:normal;shape-padding:0;shape-margin:0;inline-size:0;clip-rule:nonzero;display:inline;overflow:visible;visibility:visible;opacity:1;isolation:auto;mix-blend-mode:normal;color-interpolation:sRGB;color-interpolation-filters:linearRGB;solid-color:#000000;solid-opacity:1;vector-effect:none;fill:#80ffe6;fill-opacity:1;fill-rule:nonzero;stroke:none;stroke-linecap:butt;stroke-linejoin:miter;stroke-miterlimit:4;stroke-dasharray:none;stroke-dashoffset:37.7953;stroke-opacity:1;paint-order:stroke fill markers;color-rendering:auto;image-rendering:auto;shape-rendering:auto;text-rendering:auto;enable-background:accumulate;stop-color:#000000;stop-opacity:1"
           d="m -207.375,106.62695 c -7.08194,0 -12.84375,5.76181 -12.84375,12.84375 0,7.08194 5.76181,12.84375 12.84375,12.84375 7.08194,0 12.8418,-5.76181 12.8418,-12.84375 0,-7.08194 -5.75986,-12.84375 -12.8418,-12.84375 z m 0,1.89063 c 6.06064,0 10.95313,4.89249 10.95312,10.95312 10e-6,6.06064 -4.89248,10.95313 -10.95312,10.95313 -6.06064,0 -10.95508,-4.89249 -10.95508,-10.95313 0,-6.06063 4.89444,-10.95312 10.95508,-10.95312 z"
           id="circle1734" />
        <path
           style="color:#000000;font-style:normal;font-variant:normal;font-weight:normal;font-stretch:normal;font-size:medium;line-height:normal;font-family:sans-serif;font-variant-ligatures:normal;font-variant-position:normal;font-variant-caps:normal;font-variant-numeric:normal;font-variant-alternates:normal;font-variant-east-asian:normal;font-feature-settings:normal;font-variation-settings:normal;text-indent:0;text-align:start;text-decoration:none;text-decoration-line:none;text-decoration-style:solid;text-decoration-color:#000000;letter-spacing:normal;word-spacing:normal;text-transform:none;writing-mode:lr-tb;direction:ltr;text-orientation:mixed;dominant-baseline:auto;baseline-shift:baseline;text-anchor:start;white-space:normal;shape-padding:0;shape-margin:0;inline-size:0;clip-rule:nonzero;display:inline;overflow:visible;visibility:visible;opacity:1;isolation:auto;mix-blend-mode:normal;color-interpolation:sRGB;color-interpolation-filters:linearRGB;solid-color:#000000;solid-opacity:1;vector-effect:none;fill:#80ffe6;fill-opacity:1;fill-rule:nonzero;stroke:none;stroke-linecap:butt;stroke-linejoin:miter;stroke-miterlimit:4;stroke-dasharray:none;stroke-dashoffset:37.7953;stroke-opacity:1;paint-order:stroke fill markers;color-rendering:auto;image-rendering:auto;shape-rendering:auto;text-rendering:auto;enable-background:accumulate;stop-color:#000000;stop-opacity:1"
           d="m -207.375,112.875 c -3.62007,0 -6.5957,2.97563 -6.5957,6.5957 0,3.62008 2.97563,6.59571 6.5957,6.59571 3.62007,0 6.59375,-2.97563 6.59375,-6.59571 0,-3.62007 -2.97368,-6.5957 -6.59375,-6.5957 z m 0,3.7793 c 1.57747,0 2.81445,1.23894 2.81445,2.8164 0,1.57747 -1.23698,2.81641 -2.81445,2.81641 -1.57747,0 -2.81641,-1.23894 -2.81641,-2.81641 0,-1.57746 1.23894,-2.8164 2.81641,-2.8164 z"
           id="circle1736" />
        <path
           style="color:#000000;font-style:normal;font-variant:normal;font-weight:normal;font-stretch:normal;font-size:medium;line-height:normal;font-family:sans-serif;font-variant-ligatures:normal;font-variant-position:normal;font-variant-caps:normal;font-variant-numeric:normal;font-variant-alternates:normal;font-variant-east-asian:normal;font-feature-settings:normal;font-variation-settings:normal;text-indent:0;text-align:start;text-decoration:none;text-decoration-line:none;text-decoration-style:solid;text-decoration-color:#000000;letter-spacing:normal;word-spacing:normal;text-transform:none;writing-mode:lr-tb;direction:ltr;text-orientation:mixed;dominant-baseline:auto;baseline-shift:baseline;text-anchor:start;white-space:normal;shape-padding:0;shape-margin:0;inline-size:0;clip-rule:nonzero;display:inline;overflow:visible;visibility:visible;opacity:1;isolation:auto;mix-blend-mode:normal;color-interpolation:sRGB;color-interpolation-filters:linearRGB;solid-color:#000000;solid-opacity:1;vector-effect:none;fill:#80ffe6;fill-opacity:1;fill-rule:nonzero;stroke:none;stroke-linecap:butt;stroke-linejoin:miter;stroke-miterlimit:4;stroke-dasharray:none;stroke-dashoffset:37.7953;stroke-opacity:1;paint-order:stroke fill markers;color-rendering:auto;image-rendering:auto;shape-rendering:auto;text-rendering:auto;enable-background:accumulate;stop-color:#000000;stop-opacity:1"
           d="m -252.61523,112.875 c -3.62008,0 -6.59571,2.97563 -6.59571,6.5957 0,3.62008 2.97563,6.59571 6.59571,6.59571 3.62007,0 6.5957,-2.97563 6.5957,-6.59571 0,-3.62007 -2.97563,-6.5957 -6.5957,-6.5957 z m 0,3.7793 c 1.57746,0 2.8164,1.23894 2.8164,2.8164 0,1.57747 -1.23894,2.81641 -2.8164,2.81641 -1.57747,0 -2.81641,-1.23894 -2.81641,-2.81641 0,-1.57746 1.23894,-2.8164 2.81641,-2.8164 z"
           id="circle1738" />
        <path
           style="color:#000000;font-style:normal;font-variant:normal;font-weight:normal;font-stretch:normal;font-size:medium;line-height:normal;font-family:sans-serif;font-variant-ligatures:normal;font-variant-position:normal;font-variant-caps:normal;font-variant-numeric:normal;font-variant-alternates:normal;font-variant-east-asian:normal;font-feature-settings:normal;font-variation-settings:normal;text-indent:0;text-align:start;text-decoration:none;text-decoration-line:none;text-decoration-style:solid;text-decoration-color:#000000;letter-spacing:normal;word-spacing:normal;text-transform:none;writing-mode:lr-tb;direction:ltr;text-orientation:mixed;dominant-baseline:auto;baseline-shift:baseline;text-anchor:start;white-space:normal;shape-padding:0;shape-margin:0;inline-size:0;clip-rule:nonzero;display:inline;overflow:visible;visibility:visible;opacity:1;isolation:auto;mix-blend-mode:normal;color-interpolation:sRGB;color-interpolation-filters:linearRGB;solid-color:#000000;solid-opacity:1;vector-effect:none;fill:#80ffe6;fill-opacity:1;fill-rule:nonzero;stroke:none;stroke-linecap:butt;stroke-linejoin:miter;stroke-miterlimit:4;stroke-dasharray:none;stroke-dashoffset:37.7953;stroke-opacity:1;paint-order:stroke fill markers;color-rendering:auto;image-rendering:auto;shape-rendering:auto;text-rendering:auto;enable-background:accumulate;stop-color:#000000;stop-opacity:1"
           d="m -296.5293,112.875 c -3.62007,0 -6.5957,2.97563 -6.5957,6.5957 0,3.62008 2.97563,6.59571 6.5957,6.59571 3.62008,0 6.59571,-2.97563 6.59571,-6.59571 0,-3.62007 -2.97563,-6.5957 -6.59571,-6.5957 z m 0,3.7793 c 1.57747,0 2.81446,1.23894 2.81446,2.8164 0,1.57747 -1.23699,2.81641 -2.81446,2.81641 -1.57746,0 -2.8164,-1.23894 -2.8164,-2.81641 0,-1.57746 1.23894,-2.8164 2.8164,-2.8164 z"
           id="circle1740" />
        <path
           style="color:#000000;font-style:normal;font-variant:normal;font-weight:normal;font-stretch:normal;font-size:medium;line-height:normal;font-family:sans-serif;font-variant-ligatures:normal;font-variant-position:normal;font-variant-caps:normal;font-variant-numeric:normal;font-variant-alternates:normal;font-variant-east-asian:normal;font-feature-settings:normal;font-variation-settings:normal;text-indent:0;text-align:start;text-decoration:none;text-decoration-line:none;text-decoration-style:solid;text-decoration-color:#000000;letter-spacing:normal;word-spacing:normal;text-transform:none;writing-mode:lr-tb;direction:ltr;text-orientation:mixed;dominant-baseline:auto;baseline-shift:baseline;text-anchor:start;white-space:normal;shape-padding:0;shape-margin:0;inline-size:0;clip-rule:nonzero;display:inline;overflow:visible;visibility:visible;opacity:1;isolation:auto;mix-blend-mode:normal;color-interpolation:sRGB;color-interpolation-filters:linearRGB;solid-color:#000000;solid-opacity:1;vector-effect:none;fill:#80ffe6;fill-opacity:1;fill-rule:nonzero;stroke:none;stroke-linecap:butt;stroke-linejoin:miter;stroke-miterlimit:4;stroke-dasharray:none;stroke-dashoffset:37.7953;stroke-opacity:1;paint-order:stroke fill markers;color-rendering:auto;image-rendering:auto;shape-rendering:auto;text-rendering:auto;enable-background:accumulate;stop-color:#000000;stop-opacity:1"
           d="m -177.98242,111.87695 c -3.93071,0 -7.07227,3.35537 -7.07227,7.42578 v 3.96485 c 0,4.0704 3.14156,7.42773 7.07227,7.42773 3.9307,0 7.07031,-3.35733 7.07031,-7.42773 v -3.96485 c 0,-4.07041 -3.13961,-7.42578 -7.07031,-7.42578 z m 0,1.88867 c 2.85762,0 5.18164,2.42532 5.18164,5.53711 v 3.96485 c 0,3.11178 -2.32403,5.53711 -5.18164,5.53711 -2.85763,0 -5.18164,-2.42533 -5.18164,-5.53711 v -3.96485 c 0,-3.11179 2.32401,-5.53711 5.18164,-5.53711 z"
           id="rect1742" />
        <path
           style="color:#000000;font-style:normal;font-variant:normal;font-weight:normal;font-stretch:normal;font-size:medium;line-height:normal;font-family:sans-serif;font-variant-ligatures:normal;font-variant-position:normal;font-variant-caps:normal;font-variant-numeric:normal;font-variant-alternates:normal;font-variant-east-asian:normal;font-feature-settings:normal;font-variation-settings:normal;text-indent:0;text-align:start;text-decoration:none;text-decoration-line:none;text-decoration-style:solid;text-decoration-color:#000000;letter-spacing:normal;word-spacing:normal;text-transform:none;writing-mode:lr-tb;direction:ltr;text-orientation:mixed;dominant-baseline:auto;baseline-shift:baseline;text-anchor:start;white-space:normal;shape-padding:0;shape-margin:0;inline-size:0;clip-rule:nonzero;display:inline;overflow:visible;visibility:visible;opacity:1;isolation:auto;mix-blend-mode:normal;color-interpolation:sRGB;color-interpolation-filters:linearRGB;solid-color:#000000;solid-opacity:1;vector-effect:none;fill:#80ffe6;fill-opacity:1;fill-rule:nonzero;stroke:none;stroke-linecap:butt;stroke-linejoin:miter;stroke-miterlimit:4;stroke-dasharray:none;stroke-dashoffset:37.7953;stroke-opacity:1;paint-order:stroke fill markers;color-rendering:auto;image-rendering:auto;shape-rendering:auto;text-rendering:auto;enable-background:accumulate;stop-color:#000000;stop-opacity:1"
           d="m -160.33789,107.52734 c -3.84465,0 -6.95508,3.11043 -6.95508,6.95508 V 126.375 c 0,3.84465 3.11043,6.95312 6.95508,6.95312 3.84466,0 6.95312,-3.10847 6.95312,-6.95312 v -11.89258 c 0,-3.84465 -3.10846,-6.95508 -6.95312,-6.95508 z m 0,0.94532 c 3.33754,0 6.00977,2.67223 6.00977,6.00976 V 126.375 c 0,3.33753 -2.67223,6.00977 -6.00977,6.00977 -3.33753,0 -6.00977,-2.67224 -6.00977,-6.00977 v -11.89258 c 0,-3.33753 2.67224,-6.00976 6.00977,-6.00976 z"
           id="rect1744" />
        <path
           style="color:#000000;font-style:normal;font-variant:normal;font-weight:normal;font-stretch:normal;font-size:medium;line-height:normal;font-family:sans-serif;font-variant-ligatures:normal;font-variant-position:normal;font-variant-caps:normal;font-variant-numeric:normal;font-variant-alternates:normal;font-variant-east-asian:normal;font-feature-settings:normal;font-variation-settings:normal;text-indent:0;text-align:start;text-decoration:none;text-decoration-line:none;text-decoration-style:solid;text-decoration-color:#000000;letter-spacing:normal;word-spacing:normal;text-transform:none;writing-mode:lr-tb;direction:ltr;text-orientation:mixed;dominant-baseline:auto;baseline-shift:baseline;text-anchor:start;white-space:normal;shape-padding:0;shape-margin:0;inline-size:0;clip-rule:nonzero;display:inline;overflow:visible;visibility:visible;opacity:1;isolation:auto;mix-blend-mode:normal;color-interpolation:sRGB;color-interpolation-filters:linearRGB;solid-color:#000000;solid-opacity:1;vector-effect:none;fill:#80ffe6;fill-opacity:1;fill-rule:nonzero;stroke:none;stroke-linecap:butt;stroke-linejoin:miter;stroke-miterlimit:4;stroke-dasharray:none;stroke-dashoffset:37.7953;stroke-opacity:1;paint-order:stroke fill markers;color-rendering:auto;image-rendering:auto;shape-rendering:auto;text-rendering:auto;enable-background:accumulate;stop-color:#000000;stop-opacity:1"
           d="m -177.98242,116.67383 c -1.38728,0 -2.48633,1.19847 -2.48633,2.63086 v 3.96093 c 0,1.4324 1.09906,2.63086 2.48633,2.63086 1.38728,0 2.48437,-1.19847 2.48437,-2.63086 v -3.96093 c 0,-1.43239 -1.09709,-2.63086 -2.48437,-2.63086 z m 0,0.94531 c 0.84358,0 1.54101,0.72616 1.54101,1.68555 v 3.96093 c 0,0.9594 -0.69743,1.68555 -1.54101,1.68555 -0.84357,0 -1.54102,-0.72616 -1.54102,-1.68555 v -3.96093 c 0,-0.95939 0.69745,-1.68555 1.54102,-1.68555 z"
           id="rect1746" />
      </g>
    </g>
  </g>
</svg>
