<?xml version="1.0" encoding="UTF-8" standalone="no"?>
<svg
   xmlns:dc="http://purl.org/dc/elements/1.1/"
   xmlns:cc="http://creativecommons.org/ns#"
   xmlns:rdf="http://www.w3.org/1999/02/22-rdf-syntax-ns#"
   xmlns:svg="http://www.w3.org/2000/svg"
   xmlns="http://www.w3.org/2000/svg"
   width="15.072918mm"
   height="29.556574mm"
   viewBox="0 0 15.072918 29.556575"
   version="1.1"
   id="svg4830">
  <defs
     id="defs4824" />
  <metadata
     id="metadata4827">
    <rdf:RDF>
      <cc:Work
         rdf:about="">
        <dc:format>image/svg+xml</dc:format>
        <dc:type
           rdf:resource="http://purl.org/dc/dcmitype/StillImage" />
        <dc:title></dc:title>
      </cc:Work>
    </rdf:RDF>
  </metadata>
  <g
     id="layer1"
     transform="translate(-73.763412,-157.66915)">
    <path
       fill="none"
       stroke="#00b9d2"
       stroke-width="0.148461"
       stroke-linecap="round"
       stroke-linejoin="round"
       stroke-miterlimit="10"
       d="m 86.337412,187.15148 c 0.323054,-0.002 0.643437,-0.067 0.939469,-0.19703 0.281604,-0.12369 0.538571,-0.30299 0.750957,-0.52564 0.212678,-0.22294 0.381202,-0.48737 0.491745,-0.7751 0.103241,-0.26875 0.155711,-0.55461 0.15644,-0.84241 1.25e-4,-0.0526 0,-0.10523 0,-0.15783 0,-0.13323 0,-0.26647 0,-0.3997 0,-0.20628 0,-0.4126 0,-0.61887 0,-0.27182 0,-0.54362 0,-0.81544 0,-0.32975 0,-0.65955 0,-0.9893 0,-0.38125 0,-0.76254 0,-1.14379 0,-0.42197 0,-0.8439 0,-1.26586 0,-0.45964 0,-0.91927 0,-1.37891 0,-0.48484 0,-0.96967 0,-1.4545 0,-0.50769 0,-1.01543 0,-1.52313 0,-0.51758 0,-1.0352 0,-1.55278 0,-0.5255 0,-1.05102 0,-1.57649 0,-0.52025 0,-1.04045 0,-1.5607 0,-0.513 0,-1.02604 0,-1.53904 0,-0.49276 0,-0.98549 0,-1.47825 0,-0.47024 0,-0.94048 0,-1.41072 0,-0.43516 0,-0.87028 0,-1.30545 0,-0.39719 0,-0.79435 0,-1.19154 0,-0.34744 0,-0.69485 0,-1.04229 0,-0.29383 0,-0.58769 0,-0.88152 0,-0.22956 0,-0.45917 0,-0.68873 0,-0.16022 0,-0.32042 0,-0.48067 0,-0.0817 0,-0.16323 0,-0.24484 0,-0.18961 -0.01851,-0.37786 -0.06188,-0.56271 -0.06959,-0.29654 -0.197664,-0.57811 -0.374587,-0.826 -0.181167,-0.25386 -0.413868,-0.46986 -0.679528,-0.63308 -0.26643,-0.16373 -0.56623,-0.27291 -0.875501,-0.31915 -0.158977,-0.0238 -0.31792,-0.026 -0.478045,-0.026 -0.217812,0 -0.435665,0 -0.653485,0 -0.362922,0 -0.725844,0 -1.088774,0 -0.458828,0 -0.917613,0 -1.376449,0 -0.514053,0 -1.028114,0 -1.542125,0 -0.518474,0 -1.036898,0 -1.555364,0 -0.482844,0 -0.965679,0 -1.448522,0 -0.396727,0 -0.793463,0 -1.190232,0 -0.269311,0 -0.538621,0 -0.807924,0 -0.105493,0 -0.211071,-0.002 -0.316564,2.9e-4 -0.321229,0.005 -0.640674,0.0765 -0.933147,0.20955 -0.281352,0.12796 -0.536787,0.3121 -0.746845,0.53891 -0.208986,0.22566 -0.37297,0.49238 -0.479234,0.78107 -0.0956,0.25976 -0.143704,0.53489 -0.144298,0.81153 -1.26e-4,0.0559 0,0.11165 0,0.16747 0,0.13565 0,0.2713 0,0.40695 0,0.20937 0,0.41875 0,0.62812 0,0.27415 0,0.54825 0,0.82239 0,0.3318 0,0.66363 0,0.99541 0,0.38193 0,0.76386 0,1.14583 0,0.42451 0,0.84903 0,1.27354 0,0.45956 0,0.91906 0,1.37861 0,0.487 0,0.97404 0,1.46103 0,0.50834 0,1.01666 0,1.52495 0,0.51792 0,1.03584 0,1.5538 0,0.52555 0,1.05111 0,1.57666 0,0.52 0,1.03999 0,1.55999 0,0.51248 0,1.02498 0,1.53747 0,0.49195 0,0.98387 0,1.47582 0,0.46914 0,0.93828 0,1.40742 0,0.43376 0,0.86756 0,1.30133 0,0.39549 0,0.79104 0,1.18654 0,0.34549 0,0.69094 0,1.03643 0,0.29162 0,0.5832 0,0.87482 0,0.22706 0,0.45412 0,0.68118 0,0.15741 0,0.31483 0,0.47224 0,0.0785 0,0.15706 0,0.23559 0,0.20084 0.02185,0.40016 0.07084,0.59515 0.07419,0.29502 0.206658,0.57476 0.387525,0.81934 0.185413,0.25064 0.420952,0.46324 0.689241,0.62201 0.268206,0.15873 0.567595,0.26265 0.876347,0.30473 0.153342,0.0209 0.3066,0.0213 0.460787,0.0213 0.22405,0 0.448142,0 0.672184,0 0.367469,0 0.73493,0 1.10239,0 0.461633,0 0.923265,0 1.384848,0 0.515166,0 1.030283,0 1.545441,0 0.517829,0 1.035667,0 1.553496,0 0.480508,0 0.961015,0 1.441522,0 0.392699,0 0.785399,0 1.178098,0 0.263541,0 0.52704,0 0.790582,0 0.06414,0 0.12827,0 0.192405,0 0.01332,-4e-5 0.05661,-0.008 0.06816,-4e-5 z"
       id="path14275"
       style="stroke:#80ffe6;stroke-opacity:1" />
    <path
       fill="none"
       stroke="#00b9d2"
       stroke-width="0.0834739"
       stroke-linecap="round"
       stroke-linejoin="round"
       stroke-miterlimit="10"
       d="m 75.859688,160.85904 c 0.160266,0.12341 0.357059,0.19607 0.559232,0.2052 0.203175,0.008 0.407016,-0.0455 0.578355,-0.15495 0.171283,-0.10963 0.306217,-0.27195 0.382933,-0.46031 0.07622,-0.18729 0.09304,-0.3967 0.04785,-0.59379 -0.04525,-0.19705 -0.15168,-0.37822 -0.301969,-0.51349 -0.151171,-0.13606 -0.343376,-0.2233 -0.545343,-0.24724 -0.202005,-0.0241 -0.409233,0.0159 -0.588074,0.11273 -0.177755,0.0963 -0.323668,0.24758 -0.413784,0.42854 -0.09013,0.18102 -0.122785,0.38857 -0.09246,0.58848 0.03051,0.2011 0.123666,0.39045 0.264533,0.53717 0.03376,0.0351 0.0702,0.0677 0.108768,0.0976 z"
       id="path14237"
       style="stroke:#80ffe6;stroke-opacity:1" />
    <path
       fill="none"
       stroke="#00b9d2"
       stroke-width="0.0848353"
       stroke-linecap="round"
       stroke-linejoin="round"
       stroke-miterlimit="10"
       d="m 86.337412,186.88837 c 0.311775,-0.003 0.619128,-0.07 0.900522,-0.20556 0.279326,-0.1345 0.527426,-0.33214 0.720887,-0.57438 0.193385,-0.24211 0.331495,-0.52734 0.400972,-0.8293 0.0376,-0.16327 0.05309,-0.32929 0.05309,-0.49658 0,-0.0803 0,-0.16059 0,-0.24089 0,-0.15564 0,-0.31122 0,-0.46681 0,-0.22218 0,-0.44432 0,-0.66651 0,-0.28237 0,-0.56474 0,-0.84712 0,-0.33756 0,-0.67511 0,-1.01263 0,-0.38197 0,-0.76394 0,-1.14591 0,-0.42108 0,-0.8422 0,-1.26327 0,-0.45578 0,-0.91156 0,-1.36733 0,-0.47843 0,-0.95681 0,-1.43524 0,-0.49785 0,-0.99567 0,-1.49353 0,-0.50892 0,-1.0178 0,-1.52673 0,-0.51151 0,-1.02298 0,-1.53445 0,-0.50986 0,-1.01968 0,-1.52954 0,-0.49971 0,-0.99944 0,-1.49911 0,-0.48123 0,-0.96242 0,-1.44364 0,-0.45951 0,-0.91907 0,-1.37857 0,-0.42574 0,-0.85149 0,-1.27728 0,-0.38757 0,-0.77513 0,-1.16271 0,-0.34408 0,-0.68822 0,-1.0323 0,-0.28985 0,-0.57968 0,-0.86949 0,-0.23053 0,-0.46112 0,-0.69166 0,-0.16495 0,-0.32996 0,-0.49492 0,-0.0906 0,-0.18108 0,-0.27164 0,-0.13434 -0.0075,-0.26804 -0.03014,-0.40068 -0.05267,-0.30536 -0.174084,-0.598 -0.353803,-0.85052 -0.17879,-0.25119 -0.413408,-0.46188 -0.683137,-0.61144 -0.271773,-0.15071 -0.576539,-0.24004 -0.886906,-0.2579 -0.113809,-0.007 -0.228422,-0.003 -0.342356,-0.003 -0.243009,0 -0.486059,0 -0.729068,0 -0.374377,0 -0.748755,0 -1.123174,0 -0.459212,0 -0.918425,0 -1.377637,0 -0.503536,0 -1.007079,0 -1.510615,0 -0.508375,0 -1.016709,0 -1.525076,0 -0.465158,0 -0.930349,0 -1.395499,0 -0.383496,0 -0.766951,0 -1.150447,0 -0.257855,0 -0.515669,0 -0.773524,0 -0.101717,0 -0.203518,-0.002 -0.305235,2.9e-4 -0.310669,0.005 -0.619253,0.0815 -0.896837,0.22104 -0.276898,0.1393 -0.521732,0.34112 -0.710872,0.58672 -0.188545,0.24483 -0.321614,0.53132 -0.386042,0.83363 -0.03299,0.15461 -0.04589,0.31122 -0.04589,0.46901 0,0.0833 0,0.16657 0,0.24988 0,0.15729 0,0.31458 0,0.47189 0,0.22571 0,0.45137 0,0.67708 0,0.28458 0,0.56911 0,0.85369 0,0.33849 0,0.67695 0,1.01543 0,0.3846 0,0.76925 0,1.15385 0,0.42248 0,0.84491 0,1.26739 0,0.45561 0,0.91117 0,1.36677 0,0.48055 0,0.96106 0,1.44161 0,0.497 0,0.99401 0,1.49102 0,0.51058 0,1.02115 0,1.53173 0,0.51152 0,1.02303 0,1.5345 0,0.50821 0,1.01636 0,1.52457 0,0.50057 0,1.00114 0,1.50171 0,0.48042 0,0.96079 0,1.44122 0,0.45603 0,0.91202 0,1.36805 0,0.42684 0,0.85369 0,1.28054 0,0.38596 0,0.77187 0,1.15782 0,0.34134 0,0.68267 0,1.02401 0,0.28853 0,0.57709 0,0.86562 0,0.22812 0,0.45624 0,0.68436 0,0.16225 0,0.32453 0,0.48678 0,0.0875 0,0.17514 0,0.26269 0,0.14355 0.0093,0.28628 0.03601,0.42761 0.05778,0.30533 0.1843,0.59669 0.368901,0.84679 0.183119,0.24806 0.421329,0.45467 0.693613,0.59956 0.272442,0.14499 0.575307,0.228 0.883598,0.24221 0.110962,0.005 0.22261,0.003 0.333656,0.003 0.24882,0 0.497598,0 0.746418,0 0.377392,0 0.754733,0 1.132125,0 0.462906,0 0.925761,0 1.388666,0 0.50439,0 1.008813,0 1.513202,0 0.507572,0 1.015177,0 1.522748,0 0.462771,0 0.925509,0 1.388281,0 0.378531,0 0.75707,0 1.1356,0 0.253024,0 0.506081,0 0.759105,0 0.0613,0 0.122543,0 0.183839,0 0.01256,5e-5 0.05393,-0.008 0.06507,5e-5 z"
       id="path14243"
       style="stroke:#80ffe6;stroke-opacity:1" />
    <path
       fill="none"
       stroke="#00b9d2"
       stroke-width="0.116648"
       stroke-linecap="round"
       stroke-linejoin="round"
       stroke-miterlimit="10"
       d="m 73.826111,161.73758 c 0.01708,0 0.08768,-0.0102 0.09744,5.9e-4 0.005,0.005 0,0.0363 0,0.0428 0,0.0774 0,0.1547 0,0.23207 0,0.21281 0,0.42561 0,0.63838 0,0.0527 0,0.10536 0,0.15805 0,-0.004 -0.09184,0.006 -0.09744,-5.9e-4 -0.005,-0.005 0,-0.0363 0,-0.0428 0,-0.0774 0,-0.1547 0,-0.23208 0,-0.2128 0,-0.42561 0,-0.63837 0,-0.0527 0,-0.10537 0,-0.15805 z"
       id="path14265"
       style="stroke:#80ffe6;stroke-opacity:1" />
    <path
       fill="none"
       stroke="#00b9d2"
       stroke-width="0.116648"
       stroke-linecap="round"
       stroke-linejoin="round"
       stroke-miterlimit="10"
       d="m 73.826111,163.76793 c 0.01599,0 0.0881,-0.0103 0.09744,4e-5 0.0017,0.003 -3.85e-4,0.0136 0,0.0165 0.005,0.0368 0,0.0775 0,0.11457 0,0.15491 0,0.30981 0,0.46476 0,0.38358 0,0.76721 0,1.15079 0,0.0601 0,0.12025 0,0.1804 0,0.0166 0.0097,0.072 0,0.0862 -0.0067,0.01 -0.09141,0.009 -0.09744,-8.4e-4 -0.0098,-0.0163 0,-0.0687 0,-0.0872 0,-0.34502 0,-0.69004 0,-1.03507 0,-0.29174 0,-0.58349 0,-0.87524 0,-0.005 0,-0.01 0,-0.0148 z"
       id="path14267"
       style="stroke:#80ffe6;stroke-opacity:1" />
    <path
       fill="none"
       stroke="#00b9d2"
       stroke-width="0.116648"
       stroke-linecap="round"
       stroke-linejoin="round"
       stroke-miterlimit="10"
       d="m 73.826111,166.30136 c 0.01599,0 0.0881,-0.0103 0.09744,4e-5 0.0017,0.003 -3.85e-4,0.0136 0,0.0165 0.005,0.0368 0,0.0776 0,0.11457 0,0.1549 0,0.30981 0,0.46476 0,0.38358 0,0.76721 0,1.15079 0,0.0601 0,0.12026 0,0.1804 0,0.0166 0.0097,0.072 0,0.0862 -0.0067,0.01 -0.09141,0.009 -0.09744,-8.4e-4 -0.0098,-0.0163 0,-0.0687 0,-0.0872 0,-0.34502 0,-0.69004 0,-1.03506 0,-0.29176 0,-0.5835 0,-0.87525 0,-0.005 0,-0.01 0,-0.0148 z"
       id="path14269"
       style="stroke:#80ffe6;stroke-opacity:1" />
    <path
       fill="none"
       stroke="#00b9d2"
       stroke-width="0.116648"
       stroke-linecap="round"
       stroke-linejoin="round"
       stroke-miterlimit="10"
       d="m 88.676023,164.43694 c 0.01959,0 0.08844,-0.01 0.09743,0.003 0.0042,0.007 0,0.0329 0,0.0408 0,0.0672 0,0.1345 0,0.20174 0,0.25081 0,0.50167 0,0.75248 0,0.31949 0,0.63898 0,0.95847 0,0.28017 0,0.56038 0,0.84054 0,0.0934 0,0.18681 0,0.28022 0,0.0288 0,0.0577 0,0.0866 0,0.01 0.005,0.0366 0,0.0454 -0.0067,0.0116 -0.07218,0.0121 -0.08767,0.006 -0.01365,-0.006 -0.0088,-5.5e-4 -0.0098,-0.0188 -0.0033,-0.0544 0,-0.1099 0,-0.16442 0,-0.23541 0,-0.47083 0,-0.70624 0,-0.3169 0,-0.6338 0,-0.95071 0,-0.29043 0,-0.5809 0,-0.87134 0,-0.16047 0,-0.32093 0,-0.48144 0,-0.008 0,-0.015 0,-0.0225 z"
       id="path14271"
       style="stroke:#80ffe6;stroke-opacity:1" />
    <path
       fill="none"
       stroke="#00b9d2"
       stroke-width="0.116648"
       stroke-linecap="round"
       stroke-linejoin="round"
       stroke-miterlimit="10"
       d="m 86.337412,187.15148 c 0.312704,-0.003 0.621548,-0.0625 0.910027,-0.18439 0.289542,-0.12238 0.553376,-0.30333 0.771791,-0.52941 0.218406,-0.22609 0.390153,-0.49603 0.502471,-0.7896 0.102103,-0.26689 0.153091,-0.55058 0.15428,-0.83614 2.09e-4,-0.0503 0,-0.10061 0,-0.15096 0,-0.13162 0,-0.2632 0,-0.39483 0,-0.20526 0,-0.41051 0,-0.61577 0,-0.2713 0,-0.54256 0,-0.81387 0,-0.32971 0,-0.65942 0,-0.98909 0,-0.37942 0,-0.75885 0,-1.13827 0,-0.42239 0,-0.84483 0,-1.26722 0,-0.45913 0,-0.91826 0,-1.37735 0,-0.48712 0,-0.97424 0,-1.46136 0,-0.50753 0,-1.01506 0,-1.52258 0,-0.51889 0,-1.03782 0,-1.55672 0,-0.52407 0,-1.04818 0,-1.57225 0,-0.52309 0,-1.04619 0,-1.56927 0,-0.51309 0,-1.02618 0,-1.53926 0,-0.49548 0,-0.99095 0,-1.48639 0,-0.46901 0,-0.93802 0,-1.40708 0,-0.43638 0,-0.87273 0,-1.30913 0,-0.39719 0,-0.79435 0,-1.19154 0,-0.34918 0,-0.69832 0,-1.0475 0,-0.29353 0,-0.58707 0,-0.8806 0,-0.22972 0,-0.4595 0,-0.68924 0,-0.15928 0,-0.3186 0,-0.47787 0,-0.0814 0,-0.16276 0,-0.24415 0,-0.18223 -0.01717,-0.36327 -0.05728,-0.54125 -0.06858,-0.30409 -0.198385,-0.59381 -0.379887,-0.84725 -0.181461,-0.25344 -0.413911,-0.46977 -0.679746,-0.63257 -0.265995,-0.16293 -0.56402,-0.27152 -0.872445,-0.31822 -0.157495,-0.0239 -0.315115,-0.0263 -0.4738,-0.0263 -0.216756,0 -0.433463,0 -0.650219,0 -0.361607,0 -0.723215,0 -1.084872,0 -0.460653,0 -0.921348,0 -1.382001,0 -0.511046,0 -1.022135,0 -1.533181,0 -0.521355,0 -1.04271,0 -1.564065,0 -0.483178,0 -0.966357,0 -1.449485,0 -0.399155,0 -0.798303,0 -1.19745,0 -0.26931,0 -0.538621,0 -0.807924,0 -0.106682,0 -0.213449,-0.002 -0.320131,3.3e-4 -0.310921,0.005 -0.619672,0.073 -0.904299,0.19822 -0.28682,0.12619 -0.547096,0.31083 -0.761642,0.53912 -0.215442,0.22918 -0.38363,0.5021 -0.491577,0.79754 -0.0943,0.25815 -0.141384,0.53077 -0.142397,0.80542 -2.1e-4,0.0535 0,0.10698 0,0.16047 0,0.1345 0,0.26905 0,0.40356 0,0.20789 0,0.41574 0,0.62362 0,0.27364 0,0.54723 0,0.82087 0,0.33174 0,0.66349 0,0.99523 0,0.38011 0,0.76021 0,1.14028 0,0.42498 0,0.84996 0,1.2749 0,0.46031 0,0.92062 0,1.38094 0,0.48805 0,0.97607 0,1.46412 0,0.50817 0,1.01629 0,1.52444 0,0.51784 0,1.03567 0,1.55351 0,0.52555 0,1.05106 0,1.57662 0,0.52283 0,1.04571 0,1.56855 0,0.51258 0,1.02515 0,1.53768 0,0.49467 0,0.9893 0,1.48397 0,0.46791 0,0.93586 0,1.40377 0,0.43499 0,0.86998 0,1.30498 0,0.39549 0,0.79104 0,1.18654 0,0.34719 0,0.69442 0,1.04161 0,0.29127 0,0.58256 0,0.87384 0,0.22722 0,0.45446 0,0.68169 0,0.15648 0,0.31295 0,0.46944 0,0.0783 0,0.15655 0,0.23486 0,0.19211 0.01993,0.38303 0.06506,0.56996 0.07344,0.30456 0.208191,0.59385 0.394952,0.84547 0.185154,0.24946 0.41968,0.46087 0.686864,0.61943 0.267745,0.15885 0.567637,0.26307 0.876095,0.30502 0.151475,0.0206 0.302857,0.0214 0.455227,0.0214 0.223029,0 0.446057,0 0.669044,0 0.366196,0 0.732342,0 1.09853,0 0.4635,0 0.926991,0 1.390491,0 0.512152,0 1.024338,0 1.53649,0 0.52076,0 1.04152,0 1.56228,0 0.480843,0 0.961693,0 1.442535,0 0.395078,0 0.790197,0 1.185274,0 0.263542,0 0.527033,0 0.790574,0 0.06414,0 0.12827,0 0.192405,0 0.01315,-4e-5 0.05644,-0.008 0.06808,-4e-5 z"
       id="path14273"
       style="stroke:#80ffe6;stroke-opacity:1" />
    <path
       fill="none"
       stroke="#00b9d2"
       stroke-width="0.287577"
       stroke-linecap="round"
       stroke-linejoin="round"
       stroke-miterlimit="10"
       d="m 80.184231,160.15093 c -9.7e-5,-0.19783 -0.127824,-0.3791 -0.313939,-0.44583 -0.186192,-0.0667 -0.400011,-0.008 -0.525579,0.14514 -0.125489,0.15273 -0.142027,0.3741 -0.04027,0.54379 0.101559,0.16966 0.304308,0.25973 0.498361,0.22119 0.193196,-0.0383 0.346079,-0.1979 0.375924,-0.39266 0.0039,-0.0237 0.0059,-0.0479 0.0059,-0.0718 z"
       id="path14309"
       style="stroke:#80ffe6;stroke-width:0.0753645;stroke-miterlimit:10;stroke-dasharray:none;stroke-opacity:1" />
    <path
       fill="none"
       stroke="#00b9d2"
       stroke-width="0.104976"
       stroke-linecap="round"
       stroke-linejoin="round"
       stroke-miterlimit="10"
       d="m 75.7193,161.06442 c 0.20155,0.15521 0.449036,0.24659 0.703286,0.25808 0.255509,0.0116 0.511858,-0.057 0.727331,-0.19488 0.215405,-0.13789 0.385095,-0.342 0.481573,-0.57889 0.09586,-0.23552 0.117002,-0.49889 0.06017,-0.74676 -0.05691,-0.24779 -0.190752,-0.47564 -0.379754,-0.64575 -0.190109,-0.17111 -0.431823,-0.28082 -0.685816,-0.31094 -0.254039,-0.0302 -0.514645,0.0199 -0.739553,0.14177 -0.223545,0.12109 -0.407043,0.31136 -0.520372,0.53894 -0.113353,0.22765 -0.154414,0.48867 -0.116267,0.74008 0.03837,0.2529 0.155521,0.49103 0.332674,0.67553 0.04245,0.0442 0.08828,0.0851 0.136781,0.12282 z"
       id="path14311"
       style="stroke:#80ffe6;stroke-opacity:1" />
  </g>
</svg>
