<?xml version="1.0" encoding="UTF-8" standalone="no"?>
<svg
   xmlns:dc="http://purl.org/dc/elements/1.1/"
   xmlns:cc="http://creativecommons.org/ns#"
   xmlns:rdf="http://www.w3.org/1999/02/22-rdf-syntax-ns#"
   xmlns:svg="http://www.w3.org/2000/svg"
   xmlns="http://www.w3.org/2000/svg"
   xmlns:sodipodi="http://sodipodi.sourceforge.net/DTD/sodipodi-0.dtd"
   xmlns:inkscape="http://www.inkscape.org/namespaces/inkscape"
   width="15mm"
   height="31.090599mm"
   viewBox="0 0 15.000001 31.090601"
   version="1.1"
   id="svg4830"
   inkscape:version="1.0.2 (e86c8708, 2021-01-15)"
   sodipodi:docname="s10.svg">
  <defs
     id="defs4824" />
  <sodipodi:namedview
     id="base"
     pagecolor="#ffffff"
     bordercolor="#666666"
     borderopacity="1.0"
     inkscape:pageopacity="0.0"
     inkscape:pageshadow="2"
     inkscape:zoom="3.8813991"
     inkscape:cx="63.725187"
     inkscape:cy="81.92097"
     inkscape:document-units="mm"
     inkscape:current-layer="layer1"
     inkscape:document-rotation="0"
     showgrid="false"
     inkscape:window-width="1440"
     inkscape:window-height="872"
     inkscape:window-x="0"
     inkscape:window-y="28"
     inkscape:window-maximized="0" />
  <metadata
     id="metadata4827">
    <rdf:RDF>
      <cc:Work
         rdf:about="">
        <dc:format>image/svg+xml</dc:format>
        <dc:type
           rdf:resource="http://purl.org/dc/dcmitype/StillImage" />
        <dc:title></dc:title>
      </cc:Work>
    </rdf:RDF>
  </metadata>
  <g
     inkscape:label="Layer 1"
     inkscape:groupmode="layer"
     id="layer1"
     transform="translate(-66.780112,-121.57875)">
    <g
       id="g28435"
       transform="matrix(0.05161379,0,0,0.05161379,42.171173,117.04221)"
       style="stroke:#80ffe6;stroke-opacity:1">
      <polygon
         fill="none"
         stroke="#00b9d2"
         stroke-width="2"
         stroke-linecap="round"
         stroke-linejoin="round"
         stroke-miterlimit="10"
         points="702.814,167.966 703.006,168.096 703.195,168.229 703.383,168.366 703.567,168.505 703.75,168.648 703.93,168.794 704.107,168.943 704.282,169.095 704.454,169.251 704.623,169.409 704.79,169.57 704.953,169.733 705.114,169.9 705.273,170.069 705.428,170.241 705.58,170.416 705.729,170.593 705.875,170.773 706.018,170.956 706.157,171.14 706.294,171.328 706.427,171.517 706.557,171.709 706.684,171.903 706.807,172.099 706.927,172.297 707.043,172.498 707.156,172.7 707.266,172.904 707.371,173.11 707.474,173.318 707.572,173.528 707.668,173.739 707.759,173.952 707.847,174.166 707.931,174.382 708.011,174.599 708.087,174.818 708.16,175.038 708.229,175.259 708.294,175.481 708.355,175.705 708.413,175.929 708.466,176.155 708.516,176.381 708.562,176.608 708.603,176.836 708.641,177.064 708.675,177.294 708.705,177.523 708.731,177.754 708.753,177.984 708.771,178.215 708.785,178.446 708.795,178.678 708.801,178.909 708.803,179.141 708.803,193.066 708.801,193.298 708.795,193.529 708.785,193.761 708.771,193.992 708.753,194.223 708.731,194.454 708.705,194.684 708.675,194.914 708.641,195.143 708.603,195.371 708.562,195.599 708.516,195.826 708.466,196.053 708.413,196.278 708.355,196.502 708.294,196.726 708.229,196.948 708.16,197.169 708.087,197.389 708.011,197.608 707.931,197.825 707.847,198.041 707.759,198.255 707.668,198.468 707.572,198.68 707.474,198.889 707.371,199.097 707.266,199.303 707.156,199.507 707.043,199.71 706.927,199.91 706.807,200.108 706.684,200.304 706.557,200.498 706.427,200.69 706.294,200.88 706.157,201.067 706.018,201.252 705.875,201.434 705.729,201.614 705.58,201.791 705.428,201.966 705.273,202.138 705.114,202.307 704.953,202.474 704.79,202.638 704.623,202.799 704.454,202.957 704.282,203.112 704.107,203.264 703.93,203.413 703.75,203.559 703.567,203.702 703.383,203.842 703.195,203.978 703.006,204.111 702.814,204.241 702.62,204.368 702.424,204.491 702.226,204.611 702.025,204.727 701.823,204.84 701.619,204.95 701.413,205.056 701.205,205.158 700.995,205.257 700.784,205.352 700.571,205.443 700.357,205.531 700.141,205.615 699.924,205.695 699.705,205.772 699.485,205.844 699.264,205.913 699.042,205.978 698.818,206.04 698.594,206.097 698.368,206.15 698.142,206.2 697.915,206.246 697.687,206.288 697.459,206.325 697.229,206.359 697,206.389 696.769,206.415 696.539,206.437 696.308,206.455 696.077,206.469 695.845,206.479 695.614,206.485 695.382,206.487 548.818,206.487 548.586,206.485 548.355,206.479 548.123,206.469 547.892,206.455 547.661,206.437 547.43,206.415 547.2,206.389 546.97,206.359 546.741,206.325 546.513,206.288 546.285,206.246 546.058,206.2 545.831,206.15 545.606,206.097 545.382,206.04 545.158,205.978 544.936,205.913 544.715,205.844 544.495,205.772 544.276,205.695 544.059,205.615 543.843,205.531 543.628,205.443 543.416,205.352 543.204,205.257 542.995,205.158 542.787,205.056 542.581,204.95 542.377,204.84 542.174,204.727 541.974,204.611 541.776,204.491 541.58,204.368 541.386,204.241 541.194,204.111 541.004,203.978 540.817,203.842 540.632,203.702 540.45,203.559 540.27,203.413 540.093,203.264 539.918,203.112 539.746,202.957 539.577,202.799 539.41,202.638 539.246,202.474 539.085,202.307 538.927,202.138 538.772,201.966 538.62,201.791 538.471,201.614 538.325,201.434 538.182,201.252 538.042,201.067 537.906,200.88 537.773,200.69 537.643,200.498 537.516,200.304 537.393,200.108 537.273,199.91 537.157,199.71 537.044,199.507 536.934,199.303 536.828,199.097 536.726,198.889 536.627,198.68 536.532,198.468 536.441,198.255 536.353,198.041 536.269,197.825 536.189,197.608 536.112,197.389 536.04,197.169 535.971,196.948 535.906,196.726 535.844,196.502 535.787,196.278 535.733,196.053 535.684,195.826 535.638,195.599 535.596,195.371 535.559,195.143 535.525,194.914 535.495,194.684 535.469,194.454 535.447,194.223 535.429,193.992 535.415,193.761 535.405,193.529 535.399,193.298 535.397,193.066 535.397,179.141 535.399,178.909 535.405,178.678 535.415,178.446 535.429,178.215 535.447,177.984 535.469,177.754 535.495,177.523 535.525,177.294 535.559,177.064 535.596,176.836 535.638,176.608 535.684,176.381 535.733,176.155 535.787,175.929 535.844,175.705 535.906,175.481 535.971,175.259 536.04,175.038 536.112,174.818 536.189,174.599 536.269,174.382 536.353,174.166 536.441,173.952 536.532,173.739 536.627,173.528 536.726,173.318 536.828,173.11 536.934,172.904 537.044,172.7 537.157,172.498 537.273,172.297 537.393,172.099 537.516,171.903 537.643,171.709 537.773,171.517 537.906,171.328 538.042,171.14 538.182,170.956 538.325,170.773 538.471,170.593 538.62,170.416 538.772,170.241 538.927,170.069 539.085,169.9 539.246,169.733 539.41,169.57 539.577,169.409 539.746,169.251 539.918,169.095 540.093,168.943 540.27,168.794 540.45,168.648 540.632,168.505 540.817,168.366 541.004,168.229 541.194,168.096 541.386,167.966 541.58,167.839 541.776,167.716 541.974,167.596 542.174,167.48 542.377,167.367 542.581,167.258 542.787,167.152 542.995,167.049 543.204,166.951 543.416,166.856 543.628,166.764 543.843,166.676 544.059,166.592 544.276,166.512 544.495,166.436 544.715,166.363 544.936,166.294 545.158,166.229 545.382,166.168 545.606,166.11 545.831,166.057 546.058,166.007 546.285,165.961 546.513,165.92 546.741,165.882 546.97,165.848 547.2,165.818 547.43,165.792 547.661,165.77 547.892,165.752 548.123,165.738 548.355,165.728 548.586,165.722 548.818,165.72 695.382,165.72 695.614,165.722 695.845,165.728 696.077,165.738 696.308,165.752 696.539,165.77 696.769,165.792 697,165.818 697.229,165.848 697.459,165.882 697.687,165.92 697.915,165.961 698.142,166.007 698.368,166.057 698.594,166.11 698.818,166.168 699.042,166.229 699.264,166.294 699.485,166.363 699.705,166.436 699.924,166.512 700.141,166.592 700.357,166.676 700.571,166.764 700.784,166.856 700.995,166.951 701.205,167.049 701.413,167.152 701.619,167.258 701.823,167.367 702.025,167.48 702.226,167.596 702.424,167.716 702.62,167.839 "
         id="polygon27589"
         style="stroke:#80ffe6;stroke-opacity:1" />
      <path
         fill="none"
         stroke="#00b9d2"
         stroke-width="2.75"
         stroke-linecap="round"
         stroke-linejoin="round"
         stroke-miterlimit="10"
         d="m 562.495,186.104 c 0.01,-2.556 -1.765,-4.837 -4.245,-5.454 -3.574,-0.901 -7.035,1.818 -7.007,5.503 0.035,3.645 3.473,6.297 7.007,5.405 2.48,-0.618 4.255,-2.898 4.245,-5.454 z"
         id="path27602"
         style="stroke:#80ffe6;stroke-opacity:1" />
      <path
         fill="none"
         stroke="#00b9d2"
         stroke-width="2.75"
         stroke-linecap="round"
         stroke-linejoin="round"
         stroke-miterlimit="10"
         d="m 653.452,186.104 c 0.011,-3.694 -2.541,-6.974 -6.125,-7.869 -5.102,-1.284 -10.057,2.538 -10.11,7.799 -0.038,5.32 4.951,9.238 10.11,7.94 3.584,-0.897 6.137,-4.177 6.125,-7.87 z"
         id="path27605"
         style="stroke:#80ffe6;stroke-opacity:1" />
      <path
         fill="none"
         stroke="#00b9d2"
         stroke-width="2.75"
         stroke-linecap="round"
         stroke-linejoin="round"
         stroke-miterlimit="10"
         d="m 609.132,186.104 c 0.011,-3.471 -2.388,-6.553 -5.755,-7.394 -4.794,-1.207 -9.45,2.385 -9.5,7.328 -0.036,4.999 4.652,8.68 9.5,7.461 3.367,-0.842 5.766,-3.925 5.755,-7.395 z"
         id="path27608"
         style="stroke:#80ffe6;stroke-opacity:1" />
      <polygon
         fill="none"
         stroke="#00b9d2"
         stroke-width="2.75"
         stroke-linecap="round"
         stroke-linejoin="round"
         stroke-miterlimit="10"
         points="550.635,193.864 550.562,193.814 550.489,193.764 550.418,193.711 550.347,193.658 550.278,193.604 550.209,193.548 550.141,193.491 550.074,193.433 550.009,193.374 549.944,193.313 549.88,193.252 549.818,193.189 549.756,193.126 549.696,193.061 549.637,192.995 549.579,192.928 549.522,192.861 549.466,192.792 549.411,192.722 549.358,192.652 549.306,192.58 549.255,192.508 549.206,192.435 549.157,192.361 549.11,192.286 549.064,192.21 549.02,192.134 548.977,192.056 548.935,191.978 548.894,191.9 548.855,191.82 548.818,191.74 548.781,191.66 548.747,191.578 548.713,191.496 548.681,191.414 548.65,191.331 548.621,191.247 548.593,191.163 548.567,191.079 548.542,190.994 548.519,190.909 548.497,190.823 548.476,190.737 548.457,190.651 548.44,190.564 548.424,190.477 548.41,190.39 548.397,190.302 548.385,190.214 548.375,190.126 548.367,190.038 548.36,189.95 548.355,189.862 548.351,189.773 548.349,189.685 548.348,189.597 548.348,182.611 548.349,182.522 548.351,182.434 548.355,182.345 548.36,182.257 548.367,182.169 548.375,182.081 548.385,181.993 548.397,181.905 548.41,181.818 548.424,181.73 548.44,181.643 548.457,181.557 548.476,181.47 548.497,181.384 548.519,181.298 548.542,181.213 548.567,181.128 548.593,181.044 548.621,180.96 548.65,180.876 548.681,180.793 548.713,180.711 548.747,180.629 548.781,180.548 548.818,180.467 548.855,180.387 548.894,180.308 548.935,180.229 548.977,180.151 549.02,180.074 549.064,179.997 549.11,179.921 549.157,179.847 549.206,179.772 549.255,179.699 549.306,179.627 549.358,179.555 549.411,179.485 549.466,179.415 549.522,179.346 549.579,179.279 549.637,179.212 549.696,179.146 549.756,179.082 549.818,179.018 549.88,178.955 549.944,178.894 550.009,178.834 550.074,178.774 550.141,178.716 550.209,178.659 550.278,178.604 550.347,178.549 550.418,178.496 550.489,178.444 550.562,178.393 550.635,178.343 550.709,178.295 550.784,178.248 550.86,178.202 550.936,178.157 551.013,178.114 551.091,178.073 551.17,178.032 551.249,177.993 551.329,177.955 551.41,177.919 551.491,177.884 551.573,177.851 551.656,177.819 551.739,177.788 551.822,177.759 551.906,177.731 551.991,177.705 552.076,177.68 552.161,177.656 552.247,177.634 552.333,177.614 552.419,177.595 552.506,177.578 552.593,177.562 552.68,177.547 552.768,177.534 552.855,177.523 552.943,177.513 553.031,177.505 553.119,177.498 553.208,177.492 553.296,177.489 553.385,177.486 553.473,177.485 560.263,177.485 560.352,177.486 560.44,177.489 560.529,177.492 560.617,177.498 560.705,177.505 560.793,177.513 560.881,177.523 560.969,177.534 561.056,177.547 561.144,177.562 561.231,177.578 561.317,177.595 561.404,177.614 561.49,177.634 561.576,177.656 561.661,177.68 561.746,177.705 561.83,177.731 561.914,177.759 561.998,177.788 562.081,177.819 562.163,177.851 562.245,177.884 562.326,177.919 562.407,177.955 562.487,177.993 562.566,178.032 562.645,178.073 562.723,178.114 562.8,178.157 562.877,178.202 562.953,178.248 563.027,178.295 563.102,178.343 563.175,178.393 563.247,178.444 563.319,178.496 563.389,178.549 563.459,178.604 563.528,178.659 563.595,178.716 563.662,178.774 563.728,178.834 563.792,178.894 563.856,178.955 563.919,179.018 563.98,179.082 564.04,179.146 564.1,179.212 564.158,179.279 564.215,179.346 564.27,179.415 564.325,179.485 564.378,179.555 564.43,179.627 564.481,179.699 564.531,179.772 564.579,179.847 564.626,179.921 564.672,179.997 564.717,180.074 564.76,180.151 564.802,180.229 564.842,180.308 564.881,180.387 564.919,180.467 564.955,180.548 564.99,180.629 565.023,180.711 565.055,180.793 565.086,180.876 565.115,180.96 565.143,181.044 565.169,181.128 565.194,181.213 565.218,181.298 565.24,181.384 565.26,181.47 565.279,181.557 565.296,181.643 565.312,181.73 565.327,181.818 565.34,181.905 565.351,181.993 565.361,182.081 565.369,182.169 565.376,182.257 565.382,182.345 565.385,182.434 565.388,182.522 565.389,182.611 565.389,189.597 565.388,189.685 565.385,189.773 565.382,189.862 565.376,189.95 565.369,190.038 565.361,190.126 565.351,190.214 565.34,190.302 565.327,190.39 565.312,190.477 565.296,190.564 565.279,190.651 565.26,190.737 565.24,190.823 565.218,190.909 565.194,190.994 565.169,191.079 565.143,191.163 565.115,191.247 565.086,191.331 565.055,191.414 565.023,191.496 564.99,191.578 564.955,191.66 564.919,191.74 564.881,191.82 564.842,191.9 564.802,191.978 564.76,192.056 564.717,192.134 564.672,192.21 564.626,192.286 564.579,192.361 564.531,192.435 564.481,192.508 564.43,192.58 564.378,192.652 564.325,192.722 564.27,192.792 564.215,192.861 564.158,192.928 564.1,192.995 564.04,193.061 563.98,193.126 563.919,193.189 563.856,193.252 563.792,193.313 563.728,193.374 563.662,193.433 563.595,193.491 563.528,193.548 563.459,193.604 563.389,193.658 563.319,193.711 563.247,193.764 563.175,193.814 563.102,193.864 563.027,193.912 562.953,193.96 562.877,194.005 562.8,194.05 562.723,194.093 562.645,194.135 562.566,194.175 562.487,194.214 562.407,194.252 562.326,194.288 562.245,194.323 562.163,194.357 562.081,194.389 561.998,194.419 561.914,194.449 561.83,194.476 561.746,194.503 561.661,194.527 561.576,194.551 561.49,194.573 561.404,194.593 561.317,194.612 561.231,194.63 561.144,194.646 561.056,194.66 560.969,194.673 560.881,194.684 560.793,194.694 560.705,194.703 560.617,194.709 560.529,194.715 560.44,194.719 560.352,194.721 560.263,194.722 553.473,194.722 553.385,194.721 553.296,194.719 553.208,194.715 553.119,194.709 553.031,194.703 552.943,194.694 552.855,194.684 552.768,194.673 552.68,194.66 552.593,194.646 552.506,194.63 552.419,194.612 552.333,194.593 552.247,194.573 552.161,194.551 552.076,194.527 551.991,194.503 551.906,194.476 551.822,194.449 551.739,194.419 551.656,194.389 551.573,194.357 551.491,194.323 551.41,194.288 551.329,194.252 551.249,194.214 551.17,194.175 551.091,194.135 551.013,194.093 550.936,194.05 550.86,194.005 550.784,193.96 550.709,193.912 "
         id="polygon27611"
         style="stroke:#80ffe6;stroke-opacity:1" />
      <polygon
         fill="none"
         stroke="#00b9d2"
         stroke-width="2.75"
         stroke-linecap="round"
         stroke-linejoin="round"
         stroke-miterlimit="10"
         points="593.496,196.096 593.401,196.031 593.307,195.965 593.214,195.898 593.122,195.828 593.031,195.757 592.942,195.685 592.854,195.611 592.767,195.535 592.682,195.458 592.598,195.38 592.515,195.3 592.434,195.219 592.354,195.136 592.276,195.052 592.199,194.966 592.123,194.88 592.049,194.792 591.977,194.702 591.906,194.612 591.836,194.52 591.769,194.427 591.703,194.333 591.638,194.238 591.575,194.142 591.514,194.044 591.454,193.946 591.397,193.846 591.341,193.746 591.286,193.645 591.234,193.542 591.183,193.439 591.134,193.335 591.087,193.23 591.041,193.125 590.998,193.018 590.956,192.911 590.916,192.803 590.878,192.695 590.842,192.586 590.808,192.476 590.776,192.365 590.745,192.255 590.717,192.143 590.69,192.031 590.666,191.919 590.643,191.806 590.622,191.693 590.603,191.58 590.587,191.466 590.572,191.352 590.559,191.238 590.548,191.123 590.539,191.008 590.532,190.894 590.527,190.779 590.524,190.664 590.523,190.549 590.523,181.658 590.524,181.543 590.527,181.428 590.532,181.314 590.539,181.199 590.548,181.084 590.559,180.97 590.572,180.855 590.587,180.741 590.603,180.628 590.622,180.514 590.643,180.401 590.666,180.288 590.69,180.176 590.717,180.064 590.745,179.953 590.776,179.842 590.808,179.731 590.842,179.622 590.878,179.512 590.916,179.404 590.956,179.296 590.998,179.189 591.041,179.082 591.087,178.977 591.134,178.872 591.183,178.768 591.234,178.665 591.286,178.562 591.341,178.461 591.397,178.361 591.454,178.261 591.514,178.163 591.575,178.066 591.638,177.969 591.703,177.874 591.769,177.78 591.836,177.687 591.906,177.595 591.977,177.505 592.049,177.416 592.123,177.327 592.199,177.241 592.276,177.155 592.354,177.071 592.434,176.989 592.515,176.907 592.598,176.827 592.682,176.749 592.767,176.672 592.854,176.596 592.942,176.522 593.031,176.45 593.122,176.379 593.214,176.31 593.307,176.242 593.401,176.176 593.496,176.111 593.592,176.048 593.69,175.987 593.788,175.928 593.887,175.87 593.988,175.814 594.089,175.76 594.191,175.707 594.295,175.656 594.399,175.607 594.503,175.56 594.609,175.515 594.716,175.471 594.823,175.429 594.931,175.39 595.039,175.352 595.148,175.316 595.258,175.281 595.368,175.249 595.479,175.219 595.591,175.19 595.703,175.164 595.815,175.139 595.928,175.116 596.041,175.096 596.154,175.077 596.268,175.06 596.382,175.045 596.496,175.032 596.611,175.021 596.725,175.012 596.84,175.005 596.955,175.001 597.07,174.998 597.185,174.997 605.824,174.997 605.938,174.998 606.053,175.001 606.168,175.005 606.283,175.012 606.398,175.021 606.512,175.032 606.627,175.045 606.741,175.06 606.854,175.077 606.968,175.096 607.081,175.116 607.194,175.139 607.306,175.164 607.418,175.19 607.529,175.219 607.64,175.249 607.75,175.281 607.86,175.316 607.969,175.352 608.078,175.39 608.186,175.429 608.293,175.471 608.399,175.515 608.505,175.56 608.61,175.607 608.714,175.656 608.817,175.707 608.919,175.76 609.021,175.814 609.121,175.87 609.221,175.928 609.319,175.987 609.416,176.048 609.513,176.111 609.608,176.176 609.702,176.242 609.795,176.31 609.887,176.379 609.977,176.45 610.066,176.522 610.154,176.596 610.241,176.672 610.327,176.749 610.411,176.827 610.493,176.907 610.575,176.989 610.654,177.071 610.733,177.155 610.81,177.241 610.885,177.327 610.959,177.416 611.032,177.505 611.103,177.595 611.172,177.687 611.24,177.78 611.306,177.874 611.371,177.969 611.433,178.066 611.495,178.163 611.554,178.261 611.612,178.361 611.668,178.461 611.722,178.562 611.775,178.665 611.826,178.768 611.875,178.872 611.922,178.977 611.967,179.082 612.011,179.189 612.052,179.296 612.092,179.404 612.13,179.512 612.166,179.622 612.201,179.731 612.233,179.842 612.263,179.953 612.292,180.064 612.318,180.176 612.343,180.288 612.366,180.401 612.386,180.514 612.405,180.628 612.422,180.741 612.437,180.855 612.45,180.97 612.461,181.084 612.469,181.199 612.476,181.314 612.481,181.428 612.484,181.543 612.485,181.658 612.485,190.549 612.484,190.664 612.481,190.779 612.476,190.894 612.469,191.008 612.461,191.123 612.45,191.238 612.437,191.352 612.422,191.466 612.405,191.58 612.386,191.693 612.366,191.806 612.343,191.919 612.318,192.031 612.292,192.143 612.263,192.255 612.233,192.365 612.201,192.476 612.166,192.586 612.13,192.695 612.092,192.803 612.052,192.911 612.011,193.018 611.967,193.125 611.922,193.23 611.875,193.335 611.826,193.439 611.775,193.542 611.722,193.645 611.668,193.746 611.612,193.846 611.554,193.946 611.495,194.044 611.433,194.142 611.371,194.238 611.306,194.333 611.24,194.427 611.172,194.52 611.103,194.612 611.032,194.702 610.959,194.792 610.885,194.88 610.81,194.966 610.733,195.052 610.654,195.136 610.575,195.219 610.493,195.3 610.411,195.38 610.327,195.458 610.241,195.535 610.154,195.611 610.066,195.685 609.977,195.757 609.887,195.828 609.795,195.898 609.702,195.965 609.608,196.031 609.513,196.096 609.416,196.159 609.319,196.22 609.221,196.279 609.121,196.337 609.021,196.393 608.919,196.448 608.817,196.5 608.714,196.551 608.61,196.6 608.505,196.647 608.399,196.692 608.293,196.736 608.186,196.778 608.078,196.818 607.969,196.856 607.86,196.892 607.75,196.926 607.64,196.958 607.529,196.989 607.418,197.017 607.306,197.044 607.194,197.068 607.081,197.091 606.968,197.112 606.854,197.13 606.741,197.147 606.627,197.162 606.512,197.175 606.398,197.186 606.283,197.195 606.168,197.202 606.053,197.207 605.938,197.21 605.824,197.211 597.185,197.211 597.07,197.21 596.955,197.207 596.84,197.202 596.725,197.195 596.611,197.186 596.496,197.175 596.382,197.162 596.268,197.147 596.154,197.13 596.041,197.112 595.928,197.091 595.815,197.068 595.703,197.044 595.591,197.017 595.479,196.989 595.368,196.958 595.258,196.926 595.148,196.892 595.039,196.856 594.931,196.818 594.823,196.778 594.716,196.736 594.609,196.692 594.503,196.647 594.399,196.6 594.295,196.551 594.191,196.5 594.089,196.448 593.988,196.393 593.887,196.337 593.788,196.279 593.69,196.22 593.592,196.159 "
         id="polygon27614"
         style="stroke:#80ffe6;stroke-opacity:1" />
      <polygon
         fill="none"
         stroke="#00b9d2"
         stroke-width="2.75"
         stroke-linecap="round"
         stroke-linejoin="round"
         stroke-miterlimit="10"
         points="637.447,196.409 637.33,196.329 637.214,196.248 637.1,196.165 636.987,196.079 636.876,195.992 636.766,195.903 636.658,195.812 636.551,195.719 636.446,195.624 636.343,195.528 636.241,195.43 636.141,195.33 636.043,195.228 635.946,195.125 635.851,195.019 635.759,194.913 635.668,194.805 635.578,194.695 635.491,194.583 635.406,194.471 635.323,194.356 635.241,194.241 635.162,194.124 635.085,194.005 635.009,193.885 634.936,193.764 634.865,193.642 634.796,193.519 634.729,193.394 634.665,193.268 634.602,193.141 634.542,193.013 634.484,192.884 634.428,192.755 634.375,192.624 634.323,192.492 634.274,192.359 634.228,192.226 634.183,192.091 634.141,191.956 634.102,191.821 634.064,191.684 634.029,191.547 633.996,191.41 633.966,191.272 633.938,191.133 633.913,190.994 633.89,190.854 633.869,190.714 633.851,190.574 633.835,190.434 633.822,190.293 633.811,190.152 633.802,190.011 633.796,189.869 633.792,189.728 633.791,189.587 633.791,182.621 633.792,182.479 633.796,182.338 633.802,182.196 633.811,182.055 633.822,181.914 633.835,181.774 633.851,181.633 633.869,181.493 633.89,181.353 633.913,181.213 633.938,181.074 633.966,180.936 633.996,180.797 634.029,180.66 634.064,180.523 634.102,180.386 634.141,180.251 634.183,180.116 634.228,179.981 634.274,179.848 634.323,179.715 634.375,179.584 634.428,179.453 634.484,179.323 634.542,179.194 634.602,179.066 634.665,178.939 634.729,178.813 634.796,178.689 634.865,178.565 634.936,178.443 635.009,178.322 635.085,178.202 635.162,178.084 635.241,177.967 635.323,177.851 635.406,177.737 635.491,177.624 635.578,177.512 635.668,177.403 635.759,177.294 635.851,177.188 635.946,177.083 636.043,176.979 636.141,176.878 636.241,176.778 636.343,176.679 636.446,176.583 636.551,176.488 636.658,176.395 636.766,176.304 636.876,176.215 636.987,176.128 637.1,176.043 637.214,175.959 637.33,175.878 637.447,175.799 637.565,175.721 637.685,175.646 637.806,175.573 637.928,175.502 638.052,175.433 638.176,175.366 638.302,175.302 638.429,175.239 638.557,175.179 638.686,175.121 638.816,175.065 638.947,175.011 639.079,174.96 639.211,174.911 639.345,174.864 639.479,174.82 639.614,174.778 639.75,174.738 639.886,174.701 640.023,174.666 640.161,174.633 640.299,174.603 640.438,174.575 640.577,174.55 640.716,174.526 640.856,174.506 640.996,174.487 641.137,174.472 641.278,174.458 641.419,174.447 641.56,174.439 641.701,174.433 641.842,174.429 641.984,174.428 648.685,174.428 648.826,174.429 648.968,174.433 649.109,174.439 649.25,174.447 649.391,174.458 649.532,174.472 649.673,174.487 649.813,174.506 649.953,174.526 650.092,174.55 650.231,174.575 650.37,174.603 650.508,174.633 650.646,174.666 650.783,174.701 650.919,174.738 651.055,174.778 651.19,174.82 651.324,174.864 651.458,174.911 651.59,174.96 651.722,175.011 651.853,175.065 651.983,175.121 652.112,175.179 652.24,175.239 652.367,175.302 652.492,175.366 652.617,175.433 652.74,175.502 652.863,175.573 652.984,175.646 653.104,175.721 653.222,175.799 653.339,175.878 653.455,175.959 653.569,176.043 653.682,176.128 653.793,176.215 653.903,176.304 654.011,176.395 654.118,176.488 654.223,176.583 654.326,176.679 654.428,176.778 654.528,176.878 654.626,176.979 654.723,177.083 654.817,177.188 654.91,177.294 655.001,177.403 655.09,177.512 655.178,177.624 655.263,177.737 655.346,177.851 655.427,177.967 655.507,178.084 655.584,178.202 655.659,178.322 655.733,178.443 655.804,178.565 655.873,178.689 655.939,178.813 656.004,178.939 656.066,179.066 656.127,179.194 656.185,179.323 656.241,179.453 656.294,179.584 656.345,179.715 656.394,179.848 656.441,179.981 656.485,180.116 656.528,180.251 656.567,180.386 656.605,180.523 656.64,180.66 656.672,180.797 656.703,180.936 656.731,181.074 656.756,181.213 656.779,181.353 656.8,181.493 656.818,181.633 656.834,181.774 656.847,181.914 656.858,182.055 656.867,182.196 656.873,182.338 656.877,182.479 656.878,182.621 656.878,189.587 656.877,189.728 656.873,189.869 656.867,190.011 656.858,190.152 656.847,190.293 656.834,190.434 656.818,190.574 656.8,190.714 656.779,190.854 656.756,190.994 656.731,191.133 656.703,191.272 656.672,191.41 656.64,191.547 656.605,191.684 656.567,191.821 656.528,191.956 656.485,192.091 656.441,192.226 656.394,192.359 656.345,192.492 656.294,192.624 656.241,192.755 656.185,192.884 656.127,193.013 656.066,193.141 656.004,193.268 655.939,193.394 655.873,193.519 655.804,193.642 655.733,193.764 655.659,193.885 655.584,194.005 655.507,194.124 655.427,194.241 655.346,194.356 655.263,194.471 655.178,194.583 655.09,194.695 655.001,194.805 654.91,194.913 654.817,195.019 654.723,195.125 654.626,195.228 654.528,195.33 654.428,195.43 654.326,195.528 654.223,195.624 654.118,195.719 654.011,195.812 653.903,195.903 653.793,195.992 653.682,196.079 653.569,196.165 653.455,196.248 653.339,196.329 653.222,196.409 653.104,196.486 652.984,196.561 652.863,196.634 652.74,196.705 652.617,196.774 652.492,196.841 652.367,196.906 652.24,196.968 652.112,197.028 651.983,197.086 651.853,197.142 651.722,197.196 651.59,197.247 651.458,197.296 651.324,197.343 651.19,197.387 651.055,197.429 650.919,197.469 650.783,197.506 650.646,197.541 650.508,197.574 650.37,197.604 650.231,197.632 650.092,197.658 649.953,197.681 649.813,197.701 649.673,197.72 649.532,197.736 649.391,197.749 649.25,197.76 649.109,197.768 648.968,197.775 648.826,197.778 648.685,197.779 641.984,197.779 641.842,197.778 641.701,197.775 641.56,197.768 641.419,197.76 641.278,197.749 641.137,197.736 640.996,197.72 640.856,197.701 640.716,197.681 640.577,197.658 640.438,197.632 640.299,197.604 640.161,197.574 640.023,197.541 639.886,197.506 639.75,197.469 639.614,197.429 639.479,197.387 639.345,197.343 639.211,197.296 639.079,197.247 638.947,197.196 638.816,197.142 638.686,197.086 638.557,197.028 638.429,196.968 638.302,196.906 638.176,196.841 638.052,196.774 637.928,196.705 637.806,196.634 637.685,196.561 637.565,196.486 "
         id="polygon27617"
         style="stroke:#80ffe6;stroke-opacity:1" />
      <polygon
         fill="none"
         stroke="#00b9d2"
         stroke-width="2.75"
         stroke-linecap="round"
         stroke-linejoin="round"
         stroke-miterlimit="10"
         points="671.624,192.207 671.552,192.159 671.482,192.109 671.412,192.058 671.343,192.006 671.275,191.953 671.208,191.898 671.141,191.842 671.076,191.786 671.012,191.728 670.949,191.669 670.886,191.609 670.825,191.547 670.765,191.485 670.706,191.422 670.648,191.358 670.591,191.292 670.536,191.226 670.481,191.159 670.428,191.091 670.376,191.022 670.325,190.952 670.275,190.881 670.226,190.81 670.179,190.737 670.133,190.664 670.088,190.59 670.045,190.515 670.003,190.44 669.962,190.363 669.922,190.286 669.884,190.209 669.847,190.131 669.812,190.052 669.778,189.972 669.745,189.892 669.714,189.812 669.684,189.73 669.655,189.649 669.628,189.567 669.602,189.484 669.578,189.401 669.555,189.318 669.533,189.234 669.513,189.15 669.495,189.065 669.478,188.98 669.462,188.895 669.448,188.81 669.436,188.724 669.424,188.639 669.415,188.553 669.406,188.466 669.4,188.38 669.395,188.294 669.391,188.207 669.389,188.121 669.388,188.034 669.388,184.173 669.389,184.086 669.391,184 669.395,183.913 669.4,183.827 669.406,183.741 669.415,183.655 669.424,183.569 669.436,183.483 669.448,183.397 669.462,183.312 669.478,183.227 669.495,183.142 669.513,183.058 669.533,182.973 669.555,182.89 669.578,182.806 669.602,182.723 669.628,182.641 669.655,182.558 669.684,182.477 669.714,182.396 669.745,182.315 669.778,182.235 669.812,182.155 669.847,182.077 669.884,181.998 669.922,181.921 669.962,181.844 670.003,181.768 670.045,181.692 670.088,181.617 670.133,181.543 670.179,181.47 670.226,181.397 670.275,181.326 670.325,181.255 670.376,181.185 670.428,181.116 670.481,181.048 670.536,180.981 670.591,180.915 670.648,180.849 670.706,180.785 670.765,180.722 670.825,180.66 670.886,180.599 670.949,180.539 671.012,180.479 671.076,180.422 671.141,180.365 671.208,180.309 671.275,180.255 671.343,180.201 671.412,180.149 671.482,180.098 671.552,180.048 671.624,180 671.697,179.953 671.77,179.907 671.844,179.862 671.919,179.818 671.994,179.776 672.07,179.735 672.147,179.696 672.225,179.658 672.303,179.621 672.382,179.585 672.462,179.551 672.542,179.518 672.622,179.487 672.703,179.457 672.785,179.428 672.867,179.401 672.95,179.375 673.033,179.351 673.116,179.328 673.2,179.307 673.284,179.287 673.369,179.268 673.453,179.251 673.539,179.236 673.624,179.222 673.71,179.209 673.795,179.198 673.881,179.188 673.967,179.18 674.054,179.173 674.14,179.168 674.226,179.164 674.313,179.162 674.399,179.161 678.104,179.161 678.19,179.162 678.276,179.164 678.363,179.168 678.449,179.173 678.536,179.18 678.622,179.188 678.708,179.198 678.793,179.209 678.879,179.222 678.964,179.236 679.049,179.251 679.134,179.268 679.219,179.287 679.303,179.307 679.387,179.328 679.47,179.351 679.553,179.375 679.636,179.401 679.718,179.428 679.799,179.457 679.881,179.487 679.961,179.518 680.041,179.551 680.121,179.585 680.2,179.621 680.278,179.658 680.356,179.696 680.432,179.735 680.509,179.776 680.584,179.818 680.659,179.862 680.733,179.907 680.806,179.953 680.879,180 680.95,180.048 681.021,180.098 681.091,180.149 681.16,180.201 681.228,180.255 681.295,180.309 681.362,180.365 681.427,180.422 681.491,180.479 681.554,180.539 681.617,180.599 681.678,180.66 681.738,180.722 681.797,180.785 681.855,180.849 681.911,180.915 681.967,180.981 682.022,181.048 682.075,181.116 682.127,181.185 682.178,181.255 682.228,181.326 682.276,181.397 682.324,181.47 682.37,181.543 682.415,181.617 682.458,181.692 682.5,181.768 682.541,181.844 682.581,181.921 682.619,181.998 682.656,182.077 682.691,182.155 682.725,182.235 682.758,182.315 682.789,182.396 682.819,182.477 682.848,182.558 682.875,182.641 682.901,182.723 682.925,182.806 682.948,182.89 682.969,182.973 682.989,183.058 683.008,183.142 683.025,183.227 683.041,183.312 683.055,183.397 683.067,183.483 683.079,183.569 683.088,183.655 683.096,183.741 683.103,183.827 683.108,183.913 683.112,184 683.114,184.086 683.115,184.173 683.115,188.034 683.114,188.121 683.112,188.207 683.108,188.294 683.103,188.38 683.096,188.466 683.088,188.553 683.079,188.639 683.067,188.724 683.055,188.81 683.041,188.895 683.025,188.98 683.008,189.065 682.989,189.15 682.969,189.234 682.948,189.318 682.925,189.401 682.901,189.484 682.875,189.567 682.848,189.649 682.819,189.73 682.789,189.812 682.758,189.892 682.725,189.972 682.691,190.052 682.656,190.131 682.619,190.209 682.581,190.286 682.541,190.363 682.5,190.44 682.458,190.515 682.415,190.59 682.37,190.664 682.324,190.737 682.276,190.81 682.228,190.881 682.178,190.952 682.127,191.022 682.075,191.091 682.022,191.159 681.967,191.226 681.911,191.292 681.855,191.358 681.797,191.422 681.738,191.485 681.678,191.547 681.617,191.609 681.554,191.669 681.491,191.728 681.427,191.786 681.362,191.842 681.295,191.898 681.228,191.953 681.16,192.006 681.091,192.058 681.021,192.109 680.95,192.159 680.879,192.207 680.806,192.255 680.733,192.301 680.659,192.345 680.584,192.389 680.509,192.431 680.432,192.472 680.356,192.511 680.278,192.55 680.2,192.587 680.121,192.622 680.041,192.656 679.961,192.689 679.881,192.72 679.799,192.75 679.718,192.779 679.636,192.806 679.553,192.832 679.47,192.856 679.387,192.879 679.303,192.9 679.219,192.92 679.134,192.939 679.049,192.956 678.964,192.971 678.879,192.986 678.793,192.998 678.708,193.009 678.622,193.019 678.536,193.027 678.449,193.034 678.363,193.039 678.276,193.043 678.19,193.045 678.104,193.046 674.399,193.046 674.313,193.045 674.226,193.043 674.14,193.039 674.054,193.034 673.967,193.027 673.881,193.019 673.795,193.009 673.71,192.998 673.624,192.986 673.539,192.971 673.453,192.956 673.369,192.939 673.284,192.92 673.2,192.9 673.116,192.879 673.033,192.856 672.95,192.832 672.867,192.806 672.785,192.779 672.703,192.75 672.622,192.72 672.542,192.689 672.462,192.656 672.382,192.622 672.303,192.587 672.225,192.55 672.147,192.511 672.07,192.472 671.994,192.431 671.919,192.389 671.844,192.345 671.77,192.301 671.697,192.255 "
         id="polygon27620"
         style="stroke:#80ffe6;stroke-opacity:1" />
      <path
         fill="none"
         stroke="#00b9d2"
         stroke-width="2.75"
         stroke-linecap="round"
         stroke-linejoin="round"
         stroke-miterlimit="10"
         d="m 691.018,199.205 -0.061,-0.001 -0.061,-0.002 -0.061,-0.003 -0.061,-0.004 c 0,0 -0.061,-0.005 -0.061,-0.005 l -0.061,-0.006 c 0,0 -0.061,-0.007 -0.061,-0.007 0,0 -0.06,-0.008 -0.06,-0.008 l -0.06,-0.009 c 0,0 -0.06,-0.01 -0.06,-0.01 l -0.06,-0.011 -0.06,-0.012 -0.059,-0.013 -0.059,-0.014 -0.059,-0.015 -0.059,-0.016 -0.058,-0.017 c 0,0 -0.058,-0.018 -0.058,-0.018 -0.058,-0.019 -0.115,-0.039 -0.115,-0.039 -0.057,-0.021 -0.114,-0.043 -0.114,-0.043 -0.056,-0.023 -0.112,-0.047 -0.112,-0.047 -0.056,-0.025 -0.111,-0.051 -0.111,-0.051 -0.055,-0.027 -0.109,-0.055 -0.109,-0.055 -0.054,-0.029 -0.107,-0.058 -0.107,-0.058 -0.053,-0.031 -0.105,-0.062 -0.105,-0.062 -0.052,-0.032 -0.103,-0.066 -0.103,-0.066 -0.05,-0.034 -0.1,-0.069 -0.1,-0.069 -0.049,-0.036 -0.098,-0.073 -0.098,-0.073 -0.048,-0.038 -0.095,-0.076 -0.095,-0.076 -0.047,-0.039 -0.093,-0.079 -0.093,-0.079 -0.045,-0.041 -0.09,-0.082 -0.09,-0.082 -0.044,-0.042 -0.087,-0.085 -0.087,-0.085 -0.042,-0.044 -0.084,-0.088 -0.084,-0.088 -0.041,-0.045 -0.081,-0.091 -0.081,-0.091 -0.039,-0.047 -0.078,-0.094 -0.078,-0.094 -0.038,-0.048 -0.074,-0.097 -0.074,-0.097 -0.036,-0.049 -0.071,-0.099 -0.071,-0.099 -0.034,-0.05 -0.067,-0.101 -0.067,-0.101 -0.032,-0.052 -0.064,-0.104 -0.064,-0.104 -0.031,-0.053 -0.06,-0.106 -0.06,-0.106 -0.029,-0.054 -0.057,-0.108 -0.057,-0.108 -0.027,-0.055 -0.053,-0.11 -0.053,-0.11 -0.025,-0.056 -0.049,-0.112 -0.049,-0.112 -0.023,-0.056 -0.045,-0.113 -0.045,-0.113 -0.021,-0.057 -0.041,-0.115 -0.041,-0.115 -0.019,-0.058 -0.037,-0.116 -0.037,-0.116 l -0.017,-0.058 -0.016,-0.059 -0.015,-0.059 -0.014,-0.059 c 0,0 -0.013,-0.059 -0.013,-0.059 l -0.012,-0.06 c 0,0 -0.011,-0.06 -0.011,-0.06 0,0 -0.01,-0.06 -0.01,-0.06 l -0.009,-0.06 -0.008,-0.06 -0.007,-0.061 -0.006,-0.061 -0.005,-0.061 c 0,0 -0.004,-0.061 -0.004,-0.061 l -0.003,-0.061 -0.002,-0.061 v -0.061 -19.145 -0.061 c 0,0 0.002,-0.061 0.002,-0.061 l 0.003,-0.061 0.004,-0.061 0.005,-0.061 0.006,-0.061 0.007,-0.061 c 0,0 0.008,-0.06 0.008,-0.06 l 0.009,-0.06 c 0,0 0.01,-0.06 0.01,-0.06 l 0.011,-0.06 0.012,-0.06 c 0,0 0.013,-0.06 0.013,-0.06 l 0.014,-0.059 0.015,-0.059 0.016,-0.059 0.017,-0.058 0.018,-0.058 c 0.019,-0.058 0.039,-0.115 0.039,-0.115 0.021,-0.057 0.043,-0.114 0.043,-0.114 0.023,-0.056 0.047,-0.112 0.047,-0.112 0.025,-0.056 0.051,-0.111 0.051,-0.111 0.027,-0.055 0.055,-0.109 0.055,-0.109 0.029,-0.054 0.058,-0.107 0.058,-0.107 0.031,-0.053 0.062,-0.105 0.062,-0.105 0.032,-0.052 0.066,-0.103 0.066,-0.103 0.034,-0.05 0.069,-0.1 0.069,-0.1 0.036,-0.049 0.073,-0.098 0.073,-0.098 0.038,-0.048 0.076,-0.095 0.076,-0.095 0.039,-0.047 0.079,-0.093 0.079,-0.093 0.041,-0.045 0.082,-0.09 0.082,-0.09 0.042,-0.044 0.085,-0.087 0.085,-0.087 0.044,-0.042 0.088,-0.084 0.088,-0.084 0.045,-0.041 0.091,-0.081 0.091,-0.081 0.047,-0.039 0.094,-0.078 0.094,-0.078 0.048,-0.038 0.097,-0.074 0.097,-0.074 0.049,-0.036 0.099,-0.071 0.099,-0.071 0.05,-0.034 0.101,-0.067 0.101,-0.067 0.052,-0.032 0.104,-0.064 0.104,-0.064 0.053,-0.031 0.106,-0.06 0.106,-0.06 0.054,-0.029 0.108,-0.057 0.108,-0.057 0.055,-0.027 0.11,-0.053 0.11,-0.053 0.056,-0.025 0.112,-0.049 0.112,-0.049 0.056,-0.023 0.113,-0.045 0.113,-0.045 0.057,-0.021 0.115,-0.041 0.115,-0.041 0.058,-0.019 0.116,-0.037 0.116,-0.037 l 0.058,-0.017 0.059,-0.016 0.059,-0.015 0.059,-0.014 0.059,-0.013 c 0,0 0.06,-0.012 0.06,-0.012 l 0.06,-0.011 0.06,-0.01 c 0,0 0.06,-0.009 0.06,-0.009 l 0.06,-0.008 c 0,0 0.061,-0.007 0.061,-0.007 l 0.061,-0.006 0.061,-0.005 0.061,-0.004 0.061,-0.003 0.061,-0.002 0.061,-0.001 c 0,0 4.979,0 4.979,0 l 0.061,0.001 0.061,0.002 0.061,0.003 0.061,0.004 c 0,0 0.061,0.005 0.061,0.005 l 0.061,0.006 0.06,0.007 0.06,0.008 0.06,0.009 0.06,0.01 0.06,0.011 0.06,0.012 0.06,0.013 c 0,0 0.059,0.014 0.059,0.014 l 0.059,0.015 c 0,0 0.059,0.016 0.059,0.016 l 0.058,0.017 0.058,0.018 c 0.058,0.019 0.115,0.039 0.115,0.039 0.057,0.021 0.114,0.043 0.114,0.043 0.056,0.023 0.112,0.047 0.112,0.047 0.056,0.025 0.111,0.051 0.111,0.051 0.055,0.027 0.109,0.055 0.109,0.055 0.054,0.029 0.107,0.058 0.107,0.058 0.053,0.031 0.105,0.062 0.105,0.062 0.052,0.032 0.103,0.066 0.103,0.066 0.05,0.034 0.1,0.069 0.1,0.069 0.049,0.036 0.098,0.073 0.098,0.073 0.048,0.038 0.095,0.076 0.095,0.076 0.047,0.039 0.093,0.079 0.093,0.079 0.045,0.041 0.09,0.082 0.09,0.082 0.044,0.042 0.087,0.085 0.087,0.085 0.042,0.044 0.084,0.088 0.084,0.088 0.041,0.045 0.081,0.091 0.081,0.091 0.039,0.047 0.078,0.094 0.078,0.094 0.038,0.048 0.074,0.097 0.074,0.097 0.036,0.049 0.071,0.099 0.071,0.099 0.034,0.05 0.067,0.101 0.067,0.101 0.032,0.052 0.064,0.104 0.064,0.104 0.031,0.053 0.06,0.106 0.06,0.106 0.029,0.054 0.057,0.108 0.057,0.108 0.027,0.055 0.053,0.11 0.053,0.11 0.025,0.056 0.049,0.112 0.049,0.112 0.023,0.056 0.045,0.113 0.045,0.113 0.021,0.057 0.041,0.115 0.041,0.115 0.019,0.058 0.037,0.116 0.037,0.116 l 0.017,0.058 0.016,0.059 0.015,0.059 0.014,0.059 c 0,0 0.013,0.06 0.013,0.06 0,0 0.012,0.06 0.012,0.06 l 0.011,0.06 0.01,0.06 c 0,0 0.009,0.06 0.009,0.06 l 0.008,0.06 0.007,0.061 0.006,0.061 0.005,0.061 0.004,0.061 0.003,0.061 0.002,0.061 10e-4,0.061 v 19.145 l -10e-4,0.061 -0.002,0.061 -0.003,0.061 -0.004,0.061 c 0,0 -0.005,0.061 -0.005,0.061 l -0.006,0.061 -0.007,0.061 -0.008,0.06 -0.009,0.06 -0.01,0.06 -0.011,0.06 -0.012,0.06 -0.013,0.059 c 0,0 -0.014,0.059 -0.014,0.059 l -0.015,0.059 -0.016,0.059 -0.017,0.058 -0.018,0.058 c -0.019,0.058 -0.039,0.115 -0.039,0.115 -0.021,0.057 -0.043,0.114 -0.043,0.114 -0.023,0.056 -0.047,0.112 -0.047,0.112 -0.025,0.056 -0.051,0.111 -0.051,0.111 -0.027,0.055 -0.055,0.109 -0.055,0.109 -0.029,0.054 -0.058,0.107 -0.058,0.107 -0.031,0.053 -0.062,0.105 -0.062,0.105 -0.032,0.052 -0.066,0.103 -0.066,0.103 -0.034,0.05 -0.069,0.1 -0.069,0.1 -0.036,0.049 -0.073,0.098 -0.073,0.098 -0.038,0.048 -0.076,0.095 -0.076,0.095 -0.039,0.047 -0.079,0.093 -0.079,0.093 -0.041,0.045 -0.082,0.09 -0.082,0.09 -0.042,0.044 -0.085,0.087 -0.085,0.087 -0.044,0.042 -0.088,0.084 -0.088,0.084 -0.045,0.041 -0.091,0.081 -0.091,0.081 -0.047,0.039 -0.094,0.078 -0.094,0.078 -0.048,0.038 -0.097,0.074 -0.097,0.074 -0.049,0.036 -0.099,0.071 -0.099,0.071 -0.05,0.034 -0.101,0.067 -0.101,0.067 -0.052,0.032 -0.104,0.064 -0.104,0.064 -0.053,0.031 -0.106,0.06 -0.106,0.06 -0.054,0.029 -0.108,0.057 -0.108,0.057 -0.055,0.027 -0.11,0.053 -0.11,0.053 -0.056,0.025 -0.112,0.049 -0.112,0.049 -0.056,0.023 -0.113,0.045 -0.113,0.045 -0.057,0.021 -0.115,0.041 -0.115,0.041 -0.058,0.019 -0.116,0.037 -0.116,0.037 0,0 -0.058,0.017 -0.058,0.017 l -0.059,0.016 -0.059,0.015 -0.059,0.014 c 0,0 -0.06,0.013 -0.06,0.013 l -0.06,0.012 -0.06,0.011 -0.06,0.01 -0.06,0.009 -0.06,0.008 -0.06,0.007 c 0,0 -0.061,0.006 -0.061,0.006 l -0.061,0.005 c 0,0 -0.061,0.004 -0.061,0.004 l -0.061,0.003 c 0,0 -0.061,0.002 -0.061,0.002 l -0.061,0.001 c 0,0 -4.979,0 -4.979,0 z"
         id="path27623"
         style="stroke:#80ffe6;stroke-opacity:1" />
      <polygon
         fill="none"
         stroke="#00b9d2"
         stroke-width="2.75"
         stroke-linecap="round"
         stroke-linejoin="round"
         stroke-miterlimit="10"
         points="704.747,165.06 704.988,165.224 705.227,165.392 705.463,165.564 705.696,165.74 705.926,165.92 706.152,166.104 706.376,166.292 706.596,166.483 706.813,166.679 707.026,166.878 707.236,167.081 707.442,167.287 707.645,167.497 707.844,167.71 708.04,167.927 708.232,168.147 708.419,168.371 708.603,168.597 708.783,168.827 708.959,169.06 709.131,169.296 709.299,169.535 709.463,169.776 709.623,170.021 709.778,170.268 709.929,170.518 710.076,170.77 710.218,171.025 710.356,171.282 710.489,171.542 710.618,171.804 710.742,172.068 710.862,172.334 710.977,172.602 711.088,172.872 711.194,173.144 711.295,173.418 711.391,173.694 711.483,173.971 711.57,174.25 711.652,174.53 711.729,174.811 711.801,175.094 711.869,175.378 711.931,175.663 711.989,175.949 712.041,176.237 712.089,176.525 712.132,176.813 712.169,177.103 712.202,177.393 712.23,177.683 712.252,177.974 712.27,178.266 712.283,178.557 712.29,178.849 712.293,179.141 712.293,193.066 712.29,193.358 712.283,193.65 712.27,193.941 712.252,194.233 712.23,194.524 712.202,194.814 712.169,195.104 712.132,195.394 712.089,195.683 712.041,195.971 711.989,196.258 711.931,196.544 711.869,196.829 711.801,197.113 711.729,197.396 711.652,197.677 711.57,197.958 711.483,198.236 711.391,198.513 711.295,198.789 711.194,199.063 711.088,199.335 710.977,199.605 710.862,199.873 710.742,200.139 710.618,200.403 710.489,200.665 710.356,200.925 710.218,201.182 710.076,201.437 709.929,201.689 709.778,201.939 709.623,202.186 709.463,202.431 709.299,202.673 709.131,202.911 708.959,203.147 708.783,203.38 708.603,203.61 708.419,203.836 708.232,204.06 708.04,204.28 707.844,204.497 707.645,204.71 707.442,204.92 707.236,205.127 707.026,205.329 706.813,205.529 706.596,205.724 706.376,205.916 706.152,206.103 705.926,206.287 705.696,206.467 705.463,206.643 705.227,206.815 704.988,206.983 704.747,207.147 704.502,207.307 704.255,207.462 704.005,207.613 703.753,207.76 703.498,207.902 703.241,208.04 702.981,208.173 702.719,208.302 702.455,208.427 702.189,208.546 701.921,208.662 701.651,208.772 701.379,208.878 701.105,208.979 700.829,209.075 700.552,209.167 700.273,209.254 699.993,209.336 699.712,209.413 699.429,209.485 699.145,209.553 698.86,209.615 698.574,209.673 698.287,209.726 697.999,209.773 697.71,209.816 697.42,209.854 697.13,209.886 696.84,209.914 696.549,209.937 696.257,209.954 695.966,209.967 695.674,209.974 695.382,209.977 548.818,209.977 548.526,209.974 548.234,209.967 547.943,209.954 547.651,209.937 547.36,209.914 547.07,209.886 546.779,209.854 546.49,209.816 546.201,209.773 545.913,209.726 545.626,209.673 545.34,209.615 545.055,209.553 544.771,209.485 544.488,209.413 544.207,209.336 543.926,209.254 543.648,209.167 543.371,209.075 543.095,208.979 542.821,208.878 542.549,208.772 542.279,208.662 542.011,208.546 541.745,208.427 541.481,208.302 541.219,208.173 540.959,208.04 540.702,207.902 540.447,207.76 540.195,207.613 539.945,207.462 539.698,207.307 539.453,207.147 539.211,206.983 538.973,206.815 538.737,206.643 538.504,206.467 538.274,206.287 538.048,206.103 537.824,205.916 537.604,205.724 537.387,205.529 537.174,205.329 536.964,205.127 536.757,204.92 536.555,204.71 536.355,204.497 536.16,204.28 535.968,204.06 535.78,203.836 535.596,203.61 535.417,203.38 535.24,203.147 535.068,202.911 534.901,202.673 534.737,202.431 534.577,202.186 534.422,201.939 534.271,201.689 534.124,201.437 533.982,201.182 533.844,200.925 533.711,200.665 533.582,200.403 533.457,200.139 533.338,199.873 533.222,199.605 533.112,199.335 533.006,199.063 532.905,198.789 532.808,198.513 532.717,198.236 532.63,197.958 532.548,197.677 532.471,197.396 532.398,197.113 532.331,196.829 532.269,196.544 532.211,196.258 532.158,195.971 532.111,195.683 532.068,195.394 532.03,195.104 531.998,194.814 531.97,194.524 531.947,194.233 531.93,193.941 531.917,193.65 531.91,193.358 531.907,193.066 531.907,179.141 531.91,178.849 531.917,178.557 531.93,178.266 531.947,177.974 531.97,177.683 531.998,177.393 532.03,177.103 532.068,176.813 532.111,176.525 532.158,176.237 532.211,175.949 532.269,175.663 532.331,175.378 532.398,175.094 532.471,174.811 532.548,174.53 532.63,174.25 532.717,173.971 532.808,173.694 532.905,173.418 533.006,173.144 533.112,172.872 533.222,172.602 533.338,172.334 533.457,172.068 533.582,171.804 533.711,171.542 533.844,171.282 533.982,171.025 534.124,170.77 534.271,170.518 534.422,170.268 534.577,170.021 534.737,169.776 534.901,169.535 535.068,169.296 535.24,169.06 535.417,168.827 535.596,168.597 535.78,168.371 535.968,168.147 536.16,167.927 536.355,167.71 536.555,167.497 536.757,167.287 536.964,167.081 537.174,166.878 537.387,166.679 537.604,166.483 537.824,166.292 538.048,166.104 538.274,165.92 538.504,165.74 538.737,165.564 538.973,165.392 539.211,165.224 539.453,165.06 539.698,164.901 539.945,164.745 540.195,164.594 540.447,164.448 540.702,164.305 540.959,164.167 541.219,164.034 541.481,163.905 541.745,163.781 542.011,163.661 542.279,163.546 542.549,163.435 542.821,163.329 543.095,163.228 543.371,163.132 543.648,163.04 543.926,162.953 544.207,162.871 544.488,162.794 544.771,162.722 545.055,162.654 545.34,162.592 545.626,162.534 545.913,162.482 546.201,162.434 546.49,162.391 546.779,162.354 547.07,162.321 547.36,162.293 547.651,162.271 547.943,162.253 548.234,162.24 548.526,162.233 548.818,162.23 695.382,162.23 695.674,162.233 695.966,162.24 696.257,162.253 696.549,162.271 696.84,162.293 697.13,162.321 697.42,162.354 697.71,162.391 697.999,162.434 698.287,162.482 698.574,162.534 698.86,162.592 699.145,162.654 699.429,162.722 699.712,162.794 699.993,162.871 700.273,162.953 700.552,163.04 700.829,163.132 701.105,163.228 701.379,163.329 701.651,163.435 701.921,163.546 702.189,163.661 702.455,163.781 702.719,163.905 702.981,164.034 703.241,164.167 703.498,164.305 703.753,164.448 704.005,164.594 704.255,164.745 704.502,164.901 "
         id="polygon27626"
         style="stroke:#80ffe6;stroke-opacity:1" />
      <rect
         x="762.78699"
         y="280.50201"
         fill="none"
         stroke="#00b9d2"
         stroke-width="2.75"
         stroke-linecap="round"
         stroke-linejoin="round"
         stroke-miterlimit="10"
         width="2.9979999"
         height="39.951"
         id="rect27629"
         style="stroke:#80ffe6;stroke-opacity:1" />
      <rect
         x="762.78699"
         y="164.69501"
         fill="none"
         stroke="#00b9d2"
         stroke-width="2.75"
         stroke-linecap="round"
         stroke-linejoin="round"
         stroke-miterlimit="10"
         width="2.9979999"
         height="79.537003"
         id="rect27632"
         style="stroke:#80ffe6;stroke-opacity:1" />
      <rect
         x="478.41501"
         y="190.49699"
         fill="none"
         stroke="#00b9d2"
         stroke-width="2.75"
         stroke-linecap="round"
         stroke-linejoin="round"
         stroke-miterlimit="10"
         width="2.9979999"
         height="41.465"
         id="rect27635"
         style="stroke:#80ffe6;stroke-opacity:1" />
      <polyline
         fill="none"
         stroke="#00b9d2"
         stroke-width="2.75"
         stroke-linecap="round"
         stroke-linejoin="round"
         stroke-miterlimit="10"
         points="    762.787,121.434 762.784,120.984 762.772,120.535 762.752,120.085 762.725,119.636 762.69,119.188 762.648,118.74     762.597,118.293 762.539,117.847 762.474,117.402 762.4,116.959 762.319,116.516 762.23,116.075 762.134,115.636 762.03,115.198     761.919,114.763 761.8,114.329 761.674,113.897 761.54,113.468 761.399,113.041 761.25,112.616 761.094,112.194 760.931,111.775     760.761,111.359 760.583,110.946 760.399,110.536 760.207,110.129 760.008,109.725 759.803,109.325 759.59,108.929     759.371,108.536 759.145,108.147 758.912,107.762 758.673,107.382 758.427,107.005 758.175,106.633 757.916,106.265     757.651,105.901 757.38,105.542 757.103,105.188 756.819,104.839 756.53,104.495 756.235,104.156 755.933,103.822     755.627,103.493 755.314,103.169 754.996,102.851 754.673,102.539 754.344,102.232 754.01,101.931 753.671,101.636     753.326,101.346 752.977,101.063 752.623,100.785 752.264,100.514 751.901,100.249 751.533,99.99 751.161,99.738 750.784,99.492     750.403,99.253 750.018,99.02 749.629,98.794 749.237,98.575 748.84,98.363 748.44,98.157 748.037,97.958 747.63,97.767     747.22,97.582 746.806,97.405 746.39,97.234 745.971,97.071 745.549,96.915 745.125,96.767 744.698,96.626 744.268,96.492     743.837,96.366 743.403,96.247 742.967,96.135 742.529,96.031 742.09,95.935 741.649,95.846 741.207,95.765 740.763,95.692     740.318,95.626 739.872,95.568 739.425,95.518 738.977,95.475 738.529,95.44 738.08,95.413 737.631,95.394 737.181,95.382     736.731,95.378 507.468,95.378 507.019,95.382 506.569,95.394 506.12,95.413 505.671,95.44 505.222,95.475 504.775,95.518     504.328,95.568 503.882,95.626 503.437,95.692 502.993,95.765 502.551,95.846 502.11,95.935 501.67,96.031 501.233,96.135     500.797,96.247 500.363,96.366 499.932,96.492 499.502,96.626 499.075,96.767 498.651,96.915 498.229,97.071 497.81,97.234     497.393,97.405 496.98,97.582 496.57,97.767 496.163,97.958 495.76,98.157 495.36,98.363 494.963,98.575 494.57,98.794     494.182,99.02 493.797,99.253 493.416,99.492 493.039,99.738 492.667,99.99 492.299,100.249 491.936,100.514 491.577,100.785     491.223,101.063 490.874,101.346 490.529,101.636 490.19,101.931 489.856,102.232 489.527,102.539 489.204,102.851     488.886,103.169 488.573,103.493 488.266,103.822 487.965,104.156 487.67,104.495 487.38,104.839 487.097,105.188 486.82,105.542     486.548,105.901 486.283,106.265 486.025,106.633 485.772,107.005 485.527,107.382 485.287,107.762 485.055,108.147     484.829,108.536 484.609,108.929 484.397,109.325 484.191,109.725 483.993,110.129 483.801,110.536 483.617,110.946     483.439,111.359 483.269,111.775 483.106,112.194 482.95,112.616 482.801,113.041 482.66,113.468 482.526,113.897 482.4,114.329     482.281,114.763 482.17,115.198 482.066,115.636 481.969,116.075 481.881,116.516 481.8,116.959 481.726,117.402 481.661,117.847     481.602,118.293 481.552,118.74 481.509,119.188 481.475,119.636 481.447,120.085 481.428,120.535 481.416,120.984     481.412,121.434   "
         id="polyline27638"
         style="stroke:#80ffe6;stroke-opacity:1" />
      <polyline
         fill="none"
         stroke="#00b9d2"
         stroke-width="2.75"
         stroke-linecap="round"
         stroke-linejoin="round"
         stroke-miterlimit="10"
         points="    481.412,655.436 481.416,655.886 481.428,656.336 481.447,656.785 481.475,657.234 481.509,657.682 481.552,658.13     481.602,658.577 481.661,659.023 481.726,659.468 481.8,659.911 481.881,660.354 481.969,660.795 482.066,661.234 482.17,661.672     482.281,662.107 482.4,662.541 482.526,662.973 482.66,663.402 482.801,663.829 482.95,664.254 483.106,664.676 483.269,665.095     483.439,665.511 483.617,665.924 483.801,666.334 483.993,666.741 484.191,667.145 484.397,667.545 484.609,667.941     484.829,668.334 485.055,668.723 485.287,669.108 485.527,669.489 485.772,669.865 486.025,670.238 486.283,670.606     486.548,670.969 486.82,671.328 487.097,671.682 487.38,672.031 487.67,672.375 487.965,672.714 488.266,673.048 488.573,673.377     488.886,673.701 489.204,674.019 489.527,674.331 489.856,674.638 490.19,674.939 490.529,675.235 490.874,675.524     491.223,675.807 491.577,676.085 491.936,676.356 492.299,676.621 492.667,676.88 493.039,677.132 493.416,677.378     493.797,677.617 494.182,677.85 494.57,678.076 494.963,678.295 495.36,678.508 495.76,678.713 496.163,678.912 496.57,679.103     496.98,679.288 497.393,679.465 497.81,679.636 498.229,679.799 498.651,679.955 499.075,680.103 499.502,680.244     499.932,680.378 500.363,680.505 500.797,680.624 501.233,680.735 501.67,680.839 502.11,680.935 502.551,681.024     502.993,681.105 503.437,681.178 503.882,681.244 504.328,681.302 504.775,681.352 505.222,681.395 505.671,681.43     506.12,681.457 506.569,681.477 507.019,681.488 507.468,681.492 736.731,681.492 737.181,681.488 737.631,681.477     738.08,681.457 738.529,681.43 738.977,681.395 739.425,681.352 739.872,681.302 740.318,681.244 740.763,681.178     741.207,681.105 741.649,681.024 742.09,680.935 742.529,680.839 742.967,680.735 743.403,680.624 743.837,680.505     744.268,680.378 744.698,680.244 745.125,680.103 745.549,679.955 745.971,679.799 746.39,679.636 746.806,679.465     747.22,679.288 747.63,679.103 748.037,678.912 748.44,678.713 748.84,678.508 749.237,678.295 749.629,678.076 750.018,677.85     750.403,677.617 750.784,677.378 751.161,677.132 751.533,676.88 751.901,676.621 752.264,676.356 752.623,676.085     752.977,675.807 753.326,675.524 753.671,675.235 754.01,674.939 754.344,674.638 754.673,674.331 754.996,674.019     755.314,673.701 755.627,673.377 755.933,673.048 756.235,672.714 756.53,672.375 756.819,672.031 757.103,671.682     757.38,671.328 757.651,670.969 757.916,670.606 758.175,670.238 758.427,669.865 758.673,669.489 758.912,669.108     759.145,668.723 759.371,668.334 759.59,667.941 759.803,667.545 760.008,667.145 760.207,666.741 760.399,666.334     760.583,665.924 760.761,665.511 760.931,665.095 761.094,664.676 761.25,664.254 761.399,663.829 761.54,663.402     761.674,662.973 761.8,662.541 761.919,662.107 762.03,661.672 762.134,661.234 762.23,660.795 762.319,660.354 762.4,659.911     762.474,659.468 762.539,659.023 762.597,658.577 762.648,658.13 762.69,657.682 762.725,657.234 762.752,656.785     762.772,656.336 762.784,655.886 762.787,655.436   "
         id="polyline27641"
         style="stroke:#80ffe6;stroke-opacity:1" />
      <polygon
         fill="none"
         stroke="#00b9d2"
         stroke-width="2.75"
         stroke-linecap="round"
         stroke-linejoin="round"
         stroke-miterlimit="10"
         points="751.161,684.279 751.533,684.027 751.901,683.768 752.264,683.503 752.623,683.232 752.977,682.955 753.326,682.671 753.671,682.382 754.01,682.087 754.344,681.786 754.673,681.479 754.996,681.166 755.314,680.848 755.627,680.525 755.933,680.196 756.235,679.862 756.53,679.523 756.819,679.178 757.103,678.829 757.38,678.475 757.651,678.116 757.916,677.753 758.175,677.385 758.427,677.013 758.673,676.636 758.912,676.255 759.145,675.87 759.371,675.481 759.59,675.089 759.803,674.692 760.008,674.292 760.207,673.889 760.399,673.482 760.583,673.072 760.761,672.659 760.931,672.242 761.094,671.823 761.25,671.401 761.399,670.977 761.54,670.55 761.674,670.12 761.8,669.689 761.919,669.255 762.03,668.819 762.134,668.382 762.23,667.942 762.319,667.501 762.4,667.059 762.474,666.615 762.539,666.17 762.597,665.724 762.648,665.277 762.69,664.83 762.725,664.381 762.752,663.932 762.772,663.483 762.784,663.033 762.787,662.584 762.787,115.575 762.784,115.125 762.772,114.675 762.752,114.226 762.725,113.777 762.69,113.329 762.648,112.881 762.597,112.434 762.539,111.988 762.474,111.543 762.4,111.099 762.319,110.657 762.23,110.216 762.134,109.777 762.03,109.339 761.919,108.903 761.8,108.47 761.674,108.038 761.54,107.609 761.399,107.182 761.25,106.757 761.094,106.335 760.931,105.916 760.761,105.5 760.583,105.086 760.399,104.676 760.207,104.269 760.008,103.866 759.803,103.466 759.59,103.069 759.371,102.677 759.145,102.288 758.912,101.903 758.673,101.522 758.427,101.146 758.175,100.773 757.916,100.405 757.651,100.042 757.38,99.683 757.103,99.329 756.819,98.98 756.53,98.636 756.235,98.296 755.933,97.962 755.627,97.634 755.314,97.31 754.996,96.992 754.673,96.68 754.344,96.373 754.01,96.072 753.671,95.776 753.326,95.487 752.977,95.203 752.623,94.926 752.264,94.655 751.901,94.39 751.533,94.131 751.161,93.879 750.784,93.633 750.403,93.394 750.018,93.161 749.629,92.935 749.237,92.716 748.84,92.503 748.44,92.298 748.037,92.099 747.63,91.907 747.22,91.723 746.806,91.545 746.39,91.375 745.971,91.212 745.549,91.056 745.125,90.908 744.698,90.766 744.268,90.633 743.837,90.506 743.403,90.387 742.967,90.276 742.529,90.172 742.09,90.076 741.649,89.987 741.207,89.906 740.763,89.833 740.318,89.767 739.872,89.709 739.425,89.658 738.977,89.616 738.529,89.581 738.08,89.554 737.631,89.534 737.181,89.523 736.731,89.519 507.468,89.519 507.019,89.523 506.569,89.534 506.12,89.554 505.671,89.581 505.222,89.616 504.775,89.658 504.328,89.709 503.882,89.767 503.437,89.833 502.993,89.906 502.551,89.987 502.11,90.076 501.67,90.172 501.233,90.276 500.797,90.387 500.363,90.506 499.932,90.633 499.502,90.766 499.075,90.908 498.651,91.056 498.229,91.212 497.81,91.375 497.393,91.545 496.98,91.723 496.57,91.907 496.163,92.099 495.76,92.298 495.36,92.503 494.963,92.716 494.57,92.935 494.182,93.161 493.797,93.394 493.416,93.633 493.039,93.879 492.667,94.131 492.299,94.39 491.936,94.655 491.577,94.926 491.223,95.203 490.874,95.487 490.529,95.776 490.19,96.072 489.856,96.373 489.527,96.68 489.204,96.992 488.886,97.31 488.573,97.634 488.266,97.962 487.965,98.296 487.67,98.636 487.38,98.98 487.097,99.329 486.82,99.683 486.548,100.042 486.283,100.405 486.025,100.773 485.772,101.146 485.527,101.522 485.287,101.903 485.055,102.288 484.829,102.677 484.609,103.069 484.397,103.466 484.191,103.866 483.993,104.269 483.801,104.676 483.617,105.086 483.439,105.5 483.269,105.916 483.106,106.335 482.95,106.757 482.801,107.182 482.66,107.609 482.526,108.038 482.4,108.47 482.281,108.903 482.17,109.339 482.066,109.777 481.969,110.216 481.881,110.657 481.8,111.099 481.726,111.543 481.661,111.988 481.602,112.434 481.552,112.881 481.509,113.329 481.475,113.777 481.447,114.226 481.428,114.675 481.416,115.125 481.412,115.575 481.412,662.584 481.416,663.033 481.428,663.483 481.447,663.932 481.475,664.381 481.509,664.83 481.552,665.277 481.602,665.724 481.661,666.17 481.726,666.615 481.8,667.059 481.881,667.501 481.969,667.942 482.066,668.382 482.17,668.819 482.281,669.255 482.4,669.689 482.526,670.12 482.66,670.55 482.801,670.977 482.95,671.401 483.106,671.823 483.269,672.242 483.439,672.659 483.617,673.072 483.801,673.482 483.993,673.889 484.191,674.292 484.397,674.692 484.609,675.089 484.829,675.481 485.055,675.87 485.287,676.255 485.527,676.636 485.772,677.013 486.025,677.385 486.283,677.753 486.548,678.116 486.82,678.475 487.097,678.829 487.38,679.178 487.67,679.523 487.965,679.862 488.266,680.196 488.573,680.525 488.886,680.848 489.204,681.166 489.527,681.479 489.856,681.786 490.19,682.087 490.529,682.382 490.874,682.671 491.223,682.955 491.577,683.232 491.936,683.503 492.299,683.768 492.667,684.027 493.039,684.279 493.416,684.525 493.797,684.765 494.182,684.997 494.57,685.223 494.963,685.443 495.36,685.655 495.76,685.861 496.163,686.059 496.57,686.251 496.98,686.435 497.393,686.613 497.81,686.783 498.229,686.946 498.651,687.102 499.075,687.251 499.502,687.392 499.932,687.526 500.363,687.652 500.797,687.771 501.233,687.882 501.67,687.986 502.11,688.083 502.551,688.171 502.993,688.252 503.437,688.326 503.882,688.391 504.328,688.45 504.775,688.5 505.222,688.542 505.671,688.577 506.12,688.605 506.569,688.624 507.019,688.636 507.468,688.639 736.731,688.639 737.181,688.636 737.631,688.624 738.08,688.605 738.529,688.577 738.977,688.542 739.425,688.5 739.872,688.45 740.318,688.391 740.763,688.326 741.207,688.252 741.649,688.171 742.09,688.083 742.529,687.986 742.967,687.882 743.403,687.771 743.837,687.652 744.268,687.526 744.698,687.392 745.125,687.251 745.549,687.102 745.971,686.946 746.39,686.783 746.806,686.613 747.22,686.435 747.63,686.251 748.037,686.059 748.44,685.861 748.84,685.655 749.237,685.443 749.629,685.223 750.018,684.997 750.403,684.765 750.784,684.525 "
         id="polygon27644"
         style="stroke:#80ffe6;stroke-opacity:1" />
      <polygon
         fill="none"
         stroke="#00b9d2"
         stroke-width="3.25"
         stroke-linecap="round"
         stroke-linejoin="round"
         stroke-miterlimit="10"
         points="760.583,105.085 760.449,104.787 760.312,104.491 760.171,104.195 760.026,103.901 759.877,103.607 759.723,103.316 759.566,103.025 759.405,102.736 759.24,102.449 759.071,102.163 758.898,101.879 758.721,101.597 758.54,101.317 758.356,101.038 758.167,100.762 757.975,100.488 757.78,100.216 757.58,99.946 757.377,99.679 757.17,99.414 756.96,99.152 756.746,98.892 756.529,98.635 756.308,98.38 756.084,98.128 755.857,97.879 755.626,97.633 755.393,97.39 755.156,97.15 754.916,96.913 754.673,96.68 754.427,96.449 754.178,96.222 753.926,95.998 753.672,95.777 753.414,95.56 753.154,95.346 752.892,95.136 752.627,94.929 752.36,94.726 752.09,94.527 751.818,94.331 751.544,94.139 751.268,93.951 750.99,93.766 750.709,93.585 750.427,93.408 750.143,93.236 749.857,93.066 749.57,92.901 749.281,92.74 748.991,92.583 748.699,92.43 748.406,92.28 748.111,92.135 747.816,91.994 747.519,91.857 747.221,91.724 746.922,91.594 746.623,91.469 746.323,91.348 746.021,91.231 745.72,91.118 745.418,91.009 745.115,90.904 744.812,90.803 744.508,90.706 744.205,90.614 743.901,90.525 743.597,90.44 743.293,90.359 742.989,90.281 742.685,90.208 742.382,90.139 742.078,90.073 741.775,90.012 741.473,89.954 741.17,89.9 740.869,89.849 740.568,89.803 740.267,89.76 739.967,89.72 739.668,89.685 739.37,89.653 739.073,89.624 738.776,89.599 738.481,89.578 738.186,89.559 737.893,89.545 737.601,89.533 737.31,89.525 737.02,89.52 736.731,89.519 507.468,89.519 507.18,89.52 506.89,89.525 506.599,89.533 506.307,89.545 506.013,89.559 505.719,89.578 505.424,89.599 505.127,89.624 504.83,89.653 504.532,89.685 504.233,89.72 503.933,89.76 503.632,89.803 503.331,89.849 503.029,89.9 502.727,89.954 502.425,90.012 502.121,90.073 501.818,90.139 501.514,90.208 501.211,90.281 500.907,90.359 500.603,90.44 500.299,90.525 499.995,90.614 499.691,90.706 499.388,90.803 499.085,90.904 498.782,91.009 498.48,91.118 498.178,91.231 497.877,91.348 497.577,91.469 497.277,91.594 496.979,91.724 496.681,91.857 496.384,91.994 496.089,92.135 495.794,92.28 495.501,92.43 495.209,92.583 494.919,92.74 494.63,92.901 494.342,93.066 494.057,93.236 493.773,93.408 493.491,93.585 493.21,93.766 492.932,93.951 492.656,94.139 492.382,94.331 492.11,94.527 491.84,94.726 491.573,94.929 491.308,95.136 491.045,95.346 490.786,95.56 490.528,95.777 490.274,95.998 490.022,96.222 489.773,96.449 489.527,96.68 489.284,96.913 489.044,97.15 488.807,97.39 488.573,97.633 488.343,97.879 488.115,98.128 487.891,98.38 487.671,98.635 487.454,98.892 487.24,99.152 487.03,99.414 486.823,99.679 486.62,99.946 486.42,100.216 486.225,100.488 486.033,100.762 485.844,101.038 485.66,101.317 485.479,101.597 485.302,101.879 485.129,102.163 484.96,102.449 484.795,102.736 484.634,103.025 484.477,103.316 484.323,103.607 484.174,103.901 484.029,104.195 483.888,104.491 483.75,104.787 483.617,105.085 483.488,105.384 483.363,105.683 483.242,105.984 483.125,106.285 483.012,106.586 482.903,106.889 482.798,107.191 482.697,107.494 482.6,107.798 482.507,108.101 482.418,108.405 482.333,108.709 482.252,109.013 482.175,109.317 482.102,109.621 482.033,109.924 481.967,110.228 481.905,110.531 481.847,110.833 481.793,111.136 481.743,111.437 481.696,111.739 481.653,112.039 481.614,112.339 481.579,112.638 481.546,112.936 481.518,113.233 481.493,113.53 481.471,113.825 481.453,114.12 481.438,114.413 481.427,114.705 481.419,114.996 481.414,115.286 481.412,115.575 481.412,121.434 481.412,190.497 478.415,190.497 478.415,231.962 481.412,231.962 481.412,662.584 481.414,662.872 481.419,663.162 481.427,663.453 481.438,663.745 481.453,664.039 481.471,664.333 481.493,664.628 481.518,664.925 481.546,665.222 481.579,665.52 481.614,665.819 481.653,666.119 481.696,666.42 481.743,666.721 481.793,667.023 481.847,667.325 481.905,667.627 481.967,667.93 482.033,668.234 482.102,668.537 482.175,668.841 482.252,669.145 482.333,669.449 482.418,669.753 482.507,670.057 482.6,670.361 482.697,670.664 482.798,670.967 482.903,671.27 483.012,671.572 483.125,671.874 483.242,672.175 483.363,672.475 483.488,672.774 483.617,673.073 483.75,673.371 483.888,673.668 484.029,673.963 484.174,674.258 484.323,674.551 484.477,674.843 484.634,675.133 484.795,675.422 484.96,675.709 485.129,675.995 485.302,676.279 485.479,676.561 485.66,676.842 485.844,677.12 486.033,677.396 486.225,677.67 486.42,677.942 486.62,678.212 486.823,678.479 487.03,678.744 487.24,679.007 487.454,679.266 487.671,679.524 487.891,679.778 488.115,680.03 488.343,680.279 488.573,680.525 488.807,680.768 489.044,681.008 489.284,681.245 489.527,681.479 489.773,681.709 490.022,681.937 490.274,682.161 490.528,682.381 490.786,682.598 491.045,682.812 491.308,683.022 491.573,683.229 491.84,683.432 492.11,683.632 492.382,683.827 492.656,684.019 492.932,684.208 493.21,684.392 493.491,684.573 493.773,684.75 494.057,684.923 494.342,685.092 494.63,685.257 494.919,685.418 495.209,685.575 495.501,685.729 495.794,685.878 496.089,686.023 496.384,686.164 496.681,686.302 496.979,686.435 497.277,686.564 497.577,686.689 497.877,686.81 498.178,686.927 498.48,687.04 498.782,687.149 499.085,687.254 499.388,687.355 499.691,687.452 499.995,687.545 500.299,687.634 500.603,687.719 500.907,687.8 501.211,687.877 501.514,687.95 501.818,688.019 502.121,688.085 502.425,688.147 502.727,688.204 503.029,688.259 503.331,688.309 503.632,688.356 503.933,688.398 504.233,688.438 504.532,688.473 504.83,688.506 505.127,688.534 505.424,688.559 505.719,688.581 506.013,688.599 506.307,688.614 506.599,688.625 506.89,688.633 507.18,688.638 507.468,688.639 736.731,688.639 737.02,688.638 737.31,688.633 737.601,688.625 737.893,688.614 738.186,688.599 738.481,688.581 738.776,688.559 739.073,688.534 739.37,688.506 739.668,688.473 739.967,688.438 740.267,688.398 740.568,688.356 740.869,688.309 741.17,688.259 741.473,688.204 741.775,688.147 742.078,688.085 742.382,688.019 742.685,687.95 742.989,687.877 743.293,687.8 743.597,687.719 743.901,687.634 744.205,687.545 744.508,687.452 744.812,687.355 745.115,687.254 745.418,687.149 745.72,687.04 746.021,686.927 746.323,686.81 746.623,686.689 746.922,686.564 747.221,686.435 747.519,686.302 747.816,686.164 748.111,686.023 748.406,685.878 748.699,685.729 748.991,685.575 749.281,685.418 749.57,685.257 749.857,685.092 750.143,684.923 750.427,684.75 750.709,684.573 750.99,684.392 751.268,684.208 751.544,684.019 751.818,683.827 752.09,683.632 752.36,683.432 752.627,683.229 752.892,683.022 753.154,682.812 753.414,682.598 753.672,682.381 753.926,682.161 754.178,681.937 754.427,681.709 754.673,681.479 754.916,681.245 755.156,681.008 755.393,680.768 755.626,680.525 755.857,680.279 756.084,680.03 756.308,679.778 756.529,679.524 756.746,679.266 756.96,679.007 757.17,678.744 757.377,678.479 757.58,678.212 757.78,677.942 757.975,677.67 758.167,677.396 758.356,677.12 758.54,676.842 758.721,676.561 758.898,676.279 759.071,675.995 759.24,675.709 759.405,675.422 759.566,675.133 759.723,674.843 759.877,674.551 760.026,674.258 760.171,673.963 760.312,673.668 760.449,673.371 760.583,673.073 760.712,672.774 760.837,672.475 760.958,672.175 761.075,671.874 761.188,671.572 761.297,671.27 761.402,670.967 761.503,670.664 761.6,670.361 761.693,670.057 761.782,669.753 761.867,669.449 761.948,669.145 762.025,668.841 762.098,668.537 762.167,668.234 762.233,667.93 762.294,667.627 762.352,667.325 762.406,667.023 762.457,666.721 762.503,666.42 762.546,666.119 762.586,665.819 762.621,665.52 762.653,665.222 762.682,664.925 762.707,664.628 762.729,664.333 762.747,664.039 762.761,663.745 762.773,663.453 762.781,663.162 762.786,662.872 762.787,662.584 762.787,655.436 762.787,320.453 765.785,320.453 765.785,280.502 762.787,280.502 762.787,244.232 765.785,244.232 765.785,164.695 762.787,164.695 762.787,115.575 762.786,115.286 762.781,114.996 762.773,114.705 762.761,114.413 762.747,114.12 762.729,113.825 762.707,113.53 762.682,113.233 762.653,112.936 762.621,112.638 762.586,112.339 762.546,112.039 762.503,111.739 762.457,111.437 762.406,111.136 762.352,110.833 762.294,110.531 762.233,110.228 762.167,109.924 762.098,109.621 762.025,109.317 761.948,109.013 761.867,108.709 761.782,108.405 761.693,108.101 761.6,107.798 761.503,107.494 761.402,107.191 761.297,106.889 761.188,106.586 761.075,106.285 760.958,105.984 760.837,105.683 760.712,105.384 "
         id="polygon27681"
         style="stroke:#80ffe6;stroke-opacity:1" />
    </g>
  </g>
</svg>
