<?xml version="1.0" encoding="UTF-8" standalone="no"?>
<svg
   xmlns:dc="http://purl.org/dc/elements/1.1/"
   xmlns:cc="http://creativecommons.org/ns#"
   xmlns:rdf="http://www.w3.org/1999/02/22-rdf-syntax-ns#"
   xmlns:svg="http://www.w3.org/2000/svg"
   xmlns="http://www.w3.org/2000/svg"
   xmlns:sodipodi="http://sodipodi.sourceforge.net/DTD/sodipodi-0.dtd"
   xmlns:inkscape="http://www.inkscape.org/namespaces/inkscape"
   width="15.000001mm"
   height="31.091709mm"
   viewBox="0 0 15.000002 31.091711"
   version="1.1"
   id="svg4830"
   inkscape:version="1.0.2 (e86c8708, 2021-01-15)"
   sodipodi:docname="s10.svg">
  <defs
     id="defs4824" />
  <sodipodi:namedview
     id="base"
     pagecolor="#ffffff"
     bordercolor="#666666"
     borderopacity="1.0"
     inkscape:pageopacity="0.0"
     inkscape:pageshadow="2"
     inkscape:zoom="3.8813991"
     inkscape:cx="32.287061"
     inkscape:cy="85.258123"
     inkscape:document-units="mm"
     inkscape:current-layer="layer1"
     inkscape:document-rotation="0"
     showgrid="false"
     inkscape:window-width="1440"
     inkscape:window-height="872"
     inkscape:window-x="0"
     inkscape:window-y="28"
     inkscape:window-maximized="0" />
  <metadata
     id="metadata4827">
    <rdf:RDF>
      <cc:Work
         rdf:about="">
        <dc:format>image/svg+xml</dc:format>
        <dc:type
           rdf:resource="http://purl.org/dc/dcmitype/StillImage" />
        <dc:title></dc:title>
      </cc:Work>
    </rdf:RDF>
  </metadata>
  <g
     inkscape:label="Layer 1"
     inkscape:groupmode="layer"
     id="layer1"
     transform="translate(-75.098116,-120.6958)">
    <g
       id="g26415"
       transform="matrix(0.05055135,0,0,0.05055135,50.817089,116.45065)"
       style="stroke:#80ffe6;stroke-opacity:1">
      <g
         id="POLYLINE_1125_"
         style="stroke:#80ffe6;stroke-opacity:1">
        <polygon
           fill="none"
           stroke="#00b9d2"
           stroke-width="2"
           stroke-linecap="round"
           stroke-linejoin="round"
           stroke-miterlimit="10"
           points="710.489,198.524 710.362,198.698 710.232,198.87 710.099,199.039 709.963,199.207 709.824,199.371 709.683,199.534 709.539,199.694 709.392,199.851 709.242,200.006 709.09,200.159 708.935,200.308 708.777,200.455 708.617,200.599 708.455,200.741 708.29,200.88 708.123,201.015 707.953,201.148 707.781,201.278 707.607,201.405 707.431,201.529 707.253,201.65 707.072,201.767 706.89,201.882 706.706,201.993 706.519,202.102 706.331,202.207 706.142,202.308 705.95,202.407 705.757,202.502 705.562,202.594 705.365,202.682 705.167,202.767 704.968,202.849 704.767,202.927 704.565,203.002 704.362,203.073 704.157,203.14 703.952,203.204 703.745,203.265 703.537,203.322 703.329,203.375 703.119,203.425 702.909,203.471 702.697,203.514 702.486,203.552 702.273,203.588 702.06,203.619 701.846,203.647 701.632,203.671 701.418,203.691 701.203,203.708 700.988,203.721 700.773,203.73 700.557,203.736 700.342,203.738 557.034,203.738 556.818,203.736 556.603,203.73 556.388,203.721 556.173,203.708 555.958,203.691 555.744,203.671 555.529,203.647 555.316,203.619 555.103,203.588 554.89,203.552 554.678,203.514 554.467,203.471 554.257,203.425 554.047,203.375 553.839,203.322 553.631,203.265 553.424,203.204 553.218,203.14 553.014,203.073 552.81,203.002 552.608,202.927 552.408,202.849 552.208,202.767 552.01,202.682 551.814,202.594 551.619,202.502 551.426,202.407 551.234,202.308 551.044,202.207 550.856,202.102 550.67,201.993 550.486,201.882 550.303,201.767 550.123,201.65 549.945,201.529 549.768,201.405 549.594,201.278 549.422,201.148 549.253,201.015 549.086,200.88 548.921,200.741 548.758,200.599 548.598,200.455 548.441,200.308 548.286,200.159 548.134,200.006 547.984,199.851 547.837,199.694 547.693,199.534 547.551,199.371 547.413,199.207 547.277,199.039 547.144,198.87 547.014,198.698 546.887,198.524 546.763,198.348 546.643,198.169 546.525,197.989 546.41,197.806 546.299,197.622 546.191,197.436 546.086,197.248 545.984,197.058 545.885,196.866 545.79,196.673 545.698,196.478 545.61,196.282 545.525,196.084 545.443,195.884 545.365,195.684 545.291,195.482 545.219,195.278 545.152,195.074 545.088,194.868 545.027,194.661 544.97,194.454 544.917,194.245 544.867,194.035 544.821,193.825 544.779,193.614 544.74,193.402 544.705,193.189 544.673,192.976 544.645,192.763 544.621,192.549 544.601,192.334 544.584,192.119 544.571,191.904 544.562,191.689 544.556,191.474 544.554,191.259 544.554,175.461 544.556,175.246 544.562,175.031 544.571,174.815 544.584,174.6 544.601,174.386 544.621,174.171 544.645,173.957 544.673,173.744 544.705,173.53 544.74,173.318 544.779,173.106 544.821,172.895 544.867,172.684 544.917,172.475 544.97,172.266 545.027,172.058 545.088,171.852 545.152,171.646 545.219,171.442 545.291,171.238 545.365,171.036 545.443,170.835 545.525,170.636 545.61,170.438 545.698,170.242 545.79,170.047 545.885,169.854 545.984,169.662 546.086,169.472 546.191,169.284 546.299,169.098 546.41,168.913 546.525,168.731 546.643,168.551 546.763,168.372 546.887,168.196 547.014,168.022 547.144,167.85 547.277,167.681 547.413,167.513 547.551,167.348 547.693,167.186 547.837,167.026 547.984,166.869 548.134,166.714 548.286,166.561 548.441,166.412 548.598,166.265 548.758,166.12 548.921,165.979 549.086,165.84 549.253,165.705 549.422,165.572 549.594,165.442 549.768,165.315 549.945,165.191 550.123,165.07 550.303,164.952 550.486,164.838 550.67,164.726 550.856,164.618 551.044,164.513 551.234,164.411 551.426,164.313 551.619,164.218 551.814,164.126 552.01,164.038 552.208,163.953 552.408,163.871 552.608,163.793 552.81,163.718 553.014,163.647 553.218,163.58 553.424,163.515 553.631,163.455 553.839,163.398 554.047,163.345 554.257,163.295 554.467,163.249 554.678,163.206 554.89,163.167 555.103,163.132 555.316,163.101 555.529,163.073 555.744,163.049 555.958,163.028 556.173,163.012 556.388,162.999 556.603,162.989 556.818,162.984 557.034,162.982 700.342,162.982 700.557,162.984 700.773,162.989 700.988,162.999 701.203,163.012 701.418,163.028 701.632,163.049 701.846,163.073 702.06,163.101 702.273,163.132 702.486,163.167 702.697,163.206 702.909,163.249 703.119,163.295 703.329,163.345 703.537,163.398 703.745,163.455 703.952,163.515 704.157,163.58 704.362,163.647 704.565,163.718 704.767,163.793 704.968,163.871 705.167,163.953 705.365,164.038 705.562,164.126 705.757,164.218 705.95,164.313 706.142,164.411 706.331,164.513 706.519,164.618 706.706,164.726 706.89,164.838 707.072,164.952 707.253,165.07 707.431,165.191 707.607,165.315 707.781,165.442 707.953,165.572 708.123,165.705 708.29,165.84 708.455,165.979 708.617,166.12 708.777,166.265 708.935,166.412 709.09,166.561 709.242,166.714 709.392,166.869 709.539,167.026 709.683,167.186 709.824,167.348 709.963,167.513 710.099,167.681 710.232,167.85 710.362,168.022 710.489,168.196 710.612,168.372 710.733,168.551 710.851,168.731 710.966,168.913 711.077,169.098 711.185,169.284 711.29,169.472 711.392,169.662 711.49,169.854 711.586,170.047 711.677,170.242 711.766,170.438 711.851,170.636 711.932,170.835 712.01,171.036 712.085,171.238 712.156,171.442 712.224,171.646 712.288,171.852 712.349,172.058 712.405,172.266 712.459,172.475 712.509,172.684 712.555,172.895 712.597,173.106 712.636,173.318 712.671,173.53 712.703,173.744 712.73,173.957 712.755,174.171 712.775,174.386 712.792,174.6 712.805,174.815 712.814,175.031 712.82,175.246 712.821,175.461 712.821,191.259 712.82,191.474 712.814,191.689 712.805,191.904 712.792,192.119 712.775,192.334 712.755,192.549 712.73,192.763 712.703,192.976 712.671,193.189 712.636,193.402 712.597,193.614 712.555,193.825 712.509,194.035 712.459,194.245 712.405,194.454 712.349,194.661 712.288,194.868 712.224,195.074 712.156,195.278 712.085,195.482 712.01,195.684 711.932,195.884 711.851,196.084 711.766,196.282 711.677,196.478 711.586,196.673 711.49,196.866 711.392,197.058 711.29,197.248 711.185,197.436 711.077,197.622 710.966,197.806 710.851,197.989 710.733,198.169 710.612,198.348 "
           id="polygon25642"
           style="stroke:#80ffe6;stroke-opacity:1" />
      </g>
      <g
         id="POLYLINE_351_"
         style="stroke:#80ffe6;stroke-opacity:1">
        <path
           fill="none"
           stroke="#00b9d2"
           stroke-width="2.75"
           stroke-linecap="round"
           stroke-linejoin="round"
           stroke-miterlimit="10"
           d="m 569.203,183.36 c 0.009,-2.315 -1.598,-4.38 -3.844,-4.939 -3.236,-0.815 -6.37,1.646 -6.345,4.983 0.032,3.3 3.145,5.702 6.345,4.894 2.246,-0.558 3.853,-2.623 3.844,-4.938 z"
           id="path25661"
           style="stroke:#80ffe6;stroke-opacity:1" />
      </g>
      <g
         id="POLYLINE_350_"
         style="stroke:#80ffe6;stroke-opacity:1">
        <polygon
           fill="none"
           stroke="#00b9d2"
           stroke-width="2.75"
           stroke-linecap="round"
           stroke-linejoin="round"
           stroke-miterlimit="10"
           points="558.339,190.214 558.273,190.166 558.208,190.118 558.145,190.068 558.082,190.017 558.02,189.964 557.958,189.911 557.898,189.857 557.839,189.802 557.781,189.745 557.724,189.688 557.667,189.63 557.612,189.57 557.558,189.51 557.504,189.449 557.452,189.387 557.401,189.324 557.351,189.26 557.302,189.196 557.255,189.13 557.208,189.064 557.163,188.997 557.118,188.929 557.075,188.861 557.033,188.791 556.993,188.721 556.953,188.65 556.915,188.579 556.878,188.507 556.842,188.434 556.807,188.361 556.774,188.287 556.742,188.213 556.712,188.138 556.682,188.062 556.654,187.986 556.627,187.91 556.602,187.833 556.578,187.755 556.555,187.677 556.534,187.599 556.513,187.521 556.495,187.442 556.477,187.363 556.461,187.283 556.447,187.204 556.434,187.124 556.422,187.044 556.411,186.963 556.402,186.883 556.395,186.802 556.388,186.721 556.383,186.64 556.38,186.559 556.378,186.478 556.377,186.397 556.377,180.323 556.378,180.242 556.38,180.161 556.383,180.08 556.388,179.999 556.395,179.918 556.402,179.837 556.411,179.757 556.422,179.676 556.434,179.596 556.447,179.516 556.461,179.437 556.477,179.357 556.495,179.278 556.513,179.199 556.534,179.121 556.555,179.042 556.578,178.965 556.602,178.887 556.627,178.81 556.654,178.734 556.682,178.658 556.712,178.582 556.742,178.507 556.774,178.433 556.807,178.359 556.842,178.286 556.878,178.213 556.915,178.141 556.953,178.07 556.993,177.999 557.033,177.929 557.075,177.859 557.118,177.791 557.163,177.723 557.208,177.656 557.255,177.59 557.302,177.524 557.351,177.459 557.401,177.396 557.452,177.333 557.504,177.271 557.558,177.21 557.612,177.149 557.667,177.09 557.724,177.032 557.781,176.975 557.839,176.918 557.898,176.863 557.958,176.809 558.02,176.756 558.082,176.703 558.145,176.652 558.208,176.602 558.273,176.553 558.339,176.506 558.405,176.459 558.472,176.414 558.54,176.369 558.608,176.326 558.678,176.284 558.748,176.244 558.818,176.204 558.89,176.166 558.962,176.129 559.035,176.093 559.108,176.059 559.182,176.025 559.256,175.993 559.331,175.963 559.407,175.933 559.483,175.905 559.559,175.878 559.636,175.853 559.714,175.829 559.791,175.806 559.87,175.785 559.948,175.765 560.027,175.746 560.106,175.728 560.185,175.712 560.265,175.698 560.345,175.685 560.425,175.673 560.506,175.662 560.586,175.653 560.667,175.646 560.748,175.639 560.828,175.634 560.909,175.631 560.99,175.629 561.071,175.628 567.145,175.628 567.226,175.629 567.307,175.631 567.388,175.634 567.469,175.639 567.549,175.646 567.63,175.653 567.711,175.662 567.791,175.673 567.871,175.685 567.951,175.698 568.031,175.712 568.11,175.728 568.189,175.746 568.268,175.765 568.347,175.785 568.425,175.806 568.503,175.829 568.58,175.853 568.657,175.878 568.733,175.905 568.809,175.933 568.885,175.963 568.96,175.993 569.034,176.025 569.108,176.059 569.182,176.093 569.254,176.129 569.326,176.166 569.398,176.204 569.469,176.244 569.539,176.284 569.608,176.326 569.677,176.369 569.744,176.414 569.812,176.459 569.878,176.506 569.943,176.553 570.008,176.602 570.072,176.652 570.135,176.703 570.197,176.756 570.258,176.809 570.318,176.863 570.377,176.918 570.435,176.975 570.493,177.032 570.549,177.09 570.604,177.149 570.659,177.21 570.712,177.271 570.764,177.333 570.815,177.396 570.865,177.459 570.914,177.524 570.962,177.59 571.008,177.656 571.054,177.723 571.098,177.791 571.141,177.859 571.183,177.929 571.224,177.999 571.263,178.07 571.302,178.141 571.339,178.213 571.374,178.286 571.409,178.359 571.442,178.433 571.474,178.507 571.505,178.582 571.534,178.658 571.562,178.734 571.589,178.81 571.614,178.887 571.639,178.965 571.661,179.042 571.683,179.121 571.703,179.199 571.722,179.278 571.739,179.357 571.755,179.437 571.769,179.516 571.783,179.596 571.795,179.676 571.805,179.757 571.814,179.837 571.822,179.918 571.828,179.999 571.833,180.08 571.836,180.161 571.839,180.242 571.839,180.323 571.839,186.397 571.839,186.478 571.836,186.559 571.833,186.64 571.828,186.721 571.822,186.802 571.814,186.883 571.805,186.963 571.795,187.044 571.783,187.124 571.769,187.204 571.755,187.283 571.739,187.363 571.722,187.442 571.703,187.521 571.683,187.599 571.661,187.677 571.639,187.755 571.614,187.833 571.589,187.91 571.562,187.986 571.534,188.062 571.505,188.138 571.474,188.213 571.442,188.287 571.409,188.361 571.374,188.434 571.339,188.507 571.302,188.579 571.263,188.65 571.224,188.721 571.183,188.791 571.141,188.861 571.098,188.929 571.054,188.997 571.008,189.064 570.962,189.13 570.914,189.196 570.865,189.26 570.815,189.324 570.764,189.387 570.712,189.449 570.659,189.51 570.604,189.57 570.549,189.63 570.493,189.688 570.435,189.745 570.377,189.802 570.318,189.857 570.258,189.911 570.197,189.964 570.135,190.017 570.072,190.068 570.008,190.118 569.943,190.166 569.878,190.214 569.812,190.261 569.744,190.306 569.677,190.351 569.608,190.394 569.539,190.436 569.469,190.476 569.398,190.516 569.326,190.554 569.254,190.591 569.182,190.627 569.108,190.661 569.034,190.695 568.96,190.727 568.885,190.757 568.809,190.787 568.733,190.815 568.657,190.842 568.58,190.867 568.503,190.891 568.425,190.914 568.347,190.935 568.268,190.955 568.189,190.974 568.11,190.991 568.031,191.007 567.951,191.022 567.871,191.035 567.791,191.047 567.711,191.058 567.63,191.067 567.549,191.074 567.469,191.081 567.388,191.085 567.307,191.089 567.226,191.091 567.145,191.092 561.071,191.092 560.99,191.091 560.909,191.089 560.828,191.085 560.748,191.081 560.667,191.074 560.586,191.067 560.506,191.058 560.425,191.047 560.345,191.035 560.265,191.022 560.185,191.007 560.106,190.991 560.027,190.974 559.948,190.955 559.87,190.935 559.791,190.914 559.714,190.891 559.636,190.867 559.559,190.842 559.483,190.815 559.407,190.787 559.331,190.757 559.256,190.727 559.182,190.695 559.108,190.661 559.035,190.627 558.962,190.591 558.89,190.554 558.818,190.516 558.748,190.476 558.678,190.436 558.608,190.394 558.54,190.351 558.472,190.306 558.405,190.261 "
           id="polygon25664"
           style="stroke:#80ffe6;stroke-opacity:1" />
      </g>
      <g
         id="POLYLINE_349_"
         style="stroke:#80ffe6;stroke-opacity:1">
        <polygon
           fill="none"
           stroke="#00b9d2"
           stroke-width="2.75"
           stroke-linecap="round"
           stroke-linejoin="round"
           stroke-miterlimit="10"
           points="599.535,192.749 599.446,192.684 599.358,192.618 599.271,192.55 599.186,192.481 599.101,192.41 599.018,192.337 598.936,192.264 598.856,192.188 598.776,192.112 598.699,192.034 598.622,191.955 598.547,191.874 598.473,191.792 598.401,191.709 598.33,191.625 598.26,191.539 598.192,191.453 598.126,191.365 598.061,191.276 597.998,191.186 597.936,191.094 597.876,191.002 597.817,190.909 597.76,190.814 597.705,190.719 597.651,190.623 597.599,190.526 597.549,190.428 597.5,190.329 597.453,190.229 597.408,190.129 597.364,190.028 597.322,189.926 597.283,189.823 597.244,189.72 597.208,189.616 597.173,189.511 597.141,189.406 597.11,189.3 597.081,189.194 597.053,189.087 597.028,188.98 597.004,188.872 596.982,188.764 596.963,188.656 596.945,188.547 596.928,188.438 596.914,188.329 596.902,188.219 596.891,188.11 596.883,188 596.876,187.89 596.872,187.78 596.869,187.67 596.868,187.559 596.868,179.16 596.869,179.05 596.872,178.94 596.876,178.83 596.883,178.72 596.891,178.61 596.902,178.501 596.914,178.391 596.928,178.282 596.945,178.173 596.963,178.064 596.982,177.956 597.004,177.848 597.028,177.74 597.053,177.633 597.081,177.526 597.11,177.42 597.141,177.314 597.173,177.209 597.208,177.104 597.244,177 597.283,176.897 597.322,176.794 597.364,176.692 597.408,176.591 597.453,176.491 597.5,176.391 597.549,176.292 597.599,176.194 597.651,176.097 597.705,176.001 597.76,175.905 597.817,175.811 597.876,175.718 597.936,175.626 597.998,175.534 598.061,175.444 598.126,175.355 598.192,175.267 598.26,175.181 598.33,175.095 598.401,175.011 598.473,174.928 598.547,174.846 598.622,174.765 598.699,174.686 598.776,174.608 598.856,174.531 598.936,174.456 599.018,174.383 599.101,174.31 599.186,174.239 599.271,174.17 599.358,174.102 599.446,174.035 599.535,173.971 599.625,173.907 599.716,173.845 599.808,173.785 599.902,173.727 599.996,173.669 600.091,173.614 600.187,173.56 600.285,173.508 600.383,173.458 600.481,173.409 600.581,173.362 600.682,173.317 600.783,173.274 600.885,173.232 600.987,173.192 601.091,173.154 601.195,173.117 601.299,173.083 601.405,173.05 601.51,173.019 601.617,172.99 601.723,172.963 601.831,172.937 601.938,172.914 602.046,172.892 602.155,172.872 602.263,172.854 602.372,172.838 602.482,172.824 602.591,172.811 602.701,172.801 602.811,172.792 602.921,172.786 603.031,172.781 603.141,172.778 603.251,172.777 611.648,172.777 611.758,172.778 611.868,172.781 611.978,172.786 612.088,172.792 612.198,172.801 612.308,172.811 612.417,172.824 612.527,172.838 612.636,172.854 612.744,172.872 612.853,172.892 612.961,172.914 613.068,172.937 613.176,172.963 613.282,172.99 613.389,173.019 613.494,173.05 613.599,173.083 613.704,173.117 613.808,173.154 613.911,173.192 614.014,173.232 614.116,173.274 614.217,173.317 614.318,173.362 614.417,173.409 614.516,173.458 614.614,173.508 614.711,173.56 614.808,173.614 614.903,173.669 614.997,173.727 615.091,173.785 615.183,173.845 615.274,173.907 615.364,173.971 615.453,174.035 615.541,174.102 615.628,174.17 615.713,174.239 615.798,174.31 615.881,174.383 615.963,174.456 616.043,174.531 616.122,174.608 616.2,174.686 616.277,174.765 616.352,174.846 616.426,174.928 616.498,175.011 616.569,175.095 616.639,175.181 616.706,175.267 616.773,175.355 616.838,175.444 616.901,175.534 616.963,175.626 617.023,175.718 617.082,175.811 617.139,175.905 617.194,176.001 617.248,176.097 617.3,176.194 617.35,176.292 617.399,176.391 617.446,176.491 617.491,176.591 617.535,176.692 617.576,176.794 617.616,176.897 617.655,177 617.691,177.104 617.726,177.209 617.758,177.314 617.789,177.42 617.818,177.526 617.846,177.633 617.871,177.74 617.895,177.848 617.916,177.956 617.936,178.064 617.954,178.173 617.97,178.282 617.985,178.391 617.997,178.501 618.007,178.61 618.016,178.72 618.023,178.83 618.027,178.94 618.03,179.05 618.031,179.16 618.031,187.559 618.03,187.67 618.027,187.78 618.023,187.89 618.016,188 618.007,188.11 617.997,188.219 617.985,188.329 617.97,188.438 617.954,188.547 617.936,188.656 617.916,188.764 617.895,188.872 617.871,188.98 617.846,189.087 617.818,189.194 617.789,189.3 617.758,189.406 617.726,189.511 617.691,189.616 617.655,189.72 617.616,189.823 617.576,189.926 617.535,190.028 617.491,190.129 617.446,190.229 617.399,190.329 617.35,190.428 617.3,190.526 617.248,190.623 617.194,190.719 617.139,190.814 617.082,190.909 617.023,191.002 616.963,191.094 616.901,191.186 616.838,191.276 616.773,191.365 616.706,191.453 616.639,191.539 616.569,191.625 616.498,191.709 616.426,191.792 616.352,191.874 616.277,191.955 616.2,192.034 616.122,192.112 616.043,192.188 615.963,192.264 615.881,192.337 615.798,192.41 615.713,192.481 615.628,192.55 615.541,192.618 615.453,192.684 615.364,192.749 615.274,192.813 615.183,192.875 615.091,192.935 614.997,192.993 614.903,193.05 614.808,193.106 614.711,193.159 614.614,193.212 614.516,193.262 614.417,193.311 614.318,193.357 614.217,193.403 614.116,193.446 614.014,193.488 613.911,193.528 613.808,193.566 613.704,193.602 613.599,193.637 613.494,193.67 613.389,193.701 613.282,193.73 613.176,193.757 613.068,193.783 612.961,193.806 612.853,193.828 612.744,193.848 612.636,193.866 612.527,193.882 612.417,193.896 612.308,193.908 612.198,193.919 612.088,193.927 611.978,193.934 611.868,193.939 611.758,193.942 611.648,193.943 603.251,193.943 603.141,193.942 603.031,193.939 602.921,193.934 602.811,193.927 602.701,193.919 602.591,193.908 602.482,193.896 602.372,193.882 602.263,193.866 602.155,193.848 602.046,193.828 601.938,193.806 601.831,193.783 601.723,193.757 601.617,193.73 601.51,193.701 601.405,193.67 601.299,193.637 601.195,193.602 601.091,193.566 600.987,193.528 600.885,193.488 600.783,193.446 600.682,193.403 600.581,193.357 600.481,193.311 600.383,193.262 600.285,193.212 600.187,193.159 600.091,193.106 599.996,193.05 599.902,192.993 599.808,192.935 599.716,192.875 599.625,192.813 "
           id="polygon25667"
           style="stroke:#80ffe6;stroke-opacity:1" />
      </g>
      <g
         id="POLYLINE_348_"
         style="stroke:#80ffe6;stroke-opacity:1">
        <path
           fill="none"
           stroke="#00b9d2"
           stroke-width="2.75"
           stroke-linecap="round"
           stroke-linejoin="round"
           stroke-miterlimit="10"
           d="m 614.414,183.36 c 0.01,-3.169 -2.18,-5.983 -5.255,-6.751 -4.377,-1.102 -8.629,2.177 -8.674,6.691 -0.032,4.564 4.248,7.926 8.674,6.812 3.075,-0.769 5.265,-3.583 5.255,-6.752 z"
           id="path25670"
           style="stroke:#80ffe6;stroke-opacity:1" />
      </g>
      <g
         id="POLYLINE_347_-0"
         style="stroke:#80ffe6;stroke-opacity:1">
        <path
           fill="none"
           stroke="#00b9d2"
           stroke-width="2.75"
           stroke-linecap="round"
           stroke-linejoin="round"
           stroke-miterlimit="10"
           d="m 658.045,183.36 c 0.011,-3.418 -2.352,-6.454 -5.668,-7.282 -4.721,-1.189 -9.307,2.349 -9.356,7.217 -0.035,4.923 4.581,8.549 9.356,7.348 3.316,-0.83 5.678,-3.865 5.668,-7.283 z"
           id="path25673"
           style="stroke:#80ffe6;stroke-opacity:1" />
      </g>
      <g
         id="POLYLINE_346_-7"
         style="stroke:#80ffe6;stroke-opacity:1">
        <polygon
           fill="none"
           stroke="#00b9d2"
           stroke-width="2.75"
           stroke-linecap="round"
           stroke-linejoin="round"
           stroke-miterlimit="10"
           points="642.727,193.568 642.618,193.489 642.51,193.408 642.404,193.325 642.299,193.24 642.196,193.153 642.095,193.064 641.995,192.974 641.896,192.882 641.799,192.789 641.704,192.693 641.61,192.596 641.518,192.498 641.428,192.398 641.339,192.296 641.253,192.193 641.168,192.088 641.085,191.982 641.003,191.875 640.924,191.766 640.846,191.655 640.771,191.544 640.697,191.431 640.625,191.317 640.556,191.201 640.488,191.085 640.422,190.967 640.358,190.848 640.297,190.729 640.237,190.608 640.18,190.486 640.125,190.363 640.071,190.239 640.02,190.114 639.971,189.989 639.925,189.862 639.88,189.735 639.838,189.607 639.798,189.478 639.76,189.349 639.724,189.219 639.691,189.088 639.66,188.957 639.631,188.825 639.604,188.693 639.58,188.561 639.558,188.428 639.538,188.294 639.521,188.161 639.506,188.027 639.493,187.893 639.483,187.758 639.475,187.624 639.469,187.489 639.465,187.354 639.464,187.22 639.464,179.5 639.465,179.366 639.469,179.231 639.475,179.096 639.483,178.962 639.493,178.827 639.506,178.693 639.521,178.559 639.538,178.425 639.558,178.292 639.58,178.159 639.604,178.027 639.631,177.894 639.66,177.763 639.691,177.632 639.724,177.501 639.76,177.371 639.798,177.242 639.838,177.113 639.88,176.985 639.925,176.858 639.971,176.731 640.02,176.606 640.071,176.481 640.125,176.357 640.18,176.234 640.237,176.112 640.297,175.991 640.358,175.871 640.422,175.753 640.488,175.635 640.556,175.518 640.625,175.403 640.697,175.289 640.771,175.176 640.846,175.065 640.924,174.954 641.003,174.845 641.085,174.738 641.168,174.632 641.253,174.527 641.339,174.424 641.428,174.322 641.518,174.222 641.61,174.124 641.704,174.027 641.799,173.931 641.896,173.838 641.995,173.746 642.095,173.656 642.196,173.567 642.299,173.48 642.404,173.395 642.51,173.312 642.618,173.231 642.727,173.152 642.837,173.074 642.948,172.998 643.061,172.925 643.175,172.853 643.291,172.783 643.407,172.716 643.525,172.65 643.644,172.586 643.764,172.525 643.885,172.465 644.007,172.408 644.129,172.352 644.253,172.299 644.378,172.248 644.504,172.199 644.63,172.152 644.757,172.108 644.885,172.066 645.014,172.026 645.143,171.988 645.273,171.952 645.404,171.919 645.535,171.888 645.667,171.859 645.799,171.832 645.931,171.808 646.064,171.786 646.198,171.766 646.331,171.749 646.465,171.734 646.6,171.721 646.734,171.71 646.868,171.702 647.003,171.696 647.138,171.693 647.273,171.692 653.792,171.692 653.927,171.693 654.062,171.696 654.196,171.702 654.331,171.71 654.465,171.721 654.599,171.734 654.733,171.749 654.867,171.766 655,171.786 655.133,171.808 655.266,171.832 655.398,171.859 655.53,171.888 655.661,171.919 655.791,171.952 655.921,171.988 656.051,172.026 656.18,172.066 656.307,172.108 656.435,172.152 656.561,172.199 656.687,172.248 656.811,172.299 656.935,172.352 657.058,172.408 657.18,172.465 657.301,172.525 657.421,172.586 657.54,172.65 657.657,172.716 657.774,172.783 657.889,172.853 658.003,172.925 658.116,172.998 658.228,173.074 658.338,173.152 658.447,173.231 658.555,173.312 658.661,173.395 658.765,173.48 658.869,173.567 658.97,173.656 659.07,173.746 659.169,173.838 659.266,173.931 659.361,174.027 659.455,174.124 659.547,174.222 659.637,174.322 659.725,174.424 659.812,174.527 659.897,174.632 659.98,174.738 660.062,174.845 660.141,174.954 660.219,175.065 660.294,175.176 660.368,175.289 660.44,175.403 660.509,175.518 660.577,175.635 660.643,175.753 660.706,175.871 660.768,175.991 660.827,176.112 660.885,176.234 660.94,176.357 660.993,176.481 661.044,176.606 661.093,176.731 661.14,176.858 661.185,176.985 661.227,177.113 661.267,177.242 661.305,177.371 661.34,177.501 661.374,177.632 661.405,177.763 661.434,177.894 661.46,178.027 661.485,178.159 661.507,178.292 661.526,178.425 661.544,178.559 661.559,178.693 661.572,178.827 661.582,178.962 661.59,179.096 661.596,179.231 661.6,179.366 661.601,179.5 661.601,187.22 661.6,187.354 661.596,187.489 661.59,187.624 661.582,187.758 661.572,187.893 661.559,188.027 661.544,188.161 661.526,188.294 661.507,188.428 661.485,188.561 661.46,188.693 661.434,188.825 661.405,188.957 661.374,189.088 661.34,189.219 661.305,189.349 661.267,189.478 661.227,189.607 661.185,189.735 661.14,189.862 661.093,189.989 661.044,190.114 660.993,190.239 660.94,190.363 660.885,190.486 660.827,190.608 660.768,190.729 660.706,190.848 660.643,190.967 660.577,191.085 660.509,191.201 660.44,191.317 660.368,191.431 660.294,191.544 660.219,191.655 660.141,191.766 660.062,191.875 659.98,191.982 659.897,192.088 659.812,192.193 659.725,192.296 659.637,192.398 659.547,192.498 659.455,192.596 659.361,192.693 659.266,192.789 659.169,192.882 659.07,192.974 658.97,193.064 658.869,193.153 658.765,193.24 658.661,193.325 658.555,193.408 658.447,193.489 658.338,193.568 658.228,193.646 658.116,193.722 658.003,193.795 657.889,193.867 657.774,193.937 657.657,194.004 657.54,194.07 657.421,194.134 657.301,194.195 657.18,194.255 657.058,194.312 656.935,194.368 656.811,194.421 656.687,194.472 656.561,194.521 656.435,194.567 656.307,194.612 656.18,194.654 656.051,194.694 655.921,194.732 655.791,194.768 655.661,194.801 655.53,194.832 655.398,194.861 655.266,194.888 655.133,194.912 655,194.934 654.867,194.954 654.733,194.971 654.599,194.986 654.465,194.999 654.331,195.01 654.196,195.018 654.062,195.023 653.927,195.027 653.792,195.028 647.273,195.028 647.138,195.027 647.003,195.023 646.868,195.018 646.734,195.01 646.6,194.999 646.465,194.986 646.331,194.971 646.198,194.954 646.064,194.934 645.931,194.912 645.799,194.888 645.667,194.861 645.535,194.832 645.404,194.801 645.273,194.768 645.143,194.732 645.014,194.694 644.885,194.654 644.757,194.612 644.63,194.567 644.504,194.521 644.378,194.472 644.253,194.421 644.129,194.368 644.007,194.312 643.885,194.255 643.764,194.195 643.644,194.134 643.525,194.07 643.407,194.004 643.291,193.937 643.175,193.867 643.061,193.795 642.948,193.722 642.837,193.646 "
           id="polygon25676"
           style="stroke:#80ffe6;stroke-opacity:1" />
      </g>
      <g
         id="POLYLINE_345_-7"
         style="stroke:#80ffe6;stroke-opacity:1">
        <path
           fill="none"
           stroke="#00b9d2"
           stroke-width="2.75"
           stroke-linecap="round"
           stroke-linejoin="round"
           stroke-miterlimit="10"
           d="m 694.434,195.521 c -0.054,0 -0.109,-0.002 -0.109,-0.002 -0.054,-0.002 -0.108,-0.006 -0.108,-0.006 -0.054,-0.004 -0.108,-0.009 -0.108,-0.009 -0.054,-0.006 -0.108,-0.013 -0.108,-0.013 -0.054,-0.008 -0.107,-0.017 -0.107,-0.017 -0.053,-0.01 -0.107,-0.02 -0.107,-0.02 -0.053,-0.012 -0.106,-0.024 -0.106,-0.024 -0.053,-0.013 -0.105,-0.028 -0.105,-0.028 -0.052,-0.015 -0.104,-0.031 -0.104,-0.031 -0.052,-0.017 -0.103,-0.035 -0.103,-0.035 -0.051,-0.019 -0.101,-0.038 -0.101,-0.038 -0.05,-0.021 -0.1,-0.042 -0.1,-0.042 -0.049,-0.022 -0.099,-0.045 -0.099,-0.045 -0.049,-0.024 -0.097,-0.049 -0.097,-0.049 -0.048,-0.026 -0.095,-0.052 -0.095,-0.052 -0.047,-0.027 -0.093,-0.055 -0.093,-0.055 -0.046,-0.029 -0.091,-0.059 -0.091,-0.059 -0.045,-0.03 -0.089,-0.062 -0.089,-0.062 -0.044,-0.032 -0.087,-0.065 -0.087,-0.065 -0.043,-0.033 -0.085,-0.068 -0.085,-0.068 -0.042,-0.035 -0.082,-0.071 -0.082,-0.071 -0.04,-0.036 -0.08,-0.073 -0.08,-0.073 -0.039,-0.038 -0.077,-0.076 -0.077,-0.076 -0.038,-0.039 -0.075,-0.079 -0.075,-0.079 -0.036,-0.04 -0.072,-0.081 -0.072,-0.081 -0.035,-0.042 -0.069,-0.084 -0.069,-0.084 -0.033,-0.043 -0.066,-0.086 -0.066,-0.086 -0.032,-0.044 -0.063,-0.088 -0.063,-0.088 -0.03,-0.045 -0.06,-0.09 -0.06,-0.09 -0.029,-0.046 -0.057,-0.092 -0.057,-0.092 -0.027,-0.047 -0.054,-0.094 -0.054,-0.094 -0.026,-0.048 -0.05,-0.096 -0.05,-0.096 -0.024,-0.049 -0.047,-0.098 -0.047,-0.098 -0.022,-0.049 -0.044,-0.099 -0.044,-0.099 -0.021,-0.05 -0.04,-0.101 -0.04,-0.101 -0.019,-0.051 -0.037,-0.102 -0.037,-0.102 -0.017,-0.052 -0.033,-0.103 -0.033,-0.103 -0.015,-0.052 -0.03,-0.104 -0.03,-0.104 -0.013,-0.053 -0.026,-0.105 -0.026,-0.105 -0.012,-0.053 -0.022,-0.106 -0.022,-0.106 -0.01,-0.053 -0.019,-0.107 -0.019,-0.107 -0.008,-0.054 -0.015,-0.107 -0.015,-0.107 -0.006,-0.054 -0.011,-0.108 -0.011,-0.108 -0.004,-0.054 -0.008,-0.108 -0.008,-0.108 -0.002,-0.054 -0.004,-0.108 -0.004,-0.108 0,-0.054 0,-18.089 0,-18.089 0,-0.054 0.002,-0.109 0.002,-0.109 0.002,-0.054 0.006,-0.108 0.006,-0.108 0.004,-0.054 0.009,-0.108 0.009,-0.108 0.006,-0.054 0.013,-0.108 0.013,-0.108 0.008,-0.054 0.017,-0.107 0.017,-0.107 0.01,-0.053 0.021,-0.107 0.021,-0.107 0.012,-0.053 0.024,-0.106 0.024,-0.106 0.013,-0.053 0.028,-0.105 0.028,-0.105 0.015,-0.052 0.031,-0.104 0.031,-0.104 0.017,-0.052 0.035,-0.103 0.035,-0.103 0.019,-0.051 0.038,-0.101 0.038,-0.101 0.021,-0.05 0.042,-0.1 0.042,-0.1 0.022,-0.049 0.045,-0.099 0.045,-0.099 0.024,-0.049 0.049,-0.097 0.049,-0.097 0.026,-0.048 0.052,-0.095 0.052,-0.095 0.027,-0.047 0.055,-0.093 0.055,-0.093 0.029,-0.046 0.059,-0.091 0.059,-0.091 0.03,-0.045 0.062,-0.089 0.062,-0.089 0.032,-0.044 0.065,-0.087 0.065,-0.087 0.033,-0.043 0.068,-0.085 0.068,-0.085 0.035,-0.042 0.071,-0.082 0.071,-0.082 0.036,-0.04 0.073,-0.08 0.073,-0.08 0.038,-0.039 0.076,-0.077 0.076,-0.077 0.039,-0.038 0.079,-0.075 0.079,-0.075 0.04,-0.036 0.081,-0.072 0.081,-0.072 0.042,-0.035 0.084,-0.069 0.084,-0.069 0.043,-0.033 0.086,-0.066 0.086,-0.066 0.044,-0.032 0.088,-0.063 0.088,-0.063 0.045,-0.03 0.09,-0.06 0.09,-0.06 0.046,-0.029 0.092,-0.057 0.092,-0.057 0.047,-0.027 0.094,-0.054 0.094,-0.054 0.048,-0.026 0.096,-0.05 0.096,-0.05 0.049,-0.024 0.098,-0.047 0.098,-0.047 0.049,-0.022 0.099,-0.044 0.099,-0.044 0.05,-0.021 0.101,-0.04 0.101,-0.04 0.051,-0.019 0.102,-0.037 0.102,-0.037 0.052,-0.017 0.103,-0.033 0.103,-0.033 0.052,-0.015 0.104,-0.03 0.104,-0.03 0.053,-0.013 0.105,-0.026 0.105,-0.026 0.053,-0.012 0.106,-0.022 0.106,-0.022 0.053,-0.01 0.107,-0.019 0.107,-0.019 0.054,-0.008 0.107,-0.015 0.107,-0.015 0.054,-0.006 0.108,-0.011 0.108,-0.011 0.054,-0.004 0.108,-0.007 0.108,-0.007 0.054,-0.002 0.108,-0.004 0.108,-0.004 0.054,0 5.531,0 5.531,0 0.054,0 0.109,0.002 0.109,0.002 0.054,0.002 0.108,0.006 0.108,0.006 0.054,0.004 0.108,0.009 0.108,0.009 0.054,0.006 0.108,0.013 0.108,0.013 0.054,0.008 0.107,0.017 0.107,0.017 0.053,0.01 0.107,0.02 0.107,0.02 0.053,0.012 0.106,0.024 0.106,0.024 0.053,0.013 0.105,0.028 0.105,0.028 0.052,0.015 0.104,0.031 0.104,0.031 0.052,0.017 0.103,0.035 0.103,0.035 0.051,0.019 0.102,0.038 0.102,0.038 0.05,0.021 0.1,0.042 0.1,0.042 0.049,0.022 0.099,0.045 0.099,0.045 0.049,0.024 0.097,0.049 0.097,0.049 0.048,0.026 0.095,0.052 0.095,0.052 0.047,0.027 0.093,0.055 0.093,0.055 0.046,0.029 0.091,0.059 0.091,0.059 0.045,0.03 0.089,0.062 0.089,0.062 0.044,0.032 0.087,0.065 0.087,0.065 0.043,0.033 0.085,0.068 0.085,0.068 0.042,0.035 0.082,0.071 0.082,0.071 0.04,0.036 0.08,0.073 0.08,0.073 0.039,0.038 0.077,0.076 0.077,0.076 0.038,0.039 0.075,0.079 0.075,0.079 0.036,0.04 0.072,0.081 0.072,0.081 0.035,0.042 0.069,0.084 0.069,0.084 0.034,0.043 0.066,0.086 0.066,0.086 0.032,0.044 0.063,0.088 0.063,0.088 0.03,0.045 0.06,0.09 0.06,0.09 0.029,0.046 0.057,0.092 0.057,0.092 0.027,0.047 0.054,0.094 0.054,0.094 0.026,0.048 0.05,0.096 0.05,0.096 0.024,0.049 0.047,0.098 0.047,0.098 0.022,0.049 0.044,0.099 0.044,0.099 0.021,0.05 0.04,0.101 0.04,0.101 0.019,0.051 0.037,0.102 0.037,0.102 0.017,0.052 0.033,0.103 0.033,0.103 0.015,0.052 0.03,0.104 0.03,0.104 0.013,0.053 0.026,0.105 0.026,0.105 0.012,0.053 0.022,0.106 0.022,0.106 0.01,0.053 0.019,0.107 0.019,0.107 0.008,0.054 0.015,0.107 0.015,0.107 0.006,0.054 0.011,0.108 0.011,0.108 0.004,0.054 0.007,0.108 0.007,0.108 0.002,0.054 0.004,0.108 0.004,0.108 0,0.054 0,18.089 0,18.089 0,0.054 -0.002,0.109 -0.002,0.109 -0.002,0.054 -0.006,0.108 -0.006,0.108 -0.004,0.054 -0.009,0.108 -0.009,0.108 -0.006,0.054 -0.013,0.108 -0.013,0.108 -0.008,0.054 -0.017,0.107 -0.017,0.107 -0.01,0.053 -0.021,0.107 -0.021,0.107 -0.012,0.053 -0.024,0.106 -0.024,0.106 -0.013,0.053 -0.028,0.105 -0.028,0.105 -0.015,0.052 -0.031,0.104 -0.031,0.104 -0.017,0.052 -0.035,0.103 -0.035,0.103 -0.019,0.051 -0.039,0.101 -0.039,0.101 -0.021,0.05 -0.042,0.1 -0.042,0.1 -0.022,0.049 -0.045,0.099 -0.045,0.099 -0.024,0.049 -0.049,0.097 -0.049,0.097 -0.026,0.048 -0.052,0.095 -0.052,0.095 -0.027,0.047 -0.055,0.093 -0.055,0.093 -0.029,0.046 -0.059,0.091 -0.059,0.091 -0.03,0.045 -0.062,0.089 -0.062,0.089 -0.032,0.044 -0.065,0.087 -0.065,0.087 -0.034,0.043 -0.068,0.085 -0.068,0.085 -0.035,0.042 -0.071,0.082 -0.071,0.082 -0.036,0.04 -0.073,0.08 -0.073,0.08 -0.038,0.039 -0.076,0.077 -0.076,0.077 -0.039,0.038 -0.079,0.075 -0.079,0.075 -0.04,0.036 -0.081,0.072 -0.081,0.072 -0.042,0.035 -0.084,0.069 -0.084,0.069 -0.043,0.033 -0.086,0.066 -0.086,0.066 -0.044,0.032 -0.088,0.063 -0.088,0.063 -0.045,0.03 -0.09,0.06 -0.09,0.06 -0.046,0.029 -0.092,0.057 -0.092,0.057 -0.047,0.027 -0.094,0.054 -0.094,0.054 -0.048,0.026 -0.096,0.05 -0.096,0.05 -0.049,0.024 -0.098,0.047 -0.098,0.047 -0.049,0.022 -0.099,0.044 -0.099,0.044 -0.05,0.021 -0.101,0.04 -0.101,0.04 -0.051,0.019 -0.102,0.037 -0.102,0.037 -0.052,0.017 -0.103,0.033 -0.103,0.033 -0.052,0.015 -0.104,0.03 -0.104,0.03 -0.053,0.013 -0.105,0.026 -0.105,0.026 -0.053,0.012 -0.106,0.022 -0.106,0.022 -0.053,0.01 -0.107,0.019 -0.107,0.019 -0.054,0.008 -0.107,0.015 -0.107,0.015 -0.054,0.006 -0.108,0.011 -0.108,0.011 -0.054,0.004 -0.108,0.007 -0.108,0.007 -0.054,0.002 -0.108,0.004 -0.108,0.004 -0.053,0 -5.53,0 -5.53,0 z"
           id="path25679"
           style="stroke:#80ffe6;stroke-opacity:1" />
      </g>
      <g
         id="POLYLINE_344_"
         style="stroke:#80ffe6;stroke-opacity:1">
        <polygon
           fill="none"
           stroke="#00b9d2"
           stroke-width="2.75"
           stroke-linecap="round"
           stroke-linejoin="round"
           stroke-miterlimit="10"
           points="675.515,189.201 675.449,189.152 675.383,189.103 675.318,189.052 675.254,189 675.191,188.947 675.129,188.893 675.068,188.838 675.008,188.782 674.949,188.725 674.891,188.667 674.834,188.608 674.778,188.548 674.723,188.487 674.669,188.425 674.616,188.362 674.564,188.298 674.513,188.233 674.464,188.168 674.415,188.101 674.368,188.034 674.322,187.966 674.277,187.897 674.233,187.827 674.191,187.757 674.149,187.686 674.109,187.614 674.071,187.542 674.033,187.469 673.997,187.395 673.962,187.32 673.928,187.245 673.895,187.17 673.864,187.094 673.834,187.017 673.806,186.94 673.779,186.862 673.753,186.784 673.729,186.706 673.706,186.627 673.684,186.548 673.663,186.468 673.644,186.388 673.627,186.308 673.611,186.227 673.596,186.146 673.582,186.065 673.57,185.984 673.56,185.902 673.551,185.821 673.543,185.739 673.536,185.657 673.531,185.575 673.528,185.493 673.526,185.41 673.525,185.328 673.525,181.392 673.526,181.309 673.528,181.227 673.531,181.145 673.536,181.063 673.543,180.981 673.551,180.899 673.56,180.818 673.57,180.736 673.582,180.655 673.596,180.574 673.611,180.493 673.627,180.412 673.644,180.332 673.663,180.252 673.684,180.172 673.706,180.093 673.729,180.014 673.753,179.935 673.779,179.857 673.806,179.78 673.834,179.703 673.864,179.626 673.895,179.55 673.928,179.474 673.962,179.4 673.997,179.325 674.033,179.251 674.071,179.178 674.109,179.106 674.149,179.034 674.191,178.963 674.233,178.893 674.277,178.823 674.322,178.754 674.368,178.686 674.415,178.619 674.464,178.552 674.513,178.487 674.564,178.422 674.616,178.358 674.669,178.295 674.723,178.233 674.778,178.172 674.834,178.112 674.891,178.053 674.949,177.995 675.008,177.938 675.068,177.882 675.129,177.827 675.191,177.773 675.254,177.72 675.318,177.668 675.383,177.617 675.449,177.568 675.515,177.519 675.582,177.472 675.65,177.426 675.719,177.381 675.789,177.337 675.859,177.295 675.93,177.253 676.002,177.213 676.074,177.174 676.148,177.137 676.221,177.101 676.296,177.065 676.371,177.032 676.446,176.999 676.522,176.968 676.599,176.938 676.676,176.91 676.754,176.883 676.832,176.857 676.91,176.832 676.989,176.809 677.068,176.788 677.148,176.767 677.228,176.748 677.308,176.731 677.389,176.714 677.47,176.7 677.551,176.686 677.632,176.674 677.714,176.664 677.795,176.654 677.877,176.647 677.959,176.64 678.041,176.635 678.123,176.632 678.206,176.63 678.288,176.629 682.67,176.629 682.752,176.63 682.834,176.632 682.916,176.635 682.998,176.64 683.08,176.647 683.162,176.654 683.244,176.664 683.325,176.674 683.406,176.686 683.488,176.7 683.568,176.714 683.649,176.731 683.729,176.748 683.809,176.767 683.889,176.788 683.968,176.809 684.047,176.832 684.126,176.857 684.204,176.883 684.281,176.91 684.358,176.938 684.435,176.968 684.511,176.999 684.587,177.032 684.662,177.065 684.736,177.101 684.81,177.137 684.883,177.174 684.955,177.213 685.027,177.253 685.098,177.295 685.169,177.337 685.238,177.381 685.307,177.426 685.375,177.472 685.442,177.519 685.509,177.568 685.574,177.617 685.639,177.668 685.703,177.72 685.766,177.773 685.828,177.827 685.889,177.882 685.949,177.938 686.008,177.995 686.066,178.053 686.123,178.112 686.18,178.172 686.234,178.233 686.289,178.295 686.341,178.358 686.393,178.422 686.444,178.487 686.493,178.552 686.542,178.619 686.589,178.686 686.635,178.754 686.68,178.823 686.724,178.893 686.767,178.963 686.808,179.034 686.848,179.106 686.887,179.178 686.924,179.251 686.961,179.325 686.996,179.4 687.029,179.474 687.062,179.55 687.093,179.626 687.123,179.703 687.151,179.78 687.178,179.857 687.204,179.935 687.229,180.014 687.252,180.093 687.274,180.172 687.294,180.252 687.313,180.332 687.331,180.412 687.347,180.493 687.362,180.574 687.375,180.655 687.387,180.736 687.398,180.818 687.407,180.899 687.415,180.981 687.421,181.063 687.426,181.145 687.429,181.227 687.432,181.309 687.432,181.392 687.432,185.328 687.432,185.41 687.429,185.493 687.426,185.575 687.421,185.657 687.415,185.739 687.407,185.821 687.398,185.902 687.387,185.984 687.375,186.065 687.362,186.146 687.347,186.227 687.331,186.308 687.313,186.388 687.294,186.468 687.274,186.548 687.252,186.627 687.229,186.706 687.204,186.784 687.178,186.862 687.151,186.94 687.123,187.017 687.093,187.094 687.062,187.17 687.029,187.245 686.996,187.32 686.961,187.395 686.924,187.469 686.887,187.542 686.848,187.614 686.808,187.686 686.767,187.757 686.724,187.827 686.68,187.897 686.635,187.966 686.589,188.034 686.542,188.101 686.493,188.168 686.444,188.233 686.393,188.298 686.341,188.362 686.289,188.425 686.234,188.487 686.18,188.548 686.123,188.608 686.066,188.667 686.008,188.725 685.949,188.782 685.889,188.838 685.828,188.893 685.766,188.947 685.703,189 685.639,189.052 685.574,189.103 685.509,189.152 685.442,189.201 685.375,189.248 685.307,189.294 685.238,189.339 685.169,189.383 685.098,189.425 685.027,189.467 684.955,189.507 684.883,189.545 684.81,189.583 684.736,189.619 684.662,189.654 684.587,189.688 684.511,189.721 684.435,189.752 684.358,189.782 684.281,189.81 684.204,189.837 684.126,189.863 684.047,189.887 683.968,189.911 683.889,189.932 683.809,189.953 683.729,189.972 683.649,189.989 683.568,190.005 683.488,190.02 683.406,190.034 683.325,190.046 683.244,190.056 683.162,190.066 683.08,190.073 682.998,190.08 682.916,190.085 682.834,190.088 682.752,190.09 682.67,190.091 678.288,190.091 678.206,190.09 678.123,190.088 678.041,190.085 677.959,190.08 677.877,190.073 677.795,190.066 677.714,190.056 677.632,190.046 677.551,190.034 677.47,190.02 677.389,190.005 677.308,189.989 677.228,189.972 677.148,189.953 677.068,189.932 676.989,189.911 676.91,189.887 676.832,189.863 676.754,189.837 676.676,189.81 676.599,189.782 676.522,189.752 676.446,189.721 676.371,189.688 676.296,189.654 676.221,189.619 676.148,189.583 676.074,189.545 676.002,189.507 675.93,189.467 675.859,189.425 675.789,189.383 675.719,189.339 675.65,189.294 675.582,189.248 "
           id="polygon25682"
           style="stroke:#80ffe6;stroke-opacity:1" />
      </g>
      <g
         id="POLYLINE_343_"
         style="stroke:#80ffe6;stroke-opacity:1">
        <polygon
           fill="none"
           stroke="#00b9d2"
           stroke-width="2.75"
           stroke-linecap="round"
           stroke-linejoin="round"
           stroke-miterlimit="10"
           points="713.244,200.497 713.083,200.719 712.918,200.937 712.749,201.153 712.576,201.365 712.4,201.575 712.22,201.782 712.037,201.985 711.85,202.185 711.66,202.382 711.466,202.576 711.269,202.766 711.069,202.953 710.865,203.137 710.659,203.316 710.449,203.493 710.236,203.665 710.021,203.834 709.802,203.999 709.581,204.161 709.357,204.318 709.13,204.472 708.901,204.622 708.669,204.768 708.434,204.909 708.197,205.047 707.958,205.18 707.717,205.31 707.473,205.435 707.227,205.556 706.98,205.673 706.73,205.785 706.478,205.893 706.225,205.997 705.969,206.096 705.712,206.191 705.454,206.282 705.194,206.368 704.932,206.449 704.669,206.526 704.405,206.599 704.14,206.666 703.873,206.73 703.606,206.788 703.337,206.842 703.068,206.892 702.797,206.936 702.526,206.976 702.255,207.012 701.983,207.042 701.71,207.068 701.437,207.09 701.164,207.106 700.89,207.118 700.616,207.125 700.342,207.128 557.034,207.128 556.76,207.125 556.486,207.118 556.212,207.106 555.939,207.09 555.666,207.068 555.393,207.042 555.121,207.012 554.849,206.976 554.578,206.936 554.308,206.892 554.039,206.842 553.77,206.788 553.503,206.73 553.236,206.666 552.971,206.599 552.706,206.526 552.444,206.449 552.182,206.368 551.922,206.282 551.663,206.191 551.406,206.096 551.151,205.997 550.898,205.893 550.646,205.785 550.396,205.673 550.148,205.556 549.903,205.435 549.659,205.31 549.418,205.18 549.178,205.047 548.942,204.909 548.707,204.768 548.475,204.622 548.246,204.472 548.019,204.318 547.795,204.161 547.574,203.999 547.355,203.834 547.14,203.665 546.927,203.493 546.717,203.316 546.511,203.137 546.307,202.953 546.107,202.766 545.91,202.576 545.716,202.382 545.526,202.185 545.339,201.985 545.156,201.782 544.976,201.575 544.799,201.365 544.627,201.153 544.458,200.937 544.293,200.719 544.131,200.497 543.974,200.273 543.82,200.046 543.67,199.817 543.525,199.585 543.383,199.351 543.245,199.114 543.112,198.875 542.982,198.633 542.857,198.39 542.736,198.144 542.62,197.896 542.507,197.646 542.399,197.395 542.295,197.141 542.196,196.886 542.101,196.629 542.011,196.37 541.925,196.11 541.843,195.849 541.766,195.586 541.694,195.322 541.626,195.056 541.563,194.79 541.504,194.522 541.45,194.254 541.401,193.984 541.356,193.714 541.316,193.443 541.28,193.171 541.25,192.899 541.224,192.626 541.203,192.353 541.186,192.08 541.174,191.806 541.167,191.532 541.165,191.259 541.165,175.461 541.167,175.187 541.174,174.914 541.186,174.64 541.203,174.367 541.224,174.093 541.25,173.821 541.28,173.549 541.316,173.277 541.356,173.006 541.401,172.736 541.45,172.466 541.504,172.198 541.563,171.93 541.626,171.664 541.694,171.398 541.766,171.134 541.843,170.871 541.925,170.61 542.011,170.35 542.101,170.091 542.196,169.834 542.295,169.579 542.399,169.325 542.507,169.074 542.62,168.824 542.736,168.576 542.857,168.33 542.982,168.087 543.112,167.845 543.245,167.606 543.383,167.369 543.525,167.135 543.67,166.903 543.82,166.674 543.974,166.447 544.131,166.223 544.293,166.001 544.458,165.783 544.627,165.567 544.799,165.355 544.976,165.145 545.156,164.938 545.339,164.735 545.526,164.535 545.716,164.338 545.91,164.144 546.107,163.954 546.307,163.767 546.511,163.583 546.717,163.403 546.927,163.227 547.14,163.054 547.355,162.886 547.574,162.72 547.795,162.559 548.019,162.401 548.246,162.248 548.475,162.098 548.707,161.952 548.942,161.811 549.178,161.673 549.418,161.539 549.659,161.41 549.903,161.285 550.148,161.164 550.396,161.047 550.646,160.935 550.898,160.827 551.151,160.723 551.406,160.624 551.663,160.529 551.922,160.438 552.182,160.352 552.444,160.271 552.706,160.194 552.971,160.121 553.236,160.054 553.503,159.99 553.77,159.932 554.039,159.878 554.308,159.828 554.578,159.783 554.849,159.743 555.121,159.708 555.393,159.677 555.666,159.651 555.939,159.63 556.212,159.614 556.486,159.602 556.76,159.595 557.034,159.592 700.342,159.592 700.616,159.595 700.89,159.602 701.164,159.614 701.437,159.63 701.71,159.651 701.983,159.677 702.255,159.708 702.526,159.743 702.797,159.783 703.068,159.828 703.337,159.878 703.606,159.932 703.873,159.99 704.14,160.054 704.405,160.121 704.669,160.194 704.932,160.271 705.194,160.352 705.454,160.438 705.712,160.529 705.969,160.624 706.225,160.723 706.478,160.827 706.73,160.935 706.98,161.047 707.227,161.164 707.473,161.285 707.717,161.41 707.958,161.539 708.197,161.673 708.434,161.811 708.669,161.952 708.901,162.098 709.13,162.248 709.357,162.401 709.581,162.559 709.802,162.72 710.021,162.886 710.236,163.054 710.449,163.227 710.659,163.403 710.865,163.583 711.069,163.767 711.269,163.954 711.466,164.144 711.66,164.338 711.85,164.535 712.037,164.735 712.22,164.938 712.4,165.145 712.576,165.355 712.749,165.567 712.918,165.783 713.083,166.001 713.244,166.223 713.402,166.447 713.556,166.674 713.705,166.903 713.851,167.135 713.993,167.369 714.13,167.606 714.264,167.845 714.393,168.087 714.519,168.33 714.64,168.576 714.756,168.824 714.869,169.074 714.977,169.325 715.081,169.579 715.18,169.834 715.275,170.091 715.365,170.35 715.451,170.61 715.533,170.871 715.61,171.134 715.682,171.398 715.75,171.664 715.813,171.93 715.872,172.198 715.926,172.466 715.975,172.736 716.02,173.006 716.06,173.277 716.095,173.549 716.126,173.821 716.152,174.093 716.173,174.367 716.19,174.64 716.202,174.914 716.209,175.187 716.211,175.461 716.211,191.259 716.209,191.532 716.202,191.806 716.19,192.08 716.173,192.353 716.152,192.626 716.126,192.899 716.095,193.171 716.06,193.443 716.02,193.714 715.975,193.984 715.926,194.254 715.872,194.522 715.813,194.79 715.75,195.056 715.682,195.322 715.61,195.586 715.533,195.849 715.451,196.11 715.365,196.37 715.275,196.629 715.18,196.886 715.081,197.141 714.977,197.395 714.869,197.646 714.756,197.896 714.64,198.144 714.519,198.39 714.393,198.633 714.264,198.875 714.13,199.114 713.993,199.351 713.851,199.585 713.705,199.817 713.556,200.046 713.402,200.273 "
           id="polygon25685"
           style="stroke:#80ffe6;stroke-opacity:1" />
      </g>
      <g
         id="POLYLINE_342_"
         style="stroke:#80ffe6;stroke-opacity:1">
        <rect
           x="772.51599"
           y="301.284"
           fill="none"
           stroke="#00b9d2"
           stroke-width="2.75"
           stroke-linecap="round"
           stroke-linejoin="round"
           stroke-miterlimit="10"
           width="2.911"
           height="39.66"
           id="rect25688"
           style="stroke:#80ffe6;stroke-opacity:1" />
      </g>
      <g
         id="POLYLINE_341_"
         style="stroke:#80ffe6;stroke-opacity:1">
        <rect
           x="772.51599"
           y="188.858"
           fill="none"
           stroke="#00b9d2"
           stroke-width="2.75"
           stroke-linecap="round"
           stroke-linejoin="round"
           stroke-miterlimit="10"
           width="2.911"
           height="77.790001"
           id="rect25691"
           style="stroke:#80ffe6;stroke-opacity:1" />
      </g>
      <g
         id="POLYLINE_340_"
         style="stroke:#80ffe6;stroke-opacity:1">
        <polyline
           fill="none"
           stroke="#00b9d2"
           stroke-width="2.75"
           stroke-linecap="round"
           stroke-linejoin="round"
           stroke-miterlimit="10"
           points="    484.86,665.443 484.864,665.895 484.876,666.347 484.895,666.799 484.923,667.25 484.958,667.701 485.001,668.151     485.051,668.601 485.11,669.049 485.176,669.496 485.25,669.942 485.331,670.387 485.42,670.83 485.517,671.272 485.621,671.712     485.733,672.15 485.853,672.586 485.98,673.02 486.114,673.452 486.256,673.881 486.406,674.308 486.562,674.732 486.726,675.153     486.898,675.572 487.076,675.987 487.262,676.399 487.454,676.808 487.654,677.214 487.861,677.616 488.074,678.015     488.295,678.41 488.522,678.8 488.756,679.187 488.996,679.57 489.243,679.949 489.497,680.323 489.757,680.693 490.023,681.058     490.296,681.419 490.575,681.775 490.86,682.126 491.151,682.472 491.448,682.813 491.75,683.149 492.059,683.479     492.373,683.805 492.693,684.124 493.018,684.439 493.349,684.747 493.684,685.05 494.025,685.347 494.372,685.638     494.723,685.923 495.078,686.201 495.439,686.474 495.804,686.74 496.174,687 496.549,687.254 496.927,687.501 497.31,687.742     497.697,687.976 498.088,688.203 498.483,688.423 498.881,688.637 499.283,688.844 499.689,689.043 500.098,689.236     500.51,689.421 500.926,689.6 501.344,689.771 501.766,689.935 502.19,690.092 502.617,690.241 503.046,690.383 503.478,690.518     503.911,690.645 504.348,690.764 504.786,690.876 505.226,690.981 505.667,691.077 506.11,691.167 506.555,691.248     507.001,691.322 507.449,691.388 507.897,691.446 508.346,691.497 508.796,691.54 509.247,691.575 509.698,691.602     510.15,691.622 510.602,691.633 511.054,691.637 746.322,691.637 746.774,691.633 747.226,691.622 747.677,691.602     748.129,691.575 748.579,691.54 749.03,691.497 749.479,691.446 749.927,691.388 750.375,691.322 750.821,691.248     751.265,691.167 751.709,691.077 752.15,690.981 752.59,690.876 753.028,690.764 753.464,690.645 753.898,690.518 754.33,690.383     754.759,690.241 755.186,690.092 755.61,689.935 756.031,689.771 756.45,689.6 756.865,689.421 757.278,689.236 757.687,689.043     758.092,688.844 758.495,688.637 758.893,688.423 759.288,688.203 759.679,687.976 760.066,687.742 760.448,687.501     760.827,687.254 761.201,687 761.571,686.74 761.937,686.474 762.297,686.201 762.653,685.923 763.004,685.638 763.35,685.347     763.691,685.05 764.027,684.747 764.358,684.439 764.683,684.124 765.003,683.805 765.317,683.479 765.625,683.149     765.928,682.813 766.225,682.472 766.516,682.126 766.801,681.775 767.08,681.419 767.352,681.058 767.619,680.693     767.879,680.323 768.132,679.949 768.38,679.57 768.62,679.187 768.854,678.8 769.081,678.41 769.302,678.015 769.515,677.616     769.722,677.214 769.922,676.808 770.114,676.399 770.3,675.987 770.478,675.572 770.649,675.153 770.813,674.732 770.97,674.308     771.119,673.881 771.261,673.452 771.396,673.02 771.523,672.586 771.642,672.15 771.754,671.712 771.859,671.272 771.956,670.83     772.045,670.387 772.126,669.942 772.2,669.496 772.266,669.049 772.325,668.601 772.375,668.151 772.418,667.701 772.453,667.25     772.48,666.799 772.5,666.347 772.512,665.895 772.516,665.443   "
           id="polyline25694"
           style="stroke:#80ffe6;stroke-opacity:1" />
      </g>
      <g
         id="POLYLINE_339_"
         style="stroke:#80ffe6;stroke-opacity:1">
        <polyline
           fill="none"
           stroke="#00b9d2"
           stroke-width="2.75"
           stroke-linecap="round"
           stroke-linejoin="round"
           stroke-miterlimit="10"
           points="    772.516,117.26 772.512,116.808 772.5,116.356 772.48,115.904 772.453,115.453 772.418,115.002 772.375,114.552 772.325,114.103     772.266,113.655 772.2,113.207 772.126,112.761 772.045,112.317 771.956,111.873 771.859,111.432 771.754,110.992     771.642,110.554 771.523,110.118 771.396,109.684 771.261,109.252 771.119,108.823 770.97,108.396 770.813,107.972     770.649,107.55 770.478,107.132 770.3,106.716 770.114,106.304 769.922,105.895 769.722,105.489 769.515,105.087 769.302,104.689     769.081,104.294 768.854,103.903 768.62,103.516 768.38,103.133 768.132,102.755 767.879,102.38 767.619,102.011 767.352,101.645     767.08,101.285 766.801,100.929 766.516,100.578 766.225,100.231 765.928,99.89 765.625,99.555 765.317,99.224 765.003,98.899     764.683,98.579 764.358,98.265 764.027,97.957 763.691,97.654 763.35,97.357 763.004,97.066 762.653,96.781 762.297,96.502     761.937,96.229 761.571,95.963 761.201,95.703 760.827,95.449 760.448,95.202 760.066,94.962 759.679,94.728 759.288,94.501     758.893,94.28 758.495,94.067 758.092,93.86 757.687,93.66 757.278,93.468 756.865,93.282 756.45,93.104 756.031,92.932     755.61,92.768 755.186,92.612 754.759,92.462 754.33,92.321 753.898,92.186 753.464,92.059 753.028,91.939 752.59,91.827     752.15,91.723 751.709,91.626 751.265,91.537 750.821,91.456 750.375,91.382 749.927,91.316 749.479,91.257 749.03,91.207     748.579,91.164 748.129,91.129 747.677,91.101 747.226,91.082 746.774,91.07 746.322,91.066 511.054,91.066 510.602,91.07     510.15,91.082 509.698,91.101 509.247,91.129 508.796,91.164 508.346,91.207 507.897,91.257 507.449,91.316 507.001,91.382     506.555,91.456 506.11,91.537 505.667,91.626 505.226,91.723 504.786,91.827 504.348,91.939 503.911,92.059 503.478,92.186     503.046,92.321 502.617,92.462 502.19,92.612 501.766,92.768 501.344,92.932 500.926,93.104 500.51,93.282 500.098,93.468     499.689,93.66 499.283,93.86 498.881,94.067 498.483,94.28 498.088,94.501 497.697,94.728 497.31,94.962 496.927,95.202     496.549,95.449 496.174,95.703 495.804,95.963 495.439,96.229 495.078,96.502 494.723,96.781 494.372,97.066 494.025,97.357     493.684,97.654 493.349,97.957 493.018,98.265 492.693,98.579 492.373,98.899 492.059,99.224 491.75,99.555 491.448,99.89     491.151,100.231 490.86,100.578 490.575,100.929 490.296,101.285 490.023,101.645 489.757,102.011 489.497,102.38     489.243,102.755 488.996,103.133 488.756,103.516 488.522,103.903 488.295,104.294 488.074,104.689 487.861,105.087     487.654,105.489 487.454,105.895 487.262,106.304 487.076,106.716 486.898,107.132 486.726,107.55 486.562,107.972     486.406,108.396 486.256,108.823 486.114,109.252 485.98,109.684 485.853,110.118 485.733,110.554 485.621,110.992     485.517,111.432 485.42,111.873 485.331,112.317 485.25,112.761 485.176,113.207 485.11,113.655 485.051,114.103 485.001,114.552     484.958,115.002 484.923,115.453 484.895,115.904 484.876,116.356 484.864,116.808 484.86,117.26   "
           id="polyline25697"
           style="stroke:#80ffe6;stroke-opacity:1" />
      </g>
      <g
         id="POLYLINE_338_"
         style="stroke:#80ffe6;stroke-opacity:1">
        <rect
           x="481.94901"
           y="183.67999"
           fill="none"
           stroke="#00b9d2"
           stroke-width="2.75"
           stroke-linecap="round"
           stroke-linejoin="round"
           stroke-miterlimit="10"
           width="2.911"
           height="40.273998"
           id="rect25700"
           style="stroke:#80ffe6;stroke-opacity:1" />
      </g>
      <g
         id="POLYLINE_337_"
         style="stroke:#80ffe6;stroke-opacity:1">
        <polygon
           fill="none"
           stroke="#00b9d2"
           stroke-width="2.75"
           stroke-linecap="round"
           stroke-linejoin="round"
           stroke-miterlimit="10"
           points="761.571,692.507 761.937,692.241 762.297,691.968 762.653,691.689 763.004,691.404 763.35,691.113 763.691,690.816 764.027,690.513 764.358,690.205 764.683,689.891 765.003,689.571 765.317,689.246 765.625,688.915 765.928,688.58 766.225,688.239 766.516,687.892 766.801,687.541 767.08,687.185 767.352,686.825 767.619,686.459 767.879,686.09 768.132,685.715 768.38,685.337 768.62,684.954 768.854,684.567 769.081,684.176 769.302,683.781 769.515,683.383 769.722,682.981 769.922,682.575 770.114,682.166 770.3,681.754 770.478,681.338 770.649,680.92 770.813,680.498 770.97,680.074 771.119,679.647 771.261,679.218 771.396,678.786 771.523,678.352 771.642,677.916 771.754,677.478 771.859,677.038 771.956,676.597 772.045,676.154 772.126,675.709 772.2,675.263 772.266,674.815 772.325,674.367 772.375,673.918 772.418,673.468 772.453,673.017 772.48,672.566 772.5,672.114 772.512,671.662 772.516,671.21 772.516,111.796 772.512,111.344 772.5,110.892 772.48,110.441 772.453,109.989 772.418,109.539 772.375,109.088 772.325,108.639 772.266,108.191 772.2,107.744 772.126,107.297 772.045,106.853 771.956,106.409 771.859,105.968 771.754,105.528 771.642,105.09 771.523,104.654 771.396,104.22 771.261,103.788 771.119,103.359 770.97,102.932 770.813,102.508 770.649,102.087 770.478,101.668 770.3,101.253 770.114,100.84 769.922,100.431 769.722,100.026 769.515,99.624 769.302,99.225 769.081,98.83 768.854,98.439 768.62,98.052 768.38,97.67 768.132,97.291 767.879,96.917 767.619,96.547 767.352,96.181 767.08,95.821 766.801,95.465 766.516,95.114 766.225,94.768 765.928,94.427 765.625,94.091 765.317,93.76 765.003,93.435 764.683,93.115 764.358,92.801 764.027,92.493 763.691,92.19 763.35,91.893 763.004,91.602 762.653,91.317 762.297,91.038 761.937,90.766 761.571,90.499 761.201,90.239 760.827,89.986 760.448,89.738 760.066,89.498 759.679,89.264 759.288,89.037 758.893,88.816 758.495,88.603 758.092,88.396 757.687,88.197 757.278,88.004 756.865,87.818 756.45,87.64 756.031,87.469 755.61,87.305 755.186,87.148 754.759,86.999 754.33,86.857 753.898,86.722 753.464,86.595 753.028,86.476 752.59,86.364 752.15,86.259 751.709,86.162 751.265,86.073 750.821,85.992 750.375,85.918 749.927,85.852 749.479,85.793 749.03,85.743 748.579,85.7 748.129,85.665 747.677,85.638 747.226,85.618 746.774,85.606 746.322,85.602 511.054,85.602 510.602,85.606 510.15,85.618 509.698,85.638 509.247,85.665 508.796,85.7 508.346,85.743 507.897,85.793 507.449,85.852 507.001,85.918 506.555,85.992 506.11,86.073 505.667,86.162 505.226,86.259 504.786,86.364 504.348,86.476 503.911,86.595 503.478,86.722 503.046,86.857 502.617,86.999 502.19,87.148 501.766,87.305 501.344,87.469 500.926,87.64 500.51,87.818 500.098,88.004 499.689,88.197 499.283,88.396 498.881,88.603 498.483,88.816 498.088,89.037 497.697,89.264 497.31,89.498 496.927,89.738 496.549,89.986 496.174,90.239 495.804,90.499 495.439,90.766 495.078,91.038 494.723,91.317 494.372,91.602 494.025,91.893 493.684,92.19 493.349,92.493 493.018,92.801 492.693,93.115 492.373,93.435 492.059,93.76 491.75,94.091 491.448,94.427 491.151,94.768 490.86,95.114 490.575,95.465 490.296,95.821 490.023,96.181 489.757,96.547 489.497,96.917 489.243,97.291 488.996,97.67 488.756,98.052 488.522,98.439 488.295,98.83 488.074,99.225 487.861,99.624 487.654,100.026 487.454,100.431 487.262,100.84 487.076,101.253 486.898,101.668 486.726,102.087 486.562,102.508 486.406,102.932 486.256,103.359 486.114,103.788 485.98,104.22 485.853,104.654 485.733,105.09 485.621,105.528 485.517,105.968 485.42,106.409 485.331,106.853 485.25,107.297 485.176,107.744 485.11,108.191 485.051,108.639 485.001,109.088 484.958,109.539 484.923,109.989 484.895,110.441 484.876,110.892 484.864,111.344 484.86,111.796 484.86,671.21 484.864,671.662 484.876,672.114 484.895,672.566 484.923,673.017 484.958,673.468 485.001,673.918 485.051,674.367 485.11,674.815 485.176,675.263 485.25,675.709 485.331,676.154 485.42,676.597 485.517,677.038 485.621,677.478 485.733,677.916 485.853,678.352 485.98,678.786 486.114,679.218 486.256,679.647 486.406,680.074 486.562,680.498 486.726,680.92 486.898,681.338 487.076,681.754 487.262,682.166 487.454,682.575 487.654,682.981 487.861,683.383 488.074,683.781 488.295,684.176 488.522,684.567 488.756,684.954 488.996,685.337 489.243,685.715 489.497,686.09 489.757,686.459 490.023,686.825 490.296,687.185 490.575,687.541 490.86,687.892 491.151,688.239 491.448,688.58 491.75,688.915 492.059,689.246 492.373,689.571 492.693,689.891 493.018,690.205 493.349,690.513 493.684,690.816 494.025,691.113 494.372,691.404 494.723,691.689 495.078,691.968 495.439,692.241 495.804,692.507 496.174,692.767 496.549,693.021 496.927,693.268 497.31,693.508 497.697,693.742 498.088,693.969 498.483,694.19 498.881,694.403 499.283,694.61 499.689,694.81 500.098,695.002 500.51,695.188 500.926,695.366 501.344,695.538 501.766,695.702 502.19,695.858 502.617,696.008 503.046,696.149 503.478,696.284 503.911,696.411 504.348,696.531 504.786,696.643 505.226,696.747 505.667,696.844 506.11,696.933 506.555,697.014 507.001,697.088 507.449,697.154 507.897,697.213 508.346,697.263 508.796,697.306 509.247,697.341 509.698,697.369 510.15,697.388 510.602,697.4 511.054,697.404 746.322,697.404 746.774,697.4 747.226,697.388 747.677,697.369 748.129,697.341 748.579,697.306 749.03,697.263 749.479,697.213 749.927,697.154 750.375,697.088 750.821,697.014 751.265,696.933 751.709,696.844 752.15,696.747 752.59,696.643 753.028,696.531 753.464,696.411 753.898,696.284 754.33,696.149 754.759,696.008 755.186,695.858 755.61,695.702 756.031,695.538 756.45,695.366 756.865,695.188 757.278,695.002 757.687,694.81 758.092,694.61 758.495,694.403 758.893,694.19 759.288,693.969 759.679,693.742 760.066,693.508 760.448,693.268 760.827,693.021 761.201,692.767 "
           id="polygon25703"
           style="stroke:#80ffe6;stroke-opacity:1" />
      </g>
      <g
         id="POLYLINE_57_"
         style="stroke:#80ffe6;stroke-opacity:1">
        <polygon
           fill="none"
           stroke="#00b9d2"
           stroke-width="3.25"
           stroke-linecap="round"
           stroke-linejoin="round"
           stroke-miterlimit="10"
           points="770.299,101.251 770.165,100.952 770.027,100.654 769.885,100.356 769.739,100.06 769.589,99.766 769.435,99.472 769.277,99.18 769.115,98.89 768.949,98.601 768.779,98.314 768.605,98.028 768.427,97.745 768.246,97.463 768.06,97.183 767.871,96.905 767.678,96.63 767.481,96.356 767.281,96.085 767.076,95.817 766.869,95.55 766.657,95.286 766.442,95.025 766.224,94.767 766.002,94.511 765.777,94.258 765.549,94.007 765.317,93.76 765.082,93.516 764.844,93.275 764.602,93.036 764.358,92.801 764.111,92.57 763.86,92.341 763.607,92.116 763.351,91.894 763.093,91.676 762.832,91.461 762.568,91.249 762.301,91.042 762.033,90.837 761.762,90.637 761.488,90.44 761.213,90.247 760.935,90.058 760.655,89.872 760.373,89.691 760.09,89.513 759.804,89.339 759.517,89.169 759.228,89.003 758.938,88.841 758.646,88.683 758.352,88.529 758.058,88.379 757.762,88.233 757.464,88.091 757.166,87.953 756.867,87.819 756.566,87.689 756.265,87.563 755.963,87.442 755.661,87.324 755.357,87.21 755.054,87.101 754.749,86.995 754.445,86.894 754.14,86.796 753.834,86.703 753.529,86.614 753.224,86.528 752.918,86.447 752.612,86.369 752.307,86.296 752.002,86.226 751.697,86.16 751.392,86.098 751.088,86.04 750.784,85.985 750.481,85.935 750.178,85.888 749.876,85.845 749.575,85.805 749.274,85.769 748.974,85.737 748.675,85.708 748.377,85.683 748.08,85.662 747.784,85.643 747.489,85.629 747.195,85.617 746.903,85.609 746.612,85.604 746.322,85.602 511.054,85.602 510.764,85.604 510.473,85.609 510.18,85.617 509.887,85.629 509.592,85.643 509.296,85.662 508.999,85.683 508.701,85.708 508.402,85.737 508.102,85.769 507.801,85.805 507.5,85.845 507.198,85.888 506.895,85.935 506.592,85.985 506.288,86.04 505.984,86.098 505.679,86.16 505.374,86.226 505.069,86.296 504.763,86.369 504.458,86.447 504.152,86.528 503.847,86.614 503.541,86.703 503.236,86.796 502.931,86.894 502.626,86.995 502.322,87.101 502.018,87.21 501.715,87.324 501.412,87.442 501.11,87.563 500.809,87.689 500.509,87.819 500.21,87.953 499.911,88.091 499.614,88.233 499.318,88.379 499.023,88.529 498.73,88.683 498.438,88.841 498.148,89.003 497.859,89.169 497.572,89.339 497.286,89.513 497.002,89.691 496.721,89.872 496.441,90.058 496.163,90.247 495.888,90.44 495.614,90.637 495.343,90.837 495.074,91.042 494.808,91.249 494.544,91.461 494.283,91.676 494.024,91.894 493.769,92.116 493.515,92.341 493.265,92.57 493.018,92.801 492.774,93.036 492.532,93.275 492.294,93.516 492.059,93.76 491.827,94.007 491.599,94.258 491.374,94.511 491.152,94.767 490.933,95.025 490.718,95.286 490.507,95.55 490.299,95.817 490.095,96.085 489.895,96.356 489.698,96.63 489.505,96.905 489.315,97.183 489.13,97.463 488.948,97.745 488.771,98.028 488.597,98.314 488.427,98.601 488.261,98.89 488.099,99.18 487.941,99.472 487.787,99.766 487.636,100.06 487.49,100.356 487.348,100.654 487.211,100.952 487.077,101.251 486.947,101.552 486.821,101.853 486.699,102.155 486.582,102.457 486.468,102.761 486.359,103.064 486.253,103.369 486.152,103.673 486.054,103.978 485.961,104.284 485.871,104.589 485.786,104.895 485.704,105.2 485.627,105.506 485.553,105.811 485.484,106.116 485.418,106.421 485.356,106.726 485.298,107.03 485.243,107.334 485.193,107.637 485.146,107.94 485.103,108.242 485.063,108.543 485.027,108.844 484.995,109.144 484.966,109.443 484.941,109.741 484.919,110.038 484.901,110.334 484.886,110.629 484.875,110.923 484.867,111.215 484.862,111.506 484.86,111.796 484.86,117.26 484.86,183.68 481.949,183.68 481.949,223.953 484.86,223.953 484.86,671.21 484.862,671.5 484.867,671.791 484.875,672.084 484.886,672.377 484.901,672.672 484.919,672.968 484.941,673.265 484.966,673.563 484.995,673.862 485.027,674.162 485.063,674.463 485.103,674.764 485.146,675.066 485.193,675.369 485.243,675.672 485.298,675.976 485.356,676.28 485.418,676.585 485.484,676.89 485.553,677.195 485.627,677.501 485.704,677.806 485.786,678.112 485.871,678.417 485.961,678.723 486.054,679.028 486.152,679.333 486.253,679.638 486.359,679.942 486.468,680.246 486.582,680.549 486.699,680.852 486.821,681.154 486.947,681.455 487.077,681.755 487.211,682.054 487.348,682.353 487.49,682.65 487.636,682.946 487.787,683.24 487.941,683.534 488.099,683.826 488.261,684.116 488.427,684.405 488.597,684.692 488.771,684.978 488.948,685.262 489.13,685.543 489.315,685.823 489.505,686.101 489.698,686.376 489.895,686.65 490.095,686.921 490.299,687.19 490.507,687.456 490.718,687.72 490.933,687.981 491.152,688.24 491.374,688.495 491.599,688.749 491.827,688.999 492.059,689.246 492.294,689.49 492.532,689.732 492.774,689.97 493.018,690.205 493.265,690.437 493.515,690.665 493.769,690.89 494.024,691.112 494.283,691.331 494.544,691.546 494.808,691.757 495.074,691.965 495.343,692.169 495.614,692.369 495.888,692.566 496.163,692.759 496.441,692.948 496.721,693.134 497.002,693.316 497.286,693.493 497.572,693.667 497.859,693.837 498.148,694.003 498.438,694.165 498.73,694.323 499.023,694.477 499.318,694.628 499.614,694.773 499.911,694.915 500.21,695.053 500.509,695.187 500.809,695.317 501.11,695.443 501.412,695.565 501.715,695.682 502.018,695.796 502.322,695.905 502.626,696.011 502.931,696.112 503.236,696.21 503.541,696.303 503.847,696.393 504.152,696.478 504.458,696.56 504.763,696.637 505.069,696.711 505.374,696.78 505.679,696.846 505.984,696.908 506.288,696.966 506.592,697.021 506.895,697.071 507.198,697.118 507.5,697.161 507.801,697.201 508.102,697.237 508.402,697.269 508.701,697.298 508.999,697.323 509.296,697.345 509.592,697.363 509.887,697.378 510.18,697.389 510.473,697.397 510.764,697.402 511.054,697.404 746.322,697.404 746.612,697.402 746.903,697.397 747.195,697.389 747.489,697.378 747.784,697.363 748.08,697.345 748.377,697.323 748.675,697.298 748.974,697.269 749.274,697.237 749.575,697.201 749.876,697.161 750.178,697.118 750.481,697.071 750.784,697.021 751.088,696.966 751.392,696.908 751.697,696.846 752.002,696.78 752.307,696.711 752.612,696.637 752.918,696.56 753.224,696.478 753.529,696.393 753.834,696.303 754.14,696.21 754.445,696.112 754.749,696.011 755.054,695.905 755.357,695.796 755.661,695.682 755.963,695.565 756.265,695.443 756.566,695.317 756.867,695.187 757.166,695.053 757.464,694.915 757.762,694.773 758.058,694.628 758.352,694.477 758.646,694.323 758.938,694.165 759.228,694.003 759.517,693.837 759.804,693.667 760.09,693.493 760.373,693.316 760.655,693.134 760.935,692.948 761.213,692.759 761.488,692.566 761.762,692.369 762.033,692.169 762.301,691.965 762.568,691.757 762.832,691.546 763.093,691.331 763.351,691.112 763.607,690.89 763.86,690.665 764.111,690.437 764.358,690.205 764.602,689.97 764.844,689.732 765.082,689.49 765.317,689.246 765.549,688.999 765.777,688.749 766.002,688.495 766.224,688.24 766.442,687.981 766.657,687.72 766.869,687.456 767.076,687.19 767.281,686.921 767.481,686.65 767.678,686.376 767.871,686.101 768.06,685.823 768.246,685.543 768.427,685.262 768.605,684.978 768.779,684.692 768.949,684.405 769.115,684.116 769.277,683.826 769.435,683.534 769.589,683.24 769.739,682.946 769.885,682.65 770.027,682.353 770.165,682.054 770.299,681.755 770.429,681.455 770.555,681.154 770.676,680.852 770.794,680.549 770.908,680.246 771.017,679.942 771.123,679.638 771.224,679.333 771.322,679.028 771.415,678.723 771.504,678.417 771.59,678.112 771.671,677.806 771.749,677.501 771.823,677.195 771.892,676.89 771.958,676.585 772.02,676.28 772.078,675.976 772.133,675.672 772.183,675.369 772.23,675.066 772.273,674.764 772.313,674.463 772.349,674.162 772.381,673.862 772.41,673.563 772.435,673.265 772.456,672.968 772.475,672.672 772.49,672.377 772.501,672.084 772.509,671.791 772.514,671.5 772.516,671.21 772.516,665.443 772.516,340.944 775.427,340.944 775.427,301.284 772.516,301.284 772.516,266.649 775.427,266.649 775.427,188.858 772.516,188.858 772.516,111.796 772.514,111.506 772.509,111.215 772.501,110.923 772.49,110.629 772.475,110.334 772.456,110.038 772.435,109.741 772.41,109.443 772.381,109.144 772.349,108.844 772.313,108.543 772.273,108.242 772.23,107.94 772.183,107.637 772.133,107.334 772.078,107.03 772.02,106.726 771.958,106.421 771.892,106.116 771.823,105.811 771.749,105.506 771.671,105.2 771.59,104.895 771.504,104.589 771.415,104.284 771.322,103.978 771.224,103.673 771.123,103.369 771.017,103.064 770.908,102.761 770.794,102.457 770.676,102.155 770.555,101.853 770.429,101.552 "
           id="polygon25737"
           style="stroke:#80ffe6;stroke-opacity:1" />
      </g>
    </g>
  </g>
</svg>
