<?xml version="1.0" encoding="UTF-8" standalone="no"?>
<svg
   xmlns:dc="http://purl.org/dc/elements/1.1/"
   xmlns:cc="http://creativecommons.org/ns#"
   xmlns:rdf="http://www.w3.org/1999/02/22-rdf-syntax-ns#"
   xmlns:svg="http://www.w3.org/2000/svg"
   xmlns="http://www.w3.org/2000/svg"
   xmlns:sodipodi="http://sodipodi.sourceforge.net/DTD/sodipodi-0.dtd"
   xmlns:inkscape="http://www.inkscape.org/namespaces/inkscape"
   width="14.999999mm"
   height="30.358393mm"
   viewBox="0 0 15 30.358394"
   version="1.1"
   id="svg4830"
   inkscape:version="1.0.2 (e86c8708, 2021-01-15)"
   sodipodi:docname="s7.svg">
  <defs
     id="defs4824" />
  <sodipodi:namedview
     id="base"
     pagecolor="#ffffff"
     bordercolor="#666666"
     borderopacity="1.0"
     inkscape:pageopacity="0.0"
     inkscape:pageshadow="2"
     inkscape:zoom="3.8813991"
     inkscape:cx="-19.455266"
     inkscape:cy="73.317669"
     inkscape:document-units="mm"
     inkscape:current-layer="layer1"
     inkscape:document-rotation="0"
     showgrid="false"
     inkscape:window-width="1440"
     inkscape:window-height="872"
     inkscape:window-x="0"
     inkscape:window-y="28"
     inkscape:window-maximized="0" />
  <metadata
     id="metadata4827">
    <rdf:RDF>
      <cc:Work
         rdf:about="">
        <dc:format>image/svg+xml</dc:format>
        <dc:type
           rdf:resource="http://purl.org/dc/dcmitype/StillImage" />
        <dc:title></dc:title>
      </cc:Work>
    </rdf:RDF>
  </metadata>
  <g
     inkscape:label="Layer 1"
     inkscape:groupmode="layer"
     id="layer1"
     transform="translate(-87.765769,-72.866116)">
    <g
       id="g35559"
       transform="matrix(0.05309565,0,0,0.05309565,62.22846,67.47181)"
       style="stroke:#80ffe6;stroke-opacity:1">
      <g
         id="g35513"
         style="stroke:#80ffe6;stroke-opacity:1">
        <polygon
           fill="none"
           stroke="#00b9d2"
           stroke-width="2"
           stroke-linecap="round"
           stroke-linejoin="round"
           stroke-miterlimit="10"
           points="746.007,663.334 746.288,663.129 746.566,662.919 746.841,662.704 747.111,662.484 747.378,662.26 747.641,662.031 747.9,661.797 748.155,661.559 748.406,661.317 748.652,661.071 748.894,660.82 749.132,660.565 749.366,660.306 749.594,660.043 749.819,659.776 750.039,659.506 750.253,659.231 750.464,658.953 750.669,658.672 750.87,658.386 751.065,658.098 751.256,657.806 751.441,657.511 751.621,657.213 751.797,656.911 751.967,656.607 752.131,656.299 752.291,655.989 752.445,655.677 752.593,655.361 752.736,655.043 752.874,654.723 753.006,654.401 753.132,654.076 753.253,653.749 753.368,653.42 753.477,653.089 753.581,652.756 753.679,652.421 753.771,652.085 753.858,651.747 753.938,651.408 754.013,651.068 754.081,650.726 754.144,650.383 754.201,650.039 754.252,649.694 754.297,649.349 754.336,649.002 754.369,648.655 754.396,648.308 754.417,647.96 754.432,647.611 754.441,647.263 754.444,646.914 754.444,128.045 754.441,127.697 754.432,127.348 754.417,127 754.396,126.652 754.369,126.305 754.336,125.958 754.297,125.611 754.252,125.266 754.201,124.921 754.144,124.577 754.081,124.234 754.013,123.892 753.938,123.552 753.858,123.212 753.771,122.875 753.679,122.539 753.581,122.204 753.477,121.871 753.368,121.54 753.253,121.211 753.132,120.884 753.006,120.559 752.874,120.237 752.736,119.916 752.593,119.598 752.445,119.283 752.291,118.97 752.131,118.66 751.967,118.353 751.797,118.049 751.621,117.747 751.441,117.449 751.256,117.154 751.065,116.862 750.87,116.573 750.669,116.288 750.464,116.006 750.253,115.728 750.039,115.454 749.819,115.183 749.594,114.916 749.366,114.654 749.132,114.395 748.894,114.14 748.652,113.889 748.406,113.643 748.155,113.4 747.9,113.163 747.641,112.929 747.378,112.7 747.111,112.476 746.841,112.256 746.566,112.041 746.288,111.831 746.007,111.626 745.721,111.425 745.433,111.23 745.141,111.039 744.846,110.854 744.547,110.673 744.246,110.498 743.942,110.328 743.634,110.164 743.324,110.004 743.012,109.85 742.696,109.702 742.378,109.559 742.058,109.421 741.735,109.289 741.411,109.163 741.084,109.042 740.755,108.927 740.424,108.817 740.091,108.714 739.756,108.616 739.42,108.523 739.082,108.437 738.743,108.357 738.403,108.282 738.061,108.213 737.718,108.15 737.374,108.093 737.029,108.043 736.683,107.998 736.337,107.958 735.99,107.925 735.643,107.898 735.295,107.877 734.946,107.862 734.598,107.853 734.249,107.85 510.195,107.85 509.847,107.853 509.498,107.862 509.15,107.877 508.802,107.898 508.454,107.925 508.107,107.958 507.761,107.998 507.415,108.043 507.07,108.093 506.727,108.15 506.384,108.213 506.042,108.282 505.701,108.357 505.362,108.437 505.024,108.523 504.688,108.616 504.354,108.714 504.021,108.817 503.69,108.927 503.361,109.042 503.034,109.163 502.709,109.289 502.386,109.421 502.066,109.559 501.748,109.702 501.433,109.85 501.12,110.004 500.81,110.164 500.503,110.328 500.198,110.498 499.897,110.673 499.599,110.854 499.304,111.039 499.012,111.23 498.723,111.425 498.438,111.626 498.156,111.831 497.878,112.041 497.604,112.256 497.333,112.476 497.066,112.7 496.803,112.929 496.544,113.163 496.29,113.4 496.039,113.643 495.792,113.889 495.55,114.14 495.312,114.395 495.079,114.654 494.85,114.916 494.626,115.183 494.406,115.454 494.191,115.728 493.981,116.006 493.775,116.288 493.575,116.573 493.379,116.862 493.189,117.154 493.003,117.449 492.823,117.747 492.648,118.049 492.478,118.353 492.313,118.66 492.154,118.97 492,119.283 491.851,119.598 491.708,119.916 491.571,120.237 491.439,120.559 491.312,120.884 491.192,121.211 491.076,121.54 490.967,121.871 490.863,122.204 490.765,122.539 490.673,122.875 490.587,123.212 490.506,123.552 490.432,123.892 490.363,124.234 490.3,124.577 490.243,124.921 490.192,125.266 490.147,125.611 490.108,125.958 490.075,126.305 490.048,126.652 490.027,127 490.012,127.348 490.003,127.697 490,128.045 490,646.914 490.003,647.263 490.012,647.611 490.027,647.96 490.048,648.308 490.075,648.655 490.108,649.002 490.147,649.349 490.192,649.694 490.243,650.039 490.3,650.383 490.363,650.726 490.432,651.068 490.506,651.408 490.587,651.747 490.673,652.085 490.765,652.421 490.863,652.756 490.967,653.089 491.076,653.42 491.192,653.749 491.312,654.076 491.439,654.401 491.571,654.723 491.708,655.043 491.851,655.361 492,655.677 492.154,655.989 492.313,656.299 492.478,656.607 492.648,656.911 492.823,657.213 493.003,657.511 493.189,657.806 493.379,658.098 493.575,658.386 493.775,658.672 493.981,658.953 494.191,659.231 494.406,659.506 494.626,659.776 494.85,660.043 495.079,660.306 495.312,660.565 495.55,660.82 495.792,661.071 496.039,661.317 496.29,661.559 496.544,661.797 496.803,662.031 497.066,662.26 497.333,662.484 497.604,662.704 497.878,662.919 498.156,663.129 498.438,663.334 498.723,663.535 499.012,663.73 499.304,663.921 499.599,664.106 499.897,664.286 500.198,664.462 500.503,664.632 500.81,664.796 501.12,664.956 501.433,665.11 501.748,665.258 502.066,665.401 502.386,665.539 502.709,665.671 503.034,665.797 503.361,665.918 503.69,666.033 504.021,666.143 504.354,666.246 504.688,666.344 505.024,666.436 505.362,666.523 505.701,666.603 506.042,666.678 506.384,666.747 506.727,666.809 507.07,666.866 507.415,666.917 507.761,666.962 508.107,667.001 508.454,667.034 508.802,667.061 509.15,667.082 509.498,667.097 509.847,667.107 510.195,667.11 734.249,667.11 734.598,667.107 734.946,667.097 735.295,667.082 735.643,667.061 735.99,667.034 736.337,667.001 736.683,666.962 737.029,666.917 737.374,666.866 737.718,666.809 738.061,666.747 738.403,666.678 738.743,666.603 739.082,666.523 739.42,666.436 739.756,666.344 740.091,666.246 740.424,666.143 740.755,666.033 741.084,665.918 741.411,665.797 741.735,665.671 742.058,665.539 742.378,665.401 742.696,665.258 743.012,665.11 743.324,664.956 743.634,664.796 743.942,664.632 744.246,664.462 744.547,664.286 744.846,664.106 745.141,663.921 745.433,663.73 745.721,663.535 "
           id="polygon35511"
           style="stroke:#80ffe6;stroke-opacity:1" />
      </g>
      <g
         id="g35517"
         style="stroke:#80ffe6;stroke-opacity:1">
        <path
           fill="none"
           stroke="#00b9d2"
           stroke-width="2"
           stroke-linecap="round"
           stroke-linejoin="round"
           stroke-miterlimit="10"
           d="m 666.155,209.62 10e-4,0.127 0.003,0.127 0.005,0.127 0.008,0.127 0.01,0.127 0.012,0.127 0.014,0.127 c 0,0 0.016,0.126 0.016,0.126 l 0.019,0.126 0.021,0.126 0.023,0.125 0.025,0.125 0.027,0.124 0.029,0.124 0.032,0.123 0.034,0.123 0.036,0.122 0.038,0.122 0.04,0.121 c 0,0 0.042,0.12 0.042,0.12 l 0.044,0.119 0.046,0.119 0.048,0.118 0.05,0.117 0.052,0.116 0.054,0.115 0.056,0.114 0.058,0.113 0.06,0.112 0.062,0.111 0.064,0.11 c 0.066,0.109 0.134,0.217 0.134,0.217 0.07,0.107 0.141,0.212 0.141,0.212 0.073,0.104 0.148,0.207 0.148,0.207 0.077,0.102 0.155,0.202 0.155,0.202 0.08,0.099 0.162,0.196 0.162,0.196 0.084,0.096 0.169,0.191 0.169,0.191 0.087,0.093 0.175,0.185 0.175,0.185 0.09,0.09 0.182,0.179 0.182,0.179 0.093,0.087 0.188,0.172 0.188,0.172 0.096,0.084 0.194,0.166 0.194,0.166 0.099,0.08 0.199,0.159 0.199,0.159 0.102,0.077 0.204,0.152 0.204,0.152 0.104,0.073 0.21,0.145 0.21,0.145 0.107,0.07 0.214,0.137 0.214,0.137 0.109,0.066 0.219,0.13 0.219,0.13 l 0.111,0.062 0.112,0.06 0.113,0.058 0.114,0.056 0.115,0.054 0.116,0.052 0.117,0.05 c 0,0 0.118,0.048 0.118,0.048 l 0.119,0.046 0.12,0.044 0.12,0.042 0.121,0.04 0.122,0.038 0.122,0.036 0.123,0.034 0.123,0.032 0.124,0.029 0.124,0.027 c 0,0 0.125,0.025 0.125,0.025 l 0.125,0.023 0.126,0.021 0.126,0.019 0.126,0.016 0.127,0.014 0.127,0.012 0.127,0.01 0.127,0.008 0.127,0.005 0.127,0.003 0.127,0.001 h 3.473 l 0.127,-0.001 0.127,-0.003 0.127,-0.005 0.127,-0.008 0.127,-0.01 0.127,-0.012 0.127,-0.014 0.126,-0.016 0.126,-0.019 0.126,-0.021 0.125,-0.023 0.125,-0.025 0.124,-0.027 0.124,-0.029 0.123,-0.032 0.123,-0.034 0.122,-0.036 0.122,-0.038 0.121,-0.04 0.12,-0.042 0.119,-0.044 0.119,-0.046 0.118,-0.048 0.117,-0.05 0.116,-0.052 0.115,-0.054 0.114,-0.056 0.113,-0.058 0.112,-0.06 0.111,-0.062 0.11,-0.064 c 0.109,-0.066 0.217,-0.134 0.217,-0.134 0.107,-0.07 0.212,-0.141 0.212,-0.141 0.104,-0.073 0.207,-0.148 0.207,-0.148 0.102,-0.077 0.202,-0.155 0.202,-0.155 0.099,-0.08 0.196,-0.162 0.196,-0.162 0.096,-0.084 0.191,-0.169 0.191,-0.169 0.093,-0.087 0.185,-0.175 0.185,-0.175 0.09,-0.09 0.179,-0.182 0.179,-0.182 0.087,-0.093 0.172,-0.188 0.172,-0.188 0.084,-0.096 0.166,-0.194 0.166,-0.194 0.08,-0.099 0.159,-0.199 0.159,-0.199 0.077,-0.102 0.152,-0.205 0.152,-0.205 0.073,-0.104 0.145,-0.21 0.145,-0.21 0.07,-0.107 0.137,-0.215 0.137,-0.215 0.066,-0.109 0.13,-0.219 0.13,-0.219 l 0.062,-0.111 c 0,0 0.06,-0.112 0.06,-0.112 l 0.058,-0.113 0.056,-0.114 0.054,-0.115 c 0,0 0.052,-0.116 0.052,-0.116 l 0.05,-0.117 c 0,0 0.048,-0.118 0.048,-0.118 l 0.046,-0.119 0.044,-0.119 0.042,-0.12 0.04,-0.121 c 0,0 0.038,-0.122 0.038,-0.122 l 0.036,-0.122 0.034,-0.123 c 0,0 0.032,-0.123 0.032,-0.123 l 0.029,-0.124 0.027,-0.124 0.025,-0.125 0.023,-0.125 0.021,-0.126 0.019,-0.126 0.016,-0.126 0.014,-0.127 0.012,-0.127 0.01,-0.127 0.008,-0.127 0.005,-0.127 0.003,-0.127 10e-4,-0.127 v -29.671 l -10e-4,-0.127 -0.003,-0.127 c 0,0 -0.005,-0.127 -0.005,-0.127 l -0.008,-0.127 -0.01,-0.127 -0.012,-0.127 -0.014,-0.127 -0.016,-0.126 -0.019,-0.126 -0.021,-0.126 c 0,0 -0.023,-0.125 -0.023,-0.125 l -0.025,-0.125 -0.027,-0.124 -0.029,-0.124 -0.032,-0.123 -0.034,-0.123 -0.036,-0.122 -0.038,-0.122 -0.04,-0.121 -0.042,-0.12 -0.044,-0.119 -0.046,-0.119 -0.048,-0.118 -0.05,-0.117 -0.052,-0.116 -0.054,-0.115 -0.056,-0.114 -0.058,-0.113 -0.06,-0.112 -0.062,-0.111 -0.064,-0.11 c -0.066,-0.109 -0.134,-0.217 -0.134,-0.217 -0.07,-0.107 -0.141,-0.212 -0.141,-0.212 -0.073,-0.104 -0.148,-0.207 -0.148,-0.207 -0.077,-0.102 -0.155,-0.202 -0.155,-0.202 -0.08,-0.099 -0.162,-0.196 -0.162,-0.196 -0.084,-0.096 -0.169,-0.191 -0.169,-0.191 -0.087,-0.093 -0.175,-0.185 -0.175,-0.185 -0.09,-0.09 -0.182,-0.179 -0.182,-0.179 -0.093,-0.087 -0.188,-0.172 -0.188,-0.172 -0.096,-0.084 -0.194,-0.166 -0.194,-0.166 -0.099,-0.08 -0.199,-0.159 -0.199,-0.159 -0.102,-0.077 -0.205,-0.152 -0.205,-0.152 -0.104,-0.073 -0.21,-0.145 -0.21,-0.145 -0.107,-0.07 -0.215,-0.137 -0.215,-0.137 -0.109,-0.066 -0.219,-0.13 -0.219,-0.13 l -0.111,-0.062 -0.112,-0.06 -0.113,-0.058 -0.114,-0.056 -0.115,-0.054 -0.116,-0.052 -0.117,-0.05 -0.118,-0.048 -0.119,-0.046 -0.119,-0.044 -0.12,-0.042 -0.121,-0.04 -0.122,-0.038 -0.122,-0.036 -0.123,-0.034 -0.123,-0.032 -0.124,-0.029 -0.124,-0.027 -0.125,-0.025 -0.125,-0.023 -0.126,-0.021 -0.126,-0.019 -0.126,-0.016 c 0,0 -0.127,-0.014 -0.127,-0.014 0,0 -0.127,-0.012 -0.127,-0.012 l -0.127,-0.01 -0.127,-0.008 -0.127,-0.005 -0.127,-0.003 -0.127,-10e-4 h -3.473 l -0.127,10e-4 c 0,0 -0.127,0.003 -0.127,0.003 0,0 -0.127,0.005 -0.127,0.005 l -0.127,0.008 -0.127,0.01 -0.127,0.012 c 0,0 -0.127,0.014 -0.127,0.014 0,0 -0.126,0.016 -0.126,0.016 l -0.126,0.019 -0.126,0.021 -0.125,0.023 -0.125,0.025 -0.124,0.027 -0.124,0.029 -0.123,0.032 -0.123,0.034 c 0,0 -0.122,0.036 -0.122,0.036 l -0.122,0.038 -0.121,0.04 -0.12,0.042 -0.12,0.044 -0.119,0.046 -0.118,0.048 -0.117,0.05 -0.116,0.052 -0.115,0.054 -0.114,0.056 -0.113,0.058 c 0,0 -0.112,0.06 -0.112,0.06 0,0 -0.111,0.062 -0.111,0.062 l -0.11,0.064 c -0.109,0.066 -0.217,0.134 -0.217,0.134 -0.107,0.07 -0.212,0.141 -0.212,0.141 -0.104,0.073 -0.207,0.148 -0.207,0.148 -0.102,0.077 -0.202,0.155 -0.202,0.155 -0.099,0.08 -0.196,0.162 -0.196,0.162 -0.096,0.084 -0.191,0.169 -0.191,0.169 -0.093,0.087 -0.185,0.175 -0.185,0.175 -0.09,0.09 -0.179,0.182 -0.179,0.182 -0.087,0.093 -0.172,0.188 -0.172,0.188 -0.084,0.096 -0.166,0.194 -0.166,0.194 -0.08,0.099 -0.159,0.199 -0.159,0.199 -0.077,0.102 -0.152,0.205 -0.152,0.205 -0.073,0.104 -0.145,0.21 -0.145,0.21 -0.07,0.107 -0.137,0.215 -0.137,0.215 -0.066,0.109 -0.13,0.219 -0.13,0.219 0,0 -0.062,0.111 -0.062,0.111 l -0.056,0.11 -0.058,0.113 -0.056,0.114 -0.054,0.115 -0.052,0.116 -0.05,0.117 -0.048,0.118 -0.046,0.119 -0.044,0.119 -0.042,0.12 -0.04,0.121 -0.038,0.122 -0.036,0.122 -0.034,0.123 -0.032,0.123 -0.029,0.124 -0.027,0.124 -0.025,0.125 -0.023,0.125 c 0,0 -0.021,0.126 -0.021,0.126 l -0.019,0.126 -0.016,0.126 -0.014,0.127 -0.012,0.127 -0.01,0.127 -0.008,0.127 -0.005,0.127 c 0,0 -0.003,0.127 -0.003,0.127 l -10e-4,0.127 c -0.002,0.002 -0.002,29.673 -0.002,29.673 z"
           id="path35515"
           style="stroke:#80ffe6;stroke-opacity:1" />
      </g>
      <g
         id="g35521"
         style="stroke:#80ffe6;stroke-opacity:1">
        <path
           fill="none"
           stroke="#00b9d2"
           stroke-width="2"
           stroke-linecap="round"
           stroke-linejoin="round"
           stroke-miterlimit="10"
           d="m 672.598,177.724 c -0.094,0.002 -0.142,0.004 -0.142,0.004 -0.094,0.007 -0.141,0.011 -0.141,0.011 -0.094,0.011 -0.14,0.018 -0.14,0.018 -0.093,0.016 -0.139,0.026 -0.139,0.026 -0.092,0.021 -0.138,0.033 -0.138,0.033 -0.091,0.026 -0.136,0.04 -0.136,0.04 -0.089,0.03 -0.134,0.047 -0.134,0.047 -0.088,0.035 -0.131,0.054 -0.131,0.054 -0.086,0.039 -0.128,0.06 -0.128,0.06 -0.084,0.044 -0.125,0.067 -0.125,0.067 -0.081,0.048 -0.121,0.073 -0.121,0.073 -0.079,0.052 -0.117,0.079 -0.117,0.079 -0.076,0.056 -0.113,0.085 -0.113,0.085 -0.108,0.091 -0.143,0.123 -0.143,0.123 -0.102,0.098 -0.135,0.132 -0.135,0.132 -0.095,0.105 -0.125,0.141 -0.125,0.141 -0.059,0.074 -0.087,0.111 -0.087,0.111 -0.055,0.077 -0.081,0.116 -0.081,0.116 -0.051,0.079 -0.075,0.12 -0.075,0.12 -0.047,0.082 -0.069,0.124 -0.069,0.124 -0.042,0.084 -0.062,0.127 -0.062,0.127 -0.038,0.086 -0.056,0.13 -0.056,0.13 -0.034,0.088 -0.049,0.133 -0.049,0.133 -0.029,0.09 -0.042,0.135 -0.042,0.135 -0.024,0.091 -0.035,0.137 -0.035,0.137 -0.019,0.092 -0.028,0.139 -0.028,0.139 -0.015,0.093 -0.021,0.14 -0.021,0.14 -0.01,0.094 -0.013,0.141 -0.013,0.141 -0.005,0.094 -0.006,0.141 -0.006,0.141 0,0.047 0,5.15 0,5.15 0.002,0.094 0.004,0.142 0.004,0.142 0.006,0.094 0.011,0.141 0.011,0.141 0.011,0.094 0.018,0.14 0.018,0.14 0.016,0.093 0.026,0.139 0.026,0.139 0.021,0.092 0.033,0.138 0.033,0.138 0.026,0.091 0.04,0.136 0.04,0.136 0.03,0.089 0.047,0.134 0.047,0.134 0.035,0.088 0.054,0.131 0.054,0.131 0.039,0.086 0.06,0.128 0.06,0.128 0.044,0.084 0.067,0.125 0.067,0.125 0.048,0.081 0.073,0.121 0.073,0.121 0.052,0.079 0.079,0.117 0.079,0.117 0.056,0.076 0.085,0.113 0.085,0.113 0.091,0.108 0.123,0.143 0.123,0.143 0.098,0.102 0.132,0.135 0.132,0.135 0.105,0.095 0.141,0.125 0.141,0.125 0.074,0.059 0.111,0.087 0.111,0.087 0.077,0.055 0.116,0.081 0.116,0.081 0.08,0.051 0.12,0.075 0.12,0.075 0.082,0.047 0.124,0.069 0.124,0.069 0.084,0.042 0.127,0.063 0.127,0.063 0.086,0.038 0.13,0.056 0.13,0.056 0.088,0.033 0.133,0.049 0.133,0.049 0.09,0.029 0.135,0.042 0.135,0.042 0.091,0.024 0.137,0.035 0.137,0.035 0.092,0.019 0.139,0.028 0.139,0.028 0.093,0.015 0.14,0.021 0.14,0.021 0.094,0.01 0.141,0.013 0.141,0.013 0.094,0.005 0.141,0.006 0.141,0.006 0.047,0 5.393,0 5.393,0 0.094,-0.002 0.142,-0.004 0.142,-0.004 0.094,-0.007 0.141,-0.011 0.141,-0.011 0.094,-0.011 0.14,-0.018 0.14,-0.018 0.093,-0.016 0.139,-0.026 0.139,-0.026 0.092,-0.021 0.138,-0.033 0.138,-0.033 0.091,-0.026 0.136,-0.04 0.136,-0.04 0.089,-0.03 0.134,-0.047 0.134,-0.047 0.088,-0.035 0.131,-0.054 0.131,-0.054 0.086,-0.039 0.128,-0.06 0.128,-0.06 0.084,-0.044 0.125,-0.067 0.125,-0.067 0.081,-0.048 0.121,-0.073 0.121,-0.073 0.079,-0.052 0.117,-0.079 0.117,-0.079 0.076,-0.056 0.113,-0.085 0.113,-0.085 0.108,-0.091 0.143,-0.123 0.143,-0.123 0.102,-0.098 0.135,-0.132 0.135,-0.132 0.095,-0.105 0.125,-0.141 0.125,-0.141 0.059,-0.074 0.087,-0.111 0.087,-0.111 0.055,-0.077 0.081,-0.116 0.081,-0.116 0.051,-0.079 0.075,-0.12 0.075,-0.12 0.047,-0.082 0.069,-0.124 0.069,-0.124 0.042,-0.084 0.062,-0.127 0.062,-0.127 0.038,-0.086 0.056,-0.13 0.056,-0.13 0.033,-0.088 0.049,-0.133 0.049,-0.133 0.029,-0.09 0.042,-0.135 0.042,-0.135 0.024,-0.091 0.035,-0.137 0.035,-0.137 0.019,-0.092 0.028,-0.139 0.028,-0.139 0.015,-0.093 0.021,-0.14 0.021,-0.14 0.01,-0.094 0.013,-0.141 0.013,-0.141 0.005,-0.094 0.006,-0.141 0.006,-0.141 0,-0.047 0,-5.15 0,-5.15 -0.002,-0.094 -0.004,-0.142 -0.004,-0.142 -0.007,-0.094 -0.011,-0.141 -0.011,-0.141 -0.011,-0.094 -0.018,-0.14 -0.018,-0.14 -0.016,-0.093 -0.026,-0.139 -0.026,-0.139 -0.021,-0.092 -0.033,-0.138 -0.033,-0.138 -0.026,-0.091 -0.04,-0.136 -0.04,-0.136 -0.03,-0.089 -0.047,-0.134 -0.047,-0.134 -0.035,-0.088 -0.054,-0.131 -0.054,-0.131 -0.039,-0.086 -0.06,-0.128 -0.06,-0.128 -0.044,-0.084 -0.067,-0.125 -0.067,-0.125 -0.048,-0.081 -0.073,-0.121 -0.073,-0.121 -0.052,-0.079 -0.079,-0.117 -0.079,-0.117 -0.056,-0.076 -0.085,-0.113 -0.085,-0.113 -0.091,-0.108 -0.123,-0.143 -0.123,-0.143 -0.098,-0.102 -0.132,-0.135 -0.132,-0.135 -0.105,-0.095 -0.141,-0.125 -0.141,-0.125 -0.074,-0.059 -0.111,-0.087 -0.111,-0.087 -0.077,-0.055 -0.116,-0.081 -0.116,-0.081 -0.079,-0.051 -0.12,-0.075 -0.12,-0.075 -0.082,-0.047 -0.124,-0.069 -0.124,-0.069 -0.084,-0.042 -0.127,-0.063 -0.127,-0.063 -0.086,-0.038 -0.13,-0.056 -0.13,-0.056 -0.088,-0.033 -0.133,-0.049 -0.133,-0.049 -0.09,-0.029 -0.135,-0.042 -0.135,-0.042 -0.091,-0.024 -0.137,-0.035 -0.137,-0.035 -0.092,-0.019 -0.139,-0.028 -0.139,-0.028 -0.093,-0.015 -0.14,-0.021 -0.14,-0.021 -0.094,-0.01 -0.141,-0.013 -0.141,-0.013 -0.094,-0.005 -0.141,-0.006 -0.141,-0.006 -0.048,0 -5.393,0 -5.393,0 z"
           id="path35519"
           style="stroke:#80ffe6;stroke-opacity:1" />
      </g>
      <g
         id="g35525"
         style="stroke:#80ffe6;stroke-opacity:1">
        <polygon
           fill="none"
           stroke="#00b9d2"
           stroke-width="2.75"
           stroke-linecap="round"
           stroke-linejoin="round"
           stroke-miterlimit="10"
           points="748.702,667.098 749.048,666.846 749.39,666.587 749.727,666.323 750.06,666.053 750.388,665.777 750.711,665.496 751.029,665.209 751.343,664.917 751.651,664.619 751.954,664.316 752.252,664.008 752.544,663.695 752.831,663.376 753.112,663.053 753.388,662.725 753.658,662.392 753.922,662.055 754.181,661.713 754.433,661.367 754.68,661.016 754.92,660.662 755.154,660.303 755.382,659.94 755.604,659.573 755.819,659.203 756.028,658.829 756.231,658.451 756.426,658.07 756.616,657.685 756.798,657.298 756.974,656.907 757.143,656.513 757.305,656.117 757.461,655.717 757.609,655.315 757.751,654.911 757.885,654.504 758.013,654.095 758.133,653.684 758.247,653.27 758.353,652.855 758.452,652.438 758.543,652.02 758.628,651.6 758.705,651.178 758.775,650.755 758.838,650.332 758.893,649.907 758.941,649.481 758.982,649.054 759.015,648.627 759.041,648.199 759.059,647.771 759.07,647.343 759.074,646.914 759.074,128.045 759.07,127.617 759.059,127.189 759.041,126.761 759.015,126.333 758.982,125.906 758.941,125.479 758.893,125.053 758.838,124.628 758.775,124.204 758.705,123.782 758.628,123.36 758.543,122.94 758.452,122.521 758.353,122.105 758.247,121.689 758.133,121.276 758.013,120.865 757.885,120.456 757.751,120.049 757.609,119.644 757.461,119.242 757.305,118.843 757.143,118.447 756.974,118.053 756.798,117.662 756.616,117.274 756.426,116.89 756.231,116.509 756.028,116.131 755.819,115.757 755.604,115.386 755.382,115.02 755.154,114.657 754.92,114.298 754.68,113.943 754.433,113.593 754.181,113.247 753.922,112.905 753.658,112.567 753.388,112.235 753.112,111.907 752.831,111.584 752.544,111.265 752.252,110.952 751.954,110.644 751.651,110.341 751.343,110.043 751.029,109.751 750.711,109.464 750.388,109.182 750.06,108.907 749.727,108.637 749.39,108.372 749.048,108.114 748.702,107.861 748.351,107.615 747.997,107.375 747.638,107.14 747.275,106.912 746.908,106.691 746.538,106.475 746.164,106.267 745.786,106.064 745.405,105.868 745.02,105.679 744.633,105.496 744.242,105.321 743.848,105.152 743.452,104.989 743.052,104.834 742.65,104.685 742.246,104.544 741.839,104.409 741.43,104.282 741.019,104.161 740.605,104.048 740.19,103.942 739.773,103.843 739.355,103.751 738.935,103.667 738.513,103.59 738.09,103.52 737.666,103.457 737.242,103.402 736.816,103.354 736.389,103.313 735.962,103.28 735.534,103.254 735.106,103.235 734.678,103.224 734.249,103.221 510.195,103.221 509.767,103.224 509.338,103.235 508.91,103.254 508.483,103.28 508.055,103.313 507.629,103.354 507.203,103.402 506.778,103.457 506.354,103.52 505.931,103.59 505.51,103.667 505.09,103.751 504.671,103.843 504.254,103.942 503.839,104.048 503.426,104.161 503.015,104.282 502.605,104.409 502.199,104.544 501.794,104.685 501.392,104.834 500.993,104.989 500.596,105.152 500.203,105.321 499.812,105.496 499.424,105.679 499.04,105.868 498.659,106.064 498.281,106.267 497.907,106.475 497.536,106.691 497.169,106.912 496.807,107.14 496.448,107.375 496.093,107.615 495.743,107.861 495.396,108.114 495.055,108.372 494.717,108.637 494.384,108.907 494.056,109.182 493.733,109.464 493.415,109.751 493.102,110.043 492.794,110.341 492.491,110.644 492.193,110.952 491.9,111.265 491.614,111.584 491.332,111.907 491.056,112.235 490.786,112.567 490.522,112.905 490.264,113.247 490.011,113.593 489.765,113.943 489.524,114.298 489.29,114.657 489.062,115.02 488.841,115.386 488.625,115.757 488.416,116.131 488.214,116.509 488.018,116.89 487.829,117.274 487.646,117.662 487.47,118.053 487.301,118.447 487.139,118.843 486.984,119.242 486.835,119.644 486.694,120.049 486.559,120.456 486.432,120.865 486.311,121.276 486.198,121.689 486.092,122.105 485.993,122.521 485.901,122.94 485.817,123.36 485.739,123.782 485.669,124.204 485.607,124.628 485.551,125.053 485.503,125.479 485.463,125.906 485.43,126.333 485.404,126.761 485.385,127.189 485.374,127.617 485.37,128.045 485.37,646.914 485.374,647.343 485.385,647.771 485.404,648.199 485.43,648.627 485.463,649.054 485.503,649.481 485.551,649.907 485.607,650.332 485.669,650.755 485.739,651.178 485.817,651.6 485.901,652.02 485.993,652.438 486.092,652.855 486.198,653.27 486.311,653.684 486.432,654.095 486.559,654.504 486.694,654.911 486.835,655.315 486.984,655.717 487.139,656.117 487.301,656.513 487.47,656.907 487.646,657.298 487.829,657.685 488.018,658.07 488.214,658.451 488.416,658.829 488.625,659.203 488.841,659.573 489.062,659.94 489.29,660.303 489.524,660.662 489.765,661.016 490.011,661.367 490.264,661.713 490.522,662.055 490.786,662.392 491.056,662.725 491.332,663.053 491.614,663.376 491.9,663.695 492.193,664.008 492.491,664.316 492.794,664.619 493.102,664.917 493.415,665.209 493.733,665.496 494.056,665.777 494.384,666.053 494.717,666.323 495.055,666.587 495.396,666.846 495.743,667.098 496.093,667.345 496.448,667.585 496.807,667.819 497.169,668.047 497.536,668.269 497.907,668.484 498.281,668.693 498.659,668.896 499.04,669.091 499.424,669.281 499.812,669.463 500.203,669.639 500.596,669.808 500.993,669.971 501.392,670.126 501.794,670.274 502.199,670.416 502.605,670.55 503.015,670.678 503.426,670.798 503.839,670.912 504.254,671.018 504.671,671.117 505.09,671.208 505.51,671.293 505.931,671.37 506.354,671.44 506.778,671.503 507.203,671.558 507.629,671.606 508.055,671.647 508.483,671.68 508.91,671.706 509.338,671.724 509.767,671.735 510.195,671.739 734.249,671.739 734.678,671.735 735.106,671.724 735.534,671.706 735.962,671.68 736.389,671.647 736.816,671.606 737.242,671.558 737.666,671.503 738.09,671.44 738.513,671.37 738.935,671.293 739.355,671.208 739.773,671.117 740.19,671.018 740.605,670.912 741.019,670.798 741.43,670.678 741.839,670.55 742.246,670.416 742.65,670.274 743.052,670.126 743.452,669.971 743.848,669.808 744.242,669.639 744.633,669.463 745.02,669.281 745.405,669.091 745.786,668.896 746.164,668.693 746.538,668.484 746.908,668.269 747.275,668.047 747.638,667.819 747.997,667.585 748.351,667.345 "
           id="polygon35523"
           style="stroke:#80ffe6;stroke-opacity:1" />
      </g>
      <g
         id="g35529"
         style="stroke:#80ffe6;stroke-opacity:1">
        <rect
           x="482.59299"
           y="270.409"
           fill="none"
           stroke="#00b9d2"
           stroke-width="2.75"
           stroke-linecap="round"
           stroke-linejoin="round"
           stroke-miterlimit="10"
           width="2.7780001"
           height="39.094002"
           id="rect35527"
           style="stroke:#80ffe6;stroke-opacity:1" />
      </g>
      <g
         id="g35533"
         style="stroke:#80ffe6;stroke-opacity:1">
        <rect
           x="759.07397"
           y="262.47198"
           fill="none"
           stroke="#00b9d2"
           stroke-width="2.75"
           stroke-linecap="round"
           stroke-linejoin="round"
           stroke-miterlimit="10"
           width="2.7780001"
           height="39.094002"
           id="rect35531"
           style="stroke:#80ffe6;stroke-opacity:1" />
      </g>
      <g
         id="g35537"
         style="stroke:#80ffe6;stroke-opacity:1">
        <rect
           x="759.07397"
           y="207.746"
           fill="none"
           stroke="#00b9d2"
           stroke-width="2.75"
           stroke-linecap="round"
           stroke-linejoin="round"
           stroke-miterlimit="10"
           width="2.7780001"
           height="39.094002"
           id="rect35535"
           style="stroke:#80ffe6;stroke-opacity:1" />
      </g>
      <g
         id="g35541"
         style="stroke:#80ffe6;stroke-opacity:1">
        <polygon
           fill="none"
           stroke="#00b9d2"
           stroke-width="2.75"
           stroke-linecap="round"
           stroke-linejoin="round"
           stroke-miterlimit="10"
           points="596.861,215.004 597.037,215.246 597.218,215.485 597.402,215.721 597.591,215.953 597.784,216.182 597.98,216.408 598.181,216.631 598.385,216.85 598.593,217.065 598.805,217.277 599.02,217.485 599.239,217.689 599.462,217.889 599.687,218.086 599.917,218.279 600.149,218.467 600.385,218.652 600.624,218.833 600.865,219.009 601.11,219.181 601.358,219.349 601.609,219.513 601.862,219.672 602.119,219.827 602.378,219.977 602.639,220.123 602.903,220.265 603.169,220.402 603.438,220.534 603.709,220.661 603.982,220.784 604.257,220.902 604.534,221.016 604.813,221.124 605.094,221.228 605.376,221.327 605.661,221.421 605.947,221.51 606.234,221.594 606.523,221.673 606.813,221.748 607.104,221.817 607.396,221.881 607.69,221.94 607.984,221.994 608.28,222.043 608.576,222.086 608.873,222.125 609.171,222.159 609.469,222.187 609.767,222.21 610.066,222.228 610.365,222.241 610.664,222.249 610.964,222.252 633.481,222.252 633.78,222.249 634.079,222.241 634.379,222.228 634.677,222.21 634.976,222.187 635.274,222.159 635.571,222.125 635.868,222.086 636.165,222.043 636.46,221.994 636.754,221.94 637.048,221.881 637.34,221.817 637.632,221.748 637.922,221.673 638.211,221.594 638.498,221.51 638.784,221.421 639.068,221.327 639.351,221.228 639.632,221.124 639.911,221.016 640.188,220.902 640.463,220.784 640.736,220.661 641.007,220.534 641.275,220.402 641.542,220.265 641.805,220.123 642.067,219.977 642.326,219.827 642.582,219.672 642.836,219.513 643.086,219.349 643.334,219.181 643.579,219.009 643.821,218.833 644.06,218.652 644.295,218.467 644.528,218.279 644.757,218.086 644.983,217.889 645.205,217.689 645.424,217.485 645.64,217.277 645.851,217.065 646.059,216.85 646.264,216.631 646.464,216.408 646.661,216.182 646.853,215.953 647.042,215.721 647.227,215.485 647.407,215.246 647.584,215.004 647.756,214.759 647.924,214.512 648.087,214.261 648.247,214.007 648.402,213.751 648.552,213.492 648.698,213.231 648.839,212.967 648.976,212.701 649.108,212.432 649.236,212.161 649.359,211.888 649.477,211.613 649.59,211.336 649.699,211.057 649.803,210.776 649.902,210.493 649.996,210.209 650.085,209.923 650.169,209.636 650.248,209.347 650.322,209.057 650.391,208.766 650.455,208.473 650.515,208.18 650.568,207.885 650.617,207.59 650.661,207.294 650.7,206.997 650.733,206.699 650.762,206.401 650.785,206.103 650.803,205.804 650.816,205.505 650.824,205.205 650.826,204.906 650.826,184.663 650.824,184.364 650.816,184.064 650.803,183.765 650.785,183.466 650.762,183.168 650.733,182.87 650.7,182.572 650.661,182.275 650.617,181.979 650.568,181.684 650.515,181.389 650.455,181.096 650.391,180.803 650.322,180.512 650.248,180.222 650.169,179.933 650.085,179.646 649.996,179.36 649.902,179.076 649.803,178.793 649.699,178.512 649.59,178.233 649.477,177.956 649.359,177.681 649.236,177.408 649.108,177.137 648.976,176.868 648.839,176.602 648.698,176.338 648.552,176.077 648.402,175.818 648.247,175.562 648.087,175.308 647.924,175.057 647.756,174.81 647.584,174.565 647.407,174.323 647.227,174.084 647.042,173.848 646.853,173.616 646.661,173.387 646.464,173.161 646.264,172.938 646.059,172.719 645.851,172.504 645.64,172.292 645.424,172.084 645.205,171.88 644.983,171.68 644.757,171.483 644.528,171.29 644.295,171.102 644.06,170.917 643.821,170.736 643.579,170.56 643.334,170.388 643.086,170.22 642.836,170.056 642.582,169.897 642.326,169.742 642.067,169.592 641.805,169.446 641.542,169.304 641.275,169.167 641.007,169.035 640.736,168.908 640.463,168.785 640.188,168.667 639.911,168.553 639.632,168.445 639.351,168.341 639.068,168.242 638.784,168.148 638.498,168.059 638.211,167.975 637.922,167.896 637.632,167.821 637.34,167.752 637.048,167.688 636.754,167.629 636.46,167.575 636.165,167.526 635.868,167.482 635.571,167.444 635.274,167.41 634.976,167.382 634.677,167.359 634.379,167.341 634.079,167.328 633.78,167.32 633.481,167.317 610.964,167.317 610.664,167.32 610.365,167.328 610.066,167.341 609.767,167.359 609.469,167.382 609.171,167.41 608.873,167.444 608.576,167.482 608.28,167.526 607.984,167.575 607.69,167.629 607.396,167.688 607.104,167.752 606.813,167.821 606.523,167.896 606.234,167.975 605.947,168.059 605.661,168.148 605.376,168.242 605.094,168.341 604.813,168.445 604.534,168.553 604.257,168.667 603.982,168.785 603.709,168.908 603.438,169.035 603.169,169.167 602.903,169.304 602.639,169.446 602.378,169.592 602.119,169.742 601.862,169.897 601.609,170.056 601.358,170.22 601.11,170.388 600.865,170.56 600.624,170.736 600.385,170.917 600.149,171.102 599.917,171.29 599.687,171.483 599.462,171.68 599.239,171.88 599.02,172.084 598.805,172.292 598.593,172.504 598.385,172.719 598.181,172.938 597.98,173.161 597.784,173.387 597.591,173.616 597.402,173.848 597.218,174.084 597.037,174.323 596.861,174.565 596.689,174.81 596.521,175.057 596.357,175.308 596.198,175.562 596.043,175.818 595.892,176.077 595.746,176.338 595.605,176.602 595.468,176.868 595.336,177.137 595.208,177.408 595.086,177.681 594.967,177.956 594.854,178.233 594.745,178.512 594.642,178.793 594.543,179.076 594.449,179.36 594.36,179.646 594.276,179.933 594.196,180.222 594.122,180.512 594.053,180.803 593.989,181.096 593.93,181.389 593.876,181.684 593.827,181.979 593.783,182.275 593.745,182.572 593.711,182.87 593.683,183.168 593.66,183.466 593.641,183.765 593.629,184.064 593.621,184.364 593.618,184.663 593.618,204.906 593.621,205.205 593.629,205.505 593.641,205.804 593.66,206.103 593.683,206.401 593.711,206.699 593.745,206.997 593.783,207.294 593.827,207.59 593.876,207.885 593.93,208.18 593.989,208.473 594.053,208.766 594.122,209.057 594.196,209.347 594.276,209.636 594.36,209.923 594.449,210.209 594.543,210.493 594.642,210.776 594.745,211.057 594.854,211.336 594.967,211.613 595.086,211.888 595.208,212.161 595.336,212.432 595.468,212.701 595.605,212.967 595.746,213.231 595.892,213.492 596.043,213.751 596.198,214.007 596.357,214.261 596.521,214.512 596.689,214.759 "
           id="polygon35539"
           style="stroke:#80ffe6;stroke-opacity:1" />
      </g>
      <g
         id="g35545"
         style="stroke:#80ffe6;stroke-opacity:1">
        <polygon
           fill="none"
           stroke="#00b9d2"
           stroke-width="2.75"
           stroke-linecap="round"
           stroke-linejoin="round"
           stroke-miterlimit="10"
           points="602.679,210.838 602.782,210.981 602.888,211.121 602.997,211.259 603.108,211.396 603.221,211.531 603.336,211.663 603.454,211.794 603.574,211.922 603.696,212.049 603.821,212.173 603.947,212.296 604.076,212.416 604.207,212.533 604.339,212.649 604.474,212.762 604.61,212.873 604.749,212.981 604.889,213.087 605.031,213.191 605.175,213.292 605.321,213.391 605.468,213.487 605.617,213.581 605.768,213.672 605.92,213.76 606.073,213.846 606.228,213.929 606.385,214.009 606.543,214.087 606.702,214.162 606.862,214.234 607.024,214.303 607.186,214.37 607.35,214.434 607.515,214.495 607.681,214.553 607.848,214.608 608.016,214.66 608.185,214.71 608.355,214.756 608.525,214.8 608.696,214.84 608.868,214.878 609.041,214.913 609.214,214.945 609.387,214.973 609.561,214.999 609.735,215.022 609.91,215.041 610.085,215.058 610.261,215.072 610.436,215.082 610.612,215.09 610.788,215.094 610.964,215.096 633.481,215.096 633.657,215.094 633.832,215.09 634.008,215.082 634.184,215.072 634.359,215.058 634.534,215.041 634.709,215.022 634.883,214.999 635.057,214.973 635.231,214.945 635.404,214.913 635.576,214.878 635.748,214.84 635.919,214.8 636.09,214.756 636.259,214.71 636.428,214.66 636.596,214.608 636.763,214.553 636.929,214.495 637.094,214.434 637.258,214.37 637.421,214.303 637.582,214.234 637.743,214.162 637.902,214.087 638.06,214.009 638.216,213.929 638.371,213.846 638.525,213.76 638.677,213.672 638.827,213.581 638.976,213.487 639.124,213.391 639.269,213.292 639.413,213.191 639.555,213.087 639.696,212.981 639.834,212.873 639.971,212.762 640.105,212.649 640.238,212.533 640.368,212.416 640.497,212.296 640.624,212.173 640.748,212.049 640.87,211.922 640.99,211.794 641.108,211.663 641.223,211.531 641.337,211.396 641.448,211.259 641.556,211.121 641.662,210.981 641.766,210.838 641.867,210.695 641.966,210.549 642.062,210.402 642.155,210.253 642.246,210.102 642.335,209.95 642.42,209.797 642.503,209.642 642.584,209.485 642.661,209.327 642.736,209.168 642.809,209.008 642.878,208.846 642.945,208.683 643.008,208.519 643.069,208.354 643.127,208.188 643.183,208.021 643.235,207.854 643.284,207.685 643.331,207.515 643.375,207.345 643.415,207.174 643.453,207.002 643.487,206.829 643.519,206.656 643.548,206.483 643.574,206.309 643.596,206.134 643.616,205.96 643.633,205.784 643.646,205.609 643.657,205.434 643.665,205.258 643.669,205.082 643.671,204.906 643.671,184.663 643.669,184.487 643.665,184.311 643.657,184.135 643.646,183.96 643.633,183.785 643.616,183.609 643.596,183.435 643.574,183.26 643.548,183.086 643.519,182.913 643.487,182.74 643.453,182.567 643.415,182.395 643.375,182.224 643.331,182.054 643.284,181.884 643.235,181.715 643.183,181.548 643.127,181.381 643.069,181.215 643.008,181.05 642.945,180.886 642.878,180.723 642.809,180.561 642.736,180.401 642.661,180.242 642.584,180.084 642.503,179.927 642.42,179.772 642.335,179.619 642.246,179.467 642.155,179.316 642.062,179.167 641.966,179.02 641.867,178.874 641.766,178.73 641.662,178.588 641.556,178.448 641.448,178.31 641.337,178.173 641.223,178.038 641.108,177.906 640.99,177.775 640.87,177.647 640.748,177.52 640.624,177.396 640.497,177.273 640.368,177.153 640.238,177.036 640.105,176.92 639.971,176.807 639.834,176.696 639.696,176.588 639.555,176.482 639.413,176.378 639.269,176.277 639.124,176.178 638.976,176.082 638.827,175.988 638.677,175.897 638.525,175.809 638.371,175.723 638.216,175.64 638.06,175.56 637.902,175.482 637.743,175.407 637.582,175.335 637.421,175.266 637.258,175.199 637.094,175.135 636.929,175.074 636.763,175.016 636.596,174.961 636.428,174.909 636.259,174.859 636.09,174.813 635.919,174.769 635.748,174.728 635.576,174.691 635.404,174.656 635.231,174.624 635.057,174.596 634.883,174.57 634.709,174.547 634.534,174.528 634.359,174.511 634.184,174.497 634.008,174.487 633.832,174.479 633.657,174.475 633.481,174.473 610.964,174.473 610.788,174.475 610.612,174.479 610.436,174.487 610.261,174.497 610.085,174.511 609.91,174.528 609.735,174.547 609.561,174.57 609.387,174.596 609.214,174.624 609.041,174.656 608.868,174.691 608.696,174.728 608.525,174.769 608.355,174.813 608.185,174.859 608.016,174.909 607.848,174.961 607.681,175.016 607.515,175.074 607.35,175.135 607.186,175.199 607.024,175.266 606.862,175.335 606.702,175.407 606.543,175.482 606.385,175.56 606.228,175.64 606.073,175.723 605.92,175.809 605.768,175.897 605.617,175.988 605.468,176.082 605.321,176.178 605.175,176.277 605.031,176.378 604.889,176.482 604.749,176.588 604.61,176.696 604.474,176.807 604.339,176.92 604.207,177.036 604.076,177.153 603.947,177.273 603.821,177.396 603.696,177.52 603.574,177.647 603.454,177.775 603.336,177.906 603.221,178.038 603.108,178.173 602.997,178.31 602.888,178.448 602.782,178.588 602.679,178.73 602.578,178.874 602.479,179.02 602.383,179.167 602.289,179.316 602.198,179.467 602.11,179.619 602.024,179.772 601.941,179.927 601.861,180.084 601.783,180.242 601.708,180.401 601.636,180.561 601.566,180.723 601.5,180.886 601.436,181.05 601.375,181.215 601.317,181.381 601.262,181.548 601.209,181.715 601.16,181.884 601.114,182.054 601.07,182.224 601.029,182.395 600.992,182.567 600.957,182.74 600.925,182.913 600.897,183.086 600.871,183.26 600.848,183.435 600.828,183.609 600.812,183.785 600.798,183.96 600.787,184.135 600.78,184.311 600.775,184.487 600.774,184.663 600.774,204.906 600.775,205.082 600.78,205.258 600.787,205.434 600.798,205.609 600.812,205.784 600.828,205.96 600.848,206.134 600.871,206.309 600.897,206.483 600.925,206.656 600.957,206.829 600.992,207.002 601.029,207.174 601.07,207.345 601.114,207.515 601.16,207.685 601.209,207.854 601.262,208.021 601.317,208.188 601.375,208.354 601.436,208.519 601.5,208.683 601.566,208.846 601.636,209.008 601.708,209.168 601.783,209.327 601.861,209.485 601.941,209.642 602.024,209.797 602.11,209.95 602.198,210.102 602.289,210.253 602.383,210.402 602.479,210.549 602.578,210.695 "
           id="polygon35543"
           style="stroke:#80ffe6;stroke-opacity:1" />
      </g>
      <g
         id="g35549"
         style="stroke:#80ffe6;stroke-opacity:1">
        <path
           fill="none"
           stroke="#00b9d2"
           stroke-width="2.75"
           stroke-linecap="round"
           stroke-linejoin="round"
           stroke-miterlimit="10"
           d="m 631.967,194.784 c 0.012,-4.437 -3.048,-8.369 -7.353,-9.447 -6.197,-1.556 -12.18,3.143 -12.137,9.531 0.066,6.318 6.009,10.902 12.137,9.362 4.305,-1.076 7.365,-5.008 7.353,-9.446 z"
           id="path35547"
           style="stroke:#80ffe6;stroke-opacity:1" />
      </g>
      <g
         id="g35553"
         style="stroke:#80ffe6;stroke-opacity:1">
        <polygon
           fill="none"
           stroke="#00b9d2"
           stroke-width="2.75"
           stroke-linecap="round"
           stroke-linejoin="round"
           stroke-miterlimit="10"
           points="663.264,216.974 663.392,217.15 663.524,217.324 663.658,217.496 663.795,217.665 663.936,217.832 664.079,217.996 664.225,218.158 664.374,218.318 664.525,218.474 664.679,218.629 664.836,218.78 664.996,218.929 665.158,219.075 665.322,219.218 665.489,219.358 665.658,219.496 665.83,219.63 666.004,219.762 666.18,219.89 666.358,220.016 666.539,220.138 666.721,220.257 666.906,220.373 667.093,220.486 667.281,220.595 667.471,220.702 667.664,220.805 667.858,220.904 668.053,221.001 668.25,221.094 668.449,221.183 668.65,221.269 668.851,221.352 669.055,221.431 669.259,221.506 669.465,221.578 669.672,221.647 669.88,221.712 670.089,221.773 670.3,221.831 670.511,221.885 670.723,221.935 670.936,221.982 671.15,222.025 671.364,222.064 671.579,222.099 671.795,222.131 672.011,222.16 672.228,222.184 672.445,222.205 672.662,222.222 672.88,222.235 673.098,222.244 673.316,222.25 673.534,222.252 677.007,222.252 677.225,222.25 677.443,222.244 677.661,222.235 677.879,222.222 678.096,222.205 678.313,222.184 678.53,222.16 678.746,222.131 678.962,222.099 679.177,222.064 679.391,222.025 679.605,221.982 679.818,221.935 680.03,221.885 680.242,221.831 680.452,221.773 680.661,221.712 680.869,221.647 681.076,221.578 681.282,221.506 681.487,221.431 681.69,221.352 681.892,221.269 682.092,221.183 682.291,221.094 682.488,221.001 682.684,220.904 682.878,220.805 683.07,220.702 683.26,220.595 683.449,220.486 683.635,220.373 683.82,220.257 684.002,220.138 684.183,220.016 684.361,219.89 684.537,219.762 684.711,219.63 684.883,219.496 685.052,219.358 685.219,219.218 685.384,219.075 685.546,218.929 685.705,218.78 685.862,218.629 686.016,218.474 686.167,218.318 686.316,218.158 686.462,217.996 686.605,217.832 686.746,217.665 686.883,217.496 687.018,217.324 687.149,217.15 687.278,216.974 687.403,216.796 687.525,216.615 687.644,216.432 687.76,216.248 687.873,216.061 687.983,215.873 688.089,215.682 688.192,215.49 688.292,215.296 688.388,215.101 688.481,214.903 688.57,214.705 688.656,214.504 688.739,214.302 688.818,214.099 688.894,213.895 688.966,213.689 689.034,213.482 689.099,213.274 689.16,213.064 689.218,212.854 689.272,212.643 689.322,212.431 689.369,212.218 689.412,212.004 689.451,211.79 689.487,211.574 689.519,211.359 689.547,211.143 689.571,210.926 689.592,210.709 689.609,210.491 689.622,210.274 689.631,210.056 689.637,209.838 689.639,209.62 689.639,179.949 689.637,179.731 689.631,179.513 689.622,179.295 689.609,179.078 689.592,178.86 689.571,178.643 689.547,178.426 689.519,178.21 689.487,177.995 689.451,177.779 689.412,177.565 689.369,177.351 689.322,177.138 689.272,176.926 689.218,176.715 689.16,176.505 689.099,176.295 689.034,176.087 688.966,175.88 688.894,175.674 688.818,175.47 688.739,175.267 688.656,175.065 688.57,174.864 688.481,174.666 688.388,174.468 688.292,174.273 688.192,174.079 688.089,173.887 687.983,173.696 687.873,173.508 687.76,173.321 687.644,173.137 687.525,172.954 687.403,172.773 687.278,172.595 687.149,172.419 687.018,172.245 686.883,172.073 686.746,171.904 686.605,171.737 686.462,171.573 686.316,171.411 686.167,171.251 686.016,171.095 685.862,170.94 685.705,170.789 685.546,170.64 685.384,170.494 685.219,170.351 685.052,170.211 684.883,170.073 684.711,169.939 684.537,169.807 684.361,169.679 684.183,169.553 684.002,169.431 683.82,169.312 683.635,169.196 683.449,169.083 683.26,168.974 683.07,168.867 682.878,168.764 682.684,168.665 682.488,168.568 682.291,168.475 682.092,168.386 681.892,168.3 681.69,168.217 681.487,168.138 681.282,168.063 681.076,167.991 680.869,167.922 680.661,167.857 680.452,167.796 680.242,167.738 680.03,167.684 679.818,167.634 679.605,167.587 679.391,167.544 679.177,167.505 678.962,167.469 678.746,167.438 678.53,167.409 678.313,167.385 678.096,167.364 677.879,167.347 677.661,167.334 677.443,167.325 677.225,167.319 677.007,167.317 673.534,167.317 673.316,167.319 673.098,167.325 672.88,167.334 672.662,167.347 672.445,167.364 672.228,167.385 672.011,167.409 671.795,167.438 671.579,167.469 671.364,167.505 671.15,167.544 670.936,167.587 670.723,167.634 670.511,167.684 670.3,167.738 670.089,167.796 669.88,167.857 669.672,167.922 669.465,167.991 669.259,168.063 669.055,168.138 668.851,168.217 668.65,168.3 668.449,168.386 668.25,168.475 668.053,168.568 667.858,168.665 667.664,168.764 667.471,168.867 667.281,168.974 667.093,169.083 666.906,169.196 666.721,169.312 666.539,169.431 666.358,169.553 666.18,169.679 666.004,169.807 665.83,169.939 665.658,170.073 665.489,170.211 665.322,170.351 665.158,170.494 664.996,170.64 664.836,170.789 664.679,170.94 664.525,171.095 664.374,171.251 664.225,171.411 664.079,171.573 663.936,171.737 663.795,171.904 663.658,172.073 663.524,172.245 663.392,172.419 663.264,172.595 663.138,172.773 663.016,172.954 662.897,173.137 662.781,173.321 662.668,173.508 662.558,173.696 662.452,173.887 662.349,174.079 662.249,174.273 662.153,174.468 662.06,174.666 661.971,174.864 661.885,175.065 661.802,175.267 661.723,175.47 661.648,175.674 661.576,175.88 661.507,176.087 661.442,176.295 661.381,176.505 661.323,176.715 661.269,176.926 661.219,177.138 661.172,177.351 661.129,177.565 661.09,177.779 661.054,177.995 661.022,178.21 660.994,178.426 660.97,178.643 660.949,178.86 660.932,179.078 660.919,179.295 660.91,179.513 660.904,179.731 660.902,179.949 660.902,209.62 660.904,209.838 660.91,210.056 660.919,210.274 660.932,210.491 660.949,210.709 660.97,210.926 660.994,211.143 661.022,211.359 661.054,211.574 661.09,211.79 661.129,212.004 661.172,212.218 661.219,212.431 661.269,212.643 661.323,212.854 661.381,213.064 661.442,213.274 661.507,213.482 661.576,213.689 661.648,213.895 661.723,214.099 661.802,214.302 661.885,214.504 661.971,214.705 662.06,214.903 662.153,215.101 662.249,215.296 662.349,215.49 662.452,215.682 662.558,215.873 662.668,216.061 662.781,216.248 662.897,216.432 663.016,216.615 663.138,216.796 "
           id="polygon35551"
           style="stroke:#80ffe6;stroke-opacity:1" />
      </g>
      <g
         id="g35557"
         style="stroke:#80ffe6;stroke-opacity:1">
        <polygon
           fill="none"
           stroke="#00b9d2"
           stroke-width="3.25"
           stroke-linecap="round"
           stroke-linejoin="round"
           stroke-miterlimit="10"
           points="487.471,118.051 487.598,117.768 487.729,117.485 487.863,117.203 488.001,116.923 488.144,116.644 488.29,116.366 488.44,116.089 488.593,115.813 488.75,115.54 488.911,115.268 489.076,114.997 489.245,114.728 489.417,114.461 489.593,114.196 489.772,113.933 489.955,113.672 490.142,113.412 490.332,113.156 490.525,112.901 490.722,112.648 490.922,112.398 491.126,112.151 491.333,111.906 491.543,111.663 491.757,111.423 491.973,111.186 492.193,110.952 492.416,110.72 492.641,110.492 492.87,110.266 493.102,110.043 493.336,109.823 493.573,109.607 493.813,109.393 494.056,109.183 494.301,108.976 494.548,108.773 494.798,108.572 495.051,108.375 495.305,108.182 495.562,107.992 495.821,107.805 496.082,107.622 496.346,107.443 496.611,107.267 496.878,107.095 497.147,106.927 497.417,106.762 497.689,106.601 497.963,106.443 498.239,106.29 498.515,106.14 498.793,105.994 499.073,105.852 499.353,105.713 499.635,105.579 499.918,105.448 500.201,105.321 500.486,105.198 500.771,105.079 501.057,104.964 501.344,104.852 501.632,104.744 501.919,104.641 502.208,104.541 502.497,104.445 502.786,104.352 503.075,104.264 503.364,104.179 503.654,104.098 503.944,104.021 504.233,103.947 504.523,103.877 504.812,103.811 505.101,103.749 505.39,103.69 505.678,103.635 505.966,103.584 506.253,103.536 506.54,103.491 506.827,103.45 507.112,103.413 507.397,103.379 507.681,103.348 507.965,103.321 508.247,103.297 508.529,103.277 508.809,103.259 509.089,103.245 509.367,103.234 509.644,103.227 509.92,103.222 510.195,103.221 734.249,103.221 734.524,103.222 734.8,103.227 735.078,103.234 735.356,103.245 735.635,103.259 735.916,103.277 736.197,103.297 736.48,103.321 736.763,103.348 737.047,103.379 737.332,103.413 737.618,103.45 737.904,103.491 738.191,103.536 738.479,103.584 738.766,103.635 739.055,103.69 739.344,103.749 739.633,103.811 739.922,103.877 740.211,103.947 740.501,104.021 740.79,104.098 741.08,104.179 741.369,104.264 741.659,104.352 741.948,104.445 742.237,104.541 742.525,104.641 742.813,104.744 743.1,104.852 743.387,104.964 743.673,105.079 743.959,105.198 744.243,105.321 744.527,105.448 744.81,105.579 745.091,105.713 745.372,105.852 745.651,105.994 745.929,106.14 746.206,106.29 746.481,106.443 746.755,106.601 747.027,106.762 747.298,106.927 747.567,107.095 747.834,107.267 748.099,107.443 748.362,107.622 748.623,107.805 748.882,107.992 749.139,108.182 749.394,108.375 749.646,108.572 749.896,108.773 750.144,108.976 750.389,109.183 750.631,109.393 750.871,109.607 751.108,109.823 751.343,110.043 751.574,110.266 751.803,110.492 752.029,110.72 752.252,110.952 752.471,111.186 752.688,111.423 752.901,111.663 753.111,111.906 753.318,112.151 753.522,112.398 753.722,112.648 753.919,112.901 754.113,113.156 754.303,113.412 754.489,113.672 754.672,113.933 754.852,114.196 755.028,114.461 755.2,114.728 755.368,114.997 755.533,115.268 755.694,115.54 755.851,115.813 756.005,116.089 756.155,116.366 756.301,116.644 756.443,116.923 756.581,117.203 756.716,117.485 756.847,117.768 756.974,118.051 757.097,118.336 757.216,118.621 757.331,118.908 757.443,119.194 757.55,119.482 757.654,119.77 757.754,120.058 757.85,120.347 757.943,120.636 758.031,120.925 758.116,121.215 758.197,121.504 758.274,121.794 758.348,122.083 758.417,122.373 758.483,122.662 758.546,122.951 758.604,123.24 758.66,123.528 758.711,123.816 758.759,124.104 758.804,124.391 758.844,124.677 758.882,124.963 758.916,125.247 758.946,125.532 758.974,125.815 758.997,126.097 759.018,126.379 759.035,126.659 759.049,126.939 759.06,127.217 759.068,127.494 759.073,127.771 759.074,128.045 759.074,207.746 761.852,207.746 761.852,246.84 759.074,246.84 759.074,262.472 761.852,262.472 761.852,301.566 759.074,301.566 759.074,646.914 759.073,647.189 759.068,647.465 759.06,647.743 759.049,648.021 759.035,648.3 759.018,648.581 758.997,648.862 758.974,649.145 758.946,649.428 758.916,649.712 758.882,649.997 758.844,650.283 758.804,650.569 758.759,650.856 758.711,651.144 758.66,651.432 758.604,651.72 758.546,652.009 758.483,652.298 758.417,652.587 758.348,652.876 758.274,653.166 758.197,653.456 758.116,653.745 758.031,654.035 757.943,654.324 757.85,654.613 757.754,654.902 757.654,655.19 757.55,655.478 757.443,655.765 757.331,656.052 757.216,656.338 757.097,656.624 756.974,656.908 756.847,657.192 756.716,657.475 756.581,657.756 756.443,658.037 756.301,658.316 756.155,658.594 756.005,658.871 755.851,659.146 755.694,659.42 755.533,659.692 755.368,659.963 755.2,660.232 755.028,660.499 754.852,660.764 754.672,661.027 754.489,661.288 754.303,661.547 754.113,661.804 753.919,662.059 753.722,662.311 753.522,662.561 753.318,662.809 753.111,663.054 752.901,663.297 752.688,663.536 752.471,663.773 752.252,664.008 752.029,664.239 751.803,664.468 751.574,664.694 751.343,664.917 751.108,665.136 750.871,665.353 750.631,665.566 750.389,665.777 750.144,665.984 749.896,666.187 749.646,666.387 749.394,666.584 749.139,666.778 748.882,666.968 748.623,667.154 748.362,667.337 748.099,667.517 747.834,667.693 747.567,667.865 747.298,668.033 747.027,668.198 746.755,668.359 746.481,668.516 746.206,668.67 745.929,668.82 745.651,668.966 745.372,669.108 745.091,669.246 744.81,669.381 744.527,669.512 744.243,669.639 743.959,669.762 743.673,669.881 743.387,669.996 743.1,670.108 742.813,670.215 742.525,670.319 742.237,670.419 741.948,670.515 741.659,670.608 741.369,670.696 741.08,670.781 740.79,670.862 740.501,670.939 740.211,671.013 739.922,671.082 739.633,671.148 739.344,671.211 739.055,671.27 738.766,671.325 738.479,671.376 738.191,671.424 737.904,671.469 737.618,671.51 737.332,671.547 737.047,671.581 736.763,671.612 736.48,671.639 736.197,671.663 735.916,671.683 735.635,671.7 735.356,671.714 735.078,671.725 734.8,671.733 734.524,671.738 734.249,671.739 510.195,671.739 509.92,671.738 509.644,671.733 509.367,671.725 509.089,671.714 508.809,671.7 508.529,671.683 508.247,671.663 507.965,671.639 507.681,671.612 507.397,671.581 507.112,671.547 506.827,671.51 506.54,671.469 506.253,671.424 505.966,671.376 505.678,671.325 505.39,671.27 505.101,671.211 504.812,671.148 504.523,671.082 504.233,671.013 503.944,670.939 503.654,670.862 503.364,670.781 503.075,670.696 502.786,670.608 502.497,670.515 502.208,670.419 501.919,670.319 501.632,670.215 501.344,670.108 501.057,669.996 500.771,669.881 500.486,669.762 500.201,669.639 499.918,669.512 499.635,669.381 499.353,669.246 499.073,669.108 498.793,668.966 498.515,668.82 498.239,668.67 497.963,668.516 497.689,668.359 497.417,668.198 497.147,668.033 496.878,667.865 496.611,667.693 496.346,667.517 496.082,667.337 495.821,667.154 495.562,666.968 495.305,666.778 495.051,666.584 494.798,666.387 494.548,666.187 494.301,665.984 494.056,665.777 493.813,665.566 493.573,665.353 493.336,665.136 493.102,664.917 492.87,664.694 492.641,664.468 492.416,664.239 492.193,664.008 491.973,663.773 491.757,663.536 491.543,663.297 491.333,663.054 491.126,662.809 490.922,662.561 490.722,662.311 490.525,662.059 490.332,661.804 490.142,661.547 489.955,661.288 489.772,661.027 489.593,660.764 489.417,660.499 489.245,660.232 489.076,659.963 488.911,659.692 488.75,659.42 488.593,659.146 488.44,658.871 488.29,658.594 488.144,658.316 488.001,658.037 487.863,657.756 487.729,657.475 487.598,657.192 487.471,656.908 487.348,656.624 487.229,656.338 487.113,656.052 487.002,655.765 486.894,655.478 486.79,655.19 486.69,654.902 486.594,654.613 486.502,654.324 486.413,654.035 486.329,653.745 486.248,653.456 486.17,653.166 486.097,652.876 486.027,652.587 485.961,652.298 485.899,652.009 485.84,651.72 485.785,651.432 485.733,651.144 485.685,650.856 485.641,650.569 485.6,650.283 485.563,649.997 485.529,649.712 485.498,649.428 485.471,649.145 485.447,648.862 485.426,648.581 485.409,648.3 485.395,648.021 485.384,647.743 485.376,647.465 485.372,647.189 485.37,646.914 485.37,309.503 482.593,309.503 482.593,270.409 485.37,270.409 485.37,128.045 485.372,127.771 485.376,127.494 485.384,127.217 485.395,126.939 485.409,126.659 485.426,126.379 485.447,126.097 485.471,125.815 485.498,125.532 485.529,125.247 485.563,124.963 485.6,124.677 485.641,124.391 485.685,124.104 485.733,123.816 485.785,123.528 485.84,123.24 485.899,122.951 485.961,122.662 486.027,122.373 486.097,122.083 486.17,121.794 486.248,121.504 486.329,121.215 486.413,120.925 486.502,120.636 486.594,120.347 486.69,120.058 486.79,119.77 486.894,119.482 487.002,119.194 487.113,118.908 487.229,118.621 487.348,118.336 "
           id="polygon35555"
           style="stroke:#80ffe6;stroke-opacity:1" />
      </g>
    </g>
  </g>
</svg>
