<?xml version="1.0" encoding="UTF-8" standalone="no"?>
<svg
   xmlns:dc="http://purl.org/dc/elements/1.1/"
   xmlns:cc="http://creativecommons.org/ns#"
   xmlns:rdf="http://www.w3.org/1999/02/22-rdf-syntax-ns#"
   xmlns:svg="http://www.w3.org/2000/svg"
   xmlns="http://www.w3.org/2000/svg"
   xmlns:sodipodi="http://sodipodi.sourceforge.net/DTD/sodipodi-0.dtd"
   xmlns:inkscape="http://www.inkscape.org/namespaces/inkscape"
   width="15mm"
   height="31.926132mm"
   viewBox="0 0 15.000001 31.926134"
   version="1.1"
   id="svg4830"
   inkscape:version="1.0.2 (e86c8708, 2021-01-15)"
   sodipodi:docname="s8.svg">
  <defs
     id="defs4824" />
  <sodipodi:namedview
     id="base"
     pagecolor="#ffffff"
     bordercolor="#666666"
     borderopacity="1.0"
     inkscape:pageopacity="0.0"
     inkscape:pageshadow="2"
     inkscape:zoom="3.8813991"
     inkscape:cx="16.601885"
     inkscape:cy="65.239857"
     inkscape:document-units="mm"
     inkscape:current-layer="layer1"
     inkscape:document-rotation="0"
     showgrid="false"
     inkscape:window-width="1440"
     inkscape:window-height="872"
     inkscape:window-x="0"
     inkscape:window-y="28"
     inkscape:window-maximized="0" />
  <metadata
     id="metadata4827">
    <rdf:RDF>
      <cc:Work
         rdf:about="">
        <dc:format>image/svg+xml</dc:format>
        <dc:type
           rdf:resource="http://purl.org/dc/dcmitype/StillImage" />
        <dc:title></dc:title>
      </cc:Work>
    </rdf:RDF>
  </metadata>
  <g
     inkscape:label="Layer 1"
     inkscape:groupmode="layer"
     id="layer1"
     transform="translate(-78.225647,-88.63677)">
    <g
       id="g34193"
       transform="matrix(0.05246461,0,0,0.05246461,53.07936,84.12686)"
       style="stroke:#80ffe6;stroke-opacity:1">
      <rect
         x="480.67499"
         y="275.72601"
         fill="none"
         stroke="#00b9d2"
         stroke-width="2.75"
         stroke-linecap="round"
         stroke-linejoin="round"
         stroke-miterlimit="10"
         width="3.0510001"
         height="41.023998"
         id="rect33452"
         style="stroke:#80ffe6;stroke-opacity:1" />
      <rect
         x="760.78101"
         y="309.26501"
         fill="none"
         stroke="#00b9d2"
         stroke-width="2.75"
         stroke-linecap="round"
         stroke-linejoin="round"
         stroke-miterlimit="10"
         width="3.0510001"
         height="41.023998"
         id="rect33455"
         style="stroke:#80ffe6;stroke-opacity:1" />
      <rect
         x="760.78101"
         y="188.16701"
         fill="none"
         stroke="#00b9d2"
         stroke-width="2.75"
         stroke-linecap="round"
         stroke-linejoin="round"
         stroke-miterlimit="10"
         width="3.0510001"
         height="85.880997"
         id="rect33458"
         style="stroke:#80ffe6;stroke-opacity:1" />
      <polyline
         fill="none"
         stroke="#00b9d2"
         stroke-width="2.75"
         stroke-linecap="round"
         stroke-linejoin="round"
         stroke-miterlimit="10"
         points="    760.781,649.158 760.779,649.571 760.772,649.985 760.76,650.401 760.744,650.818 760.723,651.238 760.697,651.659     760.666,652.081 760.63,652.504 760.59,652.929 760.544,653.356 760.493,653.783 760.437,654.211 760.375,654.641     760.309,655.071 760.237,655.503 760.159,655.934 760.077,656.367 759.989,656.8 759.895,657.234 759.796,657.668     759.691,658.102 759.581,658.536 759.465,658.971 759.344,659.405 759.217,659.839 759.084,660.273 758.945,660.707     758.801,661.14 758.651,661.573 758.495,662.004 758.334,662.436 758.167,662.866 757.993,663.295 757.815,663.723 757.63,664.15     757.44,664.576 757.244,665 757.042,665.422 756.834,665.843 756.621,666.262 756.402,666.679 756.177,667.094 755.947,667.507     755.711,667.918 755.469,668.326 755.222,668.732 754.969,669.135 754.711,669.536 754.447,669.934 754.178,670.328     753.904,670.72 753.624,671.109 753.339,671.494 753.049,671.876 752.753,672.255 752.453,672.63 752.147,673.001     751.837,673.369 751.521,673.733 751.201,674.093 750.876,674.448 750.547,674.8 750.213,675.147 749.874,675.49 749.531,675.829     749.184,676.163 748.832,676.493 748.476,676.817 748.117,677.138 747.753,677.453 747.385,677.763 747.014,678.069     746.639,678.369 746.26,678.665 745.878,678.955 745.493,679.24 745.104,679.52 744.712,679.794 744.317,680.063 743.92,680.327     743.519,680.585 743.116,680.838 742.71,681.085 742.302,681.327 741.891,681.563 741.478,681.793 741.063,682.018     740.646,682.237 740.227,682.45 739.806,682.658 739.383,682.86 738.959,683.056 738.534,683.246 738.107,683.431 737.679,683.61     737.25,683.783 736.819,683.95 736.388,684.111 735.956,684.267 735.524,684.417 735.091,684.561 734.657,684.7 734.223,684.833     733.789,684.96 733.354,685.081 732.92,685.197 732.486,685.307 732.051,685.412 731.617,685.511 731.184,685.605     730.751,685.693 730.318,685.776 729.886,685.853 729.455,685.925 729.025,685.992 728.595,686.053 728.167,686.109     727.739,686.16 727.313,686.206 726.888,686.247 726.465,686.282 726.042,686.313 725.622,686.339 725.202,686.36     724.785,686.377 724.369,686.388 723.955,686.395 723.542,686.397 520.966,686.397 520.553,686.395 520.139,686.388     519.723,686.377 519.305,686.36 518.886,686.339 518.465,686.313 518.043,686.282 517.62,686.247 517.195,686.206 516.768,686.16     516.341,686.109 515.912,686.053 515.483,685.992 515.053,685.925 514.621,685.853 514.189,685.776 513.757,685.693     513.324,685.605 512.89,685.511 512.456,685.412 512.022,685.307 511.588,685.197 511.153,685.081 510.719,684.96     510.285,684.833 509.851,684.7 509.417,684.561 508.984,684.417 508.551,684.267 508.119,684.111 507.688,683.95 507.258,683.783     506.829,683.61 506.401,683.431 505.974,683.246 505.548,683.056 505.124,682.86 504.702,682.658 504.281,682.45 503.862,682.237     503.445,682.018 503.03,681.793 502.617,681.563 502.206,681.327 501.798,681.085 501.392,680.838 500.989,680.585     500.588,680.327 500.19,680.063 499.795,679.794 499.404,679.52 499.015,679.24 498.63,678.955 498.248,678.665 497.869,678.369     497.494,678.069 497.123,677.763 496.755,677.453 496.391,677.138 496.031,676.817 495.676,676.493 495.324,676.163     494.977,675.829 494.634,675.49 494.295,675.147 493.961,674.8 493.631,674.448 493.306,674.093 492.986,673.733 492.671,673.369     492.361,673.001 492.055,672.63 491.754,672.255 491.459,671.876 491.169,671.494 490.884,671.109 490.604,670.72 490.33,670.328     490.06,669.934 489.797,669.536 489.538,669.135 489.286,668.732 489.039,668.326 488.797,667.918 488.561,667.507     488.331,667.094 488.106,666.679 487.887,666.262 487.673,665.843 487.466,665.422 487.264,665 487.068,664.576 486.878,664.15     486.693,663.723 486.514,663.295 486.341,662.866 486.174,662.436 486.012,662.004 485.857,661.573 485.707,661.14     485.563,660.707 485.424,660.273 485.291,659.839 485.164,659.405 485.043,658.971 484.927,658.536 484.816,658.102     484.712,657.668 484.613,657.234 484.519,656.8 484.431,656.367 484.348,655.934 484.271,655.503 484.199,655.071     484.132,654.641 484.071,654.211 484.015,653.783 483.964,653.356 483.918,652.929 483.877,652.504 483.841,652.081     483.811,651.659 483.785,651.238 483.764,650.818 483.747,650.401 483.736,649.985 483.729,649.571 483.727,649.158   "
         id="polyline33461"
         style="stroke:#80ffe6;stroke-opacity:1" />
      <polyline
         fill="none"
         stroke="#00b9d2"
         stroke-width="2.75"
         stroke-linecap="round"
         stroke-linejoin="round"
         stroke-miterlimit="10"
         points="    483.727,131.029 483.729,130.617 483.736,130.203 483.747,129.787 483.764,129.369 483.785,128.95 483.811,128.529     483.841,128.107 483.877,127.683 483.918,127.258 483.964,126.832 484.015,126.405 484.071,125.976 484.132,125.547     484.199,125.116 484.271,124.685 484.348,124.253 484.431,123.821 484.519,123.387 484.613,122.954 484.712,122.52     484.816,122.086 484.927,121.651 485.043,121.217 485.164,120.783 485.291,120.348 485.424,119.914 485.563,119.481     485.707,119.048 485.857,118.615 486.012,118.183 486.174,117.752 486.341,117.322 486.514,116.893 486.693,116.464     486.878,116.038 487.068,115.612 487.264,115.188 487.466,114.765 487.673,114.345 487.887,113.926 488.106,113.508     488.331,113.093 488.561,112.68 488.797,112.27 489.039,111.861 489.286,111.456 489.538,111.052 489.797,110.652 490.06,110.254     490.33,109.859 490.604,109.467 490.884,109.079 491.169,108.693 491.459,108.311 491.754,107.933 492.055,107.558     492.361,107.186 492.671,106.819 492.986,106.455 493.306,106.095 493.631,105.739 493.961,105.388 494.295,105.04     494.634,104.697 494.977,104.359 495.324,104.025 495.676,103.695 496.031,103.37 496.391,103.05 496.755,102.735     497.123,102.424 497.494,102.119 497.869,101.818 498.248,101.523 498.63,101.233 499.015,100.947 499.404,100.668     499.795,100.393 500.19,100.124 500.588,99.86 500.989,99.602 501.392,99.349 501.798,99.102 502.206,98.861 502.617,98.625     503.03,98.394 503.445,98.17 503.862,97.95 504.281,97.737 504.702,97.53 505.124,97.328 505.548,97.132 505.974,96.941     506.401,96.757 506.829,96.578 507.258,96.405 507.688,96.238 508.119,96.076 508.551,95.92 508.984,95.77 509.417,95.626     509.851,95.488 510.285,95.355 510.719,95.228 511.153,95.106 511.588,94.99 512.022,94.88 512.456,94.776 512.89,94.676     513.324,94.583 513.757,94.495 514.189,94.412 514.621,94.335 515.053,94.263 515.483,94.196 515.912,94.135 516.341,94.079     516.768,94.028 517.195,93.982 517.62,93.941 518.043,93.905 518.465,93.874 518.886,93.848 519.305,93.827 519.723,93.811     520.139,93.799 520.553,93.793 520.966,93.79 723.542,93.79 723.955,93.793 724.369,93.799 724.785,93.811 725.202,93.827     725.622,93.848 726.042,93.874 726.465,93.905 726.888,93.941 727.313,93.982 727.739,94.028 728.167,94.079 728.595,94.135     729.025,94.196 729.455,94.263 729.886,94.335 730.318,94.412 730.751,94.495 731.184,94.583 731.617,94.676 732.051,94.776     732.486,94.88 732.92,94.99 733.354,95.106 733.789,95.228 734.223,95.355 734.657,95.488 735.091,95.626 735.524,95.77     735.956,95.92 736.388,96.076 736.819,96.238 737.25,96.405 737.679,96.578 738.107,96.757 738.534,96.941 738.959,97.132     739.383,97.328 739.806,97.53 740.227,97.737 740.646,97.95 741.063,98.17 741.478,98.394 741.891,98.625 742.302,98.861     742.71,99.102 743.116,99.349 743.519,99.602 743.92,99.86 744.317,100.124 744.712,100.393 745.104,100.668 745.493,100.947     745.878,101.233 746.26,101.523 746.639,101.818 747.014,102.119 747.385,102.424 747.753,102.735 748.117,103.05 748.476,103.37     748.832,103.695 749.184,104.025 749.531,104.359 749.874,104.697 750.213,105.04 750.547,105.388 750.876,105.739     751.201,106.095 751.521,106.455 751.837,106.819 752.147,107.186 752.453,107.558 752.753,107.933 753.049,108.311     753.339,108.693 753.624,109.079 753.904,109.467 754.178,109.859 754.447,110.254 754.711,110.652 754.969,111.052     755.222,111.456 755.469,111.861 755.711,112.27 755.947,112.68 756.177,113.093 756.402,113.508 756.621,113.926     756.834,114.345 757.042,114.765 757.244,115.188 757.44,115.612 757.63,116.038 757.815,116.464 757.993,116.893     758.167,117.322 758.334,117.752 758.495,118.183 758.651,118.615 758.801,119.048 758.945,119.481 759.084,119.914     759.217,120.348 759.344,120.783 759.465,121.217 759.581,121.651 759.691,122.086 759.796,122.52 759.895,122.954     759.989,123.387 760.077,123.821 760.159,124.253 760.237,124.685 760.309,125.116 760.375,125.547 760.437,125.976     760.493,126.405 760.544,126.832 760.59,127.258 760.63,127.683 760.666,128.107 760.697,128.529 760.723,128.95 760.744,129.369     760.76,129.787 760.772,130.203 760.779,130.617 760.781,131.029   "
         id="polyline33464"
         style="stroke:#80ffe6;stroke-opacity:1" />
      <polygon
         fill="none"
         stroke="#00b9d2"
         stroke-width="2.75"
         stroke-linecap="round"
         stroke-linejoin="round"
         stroke-miterlimit="10"
         points="501.426,687.575 500.882,687.233 500.344,686.882 499.811,686.521 499.286,686.151 498.766,685.773 498.253,685.385 497.747,684.989 497.248,684.584 496.756,684.17 496.272,683.748 495.794,683.318 495.324,682.879 494.862,682.432 494.407,681.978 493.961,681.516 493.522,681.046 493.092,680.568 492.67,680.083 492.256,679.591 491.851,679.092 491.455,678.586 491.067,678.073 490.688,677.554 490.319,677.028 489.958,676.496 489.607,675.958 489.265,675.414 488.932,674.863 488.609,674.308 488.296,673.747 487.992,673.18 487.698,672.608 487.414,672.031 487.141,671.45 486.877,670.864 486.623,670.273 486.38,669.678 486.147,669.079 485.924,668.476 485.711,667.87 485.51,667.259 485.318,666.646 485.138,666.029 484.968,665.409 484.809,664.786 484.66,664.161 484.523,663.533 484.396,662.903 484.28,662.27 484.175,661.636 484.081,661 483.998,660.363 483.926,659.724 483.865,659.084 483.815,658.443 483.777,657.802 483.749,657.159 483.732,656.517 483.727,655.874 483.727,124.575 483.732,123.932 483.749,123.29 483.777,122.647 483.815,122.006 483.865,121.365 483.926,120.725 483.998,120.086 484.081,119.449 484.175,118.813 484.28,118.179 484.396,117.547 484.523,116.916 484.66,116.289 484.809,115.663 484.968,115.04 485.138,114.42 485.318,113.804 485.51,113.19 485.711,112.58 485.924,111.973 486.147,111.37 486.38,110.771 486.623,110.176 486.877,109.585 487.141,108.999 487.414,108.418 487.698,107.841 487.992,107.269 488.296,106.703 488.609,106.141 488.932,105.586 489.265,105.036 489.607,104.491 489.958,103.953 490.319,103.421 490.688,102.895 491.067,102.376 491.455,101.863 491.851,101.357 492.256,100.858 492.67,100.366 493.092,99.881 493.522,99.404 493.961,98.934 494.407,98.471 494.862,98.017 495.324,97.57 495.794,97.132 496.272,96.701 496.756,96.279 497.248,95.866 497.747,95.46 498.253,95.064 498.766,94.676 499.286,94.298 499.811,93.928 500.344,93.567 500.882,93.216 501.426,92.874 501.976,92.542 502.532,92.219 503.093,91.905 503.66,91.602 504.231,91.308 504.808,91.024 505.39,90.75 505.976,90.486 506.566,90.233 507.161,89.989 507.76,89.756 508.363,89.533 508.97,89.321 509.58,89.119 510.194,88.928 510.811,88.747 511.431,88.577 512.054,88.418 512.679,88.27 513.307,88.132 513.937,88.005 514.569,87.889 515.204,87.785 515.839,87.691 516.477,87.608 517.116,87.536 517.756,87.475 518.396,87.425 519.038,87.386 519.68,87.358 520.323,87.342 520.966,87.336 723.542,87.336 724.185,87.342 724.828,87.358 725.47,87.386 726.111,87.425 726.752,87.475 727.392,87.536 728.031,87.608 728.668,87.691 729.304,87.785 729.938,87.889 730.571,88.005 731.201,88.132 731.829,88.27 732.454,88.418 733.077,88.577 733.697,88.747 734.314,88.928 734.927,89.119 735.538,89.321 736.144,89.533 736.747,89.756 737.346,89.989 737.941,90.233 738.532,90.486 739.118,90.75 739.7,91.024 740.276,91.308 740.848,91.602 741.415,91.905 741.976,92.219 742.531,92.542 743.082,92.874 743.626,93.216 744.164,93.567 744.696,93.928 745.222,94.298 745.742,94.676 746.254,95.064 746.76,95.46 747.259,95.866 747.751,96.279 748.236,96.701 748.714,97.132 749.184,97.57 749.646,98.017 750.1,98.471 750.547,98.934 750.986,99.404 751.416,99.881 751.838,100.366 752.252,100.858 752.657,101.357 753.053,101.863 753.441,102.376 753.82,102.895 754.189,103.421 754.55,103.953 754.901,104.491 755.243,105.036 755.576,105.586 755.899,106.141 756.212,106.703 756.516,107.269 756.809,107.841 757.093,108.418 757.367,108.999 757.631,109.585 757.885,110.176 758.128,110.771 758.361,111.37 758.584,111.973 758.796,112.58 758.998,113.19 759.189,113.804 759.37,114.42 759.54,115.04 759.699,115.663 759.847,116.289 759.985,116.916 760.112,117.547 760.228,118.179 760.333,118.813 760.427,119.449 760.51,120.086 760.582,120.725 760.643,121.365 760.692,122.006 760.731,122.647 760.759,123.29 760.776,123.932 760.781,124.575 760.781,655.874 760.776,656.517 760.759,657.159 760.731,657.802 760.692,658.443 760.643,659.084 760.582,659.724 760.51,660.363 760.427,661 760.333,661.636 760.228,662.27 760.112,662.903 759.985,663.533 759.847,664.161 759.699,664.786 759.54,665.409 759.37,666.029 759.189,666.646 758.998,667.259 758.796,667.87 758.584,668.476 758.361,669.079 758.128,669.678 757.885,670.273 757.631,670.864 757.367,671.45 757.093,672.031 756.809,672.608 756.516,673.18 756.212,673.747 755.899,674.308 755.576,674.863 755.243,675.414 754.901,675.958 754.55,676.496 754.189,677.028 753.82,677.554 753.441,678.073 753.053,678.586 752.657,679.092 752.252,679.591 751.838,680.083 751.416,680.568 750.986,681.046 750.547,681.516 750.1,681.978 749.646,682.432 749.184,682.879 748.714,683.318 748.236,683.748 747.751,684.17 747.259,684.584 746.76,684.989 746.254,685.385 745.742,685.773 745.222,686.151 744.696,686.521 744.164,686.882 743.626,687.233 743.082,687.575 742.531,687.908 741.976,688.231 741.415,688.544 740.848,688.848 740.276,689.141 739.7,689.425 739.118,689.699 738.532,689.963 737.941,690.217 737.346,690.46 736.747,690.693 736.144,690.916 735.538,691.128 734.927,691.33 734.314,691.521 733.697,691.702 733.077,691.872 732.454,692.031 731.829,692.179 731.201,692.317 730.571,692.444 729.938,692.56 729.304,692.665 728.668,692.759 728.031,692.842 727.392,692.914 726.752,692.974 726.111,693.024 725.47,693.063 724.828,693.091 724.185,693.108 723.542,693.113 520.966,693.113 520.323,693.108 519.68,693.091 519.038,693.063 518.396,693.024 517.756,692.974 517.116,692.914 516.477,692.842 515.839,692.759 515.204,692.665 514.569,692.56 513.937,692.444 513.307,692.317 512.679,692.179 512.054,692.031 511.431,691.872 510.811,691.702 510.194,691.521 509.58,691.33 508.97,691.128 508.363,690.916 507.76,690.693 507.161,690.46 506.566,690.217 505.976,689.963 505.39,689.699 504.808,689.425 504.231,689.141 503.66,688.848 503.093,688.544 502.532,688.231 501.976,687.908 "
         id="polygon33467"
         style="stroke:#80ffe6;stroke-opacity:1" />
      <polygon
         fill="none"
         stroke="#00b9d2"
         stroke-width="2.75"
         stroke-linecap="round"
         stroke-linejoin="round"
         stroke-miterlimit="10"
         points="582.406,208.244 582.477,208.199 582.547,208.153 582.616,208.106 582.685,208.058 582.752,208.009 582.819,207.958 582.885,207.907 582.95,207.854 583.014,207.8 583.078,207.745 583.14,207.689 583.201,207.632 583.261,207.573 583.321,207.514 583.379,207.454 583.436,207.393 583.492,207.33 583.547,207.267 583.601,207.203 583.654,207.138 583.705,207.072 583.756,207.005 583.805,206.938 583.854,206.869 583.901,206.8 583.946,206.729 583.991,206.658 584.034,206.587 584.076,206.514 584.117,206.441 584.157,206.367 584.195,206.293 584.232,206.218 584.268,206.142 584.302,206.065 584.335,205.988 584.367,205.911 584.397,205.833 584.426,205.754 584.454,205.675 584.48,205.596 584.505,205.516 584.529,205.435 584.551,205.354 584.572,205.273 584.591,205.192 584.609,205.11 584.626,205.028 584.641,204.945 584.654,204.863 584.667,204.78 584.677,204.697 584.687,204.613 584.695,204.53 584.701,204.446 584.706,204.363 584.71,204.279 584.712,204.195 584.713,204.111 584.713,169.431 584.712,169.347 584.71,169.263 584.706,169.179 584.701,169.096 584.695,169.012 584.687,168.929 584.677,168.846 584.667,168.762 584.654,168.68 584.641,168.597 584.626,168.514 584.609,168.432 584.591,168.35 584.572,168.269 584.551,168.188 584.529,168.107 584.505,168.027 584.48,167.947 584.454,167.867 584.426,167.788 584.397,167.709 584.367,167.631 584.335,167.554 584.302,167.477 584.268,167.4 584.232,167.324 584.195,167.249 584.157,167.175 584.117,167.101 584.076,167.028 584.034,166.955 583.991,166.884 583.946,166.813 583.901,166.743 583.854,166.673 583.805,166.605 583.756,166.537 583.705,166.47 583.654,166.404 583.601,166.339 583.547,166.275 583.492,166.212 583.436,166.15 583.379,166.088 583.321,166.028 583.261,165.969 583.201,165.911 583.14,165.853 583.078,165.797 583.014,165.742 582.95,165.688 582.885,165.635 582.819,165.584 582.752,165.533 582.685,165.484 582.616,165.436 582.547,165.389 582.477,165.343 582.406,165.298 582.334,165.255 582.261,165.213 582.188,165.172 582.115,165.132 582.04,165.094 581.965,165.057 581.889,165.021 581.813,164.987 581.736,164.954 581.658,164.922 581.58,164.892 581.501,164.863 581.422,164.835 581.343,164.809 581.263,164.784 581.182,164.76 581.102,164.738 581.02,164.718 580.939,164.698 580.857,164.68 580.775,164.664 580.692,164.649 580.61,164.635 580.527,164.623 580.444,164.612 580.36,164.602 580.277,164.595 580.194,164.588 580.11,164.583 580.026,164.579 579.942,164.577 579.859,164.576 572.146,164.576 572.063,164.577 571.979,164.579 571.895,164.583 571.812,164.588 571.728,164.595 571.645,164.602 571.561,164.612 571.478,164.623 571.395,164.635 571.313,164.649 571.23,164.664 571.148,164.68 571.066,164.698 570.985,164.718 570.904,164.738 570.823,164.76 570.742,164.784 570.662,164.809 570.583,164.835 570.504,164.863 570.425,164.892 570.347,164.922 570.269,164.954 570.192,164.987 570.116,165.021 570.04,165.057 569.965,165.094 569.891,165.132 569.817,165.172 569.744,165.213 569.671,165.255 569.599,165.298 569.528,165.343 569.458,165.389 569.389,165.436 569.32,165.484 569.253,165.533 569.186,165.584 569.12,165.635 569.055,165.688 568.991,165.742 568.927,165.797 568.865,165.853 568.804,165.911 568.744,165.969 568.685,166.028 568.626,166.088 568.569,166.15 568.513,166.212 568.458,166.275 568.404,166.339 568.351,166.404 568.3,166.47 568.249,166.537 568.2,166.605 568.151,166.673 568.104,166.743 568.059,166.813 568.014,166.884 567.971,166.955 567.929,167.028 567.888,167.101 567.848,167.175 567.81,167.249 567.773,167.324 567.737,167.4 567.703,167.477 567.67,167.554 567.638,167.631 567.608,167.709 567.579,167.788 567.551,167.867 567.525,167.947 567.5,168.027 567.476,168.107 567.454,168.188 567.433,168.269 567.414,168.35 567.396,168.432 567.38,168.514 567.364,168.597 567.351,168.68 567.338,168.762 567.328,168.846 567.318,168.929 567.31,169.012 567.304,169.096 567.299,169.179 567.295,169.263 567.293,169.347 567.292,169.431 567.292,204.111 567.293,204.195 567.295,204.279 567.299,204.363 567.304,204.446 567.31,204.53 567.318,204.613 567.328,204.697 567.338,204.78 567.351,204.863 567.364,204.945 567.38,205.028 567.396,205.11 567.414,205.192 567.433,205.273 567.454,205.354 567.476,205.435 567.5,205.516 567.525,205.596 567.551,205.675 567.579,205.754 567.608,205.833 567.638,205.911 567.67,205.988 567.703,206.065 567.737,206.142 567.773,206.218 567.81,206.293 567.848,206.367 567.888,206.441 567.929,206.514 567.971,206.587 568.014,206.658 568.059,206.729 568.104,206.8 568.151,206.869 568.2,206.938 568.249,207.005 568.3,207.072 568.351,207.138 568.404,207.203 568.458,207.267 568.513,207.33 568.569,207.393 568.626,207.454 568.685,207.514 568.744,207.573 568.804,207.632 568.865,207.689 568.927,207.745 568.991,207.8 569.055,207.854 569.12,207.907 569.186,207.958 569.253,208.009 569.32,208.058 569.389,208.106 569.458,208.153 569.528,208.199 569.599,208.244 569.671,208.287 569.744,208.329 569.817,208.37 569.891,208.41 569.965,208.448 570.04,208.485 570.116,208.521 570.192,208.555 570.269,208.588 570.347,208.62 570.425,208.65 570.504,208.679 570.583,208.707 570.662,208.733 570.742,208.758 570.823,208.782 570.904,208.804 570.985,208.825 571.066,208.844 571.148,208.862 571.23,208.878 571.313,208.894 571.395,208.907 571.478,208.919 571.561,208.93 571.645,208.94 571.728,208.948 571.812,208.954 571.895,208.959 571.979,208.963 572.063,208.965 572.146,208.966 579.859,208.966 579.942,208.965 580.026,208.963 580.11,208.959 580.194,208.954 580.277,208.948 580.36,208.94 580.444,208.93 580.527,208.919 580.61,208.907 580.692,208.894 580.775,208.878 580.857,208.862 580.939,208.844 581.02,208.825 581.102,208.804 581.182,208.782 581.263,208.758 581.343,208.733 581.422,208.707 581.501,208.679 581.58,208.65 581.658,208.62 581.736,208.588 581.813,208.555 581.889,208.521 581.965,208.485 582.04,208.448 582.115,208.41 582.188,208.37 582.261,208.329 582.334,208.287 "
         id="polygon33470"
         style="stroke:#80ffe6;stroke-opacity:1" />
      <polygon
         fill="none"
         stroke="#00b9d2"
         stroke-width="2.75"
         stroke-linecap="round"
         stroke-linejoin="round"
         stroke-miterlimit="10"
         points="642.818,204.404 642.712,204.572 642.604,204.738 642.493,204.902 642.379,205.064 642.262,205.224 642.142,205.383 642.02,205.539 641.895,205.693 641.767,205.845 641.637,205.994 641.504,206.141 641.369,206.286 641.231,206.429 641.091,206.569 640.948,206.707 640.803,206.843 640.656,206.975 640.506,207.106 640.354,207.233 640.2,207.358 640.044,207.481 639.886,207.6 639.726,207.717 639.563,207.831 639.399,207.942 639.233,208.051 639.065,208.156 638.896,208.259 638.724,208.359 638.551,208.455 638.376,208.549 638.2,208.64 638.022,208.727 637.842,208.812 637.661,208.893 637.479,208.971 637.296,209.046 637.111,209.118 636.925,209.187 636.737,209.253 636.549,209.315 636.36,209.374 636.169,209.43 635.978,209.482 635.786,209.531 635.593,209.577 635.399,209.619 635.205,209.659 635.01,209.694 634.814,209.727 634.618,209.756 634.421,209.781 634.224,209.804 634.026,209.822 633.829,209.838 633.631,209.85 633.433,209.858 633.234,209.863 633.036,209.865 611.472,209.865 611.273,209.863 611.075,209.858 610.877,209.85 610.679,209.838 610.481,209.822 610.284,209.804 610.087,209.781 609.89,209.756 609.694,209.727 609.498,209.694 609.303,209.659 609.109,209.619 608.915,209.577 608.722,209.531 608.53,209.482 608.338,209.43 608.148,209.374 607.959,209.315 607.77,209.253 607.583,209.187 607.397,209.118 607.212,209.046 607.029,208.971 606.846,208.893 606.666,208.812 606.486,208.727 606.308,208.64 606.132,208.549 605.957,208.455 605.784,208.359 605.612,208.259 605.443,208.156 605.275,208.051 605.108,207.942 604.944,207.831 604.782,207.717 604.622,207.6 604.464,207.481 604.307,207.358 604.153,207.233 604.002,207.106 603.852,206.975 603.705,206.843 603.56,206.707 603.417,206.569 603.277,206.429 603.139,206.286 603.004,206.141 602.871,205.994 602.741,205.845 602.613,205.693 602.488,205.539 602.366,205.383 602.246,205.224 602.129,205.064 602.015,204.902 601.904,204.738 601.795,204.572 601.69,204.404 601.587,204.234 601.488,204.062 601.391,203.889 601.297,203.714 601.207,203.538 601.119,203.36 601.034,203.181 600.953,203 600.875,202.817 600.8,202.634 600.728,202.449 600.659,202.263 600.593,202.076 600.531,201.887 600.472,201.698 600.416,201.508 600.364,201.316 600.315,201.124 600.269,200.931 600.227,200.738 600.188,200.543 600.152,200.348 600.119,200.152 600.09,199.956 600.065,199.759 600.043,199.562 600.024,199.365 600.008,199.167 599.996,198.969 599.988,198.771 599.983,198.573 599.981,198.374 599.981,175.168 599.983,174.969 599.988,174.771 599.996,174.573 600.008,174.375 600.024,174.177 600.043,173.98 600.065,173.783 600.09,173.586 600.119,173.39 600.152,173.194 600.188,172.999 600.227,172.805 600.269,172.611 600.315,172.418 600.364,172.226 600.416,172.034 600.472,171.844 600.531,171.655 600.593,171.466 600.659,171.279 600.728,171.093 600.8,170.908 600.875,170.725 600.953,170.542 601.034,170.362 601.119,170.182 601.207,170.004 601.297,169.828 601.391,169.653 601.488,169.48 601.587,169.308 601.69,169.139 601.795,168.971 601.904,168.804 602.015,168.64 602.129,168.478 602.246,168.318 602.366,168.16 602.488,168.003 602.613,167.849 602.741,167.698 602.871,167.548 603.004,167.401 603.139,167.256 603.277,167.113 603.417,166.973 603.56,166.835 603.705,166.7 603.852,166.567 604.002,166.437 604.153,166.309 604.307,166.184 604.464,166.062 604.622,165.942 604.782,165.825 604.944,165.711 605.108,165.6 605.275,165.491 605.443,165.386 605.612,165.283 605.784,165.184 605.957,165.087 606.132,164.993 606.308,164.903 606.486,164.815 606.666,164.73 606.846,164.649 607.029,164.571 607.212,164.496 607.397,164.424 607.583,164.355 607.77,164.289 607.959,164.227 608.148,164.168 608.338,164.112 608.53,164.06 608.722,164.011 608.915,163.965 609.109,163.923 609.303,163.884 609.498,163.848 609.694,163.815 609.89,163.786 610.087,163.761 610.284,163.739 610.481,163.72 610.679,163.704 610.877,163.692 611.075,163.684 611.273,163.679 611.472,163.677 633.036,163.677 633.234,163.679 633.433,163.684 633.631,163.692 633.829,163.704 634.026,163.72 634.224,163.739 634.421,163.761 634.618,163.786 634.814,163.815 635.01,163.848 635.205,163.884 635.399,163.923 635.593,163.965 635.786,164.011 635.978,164.06 636.169,164.112 636.36,164.168 636.549,164.227 636.737,164.289 636.925,164.355 637.111,164.424 637.296,164.496 637.479,164.571 637.661,164.649 637.842,164.73 638.022,164.815 638.2,164.903 638.376,164.993 638.551,165.087 638.724,165.184 638.896,165.283 639.065,165.386 639.233,165.491 639.399,165.6 639.563,165.711 639.726,165.825 639.886,165.942 640.044,166.062 640.2,166.184 640.354,166.309 640.506,166.437 640.656,166.567 640.803,166.7 640.948,166.835 641.091,166.973 641.231,167.113 641.369,167.256 641.504,167.401 641.637,167.548 641.767,167.698 641.895,167.849 642.02,168.003 642.142,168.16 642.262,168.318 642.379,168.478 642.493,168.64 642.604,168.804 642.712,168.971 642.818,169.139 642.92,169.308 643.02,169.48 643.117,169.653 643.211,169.828 643.301,170.004 643.389,170.182 643.473,170.362 643.555,170.542 643.633,170.725 643.708,170.908 643.78,171.093 643.849,171.279 643.914,171.466 643.977,171.655 644.036,171.844 644.091,172.034 644.144,172.226 644.193,172.418 644.239,172.611 644.281,172.805 644.32,172.999 644.356,173.194 644.388,173.39 644.417,173.586 644.443,173.783 644.465,173.98 644.484,174.177 644.499,174.375 644.511,174.573 644.52,174.771 644.525,174.969 644.527,175.168 644.527,198.374 644.525,198.573 644.52,198.771 644.511,198.969 644.499,199.167 644.484,199.365 644.465,199.562 644.443,199.759 644.417,199.956 644.388,200.152 644.356,200.348 644.32,200.543 644.281,200.738 644.239,200.931 644.193,201.124 644.144,201.316 644.091,201.508 644.036,201.698 643.977,201.887 643.914,202.076 643.849,202.263 643.78,202.449 643.708,202.634 643.633,202.817 643.555,203 643.473,203.181 643.389,203.36 643.301,203.538 643.211,203.714 643.117,203.889 643.02,204.062 642.92,204.234 "
         id="polygon33473"
         style="stroke:#80ffe6;stroke-opacity:1" />
      <polygon
         fill="none"
         stroke="#00b9d2"
         stroke-width="2.75"
         stroke-linecap="round"
         stroke-linejoin="round"
         stroke-miterlimit="10"
         points="645.703,206.182 645.566,206.399 645.426,206.615 645.282,206.827 645.134,207.037 644.983,207.245 644.828,207.45 644.67,207.652 644.508,207.851 644.342,208.048 644.174,208.242 644.002,208.432 643.827,208.62 643.648,208.805 643.466,208.986 643.282,209.165 643.094,209.34 642.903,209.512 642.709,209.681 642.513,209.846 642.313,210.008 642.111,210.166 641.906,210.321 641.699,210.473 641.489,210.62 641.276,210.764 641.061,210.905 640.844,211.041 640.624,211.174 640.402,211.303 640.177,211.429 639.951,211.55 639.723,211.667 639.492,211.781 639.26,211.89 639.026,211.996 638.79,212.097 638.552,212.194 638.312,212.287 638.072,212.376 637.829,212.461 637.585,212.542 637.34,212.618 637.094,212.69 636.846,212.758 636.597,212.822 636.347,212.881 636.096,212.936 635.844,212.987 635.592,213.033 635.338,213.075 635.084,213.113 634.83,213.146 634.574,213.175 634.319,213.199 634.063,213.219 633.806,213.234 633.55,213.245 633.293,213.252 633.036,213.254 611.472,213.254 611.215,213.252 610.958,213.245 610.702,213.234 610.445,213.219 610.189,213.199 609.933,213.175 609.678,213.146 609.423,213.113 609.169,213.075 608.916,213.033 608.663,212.987 608.412,212.936 608.161,212.881 607.911,212.822 607.662,212.758 607.414,212.69 607.168,212.618 606.922,212.542 606.679,212.461 606.436,212.376 606.195,212.287 605.956,212.194 605.718,212.097 605.482,211.996 605.248,211.89 605.016,211.781 604.785,211.667 604.557,211.55 604.33,211.429 604.106,211.303 603.884,211.174 603.664,211.041 603.447,210.905 603.232,210.764 603.019,210.62 602.809,210.473 602.601,210.321 602.396,210.166 602.194,210.008 601.995,209.846 601.798,209.681 601.605,209.512 601.414,209.34 601.226,209.165 601.041,208.986 600.86,208.805 600.681,208.62 600.506,208.432 600.334,208.242 600.165,208.048 600,207.851 599.838,207.652 599.68,207.45 599.525,207.245 599.374,207.037 599.226,206.827 599.082,206.615 598.941,206.399 598.805,206.182 598.672,205.962 598.543,205.74 598.418,205.516 598.296,205.289 598.179,205.061 598.065,204.831 597.956,204.598 597.851,204.364 597.749,204.128 597.652,203.89 597.559,203.651 597.47,203.41 597.385,203.167 597.304,202.924 597.228,202.678 597.156,202.432 597.088,202.184 597.024,201.935 596.965,201.685 596.91,201.435 596.859,201.183 596.813,200.93 596.771,200.677 596.733,200.423 596.7,200.168 596.672,199.913 596.647,199.657 596.627,199.401 596.612,199.145 596.601,198.888 596.594,198.631 596.592,198.374 596.592,175.168 596.594,174.911 596.601,174.654 596.612,174.398 596.627,174.141 596.647,173.885 596.672,173.629 596.7,173.374 596.733,173.119 596.771,172.865 596.813,172.612 596.859,172.359 596.91,172.108 596.965,171.857 597.024,171.607 597.088,171.358 597.156,171.11 597.228,170.864 597.304,170.618 597.385,170.375 597.47,170.132 597.559,169.891 597.652,169.652 597.749,169.414 597.851,169.178 597.956,168.944 598.065,168.712 598.179,168.481 598.296,168.253 598.418,168.026 598.543,167.802 598.672,167.58 598.805,167.36 598.941,167.143 599.082,166.928 599.226,166.715 599.374,166.505 599.525,166.297 599.68,166.092 599.838,165.89 600,165.691 600.165,165.494 600.334,165.301 600.506,165.11 600.681,164.922 600.86,164.737 601.041,164.556 601.226,164.377 601.414,164.202 601.605,164.03 601.798,163.861 601.995,163.696 602.194,163.534 602.396,163.376 602.601,163.221 602.809,163.07 603.019,162.922 603.232,162.778 603.447,162.637 603.664,162.501 603.884,162.368 604.106,162.239 604.33,162.114 604.557,161.992 604.785,161.875 605.016,161.761 605.248,161.652 605.482,161.547 605.718,161.445 605.956,161.348 606.195,161.255 606.436,161.166 606.679,161.081 606.922,161 607.168,160.924 607.414,160.852 607.662,160.784 607.911,160.72 608.161,160.661 608.412,160.606 608.663,160.555 608.916,160.509 609.169,160.467 609.423,160.429 609.678,160.396 609.933,160.368 610.189,160.343 610.445,160.323 610.702,160.308 610.958,160.297 611.215,160.29 611.472,160.288 633.036,160.288 633.293,160.29 633.55,160.297 633.806,160.308 634.063,160.323 634.319,160.343 634.574,160.368 634.83,160.396 635.084,160.429 635.338,160.467 635.592,160.509 635.844,160.555 636.096,160.606 636.347,160.661 636.597,160.72 636.846,160.784 637.094,160.852 637.34,160.924 637.585,161 637.829,161.081 638.072,161.166 638.312,161.255 638.552,161.348 638.79,161.445 639.026,161.547 639.26,161.652 639.492,161.761 639.723,161.875 639.951,161.992 640.177,162.114 640.402,162.239 640.624,162.368 640.844,162.501 641.061,162.637 641.276,162.778 641.489,162.922 641.699,163.07 641.906,163.221 642.111,163.376 642.313,163.534 642.513,163.696 642.709,163.861 642.903,164.03 643.094,164.202 643.282,164.377 643.466,164.556 643.648,164.737 643.827,164.922 644.002,165.11 644.174,165.301 644.342,165.494 644.508,165.691 644.67,165.89 644.828,166.092 644.983,166.297 645.134,166.505 645.282,166.715 645.426,166.928 645.566,167.143 645.703,167.36 645.836,167.58 645.965,167.802 646.09,168.026 646.211,168.253 646.329,168.481 646.442,168.712 646.552,168.944 646.657,169.178 646.759,169.414 646.856,169.652 646.949,169.891 647.038,170.132 647.123,170.375 647.203,170.618 647.28,170.864 647.352,171.11 647.42,171.358 647.484,171.607 647.543,171.857 647.598,172.108 647.648,172.359 647.695,172.612 647.737,172.865 647.774,173.119 647.807,173.374 647.836,173.629 647.861,173.885 647.88,174.141 647.896,174.398 647.907,174.654 647.914,174.911 647.916,175.168 647.916,198.374 647.914,198.631 647.907,198.888 647.896,199.145 647.88,199.401 647.861,199.657 647.836,199.913 647.807,200.168 647.774,200.423 647.737,200.677 647.695,200.93 647.648,201.183 647.598,201.435 647.543,201.685 647.484,201.935 647.42,202.184 647.352,202.432 647.28,202.678 647.203,202.924 647.123,203.167 647.038,203.41 646.949,203.651 646.856,203.89 646.759,204.128 646.657,204.364 646.552,204.598 646.442,204.831 646.329,205.061 646.211,205.289 646.09,205.516 645.965,205.74 645.836,205.962 "
         id="polygon33476"
         style="stroke:#80ffe6;stroke-opacity:1" />
      <path
         fill="none"
         stroke="#00b9d2"
         stroke-width="2.75"
         stroke-linecap="round"
         stroke-linejoin="round"
         stroke-miterlimit="10"
         d="m 635.572,186.771 c 0.012,-6.071 -4.16,-11.432 -10.049,-12.91 -8.378,-2.103 -16.494,4.158 -16.587,12.795 -0.057,8.734 8.115,15.152 16.587,13.026 5.888,-1.479 10.061,-6.84 10.049,-12.911 z"
         id="path33479"
         style="stroke:#80ffe6;stroke-opacity:1" />
    </g>
  </g>
</svg>
