<?xml version="1.0" encoding="UTF-8" standalone="no"?>
<svg
   xmlns:dc="http://purl.org/dc/elements/1.1/"
   xmlns:cc="http://creativecommons.org/ns#"
   xmlns:rdf="http://www.w3.org/1999/02/22-rdf-syntax-ns#"
   xmlns:svg="http://www.w3.org/2000/svg"
   xmlns="http://www.w3.org/2000/svg"
   xmlns:sodipodi="http://sodipodi.sourceforge.net/DTD/sodipodi-0.dtd"
   xmlns:inkscape="http://www.inkscape.org/namespaces/inkscape"
   width="15.000001mm"
   height="31.784641mm"
   viewBox="0 0 15.000002 31.784643"
   version="1.1"
   id="svg4830"
   inkscape:version="1.0.2 (e86c8708, 2021-01-15)"
   sodipodi:docname="s8plus.svg">
  <defs
     id="defs4824" />
  <sodipodi:namedview
     id="base"
     pagecolor="#ffffff"
     bordercolor="#666666"
     borderopacity="1.0"
     inkscape:pageopacity="0.0"
     inkscape:pageshadow="2"
     inkscape:zoom="3.8813991"
     inkscape:cx="26.386008"
     inkscape:cy="94.565384"
     inkscape:document-units="mm"
     inkscape:current-layer="layer1"
     inkscape:document-rotation="0"
     showgrid="false"
     inkscape:window-width="1440"
     inkscape:window-height="872"
     inkscape:window-x="0"
     inkscape:window-y="28"
     inkscape:window-maximized="0" />
  <metadata
     id="metadata4827">
    <rdf:RDF>
      <cc:Work
         rdf:about="">
        <dc:format>image/svg+xml</dc:format>
        <dc:type
           rdf:resource="http://purl.org/dc/dcmitype/StillImage" />
        <dc:title></dc:title>
      </cc:Work>
    </rdf:RDF>
  </metadata>
  <g
     inkscape:label="Layer 1"
     inkscape:groupmode="layer"
     id="layer1"
     transform="translate(-70.592573,-102.35033)">
    <g
       id="g32782"
       transform="matrix(0.05088938,0,0,0.05088938,46.17015,97.94077)"
       style="stroke:#80ffe6;stroke-opacity:1">
      <g
         id="POLYLINE_286_"
         style="stroke:#80ffe6;stroke-opacity:1">
        <polygon
           fill="none"
           stroke="#00b9d2"
           stroke-width="2.75"
           stroke-linecap="round"
           stroke-linejoin="round"
           stroke-miterlimit="10"
           points="589.036,206.925 589.104,206.883 589.172,206.84 589.24,206.796 589.306,206.751 589.372,206.705 589.437,206.658 589.501,206.609 589.564,206.56 589.626,206.509 589.688,206.458 589.748,206.405 589.808,206.351 589.867,206.296 589.924,206.241 589.981,206.184 590.037,206.126 590.092,206.067 590.146,206.008 590.198,205.947 590.25,205.886 590.301,205.823 590.35,205.76 590.398,205.696 590.446,205.631 590.492,205.566 590.537,205.499 590.581,205.432 590.624,205.364 590.665,205.295 590.706,205.226 590.745,205.156 590.783,205.085 590.819,205.013 590.855,204.941 590.889,204.869 590.922,204.796 590.954,204.722 590.984,204.647 591.013,204.573 591.041,204.497 591.068,204.422 591.093,204.345 591.117,204.269 591.139,204.192 591.16,204.114 591.18,204.036 591.199,203.958 591.216,203.88 591.232,203.801 591.246,203.722 591.259,203.643 591.271,203.563 591.281,203.484 591.29,203.404 591.298,203.324 591.304,203.244 591.309,203.164 591.313,203.084 591.315,203.003 591.315,202.923 591.315,169.689 591.315,169.609 591.313,169.528 591.309,169.448 591.304,169.368 591.298,169.288 591.29,169.208 591.281,169.128 591.271,169.049 591.259,168.969 591.246,168.89 591.232,168.811 591.216,168.732 591.199,168.654 591.18,168.576 591.16,168.498 591.139,168.421 591.117,168.343 591.093,168.267 591.068,168.191 591.041,168.115 591.013,168.039 590.984,167.965 590.954,167.89 590.922,167.817 590.889,167.743 590.855,167.671 590.819,167.599 590.783,167.527 590.745,167.456 590.706,167.386 590.665,167.317 590.624,167.248 590.581,167.18 590.537,167.113 590.492,167.047 590.446,166.981 590.398,166.916 590.35,166.852 590.301,166.789 590.25,166.726 590.198,166.665 590.146,166.604 590.092,166.545 590.037,166.486 589.981,166.428 589.924,166.371 589.867,166.316 589.808,166.261 589.748,166.207 589.688,166.154 589.626,166.103 589.564,166.052 589.501,166.003 589.437,165.954 589.372,165.907 589.306,165.861 589.24,165.816 589.172,165.772 589.104,165.729 589.036,165.688 588.966,165.647 588.896,165.608 588.826,165.57 588.754,165.533 588.682,165.498 588.609,165.464 588.536,165.431 588.462,165.399 588.388,165.369 588.313,165.34 588.238,165.312 588.162,165.285 588.086,165.26 588.009,165.236 587.932,165.214 587.855,165.192 587.777,165.172 587.699,165.154 587.62,165.137 587.542,165.121 587.463,165.106 587.383,165.093 587.304,165.082 587.224,165.071 587.145,165.062 587.065,165.055 586.985,165.048 586.905,165.044 586.824,165.04 586.744,165.038 586.664,165.037 579.273,165.037 579.193,165.038 579.113,165.04 579.032,165.044 578.952,165.048 578.872,165.055 578.792,165.062 578.713,165.071 578.633,165.082 578.553,165.093 578.474,165.106 578.395,165.121 578.317,165.137 578.238,165.154 578.16,165.172 578.082,165.192 578.005,165.214 577.928,165.236 577.851,165.26 577.775,165.285 577.699,165.312 577.624,165.34 577.549,165.369 577.475,165.399 577.401,165.431 577.328,165.464 577.255,165.498 577.183,165.533 577.112,165.57 577.041,165.608 576.971,165.647 576.901,165.688 576.833,165.729 576.765,165.772 576.697,165.816 576.631,165.861 576.565,165.907 576.5,165.954 576.436,166.003 576.373,166.052 576.311,166.103 576.249,166.154 576.189,166.207 576.129,166.261 576.07,166.316 576.013,166.371 575.956,166.428 575.9,166.486 575.845,166.545 575.791,166.604 575.739,166.665 575.687,166.726 575.636,166.789 575.587,166.852 575.538,166.916 575.491,166.981 575.445,167.047 575.4,167.113 575.356,167.18 575.313,167.248 575.272,167.317 575.231,167.386 575.192,167.456 575.154,167.527 575.118,167.599 575.082,167.671 575.048,167.743 575.015,167.817 574.983,167.89 574.953,167.965 574.924,168.039 574.896,168.115 574.87,168.191 574.844,168.267 574.82,168.343 574.798,168.421 574.777,168.498 574.757,168.576 574.738,168.654 574.721,168.732 574.705,168.811 574.691,168.89 574.678,168.969 574.666,169.049 574.656,169.128 574.646,169.208 574.639,169.288 574.633,169.368 574.628,169.448 574.624,169.528 574.622,169.609 574.622,169.689 574.622,202.923 574.622,203.003 574.624,203.084 574.628,203.164 574.633,203.244 574.639,203.324 574.646,203.404 574.656,203.484 574.666,203.563 574.678,203.643 574.691,203.722 574.705,203.801 574.721,203.88 574.738,203.958 574.757,204.036 574.777,204.114 574.798,204.192 574.82,204.269 574.844,204.345 574.87,204.422 574.896,204.497 574.924,204.573 574.953,204.647 574.983,204.722 575.015,204.796 575.048,204.869 575.082,204.941 575.118,205.013 575.154,205.085 575.192,205.156 575.231,205.226 575.272,205.295 575.313,205.364 575.356,205.432 575.4,205.499 575.445,205.566 575.491,205.631 575.538,205.696 575.587,205.76 575.636,205.823 575.687,205.886 575.739,205.947 575.791,206.008 575.845,206.067 575.9,206.126 575.956,206.184 576.013,206.241 576.07,206.296 576.129,206.351 576.189,206.405 576.249,206.458 576.311,206.509 576.373,206.56 576.436,206.609 576.5,206.658 576.565,206.705 576.631,206.751 576.697,206.796 576.765,206.84 576.833,206.883 576.901,206.925 576.971,206.965 577.041,207.004 577.112,207.042 577.183,207.079 577.255,207.114 577.328,207.148 577.401,207.181 577.475,207.213 577.549,207.243 577.624,207.272 577.699,207.3 577.775,207.327 577.851,207.352 577.928,207.376 578.005,207.398 578.082,207.42 578.16,207.44 578.238,207.458 578.317,207.475 578.395,207.491 578.474,207.506 578.553,207.519 578.633,207.53 578.713,207.541 578.792,207.55 578.872,207.557 578.952,207.564 579.032,207.569 579.113,207.572 579.193,207.574 579.273,207.575 586.664,207.575 586.744,207.574 586.824,207.572 586.905,207.569 586.985,207.564 587.065,207.557 587.145,207.55 587.224,207.541 587.304,207.53 587.383,207.519 587.463,207.506 587.542,207.491 587.62,207.475 587.699,207.458 587.777,207.44 587.855,207.42 587.932,207.398 588.009,207.376 588.086,207.352 588.162,207.327 588.238,207.3 588.313,207.272 588.388,207.243 588.462,207.213 588.536,207.181 588.609,207.148 588.682,207.114 588.754,207.079 588.826,207.042 588.896,207.004 588.966,206.965 "
           id="polygon32028"
           style="stroke:#80ffe6;stroke-opacity:1" />
      </g>
      <g
         id="POLYLINE_285_"
         style="stroke:#80ffe6;stroke-opacity:1">
        <path
           fill="none"
           stroke="#00b9d2"
           stroke-width="2.75"
           stroke-linecap="round"
           stroke-linejoin="round"
           stroke-miterlimit="10"
           d="m 640.053,186.306 c 0.012,-5.818 -3.987,-10.955 -9.63,-12.372 -8.028,-2.016 -15.806,3.984 -15.895,12.261 -0.054,8.37 7.776,14.52 15.895,12.483 5.643,-1.417 9.642,-6.554 9.63,-12.372 z"
           id="path32031"
           style="stroke:#80ffe6;stroke-opacity:1" />
      </g>
      <g
         id="POLYLINE_284_"
         style="stroke:#80ffe6;stroke-opacity:1">
        <polygon
           fill="none"
           stroke="#00b9d2"
           stroke-width="2.75"
           stroke-linecap="round"
           stroke-linejoin="round"
           stroke-miterlimit="10"
           points="647.095,203.04 646.997,203.203 646.896,203.364 646.792,203.523 646.685,203.68 646.576,203.836 646.464,203.99 646.349,204.141 646.232,204.291 646.112,204.438 645.99,204.584 645.865,204.727 645.738,204.868 645.608,205.007 645.476,205.144 645.342,205.278 645.205,205.411 645.066,205.54 644.925,205.667 644.781,205.792 644.636,205.915 644.488,206.034 644.339,206.152 644.187,206.266 644.033,206.378 643.878,206.488 643.721,206.594 643.561,206.698 643.401,206.799 643.238,206.897 643.074,206.993 642.908,207.086 642.74,207.175 642.571,207.262 642.4,207.346 642.229,207.427 642.055,207.505 641.881,207.58 641.705,207.652 641.527,207.721 641.349,207.787 641.17,207.85 640.989,207.909 640.808,207.966 640.625,208.019 640.442,208.07 640.258,208.117 640.073,208.161 639.887,208.201 639.701,208.239 639.514,208.273 639.327,208.304 639.139,208.332 638.95,208.356 638.761,208.378 638.572,208.396 638.382,208.41 638.193,208.422 638.003,208.43 637.813,208.435 637.623,208.437 616.958,208.437 616.768,208.435 616.578,208.43 616.388,208.422 616.198,208.41 616.009,208.396 615.82,208.378 615.631,208.356 615.442,208.332 615.254,208.304 615.067,208.273 614.88,208.239 614.693,208.201 614.508,208.161 614.323,208.117 614.139,208.07 613.955,208.019 613.773,207.966 613.592,207.909 613.411,207.85 613.232,207.787 613.053,207.721 612.876,207.652 612.7,207.58 612.526,207.505 612.352,207.427 612.18,207.346 612.01,207.262 611.841,207.175 611.673,207.086 611.507,206.993 611.343,206.897 611.18,206.799 611.019,206.698 610.86,206.594 610.703,206.488 610.547,206.378 610.394,206.266 610.242,206.152 610.093,206.034 609.945,205.915 609.8,205.792 609.656,205.667 609.515,205.54 609.376,205.411 609.239,205.278 609.105,205.144 608.973,205.007 608.843,204.868 608.716,204.727 608.591,204.584 608.469,204.438 608.349,204.291 608.232,204.141 608.117,203.99 608.005,203.836 607.896,203.68 607.789,203.523 607.685,203.364 607.584,203.203 607.486,203.04 607.39,202.876 607.298,202.71 607.208,202.543 607.121,202.374 607.037,202.203 606.956,202.031 606.878,201.858 606.803,201.683 606.731,201.507 606.662,201.33 606.596,201.152 606.534,200.972 606.474,200.792 606.417,200.61 606.364,200.428 606.314,200.245 606.267,200.061 606.223,199.876 606.182,199.69 606.145,199.504 606.11,199.317 606.079,199.129 606.052,198.941 606.027,198.753 606.006,198.564 605.988,198.374 605.973,198.185 605.961,197.995 605.953,197.805 605.948,197.615 605.947,197.425 605.947,175.187 605.948,174.997 605.953,174.807 605.961,174.617 605.973,174.427 605.988,174.238 606.006,174.048 606.027,173.859 606.052,173.671 606.079,173.483 606.11,173.295 606.145,173.109 606.182,172.922 606.223,172.737 606.267,172.552 606.314,172.367 606.364,172.184 606.417,172.002 606.474,171.82 606.534,171.64 606.596,171.46 606.662,171.282 606.731,171.105 606.803,170.929 606.878,170.754 606.956,170.581 607.037,170.409 607.121,170.239 607.208,170.07 607.298,169.902 607.39,169.736 607.486,169.572 607.584,169.409 607.685,169.248 607.789,169.089 607.896,168.932 608.005,168.776 608.117,168.623 608.232,168.471 608.349,168.321 608.469,168.174 608.591,168.028 608.716,167.885 608.843,167.744 608.973,167.605 609.105,167.468 609.239,167.334 609.376,167.202 609.515,167.072 609.656,166.945 609.8,166.82 609.945,166.697 610.093,166.578 610.242,166.46 610.394,166.346 610.547,166.234 610.703,166.125 610.86,166.018 611.019,165.914 611.18,165.813 611.343,165.715 611.507,165.619 611.673,165.526 611.841,165.437 612.01,165.35 612.18,165.266 612.352,165.185 612.526,165.107 612.7,165.032 612.876,164.96 613.053,164.891 613.232,164.825 613.411,164.762 613.592,164.703 613.773,164.646 613.955,164.593 614.139,164.542 614.323,164.495 614.508,164.451 614.693,164.411 614.88,164.373 615.067,164.339 615.254,164.308 615.442,164.28 615.631,164.256 615.82,164.234 616.009,164.216 616.198,164.202 616.388,164.19 616.578,164.182 616.768,164.177 616.958,164.175 637.623,164.175 637.813,164.177 638.003,164.182 638.193,164.19 638.382,164.202 638.572,164.216 638.761,164.234 638.95,164.256 639.139,164.28 639.327,164.308 639.514,164.339 639.701,164.373 639.887,164.411 640.073,164.451 640.258,164.495 640.442,164.542 640.625,164.593 640.808,164.646 640.989,164.703 641.17,164.762 641.349,164.825 641.527,164.891 641.705,164.96 641.881,165.032 642.055,165.107 642.229,165.185 642.4,165.266 642.571,165.35 642.74,165.437 642.908,165.526 643.074,165.619 643.238,165.715 643.401,165.813 643.561,165.914 643.721,166.018 643.878,166.125 644.033,166.234 644.187,166.346 644.339,166.46 644.488,166.578 644.636,166.697 644.781,166.82 644.925,166.945 645.066,167.072 645.205,167.202 645.342,167.334 645.476,167.468 645.608,167.605 645.738,167.744 645.865,167.885 645.99,168.028 646.112,168.174 646.232,168.321 646.349,168.471 646.464,168.623 646.576,168.776 646.685,168.932 646.792,169.089 646.896,169.248 646.997,169.409 647.095,169.572 647.19,169.736 647.283,169.902 647.373,170.07 647.46,170.239 647.544,170.409 647.625,170.581 647.703,170.754 647.778,170.929 647.85,171.105 647.919,171.282 647.984,171.46 648.047,171.64 648.107,171.82 648.164,172.002 648.217,172.184 648.267,172.367 648.314,172.552 648.358,172.737 648.399,172.922 648.436,173.109 648.471,173.295 648.502,173.483 648.529,173.671 648.554,173.859 648.575,174.048 648.593,174.238 648.608,174.427 648.619,174.617 648.628,174.807 648.633,174.997 648.634,175.187 648.634,197.425 648.633,197.615 648.628,197.805 648.619,197.995 648.608,198.185 648.593,198.374 648.575,198.564 648.554,198.753 648.529,198.941 648.502,199.129 648.471,199.317 648.436,199.504 648.399,199.69 648.358,199.876 648.314,200.061 648.267,200.245 648.217,200.428 648.164,200.61 648.107,200.792 648.047,200.972 647.984,201.152 647.919,201.33 647.85,201.507 647.778,201.683 647.703,201.858 647.625,202.031 647.544,202.203 647.46,202.374 647.373,202.543 647.283,202.71 647.19,202.876 "
           id="polygon32034"
           style="stroke:#80ffe6;stroke-opacity:1" />
      </g>
      <g
         id="POLYLINE_283_"
         style="stroke:#80ffe6;stroke-opacity:1">
        <polygon
           fill="none"
           stroke="#00b9d2"
           stroke-width="2.75"
           stroke-linecap="round"
           stroke-linejoin="round"
           stroke-miterlimit="10"
           points="649.889,204.697 649.761,204.907 649.63,205.116 649.496,205.322 649.358,205.525 649.216,205.727 649.071,205.926 648.923,206.122 648.771,206.316 648.616,206.507 648.458,206.695 648.296,206.881 648.131,207.064 647.963,207.244 647.792,207.421 647.618,207.595 647.441,207.766 647.261,207.934 647.078,208.098 646.893,208.26 646.704,208.418 646.513,208.574 646.32,208.725 646.123,208.874 645.924,209.019 645.723,209.16 645.519,209.298 645.313,209.433 645.105,209.564 644.894,209.691 644.681,209.815 644.466,209.935 644.249,210.051 644.03,210.164 643.81,210.272 643.587,210.377 643.362,210.478 643.136,210.575 642.909,210.669 642.679,210.758 642.448,210.843 642.216,210.924 641.982,211.002 641.747,211.075 641.511,211.144 641.274,211.209 641.035,211.27 640.796,211.327 640.555,211.38 640.314,211.428 640.072,211.473 639.829,211.513 639.586,211.549 639.342,211.581 639.097,211.608 638.852,211.631 638.607,211.651 638.361,211.665 638.115,211.676 637.869,211.682 637.623,211.685 616.958,211.685 616.712,211.682 616.466,211.676 616.22,211.665 615.974,211.651 615.729,211.631 615.484,211.608 615.239,211.581 614.995,211.549 614.752,211.513 614.509,211.473 614.267,211.428 614.026,211.38 613.785,211.327 613.546,211.27 613.307,211.209 613.07,211.144 612.834,211.075 612.599,211.002 612.365,210.924 612.133,210.843 611.902,210.758 611.672,210.669 611.445,210.575 611.218,210.478 610.994,210.377 610.771,210.272 610.55,210.164 610.332,210.051 610.115,209.935 609.9,209.815 609.687,209.691 609.476,209.564 609.268,209.433 609.062,209.298 608.858,209.16 608.657,209.019 608.458,208.874 608.261,208.725 608.068,208.574 607.877,208.418 607.688,208.26 607.503,208.098 607.32,207.934 607.14,207.766 606.963,207.595 606.789,207.421 606.618,207.244 606.45,207.064 606.285,206.881 606.123,206.695 605.965,206.507 605.81,206.316 605.658,206.122 605.51,205.926 605.365,205.727 605.223,205.525 605.085,205.322 604.95,205.116 604.819,204.907 604.692,204.697 604.568,204.484 604.448,204.269 604.332,204.052 604.22,203.833 604.111,203.612 604.006,203.389 603.905,203.165 603.808,202.939 603.715,202.711 603.626,202.482 603.54,202.251 603.459,202.018 603.382,201.785 603.308,201.55 603.239,201.314 603.174,201.076 603.113,200.838 603.056,200.598 603.004,200.358 602.955,200.117 602.911,199.874 602.871,199.632 602.835,199.388 602.803,199.144 602.775,198.899 602.752,198.654 602.733,198.409 602.718,198.163 602.707,197.917 602.701,197.671 602.699,197.425 602.699,175.187 602.701,174.941 602.707,174.695 602.718,174.449 602.733,174.203 602.752,173.958 602.775,173.713 602.803,173.468 602.835,173.224 602.871,172.98 602.911,172.738 602.955,172.496 603.004,172.254 603.056,172.014 603.113,171.774 603.174,171.536 603.239,171.298 603.308,171.062 603.382,170.827 603.459,170.594 603.54,170.361 603.626,170.13 603.715,169.901 603.808,169.673 603.905,169.447 604.006,169.223 604.111,169 604.22,168.779 604.332,168.56 604.448,168.343 604.568,168.128 604.692,167.916 604.819,167.705 604.95,167.496 605.085,167.29 605.223,167.087 605.365,166.885 605.51,166.686 605.658,166.49 605.81,166.296 605.965,166.105 606.123,165.917 606.285,165.731 606.45,165.548 606.618,165.368 606.789,165.191 606.963,165.017 607.14,164.846 607.32,164.678 607.503,164.514 607.688,164.352 607.877,164.194 608.068,164.038 608.261,163.887 608.458,163.738 608.657,163.593 608.858,163.452 609.062,163.314 609.268,163.179 609.476,163.048 609.687,162.921 609.9,162.797 610.115,162.677 610.332,162.561 610.55,162.448 610.771,162.34 610.994,162.235 611.218,162.134 611.445,162.037 611.672,161.943 611.902,161.854 612.133,161.769 612.365,161.688 612.599,161.61 612.834,161.537 613.07,161.468 613.307,161.403 613.546,161.342 613.785,161.285 614.026,161.232 614.267,161.184 614.509,161.139 614.752,161.099 614.995,161.063 615.239,161.032 615.484,161.004 615.729,160.981 615.974,160.962 616.22,160.947 616.466,160.936 616.712,160.93 616.958,160.928 637.623,160.928 637.869,160.93 638.115,160.936 638.361,160.947 638.607,160.962 638.852,160.981 639.097,161.004 639.342,161.032 639.586,161.063 639.829,161.099 640.072,161.139 640.314,161.184 640.555,161.232 640.796,161.285 641.035,161.342 641.274,161.403 641.511,161.468 641.747,161.537 641.982,161.61 642.216,161.688 642.448,161.769 642.679,161.854 642.909,161.943 643.136,162.037 643.362,162.134 643.587,162.235 643.81,162.34 644.03,162.448 644.249,162.561 644.466,162.677 644.681,162.797 644.894,162.921 645.105,163.048 645.313,163.179 645.519,163.314 645.723,163.452 645.924,163.593 646.123,163.738 646.32,163.887 646.513,164.038 646.704,164.194 646.893,164.352 647.078,164.514 647.261,164.678 647.441,164.846 647.618,165.017 647.792,165.191 647.963,165.368 648.131,165.548 648.296,165.731 648.458,165.917 648.616,166.105 648.771,166.296 648.923,166.49 649.071,166.686 649.216,166.885 649.358,167.087 649.496,167.29 649.63,167.496 649.761,167.705 649.889,167.916 650.012,168.128 650.132,168.343 650.249,168.56 650.361,168.779 650.47,169 650.575,169.223 650.676,169.447 650.773,169.673 650.866,169.901 650.955,170.13 651.041,170.361 651.122,170.594 651.199,170.827 651.272,171.062 651.342,171.298 651.407,171.536 651.468,171.774 651.524,172.014 651.577,172.254 651.626,172.496 651.67,172.738 651.71,172.98 651.746,173.224 651.778,173.468 651.806,173.713 651.829,173.958 651.848,174.203 651.863,174.449 651.873,174.695 651.88,174.941 651.882,175.187 651.882,197.425 651.88,197.671 651.873,197.917 651.863,198.163 651.848,198.409 651.829,198.654 651.806,198.899 651.778,199.144 651.746,199.388 651.71,199.632 651.67,199.874 651.626,200.117 651.577,200.358 651.524,200.598 651.468,200.838 651.407,201.076 651.342,201.314 651.272,201.55 651.199,201.785 651.122,202.018 651.041,202.251 650.955,202.482 650.866,202.711 650.773,202.939 650.676,203.165 650.575,203.389 650.47,203.612 650.361,203.833 650.249,204.052 650.132,204.269 650.012,204.484 "
           id="polygon32037"
           style="stroke:#80ffe6;stroke-opacity:1" />
      </g>
      <g
         id="POLYLINE_282_"
         style="stroke:#80ffe6;stroke-opacity:1">
        <rect
           x="481.28699"
           y="272.53299"
           fill="none"
           stroke="#00b9d2"
           stroke-width="2.75"
           stroke-linecap="round"
           stroke-linejoin="round"
           stroke-miterlimit="10"
           width="2.924"
           height="40.467999"
           id="rect32040"
           style="stroke:#80ffe6;stroke-opacity:1" />
      </g>
      <g
         id="POLYLINE_281_"
         style="stroke:#80ffe6;stroke-opacity:1">
        <rect
           x="770.37"
           y="189.50301"
           fill="none"
           stroke="#00b9d2"
           stroke-width="2.75"
           stroke-linecap="round"
           stroke-linejoin="round"
           stroke-miterlimit="10"
           width="2.924"
           height="83.318001"
           id="rect32043"
           style="stroke:#80ffe6;stroke-opacity:1" />
      </g>
      <g
         id="POLYLINE_280_"
         style="stroke:#80ffe6;stroke-opacity:1">
        <rect
           x="770.37"
           y="306.19199"
           fill="none"
           stroke="#00b9d2"
           stroke-width="2.75"
           stroke-linecap="round"
           stroke-linejoin="round"
           stroke-miterlimit="10"
           width="2.924"
           height="39.792"
           id="rect32046"
           style="stroke:#80ffe6;stroke-opacity:1" />
      </g>
      <g
         id="POLYLINE_279_"
         style="stroke:#80ffe6;stroke-opacity:1">
        <polyline
           fill="none"
           stroke="#00b9d2"
           stroke-width="2.75"
           stroke-linecap="round"
           stroke-linejoin="round"
           stroke-miterlimit="10"
           points="    484.211,662.761 484.217,663.476 484.235,664.191 484.266,664.905 484.309,665.619 484.365,666.333 484.433,667.045     484.513,667.755 484.605,668.465 484.71,669.172 484.826,669.878 484.955,670.582 485.096,671.283 485.249,671.981     485.415,672.677 485.592,673.37 485.781,674.06 485.982,674.747 486.195,675.43 486.419,676.109 486.655,676.784 486.903,677.455     487.163,678.121 487.434,678.783 487.716,679.441 488.009,680.093 488.314,680.74 488.63,681.382 488.957,682.018     489.295,682.648 489.644,683.273 490.003,683.891 490.373,684.503 490.754,685.109 491.145,685.708 491.546,686.3     491.957,686.885 492.379,687.463 492.81,688.034 493.251,688.597 493.702,689.152 494.162,689.7 494.632,690.239 495.111,690.771     495.599,691.294 496.096,691.808 496.602,692.314 497.116,692.811 497.639,693.299 498.17,693.778 498.71,694.247     499.257,694.708 499.812,695.158 500.376,695.599 500.946,696.031 501.524,696.452 502.109,696.864 502.701,697.265     503.3,697.656 503.906,698.036 504.518,698.406 505.137,698.766 505.761,699.115 506.392,699.452 507.028,699.779     507.669,700.095 508.317,700.4 508.969,700.694 509.626,700.976 510.288,701.247 510.955,701.506 511.626,701.754 512.301,701.99     512.98,702.215 513.663,702.428 514.349,702.629 515.039,702.818 515.732,702.995 516.428,703.16 517.127,703.313     517.828,703.454 518.531,703.583 519.237,703.7 519.945,703.804 520.654,703.897 521.365,703.977 522.077,704.045 522.79,704.1     523.504,704.143 524.219,704.174 524.934,704.193 525.649,704.199 728.932,704.199 729.647,704.193 730.362,704.174     731.077,704.143 731.791,704.1 732.504,704.045 733.216,703.977 733.927,703.897 734.636,703.804 735.344,703.7 736.049,703.583     736.753,703.454 737.454,703.313 738.153,703.16 738.849,702.995 739.542,702.818 740.232,702.629 740.918,702.428     741.601,702.215 742.28,701.99 742.955,701.754 743.626,701.506 744.293,701.247 744.955,700.976 745.612,700.694 746.264,700.4     746.911,700.095 747.553,699.779 748.189,699.452 748.82,699.115 749.444,698.766 750.063,698.406 750.675,698.036     751.281,697.656 751.88,697.265 752.472,696.864 753.057,696.452 753.635,696.031 754.205,695.599 754.768,695.158     755.324,694.708 755.871,694.247 756.411,693.778 756.942,693.299 757.465,692.811 757.979,692.314 758.485,691.808     758.982,691.294 759.47,690.771 759.949,690.239 760.419,689.7 760.879,689.152 761.33,688.597 761.771,688.034 762.202,687.463     762.624,686.885 763.035,686.3 763.436,685.708 763.827,685.109 764.208,684.503 764.578,683.891 764.937,683.273     765.286,682.648 765.624,682.018 765.951,681.382 766.267,680.74 766.571,680.093 766.865,679.441 767.147,678.783     767.418,678.121 767.678,677.455 767.925,676.784 768.162,676.109 768.386,675.43 768.599,674.747 768.8,674.06 768.989,673.37     769.166,672.677 769.331,671.981 769.485,671.283 769.626,670.582 769.755,669.878 769.871,669.172 769.976,668.465     770.068,667.755 770.148,667.045 770.216,666.333 770.272,665.619 770.315,664.905 770.346,664.191 770.364,663.476     770.37,662.761   "
           id="polyline32049"
           style="stroke:#80ffe6;stroke-opacity:1" />
      </g>
      <g
         id="POLYLINE_278_"
         style="stroke:#80ffe6;stroke-opacity:1">
        <polyline
           fill="none"
           stroke="#00b9d2"
           stroke-width="2.75"
           stroke-linecap="round"
           stroke-linejoin="round"
           stroke-miterlimit="10"
           points="    770.37,135.615 770.364,134.9 770.346,134.185 770.315,133.47 770.272,132.757 770.216,132.043 770.148,131.331 770.068,130.621     769.976,129.911 769.871,129.204 769.755,128.498 769.626,127.794 769.485,127.093 769.331,126.394 769.166,125.699     768.989,125.006 768.8,124.316 768.599,123.629 768.386,122.946 768.162,122.267 767.925,121.592 767.678,120.921     767.418,120.255 767.147,119.593 766.865,118.935 766.571,118.283 766.267,117.636 765.951,116.994 765.624,116.358     765.286,115.728 764.937,115.103 764.578,114.485 764.208,113.872 763.827,113.267 763.436,112.668 763.035,112.076     762.624,111.491 762.202,110.913 761.771,110.342 761.33,109.779 760.879,109.224 760.419,108.676 759.949,108.137     759.47,107.605 758.982,107.082 758.485,106.568 757.979,106.062 757.465,105.565 756.942,105.077 756.411,104.598     755.871,104.129 755.324,103.668 754.768,103.218 754.205,102.776 753.635,102.345 753.057,101.924 752.472,101.512     751.88,101.111 751.281,100.72 750.675,100.34 750.063,99.969 749.444,99.61 748.82,99.261 748.189,98.924 747.553,98.597     746.911,98.281 746.264,97.976 745.612,97.682 744.955,97.4 744.293,97.129 743.626,96.87 742.955,96.622 742.28,96.386     741.601,96.161 740.918,95.948 740.232,95.747 739.542,95.558 738.849,95.381 738.153,95.216 737.454,95.063 736.753,94.922     736.049,94.793 735.344,94.676 734.636,94.571 733.927,94.479 733.216,94.399 732.504,94.331 731.791,94.276 731.077,94.233     730.362,94.202 729.647,94.183 728.932,94.177 525.649,94.177 524.934,94.183 524.219,94.202 523.504,94.233 522.79,94.276     522.077,94.331 521.365,94.399 520.654,94.479 519.945,94.571 519.237,94.676 518.531,94.793 517.828,94.922 517.127,95.063     516.428,95.216 515.732,95.381 515.039,95.558 514.349,95.747 513.663,95.948 512.98,96.161 512.301,96.386 511.626,96.622     510.955,96.87 510.288,97.129 509.626,97.4 508.969,97.682 508.317,97.976 507.669,98.281 507.028,98.597 506.392,98.924     505.761,99.261 505.137,99.61 504.518,99.969 503.906,100.34 503.3,100.72 502.701,101.111 502.109,101.512 501.524,101.924     500.946,102.345 500.376,102.776 499.812,103.218 499.257,103.668 498.71,104.129 498.17,104.598 497.639,105.077     497.116,105.565 496.602,106.062 496.096,106.568 495.599,107.082 495.111,107.605 494.632,108.137 494.162,108.676     493.702,109.224 493.251,109.779 492.81,110.342 492.379,110.913 491.957,111.491 491.546,112.076 491.145,112.668     490.754,113.267 490.373,113.872 490.003,114.485 489.644,115.103 489.295,115.728 488.957,116.358 488.63,116.994     488.314,117.636 488.009,118.283 487.716,118.935 487.434,119.593 487.163,120.255 486.903,120.921 486.655,121.592     486.419,122.267 486.195,122.946 485.982,123.629 485.781,124.316 485.592,125.006 485.415,125.699 485.249,126.394     485.096,127.093 484.955,127.794 484.826,128.498 484.71,129.204 484.605,129.911 484.513,130.621 484.433,131.331     484.365,132.043 484.309,132.757 484.266,133.47 484.235,134.185 484.217,134.9 484.211,135.615   "
           id="polyline32052"
           style="stroke:#80ffe6;stroke-opacity:1" />
      </g>
      <g
         id="POLYLINE_277_"
         style="stroke:#80ffe6;stroke-opacity:1">
        <polygon
           fill="none"
           stroke="#00b9d2"
           stroke-width="2.75"
           stroke-linecap="round"
           stroke-linejoin="round"
           stroke-miterlimit="10"
           points="750.063,704.065 750.675,703.695 751.281,703.315 751.88,702.924 752.472,702.522 753.057,702.111 753.635,701.69 754.205,701.258 754.768,700.817 755.324,700.366 755.871,699.906 756.411,699.436 756.942,698.957 757.465,698.469 757.979,697.972 758.485,697.467 758.982,696.952 759.47,696.429 759.949,695.898 760.419,695.359 760.879,694.811 761.33,694.256 761.771,693.693 762.202,693.122 762.624,692.544 763.035,691.959 763.436,691.367 763.827,690.768 764.208,690.162 764.578,689.55 764.937,688.932 765.286,688.307 765.624,687.677 765.951,687.04 766.267,686.399 766.571,685.752 766.865,685.099 767.147,684.442 767.418,683.78 767.678,683.114 767.925,682.443 768.162,681.767 768.386,681.088 768.599,680.405 768.8,679.719 768.989,679.029 769.166,678.336 769.331,677.64 769.485,676.942 769.626,676.24 769.755,675.537 769.871,674.831 769.976,674.123 770.068,673.414 770.148,672.703 770.216,671.991 770.272,671.278 770.315,670.564 770.346,669.85 770.364,669.135 770.37,668.419 770.37,129.464 770.364,128.748 770.346,128.033 770.315,127.319 770.272,126.605 770.216,125.892 770.148,125.18 770.068,124.469 769.976,123.76 769.871,123.052 769.755,122.346 769.626,121.643 769.485,120.942 769.331,120.243 769.166,119.547 768.989,118.854 768.8,118.164 768.599,117.478 768.386,116.795 768.162,116.116 767.925,115.44 767.678,114.769 767.418,114.103 767.147,113.441 766.865,112.784 766.571,112.131 766.267,111.484 765.951,110.843 765.624,110.206 765.286,109.576 764.937,108.951 764.578,108.333 764.208,107.721 763.827,107.115 763.436,106.516 763.035,105.924 762.624,105.339 762.202,104.761 761.771,104.19 761.33,103.627 760.879,103.072 760.419,102.524 759.949,101.985 759.47,101.454 758.982,100.931 758.485,100.416 757.979,99.911 757.465,99.414 756.942,98.926 756.411,98.447 755.871,97.977 755.324,97.517 754.768,97.066 754.205,96.625 753.635,96.193 753.057,95.772 752.472,95.361 751.88,94.959 751.281,94.568 750.675,94.188 750.063,93.818 749.444,93.458 748.82,93.11 748.189,92.772 747.553,92.445 746.911,92.129 746.264,91.824 745.612,91.531 744.955,91.248 744.293,90.978 743.626,90.718 742.955,90.47 742.28,90.234 741.601,90.01 740.918,89.797 740.232,89.596 739.542,89.407 738.849,89.229 738.153,89.064 737.454,88.911 736.753,88.77 736.049,88.641 735.344,88.524 734.636,88.42 733.927,88.327 733.216,88.247 732.504,88.18 731.791,88.124 731.077,88.081 730.362,88.05 729.647,88.032 728.932,88.025 525.649,88.025 524.934,88.032 524.219,88.05 523.504,88.081 522.79,88.124 522.077,88.18 521.365,88.247 520.654,88.327 519.945,88.42 519.237,88.524 518.531,88.641 517.828,88.77 517.127,88.911 516.428,89.064 515.732,89.229 515.039,89.407 514.349,89.596 513.663,89.797 512.98,90.01 512.301,90.234 511.626,90.47 510.955,90.718 510.288,90.978 509.626,91.248 508.969,91.531 508.317,91.824 507.669,92.129 507.028,92.445 506.392,92.772 505.761,93.11 505.137,93.458 504.518,93.818 503.906,94.188 503.3,94.568 502.701,94.959 502.109,95.361 501.524,95.772 500.946,96.193 500.376,96.625 499.812,97.066 499.257,97.517 498.71,97.977 498.17,98.447 497.639,98.926 497.116,99.414 496.602,99.911 496.096,100.416 495.599,100.931 495.111,101.454 494.632,101.985 494.162,102.524 493.702,103.072 493.251,103.627 492.81,104.19 492.379,104.761 491.957,105.339 491.546,105.924 491.145,106.516 490.754,107.115 490.373,107.721 490.003,108.333 489.644,108.951 489.295,109.576 488.957,110.206 488.63,110.843 488.314,111.484 488.009,112.131 487.716,112.784 487.434,113.441 487.163,114.103 486.903,114.769 486.655,115.44 486.419,116.116 486.195,116.795 485.982,117.478 485.781,118.164 485.592,118.854 485.415,119.547 485.249,120.243 485.096,120.942 484.955,121.643 484.826,122.346 484.71,123.052 484.605,123.76 484.513,124.469 484.433,125.18 484.365,125.892 484.309,126.605 484.266,127.319 484.235,128.033 484.217,128.748 484.211,129.464 484.211,668.419 484.217,669.135 484.235,669.85 484.266,670.564 484.309,671.278 484.365,671.991 484.433,672.703 484.513,673.414 484.605,674.123 484.71,674.831 484.826,675.537 484.955,676.24 485.096,676.942 485.249,677.64 485.415,678.336 485.592,679.029 485.781,679.719 485.982,680.405 486.195,681.088 486.419,681.767 486.655,682.443 486.903,683.114 487.163,683.78 487.434,684.442 487.716,685.099 488.009,685.752 488.314,686.399 488.63,687.04 488.957,687.677 489.295,688.307 489.644,688.932 490.003,689.55 490.373,690.162 490.754,690.768 491.145,691.367 491.546,691.959 491.957,692.544 492.379,693.122 492.81,693.693 493.251,694.256 493.702,694.811 494.162,695.359 494.632,695.898 495.111,696.429 495.599,696.952 496.096,697.467 496.602,697.972 497.116,698.469 497.639,698.957 498.17,699.436 498.71,699.906 499.257,700.366 499.812,700.817 500.376,701.258 500.946,701.69 501.524,702.111 502.109,702.522 502.701,702.924 503.3,703.315 503.906,703.695 504.518,704.065 505.137,704.425 505.761,704.773 506.392,705.111 507.028,705.438 507.669,705.754 508.317,706.059 508.969,706.352 509.626,706.635 510.288,706.905 510.955,707.165 511.626,707.413 512.301,707.649 512.98,707.874 513.663,708.086 514.349,708.287 515.039,708.476 515.732,708.654 516.428,708.819 517.127,708.972 517.828,709.113 518.531,709.242 519.237,709.359 519.945,709.463 520.654,709.556 521.365,709.636 522.077,709.703 522.79,709.759 523.504,709.802 524.219,709.833 524.934,709.852 525.649,709.858 728.932,709.858 729.647,709.852 730.362,709.833 731.077,709.802 731.791,709.759 732.504,709.703 733.216,709.636 733.927,709.556 734.636,709.463 735.344,709.359 736.049,709.242 736.753,709.113 737.454,708.972 738.153,708.819 738.849,708.654 739.542,708.476 740.232,708.287 740.918,708.086 741.601,707.874 742.28,707.649 742.955,707.413 743.626,707.165 744.293,706.905 744.955,706.635 745.612,706.352 746.264,706.059 746.911,705.754 747.553,705.438 748.189,705.111 748.82,704.773 749.444,704.425 "
           id="polygon32055"
           style="stroke:#80ffe6;stroke-opacity:1" />
      </g>
      <g
         id="POLYLINE_272_"
         style="stroke:#80ffe6;stroke-opacity:1">
        <rect
           x="481.28699"
           y="272.53299"
           fill="none"
           stroke="#00b9d2"
           stroke-width="2.75"
           stroke-linecap="round"
           stroke-linejoin="round"
           stroke-miterlimit="10"
           width="2.924"
           height="40.467999"
           id="rect32058"
           style="stroke:#80ffe6;stroke-opacity:1" />
      </g>
      <g
         id="POLYLINE_266_"
         style="stroke:#80ffe6;stroke-opacity:1">
        <rect
           x="770.37"
           y="189.50301"
           fill="none"
           stroke="#00b9d2"
           stroke-width="2.75"
           stroke-linecap="round"
           stroke-linejoin="round"
           stroke-miterlimit="10"
           width="2.924"
           height="83.318001"
           id="rect32070"
           style="stroke:#80ffe6;stroke-opacity:1" />
      </g>
      <g
         id="POLYLINE_263_"
         style="stroke:#80ffe6;stroke-opacity:1">
        <rect
           x="770.37"
           y="306.19199"
           fill="none"
           stroke="#00b9d2"
           stroke-width="2.75"
           stroke-linecap="round"
           stroke-linejoin="round"
           stroke-miterlimit="10"
           width="2.924"
           height="39.792"
           id="rect32073"
           style="stroke:#80ffe6;stroke-opacity:1" />
      </g>
    </g>
  </g>
</svg>
