<?xml version="1.0" encoding="UTF-8" standalone="no"?>
<svg
   xmlns:dc="http://purl.org/dc/elements/1.1/"
   xmlns:cc="http://creativecommons.org/ns#"
   xmlns:rdf="http://www.w3.org/1999/02/22-rdf-syntax-ns#"
   xmlns:svg="http://www.w3.org/2000/svg"
   xmlns="http://www.w3.org/2000/svg"
   xmlns:sodipodi="http://sodipodi.sourceforge.net/DTD/sodipodi-0.dtd"
   xmlns:inkscape="http://www.inkscape.org/namespaces/inkscape"
   width="15.000001mm"
   height="31.594751mm"
   viewBox="0 0 15.000002 31.594753"
   version="1.1"
   id="svg4830"
   inkscape:version="1.0.2 (e86c8708, 2021-01-15)"
   sodipodi:docname="s9.svg">
  <defs
     id="defs4824" />
  <sodipodi:namedview
     id="base"
     pagecolor="#ffffff"
     bordercolor="#666666"
     borderopacity="1.0"
     inkscape:pageopacity="0.0"
     inkscape:pageshadow="2"
     inkscape:zoom="3.8813991"
     inkscape:cx="29.986792"
     inkscape:cy="69.02354"
     inkscape:document-units="mm"
     inkscape:current-layer="layer1"
     inkscape:document-rotation="0"
     showgrid="false"
     inkscape:window-width="1440"
     inkscape:window-height="872"
     inkscape:window-x="0"
     inkscape:window-y="28"
     inkscape:window-maximized="0" />
  <metadata
     id="metadata4827">
    <rdf:RDF>
      <cc:Work
         rdf:about="">
        <dc:format>image/svg+xml</dc:format>
        <dc:type
           rdf:resource="http://purl.org/dc/dcmitype/StillImage" />
        <dc:title></dc:title>
      </cc:Work>
    </rdf:RDF>
  </metadata>
  <g
     inkscape:label="Layer 1"
     inkscape:groupmode="layer"
     id="layer1"
     transform="translate(-71.003206,-117.76549)">
    <g
       id="g31665"
       transform="matrix(0.05265634,0,0,0.05265634,45.771183,112.44715)"
       style="stroke:#80ffe6;stroke-opacity:1">
      <path
         fill="none"
         stroke="#00b9d2"
         stroke-width="2"
         stroke-linecap="round"
         stroke-linejoin="round"
         stroke-miterlimit="10"
         d="m 667.459,208.192 c 0,0.054 0.001,0.108 0.001,0.108 0.002,0.054 0.004,0.109 0.004,0.109 0.003,0.055 0.006,0.11 0.006,0.11 0.004,0.055 0.009,0.111 0.009,0.111 0.005,0.056 0.011,0.111 0.011,0.111 0.007,0.056 0.014,0.112 0.014,0.112 0.008,0.056 0.017,0.113 0.017,0.113 0.009,0.056 0.02,0.113 0.02,0.113 0.011,0.057 0.022,0.113 0.022,0.113 0.012,0.057 0.025,0.114 0.025,0.114 0.014,0.057 0.028,0.114 0.028,0.114 0.015,0.057 0.031,0.114 0.031,0.114 0.017,0.057 0.034,0.114 0.034,0.114 0.018,0.057 0.037,0.113 0.037,0.113 0.02,0.057 0.04,0.113 0.04,0.113 0.021,0.056 0.043,0.113 0.043,0.113 0.023,0.056 0.046,0.112 0.046,0.112 0.024,0.056 0.049,0.112 0.049,0.112 0.026,0.056 0.052,0.111 0.052,0.111 0.027,0.055 0.055,0.11 0.055,0.11 0.029,0.055 0.058,0.109 0.058,0.109 0.03,0.054 0.061,0.108 0.061,0.108 0.032,0.053 0.064,0.107 0.064,0.107 0.033,0.053 0.067,0.105 0.067,0.105 0.034,0.052 0.07,0.104 0.07,0.104 0.036,0.051 0.073,0.102 0.073,0.102 0.037,0.05 0.075,0.1 0.075,0.1 0.039,0.05 0.078,0.099 0.078,0.099 0.04,0.049 0.081,0.097 0.081,0.097 0.041,0.048 0.083,0.095 0.083,0.095 0.043,0.047 0.086,0.093 0.086,0.093 0.044,0.045 0.088,0.09 0.088,0.09 0.045,0.044 0.09,0.088 0.09,0.088 0.046,0.043 0.093,0.086 0.093,0.086 0.047,0.042 0.095,0.083 0.095,0.083 0.048,0.041 0.097,0.081 0.097,0.081 0.049,0.039 0.099,0.078 0.099,0.078 0.05,0.038 0.1,0.075 0.1,0.075 0.051,0.037 0.102,0.073 0.102,0.073 0.052,0.035 0.104,0.07 0.104,0.07 0.052,0.034 0.105,0.067 0.105,0.067 0.053,0.032 0.107,0.064 0.107,0.064 0.054,0.031 0.108,0.061 0.108,0.061 0.054,0.029 0.109,0.058 0.109,0.058 0.055,0.028 0.11,0.055 0.11,0.055 0.055,0.026 0.111,0.052 0.111,0.052 0.056,0.025 0.112,0.049 0.112,0.049 0.056,0.023 0.112,0.046 0.112,0.046 0.056,0.022 0.113,0.043 0.113,0.043 0.057,0.02 0.113,0.04 0.113,0.04 0.057,0.019 0.113,0.037 0.113,0.037 0.057,0.017 0.114,0.034 0.114,0.034 0.057,0.016 0.114,0.031 0.114,0.031 0.057,0.014 0.114,0.028 0.114,0.028 0.057,0.013 0.114,0.025 0.114,0.025 0.057,0.012 0.113,0.022 0.113,0.022 0.057,0.01 0.113,0.02 0.113,0.02 0.056,0.009 0.113,0.017 0.113,0.017 0.056,0.007 0.112,0.014 0.112,0.014 0.056,0.006 0.111,0.011 0.111,0.011 0.055,0.005 0.111,0.009 0.111,0.009 0.055,0.003 0.11,0.006 0.11,0.006 0.055,0.002 0.109,0.004 0.109,0.004 0.054,10e-4 0.108,10e-4 0.108,10e-4 h 5.157 c 0.054,0 0.108,-10e-4 0.108,-10e-4 0.054,-0.002 0.109,-0.004 0.109,-0.004 0.055,-0.003 0.11,-0.006 0.11,-0.006 0.055,-0.004 0.111,-0.009 0.111,-0.009 0.056,-0.005 0.111,-0.011 0.111,-0.011 0.056,-0.007 0.112,-0.014 0.112,-0.014 0.056,-0.008 0.113,-0.017 0.113,-0.017 0.056,-0.009 0.113,-0.02 0.113,-0.02 0.057,-0.011 0.113,-0.022 0.113,-0.022 0.057,-0.012 0.114,-0.025 0.114,-0.025 0.057,-0.014 0.114,-0.028 0.114,-0.028 0.057,-0.015 0.114,-0.031 0.114,-0.031 0.057,-0.017 0.114,-0.034 0.114,-0.034 0.057,-0.018 0.113,-0.037 0.113,-0.037 0.057,-0.02 0.113,-0.04 0.113,-0.04 0.056,-0.021 0.113,-0.043 0.113,-0.043 0.056,-0.023 0.112,-0.046 0.112,-0.046 0.056,-0.024 0.112,-0.049 0.112,-0.049 0.055,-0.026 0.111,-0.052 0.111,-0.052 0.055,-0.027 0.11,-0.055 0.11,-0.055 0.055,-0.029 0.109,-0.058 0.109,-0.058 0.054,-0.03 0.108,-0.061 0.108,-0.061 0.053,-0.032 0.107,-0.064 0.107,-0.064 0.053,-0.033 0.105,-0.067 0.105,-0.067 0.052,-0.035 0.104,-0.07 0.104,-0.07 0.051,-0.036 0.102,-0.073 0.102,-0.073 0.05,-0.037 0.1,-0.075 0.1,-0.075 0.05,-0.039 0.099,-0.078 0.099,-0.078 0.049,-0.04 0.097,-0.081 0.097,-0.081 0.048,-0.041 0.095,-0.083 0.095,-0.083 0.047,-0.043 0.093,-0.086 0.093,-0.086 0.045,-0.044 0.09,-0.088 0.09,-0.088 0.044,-0.045 0.088,-0.09 0.088,-0.09 0.043,-0.046 0.086,-0.093 0.086,-0.093 0.042,-0.047 0.083,-0.095 0.083,-0.095 0.041,-0.048 0.081,-0.097 0.081,-0.097 0.039,-0.049 0.078,-0.099 0.078,-0.099 0.038,-0.05 0.075,-0.1 0.075,-0.1 0.037,-0.051 0.073,-0.102 0.073,-0.102 0.035,-0.052 0.07,-0.104 0.07,-0.104 0.034,-0.052 0.067,-0.105 0.067,-0.105 0.032,-0.053 0.064,-0.107 0.064,-0.107 0.031,-0.054 0.061,-0.108 0.061,-0.108 0.029,-0.054 0.058,-0.109 0.058,-0.109 0.028,-0.055 0.055,-0.11 0.055,-0.11 0.026,-0.055 0.052,-0.111 0.052,-0.111 0.025,-0.056 0.049,-0.112 0.049,-0.112 0.023,-0.056 0.046,-0.112 0.046,-0.112 0.022,-0.056 0.043,-0.113 0.043,-0.113 0.02,-0.057 0.04,-0.113 0.04,-0.113 0.019,-0.057 0.037,-0.113 0.037,-0.113 0.017,-0.057 0.034,-0.114 0.034,-0.114 0.016,-0.057 0.031,-0.114 0.031,-0.114 0.014,-0.057 0.028,-0.114 0.028,-0.114 0.013,-0.057 0.025,-0.114 0.025,-0.114 0.012,-0.057 0.022,-0.113 0.022,-0.113 0.01,-0.057 0.02,-0.113 0.02,-0.113 0.009,-0.056 0.017,-0.113 0.017,-0.113 0.007,-0.056 0.014,-0.112 0.014,-0.112 0.006,-0.056 0.011,-0.111 0.011,-0.111 0.005,-0.055 0.009,-0.111 0.009,-0.111 0.003,-0.055 0.006,-0.11 0.006,-0.11 0.002,-0.055 0.004,-0.109 0.004,-0.109 10e-4,-0.054 10e-4,-0.108 10e-4,-0.108 v -5.323 c 0,-0.054 -10e-4,-0.108 -10e-4,-0.108 -0.002,-0.054 -0.004,-0.109 -0.004,-0.109 -0.003,-0.055 -0.006,-0.11 -0.006,-0.11 -0.004,-0.055 -0.009,-0.111 -0.009,-0.111 -0.005,-0.056 -0.011,-0.111 -0.011,-0.111 -0.007,-0.056 -0.014,-0.112 -0.014,-0.112 -0.008,-0.056 -0.017,-0.113 -0.017,-0.113 -0.009,-0.056 -0.02,-0.113 -0.02,-0.113 -0.011,-0.057 -0.022,-0.113 -0.022,-0.113 -0.012,-0.057 -0.025,-0.114 -0.025,-0.114 -0.014,-0.057 -0.028,-0.114 -0.028,-0.114 -0.015,-0.057 -0.031,-0.114 -0.031,-0.114 -0.017,-0.057 -0.034,-0.114 -0.034,-0.114 -0.018,-0.057 -0.037,-0.113 -0.037,-0.113 -0.02,-0.057 -0.04,-0.113 -0.04,-0.113 -0.021,-0.056 -0.043,-0.113 -0.043,-0.113 -0.023,-0.056 -0.046,-0.112 -0.046,-0.112 -0.024,-0.056 -0.049,-0.112 -0.049,-0.112 -0.026,-0.056 -0.052,-0.111 -0.052,-0.111 -0.027,-0.055 -0.055,-0.11 -0.055,-0.11 -0.029,-0.055 -0.058,-0.109 -0.058,-0.109 -0.03,-0.054 -0.061,-0.108 -0.061,-0.108 -0.032,-0.053 -0.064,-0.107 -0.064,-0.107 -0.033,-0.053 -0.067,-0.105 -0.067,-0.105 -0.034,-0.052 -0.07,-0.104 -0.07,-0.104 -0.036,-0.051 -0.073,-0.102 -0.073,-0.102 -0.037,-0.05 -0.075,-0.1 -0.075,-0.1 -0.039,-0.05 -0.078,-0.099 -0.078,-0.099 -0.04,-0.049 -0.081,-0.097 -0.081,-0.097 -0.041,-0.048 -0.083,-0.095 -0.083,-0.095 -0.043,-0.047 -0.086,-0.093 -0.086,-0.093 -0.044,-0.045 -0.088,-0.09 -0.088,-0.09 -0.045,-0.044 -0.09,-0.088 -0.09,-0.088 -0.046,-0.043 -0.093,-0.086 -0.093,-0.086 -0.047,-0.042 -0.095,-0.083 -0.095,-0.083 -0.048,-0.041 -0.097,-0.081 -0.097,-0.081 -0.049,-0.039 -0.099,-0.078 -0.099,-0.078 -0.05,-0.038 -0.1,-0.075 -0.1,-0.075 -0.051,-0.037 -0.102,-0.073 -0.102,-0.073 -0.052,-0.035 -0.104,-0.07 -0.104,-0.07 -0.052,-0.034 -0.105,-0.067 -0.105,-0.067 -0.053,-0.032 -0.107,-0.064 -0.107,-0.064 -0.054,-0.031 -0.108,-0.061 -0.108,-0.061 -0.054,-0.029 -0.109,-0.058 -0.109,-0.058 -0.055,-0.028 -0.11,-0.055 -0.11,-0.055 -0.055,-0.026 -0.111,-0.052 -0.111,-0.052 -0.056,-0.025 -0.112,-0.049 -0.112,-0.049 -0.056,-0.023 -0.112,-0.046 -0.112,-0.046 -0.056,-0.022 -0.113,-0.043 -0.113,-0.043 -0.057,-0.02 -0.113,-0.04 -0.113,-0.04 -0.057,-0.019 -0.113,-0.037 -0.113,-0.037 -0.057,-0.017 -0.114,-0.034 -0.114,-0.034 -0.057,-0.016 -0.114,-0.031 -0.114,-0.031 -0.057,-0.014 -0.114,-0.028 -0.114,-0.028 -0.057,-0.013 -0.114,-0.025 -0.114,-0.025 -0.057,-0.012 -0.113,-0.022 -0.113,-0.022 -0.057,-0.01 -0.113,-0.02 -0.113,-0.02 -0.056,-0.009 -0.113,-0.017 -0.113,-0.017 -0.056,-0.007 -0.112,-0.014 -0.112,-0.014 -0.056,-0.006 -0.111,-0.011 -0.111,-0.011 -0.055,-0.005 -0.111,-0.009 -0.111,-0.009 -0.055,-0.003 -0.11,-0.006 -0.11,-0.006 -0.055,-0.002 -0.109,-0.004 -0.109,-0.004 -0.054,-0.001 -0.108,-0.001 -0.108,-0.001 h -5.157 c -0.054,0 -0.108,0.001 -0.108,0.001 -0.054,0.002 -0.109,0.004 -0.109,0.004 -0.055,0.003 -0.11,0.006 -0.11,0.006 -0.055,0.004 -0.111,0.009 -0.111,0.009 -0.056,0.005 -0.111,0.011 -0.111,0.011 -0.056,0.007 -0.112,0.014 -0.112,0.014 -0.056,0.008 -0.113,0.017 -0.113,0.017 -0.056,0.009 -0.113,0.02 -0.113,0.02 -0.057,0.011 -0.113,0.022 -0.113,0.022 -0.057,0.012 -0.114,0.025 -0.114,0.025 -0.057,0.014 -0.114,0.028 -0.114,0.028 -0.057,0.015 -0.114,0.031 -0.114,0.031 -0.057,0.017 -0.114,0.034 -0.114,0.034 -0.057,0.018 -0.113,0.037 -0.113,0.037 -0.057,0.02 -0.113,0.04 -0.113,0.04 -0.056,0.021 -0.113,0.043 -0.113,0.043 -0.056,0.023 -0.112,0.046 -0.112,0.046 -0.056,0.024 -0.112,0.049 -0.112,0.049 -0.055,0.026 -0.111,0.052 -0.111,0.052 -0.055,0.027 -0.11,0.055 -0.11,0.055 -0.055,0.029 -0.109,0.058 -0.109,0.058 -0.054,0.03 -0.108,0.061 -0.108,0.061 -0.053,0.032 -0.107,0.064 -0.107,0.064 -0.053,0.033 -0.105,0.067 -0.105,0.067 -0.052,0.035 -0.104,0.07 -0.104,0.07 -0.051,0.036 -0.102,0.073 -0.102,0.073 -0.05,0.037 -0.1,0.075 -0.1,0.075 -0.05,0.039 -0.099,0.078 -0.099,0.078 -0.049,0.04 -0.097,0.081 -0.097,0.081 -0.048,0.041 -0.095,0.083 -0.095,0.083 -0.047,0.043 -0.093,0.086 -0.093,0.086 -0.045,0.044 -0.09,0.088 -0.09,0.088 -0.044,0.045 -0.088,0.09 -0.088,0.09 -0.043,0.046 -0.086,0.093 -0.086,0.093 -0.042,0.047 -0.083,0.095 -0.083,0.095 -0.041,0.048 -0.081,0.097 -0.081,0.097 -0.039,0.049 -0.078,0.099 -0.078,0.099 -0.038,0.05 -0.075,0.1 -0.075,0.1 -0.037,0.051 -0.073,0.102 -0.073,0.102 -0.035,0.052 -0.07,0.104 -0.07,0.104 -0.034,0.052 -0.067,0.105 -0.067,0.105 -0.032,0.053 -0.064,0.107 -0.064,0.107 -0.031,0.054 -0.061,0.108 -0.061,0.108 -0.029,0.054 -0.058,0.109 -0.058,0.109 -0.028,0.055 -0.055,0.11 -0.055,0.11 -0.026,0.055 -0.052,0.111 -0.052,0.111 -0.025,0.056 -0.049,0.112 -0.049,0.112 -0.023,0.056 -0.046,0.112 -0.046,0.112 -0.022,0.056 -0.043,0.113 -0.043,0.113 -0.02,0.057 -0.04,0.113 -0.04,0.113 -0.019,0.057 -0.037,0.113 -0.037,0.113 -0.017,0.057 -0.034,0.114 -0.034,0.114 -0.016,0.057 -0.031,0.114 -0.031,0.114 -0.014,0.057 -0.028,0.114 -0.028,0.114 -0.013,0.057 -0.025,0.114 -0.025,0.114 -0.012,0.057 -0.022,0.113 -0.022,0.113 -0.01,0.057 -0.02,0.113 -0.02,0.113 -0.009,0.056 -0.017,0.113 -0.017,0.113 -0.007,0.056 -0.014,0.112 -0.014,0.112 -0.006,0.056 -0.011,0.111 -0.011,0.111 -0.005,0.055 -0.009,0.111 -0.009,0.111 -0.003,0.055 -0.006,0.11 -0.006,0.11 -0.002,0.055 -0.004,0.109 -0.004,0.109 -0.001,0.054 -0.001,0.108 -0.001,0.108 0,0 0,5.323 0,5.323 z"
         id="path29984"
         style="stroke:#80ffe6;stroke-opacity:1" />
      <path
         fill="none"
         stroke="#00b9d2"
         stroke-width="2"
         stroke-linecap="round"
         stroke-linejoin="round"
         stroke-miterlimit="10"
         d="m 668.305,221.947 c 0,-0.048 0.001,-0.096 0.001,-0.096 10e-4,-0.048 0.003,-0.097 0.003,-0.097 0.002,-0.049 0.005,-0.097 0.005,-0.097 0.004,-0.049 0.008,-0.098 0.008,-0.098 0.005,-0.049 0.01,-0.099 0.01,-0.099 0.006,-0.05 0.012,-0.099 0.012,-0.099 0.007,-0.05 0.015,-0.1 0.015,-0.1 0.008,-0.05 0.017,-0.1 0.017,-0.1 0.01,-0.05 0.02,-0.1 0.02,-0.1 0.011,-0.05 0.022,-0.101 0.022,-0.101 0.012,-0.05 0.025,-0.101 0.025,-0.101 0.013,-0.05 0.028,-0.101 0.028,-0.101 0.015,-0.05 0.03,-0.101 0.03,-0.101 0.016,-0.05 0.033,-0.101 0.033,-0.101 0.017,-0.05 0.035,-0.1 0.035,-0.1 0.019,-0.05 0.038,-0.1 0.038,-0.1 0.02,-0.05 0.041,-0.1 0.041,-0.1 0.021,-0.05 0.044,-0.099 0.044,-0.099 0.023,-0.049 0.046,-0.098 0.046,-0.098 0.024,-0.049 0.049,-0.097 0.049,-0.097 0.025,-0.048 0.052,-0.097 0.052,-0.097 0.027,-0.048 0.054,-0.096 0.054,-0.096 0.028,-0.047 0.057,-0.094 0.057,-0.094 0.029,-0.047 0.059,-0.093 0.059,-0.093 0.031,-0.046 0.062,-0.092 0.062,-0.092 0.032,-0.045 0.064,-0.091 0.064,-0.091 0.033,-0.045 0.067,-0.089 0.067,-0.089 0.034,-0.044 0.069,-0.087 0.069,-0.087 0.035,-0.043 0.071,-0.086 0.071,-0.086 0.037,-0.042 0.074,-0.084 0.074,-0.084 0.038,-0.041 0.076,-0.082 0.076,-0.082 0.039,-0.04 0.078,-0.08 0.078,-0.08 0.04,-0.039 0.08,-0.078 0.08,-0.078 0.041,-0.038 0.082,-0.076 0.082,-0.076 0.042,-0.037 0.084,-0.074 0.084,-0.074 0.043,-0.036 0.086,-0.071 0.086,-0.071 0.044,-0.035 0.087,-0.069 0.087,-0.069 0.044,-0.034 0.089,-0.067 0.089,-0.067 0.045,-0.032 0.091,-0.064 0.091,-0.064 0.046,-0.031 0.092,-0.062 0.092,-0.062 0.047,-0.03 0.093,-0.059 0.093,-0.059 0.047,-0.029 0.094,-0.057 0.094,-0.057 0.048,-0.027 0.096,-0.054 0.096,-0.054 0.048,-0.026 0.097,-0.051 0.097,-0.051 0.049,-0.025 0.097,-0.049 0.097,-0.049 0.049,-0.023 0.098,-0.046 0.098,-0.046 0.049,-0.022 0.099,-0.044 0.099,-0.044 0.05,-0.021 0.099,-0.041 0.099,-0.041 0.05,-0.019 0.1,-0.038 0.1,-0.038 0.05,-0.018 0.1,-0.035 0.1,-0.035 0.05,-0.017 0.101,-0.033 0.101,-0.033 0.05,-0.015 0.101,-0.03 0.101,-0.03 0.05,-0.014 0.101,-0.028 0.101,-0.028 0.05,-0.013 0.101,-0.025 0.101,-0.025 0.05,-0.012 0.101,-0.022 0.101,-0.022 0.05,-0.01 0.1,-0.02 0.1,-0.02 0.05,-0.009 0.1,-0.017 0.1,-0.017 0.05,-0.008 0.1,-0.015 0.1,-0.015 0.05,-0.007 0.099,-0.012 0.099,-0.012 0.049,-0.005 0.099,-0.01 0.099,-0.01 0.049,-0.004 0.098,-0.008 0.098,-0.008 0.049,-0.003 0.098,-0.005 0.098,-0.005 0.048,-0.002 0.097,-0.003 0.097,-0.003 0.048,-10e-4 0.096,-10e-4 0.096,-10e-4 h 4.572 c 0.048,0 0.096,10e-4 0.096,10e-4 0.048,0.001 0.097,0.003 0.097,0.003 0.049,0.002 0.098,0.005 0.098,0.005 0.049,0.004 0.098,0.008 0.098,0.008 0.049,0.005 0.099,0.01 0.099,0.01 0.05,0.006 0.099,0.012 0.099,0.012 0.05,0.007 0.1,0.015 0.1,0.015 0.05,0.008 0.1,0.017 0.1,0.017 0.05,0.01 0.1,0.02 0.1,0.02 0.05,0.011 0.101,0.022 0.101,0.022 0.05,0.012 0.101,0.025 0.101,0.025 0.05,0.013 0.101,0.028 0.101,0.028 0.05,0.015 0.101,0.03 0.101,0.03 0.05,0.016 0.101,0.033 0.101,0.033 0.05,0.017 0.1,0.035 0.1,0.035 0.05,0.019 0.1,0.038 0.1,0.038 0.05,0.02 0.099,0.041 0.099,0.041 0.05,0.021 0.099,0.044 0.099,0.044 0.049,0.023 0.098,0.046 0.098,0.046 0.049,0.024 0.097,0.049 0.097,0.049 0.048,0.025 0.097,0.051 0.097,0.051 0.048,0.027 0.096,0.054 0.096,0.054 0.047,0.028 0.094,0.057 0.094,0.057 0.047,0.029 0.093,0.059 0.093,0.059 0.046,0.031 0.092,0.062 0.092,0.062 0.045,0.032 0.091,0.064 0.091,0.064 0.045,0.033 0.089,0.067 0.089,0.067 0.044,0.034 0.087,0.069 0.087,0.069 0.043,0.035 0.086,0.071 0.086,0.071 0.042,0.037 0.084,0.074 0.084,0.074 0.041,0.038 0.082,0.076 0.082,0.076 0.04,0.039 0.08,0.078 0.08,0.078 0.039,0.04 0.078,0.08 0.078,0.08 0.038,0.041 0.076,0.082 0.076,0.082 0.037,0.042 0.074,0.084 0.074,0.084 0.036,0.043 0.071,0.086 0.071,0.086 0.035,0.044 0.069,0.087 0.069,0.087 0.034,0.044 0.067,0.089 0.067,0.089 0.032,0.045 0.064,0.091 0.064,0.091 0.031,0.046 0.062,0.092 0.062,0.092 0.03,0.046 0.059,0.093 0.059,0.093 0.029,0.047 0.057,0.094 0.057,0.094 0.027,0.048 0.054,0.096 0.054,0.096 0.026,0.048 0.052,0.097 0.052,0.097 0.025,0.049 0.049,0.097 0.049,0.097 0.023,0.049 0.046,0.098 0.046,0.098 0.022,0.049 0.044,0.099 0.044,0.099 0.021,0.05 0.041,0.1 0.041,0.1 0.019,0.05 0.038,0.1 0.038,0.1 0.018,0.05 0.035,0.1 0.035,0.1 0.017,0.05 0.033,0.101 0.033,0.101 0.015,0.05 0.03,0.101 0.03,0.101 0.014,0.05 0.028,0.101 0.028,0.101 0.013,0.05 0.025,0.101 0.025,0.101 0.011,0.05 0.022,0.101 0.022,0.101 0.01,0.05 0.02,0.1 0.02,0.1 0.009,0.05 0.017,0.1 0.017,0.1 0.008,0.05 0.015,0.1 0.015,0.1 0.007,0.05 0.012,0.099 0.012,0.099 0.005,0.049 0.01,0.099 0.01,0.099 0.004,0.049 0.008,0.098 0.008,0.098 0.003,0.049 0.005,0.097 0.005,0.097 0.002,0.048 0.003,0.097 0.003,0.097 10e-4,0.048 10e-4,0.096 10e-4,0.096 v 18.128 c 0,0.048 -10e-4,0.096 -10e-4,0.096 -10e-4,0.048 -0.003,0.097 -0.003,0.097 -0.002,0.049 -0.005,0.097 -0.005,0.097 -0.004,0.049 -0.008,0.098 -0.008,0.098 -0.005,0.049 -0.01,0.099 -0.01,0.099 -0.006,0.05 -0.012,0.099 -0.012,0.099 -0.007,0.05 -0.015,0.1 -0.015,0.1 -0.008,0.05 -0.017,0.1 -0.017,0.1 -0.01,0.05 -0.02,0.1 -0.02,0.1 -0.011,0.05 -0.022,0.101 -0.022,0.101 -0.012,0.05 -0.025,0.101 -0.025,0.101 -0.013,0.05 -0.028,0.101 -0.028,0.101 -0.015,0.05 -0.03,0.101 -0.03,0.101 -0.016,0.05 -0.033,0.101 -0.033,0.101 -0.017,0.05 -0.035,0.1 -0.035,0.1 -0.019,0.05 -0.038,0.1 -0.038,0.1 -0.02,0.05 -0.041,0.1 -0.041,0.1 -0.021,0.05 -0.044,0.099 -0.044,0.099 -0.023,0.049 -0.046,0.098 -0.046,0.098 -0.024,0.049 -0.049,0.097 -0.049,0.097 -0.025,0.048 -0.052,0.097 -0.052,0.097 -0.027,0.048 -0.054,0.096 -0.054,0.096 -0.028,0.047 -0.057,0.094 -0.057,0.094 -0.029,0.047 -0.059,0.093 -0.059,0.093 -0.031,0.046 -0.062,0.092 -0.062,0.092 -0.032,0.045 -0.064,0.091 -0.064,0.091 -0.033,0.045 -0.067,0.089 -0.067,0.089 -0.034,0.044 -0.069,0.087 -0.069,0.087 -0.035,0.043 -0.071,0.086 -0.071,0.086 -0.037,0.042 -0.074,0.084 -0.074,0.084 -0.038,0.041 -0.076,0.082 -0.076,0.082 -0.039,0.04 -0.078,0.08 -0.078,0.08 -0.04,0.039 -0.08,0.078 -0.08,0.078 -0.041,0.038 -0.082,0.076 -0.082,0.076 -0.042,0.037 -0.084,0.074 -0.084,0.074 -0.043,0.036 -0.086,0.071 -0.086,0.071 -0.044,0.035 -0.087,0.069 -0.087,0.069 -0.044,0.034 -0.089,0.067 -0.089,0.067 -0.045,0.032 -0.091,0.064 -0.091,0.064 -0.046,0.031 -0.092,0.062 -0.092,0.062 -0.047,0.03 -0.093,0.059 -0.093,0.059 -0.047,0.029 -0.094,0.057 -0.094,0.057 -0.048,0.027 -0.096,0.054 -0.096,0.054 -0.048,0.026 -0.097,0.051 -0.097,0.051 -0.049,0.025 -0.097,0.049 -0.097,0.049 -0.049,0.023 -0.098,0.046 -0.098,0.046 -0.049,0.022 -0.099,0.044 -0.099,0.044 -0.05,0.021 -0.099,0.041 -0.099,0.041 -0.05,0.019 -0.1,0.038 -0.1,0.038 -0.05,0.018 -0.1,0.035 -0.1,0.035 -0.05,0.017 -0.101,0.033 -0.101,0.033 -0.05,0.015 -0.101,0.03 -0.101,0.03 -0.05,0.014 -0.101,0.028 -0.101,0.028 -0.05,0.013 -0.101,0.025 -0.101,0.025 -0.05,0.011 -0.101,0.022 -0.101,0.022 -0.05,0.01 -0.1,0.02 -0.1,0.02 -0.05,0.009 -0.1,0.017 -0.1,0.017 -0.05,0.008 -0.1,0.015 -0.1,0.015 -0.05,0.007 -0.099,0.012 -0.099,0.012 -0.049,0.005 -0.099,0.01 -0.099,0.01 -0.049,0.004 -0.098,0.008 -0.098,0.008 -0.049,0.003 -0.098,0.005 -0.098,0.005 -0.048,0.002 -0.097,0.003 -0.097,0.003 -0.048,0.001 -0.096,0.001 -0.096,0.001 h -4.572 c -0.048,0 -0.096,-0.001 -0.096,-0.001 -0.048,-0.001 -0.097,-0.003 -0.097,-0.003 -0.049,-0.002 -0.098,-0.005 -0.098,-0.005 -0.049,-0.004 -0.098,-0.008 -0.098,-0.008 -0.049,-0.005 -0.099,-0.01 -0.099,-0.01 -0.05,-0.006 -0.099,-0.012 -0.099,-0.012 -0.05,-0.007 -0.1,-0.015 -0.1,-0.015 -0.05,-0.008 -0.1,-0.017 -0.1,-0.017 -0.05,-0.01 -0.1,-0.02 -0.1,-0.02 -0.05,-0.011 -0.101,-0.022 -0.101,-0.022 -0.05,-0.012 -0.101,-0.025 -0.101,-0.025 -0.05,-0.013 -0.101,-0.028 -0.101,-0.028 -0.05,-0.015 -0.101,-0.03 -0.101,-0.03 -0.05,-0.016 -0.101,-0.033 -0.101,-0.033 -0.05,-0.017 -0.1,-0.035 -0.1,-0.035 -0.05,-0.019 -0.1,-0.038 -0.1,-0.038 -0.05,-0.02 -0.099,-0.041 -0.099,-0.041 -0.05,-0.021 -0.099,-0.044 -0.099,-0.044 -0.049,-0.023 -0.098,-0.046 -0.098,-0.046 -0.049,-0.024 -0.097,-0.049 -0.097,-0.049 -0.048,-0.025 -0.097,-0.051 -0.097,-0.051 -0.048,-0.027 -0.096,-0.054 -0.096,-0.054 -0.047,-0.028 -0.094,-0.057 -0.094,-0.057 -0.047,-0.029 -0.093,-0.059 -0.093,-0.059 -0.046,-0.031 -0.092,-0.062 -0.092,-0.062 -0.045,-0.032 -0.091,-0.064 -0.091,-0.064 -0.045,-0.033 -0.089,-0.067 -0.089,-0.067 -0.044,-0.034 -0.087,-0.069 -0.087,-0.069 -0.043,-0.035 -0.086,-0.071 -0.086,-0.071 -0.042,-0.037 -0.084,-0.074 -0.084,-0.074 -0.041,-0.038 -0.082,-0.076 -0.082,-0.076 -0.04,-0.039 -0.08,-0.078 -0.08,-0.078 -0.039,-0.04 -0.078,-0.08 -0.078,-0.08 -0.038,-0.041 -0.076,-0.082 -0.076,-0.082 -0.037,-0.042 -0.074,-0.084 -0.074,-0.084 -0.036,-0.043 -0.071,-0.086 -0.071,-0.086 -0.035,-0.044 -0.069,-0.087 -0.069,-0.087 -0.034,-0.044 -0.067,-0.089 -0.067,-0.089 -0.032,-0.045 -0.064,-0.091 -0.064,-0.091 -0.031,-0.046 -0.062,-0.092 -0.062,-0.092 -0.03,-0.046 -0.059,-0.093 -0.059,-0.093 -0.029,-0.047 -0.057,-0.094 -0.057,-0.094 -0.027,-0.048 -0.054,-0.096 -0.054,-0.096 -0.026,-0.048 -0.052,-0.097 -0.052,-0.097 -0.025,-0.049 -0.049,-0.097 -0.049,-0.097 -0.023,-0.049 -0.046,-0.098 -0.046,-0.098 -0.022,-0.049 -0.044,-0.099 -0.044,-0.099 -0.021,-0.05 -0.041,-0.1 -0.041,-0.1 -0.019,-0.05 -0.038,-0.1 -0.038,-0.1 -0.018,-0.05 -0.035,-0.1 -0.035,-0.1 -0.017,-0.05 -0.033,-0.101 -0.033,-0.101 -0.015,-0.05 -0.03,-0.101 -0.03,-0.101 -0.014,-0.05 -0.028,-0.101 -0.028,-0.101 -0.013,-0.05 -0.025,-0.101 -0.025,-0.101 -0.011,-0.05 -0.022,-0.101 -0.022,-0.101 -0.01,-0.05 -0.02,-0.1 -0.02,-0.1 -0.009,-0.05 -0.017,-0.1 -0.017,-0.1 -0.008,-0.05 -0.015,-0.1 -0.015,-0.1 -0.007,-0.05 -0.012,-0.099 -0.012,-0.099 -0.005,-0.049 -0.01,-0.099 -0.01,-0.099 -0.004,-0.049 -0.008,-0.098 -0.008,-0.098 -0.003,-0.049 -0.005,-0.097 -0.005,-0.097 -0.002,-0.048 -0.003,-0.097 -0.003,-0.097 -0.001,-0.048 -0.001,-0.096 -0.001,-0.096 z"
         id="path29987"
         style="stroke:#80ffe6;stroke-opacity:1" />
      <polygon
         fill="none"
         stroke="#00b9d2"
         stroke-width="2"
         stroke-linecap="round"
         stroke-linejoin="round"
         stroke-miterlimit="10"
         points="608.471,219.55 608.566,219.701 608.664,219.85 608.763,219.998 608.866,220.143 608.971,220.287 609.078,220.429 609.188,220.569 609.3,220.708 609.415,220.844 609.531,220.978 609.651,221.11 609.772,221.241 609.896,221.369 610.022,221.494 610.15,221.618 610.28,221.74 610.412,221.859 610.547,221.976 610.683,222.09 610.821,222.203 610.961,222.312 611.103,222.42 611.247,222.525 611.393,222.627 611.54,222.727 611.689,222.824 611.84,222.919 611.992,223.011 612.146,223.1 612.302,223.187 612.459,223.271 612.617,223.353 612.777,223.431 612.938,223.507 613.1,223.58 613.264,223.651 613.428,223.718 613.594,223.783 613.761,223.844 613.929,223.903 614.098,223.959 614.268,224.012 614.439,224.062 614.611,224.109 614.784,224.153 614.957,224.194 615.131,224.232 615.305,224.267 615.48,224.299 615.656,224.329 615.832,224.355 616.009,224.378 616.186,224.398 616.363,224.414 616.54,224.428 616.718,224.439 616.896,224.447 617.074,224.451 617.252,224.453 625.98,224.453 626.159,224.451 626.336,224.447 626.514,224.439 626.692,224.428 626.87,224.414 627.047,224.398 627.224,224.378 627.4,224.355 627.576,224.329 627.752,224.299 627.927,224.267 628.102,224.232 628.276,224.194 628.449,224.153 628.621,224.109 628.793,224.062 628.964,224.012 629.134,223.959 629.303,223.903 629.471,223.844 629.638,223.783 629.804,223.718 629.969,223.651 630.132,223.58 630.295,223.507 630.456,223.431 630.615,223.353 630.774,223.271 630.931,223.187 631.086,223.1 631.24,223.011 631.392,222.919 631.543,222.824 631.692,222.727 631.84,222.627 631.985,222.525 632.129,222.42 632.271,222.312 632.411,222.203 632.55,222.09 632.686,221.976 632.82,221.859 632.952,221.74 633.082,221.618 633.211,221.494 633.336,221.369 633.46,221.241 633.582,221.11 633.701,220.978 633.818,220.844 633.932,220.708 634.044,220.569 634.154,220.429 634.262,220.287 634.367,220.143 634.469,219.998 634.569,219.85 634.666,219.701 634.761,219.55 634.853,219.398 634.942,219.244 635.029,219.089 635.113,218.932 635.195,218.773 635.273,218.614 635.349,218.453 635.422,218.29 635.492,218.127 635.56,217.962 635.624,217.796 635.686,217.629 635.745,217.461 635.801,217.292 635.854,217.122 635.904,216.951 635.951,216.779 635.995,216.607 636.036,216.434 636.074,216.26 636.109,216.085 636.141,215.91 636.171,215.734 636.197,215.558 636.22,215.382 636.239,215.205 636.256,215.028 636.27,214.85 636.281,214.672 636.289,214.495 636.293,214.317 636.295,214.139 636.295,205.029 636.293,204.851 636.289,204.673 636.281,204.495 636.27,204.317 636.256,204.14 636.239,203.962 636.22,203.785 636.197,203.609 636.171,203.433 636.141,203.257 636.109,203.082 636.074,202.907 636.036,202.734 635.995,202.56 635.951,202.388 635.904,202.216 635.854,202.045 635.801,201.875 635.745,201.706 635.686,201.538 635.624,201.371 635.56,201.205 635.492,201.041 635.422,200.877 635.349,200.715 635.273,200.553 635.195,200.394 635.113,200.235 635.029,200.078 634.942,199.923 634.853,199.769 634.761,199.617 634.666,199.466 634.569,199.317 634.469,199.17 634.367,199.024 634.262,198.88 634.154,198.738 634.044,198.598 633.932,198.46 633.818,198.323 633.701,198.189 633.582,198.057 633.46,197.927 633.336,197.799 633.211,197.673 633.082,197.549 632.952,197.428 632.82,197.308 632.686,197.191 632.55,197.077 632.411,196.965 632.271,196.855 632.129,196.748 631.985,196.643 631.84,196.54 631.692,196.44 631.543,196.343 631.392,196.248 631.24,196.156 631.086,196.067 630.931,195.98 630.774,195.896 630.615,195.814 630.456,195.736 630.295,195.66 630.132,195.587 629.969,195.517 629.804,195.449 629.638,195.385 629.471,195.323 629.303,195.264 629.134,195.208 628.964,195.155 628.793,195.105 628.621,195.058 628.449,195.014 628.276,194.973 628.102,194.935 627.927,194.9 627.752,194.868 627.576,194.839 627.4,194.813 627.224,194.79 627.047,194.77 626.87,194.753 626.692,194.739 626.514,194.728 626.336,194.721 626.159,194.716 625.98,194.714 617.252,194.714 617.074,194.716 616.896,194.721 616.718,194.728 616.54,194.739 616.363,194.753 616.186,194.77 616.009,194.79 615.832,194.813 615.656,194.839 615.48,194.868 615.305,194.9 615.131,194.935 614.957,194.973 614.784,195.014 614.611,195.058 614.439,195.105 614.268,195.155 614.098,195.208 613.929,195.264 613.761,195.323 613.594,195.385 613.428,195.449 613.264,195.517 613.1,195.587 612.938,195.66 612.777,195.736 612.617,195.814 612.459,195.896 612.302,195.98 612.146,196.067 611.992,196.156 611.84,196.248 611.689,196.343 611.54,196.44 611.393,196.54 611.247,196.643 611.103,196.748 610.961,196.855 610.821,196.965 610.683,197.077 610.547,197.191 610.412,197.308 610.28,197.428 610.15,197.549 610.022,197.673 609.896,197.799 609.772,197.927 609.651,198.057 609.531,198.189 609.415,198.323 609.3,198.46 609.188,198.598 609.078,198.738 608.971,198.88 608.866,199.024 608.763,199.17 608.664,199.317 608.566,199.466 608.471,199.617 608.379,199.769 608.29,199.923 608.203,200.078 608.119,200.235 608.038,200.394 607.959,200.553 607.883,200.715 607.81,200.877 607.74,201.041 607.672,201.205 607.608,201.371 607.546,201.538 607.487,201.706 607.431,201.875 607.378,202.045 607.328,202.216 607.281,202.388 607.237,202.56 607.196,202.734 607.158,202.907 607.123,203.082 607.091,203.257 607.062,203.433 607.036,203.609 607.013,203.785 606.993,203.962 606.976,204.14 606.962,204.317 606.951,204.495 606.944,204.673 606.939,204.851 606.938,205.029 606.938,214.139 606.939,214.317 606.944,214.495 606.951,214.672 606.962,214.85 606.976,215.028 606.993,215.205 607.013,215.382 607.036,215.558 607.062,215.734 607.091,215.91 607.123,216.085 607.158,216.26 607.196,216.434 607.237,216.607 607.281,216.779 607.328,216.951 607.378,217.122 607.431,217.292 607.487,217.461 607.546,217.629 607.608,217.796 607.672,217.962 607.74,218.127 607.81,218.29 607.883,218.453 607.959,218.614 608.038,218.773 608.119,218.932 608.203,219.089 608.29,219.244 608.379,219.398 "
         id="polygon29990"
         style="stroke:#80ffe6;stroke-opacity:1" />
      <polygon
         fill="none"
         stroke="#00b9d2"
         stroke-width="2"
         stroke-linecap="round"
         stroke-linejoin="round"
         stroke-miterlimit="10"
         points="642.413,267.178 642.358,267.314 642.302,267.449 642.243,267.583 642.183,267.718 642.122,267.851 642.058,267.985 641.992,268.118 641.925,268.25 641.856,268.381 641.785,268.512 641.712,268.643 641.638,268.772 641.562,268.901 641.484,269.029 641.404,269.156 641.322,269.283 641.239,269.408 641.154,269.533 641.068,269.656 640.979,269.779 640.889,269.901 640.798,270.021 640.705,270.141 640.61,270.259 640.513,270.376 640.416,270.492 640.316,270.607 640.215,270.72 640.112,270.833 640.009,270.944 639.903,271.053 639.796,271.161 639.688,271.268 639.578,271.374 639.467,271.478 639.355,271.58 639.242,271.681 639.127,271.781 639.011,271.879 638.894,271.975 638.775,272.07 638.656,272.163 638.535,272.255 638.414,272.345 638.291,272.433 638.168,272.52 638.043,272.604 637.918,272.688 637.791,272.769 637.664,272.849 637.536,272.927 637.407,273.003 637.277,273.078 637.147,273.15 637.016,273.221 636.885,273.29 636.752,273.358 636.62,273.423 636.486,273.487 636.352,273.549 636.218,273.609 636.083,273.667 635.948,273.723 635.813,273.778 635.677,273.831 635.541,273.882 635.405,273.931 635.268,273.978 635.132,274.024 634.995,274.067 634.858,274.109 634.721,274.149 634.584,274.188 634.447,274.224 634.31,274.259 634.173,274.292 634.036,274.323 633.899,274.353 633.762,274.381 633.626,274.407 633.49,274.431 633.354,274.454 633.218,274.475 633.082,274.494 632.947,274.512 632.812,274.528 632.678,274.543 632.544,274.555 632.41,274.567 632.277,274.576 632.144,274.585 632.012,274.591 631.88,274.596 631.749,274.6 631.618,274.602 631.488,274.603 611.744,274.603 611.614,274.602 611.484,274.6 611.352,274.596 611.221,274.591 611.088,274.585 610.956,274.576 610.822,274.567 610.689,274.555 610.555,274.543 610.42,274.528 610.285,274.512 610.15,274.494 610.014,274.475 609.879,274.454 609.743,274.431 609.606,274.407 609.47,274.381 609.333,274.353 609.196,274.323 609.06,274.292 608.922,274.259 608.785,274.224 608.648,274.188 608.511,274.149 608.374,274.109 608.237,274.067 608.101,274.024 607.964,273.978 607.827,273.931 607.691,273.882 607.555,273.831 607.419,273.778 607.284,273.723 607.149,273.667 607.014,273.609 606.88,273.549 606.746,273.487 606.613,273.423 606.48,273.358 606.348,273.29 606.216,273.221 606.085,273.15 605.955,273.078 605.825,273.003 605.696,272.927 605.568,272.849 605.441,272.769 605.315,272.688 605.189,272.604 605.065,272.52 604.941,272.433 604.818,272.345 604.697,272.255 604.576,272.163 604.457,272.07 604.339,271.975 604.221,271.879 604.105,271.781 603.991,271.681 603.877,271.58 603.765,271.478 603.654,271.374 603.544,271.268 603.436,271.161 603.329,271.053 603.224,270.944 603.12,270.833 603.017,270.72 602.916,270.607 602.817,270.492 602.719,270.376 602.622,270.259 602.528,270.141 602.434,270.021 602.343,269.901 602.253,269.779 602.165,269.656 602.078,269.533 601.993,269.408 601.91,269.283 601.828,269.156 601.749,269.029 601.671,268.901 601.594,268.772 601.52,268.643 601.447,268.512 601.376,268.381 601.307,268.25 601.24,268.118 601.174,267.985 601.111,267.851 601.049,267.718 600.989,267.583 600.931,267.449 600.874,267.314 600.82,267.178 600.767,267.042 600.716,266.906 600.667,266.77 600.619,266.634 600.574,266.497 600.53,266.36 600.488,266.223 600.448,266.086 600.41,265.949 600.373,265.812 600.339,265.675 600.306,265.538 600.274,265.401 600.245,265.264 600.217,265.128 600.191,264.991 600.166,264.855 600.144,264.719 600.123,264.583 600.103,264.448 600.086,264.312 600.07,264.178 600.055,264.043 600.042,263.909 600.031,263.775 600.021,263.642 600.013,263.509 600.006,263.377 600.001,263.245 599.998,263.114 599.995,262.983 599.995,262.853 599.995,259.323 599.996,259.12 600.002,258.917 600.01,258.715 600.023,258.512 600.038,258.31 600.058,258.108 600.08,257.907 600.107,257.706 600.136,257.505 600.169,257.305 600.206,257.105 600.246,256.906 600.289,256.708 600.336,256.511 600.386,256.315 600.44,256.119 600.497,255.924 600.557,255.731 600.621,255.538 600.688,255.347 600.758,255.156 600.832,254.967 600.909,254.78 600.989,254.593 601.072,254.408 601.158,254.225 601.248,254.043 601.341,253.863 601.436,253.684 601.535,253.507 601.637,253.331 601.742,253.158 601.85,252.986 601.961,252.816 602.075,252.648 602.191,252.482 602.311,252.319 602.433,252.157 602.558,251.997 602.686,251.84 602.816,251.684 602.95,251.531 603.085,251.381 603.224,251.232 603.365,251.087 603.508,250.943 603.654,250.802 603.802,250.664 603.953,250.528 604.106,250.395 604.261,250.264 604.419,250.137 604.578,250.012 604.74,249.889 604.904,249.77 605.07,249.653 605.238,249.539 605.408,249.428 605.579,249.321 605.753,249.216 605.928,249.114 606.105,249.015 606.284,248.919 606.464,248.826 606.646,248.737 606.83,248.65 607.015,248.567 607.201,248.487 607.389,248.41 607.578,248.337 607.768,248.266 607.96,248.199 608.152,248.136 608.346,248.075 608.54,248.018 608.736,247.965 608.932,247.915 609.13,247.868 609.328,247.824 609.527,247.784 609.726,247.748 609.926,247.715 610.127,247.685 610.328,247.659 610.53,247.636 610.732,247.617 610.934,247.601 611.136,247.589 611.339,247.58 611.542,247.575 611.744,247.573 631.488,247.573 631.691,247.575 631.893,247.58 632.096,247.589 632.299,247.601 632.501,247.617 632.703,247.636 632.904,247.659 633.105,247.685 633.306,247.715 633.506,247.748 633.706,247.784 633.904,247.824 634.103,247.868 634.3,247.915 634.496,247.965 634.692,248.018 634.887,248.075 635.08,248.136 635.273,248.199 635.464,248.266 635.654,248.337 635.843,248.41 636.031,248.487 636.218,248.567 636.402,248.65 636.586,248.737 636.768,248.826 636.948,248.919 637.127,249.015 637.304,249.114 637.479,249.216 637.653,249.321 637.825,249.428 637.995,249.539 638.163,249.653 638.328,249.77 638.492,249.889 638.654,250.012 638.814,250.137 638.971,250.264 639.126,250.395 639.279,250.528 639.43,250.664 639.578,250.802 639.724,250.943 639.868,251.087 640.009,251.232 640.147,251.381 640.283,251.531 640.416,251.684 640.546,251.84 640.674,251.997 640.799,252.157 640.922,252.319 641.041,252.482 641.158,252.648 641.272,252.816 641.382,252.986 641.49,253.158 641.595,253.331 641.697,253.507 641.796,253.684 641.892,253.863 641.984,254.043 642.074,254.225 642.161,254.408 642.244,254.593 642.324,254.78 642.401,254.967 642.474,255.156 642.544,255.347 642.611,255.538 642.675,255.731 642.735,255.924 642.792,256.119 642.846,256.315 642.896,256.511 642.943,256.708 642.987,256.906 643.026,257.105 643.063,257.305 643.096,257.505 643.126,257.706 643.152,257.907 643.175,258.108 643.194,258.31 643.21,258.512 643.222,258.715 643.231,258.917 643.236,259.12 643.238,259.323 643.238,262.853 643.237,262.983 643.235,263.114 643.231,263.245 643.226,263.377 643.219,263.509 643.211,263.642 643.201,263.775 643.19,263.909 643.177,264.043 643.163,264.178 643.147,264.312 643.129,264.448 643.11,264.583 643.089,264.719 643.066,264.855 643.042,264.991 643.015,265.128 642.988,265.264 642.958,265.401 642.927,265.538 642.894,265.675 642.859,265.812 642.822,265.949 642.784,266.086 642.744,266.223 642.702,266.36 642.658,266.497 642.613,266.634 642.566,266.77 642.516,266.906 642.465,267.042 "
         id="polygon29993"
         style="stroke:#80ffe6;stroke-opacity:1" />
      <polygon
         fill="none"
         stroke="#00b9d2"
         stroke-width="2.75"
         stroke-linecap="round"
         stroke-linejoin="round"
         stroke-miterlimit="10"
         points="667.018,243.511 667.075,243.602 667.134,243.692 667.195,243.781 667.257,243.869 667.32,243.957 667.385,244.043 667.452,244.127 667.52,244.211 667.589,244.294 667.66,244.375 667.732,244.455 667.805,244.534 667.88,244.611 667.957,244.687 668.034,244.762 668.113,244.836 668.193,244.908 668.274,244.979 668.357,245.048 668.44,245.116 668.525,245.183 668.611,245.248 668.698,245.311 668.786,245.373 668.876,245.434 668.966,245.493 669.057,245.55 669.15,245.606 669.243,245.66 669.337,245.712 669.432,245.763 669.528,245.813 669.624,245.86 669.722,245.906 669.82,245.95 669.919,245.993 670.019,246.034 670.12,246.073 670.221,246.11 670.322,246.146 670.425,246.18 670.528,246.212 670.631,246.242 670.735,246.27 670.839,246.297 670.944,246.322 671.05,246.345 671.155,246.366 671.261,246.386 671.368,246.403 671.474,246.419 671.581,246.433 671.688,246.445 671.796,246.455 671.903,246.464 672.011,246.47 672.118,246.475 672.226,246.478 672.334,246.479 677.491,246.479 677.599,246.478 677.707,246.475 677.814,246.47 677.922,246.464 678.029,246.455 678.137,246.445 678.244,246.433 678.351,246.419 678.457,246.403 678.564,246.386 678.67,246.366 678.775,246.345 678.881,246.322 678.986,246.297 679.09,246.27 679.194,246.242 679.297,246.212 679.4,246.18 679.503,246.146 679.604,246.11 679.706,246.073 679.806,246.034 679.906,245.993 680.005,245.95 680.103,245.906 680.201,245.86 680.297,245.813 680.393,245.763 680.488,245.712 680.582,245.66 680.675,245.606 680.768,245.55 680.859,245.493 680.949,245.434 681.039,245.373 681.127,245.311 681.214,245.248 681.3,245.183 681.385,245.116 681.468,245.048 681.551,244.979 681.632,244.908 681.712,244.836 681.791,244.762 681.868,244.687 681.945,244.611 682.02,244.534 682.093,244.455 682.165,244.375 682.236,244.294 682.305,244.211 682.373,244.127 682.44,244.043 682.505,243.957 682.568,243.869 682.63,243.781 682.691,243.692 682.75,243.602 682.807,243.511 682.863,243.418 682.917,243.325 682.97,243.231 683.02,243.136 683.07,243.04 683.117,242.943 683.163,242.846 683.208,242.748 683.25,242.649 683.291,242.549 683.33,242.448 683.367,242.347 683.403,242.245 683.437,242.143 683.469,242.04 683.499,241.937 683.528,241.833 683.554,241.728 683.579,241.624 683.602,241.518 683.624,241.413 683.643,241.307 683.661,241.2 683.676,241.094 683.69,240.987 683.702,240.88 683.713,240.772 683.721,240.665 683.727,240.557 683.732,240.449 683.735,240.342 683.736,240.234 683.736,202.749 683.735,202.641 683.732,202.533 683.727,202.425 683.721,202.318 683.713,202.21 683.702,202.103 683.69,201.996 683.676,201.889 683.661,201.782 683.643,201.676 683.624,201.57 683.602,201.464 683.579,201.359 683.554,201.254 683.528,201.15 683.499,201.046 683.469,200.942 683.437,200.839 683.403,200.737 683.367,200.635 683.33,200.534 683.291,200.434 683.25,200.334 683.208,200.235 683.163,200.137 683.117,200.039 683.07,199.942 683.02,199.847 682.97,199.751 682.917,199.657 682.863,199.564 682.807,199.472 682.75,199.381 682.691,199.29 682.63,199.201 682.568,199.113 682.505,199.026 682.44,198.94 682.373,198.855 682.305,198.771 682.236,198.689 682.165,198.608 682.093,198.528 682.02,198.449 681.945,198.371 681.868,198.295 681.791,198.22 681.712,198.147 681.632,198.074 681.551,198.004 681.468,197.934 681.385,197.866 681.3,197.8 681.214,197.735 681.127,197.671 681.039,197.609 680.949,197.549 680.859,197.49 680.768,197.433 680.675,197.377 680.582,197.323 680.488,197.27 680.393,197.219 680.297,197.17 680.201,197.122 680.103,197.076 680.005,197.032 679.906,196.99 679.806,196.949 679.706,196.91 679.604,196.872 679.503,196.837 679.4,196.803 679.297,196.771 679.194,196.741 679.09,196.712 678.986,196.685 678.881,196.66 678.775,196.637 678.67,196.616 678.564,196.597 678.457,196.579 678.351,196.563 678.244,196.549 678.137,196.537 678.029,196.527 677.922,196.519 677.814,196.512 677.707,196.508 677.599,196.505 677.491,196.504 672.334,196.504 672.226,196.505 672.118,196.508 672.011,196.512 671.903,196.519 671.796,196.527 671.688,196.537 671.581,196.549 671.474,196.563 671.368,196.579 671.261,196.597 671.155,196.616 671.05,196.637 670.944,196.66 670.839,196.685 670.735,196.712 670.631,196.741 670.528,196.771 670.425,196.803 670.322,196.837 670.221,196.872 670.12,196.91 670.019,196.949 669.919,196.99 669.82,197.032 669.722,197.076 669.624,197.122 669.528,197.17 669.432,197.219 669.337,197.27 669.243,197.323 669.15,197.377 669.057,197.433 668.966,197.49 668.876,197.549 668.786,197.609 668.698,197.671 668.611,197.735 668.525,197.8 668.44,197.866 668.357,197.934 668.274,198.004 668.193,198.074 668.113,198.147 668.034,198.22 667.957,198.295 667.88,198.371 667.805,198.449 667.732,198.528 667.66,198.608 667.589,198.689 667.52,198.771 667.452,198.855 667.385,198.94 667.32,199.026 667.257,199.113 667.195,199.201 667.134,199.29 667.075,199.381 667.018,199.472 666.962,199.564 666.908,199.657 666.855,199.751 666.805,199.847 666.755,199.942 666.708,200.039 666.662,200.137 666.617,200.235 666.575,200.334 666.534,200.434 666.495,200.534 666.458,200.635 666.422,200.737 666.388,200.839 666.356,200.942 666.326,201.046 666.297,201.15 666.271,201.254 666.246,201.359 666.223,201.464 666.201,201.57 666.182,201.676 666.164,201.782 666.149,201.889 666.135,201.996 666.123,202.103 666.112,202.21 666.104,202.318 666.098,202.425 666.093,202.533 666.09,202.641 666.089,202.749 666.089,240.234 666.09,240.342 666.093,240.449 666.098,240.557 666.104,240.665 666.112,240.772 666.123,240.88 666.135,240.987 666.149,241.094 666.164,241.2 666.182,241.307 666.201,241.413 666.223,241.518 666.246,241.624 666.271,241.728 666.297,241.833 666.326,241.937 666.356,242.04 666.388,242.143 666.422,242.245 666.458,242.347 666.495,242.448 666.534,242.549 666.575,242.649 666.617,242.748 666.662,242.846 666.708,242.943 666.755,243.04 666.805,243.136 666.855,243.231 666.908,243.325 666.962,243.418 "
         id="polygon30006"
         style="stroke:#80ffe6;stroke-opacity:1" />
      <path
         fill="none"
         stroke="#00b9d2"
         stroke-width="2.75"
         stroke-linecap="round"
         stroke-linejoin="round"
         stroke-miterlimit="10"
         d="m 628.927,209.584 c 0.01,-3.327 -2.289,-6.281 -5.516,-7.087 -4.595,-1.157 -9.058,2.286 -9.105,7.024 -0.034,4.791 4.459,8.32 9.105,7.151 3.227,-0.808 5.527,-3.762 5.516,-7.088 z"
         id="path30009"
         style="stroke:#80ffe6;stroke-opacity:1" />
      <polygon
         fill="none"
         stroke="#00b9d2"
         stroke-width="2.75"
         stroke-linecap="round"
         stroke-linejoin="round"
         stroke-miterlimit="10"
         points="642.413,192.377 642.358,192.242 642.302,192.107 642.243,191.972 642.183,191.838 642.122,191.704 642.058,191.57 641.992,191.438 641.925,191.305 641.856,191.174 641.785,191.043 641.712,190.913 641.638,190.783 641.562,190.654 641.484,190.526 641.404,190.399 641.322,190.273 641.239,190.147 641.154,190.022 641.068,189.899 640.979,189.776 640.889,189.655 640.798,189.534 640.705,189.415 640.61,189.296 640.513,189.179 640.416,189.063 640.316,188.948 640.215,188.835 640.112,188.723 640.009,188.612 639.903,188.502 639.796,188.394 639.688,188.287 639.578,188.181 639.467,188.078 639.355,187.975 639.242,187.874 639.127,187.774 639.011,187.677 638.894,187.58 638.775,187.485 638.656,187.392 638.535,187.301 638.414,187.211 638.291,187.122 638.168,187.036 638.043,186.951 637.918,186.868 637.791,186.786 637.664,186.706 637.536,186.628 637.407,186.552 637.277,186.478 637.147,186.405 637.016,186.334 636.885,186.265 636.752,186.198 636.62,186.132 636.486,186.068 636.352,186.007 636.218,185.947 636.083,185.888 635.948,185.832 635.813,185.777 635.677,185.725 635.541,185.674 635.405,185.624 635.268,185.577 635.132,185.532 634.995,185.488 634.858,185.446 634.721,185.406 634.584,185.368 634.447,185.331 634.31,185.296 634.173,185.263 634.036,185.232 633.899,185.202 633.762,185.175 633.626,185.148 633.49,185.124 633.354,185.101 633.218,185.08 633.082,185.061 632.947,185.043 632.812,185.027 632.678,185.013 632.544,185 632.41,184.989 632.277,184.979 632.144,184.971 632.012,184.964 631.88,184.959 631.749,184.955 631.618,184.953 631.488,184.952 611.744,184.952 611.614,184.953 611.484,184.955 611.352,184.959 611.221,184.964 611.088,184.971 610.956,184.979 610.822,184.989 610.689,185 610.555,185.013 610.42,185.027 610.285,185.043 610.15,185.061 610.014,185.08 609.879,185.101 609.743,185.124 609.606,185.148 609.47,185.175 609.333,185.202 609.196,185.232 609.06,185.263 608.922,185.296 608.785,185.331 608.648,185.368 608.511,185.406 608.374,185.446 608.237,185.488 608.101,185.532 607.964,185.577 607.827,185.624 607.691,185.674 607.555,185.725 607.419,185.777 607.284,185.832 607.149,185.888 607.014,185.947 606.88,186.007 606.746,186.068 606.613,186.132 606.48,186.198 606.348,186.265 606.216,186.334 606.085,186.405 605.955,186.478 605.825,186.552 605.696,186.628 605.568,186.706 605.441,186.786 605.315,186.868 605.189,186.951 605.065,187.036 604.941,187.122 604.818,187.211 604.697,187.301 604.576,187.392 604.457,187.485 604.339,187.58 604.221,187.677 604.105,187.774 603.991,187.874 603.877,187.975 603.765,188.078 603.654,188.181 603.544,188.287 603.436,188.394 603.329,188.502 603.224,188.612 603.12,188.723 603.017,188.835 602.916,188.948 602.817,189.063 602.719,189.179 602.622,189.296 602.528,189.415 602.434,189.534 602.343,189.655 602.253,189.776 602.165,189.899 602.078,190.022 601.993,190.147 601.91,190.273 601.828,190.399 601.749,190.526 601.671,190.654 601.594,190.783 601.52,190.913 601.447,191.043 601.376,191.174 601.307,191.305 601.24,191.438 601.174,191.57 601.111,191.704 601.049,191.838 600.989,191.972 600.931,192.107 600.874,192.242 600.82,192.377 600.767,192.513 600.716,192.649 600.667,192.785 600.619,192.922 600.574,193.058 600.53,193.195 600.488,193.332 600.448,193.469 600.41,193.606 600.373,193.743 600.339,193.88 600.306,194.017 600.274,194.154 600.245,194.291 600.217,194.428 600.191,194.564 600.166,194.7 600.144,194.836 600.123,194.972 600.103,195.108 600.086,195.243 600.07,195.378 600.055,195.512 600.042,195.646 600.031,195.78 600.021,195.913 600.013,196.046 600.006,196.178 600.001,196.31 599.998,196.441 599.995,196.572 599.995,196.702 599.995,222.465 599.996,222.668 600.002,222.871 600.01,223.073 600.023,223.276 600.038,223.478 600.058,223.68 600.08,223.881 600.107,224.083 600.136,224.283 600.169,224.483 600.206,224.683 600.246,224.882 600.289,225.08 600.336,225.277 600.386,225.474 600.44,225.669 600.497,225.864 600.557,226.057 600.621,226.25 600.688,226.441 600.758,226.632 600.832,226.821 600.909,227.008 600.989,227.195 601.072,227.38 601.158,227.563 601.248,227.745 601.341,227.925 601.436,228.104 601.535,228.281 601.637,228.457 601.742,228.63 601.85,228.802 601.961,228.972 602.075,229.14 602.191,229.306 602.311,229.47 602.433,229.631 602.558,229.791 602.686,229.948 602.816,230.104 602.95,230.257 603.085,230.407 603.224,230.556 603.365,230.701 603.508,230.845 603.654,230.986 603.802,231.124 603.953,231.26 604.106,231.393 604.261,231.524 604.419,231.651 604.578,231.777 604.74,231.899 604.904,232.018 605.07,232.135 605.238,232.249 605.408,232.36 605.579,232.467 605.753,232.572 605.928,232.674 606.105,232.773 606.284,232.869 606.464,232.962 606.646,233.051 606.83,233.138 607.015,233.221 607.201,233.301 607.389,233.378 607.578,233.451 607.768,233.522 607.96,233.589 608.152,233.652 608.346,233.713 608.54,233.77 608.736,233.823 608.932,233.873 609.13,233.92 609.328,233.964 609.527,234.004 609.726,234.04 609.926,234.073 610.127,234.103 610.328,234.129 610.53,234.152 610.732,234.171 610.934,234.187 611.136,234.199 611.339,234.208 611.542,234.213 611.744,234.215 631.488,234.215 631.691,234.213 631.893,234.208 632.096,234.199 632.299,234.187 632.501,234.171 632.703,234.152 632.904,234.129 633.105,234.103 633.306,234.073 633.506,234.04 633.706,234.004 633.904,233.964 634.103,233.92 634.3,233.873 634.496,233.823 634.692,233.77 634.887,233.713 635.08,233.652 635.273,233.589 635.464,233.522 635.654,233.451 635.843,233.378 636.031,233.301 636.218,233.221 636.402,233.138 636.586,233.051 636.768,232.962 636.948,232.869 637.127,232.773 637.304,232.674 637.479,232.572 637.653,232.467 637.825,232.36 637.995,232.249 638.163,232.135 638.328,232.018 638.492,231.899 638.654,231.777 638.814,231.651 638.971,231.524 639.126,231.393 639.279,231.26 639.43,231.124 639.578,230.986 639.724,230.845 639.868,230.701 640.009,230.556 640.147,230.407 640.283,230.257 640.416,230.104 640.546,229.948 640.674,229.791 640.799,229.631 640.922,229.47 641.041,229.306 641.158,229.14 641.272,228.972 641.382,228.802 641.49,228.63 641.595,228.457 641.697,228.281 641.796,228.104 641.892,227.925 641.984,227.745 642.074,227.563 642.161,227.38 642.244,227.195 642.324,227.008 642.401,226.821 642.474,226.632 642.544,226.441 642.611,226.25 642.675,226.057 642.735,225.864 642.792,225.669 642.846,225.474 642.896,225.277 642.943,225.08 642.987,224.882 643.026,224.683 643.063,224.483 643.096,224.283 643.126,224.083 643.152,223.881 643.175,223.68 643.194,223.478 643.21,223.276 643.222,223.073 643.231,222.871 643.236,222.668 643.238,222.465 643.238,196.702 643.237,196.572 643.235,196.441 643.231,196.31 643.226,196.178 643.219,196.046 643.211,195.913 643.201,195.78 643.19,195.646 643.177,195.512 643.163,195.378 643.147,195.243 643.129,195.108 643.11,194.972 643.089,194.836 643.066,194.7 643.042,194.564 643.015,194.428 642.988,194.291 642.958,194.154 642.927,194.017 642.894,193.88 642.859,193.743 642.822,193.606 642.784,193.469 642.744,193.332 642.702,193.195 642.658,193.058 642.613,192.922 642.566,192.785 642.516,192.649 642.465,192.513 "
         id="polygon30012"
         style="stroke:#80ffe6;stroke-opacity:1" />
      <polygon
         fill="none"
         stroke="#00b9d2"
         stroke-width="2.75"
         stroke-linecap="round"
         stroke-linejoin="round"
         stroke-miterlimit="10"
         points="640.567,277.583 640.82,277.424 641.07,277.261 641.317,277.093 641.561,276.921 641.803,276.745 642.041,276.565 642.276,276.381 642.508,276.193 642.737,276.001 642.962,275.805 643.184,275.605 643.402,275.401 643.617,275.193 643.828,274.982 644.036,274.767 644.239,274.549 644.439,274.327 644.635,274.102 644.828,273.873 645.016,273.641 645.2,273.406 645.38,273.168 645.556,272.927 645.728,272.682 645.895,272.435 646.059,272.185 646.218,271.932 646.372,271.676 646.522,271.418 646.668,271.158 646.809,270.894 646.945,270.629 647.077,270.361 647.205,270.09 647.327,269.818 647.445,269.544 647.558,269.267 647.666,268.989 647.77,268.709 647.869,268.427 647.962,268.143 648.051,267.858 648.135,267.571 648.214,267.283 648.288,266.994 648.357,266.703 648.421,266.412 648.48,266.119 648.534,265.825 648.582,265.53 648.626,265.235 648.665,264.939 648.698,264.642 648.726,264.345 648.75,264.047 648.768,263.749 648.781,263.45 648.788,263.152 648.791,262.853 648.791,196.702 648.788,196.403 648.781,196.105 648.768,195.806 648.75,195.508 648.726,195.211 648.698,194.913 648.665,194.616 648.626,194.32 648.582,194.025 648.534,193.73 648.48,193.436 648.421,193.144 648.357,192.852 648.288,192.561 648.214,192.272 648.135,191.984 648.051,191.697 647.962,191.412 647.869,191.128 647.77,190.847 647.666,190.566 647.558,190.288 647.445,190.012 647.327,189.737 647.205,189.465 647.077,189.195 646.945,188.927 646.809,188.661 646.668,188.398 646.522,188.137 646.372,187.879 646.218,187.623 646.059,187.37 645.895,187.12 645.728,186.873 645.556,186.629 645.38,186.387 645.2,186.149 645.016,185.914 644.828,185.682 644.635,185.453 644.439,185.228 644.239,185.006 644.036,184.788 643.828,184.573 643.617,184.362 643.402,184.154 643.184,183.951 642.962,183.751 642.737,183.555 642.508,183.362 642.276,183.174 642.041,182.99 641.803,182.81 641.561,182.634 641.317,182.462 641.07,182.295 640.82,182.131 640.567,181.972 640.311,181.818 640.053,181.668 639.792,181.522 639.529,181.381 639.263,181.245 638.995,181.113 638.725,180.985 638.453,180.863 638.178,180.745 637.902,180.632 637.624,180.524 637.343,180.42 637.062,180.321 636.778,180.228 636.493,180.139 636.206,180.055 635.918,179.976 635.629,179.902 635.338,179.833 635.046,179.769 634.754,179.71 634.46,179.656 634.165,179.608 633.87,179.564 633.574,179.525 633.277,179.492 632.979,179.464 632.682,179.44 632.384,179.422 632.085,179.41 631.787,179.402 631.488,179.399 611.744,179.399 611.446,179.402 611.147,179.41 610.849,179.422 610.551,179.44 610.253,179.464 609.956,179.492 609.659,179.525 609.363,179.564 609.067,179.608 608.772,179.656 608.479,179.71 608.186,179.769 607.894,179.833 607.604,179.902 607.314,179.976 607.026,180.055 606.74,180.139 606.454,180.228 606.171,180.321 605.889,180.42 605.609,180.524 605.33,180.632 605.054,180.745 604.779,180.863 604.507,180.985 604.237,181.113 603.969,181.245 603.703,181.381 603.44,181.522 603.179,181.668 602.921,181.818 602.665,181.972 602.413,182.131 602.162,182.295 601.915,182.462 601.671,182.634 601.43,182.81 601.191,182.99 600.956,183.174 600.724,183.362 600.496,183.555 600.27,183.751 600.049,183.951 599.83,184.154 599.615,184.362 599.404,184.573 599.197,184.788 598.993,185.006 598.793,185.228 598.597,185.453 598.405,185.682 598.216,185.914 598.032,186.149 597.852,186.387 597.676,186.629 597.504,186.873 597.337,187.12 597.174,187.37 597.015,187.623 596.86,187.879 596.71,188.137 596.565,188.398 596.423,188.661 596.287,188.927 596.155,189.195 596.028,189.465 595.905,189.737 595.787,190.012 595.674,190.288 595.566,190.566 595.462,190.847 595.364,191.128 595.27,191.412 595.181,191.697 595.097,191.984 595.018,192.272 594.944,192.561 594.875,192.852 594.811,193.144 594.752,193.436 594.699,193.73 594.65,194.025 594.606,194.32 594.568,194.616 594.534,194.913 594.506,195.211 594.483,195.508 594.465,195.806 594.452,196.105 594.444,196.403 594.441,196.702 594.441,262.853 594.444,263.152 594.452,263.45 594.465,263.749 594.483,264.047 594.506,264.345 594.534,264.642 594.568,264.939 594.606,265.235 594.65,265.53 594.699,265.825 594.752,266.119 594.811,266.412 594.875,266.703 594.944,266.994 595.018,267.283 595.097,267.571 595.181,267.858 595.27,268.143 595.364,268.427 595.462,268.709 595.566,268.989 595.674,269.267 595.787,269.544 595.905,269.818 596.028,270.09 596.155,270.361 596.287,270.629 596.423,270.894 596.565,271.158 596.71,271.418 596.86,271.676 597.015,271.932 597.174,272.185 597.337,272.435 597.504,272.682 597.676,272.927 597.852,273.168 598.032,273.406 598.216,273.641 598.405,273.873 598.597,274.102 598.793,274.327 598.993,274.549 599.197,274.767 599.404,274.982 599.615,275.193 599.83,275.401 600.049,275.605 600.27,275.805 600.496,276.001 600.724,276.193 600.956,276.381 601.191,276.565 601.43,276.745 601.671,276.921 601.915,277.093 602.162,277.261 602.413,277.424 602.665,277.583 602.921,277.737 603.179,277.887 603.44,278.033 603.703,278.174 603.969,278.311 604.237,278.443 604.507,278.57 604.779,278.692 605.054,278.81 605.33,278.923 605.609,279.032 605.889,279.135 606.171,279.234 606.454,279.328 606.74,279.416 607.026,279.5 607.314,279.579 607.604,279.653 607.894,279.722 608.186,279.786 608.479,279.845 608.772,279.899 609.067,279.948 609.363,279.991 609.659,280.03 609.956,280.063 610.253,280.092 610.551,280.115 610.849,280.133 611.147,280.146 611.446,280.154 611.744,280.156 631.488,280.156 631.787,280.154 632.085,280.146 632.384,280.133 632.682,280.115 632.979,280.092 633.277,280.063 633.574,280.03 633.87,279.991 634.165,279.948 634.46,279.899 634.754,279.845 635.046,279.786 635.338,279.722 635.629,279.653 635.918,279.579 636.206,279.5 636.493,279.416 636.778,279.328 637.062,279.234 637.343,279.135 637.624,279.032 637.902,278.923 638.178,278.81 638.453,278.692 638.725,278.57 638.995,278.443 639.263,278.311 639.529,278.174 639.792,278.033 640.053,277.887 640.311,277.737 "
         id="polygon30015"
         style="stroke:#80ffe6;stroke-opacity:1" />
      <polyline
         fill="none"
         stroke="#00b9d2"
         stroke-width="2.75"
         stroke-linecap="round"
         stroke-linejoin="round"
         stroke-miterlimit="10"
         points="    483.743,676.323 483.85,676.586 483.959,676.849 484.071,677.112 484.186,677.374 484.304,677.636 484.424,677.897     484.547,678.157 484.672,678.416 484.8,678.675 484.931,678.932 485.065,679.189 485.201,679.445 485.34,679.701 485.481,679.955     485.625,680.208 485.772,680.46 485.921,680.711 486.073,680.961 486.228,681.209 486.385,681.457 486.544,681.703     486.707,681.948 486.871,682.192 487.039,682.434 487.208,682.675 487.38,682.914 487.555,683.152 487.732,683.389     487.912,683.624 488.093,683.857 488.278,684.089 488.464,684.319 488.653,684.547 488.844,684.774 489.038,684.999     489.234,685.222 489.432,685.443 489.632,685.663 489.835,685.88 490.039,686.096 490.246,686.31 490.455,686.521     490.666,686.731 490.878,686.939 491.093,687.144 491.31,687.348 491.529,687.549 491.75,687.748 491.973,687.945 492.197,688.14     492.423,688.333 492.652,688.523 492.881,688.711 493.113,688.897 493.346,689.08 493.581,689.261 493.818,689.44     494.056,689.616 494.295,689.79 494.537,689.961 494.779,690.13 495.023,690.297 495.268,690.461 495.515,690.623     495.763,690.782 496.012,690.938 496.263,691.092 496.515,691.244 496.768,691.392 497.022,691.539 497.277,691.682     497.533,691.823 497.79,691.962 498.048,692.098 498.307,692.231 498.567,692.361 498.827,692.489 499.089,692.615     499.351,692.737 499.614,692.857 499.878,692.975 500.142,693.089 500.407,693.201 500.672,693.311 500.938,693.418     501.204,693.522 501.471,693.623 501.738,693.722 502.006,693.818 502.274,693.911 502.542,694.002 502.811,694.09     503.079,694.176 503.348,694.259 503.617,694.339 503.886,694.417 504.156,694.492 504.425,694.564 504.694,694.634     504.963,694.701 505.232,694.766 505.501,694.828 505.77,694.888 506.039,694.945 506.307,694.999 506.575,695.051     506.843,695.101 507.111,695.148 507.645,695.235 508.178,695.312 508.708,695.379 509.237,695.437 509.763,695.486     510.287,695.525 510.808,695.555 511.327,695.577 511.842,695.59 512.353,695.594 730.879,695.594 731.391,695.59     731.906,695.577 732.424,695.555 732.945,695.525 733.469,695.486 733.995,695.437 734.524,695.379 735.055,695.312     735.587,695.235 736.121,695.148 736.389,695.101 736.657,695.051 736.925,694.999 737.194,694.945 737.462,694.888     737.731,694.828 738,694.766 738.269,694.701 738.538,694.634 738.808,694.564 739.077,694.492 739.346,694.417 739.615,694.339     739.884,694.259 740.153,694.176 740.422,694.09 740.69,694.002 740.958,693.911 741.226,693.818 741.494,693.722     741.761,693.623 742.028,693.522 742.294,693.418 742.56,693.311 742.826,693.201 743.091,693.089 743.355,692.975     743.618,692.857 743.881,692.737 744.144,692.615 744.405,692.489 744.666,692.361 744.926,692.231 745.185,692.098     745.443,691.962 745.7,691.823 745.956,691.682 746.211,691.539 746.465,691.392 746.718,691.244 746.969,691.092 747.22,690.938     747.469,690.782 747.717,690.623 747.964,690.461 748.209,690.297 748.453,690.13 748.696,689.961 748.937,689.79     749.177,689.616 749.415,689.44 749.651,689.261 749.886,689.08 750.119,688.897 750.351,688.711 750.581,688.523     750.809,688.333 751.035,688.14 751.26,687.945 751.482,687.748 751.703,687.549 751.922,687.348 752.139,687.144     752.354,686.939 752.567,686.731 752.778,686.521 752.986,686.31 753.193,686.096 753.398,685.88 753.6,685.663 753.8,685.443     753.999,685.222 754.194,684.999 754.388,684.774 754.579,684.547 754.768,684.319 754.955,684.089 755.139,683.857     755.321,683.624 755.5,683.389 755.677,683.152 755.852,682.914 756.024,682.675 756.194,682.434 756.361,682.192     756.526,681.948 756.688,681.703 756.847,681.457 757.005,681.209 757.159,680.961 757.311,680.711 757.46,680.46     757.607,680.208 757.751,679.955 757.892,679.701 758.031,679.445 758.167,679.189 758.301,678.932 758.432,678.675     758.56,678.416 758.686,678.157 758.808,677.897 758.929,677.636 759.046,677.374 759.161,677.112 759.273,676.849     759.383,676.586 759.489,676.323   "
         id="polyline30018"
         style="stroke:#80ffe6;stroke-opacity:1" />
      <polyline
         fill="none"
         stroke="#00b9d2"
         stroke-width="2.75"
         stroke-linecap="round"
         stroke-linejoin="round"
         stroke-miterlimit="10"
         points="    760.404,133.208 760.347,132.897 760.286,132.585 760.222,132.273 760.154,131.961 760.083,131.648 760.008,131.336     759.929,131.023 759.848,130.71 759.762,130.397 759.673,130.085 759.58,129.772 759.484,129.46 759.384,129.147 759.281,128.835     759.174,128.524 759.063,128.212 758.948,127.902 758.83,127.591 758.709,127.282 758.583,126.973 758.454,126.665     758.321,126.357 758.185,126.05 758.045,125.745 757.901,125.44 757.754,125.136 757.603,124.833 757.448,124.532 757.29,124.231     757.128,123.932 756.962,123.635 756.793,123.338 756.62,123.043 756.444,122.75 756.264,122.458 756.081,122.168 755.894,121.88     755.704,121.593 755.51,121.309 755.313,121.026 755.113,120.745 754.909,120.466 754.702,120.189 754.491,119.915     754.278,119.642 754.061,119.372 753.84,119.104 753.617,118.839 753.391,118.576 753.161,118.315 752.929,118.057     752.693,117.802 752.455,117.549 752.213,117.299 751.969,117.051 751.722,116.807 751.472,116.565 751.219,116.326     750.964,116.09 750.706,115.857 750.446,115.627 750.183,115.4 749.918,115.176 749.65,114.955 749.38,114.738 749.107,114.524     748.833,114.312 748.556,114.105 748.277,113.9 747.996,113.699 747.713,113.501 747.428,113.306 747.141,113.115     746.853,112.928 746.562,112.744 746.271,112.563 745.977,112.386 745.682,112.212 745.385,112.042 745.087,111.876     744.787,111.713 744.486,111.554 744.184,111.398 743.881,111.246 743.577,111.097 743.271,110.953 742.965,110.811     742.658,110.674 742.349,110.54 742.04,110.41 741.73,110.283 741.42,110.16 741.109,110.041 740.797,109.925 740.485,109.814     740.173,109.705 739.86,109.601 739.547,109.5 739.233,109.402 738.919,109.308 738.606,109.218 738.292,109.131 737.978,109.048     737.664,108.969 737.35,108.893 737.037,108.82 736.723,108.751 736.41,108.686 736.097,108.624 735.785,108.565 735.473,108.51     735.161,108.458 734.85,108.409 734.54,108.364 734.23,108.322 733.921,108.284 733.612,108.249 733.305,108.217 732.998,108.188     732.692,108.162 732.386,108.14 732.082,108.12 731.779,108.104 731.477,108.09 731.175,108.08 730.875,108.073 730.576,108.069     730.278,108.067 512.954,108.067 512.656,108.069 512.357,108.073 512.057,108.08 511.756,108.09 511.453,108.104 511.15,108.12     510.846,108.14 510.541,108.162 510.235,108.188 509.928,108.217 509.62,108.249 509.311,108.284 509.002,108.322     508.692,108.364 508.382,108.409 508.071,108.458 507.759,108.51 507.447,108.565 507.135,108.624 506.822,108.686     506.509,108.751 506.196,108.82 505.882,108.893 505.568,108.969 505.254,109.048 504.94,109.131 504.627,109.218     504.313,109.308 503.999,109.402 503.686,109.5 503.372,109.601 503.06,109.705 502.747,109.814 502.435,109.925 502.123,110.041     501.812,110.16 501.502,110.283 501.192,110.41 500.883,110.54 500.575,110.674 500.267,110.811 499.961,110.953 499.656,111.097     499.351,111.246 499.048,111.398 498.746,111.554 498.445,111.713 498.146,111.876 497.847,112.042 497.551,112.212     497.255,112.386 496.962,112.563 496.67,112.744 496.379,112.928 496.091,113.115 495.804,113.306 495.519,113.501     495.236,113.699 494.955,113.9 494.676,114.105 494.4,114.312 494.125,114.524 493.853,114.738 493.582,114.955 493.315,115.176     493.049,115.4 492.786,115.627 492.526,115.857 492.268,116.09 492.013,116.326 491.76,116.565 491.511,116.807 491.263,117.051     491.019,117.299 490.778,117.549 490.539,117.802 490.304,118.057 490.071,118.315 489.842,118.576 489.615,118.839     489.392,119.104 489.172,119.372 488.955,119.642 488.741,119.915 488.531,120.189 488.323,120.466 488.12,120.745     487.919,121.026 487.722,121.309 487.528,121.593 487.338,121.88 487.151,122.168 486.968,122.458 486.788,122.75     486.612,123.043 486.439,123.338 486.27,123.635 486.105,123.932 485.943,124.231 485.784,124.532 485.63,124.833     485.479,125.136 485.331,125.44 485.188,125.745 485.047,126.05 484.911,126.357 484.778,126.665 484.649,126.973     484.524,127.282 484.402,127.591 484.284,127.902 484.169,128.212 484.059,128.524 483.951,128.835 483.848,129.147     483.748,129.46 483.652,129.772 483.559,130.085 483.47,130.397 483.385,130.71 483.303,131.023 483.225,131.336 483.15,131.648     483.079,131.961 483.011,132.273 482.947,132.585 482.886,132.897 482.828,133.208   "
         id="polyline30021"
         style="stroke:#80ffe6;stroke-opacity:1" />
      <rect
         x="760.40399"
         y="188.985"
         fill="none"
         stroke="#00b9d2"
         stroke-width="2.75"
         stroke-linecap="round"
         stroke-linejoin="round"
         stroke-miterlimit="10"
         width="2.02"
         height="84.444"
         id="rect30024"
         style="stroke:#80ffe6;stroke-opacity:1" />
      <rect
         x="760.40399"
         y="303.62299"
         fill="none"
         stroke="#00b9d2"
         stroke-width="2.75"
         stroke-linecap="round"
         stroke-linejoin="round"
         stroke-miterlimit="10"
         width="2.02"
         height="49.838001"
         id="rect30027"
         style="stroke:#80ffe6;stroke-opacity:1" />
      <rect
         x="480.80801"
         y="268.52301"
         fill="none"
         stroke="#00b9d2"
         stroke-width="2.75"
         stroke-linecap="round"
         stroke-linejoin="round"
         stroke-miterlimit="10"
         width="2.02"
         height="49.838001"
         id="rect30030"
         style="stroke:#80ffe6;stroke-opacity:1" />
      <polygon
         fill="none"
         stroke="#00b9d2"
         stroke-width="2.75"
         stroke-linecap="round"
         stroke-linejoin="round"
         stroke-miterlimit="10"
         points="745.909,694.859 746.355,694.578 746.796,694.291 747.231,693.995 747.662,693.693 748.087,693.383 748.507,693.065 748.922,692.74 749.33,692.409 749.733,692.07 750.13,691.724 750.521,691.372 750.906,691.013 751.285,690.647 751.657,690.275 752.023,689.896 752.382,689.511 752.734,689.12 753.08,688.723 753.419,688.32 753.751,687.911 754.075,687.497 754.393,687.077 754.703,686.652 755.006,686.221 755.301,685.785 755.589,685.345 755.869,684.899 756.141,684.448 756.406,683.993 756.662,683.534 756.911,683.07 757.151,682.601 757.384,682.129 757.608,681.653 757.824,681.173 758.032,680.689 758.231,680.202 758.422,679.711 758.605,679.218 758.779,678.721 758.944,678.221 759.1,677.718 759.248,677.213 759.387,676.705 759.518,676.195 759.639,675.683 759.752,675.169 759.856,674.653 759.951,674.135 760.037,673.616 760.114,673.095 760.182,672.573 760.241,672.05 760.291,671.526 760.331,671.001 760.363,670.476 760.386,669.95 760.399,669.423 760.404,668.897 760.404,133.123 760.399,132.597 760.386,132.071 760.363,131.545 760.331,131.019 760.291,130.494 760.241,129.97 760.182,129.447 760.114,128.925 760.037,128.404 759.951,127.885 759.856,127.367 759.752,126.851 759.639,126.337 759.518,125.825 759.387,125.315 759.248,124.807 759.1,124.302 758.944,123.799 758.779,123.3 758.605,122.803 758.422,122.309 758.231,121.818 758.032,121.331 757.824,120.847 757.608,120.367 757.384,119.891 757.151,119.419 756.911,118.951 756.662,118.487 756.406,118.027 756.141,117.572 755.869,117.121 755.589,116.676 755.301,116.235 755.006,115.799 754.703,115.368 754.393,114.943 754.075,114.523 753.751,114.109 753.419,113.7 753.08,113.297 752.734,112.9 752.382,112.509 752.023,112.124 751.657,111.746 751.285,111.373 750.906,111.008 750.521,110.648 750.13,110.296 749.733,109.95 749.33,109.611 748.922,109.28 748.507,108.955 748.087,108.638 747.662,108.327 747.231,108.025 746.796,107.729 746.355,107.442 745.909,107.162 745.458,106.889 745.003,106.625 744.544,106.368 744.08,106.12 743.612,105.879 743.139,105.646 742.663,105.422 742.183,105.206 741.699,104.998 741.212,104.799 740.721,104.608 740.228,104.426 739.731,104.252 739.231,104.087 738.728,103.93 738.223,103.782 737.716,103.643 737.206,103.512 736.693,103.391 736.179,103.278 735.663,103.174 735.145,103.079 734.626,102.994 734.105,102.917 733.583,102.849 733.06,102.79 732.536,102.74 732.011,102.699 731.486,102.667 730.96,102.644 730.433,102.631 729.907,102.626 513.325,102.626 512.799,102.631 512.273,102.644 511.747,102.667 511.221,102.699 510.696,102.74 510.172,102.79 509.649,102.849 509.127,102.917 508.606,102.994 508.087,103.079 507.569,103.174 507.053,103.278 506.539,103.391 506.027,103.512 505.517,103.643 505.009,103.782 504.504,103.93 504.001,104.087 503.502,104.252 503.005,104.426 502.511,104.608 502.02,104.799 501.533,104.998 501.049,105.206 500.569,105.422 500.093,105.646 499.621,105.879 499.153,106.12 498.689,106.368 498.229,106.625 497.774,106.889 497.323,107.162 496.878,107.442 496.437,107.729 496.001,108.025 495.57,108.327 495.145,108.638 494.725,108.955 494.311,109.28 493.902,109.611 493.499,109.95 493.102,110.296 492.711,110.648 492.326,111.008 491.948,111.373 491.575,111.746 491.21,112.124 490.85,112.509 490.498,112.9 490.152,113.297 489.814,113.7 489.482,114.109 489.157,114.523 488.84,114.943 488.53,115.368 488.227,115.799 487.931,116.235 487.644,116.676 487.364,117.121 487.091,117.572 486.827,118.027 486.57,118.487 486.322,118.951 486.081,119.419 485.848,119.891 485.624,120.367 485.408,120.847 485.2,121.331 485.001,121.818 484.81,122.309 484.628,122.803 484.454,123.3 484.289,123.799 484.132,124.302 483.984,124.807 483.845,125.315 483.714,125.825 483.593,126.337 483.48,126.851 483.376,127.367 483.281,127.885 483.196,128.404 483.119,128.925 483.051,129.447 482.992,129.97 482.942,130.494 482.901,131.019 482.869,131.545 482.846,132.071 482.833,132.597 482.828,133.123 482.828,668.897 482.833,669.423 482.846,669.95 482.869,670.476 482.901,671.001 482.942,671.526 482.992,672.05 483.051,672.573 483.119,673.095 483.196,673.616 483.281,674.135 483.376,674.653 483.48,675.169 483.593,675.683 483.714,676.195 483.845,676.705 483.984,677.213 484.132,677.718 484.289,678.221 484.454,678.721 484.628,679.218 484.81,679.711 485.001,680.202 485.2,680.689 485.408,681.173 485.624,681.653 485.848,682.129 486.081,682.601 486.322,683.07 486.57,683.534 486.827,683.993 487.091,684.448 487.364,684.899 487.644,685.345 487.931,685.785 488.227,686.221 488.53,686.652 488.84,687.077 489.157,687.497 489.482,687.911 489.814,688.32 490.152,688.723 490.498,689.12 490.85,689.511 491.21,689.896 491.575,690.275 491.948,690.647 492.326,691.013 492.711,691.372 493.102,691.724 493.499,692.07 493.902,692.409 494.311,692.74 494.725,693.065 495.145,693.383 495.57,693.693 496.001,693.995 496.437,694.291 496.878,694.578 497.323,694.859 497.774,695.131 498.229,695.395 498.689,695.652 499.153,695.901 499.621,696.141 500.093,696.374 500.569,696.598 501.049,696.814 501.533,697.022 502.02,697.221 502.511,697.412 503.005,697.595 503.502,697.768 504.001,697.934 504.504,698.09 505.009,698.238 505.517,698.377 506.027,698.508 506.539,698.629 507.053,698.742 507.569,698.846 508.087,698.941 508.606,699.027 509.127,699.104 509.649,699.172 510.172,699.231 510.696,699.28 511.221,699.321 511.747,699.353 512.273,699.376 512.799,699.389 513.325,699.394 729.907,699.394 730.433,699.389 730.96,699.376 731.486,699.353 732.011,699.321 732.536,699.28 733.06,699.231 733.583,699.172 734.105,699.104 734.626,699.027 735.145,698.941 735.663,698.846 736.179,698.742 736.693,698.629 737.206,698.508 737.716,698.377 738.223,698.238 738.728,698.09 739.231,697.934 739.731,697.768 740.228,697.595 740.721,697.412 741.212,697.221 741.699,697.022 742.183,696.814 742.663,696.598 743.139,696.374 743.612,696.141 744.08,695.901 744.544,695.652 745.003,695.395 745.458,695.131 "
         id="polygon30033"
         style="stroke:#80ffe6;stroke-opacity:1" />
      <polygon
         fill="none"
         stroke="#00b9d2"
         stroke-width="3.25"
         stroke-linecap="round"
         stroke-linejoin="round"
         stroke-miterlimit="10"
         points="758.4,122.25 758.263,121.897 758.121,121.546 757.975,121.195 757.824,120.846 757.668,120.497 757.507,120.15 757.342,119.804 757.172,119.459 756.997,119.116 756.818,118.775 756.634,118.435 756.445,118.096 756.252,117.76 756.054,117.426 755.851,117.093 755.644,116.763 755.433,116.435 755.217,116.109 754.997,115.786 754.772,115.465 754.543,115.147 754.309,114.831 754.071,114.518 753.83,114.208 753.583,113.901 753.333,113.597 753.079,113.296 752.821,112.998 752.559,112.703 752.293,112.412 752.023,112.124 751.749,111.84 751.472,111.559 751.191,111.281 750.906,111.008 750.618,110.738 750.327,110.472 750.032,110.21 749.734,109.951 749.433,109.697 749.129,109.447 748.822,109.201 748.512,108.959 748.199,108.721 747.884,108.488 747.565,108.259 747.244,108.034 746.921,107.813 746.595,107.597 746.267,107.386 745.937,107.179 745.605,106.977 745.27,106.779 744.934,106.585 744.596,106.397 744.256,106.213 743.914,106.033 743.571,105.859 743.226,105.689 742.88,105.523 742.533,105.363 742.185,105.207 741.835,105.056 741.484,104.909 741.133,104.768 740.781,104.631 740.427,104.498 740.074,104.371 739.719,104.248 739.365,104.13 739.01,104.016 738.654,103.908 738.299,103.803 737.943,103.704 737.587,103.609 737.231,103.519 736.876,103.433 736.52,103.352 736.165,103.275 735.811,103.203 735.456,103.135 735.103,103.072 734.75,103.013 734.397,102.959 734.045,102.908 733.695,102.862 733.344,102.821 732.995,102.783 732.647,102.75 732.3,102.72 731.955,102.695 731.61,102.674 731.267,102.657 730.925,102.643 730.584,102.634 730.245,102.628 729.907,102.626 513.325,102.626 512.988,102.628 512.648,102.634 512.308,102.643 511.966,102.657 511.622,102.674 511.278,102.695 510.932,102.72 510.585,102.75 510.237,102.783 509.888,102.821 509.538,102.862 509.187,102.908 508.835,102.959 508.483,103.013 508.13,103.072 507.776,103.135 507.422,103.203 507.067,103.275 506.712,103.352 506.357,103.433 506.001,103.519 505.645,103.609 505.289,103.704 504.934,103.803 504.578,103.908 504.223,104.016 503.868,104.13 503.513,104.248 503.159,104.371 502.805,104.498 502.452,104.631 502.099,104.768 501.748,104.909 501.397,105.056 501.048,105.207 500.699,105.363 500.352,105.523 500.006,105.689 499.661,105.859 499.318,106.033 498.977,106.213 498.637,106.397 498.298,106.585 497.962,106.779 497.628,106.977 497.295,107.179 496.965,107.386 496.637,107.597 496.311,107.813 495.988,108.034 495.667,108.259 495.349,108.488 495.033,108.721 494.72,108.959 494.41,109.201 494.103,109.447 493.799,109.697 493.498,109.951 493.2,110.21 492.905,110.472 492.614,110.738 492.326,111.008 492.042,111.281 491.761,111.559 491.483,111.84 491.21,112.124 490.94,112.412 490.674,112.703 490.412,112.998 490.153,113.296 489.899,113.597 489.649,113.901 489.403,114.208 489.161,114.518 488.923,114.831 488.69,115.147 488.461,115.465 488.236,115.786 488.015,116.109 487.799,116.435 487.588,116.763 487.381,117.093 487.179,117.426 486.981,117.76 486.787,118.096 486.599,118.435 486.415,118.775 486.235,119.116 486.061,119.459 485.891,119.804 485.725,120.15 485.565,120.497 485.409,120.846 485.258,121.195 485.111,121.546 484.97,121.897 484.833,122.25 484.7,122.603 484.573,122.957 484.45,123.311 484.332,123.666 484.218,124.021 484.11,124.376 484.005,124.732 483.906,125.087 483.811,125.443 483.721,125.799 483.635,126.155 483.554,126.51 483.477,126.865 483.405,127.22 483.337,127.574 483.274,127.928 483.215,128.281 483.161,128.633 483.11,128.985 483.064,129.336 483.023,129.686 482.985,130.035 482.952,130.383 482.922,130.73 482.897,131.076 482.876,131.42 482.859,131.764 482.845,132.106 482.836,132.446 482.83,132.786 482.828,133.208 482.828,268.523 480.808,268.523 480.808,318.361 482.828,318.361 482.828,668.897 482.832,669.347 482.842,669.799 482.858,670.253 482.882,670.71 482.913,671.169 482.951,671.631 482.996,672.094 483.049,672.559 483.109,673.025 483.177,673.493 483.252,673.963 483.335,674.433 483.426,674.904 483.525,675.376 483.631,675.849 483.746,676.322 483.822,676.618 483.901,676.915 483.984,677.212 484.069,677.508 484.158,677.805 484.25,678.101 484.346,678.397 484.444,678.693 484.546,678.988 484.651,679.283 484.76,679.578 484.871,679.872 484.986,680.165 485.105,680.458 485.226,680.751 485.351,681.043 485.479,681.334 485.611,681.624 485.745,681.913 485.883,682.202 486.025,682.489 486.169,682.775 486.317,683.061 486.468,683.345 486.622,683.628 486.78,683.91 486.94,684.191 487.104,684.47 487.271,684.748 487.441,685.024 487.615,685.299 487.791,685.573 487.971,685.845 488.154,686.115 488.339,686.383 488.528,686.65 488.72,686.915 488.915,687.178 489.112,687.439 489.313,687.698 489.517,687.955 489.723,688.211 489.933,688.464 490.145,688.714 490.36,688.963 490.577,689.21 490.798,689.454 491.021,689.695 491.247,689.935 491.475,690.172 491.706,690.406 491.939,690.639 492.175,690.868 492.413,691.095 492.654,691.319 492.897,691.541 493.142,691.76 493.39,691.976 493.64,692.19 493.892,692.4 494.146,692.608 494.402,692.813 494.66,693.015 494.921,693.214 495.183,693.411 495.447,693.604 495.713,693.794 495.98,693.981 496.25,694.165 496.521,694.346 496.793,694.524 497.068,694.699 497.343,694.871 497.621,695.039 497.899,695.205 498.179,695.367 498.46,695.526 498.743,695.682 499.027,695.834 499.312,695.984 499.598,696.13 499.885,696.272 500.173,696.412 500.462,696.548 500.751,696.681 501.042,696.811 501.333,696.937 501.625,697.06 501.918,697.18 502.212,697.297 502.505,697.41 502.8,697.52 503.095,697.627 503.39,697.73 503.686,697.83 503.981,697.927 504.278,698.021 504.574,698.111 504.87,698.199 505.167,698.282 505.464,698.363 505.76,698.441 506.057,698.515 506.353,698.586 506.649,698.654 506.946,698.719 507.241,698.781 507.537,698.84 507.832,698.895 508.127,698.948 508.422,698.997 508.716,699.044 509.009,699.087 509.302,699.127 509.594,699.165 509.886,699.199 510.177,699.231 510.468,699.26 510.757,699.286 511.046,699.309 511.334,699.329 511.622,699.346 511.908,699.361 512.193,699.373 512.478,699.382 512.761,699.389 513.044,699.393 513.325,699.394 729.907,699.394 730.189,699.393 730.471,699.389 730.755,699.382 731.039,699.373 731.324,699.361 731.611,699.346 731.898,699.329 732.186,699.309 732.475,699.286 732.765,699.26 733.055,699.231 733.346,699.199 733.638,699.165 733.93,699.127 734.223,699.087 734.517,699.044 734.811,698.997 735.105,698.948 735.4,698.895 735.695,698.84 735.991,698.781 736.287,698.719 736.583,698.654 736.879,698.586 737.176,698.515 737.472,698.441 737.769,698.363 738.065,698.282 738.362,698.199 738.658,698.111 738.955,698.021 739.251,697.927 739.547,697.83 739.842,697.73 740.138,697.627 740.432,697.52 740.727,697.41 741.021,697.297 741.314,697.18 741.607,697.06 741.899,696.937 742.19,696.811 742.481,696.681 742.771,696.548 743.06,696.412 743.348,696.272 743.635,696.13 743.921,695.984 744.206,695.834 744.489,695.682 744.772,695.526 745.053,695.367 745.333,695.205 745.612,695.039 745.889,694.871 746.165,694.699 746.439,694.524 746.712,694.346 746.983,694.165 747.252,693.981 747.52,693.794 747.786,693.604 748.05,693.411 748.312,693.214 748.572,693.015 748.83,692.813 749.086,692.608 749.341,692.4 749.593,692.19 749.842,691.976 750.09,691.76 750.335,691.541 750.578,691.319 750.819,691.095 751.057,690.868 751.293,690.639 751.527,690.406 751.758,690.172 751.986,689.935 752.211,689.695 752.435,689.454 752.655,689.21 752.873,688.963 753.088,688.714 753.3,688.464 753.509,688.211 753.716,687.955 753.919,687.698 754.12,687.439 754.318,687.178 754.512,686.915 754.704,686.65 754.893,686.383 755.079,686.115 755.261,685.845 755.441,685.573 755.617,685.299 755.791,685.024 755.961,684.748 756.128,684.47 756.292,684.191 756.453,683.91 756.61,683.628 756.764,683.345 756.915,683.061 757.063,682.775 757.208,682.489 757.349,682.202 757.487,681.913 757.622,681.624 757.753,681.334 757.881,681.043 758.006,680.751 758.128,680.458 758.246,680.165 758.361,679.872 758.473,679.578 758.581,679.283 758.686,678.988 758.788,678.693 758.887,678.397 758.982,678.101 759.074,677.805 759.163,677.508 759.249,677.212 759.331,676.915 759.41,676.618 759.486,676.322 759.601,675.849 759.708,675.376 759.807,674.904 759.897,674.433 759.98,673.963 760.056,673.493 760.123,673.025 760.183,672.559 760.236,672.094 760.281,671.631 760.319,671.169 760.35,670.71 760.374,670.253 760.391,669.799 760.401,669.347 760.404,668.897 760.404,353.461 762.424,353.461 762.424,303.623 760.404,303.623 760.404,273.429 762.424,273.429 762.424,188.985 760.404,188.985 760.404,133.123 760.402,132.786 760.397,132.446 760.387,132.106 760.374,131.764 760.356,131.42 760.335,131.076 760.31,130.73 760.281,130.383 760.247,130.035 760.21,129.686 760.168,129.336 760.122,128.985 760.072,128.633 760.017,128.281 759.958,127.928 759.895,127.574 759.827,127.22 759.755,126.865 759.678,126.51 759.597,126.155 759.511,125.799 759.421,125.443 759.326,125.087 759.227,124.732 759.123,124.376 759.014,124.021 758.901,123.666 758.782,123.311 758.66,122.957 758.532,122.603 "
         id="polygon30082"
         style="stroke:#80ffe6;stroke-opacity:1" />
    </g>
  </g>
</svg>
