<?xml version="1.0" encoding="UTF-8" standalone="no"?>
<svg
   xmlns:dc="http://purl.org/dc/elements/1.1/"
   xmlns:cc="http://creativecommons.org/ns#"
   xmlns:rdf="http://www.w3.org/1999/02/22-rdf-syntax-ns#"
   xmlns:svg="http://www.w3.org/2000/svg"
   xmlns="http://www.w3.org/2000/svg"
   xmlns:sodipodi="http://sodipodi.sourceforge.net/DTD/sodipodi-0.dtd"
   xmlns:inkscape="http://www.inkscape.org/namespaces/inkscape"
   width="15mm"
   height="31.519695mm"
   viewBox="0 0 15.000001 31.519697"
   version="1.1"
   id="svg4830"
   inkscape:version="1.0.2 (e86c8708, 2021-01-15)"
   sodipodi:docname="s9plus.svg">
  <defs
     id="defs4824" />
  <sodipodi:namedview
     id="base"
     pagecolor="#ffffff"
     bordercolor="#666666"
     borderopacity="1.0"
     inkscape:pageopacity="0.0"
     inkscape:pageshadow="2"
     inkscape:zoom="3.8813991"
     inkscape:cx="39.255637"
     inkscape:cy="76.303081"
     inkscape:document-units="mm"
     inkscape:current-layer="layer1"
     inkscape:document-rotation="0"
     showgrid="false"
     inkscape:window-width="1440"
     inkscape:window-height="872"
     inkscape:window-x="0"
     inkscape:window-y="28"
     inkscape:window-maximized="0" />
  <metadata
     id="metadata4827">
    <rdf:RDF>
      <cc:Work
         rdf:about="">
        <dc:format>image/svg+xml</dc:format>
        <dc:type
           rdf:resource="http://purl.org/dc/dcmitype/StillImage" />
        <dc:title></dc:title>
      </cc:Work>
    </rdf:RDF>
  </metadata>
  <g
     inkscape:label="Layer 1"
     inkscape:groupmode="layer"
     id="layer1"
     transform="translate(-73.254347,-123.06515)">
    <g
       id="g29620"
       transform="matrix(0.05110628,0,0,0.05110628,49.032781,118.92861)"
       style="stroke:#80ffe6;stroke-opacity:1">
      <path
         fill="none"
         stroke="#00b9d2"
         stroke-width="2"
         stroke-linecap="round"
         stroke-linejoin="round"
         stroke-miterlimit="10"
         d="m 678.587,178.375 v -0.059 l -10e-4,-0.059 c 0,0 -0.002,-0.06 -0.002,-0.06 l -0.002,-0.06 c 0,0 -0.003,-0.06 -0.003,-0.06 l -0.004,-0.06 -0.004,-0.06 -0.005,-0.061 -0.006,-0.061 -0.007,-0.061 -0.007,-0.061 -0.008,-0.061 -0.009,-0.061 -0.01,-0.062 -0.01,-0.062 -0.011,-0.062 -0.012,-0.062 -0.013,-0.062 c 0,0 -0.013,-0.062 -0.013,-0.062 0,0 -0.014,-0.062 -0.014,-0.062 l -0.015,-0.062 -0.016,-0.062 -0.017,-0.062 -0.017,-0.062 -0.018,-0.062 -0.019,-0.062 -0.02,-0.062 -0.021,-0.062 -0.021,-0.062 -0.022,-0.062 -0.023,-0.062 -0.024,-0.062 -0.025,-0.061 -0.026,-0.061 -0.026,-0.061 c 0,0 -0.027,-0.061 -0.027,-0.061 l -0.028,-0.061 -0.029,-0.06 -0.03,-0.06 -0.031,-0.06 -0.031,-0.06 -0.032,-0.059 -0.033,-0.059 -0.034,-0.059 -0.035,-0.058 c 0,0 -0.035,-0.058 -0.035,-0.058 l -0.036,-0.058 -0.037,-0.057 -0.038,-0.057 -0.039,-0.057 c -0.039,-0.056 -0.079,-0.112 -0.079,-0.112 -0.041,-0.055 -0.082,-0.11 -0.082,-0.11 -0.042,-0.054 -0.085,-0.108 -0.085,-0.108 -0.044,-0.053 -0.088,-0.106 -0.088,-0.106 -0.045,-0.052 -0.091,-0.104 -0.091,-0.104 -0.047,-0.051 -0.094,-0.101 -0.094,-0.101 -0.048,-0.05 -0.096,-0.099 -0.096,-0.099 -0.049,-0.048 -0.099,-0.096 -0.099,-0.096 -0.05,-0.047 -0.101,-0.094 -0.101,-0.094 -0.052,-0.046 -0.104,-0.091 -0.104,-0.091 -0.053,-0.044 -0.106,-0.088 -0.106,-0.088 -0.054,-0.043 -0.108,-0.085 -0.108,-0.085 -0.055,-0.042 -0.11,-0.082 -0.11,-0.082 -0.056,-0.04 -0.112,-0.079 -0.112,-0.079 l -0.057,-0.039 -0.057,-0.038 -0.057,-0.037 -0.058,-0.036 -0.057,-0.037 -0.058,-0.035 -0.059,-0.034 -0.059,-0.033 -0.059,-0.032 c 0,0 -0.06,-0.031 -0.06,-0.031 l -0.06,-0.031 -0.06,-0.03 c 0,0 -0.06,-0.029 -0.06,-0.029 l -0.061,-0.028 c 0,0 -0.061,-0.027 -0.061,-0.027 l -0.061,-0.026 -0.061,-0.026 -0.061,-0.025 -0.062,-0.024 -0.062,-0.023 -0.062,-0.022 -0.062,-0.021 -0.062,-0.021 -0.062,-0.02 c 0,0 -0.062,-0.019 -0.062,-0.019 l -0.062,-0.018 -0.062,-0.017 -0.062,-0.017 -0.062,-0.016 -0.062,-0.015 -0.062,-0.014 -0.062,-0.013 -0.062,-0.013 -0.062,-0.012 -0.062,-0.011 -0.062,-0.01 -0.062,-0.01 c 0,0 -0.062,-0.009 -0.062,-0.009 l -0.061,-0.008 c 0,0 -0.061,-0.007 -0.061,-0.007 l -0.061,-0.007 -0.061,-0.006 -0.061,-0.005 -0.06,-0.004 -0.06,-0.004 -0.06,-0.003 -0.06,-0.002 -0.06,-0.002 -0.059,-0.001 h -0.059 -2.8 -0.059 l -0.059,0.001 -0.06,0.002 -0.06,0.002 c 0,0 -0.06,0.003 -0.06,0.003 l -0.06,0.004 -0.06,0.004 -0.061,0.005 -0.061,0.006 c 0,0 -0.061,0.007 -0.061,0.007 l -0.061,0.007 c 0,0 -0.061,0.008 -0.061,0.008 l -0.061,0.009 -0.062,0.01 -0.062,0.01 c 0,0 -0.062,0.011 -0.062,0.011 l -0.062,0.012 -0.062,0.013 -0.062,0.013 -0.062,0.014 -0.062,0.015 -0.062,0.016 -0.062,0.017 -0.062,0.017 -0.062,0.018 c 0,0 -0.062,0.019 -0.062,0.019 l -0.062,0.02 c 0,0 -0.062,0.021 -0.062,0.021 l -0.062,0.021 -0.062,0.022 -0.062,0.023 -0.062,0.024 -0.061,0.025 -0.061,0.026 -0.061,0.026 -0.061,0.027 c 0,0 -0.061,0.028 -0.061,0.028 l -0.06,0.029 c 0,0 -0.06,0.03 -0.06,0.03 l -0.06,0.031 -0.06,0.031 c 0,0 -0.059,0.032 -0.059,0.032 l -0.059,0.033 -0.059,0.034 -0.058,0.035 -0.058,0.035 -0.058,0.036 -0.057,0.037 -0.057,0.038 -0.057,0.039 c -0.056,0.039 -0.112,0.079 -0.112,0.079 -0.055,0.041 -0.11,0.082 -0.11,0.082 -0.054,0.042 -0.108,0.085 -0.108,0.085 -0.053,0.044 -0.106,0.088 -0.106,0.088 -0.052,0.045 -0.104,0.091 -0.104,0.091 -0.051,0.047 -0.101,0.094 -0.101,0.094 -0.05,0.048 -0.099,0.096 -0.099,0.096 -0.049,0.049 -0.096,0.099 -0.096,0.099 -0.047,0.05 -0.094,0.101 -0.094,0.101 -0.046,0.052 -0.091,0.104 -0.091,0.104 -0.044,0.053 -0.088,0.106 -0.088,0.106 -0.043,0.054 -0.085,0.108 -0.085,0.108 -0.042,0.055 -0.082,0.11 -0.082,0.11 -0.04,0.056 -0.079,0.112 -0.079,0.112 l -0.039,0.057 -0.038,0.057 c 0,0 -0.037,0.057 -0.037,0.057 l -0.036,0.058 -0.035,0.058 -0.035,0.058 -0.034,0.059 -0.033,0.059 -0.032,0.059 -0.031,0.06 -0.031,0.06 -0.03,0.06 -0.029,0.06 -0.028,0.061 c 0,0 -0.027,0.061 -0.027,0.061 0,0 -0.026,0.061 -0.026,0.061 l -0.026,0.061 c 0,0 -0.025,0.061 -0.025,0.061 l -0.024,0.062 -0.023,0.062 -0.022,0.062 -0.021,0.062 -0.021,0.062 -0.02,0.062 -0.019,0.062 -0.018,0.062 -0.017,0.062 -0.017,0.062 -0.016,0.062 c 0,0 -0.015,0.062 -0.015,0.062 l -0.014,0.062 -0.013,0.062 -0.013,0.062 c 0,0 -0.012,0.062 -0.012,0.062 l -0.011,0.062 -0.01,0.062 -0.01,0.062 -0.009,0.061 -0.008,0.061 -0.007,0.061 -0.007,0.061 -0.006,0.061 -0.005,0.061 c 0,0 -0.004,0.06 -0.004,0.06 0,0 -0.004,0.06 -0.004,0.06 l -0.003,0.06 -0.002,0.06 -0.002,0.06 -0.001,0.059 v 0.059 c 0,0 0,3.639 0,3.639 l 0.001,0.092 c 0,0 0.002,0.092 0.002,0.092 l 0.004,0.092 0.006,0.092 0.007,0.092 0.009,0.092 0.01,0.091 0.012,0.091 c 0,0 0.013,0.091 0.013,0.091 l 0.015,0.091 0.017,0.091 0.018,0.09 0.02,0.09 c 0,0 0.021,0.09 0.021,0.09 l 0.023,0.089 0.024,0.089 0.026,0.088 0.027,0.088 0.029,0.087 0.03,0.087 0.032,0.086 0.033,0.086 0.035,0.085 0.036,0.085 0.038,0.084 0.039,0.083 0.041,0.083 0.042,0.082 0.043,0.081 0.045,0.08 0.046,0.08 0.048,0.079 0.049,0.078 0.05,0.077 0.052,0.076 0.053,0.075 c 0,0 0.054,0.074 0.054,0.074 0,0 0.056,0.073 0.056,0.073 l 0.057,0.072 c 0,0 0.058,0.071 0.058,0.071 l 0.059,0.07 c 0,0 0.06,0.069 0.06,0.069 l 0.062,0.068 c 0,0 0.063,0.067 0.063,0.067 l 0.064,0.066 0.065,0.065 0.066,0.064 0.067,0.063 0.068,0.062 0.069,0.06 0.07,0.059 0.071,0.058 0.072,0.057 0.073,0.055 0.074,0.054 c 0,0 0.075,0.053 0.075,0.053 l 0.076,0.052 0.077,0.05 0.078,0.049 0.079,0.048 0.08,0.046 0.08,0.045 0.081,0.043 0.082,0.042 0.083,0.041 c 0,0 0.083,0.039 0.083,0.039 l 0.084,0.038 0.085,0.036 0.085,0.035 c 0,0 0.086,0.033 0.086,0.033 l 0.086,0.032 c 0,0 0.087,0.03 0.087,0.03 l 0.087,0.029 0.088,0.027 0.088,0.026 0.089,0.024 c 0,0 0.089,0.023 0.089,0.023 l 0.09,0.021 0.09,0.02 0.09,0.018 c 0,0 0.091,0.017 0.091,0.017 l 0.091,0.015 0.091,0.013 0.091,0.012 0.091,0.01 0.092,0.009 0.092,0.007 0.092,0.006 0.092,0.004 0.092,0.002 0.092,0.001 h 2.8 l 0.092,-0.001 0.092,-0.002 0.092,-0.004 0.092,-0.006 0.092,-0.007 0.092,-0.009 0.091,-0.01 0.091,-0.012 0.091,-0.013 0.091,-0.015 0.091,-0.017 c 0,0 0.09,-0.018 0.09,-0.018 l 0.09,-0.02 0.09,-0.021 0.089,-0.023 0.089,-0.024 0.088,-0.026 0.088,-0.027 0.087,-0.029 0.087,-0.03 0.086,-0.032 0.086,-0.033 c 0,0 0.085,-0.035 0.085,-0.035 l 0.085,-0.036 0.084,-0.038 0.083,-0.039 0.083,-0.041 0.082,-0.042 0.081,-0.043 0.08,-0.045 0.08,-0.046 0.079,-0.048 0.078,-0.049 0.077,-0.05 0.076,-0.052 0.075,-0.053 c 0,0 0.074,-0.054 0.074,-0.054 l 0.073,-0.055 0.072,-0.057 c 0,0 0.071,-0.058 0.071,-0.058 l 0.07,-0.059 0.069,-0.06 0.068,-0.062 0.067,-0.063 0.066,-0.064 0.065,-0.065 0.064,-0.066 0.063,-0.067 0.062,-0.068 c 0,0 0.06,-0.069 0.06,-0.069 l 0.059,-0.07 0.058,-0.071 c 0,0 0.057,-0.072 0.057,-0.072 l 0.055,-0.073 0.054,-0.074 c 0,0 0.053,-0.075 0.053,-0.075 l 0.052,-0.076 0.05,-0.077 0.049,-0.078 0.048,-0.079 0.046,-0.08 0.045,-0.08 0.043,-0.081 0.042,-0.082 0.041,-0.083 c 0,0 0.039,-0.083 0.039,-0.083 l 0.038,-0.084 0.036,-0.085 0.035,-0.085 0.033,-0.086 0.032,-0.086 0.03,-0.087 0.029,-0.087 0.027,-0.088 0.026,-0.088 c 0,0 0.024,-0.089 0.024,-0.089 l 0.023,-0.089 0.021,-0.09 0.02,-0.09 0.018,-0.09 0.017,-0.091 0.015,-0.091 c 0,0 0.013,-0.091 0.013,-0.091 0,0 0.012,-0.091 0.012,-0.091 l 0.01,-0.091 0.009,-0.092 0.007,-0.092 0.006,-0.092 c 0,0 0.004,-0.092 0.004,-0.092 l 0.002,-0.092 c 0,0 10e-4,-0.092 10e-4,-0.092 0,0 0.003,-3.637 0.003,-3.637 z"
         id="path28785"
         style="stroke:#80ffe6;stroke-opacity:1" />
      <path
         fill="none"
         stroke="#00b9d2"
         stroke-width="2"
         stroke-linecap="round"
         stroke-linejoin="round"
         stroke-miterlimit="10"
         d="m 678.587,212.304 v 0.059 l -10e-4,0.059 -0.002,0.06 -0.002,0.06 -0.003,0.06 -0.004,0.06 -0.004,0.06 -0.005,0.061 -0.006,0.061 -0.007,0.061 -0.007,0.061 -0.008,0.061 -0.009,0.061 -0.01,0.062 -0.01,0.062 -0.011,0.062 -0.012,0.062 -0.013,0.062 -0.013,0.062 -0.014,0.062 c 0,0 -0.015,0.062 -0.015,0.062 l -0.016,0.062 -0.017,0.062 -0.017,0.062 -0.018,0.062 -0.019,0.062 -0.02,0.062 -0.021,0.062 -0.021,0.062 -0.022,0.062 -0.023,0.062 -0.024,0.062 -0.025,0.061 -0.026,0.061 -0.026,0.061 -0.027,0.061 -0.028,0.061 -0.029,0.06 -0.03,0.06 c 0,0 -0.031,0.06 -0.031,0.06 l -0.031,0.06 -0.032,0.059 c 0,0 -0.033,0.059 -0.033,0.059 l -0.034,0.059 -0.035,0.058 -0.035,0.058 -0.036,0.058 -0.037,0.057 -0.038,0.057 -0.039,0.057 c -0.039,0.056 -0.079,0.112 -0.079,0.112 -0.041,0.055 -0.082,0.11 -0.082,0.11 -0.042,0.054 -0.085,0.108 -0.085,0.108 -0.044,0.053 -0.088,0.106 -0.088,0.106 -0.045,0.052 -0.091,0.104 -0.091,0.104 -0.047,0.051 -0.094,0.101 -0.094,0.101 -0.048,0.05 -0.096,0.099 -0.096,0.099 -0.049,0.048 -0.099,0.096 -0.099,0.096 -0.05,0.047 -0.101,0.094 -0.101,0.094 -0.052,0.046 -0.104,0.091 -0.104,0.091 -0.053,0.044 -0.106,0.088 -0.106,0.088 -0.054,0.043 -0.108,0.085 -0.108,0.085 -0.055,0.042 -0.11,0.082 -0.11,0.082 -0.056,0.04 -0.112,0.079 -0.112,0.079 l -0.057,0.039 -0.057,0.038 -0.057,0.037 -0.058,0.036 -0.057,0.037 -0.058,0.035 -0.059,0.034 -0.059,0.033 -0.059,0.032 -0.06,0.031 -0.06,0.031 -0.06,0.03 -0.06,0.029 -0.061,0.028 -0.061,0.027 -0.061,0.026 -0.061,0.026 c 0,0 -0.061,0.025 -0.061,0.025 l -0.062,0.024 -0.062,0.023 -0.062,0.022 -0.062,0.021 -0.062,0.021 -0.062,0.02 -0.062,0.019 -0.062,0.018 -0.062,0.017 -0.062,0.017 -0.062,0.016 -0.062,0.015 -0.062,0.014 c 0,0 -0.062,0.013 -0.062,0.013 0,0 -0.062,0.013 -0.062,0.013 l -0.062,0.012 -0.062,0.011 -0.062,0.01 -0.062,0.01 -0.062,0.009 -0.061,0.008 -0.061,0.007 c 0,0 -0.061,0.007 -0.061,0.007 l -0.061,0.006 c 0,0 -0.061,0.005 -0.061,0.005 0,0 -0.06,0.004 -0.06,0.004 0,0 -0.06,0.004 -0.06,0.004 0,0 -0.06,0.003 -0.06,0.003 l -0.06,0.002 -0.06,0.002 -0.059,0.001 h -0.059 -2.8 -0.059 l -0.059,-0.001 c 0,0 -0.06,-0.002 -0.06,-0.002 l -0.06,-0.002 -0.06,-0.003 -0.06,-0.004 c 0,0 -0.06,-0.004 -0.06,-0.004 0,0 -0.061,-0.005 -0.061,-0.005 0,0 -0.061,-0.006 -0.061,-0.006 l -0.061,-0.007 c 0,0 -0.061,-0.007 -0.061,-0.007 l -0.061,-0.008 -0.061,-0.009 -0.062,-0.01 c 0,0 -0.062,-0.01 -0.062,-0.01 l -0.062,-0.011 -0.062,-0.012 -0.062,-0.013 c 0,0 -0.062,-0.013 -0.062,-0.013 0,0 -0.062,-0.014 -0.062,-0.014 l -0.062,-0.015 -0.062,-0.016 -0.062,-0.017 -0.062,-0.017 -0.062,-0.018 -0.062,-0.019 -0.062,-0.02 -0.062,-0.021 -0.062,-0.021 -0.062,-0.022 -0.062,-0.023 -0.062,-0.024 -0.061,-0.025 c 0,0 -0.061,-0.026 -0.061,-0.026 l -0.061,-0.026 c 0,0 -0.061,-0.027 -0.061,-0.027 l -0.061,-0.028 -0.06,-0.029 -0.06,-0.03 -0.06,-0.031 -0.06,-0.031 -0.059,-0.032 -0.059,-0.033 -0.059,-0.034 -0.058,-0.035 -0.058,-0.035 -0.058,-0.036 -0.057,-0.037 -0.057,-0.038 -0.057,-0.039 c -0.056,-0.039 -0.112,-0.079 -0.112,-0.079 -0.055,-0.041 -0.11,-0.082 -0.11,-0.082 -0.054,-0.042 -0.108,-0.085 -0.108,-0.085 -0.053,-0.044 -0.106,-0.088 -0.106,-0.088 -0.052,-0.045 -0.104,-0.091 -0.104,-0.091 -0.051,-0.047 -0.101,-0.094 -0.101,-0.094 -0.05,-0.048 -0.099,-0.096 -0.099,-0.096 -0.049,-0.049 -0.096,-0.099 -0.096,-0.099 -0.047,-0.05 -0.094,-0.101 -0.094,-0.101 -0.046,-0.052 -0.091,-0.104 -0.091,-0.104 -0.044,-0.053 -0.088,-0.106 -0.088,-0.106 -0.043,-0.054 -0.085,-0.108 -0.085,-0.108 -0.042,-0.055 -0.082,-0.11 -0.082,-0.11 -0.04,-0.056 -0.079,-0.112 -0.079,-0.112 l -0.039,-0.057 -0.038,-0.057 -0.037,-0.057 -0.036,-0.058 -0.035,-0.058 -0.035,-0.058 -0.034,-0.059 -0.033,-0.059 c 0,0 -0.032,-0.059 -0.032,-0.059 l -0.031,-0.06 -0.031,-0.06 c 0,0 -0.03,-0.06 -0.03,-0.06 l -0.029,-0.06 -0.028,-0.061 -0.027,-0.061 -0.026,-0.061 -0.026,-0.061 -0.025,-0.061 -0.024,-0.062 -0.023,-0.062 -0.022,-0.062 -0.021,-0.062 c 0,0 -0.021,-0.062 -0.021,-0.062 l -0.02,-0.062 -0.019,-0.062 -0.018,-0.062 c 0,0 -0.017,-0.062 -0.017,-0.062 l -0.017,-0.062 -0.016,-0.062 -0.015,-0.062 c 0,0 -0.014,-0.062 -0.014,-0.062 l -0.013,-0.062 -0.013,-0.062 -0.012,-0.062 -0.011,-0.062 -0.01,-0.062 -0.01,-0.062 -0.009,-0.061 -0.008,-0.061 -0.007,-0.061 -0.007,-0.061 c 0,0 -0.006,-0.061 -0.006,-0.061 l -0.005,-0.061 -0.004,-0.06 c 0,0 -0.004,-0.06 -0.004,-0.06 l -0.003,-0.06 -0.002,-0.06 -0.002,-0.06 c 0,0 -0.001,-0.059 -0.001,-0.059 v -0.059 -15.438 c 0,0 0.001,-0.092 0.001,-0.092 l 0.002,-0.092 c 0,0 0.004,-0.092 0.004,-0.092 l 0.006,-0.092 0.007,-0.092 c 0,0 0.009,-0.092 0.009,-0.092 l 0.01,-0.091 0.012,-0.091 0.013,-0.091 0.015,-0.091 0.017,-0.091 0.018,-0.09 0.02,-0.09 c 0,0 0.021,-0.09 0.021,-0.09 l 0.023,-0.089 0.024,-0.089 0.026,-0.088 0.027,-0.088 0.029,-0.087 0.03,-0.087 0.032,-0.086 0.033,-0.086 0.035,-0.085 0.036,-0.085 0.038,-0.084 0.039,-0.083 0.041,-0.083 c 0,0 0.042,-0.082 0.042,-0.082 l 0.043,-0.081 0.045,-0.08 0.046,-0.08 0.048,-0.079 0.049,-0.078 0.05,-0.077 c 0,0 0.052,-0.076 0.052,-0.076 l 0.053,-0.075 0.054,-0.074 c 0,0 0.056,-0.073 0.056,-0.073 l 0.057,-0.072 0.058,-0.071 0.059,-0.07 0.06,-0.069 0.062,-0.068 0.063,-0.067 0.064,-0.066 0.065,-0.065 0.066,-0.064 0.067,-0.063 0.068,-0.062 0.069,-0.06 c 0,0 0.07,-0.059 0.07,-0.059 0,0 0.071,-0.058 0.071,-0.058 l 0.072,-0.057 0.073,-0.055 0.074,-0.054 0.075,-0.053 c 0,0 0.076,-0.052 0.076,-0.052 l 0.077,-0.05 0.078,-0.049 0.079,-0.048 0.08,-0.046 0.08,-0.045 0.081,-0.043 0.082,-0.042 0.083,-0.041 0.083,-0.039 0.084,-0.038 0.085,-0.036 0.085,-0.035 0.086,-0.033 0.086,-0.032 0.087,-0.03 0.087,-0.029 0.088,-0.027 c 0,0 0.088,-0.026 0.088,-0.026 0,0 0.089,-0.024 0.089,-0.024 l 0.089,-0.023 0.09,-0.021 0.09,-0.02 c 0,0 0.09,-0.018 0.09,-0.018 l 0.091,-0.017 0.091,-0.015 0.091,-0.013 0.091,-0.012 0.091,-0.01 0.092,-0.009 0.092,-0.007 0.092,-0.006 0.092,-0.004 c 0,0 0.092,-0.002 0.092,-0.002 l 0.092,-0.001 h 2.8 l 0.092,0.001 0.092,0.002 c 0,0 0.092,0.004 0.092,0.004 l 0.092,0.006 0.092,0.007 0.092,0.009 0.091,0.01 0.091,0.012 0.091,0.013 0.091,0.015 0.091,0.017 0.09,0.018 0.09,0.02 0.09,0.021 0.089,0.023 0.089,0.024 0.088,0.026 c 0,0 0.088,0.027 0.088,0.027 l 0.087,0.029 0.087,0.03 0.086,0.032 0.086,0.033 0.085,0.035 0.085,0.036 0.084,0.038 0.083,0.039 0.083,0.041 0.082,0.042 0.081,0.043 0.08,0.045 0.08,0.046 0.079,0.048 c 0,0 0.078,0.049 0.078,0.049 l 0.077,0.05 0.076,0.052 c 0,0 0.075,0.053 0.075,0.053 l 0.074,0.054 0.073,0.055 0.072,0.057 c 0,0 0.071,0.058 0.071,0.058 0,0 0.07,0.059 0.07,0.059 0,0 0.069,0.06 0.069,0.06 l 0.068,0.062 0.067,0.063 0.066,0.064 0.065,0.065 0.064,0.066 0.063,0.067 0.062,0.068 0.06,0.069 0.059,0.07 0.058,0.071 0.057,0.072 0.055,0.073 0.054,0.074 0.053,0.075 0.052,0.076 0.05,0.077 0.049,0.078 0.048,0.079 0.046,0.08 0.045,0.08 0.043,0.081 0.042,0.082 0.041,0.083 0.039,0.083 0.038,0.084 0.036,0.085 0.035,0.085 0.033,0.086 0.032,0.086 0.03,0.087 0.029,0.087 0.027,0.088 0.026,0.088 c 0,0 0.024,0.089 0.024,0.089 l 0.023,0.089 0.021,0.09 0.02,0.09 0.018,0.09 0.017,0.091 0.015,0.091 c 0,0 0.013,0.091 0.013,0.091 l 0.012,0.091 0.01,0.091 0.009,0.092 0.007,0.092 0.006,0.092 0.004,0.092 c 0,0 0.002,0.092 0.002,0.092 l 10e-4,0.092 v 15.436 z"
         id="path28788"
         style="stroke:#80ffe6;stroke-opacity:1" />
      <path
         fill="none"
         stroke="#00b9d2"
         stroke-width="2"
         stroke-linecap="round"
         stroke-linejoin="round"
         stroke-miterlimit="10"
         d="m 616.661,214.14 -0.076,0.001 -0.076,0.002 -0.076,0.003 -0.076,0.005 -0.076,0.006 -0.076,0.007 -0.076,0.009 -0.076,0.01 -0.076,0.011 -0.075,0.012 -0.075,0.014 -0.075,0.015 -0.075,0.016 c 0,0 -0.074,0.018 -0.074,0.018 l -0.074,0.019 -0.074,0.02 -0.073,0.021 -0.073,0.023 -0.073,0.024 -0.072,0.025 -0.072,0.026 -0.071,0.028 -0.071,0.029 -0.07,0.03 -0.07,0.031 -0.069,0.033 -0.069,0.034 -0.068,0.035 -0.067,0.036 -0.067,0.037 c 0,0 -0.066,0.038 -0.066,0.038 l -0.065,0.04 -0.065,0.041 -0.064,0.042 -0.063,0.043 c 0,0 -0.063,0.044 -0.063,0.044 l -0.062,0.045 -0.061,0.046 -0.06,0.047 -0.059,0.048 -0.059,0.049 -0.058,0.05 -0.057,0.051 c -0.056,0.052 -0.111,0.105 -0.111,0.105 -0.054,0.054 -0.107,0.109 -0.107,0.109 -0.052,0.056 -0.103,0.113 -0.103,0.113 l -0.05,0.058 -0.049,0.058 c 0,0 -0.048,0.059 -0.048,0.059 l -0.047,0.06 -0.046,0.061 -0.045,0.062 c 0,0 -0.044,0.062 -0.044,0.062 l -0.043,0.063 -0.042,0.064 -0.041,0.065 -0.04,0.065 -0.038,0.066 -0.037,0.067 -0.036,0.067 -0.035,0.068 -0.034,0.069 -0.033,0.069 -0.031,0.07 -0.03,0.07 c 0,0 -0.029,0.071 -0.029,0.071 l -0.028,0.071 -0.026,0.072 -0.025,0.072 -0.024,0.073 -0.023,0.073 c 0,0 -0.021,0.073 -0.021,0.073 l -0.02,0.074 -0.019,0.074 -0.018,0.074 c 0,0 -0.016,0.075 -0.016,0.075 l -0.015,0.075 -0.014,0.075 -0.012,0.075 -0.011,0.076 c 0,0 -0.01,0.076 -0.01,0.076 l -0.009,0.076 -0.007,0.076 -0.006,0.076 c 0,0 -0.005,0.076 -0.005,0.076 l -0.003,0.076 -0.002,0.076 c 0,0 -10e-4,0.076 -10e-4,0.076 v 8.736 l 10e-4,0.076 0.002,0.076 0.003,0.076 c 0,0 0.005,0.076 0.005,0.076 l 0.006,0.076 0.007,0.076 0.009,0.076 0.01,0.076 c 0,0 0.011,0.076 0.011,0.076 l 0.012,0.075 0.014,0.075 0.015,0.075 0.016,0.075 0.018,0.074 0.019,0.074 0.02,0.074 0.021,0.073 0.023,0.073 c 0,0 0.024,0.073 0.024,0.073 l 0.025,0.072 c 0,0 0.026,0.072 0.026,0.072 0,0 0.028,0.071 0.028,0.071 l 0.029,0.071 0.03,0.07 0.031,0.07 0.033,0.069 c 0,0 0.034,0.069 0.034,0.069 l 0.035,0.068 c 0,0 0.036,0.067 0.036,0.067 l 0.037,0.067 0.038,0.066 0.04,0.065 0.041,0.065 0.042,0.064 0.043,0.063 0.044,0.063 0.045,0.062 c 0,0 0.046,0.061 0.046,0.061 l 0.047,0.06 0.048,0.059 0.049,0.059 0.05,0.058 0.051,0.057 c 0.052,0.056 0.105,0.111 0.105,0.111 0.054,0.054 0.109,0.107 0.109,0.107 0.056,0.052 0.113,0.103 0.113,0.103 l 0.058,0.05 0.059,0.049 0.059,0.048 0.06,0.047 0.061,0.046 c 0,0 0.062,0.045 0.062,0.045 l 0.063,0.044 c 0,0 0.063,0.043 0.063,0.043 l 0.064,0.042 0.065,0.041 0.065,0.04 0.066,0.038 0.067,0.037 0.067,0.036 c 0,0 0.068,0.035 0.068,0.035 l 0.069,0.034 0.069,0.033 0.07,0.031 0.07,0.03 0.071,0.029 0.071,0.028 c 0,0 0.072,0.026 0.072,0.026 l 0.072,0.025 0.073,0.024 0.073,0.023 0.073,0.021 c 0,0 0.074,0.02 0.074,0.02 l 0.074,0.019 0.074,0.018 0.075,0.016 0.075,0.015 0.075,0.014 0.075,0.012 0.076,0.011 c 0,0 0.076,0.01 0.076,0.01 l 0.076,0.009 0.076,0.007 0.076,0.006 0.076,0.005 0.076,0.003 0.076,0.002 0.076,0.001 h 8.073 l 0.076,-0.001 c 0,0 0.076,-0.002 0.076,-0.002 l 0.076,-0.003 0.076,-0.005 0.076,-0.006 0.076,-0.007 0.076,-0.009 0.076,-0.01 0.076,-0.011 0.075,-0.012 0.075,-0.014 0.075,-0.015 0.075,-0.016 0.074,-0.018 c 0,0 0.074,-0.019 0.074,-0.019 0,0 0.074,-0.02 0.074,-0.02 0,0 0.073,-0.021 0.073,-0.021 l 0.073,-0.023 0.073,-0.024 0.072,-0.025 0.072,-0.026 0.071,-0.028 c 0,0 0.071,-0.029 0.071,-0.029 l 0.07,-0.03 0.07,-0.031 0.069,-0.033 0.069,-0.034 0.068,-0.035 c 0,0 0.067,-0.036 0.067,-0.036 l 0.067,-0.037 0.066,-0.038 0.065,-0.04 c 0,0 0.065,-0.041 0.065,-0.041 l 0.064,-0.042 0.063,-0.043 0.062,-0.044 0.062,-0.045 0.061,-0.046 0.06,-0.047 0.059,-0.048 0.058,-0.049 0.058,-0.05 0.057,-0.051 c 0.056,-0.052 0.111,-0.105 0.111,-0.105 0.054,-0.054 0.107,-0.109 0.107,-0.109 0.052,-0.056 0.103,-0.113 0.103,-0.113 l 0.05,-0.058 0.049,-0.059 c 0,0 0.048,-0.059 0.048,-0.059 l 0.047,-0.06 0.046,-0.061 c 0,0 0.045,-0.062 0.045,-0.062 l 0.044,-0.063 0.043,-0.063 c 0,0 0.042,-0.064 0.042,-0.064 l 0.041,-0.065 0.04,-0.065 0.038,-0.066 0.037,-0.067 0.036,-0.067 c 0,0 0.035,-0.068 0.035,-0.068 0,0 0.034,-0.069 0.034,-0.069 l 0.033,-0.069 0.031,-0.07 0.03,-0.07 0.029,-0.071 0.028,-0.071 c 0,0 0.026,-0.072 0.026,-0.072 l 0.025,-0.072 0.024,-0.073 0.023,-0.073 0.021,-0.073 0.02,-0.074 0.019,-0.074 0.018,-0.074 0.016,-0.075 0.015,-0.075 0.014,-0.075 0.012,-0.075 0.011,-0.076 0.01,-0.076 0.009,-0.076 0.007,-0.076 0.006,-0.076 0.005,-0.076 0.003,-0.076 0.002,-0.076 10e-4,-0.076 v -8.736 l -10e-4,-0.076 c 0,0 -0.002,-0.076 -0.002,-0.076 l -0.003,-0.076 -0.005,-0.076 -0.006,-0.076 -0.007,-0.076 -0.009,-0.076 -0.01,-0.076 -0.011,-0.076 -0.012,-0.075 -0.014,-0.075 -0.015,-0.075 c 0,0 -0.016,-0.075 -0.016,-0.075 l -0.018,-0.074 -0.019,-0.074 -0.02,-0.074 c 0,0 -0.021,-0.073 -0.021,-0.073 0,0 -0.023,-0.073 -0.023,-0.073 l -0.024,-0.073 -0.025,-0.072 c 0,0 -0.026,-0.072 -0.026,-0.072 l -0.028,-0.071 -0.029,-0.071 -0.03,-0.07 -0.031,-0.07 -0.033,-0.069 -0.034,-0.069 -0.035,-0.068 -0.036,-0.067 -0.037,-0.067 -0.038,-0.066 -0.04,-0.065 -0.041,-0.065 -0.042,-0.064 -0.043,-0.063 -0.044,-0.062 c 0,0 -0.045,-0.062 -0.045,-0.062 l -0.046,-0.061 -0.047,-0.06 -0.048,-0.059 -0.049,-0.058 -0.05,-0.058 -0.051,-0.057 c -0.052,-0.056 -0.105,-0.111 -0.105,-0.111 -0.054,-0.054 -0.109,-0.107 -0.109,-0.107 -0.056,-0.052 -0.113,-0.103 -0.113,-0.103 l -0.058,-0.05 -0.058,-0.049 -0.059,-0.048 -0.06,-0.047 -0.061,-0.046 -0.062,-0.045 -0.062,-0.044 -0.063,-0.043 -0.064,-0.042 -0.065,-0.041 -0.065,-0.04 -0.066,-0.038 -0.067,-0.037 -0.067,-0.036 -0.068,-0.035 c 0,0 -0.069,-0.034 -0.069,-0.034 l -0.069,-0.033 -0.07,-0.031 -0.07,-0.03 -0.071,-0.029 -0.071,-0.028 -0.072,-0.026 c 0,0 -0.072,-0.025 -0.072,-0.025 l -0.073,-0.024 -0.073,-0.023 -0.073,-0.021 -0.074,-0.02 c 0,0 -0.074,-0.019 -0.074,-0.019 l -0.074,-0.018 c 0,0 -0.075,-0.016 -0.075,-0.016 l -0.075,-0.015 -0.075,-0.014 -0.075,-0.012 -0.076,-0.011 -0.076,-0.01 -0.076,-0.009 -0.076,-0.007 -0.076,-0.006 -0.076,-0.005 c 0,0 -0.076,-0.003 -0.076,-0.003 l -0.076,-0.002 -0.076,-0.001 z"
         id="path28791"
         style="stroke:#80ffe6;stroke-opacity:1" />
      <polygon
         fill="none"
         stroke="#00b9d2"
         stroke-width="2"
         stroke-linecap="round"
         stroke-linejoin="round"
         stroke-miterlimit="10"
         points="612.817,169.275 612.731,169.329 612.645,169.385 612.561,169.442 612.477,169.501 612.395,169.561 612.314,169.623 612.233,169.686 612.154,169.75 612.076,169.815 611.999,169.882 611.923,169.951 611.849,170.02 611.776,170.091 611.703,170.163 611.633,170.237 611.563,170.311 611.495,170.387 611.428,170.464 611.362,170.542 611.298,170.621 611.235,170.701 611.173,170.783 611.113,170.865 611.055,170.949 610.997,171.033 610.942,171.118 610.887,171.205 610.835,171.292 610.783,171.38 610.734,171.469 610.685,171.559 610.639,171.65 610.594,171.741 610.55,171.834 610.509,171.927 610.468,172.02 610.43,172.115 610.393,172.21 610.357,172.306 610.324,172.402 610.292,172.499 610.261,172.596 610.233,172.694 610.206,172.792 610.18,172.891 610.157,172.99 610.135,173.09 610.115,173.19 610.096,173.29 610.08,173.391 610.065,173.492 610.052,173.593 610.04,173.694 610.031,173.796 610.023,173.897 610.017,173.999 610.012,174.101 610.01,174.203 610.009,174.305 610.009,184.651 610.01,184.753 610.012,184.855 610.017,184.957 610.023,185.059 610.031,185.16 610.04,185.262 610.052,185.363 610.065,185.464 610.08,185.565 610.096,185.666 610.115,185.766 610.135,185.866 610.157,185.966 610.18,186.065 610.206,186.164 610.233,186.262 610.261,186.36 610.292,186.458 610.324,186.554 610.357,186.651 610.393,186.746 610.43,186.841 610.468,186.936 610.509,187.029 610.55,187.122 610.594,187.215 610.639,187.306 610.685,187.397 610.734,187.487 610.783,187.576 610.835,187.664 610.887,187.751 610.942,187.838 610.997,187.923 611.055,188.008 611.113,188.091 611.173,188.173 611.235,188.255 611.298,188.335 611.362,188.414 611.428,188.492 611.495,188.569 611.563,188.645 611.633,188.72 611.703,188.793 611.776,188.865 611.849,188.936 611.923,189.005 611.999,189.074 612.076,189.141 612.154,189.206 612.233,189.271 612.314,189.334 612.395,189.395 612.477,189.455 612.561,189.514 612.645,189.571 612.731,189.627 612.817,189.681 612.904,189.734 612.992,189.785 613.082,189.835 613.171,189.883 613.262,189.93 613.354,189.975 613.446,190.018 613.539,190.06 613.633,190.1 613.727,190.139 613.822,190.176 613.918,190.211 614.014,190.245 614.111,190.277 614.208,190.307 614.306,190.336 614.404,190.363 614.503,190.388 614.603,190.412 614.702,190.433 614.802,190.454 614.902,190.472 615.003,190.489 615.104,190.503 615.205,190.517 615.306,190.528 615.408,190.538 615.51,190.546 615.612,190.552 615.713,190.556 615.815,190.559 615.917,190.56 625.478,190.56 625.58,190.559 625.682,190.556 625.784,190.552 625.886,190.546 625.987,190.538 626.089,190.528 626.19,190.517 626.291,190.503 626.392,190.489 626.493,190.472 626.593,190.454 626.693,190.433 626.793,190.412 626.892,190.388 626.991,190.363 627.089,190.336 627.187,190.307 627.285,190.277 627.381,190.245 627.478,190.211 627.573,190.176 627.668,190.139 627.763,190.1 627.857,190.06 627.949,190.018 628.042,189.975 628.133,189.93 628.224,189.883 628.314,189.835 628.403,189.785 628.491,189.734 628.578,189.681 628.665,189.627 628.75,189.571 628.835,189.514 628.918,189.455 629,189.395 629.082,189.334 629.162,189.271 629.241,189.206 629.319,189.141 629.396,189.074 629.472,189.005 629.547,188.936 629.62,188.865 629.692,188.793 629.763,188.72 629.832,188.645 629.901,188.569 629.968,188.492 630.033,188.414 630.098,188.335 630.161,188.255 630.222,188.173 630.282,188.091 630.341,188.008 630.398,187.923 630.454,187.838 630.508,187.751 630.561,187.664 630.612,187.576 630.662,187.487 630.71,187.397 630.757,187.306 630.802,187.215 630.845,187.122 630.887,187.029 630.927,186.936 630.966,186.841 631.003,186.746 631.038,186.651 631.072,186.554 631.104,186.458 631.134,186.36 631.163,186.262 631.19,186.164 631.215,186.065 631.239,185.966 631.26,185.866 631.281,185.766 631.299,185.666 631.316,185.565 631.331,185.464 631.344,185.363 631.355,185.262 631.365,185.16 631.373,185.059 631.379,184.957 631.383,184.855 631.386,184.753 631.387,184.651 631.387,174.305 631.386,174.203 631.383,174.101 631.379,173.999 631.373,173.897 631.365,173.796 631.355,173.694 631.344,173.593 631.331,173.492 631.316,173.391 631.299,173.29 631.281,173.19 631.26,173.09 631.239,172.99 631.215,172.891 631.19,172.792 631.163,172.694 631.134,172.596 631.104,172.499 631.072,172.402 631.038,172.306 631.003,172.21 630.966,172.115 630.927,172.02 630.887,171.927 630.845,171.834 630.802,171.741 630.757,171.65 630.71,171.559 630.662,171.469 630.612,171.38 630.561,171.292 630.508,171.205 630.454,171.118 630.398,171.033 630.341,170.949 630.282,170.865 630.222,170.783 630.161,170.701 630.098,170.621 630.033,170.542 629.968,170.464 629.901,170.387 629.832,170.311 629.763,170.237 629.692,170.163 629.62,170.091 629.547,170.02 629.472,169.951 629.396,169.882 629.319,169.815 629.241,169.75 629.162,169.686 629.082,169.623 629,169.561 628.918,169.501 628.835,169.442 628.75,169.385 628.665,169.329 628.578,169.275 628.491,169.222 628.403,169.171 628.314,169.121 628.224,169.073 628.133,169.027 628.042,168.982 627.949,168.938 627.857,168.896 627.763,168.856 627.668,168.817 627.573,168.78 627.478,168.745 627.381,168.711 627.285,168.679 627.187,168.649 627.089,168.62 626.991,168.593 626.892,168.568 626.793,168.545 626.693,168.523 626.593,168.503 626.493,168.484 626.392,168.468 626.291,168.453 626.19,168.44 626.089,168.428 625.987,168.418 625.886,168.411 625.784,168.404 625.682,168.4 625.58,168.397 625.478,168.396 615.917,168.396 615.815,168.397 615.713,168.4 615.612,168.404 615.51,168.411 615.408,168.418 615.306,168.428 615.205,168.44 615.104,168.453 615.003,168.468 614.902,168.484 614.802,168.503 614.702,168.523 614.603,168.545 614.503,168.568 614.404,168.593 614.306,168.62 614.208,168.649 614.111,168.679 614.014,168.711 613.918,168.745 613.822,168.78 613.727,168.817 613.633,168.856 613.539,168.896 613.446,168.938 613.354,168.982 613.262,169.027 613.171,169.073 613.082,169.121 612.992,169.171 612.904,169.222 "
         id="polygon28794"
         style="stroke:#80ffe6;stroke-opacity:1" />
      <polygon
         fill="none"
         stroke="#00b9d2"
         stroke-width="2"
         stroke-linecap="round"
         stroke-linejoin="round"
         stroke-miterlimit="10"
         points="640.793,277.94 640.736,278.082 640.676,278.224 640.615,278.366 640.552,278.508 640.487,278.648 640.42,278.789 640.351,278.929 640.28,279.068 640.207,279.206 640.132,279.344 640.056,279.481 639.977,279.618 639.897,279.753 639.815,279.888 639.731,280.022 639.645,280.155 639.558,280.287 639.468,280.419 639.377,280.549 639.284,280.678 639.19,280.806 639.093,280.933 638.995,281.059 638.895,281.183 638.794,281.306 638.691,281.429 638.586,281.549 638.479,281.669 638.372,281.787 638.262,281.904 638.151,282.019 638.039,282.133 637.925,282.246 637.809,282.357 637.692,282.466 637.574,282.574 637.455,282.68 637.334,282.785 637.212,282.888 637.088,282.99 636.964,283.09 636.838,283.188 636.711,283.284 636.583,283.379 636.454,283.472 636.324,283.563 636.193,283.652 636.061,283.74 635.928,283.826 635.794,283.91 635.659,283.992 635.523,284.072 635.387,284.15 635.25,284.227 635.112,284.302 634.973,284.374 634.834,284.445 634.694,284.514 634.554,284.581 634.413,284.646 634.271,284.71 634.13,284.771 633.987,284.83 633.845,284.888 633.702,284.943 633.559,284.997 633.415,285.049 633.272,285.099 633.128,285.146 632.984,285.193 632.84,285.237 632.695,285.279 632.551,285.319 632.407,285.358 632.262,285.394 632.118,285.429 631.974,285.462 631.83,285.493 631.686,285.522 631.542,285.55 631.399,285.576 631.256,285.599 631.113,285.622 630.97,285.642 630.828,285.661 630.686,285.678 630.544,285.693 630.403,285.706 630.262,285.718 630.122,285.728 629.982,285.737 629.843,285.744 629.704,285.749 629.566,285.753 629.428,285.756 629.292,285.756 612.104,285.756 611.967,285.756 611.829,285.753 611.691,285.749 611.552,285.744 611.413,285.737 611.273,285.728 611.133,285.718 610.992,285.706 610.851,285.693 610.71,285.678 610.568,285.661 610.425,285.642 610.283,285.622 610.14,285.599 609.996,285.576 609.853,285.55 609.709,285.522 609.565,285.493 609.421,285.462 609.277,285.429 609.133,285.394 608.989,285.358 608.844,285.319 608.7,285.279 608.556,285.237 608.412,285.193 608.268,285.146 608.124,285.099 607.98,285.049 607.837,284.997 607.693,284.943 607.551,284.888 607.408,284.83 607.266,284.771 607.124,284.71 606.983,284.646 606.842,284.581 606.701,284.514 606.562,284.445 606.422,284.374 606.284,284.302 606.146,284.227 606.009,284.15 605.872,284.072 605.737,283.992 605.602,283.91 605.468,283.826 605.335,283.74 605.203,283.652 605.072,283.563 604.941,283.472 604.812,283.379 604.684,283.284 604.557,283.188 604.432,283.09 604.307,282.99 604.184,282.888 604.062,282.785 603.941,282.68 603.821,282.574 603.703,282.466 603.586,282.357 603.471,282.246 603.357,282.133 603.244,282.019 603.133,281.904 603.024,281.787 602.916,281.669 602.81,281.549 602.705,281.429 602.602,281.306 602.5,281.183 602.4,281.059 602.302,280.933 602.206,280.806 602.111,280.678 602.018,280.549 601.927,280.419 601.838,280.287 601.75,280.155 601.664,280.022 601.58,279.888 601.498,279.753 601.418,279.618 601.34,279.481 601.263,279.344 601.188,279.206 601.116,279.068 601.045,278.929 600.976,278.789 600.909,278.648 600.844,278.508 600.78,278.366 600.719,278.224 600.66,278.082 600.602,277.94 600.547,277.797 600.493,277.653 600.441,277.51 600.391,277.366 600.344,277.222 600.298,277.078 600.253,276.934 600.211,276.79 600.171,276.646 600.132,276.501 600.096,276.357 600.061,276.213 600.028,276.069 599.997,275.925 599.968,275.781 599.94,275.637 599.915,275.494 599.891,275.35 599.869,275.207 599.848,275.065 599.829,274.922 599.813,274.78 599.797,274.639 599.784,274.498 599.772,274.357 599.762,274.217 599.753,274.077 599.746,273.938 599.741,273.799 599.737,273.661 599.734,273.523 599.734,273.386 599.734,270.445 599.736,270.231 599.741,270.018 599.75,269.804 599.763,269.591 599.78,269.378 599.8,269.166 599.824,268.954 599.852,268.742 599.883,268.531 599.918,268.32 599.956,268.11 599.998,267.901 600.044,267.692 600.093,267.484 600.146,267.277 600.203,267.071 600.263,266.867 600.326,266.663 600.393,266.46 600.464,266.258 600.538,266.058 600.615,265.859 600.696,265.661 600.78,265.465 600.868,265.271 600.959,265.077 601.053,264.886 601.151,264.696 601.252,264.508 601.356,264.321 601.463,264.137 601.573,263.954 601.687,263.773 601.804,263.594 601.923,263.418 602.046,263.243 602.172,263.07 602.301,262.9 602.432,262.732 602.567,262.566 602.704,262.403 602.845,262.242 602.988,262.083 603.133,261.927 603.282,261.773 603.433,261.622 603.586,261.474 603.742,261.328 603.901,261.185 604.062,261.045 604.225,260.908 604.391,260.773 604.559,260.642 604.73,260.513 604.902,260.387 605.077,260.264 605.254,260.144 605.432,260.028 605.613,259.914 605.796,259.804 605.981,259.696 606.167,259.592 606.355,259.491 606.545,259.394 606.737,259.299 606.93,259.208 607.125,259.121 607.321,259.037 607.518,258.956 607.717,258.878 607.918,258.804 608.119,258.734 608.322,258.667 608.526,258.603 608.731,258.543 608.937,258.487 609.144,258.434 609.351,258.385 609.56,258.339 609.769,258.297 609.979,258.258 610.19,258.223 610.401,258.192 610.613,258.165 610.825,258.141 611.038,258.12 611.25,258.104 611.464,258.091 611.677,258.082 611.89,258.076 612.104,258.074 629.292,258.074 629.505,258.076 629.719,258.082 629.932,258.091 630.145,258.104 630.358,258.12 630.57,258.141 630.783,258.165 630.994,258.192 631.206,258.223 631.416,258.258 631.626,258.297 631.836,258.339 632.044,258.385 632.252,258.434 632.459,258.487 632.665,258.543 632.87,258.603 633.073,258.667 633.276,258.734 633.478,258.804 633.678,258.878 633.877,258.956 634.075,259.037 634.271,259.121 634.466,259.208 634.659,259.299 634.85,259.394 635.04,259.491 635.228,259.592 635.415,259.696 635.599,259.804 635.782,259.914 635.963,260.028 636.142,260.144 636.319,260.264 636.493,260.387 636.666,260.513 636.836,260.642 637.004,260.773 637.17,260.908 637.333,261.045 637.494,261.185 637.653,261.328 637.809,261.474 637.963,261.622 638.114,261.773 638.262,261.927 638.408,262.083 638.551,262.242 638.691,262.403 638.828,262.566 638.963,262.732 639.095,262.9 639.223,263.07 639.349,263.243 639.472,263.418 639.592,263.594 639.708,263.773 639.822,263.954 639.933,264.137 640.04,264.321 640.144,264.508 640.245,264.696 640.342,264.886 640.437,265.077 640.528,265.271 640.615,265.465 640.7,265.661 640.78,265.859 640.858,266.058 640.932,266.258 641.002,266.46 641.069,266.663 641.133,266.867 641.193,267.071 641.249,267.277 641.302,267.484 641.352,267.692 641.397,267.901 641.439,268.11 641.478,268.32 641.513,268.531 641.544,268.742 641.572,268.954 641.595,269.166 641.616,269.378 641.632,269.591 641.645,269.804 641.654,270.018 641.66,270.231 641.662,270.445 641.662,273.386 641.661,273.523 641.659,273.661 641.655,273.799 641.649,273.938 641.642,274.077 641.634,274.217 641.624,274.357 641.612,274.498 641.598,274.639 641.583,274.78 641.566,274.922 641.547,275.065 641.527,275.207 641.505,275.35 641.481,275.494 641.455,275.637 641.428,275.781 641.398,275.925 641.367,276.069 641.334,276.213 641.3,276.357 641.263,276.501 641.225,276.646 641.184,276.79 641.142,276.934 641.098,277.078 641.052,277.222 641.004,277.366 640.954,277.51 640.902,277.653 640.849,277.797 "
         id="polygon28797"
         style="stroke:#80ffe6;stroke-opacity:1" />
      <rect
         x="475.56799"
         y="244.49899"
         fill="none"
         stroke="#00b9d2"
         stroke-width="2.75"
         stroke-linecap="round"
         stroke-linejoin="round"
         stroke-miterlimit="10"
         width="1.9400001"
         height="47.866001"
         id="rect28849"
         style="stroke:#80ffe6;stroke-opacity:1" />
      <polyline
         fill="none"
         stroke="#00b9d2"
         stroke-width="2.75"
         stroke-linecap="round"
         stroke-linejoin="round"
         stroke-miterlimit="10"
         points="    763.887,661.681 763.834,662.039 763.776,662.396 763.714,662.755 763.648,663.114 763.578,663.473 763.504,663.833     763.426,664.193 763.344,664.554 763.258,664.915 763.167,665.275 763.072,665.636 762.973,665.997 762.87,666.358     762.763,666.719 762.651,667.079 762.535,667.439 762.415,667.799 762.29,668.159 762.161,668.517 762.028,668.876     761.89,669.233 761.748,669.59 761.602,669.947 761.451,670.302 761.297,670.656 761.137,671.01 760.974,671.362 760.806,671.713     760.634,672.063 760.457,672.411 760.277,672.758 760.091,673.104 759.902,673.448 759.709,673.79 759.511,674.131     759.309,674.47 759.103,674.807 758.893,675.142 758.678,675.475 758.46,675.806 758.237,676.135 758.01,676.462 757.78,676.786     757.545,677.108 757.306,677.427 757.064,677.744 756.818,678.058 756.568,678.37 756.314,678.679 756.056,678.985     755.795,679.288 755.53,679.589 755.261,679.886 754.989,680.18 754.714,680.471 754.435,680.759 754.153,681.044     753.867,681.325 753.578,681.603 753.286,681.878 752.991,682.149 752.693,682.417 752.391,682.681 752.087,682.941     751.78,683.198 751.47,683.451 751.158,683.7 750.842,683.946 750.524,684.187 750.204,684.425 749.881,684.659 749.556,684.889     749.228,685.114 748.899,685.336 748.567,685.554 748.233,685.767 747.897,685.977 747.559,686.182 747.219,686.384     746.877,686.581 746.534,686.773 746.189,686.962 745.842,687.146 745.494,687.326 745.145,687.502 744.794,687.673     744.442,687.841 744.089,688.003 743.734,688.162 743.379,688.316 743.023,688.466 742.666,688.612 742.308,688.753     741.949,688.89 741.59,689.023 741.23,689.151 740.87,689.275 740.509,689.395 740.148,689.51 739.787,689.621 739.425,689.728     739.063,689.831 738.701,689.929 738.34,690.024 737.978,690.114 737.616,690.2 737.255,690.281 736.894,690.359 736.533,690.432     736.173,690.502 735.813,690.567 735.454,690.629 735.095,690.686 734.737,690.74 734.38,690.789 734.023,690.835     733.667,690.876 733.312,690.914 732.958,690.949 732.605,690.979 732.253,691.006 731.902,691.029 731.553,691.048     731.204,691.064 730.857,691.076 730.511,691.084 730.166,691.09 729.823,691.091 511.573,691.091 511.23,691.09 510.885,691.084     510.539,691.076 510.191,691.064 509.843,691.048 509.493,691.029 509.142,691.006 508.79,690.979 508.437,690.949     508.083,690.914 507.728,690.876 507.373,690.835 507.016,690.789 506.659,690.74 506.3,690.686 505.942,690.629 505.582,690.567     505.222,690.502 504.862,690.432 504.501,690.359 504.14,690.281 503.779,690.2 503.417,690.114 503.056,690.024 502.694,689.929     502.332,689.831 501.97,689.728 501.609,689.621 501.247,689.51 500.886,689.395 500.526,689.275 500.165,689.151     499.805,689.023 499.446,688.89 499.088,688.753 498.73,688.612 498.373,688.466 498.016,688.316 497.661,688.162     497.307,688.003 496.954,687.841 496.602,687.673 496.251,687.502 495.901,687.326 495.553,687.146 495.207,686.962     494.862,686.773 494.518,686.581 494.177,686.384 493.837,686.182 493.499,685.977 493.163,685.767 492.829,685.554     492.497,685.336 492.167,685.114 491.839,684.889 491.514,684.659 491.191,684.425 490.871,684.187 490.553,683.946     490.238,683.7 489.925,683.451 489.615,683.198 489.308,682.941 489.004,682.681 488.703,682.417 488.405,682.149     488.109,681.878 487.817,681.603 487.529,681.325 487.243,681.044 486.961,680.759 486.682,680.471 486.406,680.18     486.134,679.886 485.866,679.589 485.601,679.288 485.339,678.985 485.082,678.679 484.828,678.37 484.578,678.058     484.331,677.744 484.089,677.427 483.85,677.108 483.616,676.786 483.385,676.462 483.158,676.135 482.936,675.806     482.717,675.475 482.503,675.142 482.293,674.807 482.086,674.47 481.885,674.131 481.687,673.79 481.493,673.448     481.304,673.104 481.119,672.758 480.938,672.411 480.762,672.063 480.589,671.713 480.422,671.362 480.258,671.01     480.099,670.656 479.944,670.302 479.793,669.947 479.647,669.59 479.505,669.233 479.368,668.876 479.234,668.517     479.105,668.159 478.981,667.799 478.861,667.439 478.745,667.079 478.633,666.719 478.525,666.358 478.422,665.997     478.323,665.636 478.228,665.275 478.138,664.915 478.051,664.554 477.969,664.193 477.891,663.833 477.817,663.473     477.747,663.114 477.681,662.755 477.62,662.396 477.562,662.039 477.508,661.681   "
         id="polyline28852"
         style="stroke:#80ffe6;stroke-opacity:1" />
      <polyline
         fill="none"
         stroke="#00b9d2"
         stroke-width="2.75"
         stroke-linecap="round"
         stroke-linejoin="round"
         stroke-miterlimit="10"
         points="    477.508,116.94 477.558,116.58 477.612,116.22 477.67,115.859 477.732,115.498 477.798,115.136 477.869,114.773 477.943,114.411     478.022,114.047 478.105,113.684 478.192,113.32 478.283,112.956 478.379,112.592 478.479,112.228 478.583,111.865     478.691,111.501 478.804,111.137 478.921,110.774 479.043,110.411 479.169,110.049 479.299,109.687 479.434,109.326     479.573,108.965 479.717,108.605 479.865,108.246 480.017,107.888 480.174,107.531 480.335,107.175 480.5,106.82 480.67,106.466     480.844,106.113 481.023,105.762 481.206,105.412 481.393,105.064 481.585,104.717 481.781,104.373 481.981,104.029     482.186,103.688 482.395,103.349 482.608,103.011 482.825,102.676 483.046,102.343 483.272,102.012 483.501,101.683     483.735,101.357 483.973,101.033 484.215,100.711 484.46,100.393 484.71,100.076 484.963,99.763 485.22,99.452 485.481,99.145     485.746,98.84 486.014,98.538 486.286,98.24 486.562,97.944 486.841,97.652 487.124,97.363 487.41,97.077 487.699,96.795     487.991,96.516 488.287,96.24 488.586,95.968 488.888,95.7 489.193,95.435 489.501,95.175 489.812,94.917 490.126,94.664     490.442,94.415 490.761,94.169 491.083,93.927 491.407,93.69 491.734,93.456 492.063,93.226 492.394,93.001 492.728,92.779     493.064,92.562 493.402,92.349 493.742,92.14 494.084,91.936 494.427,91.735 494.773,91.539 495.12,91.347 495.469,91.16     495.819,90.977 496.171,90.798 496.524,90.623 496.878,90.453 497.234,90.288 497.591,90.126 497.948,89.969 498.307,89.817     498.667,89.669 499.028,89.525 499.389,89.385 499.751,89.25 500.113,89.12 500.477,88.994 500.84,88.872 501.204,88.754     501.568,88.641 501.933,88.532 502.297,88.428 502.662,88.328 503.027,88.232 503.391,88.14 503.756,88.053 504.12,87.969     504.484,87.89 504.848,87.816 505.211,87.745 505.574,87.678 505.936,87.616 506.298,87.557 506.659,87.503 507.019,87.453     507.379,87.406 507.738,87.364 508.096,87.325 508.453,87.29 508.808,87.26 509.163,87.232 509.517,87.209 509.87,87.189     510.221,87.173 510.571,87.161 510.92,87.152 511.268,87.147 511.614,87.145 729.782,87.145 730.128,87.147 730.475,87.152     730.824,87.161 731.174,87.173 731.526,87.189 731.878,87.209 732.232,87.232 732.587,87.26 732.943,87.29 733.3,87.325     733.658,87.364 734.016,87.406 734.376,87.453 734.736,87.503 735.097,87.557 735.459,87.616 735.821,87.678 736.184,87.745     736.548,87.816 736.911,87.89 737.275,87.969 737.64,88.053 738.004,88.14 738.369,88.232 738.733,88.328 739.098,88.428     739.463,88.532 739.827,88.641 740.191,88.754 740.555,88.872 740.919,88.994 741.282,89.12 741.645,89.25 742.007,89.385     742.368,89.525 742.728,89.669 743.088,89.817 743.447,89.969 743.805,90.126 744.162,90.288 744.517,90.453 744.872,90.623     745.225,90.798 745.577,90.977 745.927,91.16 746.276,91.347 746.623,91.539 746.968,91.735 747.312,91.936 747.654,92.14     747.994,92.349 748.331,92.562 748.667,92.779 749.001,93.001 749.332,93.226 749.661,93.456 749.988,93.69 750.312,93.927     750.634,94.169 750.953,94.415 751.27,94.664 751.583,94.917 751.894,95.175 752.202,95.435 752.507,95.7 752.809,95.968     753.108,96.24 753.404,96.516 753.697,96.795 753.986,97.077 754.272,97.363 754.554,97.652 754.833,97.944 755.109,98.24     755.381,98.538 755.649,98.84 755.914,99.145 756.175,99.452 756.432,99.763 756.686,100.076 756.935,100.393 757.181,100.711     757.423,101.033 757.66,101.357 757.894,101.683 758.124,102.012 758.349,102.343 758.57,102.676 758.788,103.011     759.001,103.349 759.209,103.688 759.414,104.029 759.614,104.373 759.81,104.717 760.002,105.064 760.189,105.412     760.372,105.762 760.551,106.113 760.725,106.466 760.895,106.82 761.061,107.175 761.222,107.531 761.379,107.888     761.531,108.246 761.679,108.605 761.822,108.965 761.961,109.326 762.096,109.687 762.227,110.049 762.353,110.411     762.474,110.774 762.591,111.137 762.704,111.501 762.813,111.865 762.917,112.228 763.017,112.592 763.112,112.956     763.204,113.32 763.291,113.684 763.374,114.047 763.452,114.411 763.527,114.773 763.597,115.136 763.663,115.498     763.725,115.859 763.783,116.22 763.837,116.58 763.887,116.94   "
         id="polyline28855"
         style="stroke:#80ffe6;stroke-opacity:1" />
      <rect
         x="763.88702"
         y="175.666"
         fill="none"
         stroke="#00b9d2"
         stroke-width="2.75"
         stroke-linecap="round"
         stroke-linejoin="round"
         stroke-miterlimit="10"
         width="1.9400001"
         height="82.926003"
         id="rect28858"
         style="stroke:#80ffe6;stroke-opacity:1" />
      <rect
         x="763.88702"
         y="288.96399"
         fill="none"
         stroke="#00b9d2"
         stroke-width="2.75"
         stroke-linecap="round"
         stroke-linejoin="round"
         stroke-miterlimit="10"
         width="1.9400001"
         height="47.866001"
         id="rect28861"
         style="stroke:#80ffe6;stroke-opacity:1" />
      <polygon
         fill="none"
         stroke="#00b9d2"
         stroke-width="2.75"
         stroke-linecap="round"
         stroke-linejoin="round"
         stroke-miterlimit="10"
         points="666.965,217.969 666.867,217.908 666.771,217.845 666.676,217.781 666.582,217.715 666.489,217.647 666.398,217.578 666.307,217.507 666.218,217.435 666.13,217.361 666.043,217.285 665.958,217.209 665.874,217.13 665.791,217.05 665.71,216.969 665.63,216.886 665.552,216.802 665.475,216.717 665.4,216.631 665.326,216.543 665.253,216.453 665.183,216.363 665.113,216.271 665.046,216.179 664.98,216.085 664.915,215.989 664.852,215.893 664.791,215.796 664.732,215.698 664.674,215.598 664.618,215.498 664.564,215.397 664.511,215.295 664.461,215.192 664.412,215.088 664.364,214.983 664.319,214.877 664.276,214.771 664.234,214.664 664.194,214.556 664.156,214.448 664.12,214.339 664.086,214.229 664.054,214.119 664.023,214.008 663.995,213.897 663.968,213.785 663.944,213.673 663.921,213.56 663.9,213.447 663.882,213.334 663.865,213.22 663.85,213.106 663.837,212.992 663.826,212.878 663.817,212.763 663.81,212.649 663.805,212.534 663.802,212.419 663.802,212.304 663.802,178.375 663.802,178.26 663.805,178.145 663.81,178.03 663.817,177.916 663.826,177.801 663.837,177.687 663.85,177.573 663.865,177.459 663.882,177.345 663.9,177.232 663.921,177.119 663.944,177.006 663.968,176.894 663.995,176.782 664.023,176.671 664.054,176.56 664.086,176.45 664.12,176.34 664.156,176.231 664.194,176.123 664.234,176.015 664.276,175.908 664.319,175.801 664.364,175.696 664.412,175.591 664.461,175.487 664.511,175.384 664.564,175.282 664.618,175.181 664.674,175.08 664.732,174.981 664.791,174.883 664.852,174.786 664.915,174.689 664.98,174.594 665.046,174.5 665.113,174.408 665.183,174.316 665.253,174.225 665.326,174.136 665.4,174.048 665.475,173.962 665.552,173.876 665.63,173.792 665.71,173.71 665.791,173.629 665.874,173.549 665.958,173.47 666.043,173.393 666.13,173.318 666.218,173.244 666.307,173.172 666.398,173.101 666.489,173.032 666.582,172.964 666.676,172.898 666.771,172.833 666.867,172.771 666.965,172.71 667.063,172.65 667.162,172.592 667.262,172.536 667.364,172.482 667.466,172.43 667.569,172.379 667.673,172.33 667.778,172.283 667.883,172.237 667.99,172.194 668.096,172.152 668.204,172.112 668.313,172.075 668.422,172.038 668.531,172.004 668.642,171.972 668.752,171.942 668.864,171.913 668.976,171.887 669.088,171.862 669.2,171.839 669.313,171.819 669.427,171.8 669.54,171.783 669.654,171.768 669.768,171.755 669.883,171.745 669.997,171.736 670.112,171.729 670.227,171.724 670.341,171.721 670.456,171.72 673.256,171.72 673.371,171.721 673.486,171.724 673.6,171.729 673.715,171.736 673.83,171.745 673.944,171.755 674.058,171.768 674.172,171.783 674.286,171.8 674.399,171.819 674.512,171.839 674.625,171.862 674.737,171.887 674.849,171.913 674.96,171.942 675.071,171.972 675.181,172.004 675.29,172.038 675.4,172.075 675.508,172.112 675.616,172.152 675.723,172.194 675.829,172.237 675.935,172.283 676.039,172.33 676.143,172.379 676.246,172.43 676.349,172.482 676.45,172.536 676.55,172.592 676.649,172.65 676.748,172.71 676.845,172.771 676.941,172.833 677.036,172.898 677.13,172.964 677.223,173.032 677.315,173.101 677.405,173.172 677.494,173.244 677.582,173.318 677.669,173.393 677.754,173.47 677.838,173.549 677.921,173.629 678.002,173.71 678.082,173.792 678.16,173.876 678.237,173.962 678.313,174.048 678.386,174.136 678.459,174.225 678.53,174.316 678.599,174.408 678.667,174.5 678.733,174.594 678.797,174.689 678.86,174.786 678.921,174.883 678.98,174.981 679.038,175.08 679.094,175.181 679.148,175.282 679.201,175.384 679.252,175.487 679.301,175.591 679.348,175.696 679.393,175.801 679.437,175.908 679.478,176.015 679.518,176.123 679.556,176.231 679.592,176.34 679.626,176.45 679.659,176.56 679.689,176.671 679.717,176.782 679.744,176.894 679.768,177.006 679.791,177.119 679.812,177.232 679.831,177.345 679.847,177.459 679.862,177.573 679.875,177.687 679.886,177.801 679.895,177.916 679.902,178.03 679.907,178.145 679.91,178.26 679.911,178.375 679.911,212.304 679.91,212.419 679.907,212.534 679.902,212.649 679.895,212.763 679.886,212.878 679.875,212.992 679.862,213.106 679.847,213.22 679.831,213.334 679.812,213.447 679.791,213.56 679.768,213.673 679.744,213.785 679.717,213.897 679.689,214.008 679.659,214.119 679.626,214.229 679.592,214.339 679.556,214.448 679.518,214.556 679.478,214.664 679.437,214.771 679.393,214.877 679.348,214.983 679.301,215.088 679.252,215.192 679.201,215.295 679.148,215.397 679.094,215.498 679.038,215.598 678.98,215.698 678.921,215.796 678.86,215.893 678.797,215.989 678.733,216.085 678.667,216.179 678.599,216.271 678.53,216.363 678.459,216.453 678.386,216.543 678.313,216.631 678.237,216.717 678.16,216.802 678.082,216.886 678.002,216.969 677.921,217.05 677.838,217.13 677.754,217.209 677.669,217.285 677.582,217.361 677.494,217.435 677.405,217.507 677.315,217.578 677.223,217.647 677.13,217.715 677.036,217.781 676.941,217.845 676.845,217.908 676.748,217.969 676.649,218.029 676.55,218.087 676.45,218.143 676.349,218.197 676.246,218.249 676.143,218.3 676.039,218.349 675.935,218.396 675.829,218.441 675.723,218.485 675.616,218.527 675.508,218.566 675.4,218.604 675.29,218.64 675.181,218.675 675.071,218.707 674.96,218.737 674.849,218.766 674.737,218.792 674.625,218.817 674.512,218.839 674.399,218.86 674.286,218.879 674.172,218.896 674.058,218.911 673.944,218.923 673.83,218.934 673.715,218.943 673.6,218.95 673.486,218.955 673.371,218.958 673.256,218.959 670.456,218.959 670.341,218.958 670.227,218.955 670.112,218.95 669.997,218.943 669.883,218.934 669.768,218.923 669.654,218.911 669.54,218.896 669.427,218.879 669.313,218.86 669.2,218.839 669.088,218.817 668.976,218.792 668.864,218.766 668.752,218.737 668.642,218.707 668.531,218.675 668.422,218.64 668.313,218.604 668.204,218.566 668.096,218.527 667.99,218.485 667.883,218.441 667.778,218.396 667.673,218.349 667.569,218.3 667.466,218.249 667.364,218.197 667.262,218.143 667.162,218.087 667.063,218.029 "
         id="polygon28864"
         style="stroke:#80ffe6;stroke-opacity:1" />
      <path
         fill="none"
         stroke="#00b9d2"
         stroke-width="2.75"
         stroke-linecap="round"
         stroke-linejoin="round"
         stroke-miterlimit="10"
         d="m 626.017,179.478 c 0.01,-2.417 -1.668,-4.573 -4.014,-5.157 -3.379,-0.851 -6.651,1.718 -6.625,5.203 0.033,3.446 3.284,5.953 6.625,5.11 2.346,-0.583 4.024,-2.739 4.014,-5.156 z"
         id="path28867"
         style="stroke:#80ffe6;stroke-opacity:1" />
      <path
         fill="none"
         stroke="#00b9d2"
         stroke-width="2.75"
         stroke-linecap="round"
         stroke-linejoin="round"
         stroke-miterlimit="10"
         d="m 625.695,222.935 c 0.009,-2.27 -1.567,-4.296 -3.77,-4.844 -3.174,-0.8 -6.248,1.614 -6.223,4.887 0.031,3.237 3.085,5.592 6.223,4.8 2.202,-0.548 3.779,-2.573 3.77,-4.843 z"
         id="path28870"
         style="stroke:#80ffe6;stroke-opacity:1" />
      <polygon
         fill="none"
         stroke="#00b9d2"
         stroke-width="2.75"
         stroke-linecap="round"
         stroke-linejoin="round"
         stroke-miterlimit="10"
         points="612.443,211.724 612.326,211.797 612.21,211.873 612.095,211.951 611.981,212.031 611.869,212.113 611.758,212.196 611.649,212.282 611.541,212.369 611.435,212.459 611.331,212.55 611.227,212.643 611.126,212.737 611.026,212.834 610.928,212.932 610.832,213.032 610.737,213.133 610.644,213.236 610.553,213.341 610.464,213.447 610.376,213.555 610.291,213.664 610.207,213.775 610.125,213.887 610.045,214 609.968,214.115 609.892,214.231 609.818,214.349 609.746,214.468 609.676,214.588 609.609,214.709 609.543,214.831 609.48,214.955 609.419,215.079 609.359,215.205 609.302,215.331 609.248,215.459 609.195,215.587 609.145,215.716 609.097,215.847 609.051,215.977 609.007,216.109 608.966,216.242 608.927,216.375 608.89,216.509 608.856,216.643 608.824,216.778 608.794,216.914 608.767,217.05 608.742,217.186 608.719,217.323 608.699,217.46 608.681,217.598 608.665,217.736 608.652,217.874 608.642,218.012 608.633,218.151 608.627,218.29 608.624,218.428 608.622,218.567 608.622,227.303 608.624,227.442 608.627,227.58 608.633,227.719 608.642,227.857 608.652,227.996 608.665,228.134 608.681,228.272 608.699,228.409 608.719,228.547 608.742,228.684 608.767,228.82 608.794,228.956 608.824,229.092 608.856,229.227 608.89,229.361 608.927,229.495 608.966,229.628 609.007,229.761 609.051,229.892 609.097,230.023 609.145,230.153 609.195,230.283 609.248,230.411 609.302,230.539 609.359,230.665 609.419,230.791 609.48,230.915 609.543,231.039 609.609,231.161 609.676,231.282 609.746,231.402 609.818,231.521 609.892,231.638 609.968,231.755 610.045,231.869 610.125,231.983 610.207,232.095 610.291,232.206 610.376,232.315 610.464,232.423 610.553,232.529 610.644,232.634 610.737,232.737 610.832,232.838 610.928,232.938 611.026,233.036 611.126,233.132 611.227,233.227 611.331,233.32 611.435,233.411 611.541,233.5 611.649,233.588 611.758,233.673 611.869,233.757 611.981,233.839 612.095,233.919 612.21,233.997 612.326,234.072 612.443,234.146 612.562,234.218 612.682,234.288 612.803,234.355 612.925,234.421 613.049,234.484 613.173,234.546 613.299,234.605 613.425,234.662 613.553,234.716 613.681,234.769 613.811,234.819 613.941,234.867 614.072,234.913 614.204,234.957 614.336,234.998 614.469,235.037 614.603,235.074 614.737,235.108 614.872,235.14 615.008,235.17 615.144,235.197 615.281,235.222 615.417,235.245 615.555,235.265 615.692,235.283 615.83,235.299 615.968,235.312 616.107,235.323 616.245,235.331 616.384,235.337 616.523,235.341 616.661,235.342 624.734,235.342 624.873,235.341 625.012,235.337 625.15,235.331 625.289,235.323 625.427,235.312 625.565,235.299 625.703,235.283 625.841,235.265 625.978,235.245 626.115,235.222 626.251,235.197 626.387,235.17 626.523,235.14 626.658,235.108 626.792,235.074 626.926,235.037 627.059,234.998 627.192,234.957 627.324,234.913 627.455,234.867 627.585,234.819 627.714,234.769 627.843,234.716 627.97,234.662 628.097,234.605 628.222,234.546 628.347,234.484 628.47,234.421 628.592,234.355 628.713,234.288 628.833,234.218 628.952,234.146 629.07,234.072 629.186,233.997 629.301,233.919 629.414,233.839 629.526,233.757 629.637,233.673 629.746,233.588 629.854,233.5 629.96,233.411 630.065,233.32 630.168,233.227 630.269,233.132 630.369,233.036 630.467,232.938 630.564,232.838 630.658,232.737 630.751,232.634 630.842,232.529 630.932,232.423 631.019,232.315 631.105,232.206 631.188,232.095 631.27,231.983 631.35,231.869 631.428,231.755 631.504,231.638 631.578,231.521 631.649,231.402 631.719,231.282 631.787,231.161 631.852,231.039 631.916,230.915 631.977,230.791 632.036,230.665 632.093,230.539 632.148,230.411 632.2,230.283 632.251,230.153 632.299,230.023 632.345,229.892 632.388,229.761 632.429,229.628 632.468,229.495 632.505,229.361 632.539,229.227 632.571,229.092 632.601,228.956 632.629,228.82 632.654,228.684 632.676,228.547 632.697,228.409 632.714,228.272 632.73,228.134 632.743,227.996 632.754,227.857 632.762,227.719 632.768,227.58 632.772,227.442 632.773,227.303 632.773,218.567 632.772,218.428 632.768,218.29 632.762,218.151 632.754,218.012 632.743,217.874 632.73,217.736 632.714,217.598 632.697,217.46 632.676,217.323 632.654,217.186 632.629,217.05 632.601,216.914 632.571,216.778 632.539,216.643 632.505,216.509 632.468,216.375 632.429,216.242 632.388,216.109 632.345,215.977 632.299,215.847 632.251,215.716 632.2,215.587 632.148,215.459 632.093,215.331 632.036,215.205 631.977,215.079 631.916,214.955 631.852,214.831 631.787,214.709 631.719,214.588 631.649,214.468 631.578,214.349 631.504,214.231 631.428,214.115 631.35,214 631.27,213.887 631.188,213.775 631.105,213.664 631.019,213.555 630.932,213.447 630.842,213.341 630.751,213.236 630.658,213.133 630.564,213.032 630.467,212.932 630.369,212.834 630.269,212.737 630.168,212.643 630.065,212.55 629.96,212.459 629.854,212.369 629.746,212.282 629.637,212.196 629.526,212.113 629.414,212.031 629.301,211.951 629.186,211.873 629.07,211.797 628.952,211.724 628.833,211.652 628.713,211.582 628.592,211.514 628.47,211.449 628.347,211.385 628.222,211.324 628.097,211.265 627.97,211.208 627.843,211.153 627.714,211.101 627.585,211.05 627.455,211.002 627.324,210.957 627.192,210.913 627.059,210.872 626.926,210.833 626.792,210.796 626.658,210.762 626.523,210.73 626.387,210.7 626.251,210.673 626.115,210.648 625.978,210.625 625.841,210.605 625.703,210.587 625.565,210.571 625.427,210.558 625.289,210.547 625.15,210.539 625.012,210.533 624.873,210.529 624.734,210.528 616.661,210.528 616.523,210.529 616.384,210.533 616.245,210.539 616.107,210.547 615.968,210.558 615.83,210.571 615.692,210.587 615.555,210.605 615.417,210.625 615.281,210.648 615.144,210.673 615.008,210.7 614.872,210.73 614.737,210.762 614.603,210.796 614.469,210.833 614.336,210.872 614.204,210.913 614.072,210.957 613.941,211.002 613.811,211.05 613.681,211.101 613.553,211.153 613.425,211.208 613.299,211.265 613.173,211.324 613.049,211.385 612.925,211.449 612.803,211.514 612.682,211.582 612.562,211.652 "
         id="polygon28873"
         style="stroke:#80ffe6;stroke-opacity:1" />
      <polygon
         fill="none"
         stroke="#00b9d2"
         stroke-width="2.75"
         stroke-linecap="round"
         stroke-linejoin="round"
         stroke-miterlimit="10"
         points="610.922,166.2 610.783,166.288 610.645,166.378 610.509,166.47 610.375,166.564 610.242,166.661 610.111,166.76 609.981,166.862 609.854,166.965 609.728,167.071 609.604,167.179 609.482,167.289 609.362,167.401 609.244,167.515 609.127,167.631 609.013,167.75 608.901,167.87 608.791,167.992 608.683,168.116 608.577,168.242 608.474,168.369 608.372,168.498 608.273,168.63 608.177,168.762 608.082,168.897 607.99,169.033 607.9,169.17 607.813,169.31 607.728,169.45 607.645,169.592 607.565,169.736 607.487,169.881 607.412,170.027 607.34,170.174 607.27,170.323 607.202,170.473 607.137,170.624 607.075,170.776 607.015,170.929 606.958,171.083 606.904,171.238 606.853,171.394 606.804,171.551 606.758,171.709 606.714,171.867 606.673,172.027 606.635,172.187 606.6,172.347 606.568,172.508 606.538,172.67 606.511,172.832 606.487,172.995 606.466,173.158 606.448,173.321 606.432,173.484 606.419,173.648 606.409,173.812 606.402,173.977 606.398,174.141 606.397,174.305 606.397,184.651 606.398,184.815 606.402,184.98 606.409,185.144 606.419,185.308 606.432,185.472 606.448,185.635 606.466,185.799 606.487,185.962 606.511,186.124 606.538,186.286 606.568,186.448 606.6,186.609 606.635,186.77 606.673,186.93 606.714,187.089 606.758,187.247 606.804,187.405 606.853,187.562 606.904,187.718 606.958,187.873 607.015,188.027 607.075,188.18 607.137,188.332 607.202,188.483 607.27,188.633 607.34,188.782 607.412,188.929 607.487,189.076 607.565,189.22 607.645,189.364 607.728,189.506 607.813,189.647 607.9,189.786 607.99,189.923 608.082,190.059 608.177,190.194 608.273,190.327 608.372,190.458 608.474,190.587 608.577,190.715 608.683,190.84 608.791,190.964 608.901,191.086 609.013,191.207 609.127,191.325 609.244,191.441 609.362,191.555 609.482,191.667 609.604,191.777 609.728,191.885 609.854,191.991 609.981,192.095 610.111,192.196 610.242,192.295 610.375,192.392 610.509,192.486 610.645,192.579 610.783,192.668 610.922,192.756 611.062,192.841 611.205,192.923 611.348,193.004 611.493,193.081 611.639,193.156 611.786,193.229 611.935,193.299 612.085,193.366 612.236,193.431 612.388,193.493 612.541,193.553 612.695,193.61 612.851,193.664 613.007,193.716 613.163,193.765 613.321,193.811 613.48,193.854 613.639,193.895 613.799,193.933 613.959,193.968 614.12,194.001 614.282,194.03 614.444,194.057 614.607,194.081 614.77,194.102 614.933,194.121 615.097,194.136 615.26,194.149 615.424,194.159 615.589,194.166 615.753,194.17 615.917,194.172 625.478,194.172 625.642,194.17 625.807,194.166 625.971,194.159 626.135,194.149 626.299,194.136 626.462,194.121 626.626,194.102 626.789,194.081 626.951,194.057 627.113,194.03 627.275,194.001 627.436,193.968 627.597,193.933 627.757,193.895 627.916,193.854 628.074,193.811 628.232,193.765 628.389,193.716 628.545,193.664 628.7,193.61 628.854,193.553 629.007,193.493 629.159,193.431 629.31,193.366 629.46,193.299 629.609,193.229 629.756,193.156 629.903,193.081 630.047,193.004 630.191,192.923 630.333,192.841 630.474,192.756 630.613,192.668 630.75,192.579 630.886,192.486 631.021,192.392 631.154,192.295 631.285,192.196 631.414,192.095 631.542,191.991 631.667,191.885 631.791,191.777 631.914,191.667 632.034,191.555 632.152,191.441 632.268,191.325 632.382,191.207 632.494,191.086 632.604,190.964 632.712,190.84 632.818,190.715 632.922,190.587 633.023,190.458 633.122,190.327 633.219,190.194 633.313,190.059 633.406,189.923 633.495,189.786 633.583,189.647 633.668,189.506 633.75,189.364 633.831,189.22 633.908,189.076 633.983,188.929 634.056,188.782 634.126,188.633 634.193,188.483 634.258,188.332 634.32,188.18 634.38,188.027 634.437,187.873 634.491,187.718 634.543,187.562 634.592,187.405 634.638,187.247 634.681,187.089 634.722,186.93 634.76,186.77 634.795,186.609 634.828,186.448 634.857,186.286 634.884,186.124 634.908,185.962 634.929,185.799 634.948,185.635 634.963,185.472 634.976,185.308 634.986,185.144 634.993,184.98 634.997,184.815 634.999,184.651 634.999,174.305 634.997,174.141 634.993,173.977 634.986,173.812 634.976,173.648 634.963,173.484 634.948,173.321 634.929,173.158 634.908,172.995 634.884,172.832 634.857,172.67 634.828,172.508 634.795,172.347 634.76,172.187 634.722,172.027 634.681,171.867 634.638,171.709 634.592,171.551 634.543,171.394 634.491,171.238 634.437,171.083 634.38,170.929 634.32,170.776 634.258,170.624 634.193,170.473 634.126,170.323 634.056,170.174 633.983,170.027 633.908,169.881 633.831,169.736 633.75,169.592 633.668,169.45 633.583,169.31 633.495,169.17 633.406,169.033 633.313,168.897 633.219,168.762 633.122,168.63 633.023,168.498 632.922,168.369 632.818,168.242 632.712,168.116 632.604,167.992 632.494,167.87 632.382,167.75 632.268,167.631 632.152,167.515 632.034,167.401 631.914,167.289 631.791,167.179 631.667,167.071 631.542,166.965 631.414,166.862 631.285,166.76 631.154,166.661 631.021,166.564 630.886,166.47 630.75,166.378 630.613,166.288 630.474,166.2 630.333,166.115 630.191,166.033 630.047,165.953 629.903,165.875 629.756,165.8 629.609,165.727 629.46,165.657 629.31,165.59 629.159,165.525 629.007,165.463 628.854,165.403 628.7,165.346 628.545,165.292 628.389,165.24 628.232,165.191 628.074,165.145 627.916,165.102 627.757,165.061 627.597,165.023 627.436,164.988 627.275,164.956 627.113,164.926 626.951,164.899 626.789,164.875 626.626,164.854 626.462,164.836 626.299,164.82 626.135,164.807 625.971,164.797 625.807,164.79 625.642,164.786 625.478,164.784 615.917,164.784 615.753,164.786 615.589,164.79 615.424,164.797 615.26,164.807 615.097,164.82 614.933,164.836 614.77,164.854 614.607,164.875 614.444,164.899 614.282,164.926 614.12,164.956 613.959,164.988 613.799,165.023 613.639,165.061 613.48,165.102 613.321,165.145 613.163,165.191 613.007,165.24 612.851,165.292 612.695,165.346 612.541,165.403 612.388,165.463 612.236,165.525 612.085,165.59 611.935,165.657 611.786,165.727 611.639,165.8 611.493,165.875 611.348,165.953 611.205,166.033 611.062,166.115 "
         id="polygon28876"
         style="stroke:#80ffe6;stroke-opacity:1" />
      <polygon
         fill="none"
         stroke="#00b9d2"
         stroke-width="2.75"
         stroke-linecap="round"
         stroke-linejoin="round"
         stroke-miterlimit="10"
         points="640.793,162.686 640.736,162.544 640.676,162.401 640.615,162.259 640.552,162.118 640.487,161.977 640.42,161.837 640.351,161.697 640.28,161.558 640.207,161.419 640.132,161.281 640.056,161.144 639.977,161.008 639.897,160.872 639.815,160.737 639.731,160.603 639.645,160.47 639.558,160.338 639.468,160.207 639.377,160.077 639.284,159.948 639.19,159.82 639.093,159.693 638.995,159.567 638.895,159.443 638.794,159.319 638.691,159.197 638.586,159.076 638.479,158.957 638.372,158.839 638.262,158.722 638.151,158.606 638.039,158.492 637.925,158.38 637.809,158.269 637.692,158.159 637.574,158.052 637.455,157.945 637.334,157.84 637.212,157.737 637.088,157.636 636.964,157.536 636.838,157.438 636.711,157.341 636.583,157.247 636.454,157.154 636.324,157.063 636.193,156.973 636.061,156.886 635.928,156.8 635.794,156.716 635.659,156.634 635.523,156.554 635.387,156.475 635.25,156.399 635.112,156.324 634.973,156.251 634.834,156.18 634.694,156.111 634.554,156.044 634.413,155.979 634.271,155.916 634.13,155.855 633.987,155.795 633.845,155.738 633.702,155.682 633.559,155.629 633.415,155.577 633.272,155.527 633.128,155.479 632.984,155.433 632.84,155.389 632.695,155.347 632.551,155.306 632.407,155.268 632.262,155.231 632.118,155.197 631.974,155.164 631.83,155.133 631.686,155.103 631.542,155.076 631.399,155.05 631.256,155.026 631.113,155.004 630.97,154.984 630.828,154.965 630.686,154.948 630.544,154.933 630.403,154.919 630.262,154.907 630.122,154.897 629.982,154.889 629.843,154.882 629.704,154.876 629.566,154.872 629.428,154.87 629.292,154.869 612.104,154.869 611.967,154.87 611.829,154.872 611.691,154.876 611.552,154.882 611.413,154.889 611.273,154.897 611.133,154.907 610.992,154.919 610.851,154.933 610.71,154.948 610.568,154.965 610.425,154.984 610.283,155.004 610.14,155.026 609.996,155.05 609.853,155.076 609.709,155.103 609.565,155.133 609.421,155.164 609.277,155.197 609.133,155.231 608.989,155.268 608.844,155.306 608.7,155.347 608.556,155.389 608.412,155.433 608.268,155.479 608.124,155.527 607.98,155.577 607.837,155.629 607.693,155.682 607.551,155.738 607.408,155.795 607.266,155.855 607.124,155.916 606.983,155.979 606.842,156.044 606.701,156.111 606.562,156.18 606.422,156.251 606.284,156.324 606.146,156.399 606.009,156.475 605.872,156.554 605.737,156.634 605.602,156.716 605.468,156.8 605.335,156.886 605.203,156.973 605.072,157.063 604.941,157.154 604.812,157.247 604.684,157.341 604.557,157.438 604.432,157.536 604.307,157.636 604.184,157.737 604.062,157.84 603.941,157.945 603.821,158.052 603.703,158.159 603.586,158.269 603.471,158.38 603.357,158.492 603.244,158.606 603.133,158.722 603.024,158.839 602.916,158.957 602.81,159.076 602.705,159.197 602.602,159.319 602.5,159.443 602.4,159.567 602.302,159.693 602.206,159.82 602.111,159.948 602.018,160.077 601.927,160.207 601.838,160.338 601.75,160.47 601.664,160.603 601.58,160.737 601.498,160.872 601.418,161.008 601.34,161.144 601.263,161.281 601.188,161.419 601.116,161.558 601.045,161.697 600.976,161.837 600.909,161.977 600.844,162.118 600.78,162.259 600.719,162.401 600.66,162.544 600.602,162.686 600.547,162.829 600.493,162.972 600.441,163.116 600.391,163.259 600.344,163.403 600.298,163.547 600.253,163.691 600.211,163.836 600.171,163.98 600.132,164.124 600.096,164.269 600.061,164.413 600.028,164.557 599.997,164.701 599.968,164.845 599.94,164.989 599.915,165.132 599.891,165.275 599.869,165.418 599.848,165.561 599.829,165.703 599.813,165.845 599.797,165.987 599.784,166.128 599.772,166.269 599.762,166.409 599.753,166.549 599.746,166.688 599.741,166.827 599.737,166.965 599.734,167.103 599.734,167.239 599.734,234.327 599.736,234.54 599.741,234.754 599.75,234.967 599.763,235.18 599.78,235.393 599.8,235.606 599.824,235.818 599.852,236.03 599.883,236.241 599.918,236.452 599.956,236.662 599.998,236.871 600.044,237.08 600.093,237.287 600.146,237.494 600.203,237.7 600.263,237.905 600.326,238.109 600.393,238.312 600.464,238.513 600.538,238.713 600.615,238.912 600.696,239.11 600.78,239.306 600.868,239.501 600.959,239.694 601.053,239.886 601.151,240.076 601.252,240.264 601.356,240.45 601.463,240.635 601.573,240.818 601.687,240.998 601.804,241.177 601.923,241.354 602.046,241.529 602.172,241.701 602.301,241.872 602.432,242.04 602.567,242.205 602.704,242.369 602.845,242.53 602.988,242.688 603.133,242.845 603.282,242.998 603.433,243.149 603.586,243.297 603.742,243.443 603.901,243.586 604.062,243.726 604.225,243.864 604.391,243.998 604.559,244.13 604.73,244.259 604.902,244.385 605.077,244.507 605.254,244.627 605.432,244.744 605.613,244.857 605.796,244.968 605.981,245.075 606.167,245.179 606.355,245.28 606.545,245.378 606.737,245.472 606.93,245.563 607.125,245.651 607.321,245.735 607.518,245.816 607.717,245.893 607.918,245.967 608.119,246.038 608.322,246.105 608.526,246.168 608.731,246.228 608.937,246.285 609.144,246.338 609.351,246.387 609.56,246.433 609.769,246.475 609.979,246.513 610.19,246.548 610.401,246.579 610.613,246.607 610.825,246.631 611.038,246.651 611.25,246.668 611.464,246.681 611.677,246.69 611.89,246.695 612.104,246.697 629.292,246.697 629.505,246.695 629.719,246.69 629.932,246.681 630.145,246.668 630.358,246.651 630.57,246.631 630.783,246.607 630.994,246.579 631.206,246.548 631.416,246.513 631.626,246.475 631.836,246.433 632.044,246.387 632.252,246.338 632.459,246.285 632.665,246.228 632.87,246.168 633.073,246.105 633.276,246.038 633.478,245.967 633.678,245.893 633.877,245.816 634.075,245.735 634.271,245.651 634.466,245.563 634.659,245.472 634.85,245.378 635.04,245.28 635.228,245.179 635.415,245.075 635.599,244.968 635.782,244.857 635.963,244.744 636.142,244.627 636.319,244.507 636.493,244.385 636.666,244.259 636.836,244.13 637.004,243.998 637.17,243.864 637.333,243.726 637.494,243.586 637.653,243.443 637.809,243.297 637.963,243.149 638.114,242.998 638.262,242.845 638.408,242.688 638.551,242.53 638.691,242.369 638.828,242.205 638.963,242.04 639.095,241.872 639.223,241.701 639.349,241.529 639.472,241.354 639.592,241.177 639.708,240.998 639.822,240.818 639.933,240.635 640.04,240.45 640.144,240.264 640.245,240.076 640.342,239.886 640.437,239.694 640.528,239.501 640.615,239.306 640.7,239.11 640.78,238.912 640.858,238.713 640.932,238.513 641.002,238.312 641.069,238.109 641.133,237.905 641.193,237.7 641.249,237.494 641.302,237.287 641.352,237.08 641.397,236.871 641.439,236.662 641.478,236.452 641.513,236.241 641.544,236.03 641.572,235.818 641.595,235.606 641.616,235.393 641.632,235.18 641.645,234.967 641.654,234.754 641.66,234.54 641.662,234.327 641.662,167.239 641.661,167.103 641.659,166.965 641.655,166.827 641.649,166.688 641.642,166.549 641.634,166.409 641.624,166.269 641.612,166.128 641.598,165.987 641.583,165.845 641.566,165.703 641.547,165.561 641.527,165.418 641.505,165.275 641.481,165.132 641.455,164.989 641.428,164.845 641.398,164.701 641.367,164.557 641.334,164.413 641.3,164.269 641.263,164.124 641.225,163.98 641.184,163.836 641.142,163.691 641.098,163.547 641.052,163.403 641.004,163.259 640.954,163.116 640.902,162.972 640.849,162.829 "
         id="polygon28879"
         style="stroke:#80ffe6;stroke-opacity:1" />
      <polygon
         fill="none"
         stroke="#00b9d2"
         stroke-width="2.75"
         stroke-linecap="round"
         stroke-linejoin="round"
         stroke-miterlimit="10"
         points="638.558,152.205 638.817,152.367 639.072,152.534 639.324,152.705 639.574,152.88 639.82,153.06 640.063,153.243 640.303,153.431 640.54,153.624 640.773,153.82 641.003,154.02 641.229,154.224 641.452,154.432 641.672,154.644 641.887,154.859 642.099,155.079 642.307,155.302 642.511,155.528 642.711,155.758 642.907,155.991 643.1,156.228 643.288,156.468 643.471,156.711 643.651,156.957 643.826,157.207 643.997,157.459 644.164,157.714 644.326,157.973 644.484,158.233 644.637,158.497 644.786,158.763 644.93,159.032 645.069,159.303 645.204,159.577 645.334,159.852 645.459,160.13 645.579,160.41 645.694,160.693 645.805,160.977 645.911,161.263 646.011,161.55 646.107,161.84 646.198,162.131 646.283,162.424 646.364,162.718 646.44,163.013 646.51,163.31 646.575,163.607 646.635,163.906 646.69,164.206 646.74,164.507 646.785,164.808 646.824,165.111 646.858,165.414 646.887,165.717 646.911,166.021 646.929,166.325 646.942,166.63 646.95,166.935 646.953,167.239 646.953,273.386 646.95,273.691 646.942,273.996 646.929,274.3 646.911,274.605 646.887,274.909 646.858,275.212 646.824,275.515 646.785,275.817 646.74,276.119 646.69,276.42 646.635,276.719 646.575,277.018 646.51,277.316 646.44,277.613 646.364,277.908 646.283,278.202 646.198,278.495 646.107,278.786 646.011,279.075 645.911,279.363 645.805,279.649 645.694,279.933 645.579,280.215 645.459,280.495 645.334,280.773 645.204,281.049 645.069,281.323 644.93,281.594 644.786,281.862 644.637,282.129 644.484,282.392 644.326,282.653 644.164,282.911 643.997,283.166 643.826,283.419 643.651,283.668 643.471,283.915 643.288,284.158 643.1,284.398 642.907,284.634 642.711,284.868 642.511,285.098 642.307,285.324 642.099,285.547 641.887,285.766 641.672,285.982 641.452,286.194 641.229,286.402 641.003,286.606 640.773,286.806 640.54,287.002 640.303,287.194 640.063,287.382 639.82,287.566 639.574,287.746 639.324,287.921 639.072,288.092 638.817,288.259 638.558,288.421 638.298,288.579 638.034,288.732 637.768,288.88 637.499,289.024 637.228,289.164 636.954,289.298 636.679,289.428 636.401,289.553 636.12,289.674 635.838,289.789 635.554,289.9 635.268,290.005 634.981,290.106 634.691,290.202 634.4,290.292 634.107,290.378 633.813,290.459 633.518,290.534 633.221,290.605 632.924,290.67 632.625,290.73 632.325,290.785 632.024,290.835 631.723,290.879 631.42,290.919 631.117,290.953 630.814,290.982 630.51,291.005 630.206,291.024 629.901,291.037 629.596,291.045 629.292,291.047 612.104,291.047 611.799,291.045 611.494,291.037 611.19,291.024 610.885,291.005 610.582,290.982 610.278,290.953 609.975,290.919 609.673,290.879 609.371,290.835 609.07,290.785 608.771,290.73 608.472,290.67 608.174,290.605 607.877,290.534 607.582,290.459 607.288,290.378 606.995,290.292 606.704,290.202 606.415,290.106 606.127,290.005 605.841,289.9 605.557,289.789 605.275,289.674 604.995,289.553 604.717,289.428 604.441,289.298 604.167,289.164 603.896,289.024 603.628,288.88 603.361,288.732 603.098,288.579 602.837,288.421 602.579,288.259 602.324,288.092 602.071,287.921 601.822,287.746 601.576,287.566 601.332,287.382 601.092,287.194 600.856,287.002 600.622,286.806 600.392,286.606 600.166,286.402 599.943,286.194 599.724,285.982 599.508,285.766 599.296,285.547 599.088,285.324 598.884,285.098 598.684,284.868 598.488,284.634 598.296,284.398 598.108,284.158 597.924,283.915 597.744,283.668 597.569,283.419 597.398,283.166 597.231,282.911 597.069,282.653 596.911,282.392 596.758,282.129 596.61,281.862 596.466,281.594 596.326,281.323 596.192,281.049 596.062,280.773 595.937,280.495 595.816,280.215 595.701,279.933 595.59,279.649 595.485,279.363 595.384,279.075 595.288,278.786 595.198,278.495 595.112,278.202 595.031,277.908 594.956,277.613 594.885,277.316 594.82,277.018 594.76,276.719 594.705,276.42 594.655,276.119 594.611,275.817 594.571,275.515 594.537,275.212 594.508,274.909 594.485,274.605 594.466,274.3 594.453,273.996 594.445,273.691 594.443,273.386 594.443,167.239 594.445,166.935 594.453,166.63 594.466,166.325 594.485,166.021 594.508,165.717 594.537,165.414 594.571,165.111 594.611,164.808 594.655,164.507 594.705,164.206 594.76,163.906 594.82,163.607 594.885,163.31 594.956,163.013 595.031,162.718 595.112,162.424 595.198,162.131 595.288,161.84 595.384,161.55 595.485,161.263 595.59,160.977 595.701,160.693 595.816,160.41 595.937,160.13 596.062,159.852 596.192,159.577 596.326,159.303 596.466,159.032 596.61,158.763 596.758,158.497 596.911,158.233 597.069,157.973 597.231,157.714 597.398,157.459 597.569,157.207 597.744,156.957 597.924,156.711 598.108,156.468 598.296,156.228 598.488,155.991 598.684,155.758 598.884,155.528 599.088,155.302 599.296,155.079 599.508,154.859 599.724,154.644 599.943,154.432 600.166,154.224 600.392,154.02 600.622,153.82 600.856,153.624 601.092,153.431 601.332,153.243 601.576,153.06 601.822,152.88 602.071,152.705 602.324,152.534 602.579,152.367 602.837,152.205 603.098,152.047 603.361,151.894 603.628,151.745 603.896,151.601 604.167,151.462 604.441,151.327 604.717,151.197 604.995,151.072 605.275,150.952 605.557,150.837 605.841,150.726 606.127,150.62 606.415,150.52 606.704,150.424 606.995,150.333 607.288,150.248 607.582,150.167 607.877,150.091 608.174,150.021 608.472,149.956 608.771,149.896 609.07,149.841 609.371,149.791 609.673,149.746 609.975,149.707 610.278,149.673 610.582,149.644 610.885,149.62 611.19,149.602 611.494,149.589 611.799,149.581 612.104,149.578 629.292,149.578 629.596,149.581 629.901,149.589 630.206,149.602 630.51,149.62 630.814,149.644 631.117,149.673 631.42,149.707 631.723,149.746 632.024,149.791 632.325,149.841 632.625,149.896 632.924,149.956 633.221,150.021 633.518,150.091 633.813,150.167 634.107,150.248 634.4,150.333 634.691,150.424 634.981,150.52 635.268,150.62 635.554,150.726 635.838,150.837 636.12,150.952 636.401,151.072 636.679,151.197 636.954,151.327 637.228,151.462 637.499,151.601 637.768,151.745 638.034,151.894 638.298,152.047 "
         id="polygon28882"
         style="stroke:#80ffe6;stroke-opacity:1" />
      <polygon
         fill="none"
         stroke="#00b9d2"
         stroke-width="2.75"
         stroke-linecap="round"
         stroke-linejoin="round"
         stroke-miterlimit="10"
         points="493.827,690.962 493.326,690.647 492.829,690.323 492.339,689.99 491.854,689.649 491.375,689.3 490.902,688.943 490.436,688.577 489.975,688.204 489.522,687.822 489.075,687.433 488.635,687.036 488.201,686.632 487.775,686.22 487.356,685.801 486.944,685.375 486.54,684.942 486.143,684.501 485.754,684.054 485.372,683.601 484.999,683.141 484.633,682.674 484.276,682.201 483.927,681.722 483.586,681.238 483.253,680.747 482.93,680.251 482.614,679.749 482.308,679.242 482.01,678.729 481.721,678.212 481.441,677.689 481.17,677.162 480.908,676.63 480.656,676.094 480.412,675.554 480.179,675.009 479.954,674.461 479.739,673.908 479.534,673.352 479.338,672.793 479.152,672.23 478.976,671.664 478.809,671.096 478.652,670.524 478.506,669.95 478.369,669.373 478.242,668.794 478.125,668.213 478.018,667.63 477.921,667.045 477.835,666.459 477.758,665.871 477.692,665.282 477.636,664.693 477.59,664.102 477.554,663.51 477.528,662.918 477.513,662.325 477.508,661.733 477.508,116.9 477.513,116.307 477.528,115.715 477.554,115.123 477.59,114.531 477.636,113.94 477.692,113.35 477.758,112.761 477.835,112.173 477.921,111.587 478.018,111.002 478.125,110.419 478.242,109.838 478.369,109.259 478.506,108.683 478.652,108.109 478.809,107.537 478.976,106.968 479.152,106.402 479.338,105.84 479.534,105.28 479.739,104.724 479.954,104.172 480.179,103.623 480.412,103.079 480.656,102.538 480.908,102.002 481.17,101.47 481.441,100.943 481.721,100.421 482.01,99.903 482.308,99.391 482.614,98.884 482.93,98.382 483.253,97.886 483.586,97.395 483.927,96.91 484.276,96.431 484.633,95.958 484.999,95.492 485.372,95.032 485.754,94.578 486.143,94.131 486.54,93.691 486.944,93.258 487.356,92.831 487.775,92.412 488.201,92 488.635,91.596 489.075,91.199 489.522,90.81 489.975,90.429 490.436,90.055 490.902,89.69 491.375,89.332 491.854,88.983 492.339,88.642 492.829,88.31 493.326,87.986 493.827,87.67 494.335,87.364 494.847,87.066 495.365,86.777 495.887,86.497 496.414,86.226 496.946,85.965 497.482,85.712 498.022,85.469 498.567,85.235 499.116,85.01 499.668,84.795 500.224,84.59 500.783,84.394 501.346,84.208 501.912,84.032 502.481,83.865 503.052,83.709 503.626,83.562 504.203,83.425 504.782,83.298 505.363,83.181 505.946,83.074 506.531,82.978 507.117,82.891 507.705,82.815 508.294,82.748 508.884,82.692 509.475,82.646 510.066,82.61 510.658,82.585 511.251,82.569 511.844,82.564 729.552,82.564 730.145,82.569 730.737,82.585 731.329,82.61 731.921,82.646 732.512,82.692 733.102,82.748 733.691,82.815 734.278,82.891 734.865,82.978 735.449,83.074 736.032,83.181 736.613,83.298 737.192,83.425 737.769,83.562 738.343,83.709 738.915,83.865 739.484,84.032 740.049,84.208 740.612,84.394 741.172,84.59 741.727,84.795 742.28,85.01 742.828,85.235 743.373,85.469 743.913,85.712 744.45,85.965 744.981,86.226 745.508,86.497 746.031,86.777 746.548,87.066 747.061,87.364 747.568,87.67 748.07,87.986 748.566,88.31 749.057,88.642 749.542,88.983 750.02,89.332 750.493,89.69 750.96,90.055 751.42,90.429 751.874,90.81 752.321,91.199 752.761,91.596 753.194,92 753.62,92.412 754.039,92.831 754.451,93.258 754.856,93.691 755.252,94.131 755.642,94.578 756.023,95.032 756.397,95.492 756.762,95.958 757.119,96.431 757.469,96.91 757.81,97.395 758.142,97.886 758.466,98.382 758.781,98.884 759.088,99.391 759.386,99.903 759.675,100.421 759.955,100.943 760.225,101.47 760.487,102.002 760.74,102.538 760.983,103.079 761.217,103.623 761.441,104.172 761.656,104.724 761.862,105.28 762.057,105.84 762.243,106.402 762.42,106.968 762.586,107.537 762.743,108.109 762.89,108.683 763.027,109.259 763.154,109.838 763.27,110.419 763.377,111.002 763.474,111.587 763.561,112.173 763.637,112.761 763.703,113.35 763.76,113.94 763.806,114.531 763.841,115.123 763.867,115.715 763.882,116.307 763.887,116.9 763.887,661.733 763.882,662.325 763.867,662.918 763.841,663.51 763.806,664.102 763.76,664.693 763.703,665.282 763.637,665.871 763.561,666.459 763.474,667.045 763.377,667.63 763.27,668.213 763.154,668.794 763.027,669.373 762.89,669.95 762.743,670.524 762.586,671.096 762.42,671.664 762.243,672.23 762.057,672.793 761.862,673.352 761.656,673.908 761.441,674.461 761.217,675.009 760.983,675.554 760.74,676.094 760.487,676.63 760.225,677.162 759.955,677.689 759.675,678.212 759.386,678.729 759.088,679.242 758.781,679.749 758.466,680.251 758.142,680.747 757.81,681.238 757.469,681.722 757.119,682.201 756.762,682.674 756.397,683.141 756.023,683.601 755.642,684.054 755.252,684.501 754.856,684.942 754.451,685.375 754.039,685.801 753.62,686.22 753.194,686.632 752.761,687.036 752.321,687.433 751.874,687.822 751.42,688.204 750.96,688.577 750.493,688.943 750.02,689.3 749.542,689.649 749.057,689.99 748.566,690.323 748.07,690.647 747.568,690.962 747.061,691.269 746.548,691.566 746.031,691.855 745.508,692.135 744.981,692.406 744.45,692.668 743.913,692.921 743.373,693.164 742.828,693.398 742.28,693.622 741.727,693.837 741.172,694.042 740.612,694.238 740.049,694.424 739.484,694.601 738.915,694.767 738.343,694.924 737.769,695.071 737.192,695.207 736.613,695.334 736.032,695.451 735.449,695.558 734.865,695.655 734.278,695.741 733.691,695.818 733.102,695.884 732.512,695.94 731.921,695.987 731.329,696.022 730.737,696.048 730.145,696.063 729.552,696.068 511.844,696.068 511.251,696.063 510.658,696.048 510.066,696.022 509.475,695.987 508.884,695.94 508.294,695.884 507.705,695.818 507.117,695.741 506.531,695.655 505.946,695.558 505.363,695.451 504.782,695.334 504.203,695.207 503.626,695.071 503.052,694.924 502.481,694.767 501.912,694.601 501.346,694.424 500.783,694.238 500.224,694.042 499.668,693.837 499.116,693.622 498.567,693.398 498.022,693.164 497.482,692.921 496.946,692.668 496.414,692.406 495.887,692.135 495.365,691.855 494.847,691.566 494.335,691.269 "
         id="polygon28888"
         style="stroke:#80ffe6;stroke-opacity:1" />
      <path
         fill="none"
         stroke="#00b9d2"
         stroke-width="3.25"
         stroke-linecap="round"
         stroke-linejoin="round"
         stroke-miterlimit="10"
         d="M 763.887,175.666 V 116.94 c 0,-0.04 -0.002,-0.42 -0.002,-0.42 l -0.006,-0.382 -0.011,-0.384 -0.015,-0.385 -0.019,-0.387 -0.024,-0.388 -0.028,-0.389 -0.033,-0.391 -0.038,-0.392 -0.042,-0.393 -0.047,-0.394 -0.052,-0.395 -0.057,-0.396 -0.061,-0.397 -0.066,-0.398 c 0,0 -0.071,-0.398 -0.071,-0.398 l -0.076,-0.399 c 0,0 -0.081,-0.399 -0.081,-0.399 l -0.086,-0.4 -0.091,-0.4 -0.096,-0.4 -0.102,-0.4 -0.107,-0.401 -0.112,-0.4 -0.117,-0.4 -0.122,-0.4 -0.128,-0.4 -0.133,-0.399 -0.138,-0.399 -0.144,-0.398 -0.149,-0.398 -0.154,-0.397 c 0,0 -0.159,-0.396 -0.159,-0.396 l -0.165,-0.395 c 0,0 -0.17,-0.394 -0.17,-0.394 l -0.176,-0.392 -0.181,-0.391 -0.186,-0.39 -0.191,-0.388 -0.197,-0.386 c 0,0 -0.202,-0.385 -0.202,-0.385 l -0.207,-0.383 -0.212,-0.381 -0.218,-0.379 -0.223,-0.376 -0.228,-0.374 -0.233,-0.372 -0.238,-0.369 -0.243,-0.367 -0.248,-0.364 -0.253,-0.361 -0.258,-0.358 -0.263,-0.355 -0.268,-0.352 -0.272,-0.349 -0.277,-0.346 -0.282,-0.342 c 0,0 -0.286,-0.339 -0.286,-0.339 l -0.291,-0.335 -0.295,-0.332 -0.3,-0.328 -0.304,-0.324 -0.308,-0.32 -0.312,-0.316 -0.316,-0.312 -0.32,-0.308 -0.324,-0.304 -0.328,-0.3 -0.332,-0.295 -0.335,-0.291 -0.339,-0.286 -0.342,-0.282 -0.346,-0.277 -0.349,-0.272 -0.352,-0.268 -0.355,-0.263 -0.358,-0.258 -0.361,-0.253 -0.364,-0.248 -0.367,-0.243 -0.369,-0.238 -0.372,-0.233 -0.374,-0.228 -0.376,-0.223 -0.379,-0.218 -0.381,-0.212 -0.383,-0.207 -0.385,-0.202 -0.386,-0.197 -0.388,-0.191 -0.39,-0.186 -0.391,-0.181 -0.392,-0.175 c 0,0 -0.394,-0.17 -0.394,-0.17 l -0.395,-0.165 -0.396,-0.16 -0.397,-0.154 -0.398,-0.149 -0.398,-0.144 -0.399,-0.138 -0.399,-0.133 -0.4,-0.128 c 0,0 -0.4,-0.122 -0.4,-0.122 0,0 -0.403,-0.118 -0.403,-0.118 l -0.401,-0.112 -0.401,-0.107 -0.401,-0.102 -0.4,-0.096 -0.4,-0.091 -0.4,-0.086 -0.399,-0.081 -0.399,-0.076 -0.398,-0.071 -0.397,-0.068 -0.397,-0.061 c 0,0 -0.396,-0.057 -0.396,-0.057 l -0.395,-0.052 c 0,0 -0.394,-0.047 -0.394,-0.047 0,0 -0.393,-0.042 -0.393,-0.042 l -0.392,-0.038 -0.391,-0.033 -0.389,-0.028 -0.388,-0.024 -0.387,-0.019 -0.385,-0.015 -0.384,-0.011 c 0,0 -0.382,-0.006 -0.382,-0.006 l -0.38,-0.002 H 511.844 l -0.38,0.002 -0.382,0.006 -0.384,0.011 -0.385,0.015 -0.387,0.019 c 0,0 -0.388,0.024 -0.388,0.024 l -0.389,0.028 c 0,0 -0.391,0.033 -0.391,0.033 l -0.392,0.038 -0.393,0.042 c 0,0 -0.394,0.047 -0.394,0.047 0,0 -0.395,0.052 -0.395,0.052 l -0.396,0.057 c 0,0 -0.397,0.061 -0.397,0.061 l -0.398,0.066 -0.398,0.071 -0.399,0.076 -0.399,0.081 -0.4,0.086 -0.4,0.091 -0.4,0.096 -0.4,0.102 -0.401,0.107 -0.401,0.112 c 0,0 -0.4,0.117 -0.4,0.117 l -0.4,0.122 -0.4,0.128 -0.399,0.133 -0.399,0.138 -0.398,0.144 c 0,0 -0.398,0.149 -0.398,0.149 l -0.397,0.154 -0.396,0.16 c 0,0 -0.395,0.165 -0.395,0.165 l -0.394,0.17 -0.392,0.175 -0.391,0.181 -0.39,0.186 -0.388,0.191 c 0,0 -0.386,0.197 -0.386,0.197 l -0.385,0.202 -0.383,0.207 -0.381,0.212 -0.379,0.218 -0.376,0.223 -0.374,0.228 -0.372,0.233 -0.369,0.238 -0.367,0.243 -0.364,0.248 -0.361,0.253 -0.358,0.258 -0.355,0.263 -0.352,0.268 -0.349,0.272 -0.346,0.277 -0.342,0.282 -0.339,0.286 -0.335,0.291 -0.332,0.295 -0.328,0.3 -0.324,0.304 c 0,0 -0.32,0.308 -0.32,0.308 l -0.316,0.312 -0.312,0.316 -0.308,0.32 -0.304,0.324 -0.3,0.328 -0.295,0.332 -0.291,0.335 -0.286,0.339 c 0,0 -0.282,0.342 -0.282,0.342 l -0.277,0.346 c 0,0 -0.272,0.349 -0.272,0.349 l -0.268,0.352 c 0,0 -0.263,0.355 -0.263,0.355 l -0.258,0.358 c 0,0 -0.253,0.361 -0.253,0.361 l -0.248,0.364 -0.243,0.367 c 0,0 -0.238,0.369 -0.238,0.369 l -0.233,0.372 -0.228,0.374 -0.223,0.376 -0.218,0.379 -0.212,0.381 c 0,0 -0.207,0.383 -0.207,0.383 l -0.202,0.385 -0.197,0.386 -0.191,0.388 -0.186,0.39 -0.181,0.391 -0.176,0.392 -0.17,0.394 -0.165,0.395 -0.16,0.396 -0.154,0.397 -0.149,0.398 c 0,0 -0.144,0.398 -0.144,0.398 l -0.138,0.399 -0.133,0.399 -0.128,0.4 -0.122,0.4 -0.117,0.4 -0.112,0.4 -0.107,0.401 -0.102,0.4 -0.096,0.4 -0.091,0.4 -0.086,0.4 c 0,0 -0.081,0.399 -0.081,0.399 l -0.076,0.399 -0.071,0.398 c 0,0 -0.066,0.398 -0.066,0.398 l -0.061,0.397 -0.057,0.396 -0.052,0.395 -0.047,0.394 -0.042,0.393 -0.038,0.392 -0.033,0.391 -0.028,0.389 -0.024,0.388 c 0,0 -0.019,0.387 -0.019,0.387 l -0.015,0.385 -0.011,0.384 -0.006,0.382 -0.002,0.38 c 0,0.04 0,127.599 0,127.599 h -1.94 v 47.866 h 1.94 v 369.317 c 0,0.051 0.002,0.432 0.002,0.432 l 0.006,0.382 0.011,0.383 0.015,0.385 0.019,0.387 0.024,0.388 0.028,0.389 0.033,0.391 0.038,0.392 0.042,0.393 0.047,0.394 0.052,0.395 0.057,0.396 0.061,0.397 0.066,0.398 0.071,0.398 0.076,0.399 0.081,0.399 c 0,0 0.086,0.4 0.086,0.4 l 0.091,0.4 0.096,0.4 0.102,0.4 0.107,0.401 0.112,0.401 0.117,0.4 0.122,0.4 0.128,0.4 0.133,0.399 c 0,0 0.138,0.399 0.138,0.399 l 0.144,0.398 0.149,0.398 0.154,0.397 0.16,0.396 0.165,0.395 0.17,0.394 0.176,0.392 c 0,0 0.181,0.391 0.181,0.391 l 0.186,0.39 0.191,0.388 0.197,0.386 0.202,0.385 0.207,0.383 c 0,0 0.212,0.381 0.212,0.381 l 0.218,0.379 0.223,0.376 0.228,0.374 0.233,0.372 c 0,0 0.238,0.369 0.238,0.369 0,0 0.243,0.367 0.243,0.367 l 0.248,0.364 0.253,0.361 0.258,0.358 c 0,0 0.263,0.355 0.263,0.355 l 0.268,0.352 0.272,0.349 0.277,0.346 c 0,0 0.282,0.342 0.282,0.342 l 0.286,0.339 0.291,0.335 0.295,0.332 0.3,0.328 0.304,0.324 0.308,0.32 0.312,0.316 0.316,0.312 0.32,0.308 0.324,0.304 0.328,0.3 c 0,0 0.332,0.295 0.332,0.295 l 0.335,0.291 c 0,0 0.339,0.286 0.339,0.286 0,0 0.342,0.282 0.342,0.282 l 0.346,0.277 0.349,0.272 0.352,0.268 0.355,0.263 0.358,0.258 0.361,0.253 0.364,0.248 0.367,0.243 0.369,0.238 0.372,0.233 0.374,0.228 0.376,0.223 0.379,0.218 c 0,0 0.381,0.212 0.381,0.212 l 0.383,0.207 0.385,0.202 0.386,0.197 0.388,0.191 0.39,0.186 0.391,0.181 0.392,0.175 0.394,0.17 0.395,0.165 c 0,0 0.396,0.16 0.396,0.16 l 0.397,0.154 0.398,0.149 c 0,0 0.398,0.144 0.398,0.144 0,0 0.399,0.138 0.399,0.138 l 0.399,0.133 0.4,0.128 0.4,0.122 0.4,0.117 0.401,0.112 0.401,0.107 c 0,0 0.4,0.102 0.4,0.102 l 0.4,0.096 0.4,0.091 0.4,0.086 0.399,0.081 0.399,0.076 0.398,0.071 0.398,0.066 c 0,0 0.397,0.061 0.397,0.061 l 0.396,0.057 0.395,0.052 0.394,0.047 c 0,0 0.393,0.042 0.393,0.042 l 0.392,0.038 c 0,0 0.391,0.033 0.391,0.033 l 0.389,0.028 0.388,0.024 0.387,0.019 0.385,0.015 0.384,0.011 0.382,0.006 0.38,0.002 h 217.708 l 0.38,-0.002 0.382,-0.006 c 0,0 0.384,-0.011 0.384,-0.011 l 0.385,-0.015 0.387,-0.019 0.388,-0.024 0.389,-0.028 0.391,-0.033 c 0,0 0.392,-0.038 0.392,-0.038 l 0.393,-0.042 0.394,-0.047 0.395,-0.052 0.396,-0.057 0.397,-0.061 c 0,0 0.398,-0.066 0.398,-0.066 0,0 0.398,-0.071 0.398,-0.071 l 0.399,-0.076 0.399,-0.081 0.4,-0.086 0.4,-0.091 0.4,-0.096 0.401,-0.102 c 0,0 0.401,-0.107 0.401,-0.107 l 0.401,-0.112 c 0,0 0.4,-0.117 0.4,-0.117 l 0.4,-0.122 0.4,-0.128 0.399,-0.133 0.399,-0.138 0.398,-0.144 c 0,0 0.398,-0.149 0.398,-0.149 l 0.397,-0.154 c 0,0 0.396,-0.16 0.396,-0.16 l 0.395,-0.165 0.394,-0.17 0.392,-0.175 0.391,-0.181 0.39,-0.186 0.388,-0.191 0.386,-0.197 0.385,-0.202 0.383,-0.207 0.381,-0.212 0.379,-0.218 0.376,-0.223 0.374,-0.228 0.372,-0.233 0.369,-0.238 0.367,-0.243 0.364,-0.248 0.361,-0.253 0.358,-0.258 0.355,-0.263 0.352,-0.268 0.349,-0.272 0.346,-0.277 c 0,0 0.342,-0.282 0.342,-0.282 l 0.339,-0.286 0.335,-0.291 0.332,-0.295 0.328,-0.3 0.324,-0.304 0.32,-0.308 0.316,-0.312 0.312,-0.316 0.308,-0.32 0.304,-0.324 0.3,-0.328 0.295,-0.332 0.291,-0.335 0.286,-0.339 0.282,-0.342 c 0,0 0.277,-0.346 0.277,-0.346 l 0.272,-0.349 0.268,-0.352 c 0,0 0.263,-0.355 0.263,-0.355 l 0.258,-0.358 0.253,-0.361 0.248,-0.364 0.243,-0.367 c 0,0 0.238,-0.369 0.238,-0.369 0,0 0.233,-0.372 0.233,-0.372 l 0.228,-0.374 0.223,-0.376 0.218,-0.379 0.212,-0.381 0.207,-0.383 0.202,-0.385 0.197,-0.386 0.191,-0.388 0.186,-0.39 0.181,-0.391 c 0,0 0.176,-0.392 0.176,-0.392 l 0.17,-0.394 0.165,-0.395 0.159,-0.396 0.154,-0.397 0.149,-0.398 0.144,-0.398 0.138,-0.399 c 0,0 0.133,-0.399 0.133,-0.399 l 0.128,-0.4 0.122,-0.4 0.117,-0.4 0.112,-0.401 0.107,-0.401 0.102,-0.4 0.096,-0.4 0.091,-0.4 0.086,-0.4 0.081,-0.399 0.076,-0.399 0.071,-0.398 0.066,-0.398 0.061,-0.397 0.057,-0.396 0.052,-0.395 0.047,-0.394 0.042,-0.393 0.038,-0.392 0.033,-0.391 0.028,-0.389 0.024,-0.388 0.019,-0.387 0.015,-0.385 0.011,-0.383 0.006,-0.382 0.002,-0.38 c 0,-0.051 0,-324.903 0,-324.903 h 1.94 v -47.866 h -1.94 v -30.373 c 0,0 1.94,0 1.94,0 v -82.926 h -1.939 z"
         id="path28904"
         style="stroke:#80ffe6;stroke-opacity:1" />
    </g>
  </g>
</svg>
